<?xml version="1.0" encoding="UTF-8" standalone="no"?>
<!DOCTYPE svg PUBLIC "-//W3C//DTD SVG 1.1//EN" "http://www.w3.org/Graphics/SVG/1.1/DTD/svg11.dtd">
<svg width="90px" height="380px" version="1.1" xmlns="http://www.w3.org/2000/svg" xmlns:xlink="http://www.w3.org/1999/xlink" xml:space="preserve" xmlns:serif="http://www.serif.com/" style="fill-rule:evenodd;clip-rule:evenodd;stroke-miterlimit:1.5;">
    <rect id="Acceleration-ST-Dark" serif:id="Acceleration ST Dark" x="0" y="0" width="90" height="379.995" style="fill:none;"/>
    <clipPath id="_clip1">
        <rect x="0" y="0" width="90" height="379.995"/>
    </clipPath>
    <g clip-path="url(#_clip1)">
        <g id="Background">
            <path id="bright" d="M90,379.995l0,-379.995l-90,0l0,379.995l90,0Z" style="fill:rgb(54,69,74);"/>
            <g id="knobBgMediumThree">
                <path d="M55.043,150.091c5.474,-5.466 5.474,-14.329 0,-19.795c-5.47,-5.463 -14.352,-5.463 -19.823,0c-5.474,5.466 -5.474,14.329 0,19.795l9.912,-9.898l9.911,9.898Z" style="fill:none;stroke:rgb(128,128,128);stroke-width:0.7px;"/>
            </g>
            <circle cx="63.75" cy="325" r="14" style="fill:rgb(51,51,51);"/>
            <circle cx="26.25" cy="325" r="14" style="fill:rgb(51,51,51);"/>
            <path d="M79.68,24.6l10.32,0" style="fill:none;stroke:rgb(128,128,128);stroke-width:0.7px;stroke-linecap:round;stroke-linejoin:round;"/>
            <path d="M0,24.6l10.23,0" style="fill:none;stroke:rgb(128,128,128);stroke-width:0.7px;stroke-linecap:round;stroke-linejoin:round;"/>
            <g id="knobBgLargeThree">
                <g>
                    <path d="M65.754,95.976c11.461,-11.44 11.461,-29.987 0,-41.427c-11.455,-11.431 -30.053,-11.431 -41.508,0c-11.461,11.44 -11.461,29.987 0,41.427l20.754,-20.714l20.754,20.714Z" style="fill:none;stroke:rgb(128,128,128);stroke-width:0.7px;"/>
                </g>
            </g>
        </g>
        <g id="Lables">
            <g id="Branding">
                <path d="M27.355,362.45l0.545,0c0.049,0 0.07,-0.028 0.056,-0.077l-0.72,-2.163c-0.007,-0.021 0,-0.028 0.014,-0.042c0.419,-0.182 0.685,-0.637 0.685,-1.232c0,-0.826 -0.482,-1.393 -1.204,-1.393l-1.252,0c-0.042,0 -0.07,0.028 -0.07,0.07l0,4.767c0,0.042 0.028,0.07 0.07,0.07l0.531,0c0.042,0 0.07,-0.028 0.07,-0.07l0,-2.079c0,-0.014 0.014,-0.028 0.028,-0.028l0.483,0c0.014,0 0.021,0 0.028,0.021l0.652,2.1c0.014,0.035 0.049,0.056 0.084,0.056Zm-1.247,-4.326l0.518,0c0.379,0 0.638,0.315 0.638,0.819c0,0.49 -0.259,0.805 -0.638,0.805l-0.518,0c-0.014,0 -0.028,-0.014 -0.028,-0.028l0,-1.568c0,-0.014 0.014,-0.028 0.028,-0.028Z" style="fill:rgb(199,206,201);fill-rule:nonzero;"/>
                <path d="M31.043,362.45l0.546,0c0.049,0 0.07,-0.035 0.063,-0.077l-1.057,-4.76c-0.007,-0.042 -0.035,-0.063 -0.077,-0.063l-0.615,0c-0.042,0 -0.07,0.021 -0.077,0.063l-1.043,4.76c-0.007,0.042 0.014,0.077 0.063,0.077l0.532,0c0.042,0 0.07,-0.021 0.077,-0.063l0.161,-0.805c0,-0.014 0.021,-0.028 0.035,-0.028l1.126,0c0.014,0 0.035,0.014 0.035,0.028l0.154,0.805c0.007,0.042 0.035,0.063 0.077,0.063Zm-1.308,-1.456l0.475,-2.394c0.007,-0.028 0.021,-0.028 0.028,0l0.462,2.394c0,0.014 -0.007,0.028 -0.021,0.028l-0.923,0c-0.014,0 -0.021,-0.014 -0.021,-0.028Z" style="fill:rgb(199,206,201);fill-rule:nonzero;"/>
                <path d="M33.717,362.506c0.764,0 1.267,-0.497 1.267,-1.267l0,-0.105c0,-0.042 -0.028,-0.07 -0.07,-0.07l-0.531,-0.028c-0.042,0 -0.07,0.028 -0.07,0.07l0,0.182c0,0.378 -0.238,0.637 -0.596,0.637c-0.357,0 -0.588,-0.259 -0.588,-0.637l0,-2.576c0,-0.385 0.231,-0.637 0.588,-0.637c0.358,0 0.596,0.252 0.596,0.637l0,0.182c0,0.042 0.028,0.07 0.07,0.07l0.531,-0.028c0.042,0 0.07,-0.028 0.07,-0.07l0,-0.112c0,-0.77 -0.503,-1.26 -1.267,-1.26c-0.756,0 -1.259,0.49 -1.259,1.26l0,2.485c0,0.77 0.503,1.267 1.259,1.267Z" style="fill:rgb(199,206,201);fill-rule:nonzero;"/>
                <path d="M36.14,362.45l0.531,0c0.042,0 0.07,-0.028 0.07,-0.07l0,-1.575c0,-0.014 0,-0.028 0.007,-0.035l0.357,-0.567c0.014,-0.014 0.028,-0.014 0.035,0.007l0.91,2.184c0.014,0.042 0.042,0.056 0.077,0.056l0.581,0c0.049,0 0.077,-0.035 0.056,-0.084l-1.169,-2.744c-0.007,-0.014 -0.007,-0.028 0,-0.042l1.078,-1.946c0.028,-0.049 0.007,-0.084 -0.049,-0.084l-0.574,0c-0.035,0 -0.063,0.021 -0.084,0.049l-1.19,2.128c-0.014,0.028 -0.035,0.021 -0.035,-0.007l0,-2.1c0,-0.042 -0.028,-0.07 -0.07,-0.07l-0.531,0c-0.042,0 -0.07,0.028 -0.07,0.07l0,4.76c0,0.042 0.028,0.07 0.07,0.07Z" style="fill:rgb(199,206,201);fill-rule:nonzero;"/>
                <path d="M40.438,362.45l0.497,0c0.042,0 0.063,-0.014 0.07,-0.063l0.503,-3.311c0,-0.021 0.021,-0.021 0.028,0l0.532,3.311c0.007,0.042 0.028,0.063 0.07,0.063l0.497,0c0.042,0 0.07,-0.021 0.077,-0.063l0.882,-4.76c0.007,-0.042 -0.014,-0.077 -0.063,-0.077l-0.546,0c-0.042,0 -0.063,0.021 -0.07,0.063l-0.518,3.283c-0.007,0.021 -0.021,0.021 -0.028,0l-0.539,-3.283c-0.007,-0.042 -0.028,-0.063 -0.07,-0.063l-0.469,0c-0.042,0 -0.063,0.014 -0.07,0.063l-0.503,3.283c-0.007,0.021 -0.021,0.021 -0.028,0l-0.567,-3.283c-0.007,-0.042 -0.035,-0.063 -0.077,-0.063l-0.553,0c-0.049,0 -0.07,0.035 -0.063,0.077l0.931,4.76c0.007,0.042 0.035,0.063 0.077,0.063Z" style="fill:rgb(199,206,201);fill-rule:nonzero;"/>
                <path d="M44.624,362.45l0.531,0c0.042,0 0.07,-0.028 0.07,-0.07l0,-4.76c0,-0.042 -0.028,-0.07 -0.07,-0.07l-0.531,0c-0.042,0 -0.07,0.028 -0.07,0.07l0,4.76c0,0.042 0.028,0.07 0.07,0.07Z" style="fill:rgb(199,206,201);fill-rule:nonzero;"/>
                <path d="M46.52,362.45l0.525,0c0.042,0 0.07,-0.028 0.07,-0.07l-0.007,-3.073c0,-0.028 0.028,-0.028 0.035,0l1.246,3.087c0.014,0.042 0.042,0.056 0.077,0.056l0.546,0c0.042,0 0.07,-0.028 0.07,-0.07l0,-4.76c0,-0.042 -0.028,-0.07 -0.07,-0.07l-0.525,0c-0.042,0 -0.07,0.028 -0.07,0.07l0,3.066c0,0.028 -0.028,0.035 -0.035,0.007l-1.246,-3.087c-0.014,-0.042 -0.042,-0.056 -0.077,-0.056l-0.539,0c-0.042,0 -0.07,0.028 -0.07,0.07l0,4.76c0,0.042 0.028,0.07 0.07,0.07Z" style="fill:rgb(199,206,201);fill-rule:nonzero;"/>
                <path d="M50.371,362.45l1.147,0c0.771,0 1.267,-0.511 1.267,-1.323l0,-2.254c0,-0.812 -0.496,-1.323 -1.267,-1.323l-1.147,0c-0.042,0 -0.07,0.028 -0.07,0.07l0,4.76c0,0.042 0.028,0.07 0.07,0.07Zm0.601,-0.609l0,-3.682c0,-0.014 0.014,-0.028 0.028,-0.028l0.511,0c0.365,0 0.596,0.301 0.596,0.777l0,2.184c-0.007,0.476 -0.238,0.77 -0.596,0.77l-0.511,0.007c-0.014,0 -0.028,-0.014 -0.028,-0.028Z" style="fill:rgb(199,206,201);fill-rule:nonzero;"/>
                <path d="M55.109,362.506c0.771,0 1.288,-0.504 1.288,-1.281l0,-2.443c0,-0.777 -0.517,-1.288 -1.288,-1.288c-0.763,0 -1.273,0.511 -1.273,1.288l0,2.443c0,0.777 0.51,1.281 1.273,1.281Zm0,-0.581c-0.364,0 -0.602,-0.273 -0.602,-0.672l0,-2.506c0,-0.399 0.238,-0.672 0.602,-0.672c0.372,0 0.617,0.273 0.617,0.672l0,2.506c0,0.399 -0.245,0.672 -0.617,0.672Z" style="fill:rgb(199,206,201);fill-rule:nonzero;"/>
                <path d="M58.19,362.45l0.497,0c0.042,0 0.063,-0.014 0.07,-0.063l0.503,-3.311c0,-0.021 0.021,-0.021 0.028,0l0.532,3.311c0.007,0.042 0.028,0.063 0.07,0.063l0.497,0c0.042,0 0.07,-0.021 0.077,-0.063l0.882,-4.76c0.007,-0.042 -0.014,-0.077 -0.063,-0.077l-0.546,0c-0.042,0 -0.063,0.021 -0.07,0.063l-0.518,3.283c-0.007,0.021 -0.021,0.021 -0.028,0l-0.539,-3.283c-0.007,-0.042 -0.028,-0.063 -0.07,-0.063l-0.469,0c-0.042,0 -0.063,0.014 -0.07,0.063l-0.503,3.283c-0.007,0.021 -0.021,0.021 -0.028,0l-0.567,-3.283c-0.007,-0.042 -0.035,-0.063 -0.077,-0.063l-0.553,0c-0.049,0 -0.07,0.035 -0.063,0.077l0.931,4.76c0.007,0.042 0.035,0.063 0.077,0.063Z" style="fill:rgb(199,206,201);fill-rule:nonzero;"/>
                <path d="M63.341,362.506c0.729,0 1.246,-0.504 1.246,-1.295c0,-0.672 -0.371,-0.966 -1.084,-1.498c-0.54,-0.399 -0.743,-0.588 -0.743,-0.987c0,-0.42 0.231,-0.651 0.546,-0.651c0.344,0 0.582,0.28 0.582,0.7l0,0.189c0,0.042 0.028,0.07 0.07,0.07l0.517,0c0.042,0 0.07,-0.028 0.07,-0.07l0,-0.175c0,-0.777 -0.489,-1.295 -1.239,-1.295c-0.707,0 -1.21,0.469 -1.21,1.232c0,0.763 0.503,1.134 1.042,1.533c0.505,0.371 0.785,0.567 0.785,0.994c0,0.406 -0.252,0.672 -0.582,0.672c-0.336,0 -0.574,-0.273 -0.574,-0.707l0,-0.154c0,-0.042 -0.028,-0.07 -0.07,-0.07l-0.517,0c-0.042,0 -0.07,0.028 -0.07,0.07l0,0.189c0,0.749 0.496,1.253 1.231,1.253Z" style="fill:rgb(199,206,201);fill-rule:nonzero;"/>
                <path d="M17.179,24.904l1.116,0c0.096,0 0.156,-0.048 0.132,-0.156l-1.776,-8.111c-0.012,-0.084 -0.072,-0.132 -0.156,-0.132l-1.284,0c-0.084,0 -0.144,0.049 -0.156,0.133l-1.765,8.11c-0.024,0.108 0.024,0.156 0.12,0.156l1.105,0c0.084,0 0.144,-0.036 0.156,-0.132l0.24,-1.272c0,-0.036 0.036,-0.048 0.072,-0.048l1.74,0c0.036,0 0.072,0.024 0.072,0.06l0.228,1.26c0.012,0.096 0.072,0.132 0.156,0.132Zm-2.028,-2.602l0.696,-3.626c0.012,-0.048 0.06,-0.048 0.072,0l0.66,3.625c0.012,0.048 -0.024,0.061 -0.06,0.061l-1.308,0c-0.036,0 -0.072,-0.012 -0.06,-0.06Z" style="fill:white;fill-rule:nonzero;"/>
                <path d="M21.456,25c1.368,0 2.279,-0.887 2.279,-2.255l0,-0.144c0,-0.084 -0.06,-0.144 -0.144,-0.144l-1.115,-0.048c-0.084,0 -0.144,0.06 -0.144,0.144l0,0.3c0,0.564 -0.348,0.948 -0.876,0.948c-0.517,0 -0.865,-0.384 -0.865,-0.948l0,-4.297c0,-0.564 0.348,-0.948 0.865,-0.948c0.528,0 0.876,0.384 0.876,0.948l0,0.3c0,0.096 0.06,0.144 0.144,0.144l1.115,-0.048c0.084,0 0.144,-0.072 0.144,-0.156l0,-0.144c0,-1.38 -0.911,-2.243 -2.279,-2.243c-1.357,0 -2.256,0.863 -2.256,2.243l0,4.093c0,1.368 0.899,2.255 2.256,2.255Z" style="fill:white;fill-rule:nonzero;"/>
                <path d="M27.06,25c1.368,0 2.279,-0.887 2.279,-2.255l0,-0.144c0,-0.084 -0.06,-0.144 -0.144,-0.144l-1.115,-0.048c-0.084,0 -0.144,0.06 -0.144,0.144l0,0.3c0,0.564 -0.348,0.948 -0.876,0.948c-0.517,0 -0.865,-0.384 -0.865,-0.948l0,-4.297c0,-0.564 0.348,-0.948 0.865,-0.948c0.528,0 0.876,0.384 0.876,0.948l0,0.3c0,0.096 0.06,0.144 0.144,0.144l1.115,-0.048c0.084,0 0.144,-0.072 0.144,-0.156l0,-0.144c0,-1.38 -0.911,-2.243 -2.279,-2.243c-1.357,0 -2.256,0.863 -2.256,2.243l0,4.093c0,1.368 0.899,2.255 2.256,2.255Z" style="fill:white;fill-rule:nonzero;"/>
                <path d="M34.739,17.56l0,-0.911c0,-0.084 -0.06,-0.143 -0.144,-0.143l-3.899,0c-0.084,0 -0.144,0.059 -0.144,0.143l0,8.111c0,0.084 0.06,0.144 0.144,0.144l3.899,0c0.084,0 0.144,-0.06 0.144,-0.144l0,-0.911c0,-0.084 -0.06,-0.143 -0.144,-0.143l-2.592,0c-0.036,0 -0.06,-0.025 -0.06,-0.061l0,-2.281c0,-0.036 0.024,-0.06 0.06,-0.06l1.536,0c0.084,0 0.144,-0.06 0.144,-0.144l0,-0.923c0,-0.084 -0.06,-0.144 -0.144,-0.144l-1.536,0c-0.036,0 -0.06,-0.024 -0.06,-0.06l0,-2.269c0,-0.036 0.024,-0.06 0.06,-0.06l2.592,0c0.084,0 0.144,-0.06 0.144,-0.144Z" style="fill:white;fill-rule:nonzero;"/>
                <path d="M36.036,24.904l3.899,0c0.084,0 0.144,-0.06 0.144,-0.144l0,-0.911c0,-0.084 -0.06,-0.143 -0.144,-0.143l-2.592,0c-0.036,0 -0.06,-0.024 -0.06,-0.061l0,-6.996c0,-0.084 -0.06,-0.144 -0.144,-0.144l-1.103,0c-0.084,0 -0.144,0.06 -0.144,0.144l0,8.111c0,0.084 0.06,0.144 0.144,0.144Z" style="fill:white;fill-rule:nonzero;"/>
                <path d="M45.179,17.56l0,-0.911c0,-0.084 -0.06,-0.143 -0.144,-0.143l-3.899,0c-0.084,0 -0.144,0.059 -0.144,0.143l0,8.111c0,0.084 0.06,0.144 0.144,0.144l3.899,0c0.084,0 0.144,-0.06 0.144,-0.144l0,-0.911c0,-0.084 -0.06,-0.143 -0.144,-0.143l-2.592,0c-0.036,0 -0.06,-0.025 -0.06,-0.061l0,-2.281c0,-0.036 0.024,-0.06 0.06,-0.06l1.536,0c0.084,0 0.144,-0.06 0.144,-0.144l0,-0.923c0,-0.084 -0.06,-0.144 -0.144,-0.144l-1.536,0c-0.036,0 -0.06,-0.024 -0.06,-0.06l0,-2.269c0,-0.036 0.024,-0.06 0.06,-0.06l2.592,0c0.084,0 0.144,-0.06 0.144,-0.144Z" style="fill:white;fill-rule:nonzero;"/>
                <path d="M49.656,24.904l1.151,0c0.096,0 0.156,-0.06 0.12,-0.168l-1.175,-3.612c-0.012,-0.036 0,-0.06 0.036,-0.072c0.683,-0.359 1.091,-1.115 1.091,-2.111c0,-1.453 -0.863,-2.448 -2.147,-2.448l-2.256,0c-0.084,0 -0.144,0.06 -0.144,0.144l0,8.123c0,0.084 0.06,0.144 0.144,0.144l1.103,0c0.084,0 0.144,-0.06 0.144,-0.144l0,-3.42c0,-0.036 0.024,-0.06 0.06,-0.06l0.624,0c0.037,0 0.049,0.024 0.061,0.048l1.032,3.456c0.024,0.072 0.072,0.12 0.156,0.12Zm-1.873,-7.212l0.733,0c0.576,0 0.972,0.48 0.972,1.273c0,0.768 -0.396,1.237 -0.972,1.237l-0.733,0c-0.036,0 -0.06,-0.025 -0.06,-0.061l0,-2.389c0,-0.036 0.024,-0.06 0.06,-0.06Z" style="fill:white;fill-rule:nonzero;"/>
                <path d="M55.651,24.904l1.116,0c0.096,0 0.156,-0.048 0.132,-0.156l-1.776,-8.111c-0.012,-0.084 -0.072,-0.132 -0.156,-0.132l-1.284,0c-0.084,0 -0.144,0.049 -0.156,0.133l-1.765,8.11c-0.024,0.108 0.024,0.156 0.12,0.156l1.105,0c0.084,0 0.144,-0.036 0.156,-0.132l0.24,-1.272c0,-0.036 0.036,-0.048 0.072,-0.048l1.74,0c0.036,0 0.072,0.024 0.072,0.06l0.228,1.26c0.012,0.096 0.072,0.132 0.156,0.132Zm-2.028,-2.602l0.696,-3.626c0.012,-0.048 0.06,-0.048 0.072,0l0.66,3.625c0.012,0.048 -0.024,0.061 -0.06,0.061l-1.308,0c-0.036,0 -0.072,-0.012 -0.06,-0.06Z" style="fill:white;fill-rule:nonzero;"/>
                <path d="M61.607,16.505l-4.475,0c-0.084,0 -0.144,0.06 -0.144,0.144l0,0.911c0,0.084 0.06,0.144 0.144,0.144l1.44,0c0.036,0 0.06,0.024 0.06,0.06l0,6.996c0,0.084 0.06,0.144 0.144,0.144l1.103,0c0.084,0 0.144,-0.06 0.144,-0.144l0,-6.996c0,-0.036 0.024,-0.06 0.06,-0.06l1.524,0c0.084,0 0.144,-0.06 0.144,-0.144l0,-0.911c0,-0.084 -0.06,-0.143 -0.144,-0.143Z" style="fill:white;fill-rule:nonzero;"/>
                <path d="M62.988,24.904l1.103,0c0.084,0 0.144,-0.06 0.144,-0.144l0,-8.11c0,-0.084 -0.06,-0.145 -0.144,-0.145l-1.103,0c-0.084,0 -0.144,0.061 -0.144,0.145l0,8.11c0,0.084 0.06,0.144 0.144,0.144Z" style="fill:white;fill-rule:nonzero;"/>
                <path d="M67.8,25c1.38,0 2.303,-0.899 2.303,-2.279l0,-4.033c0,-1.38 -0.923,-2.278 -2.303,-2.278c-1.381,0 -2.292,0.898 -2.292,2.278l0,4.033c0,1.38 0.911,2.279 2.292,2.279Zm0,-1.198c-0.553,0 -0.901,-0.421 -0.901,-1.021l0,-4.153c0,-0.6 0.348,-1.02 0.901,-1.02c0.552,0 0.912,0.42 0.912,1.02l0,4.153c0,0.6 -0.36,1.021 -0.912,1.021Z" style="fill:white;fill-rule:nonzero;"/>
                <path d="M71.532,24.905l1.08,0c0.084,0 0.144,-0.06 0.144,-0.144l-0.012,-4.848c0,-0.048 0.048,-0.06 0.072,-0.012l1.872,4.896c0.024,0.072 0.084,0.108 0.168,0.108l1.164,0c0.084,0 0.144,-0.06 0.144,-0.144l0,-8.112c0,-0.084 -0.06,-0.144 -0.144,-0.144l-1.092,0c-0.084,0 -0.144,0.06 -0.144,0.144l0,4.836c0,0.06 -0.048,0.06 -0.072,0.012l-1.86,-4.884c-0.024,-0.072 -0.084,-0.108 -0.168,-0.108l-1.152,0c-0.084,0 -0.144,0.06 -0.144,0.144l0,8.112c0,0.084 0.06,0.144 0.144,0.144Z" style="fill:white;fill-rule:nonzero;"/>
                <path d="M22.473,29.109l-0.333,2.736c0,0.018 -0.018,0.036 -0.036,0.036l-1.556,0c-0.018,0 -0.036,-0.018 -0.027,-0.036l0.333,-2.736c0.009,-0.054 -0.027,-0.09 -0.072,-0.09l-0.45,0c-0.054,0 -0.09,0.036 -0.099,0.09l-0.747,6.119c-0.009,0.054 0.018,0.09 0.072,0.09l0.45,0c0.045,0 0.09,-0.036 0.099,-0.09l0.333,-2.745c0,-0.018 0.018,-0.036 0.036,-0.036l1.556,0c0.018,0 0.036,0.018 0.027,0.036l-0.332,2.745c-0.009,0.054 0.027,0.09 0.072,0.09l0.449,0c0.054,0 0.09,-0.036 0.099,-0.09l0.747,-6.119c0.009,-0.054 -0.018,-0.09 -0.072,-0.09l-0.45,0c-0.045,0 -0.09,0.036 -0.099,0.09Z" style="fill:rgb(199,206,201);fill-rule:nonzero;"/>
                <path d="M24.517,29.954c0.242,0 0.44,-0.198 0.476,-0.477c0.027,-0.26 -0.117,-0.458 -0.368,-0.458c-0.252,0 -0.459,0.198 -0.486,0.458c-0.036,0.279 0.126,0.477 0.378,0.477Zm-0.891,5.364l0.45,0c0.054,0 0.09,-0.036 0.099,-0.09l0.531,-4.373c0.008,-0.054 -0.018,-0.09 -0.072,-0.09l-0.45,0c-0.045,0 -0.09,0.036 -0.09,0.09l-0.54,4.373c-0.009,0.054 0.018,0.09 0.072,0.09Z" style="fill:rgb(199,206,201);fill-rule:nonzero;"/>
                <path d="M27.819,30.855l-0.036,0.278c-0.009,0.036 -0.027,0.045 -0.045,0.009c-0.162,-0.305 -0.477,-0.449 -0.819,-0.449c-0.738,0 -1.25,0.548 -1.358,1.376l-0.224,1.9c-0.108,0.81 0.26,1.376 1.015,1.376c0.333,0 0.675,-0.144 0.927,-0.458c0.027,-0.027 0.045,-0.009 0.045,0.018l-0.036,0.269c-0.108,0.901 -0.459,1.423 -1.431,1.396c-0.053,0 -0.089,0.036 -0.098,0.09l-0.045,0.386c-0.009,0.054 0.018,0.09 0.072,0.099c1.421,0.063 1.97,-0.719 2.114,-1.917l0.54,-4.373c0,-0.054 -0.027,-0.09 -0.081,-0.09l-0.441,0c-0.054,0 -0.09,0.036 -0.099,0.09Zm-1.215,3.933c-0.441,0 -0.711,-0.351 -0.648,-0.855l0.225,-1.819c0.063,-0.513 0.414,-0.864 0.855,-0.864c0.432,0 0.693,0.351 0.63,0.864l-0.225,1.819c-0.063,0.504 -0.405,0.855 -0.837,0.855Z" style="fill:rgb(199,206,201);fill-rule:nonzero;"/>
                <path d="M31.006,30.702c-0.351,0 -0.702,0.135 -0.954,0.458c-0.027,0.027 -0.054,0.018 -0.054,-0.009l0.252,-2.042c0.009,-0.054 -0.018,-0.09 -0.072,-0.09l-0.45,0c-0.045,0 -0.09,0.036 -0.099,0.09l-0.747,6.119c-0.009,0.054 0.027,0.09 0.072,0.09l0.45,0c0.054,0 0.09,-0.036 0.099,-0.09l0.369,-2.997c0.072,-0.603 0.405,-0.972 0.864,-0.972c0.45,0 0.657,0.342 0.585,0.927l-0.369,3.042c-0.009,0.054 0.027,0.09 0.072,0.09l0.45,0c0.053,0 0.089,-0.036 0.098,-0.09l0.376,-3.096c0.108,-0.9 -0.224,-1.43 -0.942,-1.43Z" style="fill:rgb(199,206,201);fill-rule:nonzero;"/>
                <path d="M37.881,29.486l0.045,-0.377c0,-0.054 -0.027,-0.09 -0.081,-0.09l-2.573,0c-0.054,0 -0.09,0.036 -0.099,0.09l-0.747,6.119c-0.009,0.054 0.018,0.09 0.072,0.09l0.45,0c0.045,0 0.09,-0.036 0.099,-0.09l0.333,-2.745c0,-0.018 0.018,-0.036 0.036,-0.036l1.269,0c0.054,0 0.09,-0.036 0.099,-0.09l0.045,-0.386c0.009,-0.054 -0.018,-0.09 -0.072,-0.09l-1.269,0c-0.018,0 -0.036,-0.018 -0.027,-0.036l0.27,-2.233c0,-0.018 0.027,-0.036 0.045,-0.036l2.006,0c0.045,0 0.09,-0.036 0.099,-0.09Z" style="fill:rgb(199,206,201);fill-rule:nonzero;"/>
                <path d="M39.663,30.72c-0.414,0 -0.711,0.279 -0.918,0.684c-0.009,0.027 -0.036,0.027 -0.036,-0.009l0.072,-0.54c0,-0.054 -0.027,-0.09 -0.081,-0.09l-0.44,0c-0.054,0 -0.099,0.036 -0.099,0.09l-0.54,4.373c-0.009,0.054 0.027,0.09 0.072,0.09l0.45,0c0.054,0 0.09,-0.036 0.099,-0.09l0.333,-2.699c0.072,-0.612 0.431,-1.089 0.845,-1.116c0.153,-0.027 0.279,-0.009 0.369,0.036c0.054,0.018 0.099,0.009 0.117,-0.054l0.153,-0.459c0.018,-0.045 0.009,-0.09 -0.027,-0.117c-0.09,-0.054 -0.198,-0.099 -0.369,-0.099Z" style="fill:rgb(199,206,201);fill-rule:nonzero;"/>
                <path d="M43.029,33.194l0.135,-1.125c0.099,-0.81 -0.35,-1.376 -1.196,-1.376c-0.838,0 -1.44,0.566 -1.539,1.376l-0.234,1.944c-0.099,0.829 0.36,1.377 1.187,1.377c0.775,0 1.315,-0.449 1.486,-1.151c0.018,-0.054 -0.009,-0.1 -0.063,-0.1l-0.432,-0.018c-0.054,0 -0.081,0.027 -0.108,0.082c-0.126,0.369 -0.423,0.63 -0.81,0.63c-0.433,0 -0.703,-0.351 -0.64,-0.856l0.081,-0.657c0,-0.018 0.027,-0.036 0.045,-0.036l1.99,0c0.053,0 0.089,-0.036 0.098,-0.09Zm-1.133,-1.944c0.45,0 0.72,0.351 0.657,0.865l-0.081,0.603c0,0.018 -0.018,0.036 -0.036,0.036l-1.432,0c-0.018,0 -0.036,-0.018 -0.036,-0.036l0.081,-0.603c0.063,-0.514 0.406,-0.865 0.847,-0.865Z" style="fill:rgb(199,206,201);fill-rule:nonzero;"/>
                <path d="M46.242,30.855l-0.036,0.261c0,0.027 -0.018,0.045 -0.045,0.018c-0.162,-0.288 -0.45,-0.441 -0.81,-0.441c-0.693,0 -1.214,0.575 -1.349,1.376c-0.045,0.333 -0.09,0.666 -0.126,1c-0.045,0.333 -0.081,0.639 -0.117,0.972c-0.063,0.791 0.306,1.349 1.016,1.349c0.36,0 0.684,-0.144 0.918,-0.432c0.027,-0.027 0.045,-0.009 0.045,0.018l-0.252,1.998c0,0.054 0.027,0.09 0.081,0.09l0.441,0c0.054,0 0.09,-0.036 0.099,-0.09l0.756,-6.119c0,-0.054 -0.027,-0.09 -0.081,-0.09l-0.441,0c-0.054,0 -0.09,0.036 -0.099,0.09Zm-1.215,3.977c-0.441,0 -0.711,-0.36 -0.639,-0.899c0.027,-0.315 0.081,-0.657 0.108,-0.891l0.108,-0.892c0.054,-0.531 0.405,-0.9 0.864,-0.9c0.414,0 0.675,0.36 0.612,0.9l-0.216,1.783c-0.072,0.539 -0.414,0.899 -0.837,0.899Z" style="fill:rgb(199,206,201);fill-rule:nonzero;"/>
                <path d="M49.348,35.318l2.564,0c0.054,0 0.099,-0.036 0.099,-0.09l0.045,-0.377c0.009,-0.054 -0.018,-0.09 -0.072,-0.09l-1.997,0c-0.018,0 -0.036,-0.018 -0.036,-0.036l0.693,-5.616c0.009,-0.054 -0.027,-0.09 -0.072,-0.09l-0.45,0c-0.054,0 -0.09,0.036 -0.099,0.09l-0.747,6.119c-0.009,0.054 0.018,0.09 0.072,0.09Z" style="fill:rgb(199,206,201);fill-rule:nonzero;"/>
                <path d="M53.641,29.954c0.242,0 0.44,-0.198 0.476,-0.477c0.027,-0.26 -0.117,-0.458 -0.368,-0.458c-0.252,0 -0.459,0.198 -0.486,0.458c-0.036,0.279 0.126,0.477 0.378,0.477Zm-0.891,5.364l0.45,0c0.054,0 0.09,-0.036 0.099,-0.09l0.531,-4.373c0.008,-0.054 -0.018,-0.09 -0.072,-0.09l-0.45,0c-0.045,0 -0.09,0.036 -0.09,0.09l-0.54,4.373c-0.009,0.054 0.018,0.09 0.072,0.09Z" style="fill:rgb(199,206,201);fill-rule:nonzero;"/>
                <path d="M58.493,30.702c-0.378,0 -0.81,0.171 -1.089,0.629c-0.018,0.036 -0.045,0.036 -0.045,0.009c-0.126,-0.404 -0.432,-0.638 -0.873,-0.638c-0.315,0 -0.657,0.126 -0.936,0.44c-0.027,0.027 -0.045,0.018 -0.036,-0.009l0.036,-0.278c0,-0.054 -0.027,-0.09 -0.081,-0.09l-0.432,0c-0.054,0 -0.099,0.036 -0.099,0.09l-0.54,4.373c-0.009,0.054 0.027,0.09 0.072,0.09l0.441,0c0.054,0 0.09,-0.036 0.099,-0.09l0.369,-2.997c0.072,-0.603 0.396,-0.972 0.846,-0.972c0.387,0 0.621,0.369 0.549,0.99l-0.369,2.979c-0.009,0.054 0.027,0.09 0.081,0.09l0.441,0c0.054,0 0.09,-0.036 0.099,-0.09l0.369,-2.997c0.072,-0.603 0.396,-0.972 0.837,-0.972c0.396,0 0.63,0.369 0.558,0.99l-0.369,2.979c-0.009,0.054 0.027,0.09 0.081,0.09l0.432,0c0.055,0 0.091,-0.036 0.1,-0.09l0.369,-3.033c0.117,-0.927 -0.216,-1.493 -0.91,-1.493Z" style="fill:rgb(199,206,201);fill-rule:nonzero;"/>
                <path d="M61.057,29.954c0.242,0 0.44,-0.198 0.476,-0.477c0.027,-0.26 -0.117,-0.458 -0.368,-0.458c-0.252,0 -0.459,0.198 -0.486,0.458c-0.036,0.279 0.126,0.477 0.378,0.477Zm-0.891,5.364l0.45,0c0.054,0 0.09,-0.036 0.099,-0.09l0.531,-4.373c0.008,-0.054 -0.018,-0.09 -0.072,-0.09l-0.45,0c-0.045,0 -0.09,0.036 -0.09,0.09l-0.54,4.373c-0.009,0.054 0.018,0.09 0.072,0.09Z" style="fill:rgb(199,206,201);fill-rule:nonzero;"/>
                <path d="M63.864,31.151l0.036,-0.296c0.009,-0.054 -0.018,-0.09 -0.072,-0.09l-0.665,0c-0.018,0 -0.027,-0.018 -0.027,-0.036l0.126,-1.008c0,-0.054 -0.027,-0.09 -0.081,-0.09l-0.433,0c-0.054,0 -0.099,0.036 -0.099,0.09l-0.126,1.008c0,0.018 -0.026,0.036 -0.044,0.036l-0.333,0c-0.054,0 -0.099,0.036 -0.099,0.09l-0.036,0.296c-0.009,0.054 0.018,0.09 0.072,0.09l0.342,0c0.018,0 0.036,0.018 0.027,0.036l-0.36,2.944c-0.108,0.908 0.297,1.097 0.917,1.097l0.216,0c0.054,0 0.09,-0.036 0.099,-0.09l0.045,-0.386c0.009,-0.054 -0.027,-0.09 -0.072,-0.09l-0.09,0c-0.369,0.009 -0.549,-0.144 -0.477,-0.72l0.333,-2.755c0.009,-0.018 0.027,-0.036 0.045,-0.036l0.657,0c0.054,0 0.099,-0.036 0.099,-0.09Z" style="fill:rgb(199,206,201);fill-rule:nonzero;"/>
                <path d="M67.032,33.194l0.135,-1.125c0.099,-0.81 -0.35,-1.376 -1.196,-1.376c-0.838,0 -1.44,0.566 -1.539,1.376l-0.234,1.944c-0.099,0.829 0.36,1.377 1.187,1.377c0.775,0 1.315,-0.449 1.486,-1.151c0.018,-0.054 -0.009,-0.1 -0.063,-0.1l-0.432,-0.018c-0.054,0 -0.081,0.027 -0.108,0.082c-0.126,0.369 -0.423,0.63 -0.81,0.63c-0.433,0 -0.703,-0.351 -0.64,-0.856l0.081,-0.657c0,-0.018 0.027,-0.036 0.045,-0.036l1.99,0c0.053,0 0.089,-0.036 0.098,-0.09Zm-1.133,-1.944c0.45,0 0.72,0.351 0.657,0.865l-0.081,0.603c0,0.018 -0.018,0.036 -0.036,0.036l-1.432,0c-0.018,0 -0.036,-0.018 -0.036,-0.036l0.081,-0.603c0.063,-0.514 0.406,-0.865 0.847,-0.865Z" style="fill:rgb(199,206,201);fill-rule:nonzero;"/>
                <path d="M69.741,30.72c-0.414,0 -0.711,0.279 -0.918,0.684c-0.009,0.027 -0.036,0.027 -0.036,-0.009l0.072,-0.54c0,-0.054 -0.027,-0.09 -0.081,-0.09l-0.44,0c-0.054,0 -0.099,0.036 -0.099,0.09l-0.54,4.373c-0.009,0.054 0.027,0.09 0.072,0.09l0.45,0c0.054,0 0.09,-0.036 0.099,-0.09l0.333,-2.699c0.072,-0.612 0.431,-1.089 0.845,-1.116c0.153,-0.027 0.279,-0.009 0.369,0.036c0.054,0.018 0.099,0.009 0.117,-0.054l0.153,-0.459c0.018,-0.045 0.009,-0.09 -0.027,-0.117c-0.09,-0.054 -0.198,-0.099 -0.369,-0.099Z" style="fill:rgb(199,206,201);fill-rule:nonzero;"/>
            </g>
            <path d="M21.062,307.591l0.458,0c0.054,0 0.09,-0.036 0.09,-0.09l0,-5.004c0,-0.054 -0.036,-0.09 -0.09,-0.09l-0.458,0c-0.054,0 -0.09,0.036 -0.09,0.09l0,5.004c0,0.054 0.036,0.09 0.09,0.09Z" style="fill:white;fill-rule:nonzero;"/>
            <path d="M22.961,307.591l0.449,0c0.054,0 0.09,-0.036 0.09,-0.09l0,-3.753c0,-0.036 0.036,-0.045 0.045,-0.009l1.522,3.78c0.018,0.054 0.054,0.072 0.099,0.072l0.476,0c0.054,0 0.09,-0.036 0.09,-0.09l0,-5.004c0,-0.054 -0.036,-0.09 -0.09,-0.09l-0.449,0c-0.054,0 -0.09,0.036 -0.09,0.09l0,3.744c0,0.036 -0.036,0.045 -0.045,0.009l-1.531,-3.771c-0.018,-0.054 -0.054,-0.072 -0.099,-0.072l-0.467,0c-0.054,0 -0.09,0.036 -0.09,0.09l0,5.004c0,0.054 0.036,0.09 0.09,0.09Z" style="fill:white;fill-rule:nonzero;"/>
            <path d="M29.063,307.591l2.375,0c0.054,0 0.09,-0.035 0.09,-0.089l0,-0.378c0,-0.054 -0.036,-0.089 -0.09,-0.089l-1.791,0c-0.018,0 -0.036,-0.018 -0.036,-0.036l0,-4.509c0,-0.054 -0.036,-0.09 -0.09,-0.09l-0.458,0c-0.054,0 -0.09,0.036 -0.09,0.09l0,5.012c0,0.054 0.036,0.089 0.09,0.089Z" style="fill:white;fill-rule:nonzero;"/>
            <path d="M19.541,267.596l2.375,0c0.054,0 0.09,-0.036 0.09,-0.09l0,-0.377c0,-0.054 -0.036,-0.09 -0.09,-0.09l-1.791,0c-0.018,0 -0.036,-0.018 -0.036,-0.036l0,-4.509c0,-0.054 -0.036,-0.09 -0.09,-0.09l-0.458,0c-0.054,0 -0.09,0.036 -0.09,0.09l0,5.012c0,0.054 0.036,0.09 0.09,0.09Z" style="fill:white;fill-rule:nonzero;"/>
            <path d="M22.898,267.596l0.458,0c0.054,0 0.09,-0.036 0.09,-0.09l0,-5.004c0,-0.054 -0.036,-0.09 -0.09,-0.09l-0.458,0c-0.054,0 -0.09,0.036 -0.09,0.09l0,5.004c0,0.054 0.036,0.09 0.09,0.09Z" style="fill:white;fill-rule:nonzero;"/>
            <path d="M24.797,267.596l0.458,0c0.054,0 0.09,-0.036 0.09,-0.09l0,-4.058c0,-0.036 0.036,-0.036 0.045,-0.009l0.756,1.699c0.018,0.054 0.045,0.075 0.082,0.075c0.036,0 0.063,-0.021 0.081,-0.075l0.747,-1.699c0.009,-0.027 0.045,-0.027 0.045,0.009l0,4.058c0,0.054 0.036,0.09 0.09,0.09l0.458,0c0.054,0 0.09,-0.036 0.09,-0.09l0,-5.012c0,-0.054 -0.036,-0.09 -0.09,-0.09l-0.467,0c-0.045,0 -0.081,0.027 -0.099,0.072l-0.837,1.825c-0.009,0.027 -0.046,0.027 -0.055,0l-0.837,-1.825c-0.018,-0.045 -0.054,-0.072 -0.099,-0.072l-0.458,0c-0.054,0 -0.09,0.036 -0.09,0.09l0,5.012c0,0.054 0.036,0.09 0.09,0.09Z" style="fill:white;fill-rule:nonzero;"/>
            <path d="M29.09,267.596l0.458,0c0.054,0 0.09,-0.036 0.09,-0.09l0,-5.004c0,-0.054 -0.036,-0.09 -0.09,-0.09l-0.458,0c-0.054,0 -0.09,0.036 -0.09,0.09l0,5.004c0,0.054 0.036,0.09 0.09,0.09Z" style="fill:white;fill-rule:nonzero;"/>
            <path d="M33.373,262.404l-2.717,0c-0.054,0 -0.09,0.036 -0.09,0.09l0,0.386c0,0.054 0.036,0.09 0.09,0.09l0.972,0c0.018,0 0.036,0.018 0.036,0.036l0,4.5c0,0.054 0.036,0.09 0.09,0.09l0.458,0c0.054,0 0.09,-0.036 0.09,-0.09l0,-4.5c0,-0.018 0.018,-0.036 0.036,-0.036l1.035,0c0.054,0 0.09,-0.036 0.09,-0.09l0,-0.386c0,-0.054 -0.036,-0.09 -0.09,-0.09Z" style="fill:white;fill-rule:nonzero;"/>
            <path d="M19.693,347.659c0.838,0 1.404,-0.539 1.404,-1.43l0,-2.449c0,-0.9 -0.566,-1.439 -1.404,-1.439c-0.846,0 -1.403,0.539 -1.403,1.439l0,2.449c0,0.891 0.557,1.43 1.403,1.43Zm0,-0.557c-0.45,0 -0.765,-0.306 -0.765,-0.837l0,-2.512c0,-0.54 0.315,-0.846 0.765,-0.846c0.46,0 0.766,0.306 0.766,0.846l0,2.512c0,0.531 -0.306,0.837 -0.766,0.837Z" style="fill:white;fill-rule:nonzero;"/>
            <path d="M23.581,347.659c0.847,0 1.395,-0.584 1.395,-1.538l0,-3.618c0,-0.054 -0.036,-0.09 -0.09,-0.09l-0.458,0c-0.054,0 -0.09,0.036 -0.09,0.09l0,3.672c0,0.576 -0.297,0.927 -0.757,0.927c-0.45,0 -0.747,-0.351 -0.747,-0.927l0,-3.672c0,-0.054 -0.036,-0.09 -0.09,-0.09l-0.458,0c-0.054,0 -0.09,0.036 -0.09,0.09l0,3.618c0,0.954 0.557,1.538 1.385,1.538Z" style="fill:white;fill-rule:nonzero;"/>
            <path d="M28.666,342.404l-2.717,0c-0.054,0 -0.09,0.036 -0.09,0.09l0,0.386c0,0.054 0.036,0.09 0.09,0.09l0.972,0c0.018,0 0.036,0.018 0.036,0.036l0,4.5c0,0.054 0.036,0.09 0.09,0.09l0.458,0c0.054,0 0.09,-0.036 0.09,-0.09l0,-4.5c0,-0.018 0.018,-0.036 0.036,-0.036l1.035,0c0.054,0 0.09,-0.036 0.09,-0.09l0,-0.386c0,-0.054 -0.036,-0.09 -0.09,-0.09Z" style="fill:white;fill-rule:nonzero;"/>
            <path d="M31.745,347.596l2.375,0c0.054,0 0.09,-0.036 0.09,-0.09l0,-0.377c0,-0.054 -0.036,-0.09 -0.09,-0.09l-1.791,0c-0.018,0 -0.036,-0.018 -0.036,-0.036l0,-4.509c0,-0.054 -0.036,-0.09 -0.09,-0.09l-0.458,0c-0.054,0 -0.09,0.036 -0.09,0.09l0,5.012c0,0.054 0.036,0.09 0.09,0.09Z" style="fill:white;fill-rule:nonzero;"/>
            <path d="M58.451,307.6l0.458,0c0.054,0 0.09,-0.036 0.09,-0.09l0,-5.004c0,-0.054 -0.036,-0.09 -0.09,-0.09l-0.458,0c-0.054,0 -0.09,0.036 -0.09,0.09l0,5.004c0,0.054 0.036,0.09 0.09,0.09Z" style="fill:white;fill-rule:nonzero;"/>
            <path d="M60.35,307.6l0.449,0c0.054,0 0.09,-0.036 0.09,-0.09l0,-3.753c0,-0.036 0.036,-0.045 0.045,-0.009l1.522,3.78c0.018,0.054 0.054,0.072 0.099,0.072l0.476,0c0.054,0 0.09,-0.036 0.09,-0.09l0,-5.004c0,-0.054 -0.036,-0.09 -0.09,-0.09l-0.449,0c-0.054,0 -0.09,0.036 -0.09,0.09l0,3.744c0,0.036 -0.036,0.045 -0.045,0.009l-1.531,-3.771c-0.018,-0.054 -0.054,-0.072 -0.099,-0.072l-0.467,0c-0.054,0 -0.09,0.036 -0.09,0.09l0,5.004c0,0.054 0.036,0.09 0.09,0.09Z" style="fill:white;fill-rule:nonzero;"/>
            <path d="M68.594,307.6l0.467,0c0.063,0 0.09,-0.036 0.072,-0.099l-0.836,-2.276c-0.009,-0.027 0,-0.036 0.027,-0.045c0.495,-0.189 0.791,-0.675 0.791,-1.314c0,-0.865 -0.539,-1.466 -1.322,-1.466l-1.341,0c-0.054,0 -0.09,0.035 -0.09,0.089l0,5.021c0,0.054 0.036,0.09 0.09,0.09l0.458,0c0.054,0 0.09,-0.036 0.09,-0.09l0,-2.205c0,-0.018 0.018,-0.036 0.036,-0.036l0.631,0c0.018,0 0.027,0 0.036,0.027l0.783,2.232c0.018,0.054 0.063,0.072 0.108,0.072Zm-1.558,-4.644l0.667,0c0.459,0 0.774,0.361 0.774,0.91c0,0.549 -0.315,0.892 -0.774,0.892l-0.667,0c-0.018,0 -0.036,-0.018 -0.036,-0.036l0,-1.73c0,-0.018 0.018,-0.036 0.036,-0.036Z" style="fill:white;fill-rule:nonzero;"/>
            <path d="M51.164,267.596l1.241,0c0.838,0 1.377,-0.548 1.377,-1.385l0,-2.413c0,-0.846 -0.539,-1.394 -1.377,-1.394l-1.241,0c-0.054,0 -0.09,0.036 -0.09,0.09l0,5.012c0,0.054 0.036,0.09 0.09,0.09Zm0.548,-0.593l0,-3.997c0,-0.018 0.018,-0.036 0.036,-0.036l0.648,0c0.46,0 0.748,0.333 0.748,0.855l0,2.341c-0.009,0.531 -0.297,0.864 -0.748,0.864l-0.648,0.009c-0.018,0 -0.036,-0.018 -0.036,-0.036Z" style="fill:white;fill-rule:nonzero;"/>
            <path d="M57.185,267.596l0.467,0c0.063,0 0.09,-0.036 0.072,-0.099l-0.836,-2.277c-0.009,-0.027 0,-0.036 0.027,-0.045c0.494,-0.188 0.791,-0.674 0.791,-1.313c0,-0.865 -0.539,-1.467 -1.322,-1.467l-1.341,0c-0.054,0 -0.09,0.036 -0.09,0.09l0,5.021c0,0.054 0.036,0.09 0.09,0.09l0.458,0c0.054,0 0.09,-0.036 0.09,-0.09l0,-2.205c0,-0.018 0.018,-0.036 0.036,-0.036l0.63,0c0.018,0 0.027,0 0.036,0.027l0.784,2.232c0.018,0.054 0.063,0.072 0.108,0.072Zm-1.558,-4.644l0.666,0c0.46,0 0.775,0.36 0.775,0.91c0,0.549 -0.315,0.891 -0.775,0.891l-0.666,0c-0.018,0 -0.036,-0.018 -0.036,-0.036l0,-1.729c0,-0.018 0.018,-0.036 0.036,-0.036Z" style="fill:white;fill-rule:nonzero;"/>
            <path d="M59.543,267.587l0.458,0c0.054,0 0.09,-0.036 0.09,-0.09l0,-2.133c0,-0.009 0,-0.036 0.009,-0.045l1.089,-2.807c0.027,-0.063 0,-0.108 -0.063,-0.108l-0.486,0c-0.045,0 -0.09,0.018 -0.108,0.072l-0.738,2.079c-0.009,0.027 -0.044,0.027 -0.053,0l-0.738,-2.079c-0.018,-0.054 -0.063,-0.072 -0.108,-0.072l-0.486,0c-0.063,0 -0.09,0.045 -0.063,0.108l1.098,2.807c0.009,0.009 0.009,0.036 0.009,0.045l0,2.133c0,0.054 0.036,0.09 0.09,0.09Z" style="fill:white;fill-rule:nonzero;"/>
            <path d="M61.968,267.596l0.45,0c0.054,0 0.09,-0.036 0.099,-0.081l1.629,-6.119c0.018,-0.063 -0.018,-0.099 -0.081,-0.099l-0.45,0c-0.054,0 -0.09,0.036 -0.099,0.081l-1.629,6.119c-0.018,0.063 0.018,0.099 0.081,0.099Z" style="fill:white;fill-rule:nonzero;"/>
            <path d="M65.978,267.596l0.414,0c0.054,0 0.081,-0.027 0.09,-0.081l0.621,-3.805c0.009,-0.027 0.026,-0.027 0.035,0l0.63,3.805c0.009,0.054 0.036,0.081 0.09,0.081l0.432,0c0.054,0 0.09,-0.027 0.099,-0.081l0.99,-5.011c0.009,-0.054 -0.018,-0.099 -0.081,-0.099l-0.477,0c-0.054,0 -0.09,0.027 -0.099,0.081l-0.639,3.841c-0.009,0.027 -0.027,0.027 -0.036,0l-0.639,-3.841c-0.009,-0.054 -0.045,-0.081 -0.099,-0.081l-0.377,0c-0.054,0 -0.081,0.027 -0.09,0.081l-0.621,3.841c-0.009,0.027 -0.027,0.036 -0.036,0.009l-0.693,-3.85c-0.009,-0.054 -0.045,-0.081 -0.099,-0.081l-0.486,0c-0.063,0 -0.09,0.036 -0.081,0.099l1.053,5.011c0.009,0.054 0.045,0.081 0.099,0.081Z" style="fill:white;fill-rule:nonzero;"/>
            <path d="M72.943,262.88l0,-0.377c0,-0.054 -0.036,-0.09 -0.09,-0.09l-2.393,0c-0.054,0 -0.09,0.036 -0.09,0.09l0,5.003c0,0.054 0.036,0.09 0.09,0.09l2.393,0c0.054,0 0.09,-0.036 0.09,-0.09l0,-0.377c0,-0.054 -0.036,-0.09 -0.09,-0.09l-1.809,0c-0.018,0 -0.036,-0.018 -0.036,-0.036l0,-1.693c0,-0.018 0.018,-0.036 0.036,-0.036l1.116,0c0.054,0 0.09,-0.036 0.09,-0.09l0,-0.377c0,-0.054 -0.036,-0.09 -0.09,-0.09l-1.116,0c-0.018,0 -0.036,-0.018 -0.036,-0.036l0,-1.675c0,-0.018 0.018,-0.036 0.036,-0.036l1.809,0c0.054,0 0.09,-0.036 0.09,-0.09Z" style="fill:white;fill-rule:nonzero;"/>
            <path d="M76.444,262.404l-2.717,0c-0.054,0 -0.09,0.036 -0.09,0.09l0,0.386c0,0.054 0.036,0.09 0.09,0.09l0.972,0c0.018,0 0.036,0.018 0.036,0.036l0,4.5c0,0.054 0.036,0.09 0.09,0.09l0.458,0c0.054,0 0.09,-0.036 0.09,-0.09l0,-4.5c0,-0.018 0.018,-0.036 0.036,-0.036l1.035,0c0.054,0 0.09,-0.036 0.09,-0.09l0,-0.386c0,-0.054 -0.036,-0.09 -0.09,-0.09Z" style="fill:white;fill-rule:nonzero;"/>
            <path d="M57.083,347.659c0.837,0 1.403,-0.539 1.403,-1.43l0,-2.449c0,-0.9 -0.566,-1.439 -1.403,-1.439c-0.847,0 -1.404,0.539 -1.404,1.439l0,2.449c0,0.891 0.557,1.43 1.404,1.43Zm0,-0.557c-0.451,0 -0.766,-0.306 -0.766,-0.837l0,-2.512c0,-0.54 0.315,-0.846 0.766,-0.846c0.459,0 0.765,0.306 0.765,0.846l0,2.512c0,0.531 -0.306,0.837 -0.765,0.837Z" style="fill:white;fill-rule:nonzero;"/>
            <path d="M60.971,347.659c0.846,0 1.394,-0.584 1.394,-1.538l0,-3.618c0,-0.054 -0.036,-0.09 -0.09,-0.09l-0.458,0c-0.054,0 -0.09,0.036 -0.09,0.09l0,3.672c0,0.576 -0.297,0.927 -0.756,0.927c-0.451,0 -0.748,-0.351 -0.748,-0.927l0,-3.672c0,-0.054 -0.036,-0.09 -0.09,-0.09l-0.458,0c-0.054,0 -0.09,0.036 -0.09,0.09l0,3.618c0,0.954 0.557,1.538 1.386,1.538Z" style="fill:white;fill-rule:nonzero;"/>
            <path d="M66.055,342.404l-2.717,0c-0.054,0 -0.09,0.036 -0.09,0.09l0,0.386c0,0.054 0.036,0.09 0.09,0.09l0.972,0c0.018,0 0.036,0.018 0.036,0.036l0,4.5c0,0.054 0.036,0.09 0.09,0.09l0.458,0c0.054,0 0.09,-0.036 0.09,-0.09l0,-4.5c0,-0.018 0.018,-0.036 0.036,-0.036l1.035,0c0.054,0 0.09,-0.036 0.09,-0.09l0,-0.386c0,-0.054 -0.036,-0.09 -0.09,-0.09Z" style="fill:white;fill-rule:nonzero;"/>
            <path d="M71.276,347.596l0.467,0c0.063,0 0.09,-0.036 0.072,-0.099l-0.836,-2.277c-0.009,-0.027 0,-0.036 0.027,-0.045c0.495,-0.188 0.791,-0.674 0.791,-1.313c0,-0.865 -0.539,-1.467 -1.322,-1.467l-1.341,0c-0.054,0 -0.09,0.036 -0.09,0.09l0,5.021c0,0.054 0.036,0.09 0.09,0.09l0.458,0c0.054,0 0.09,-0.036 0.09,-0.09l0,-2.205c0,-0.018 0.018,-0.036 0.036,-0.036l0.631,0c0.018,0 0.027,0 0.036,0.027l0.783,2.232c0.018,0.054 0.063,0.072 0.108,0.072Zm-1.558,-4.644l0.667,0c0.459,0 0.774,0.36 0.774,0.91c0,0.549 -0.315,0.891 -0.774,0.891l-0.667,0c-0.018,0 -0.036,-0.018 -0.036,-0.036l0,-1.729c0,-0.018 0.018,-0.036 0.036,-0.036Z" style="fill:white;fill-rule:nonzero;"/>
            <path d="M35.731,113.495l3.526,0c0.072,0 0.12,-0.048 0.12,-0.12l0,-0.503c0,-0.072 -0.048,-0.12 -0.12,-0.12l-2.748,0c-0.024,0 -0.048,-0.024 -0.048,-0.048l0,-7.488c0,-0.072 -0.048,-0.12 -0.12,-0.12l-0.61,0c-0.072,0 -0.12,0.048 -0.12,0.12l0,8.159c0,0.072 0.048,0.12 0.12,0.12Z" style="fill:white;fill-rule:nonzero;"/>
            <path d="M40.722,106.343c0.336,0 0.575,-0.264 0.575,-0.636c0,-0.347 -0.239,-0.611 -0.575,-0.611c-0.348,0 -0.599,0.264 -0.599,0.611c0,0.372 0.251,0.636 0.599,0.636Zm-0.311,7.152l0.61,0c0.072,0 0.12,-0.048 0.12,-0.12l0,-5.831c0,-0.072 -0.048,-0.12 -0.12,-0.12l-0.61,0c-0.072,0 -0.12,0.048 -0.12,0.12l0,5.831c0,0.072 0.048,0.12 0.12,0.12Z" style="fill:white;fill-rule:nonzero;"/>
            <path d="M47.514,107.34c-0.516,0 -1.081,0.228 -1.381,0.839c-0.023,0.048 -0.059,0.048 -0.071,0.012c-0.24,-0.54 -0.695,-0.851 -1.308,-0.851c-0.432,0 -0.876,0.168 -1.201,0.587c-0.036,0.036 -0.06,0.024 -0.06,-0.012l0,-0.371c0,-0.072 -0.048,-0.12 -0.12,-0.12l-0.598,0c-0.072,0 -0.12,0.048 -0.12,0.12l0,5.831c0,0.072 0.048,0.12 0.12,0.12l0.598,0c0.072,0 0.12,-0.048 0.12,-0.12l0,-3.995c0,-0.805 0.385,-1.297 0.997,-1.297c0.54,-0.001 0.925,0.492 0.925,1.32l0,3.972c0,0.072 0.048,0.12 0.12,0.12l0.61,0c0.072,0 0.12,-0.048 0.12,-0.12l0,-3.996c0,-0.804 0.385,-1.296 0.985,-1.296c0.552,0 0.937,0.492 0.937,1.32l0,3.972c0,0.072 0.048,0.12 0.12,0.12l0.598,0c0.072,0 0.12,-0.048 0.12,-0.12l0,-4.044c0,-1.236 -0.551,-1.991 -1.511,-1.991Z" style="fill:white;fill-rule:nonzero;"/>
            <path d="M50.91,106.343c0.336,0 0.575,-0.264 0.575,-0.636c0,-0.347 -0.239,-0.611 -0.575,-0.611c-0.348,0 -0.599,0.264 -0.599,0.611c0,0.372 0.251,0.636 0.599,0.636Zm-0.311,7.152l0.61,0c0.072,0 0.12,-0.048 0.12,-0.12l0,-5.831c0,-0.072 -0.048,-0.12 -0.12,-0.12l-0.61,0c-0.072,0 -0.12,0.048 -0.12,0.12l0,5.831c0,0.072 0.048,0.12 0.12,0.12Z" style="fill:white;fill-rule:nonzero;"/>
            <path d="M54.977,107.939l0,-0.395c0,-0.072 -0.048,-0.12 -0.12,-0.12l-0.912,0c-0.024,0 -0.048,-0.024 -0.048,-0.048l0,-1.344c0,-0.072 -0.048,-0.12 -0.12,-0.12l-0.598,0c-0.072,0 -0.12,0.048 -0.12,0.12l0,1.344c0,0.024 -0.024,0.048 -0.048,0.048l-0.468,0c-0.072,0 -0.12,0.048 -0.12,0.12l0,0.395c0,0.072 0.048,0.12 0.12,0.12l0.468,-0.001c0.024,0.001 0.048,0.025 0.048,0.049l0,3.925c0,1.211 0.587,1.463 1.438,1.463l0.3,0c0.072,0 0.12,-0.048 0.12,-0.12l0,-0.515c0,-0.072 -0.048,-0.12 -0.12,-0.12l-0.12,0c-0.504,0.012 -0.78,-0.192 -0.78,-0.96l0,-3.673c0,-0.024 0.024,-0.048 0.048,-0.048l0.912,0c0.072,0 0.12,-0.048 0.12,-0.12Z" style="fill:white;fill-rule:nonzero;"/>
            <path d="M29.875,162.201l1.848,0c1.236,0 2.027,-0.862 2.027,-2.231l0,-3.936c0,-1.369 -0.791,-2.231 -2.027,-2.231l-1.848,0c-0.072,0 -0.119,0.048 -0.119,0.12l0,8.159c0,0.071 0.047,0.119 0.119,0.119Zm0.731,-0.79l0,-6.818c0,-0.024 0.024,-0.048 0.048,-0.048l1.057,0c0.732,0 1.177,0.588 1.177,1.525l0,3.864c-0.013,0.937 -0.469,1.513 -1.177,1.513l-1.057,0.012c-0.024,0 -0.048,-0.024 -0.048,-0.048Z" style="fill:white;fill-rule:nonzero;"/>
            <path d="M37.255,156.071c-0.576,0 -0.936,0.372 -1.14,0.912c-0.024,0.036 -0.06,0.036 -0.06,-0.012l0,-0.72c0,-0.072 -0.048,-0.12 -0.12,-0.12l-0.612,0c-0.072,0 -0.12,0.048 -0.12,0.12l0,5.83c0,0.072 0.048,0.12 0.12,0.12l0.612,0c0.072,0 0.12,-0.048 0.12,-0.12l0,-3.599c0,-0.815 0.408,-1.451 0.984,-1.487c0.192,-0.036 0.372,-0.012 0.504,0.048c0.084,0.024 0.144,0.012 0.156,-0.072l0.132,-0.612c0.012,-0.06 0,-0.12 -0.06,-0.156c-0.12,-0.072 -0.276,-0.132 -0.516,-0.132Z" style="fill:white;fill-rule:nonzero;"/>
            <path d="M38.677,164.601l0.06,0c1.187,0 1.511,-0.335 1.919,-1.87l1.667,-6.456c0.024,-0.072 -0.012,-0.132 -0.096,-0.132l-0.672,-0.012c-0.072,0 -0.12,0.036 -0.132,0.108l-1.043,4.716c-0.012,0.048 -0.036,0.048 -0.048,0l-1.056,-4.716c-0.012,-0.072 -0.06,-0.108 -0.132,-0.108l-0.647,0c-0.084,0 -0.132,0.048 -0.108,0.132l1.523,5.904c0,0.024 0.012,0.048 0,0.072c-0.252,1.344 -0.468,1.632 -1.187,1.632l-0.06,0c-0.036,0 -0.06,0.048 -0.06,0.12l0,0.491c0,0.071 0.036,0.119 0.072,0.119Z" style="fill:white;fill-rule:nonzero;"/>
            <path d="M42.805,162.201l0.6,0c0.072,0 0.12,-0.048 0.132,-0.108l2.172,-8.158c0.024,-0.084 -0.024,-0.132 -0.108,-0.132l-0.6,0c-0.072,0 -0.12,0.048 -0.132,0.108l-2.172,8.158c-0.024,0.084 0.024,0.132 0.108,0.132Z" style="fill:white;fill-rule:nonzero;"/>
            <path d="M48.079,162.201l0.576,0c0.072,0 0.108,-0.036 0.12,-0.108l0.984,-6.335c0,-0.036 0.036,-0.036 0.048,0l1.008,6.335c0.012,0.072 0.048,0.108 0.12,0.108l0.587,0c0.072,0 0.12,-0.036 0.132,-0.108l1.488,-8.158c0.012,-0.072 -0.024,-0.132 -0.108,-0.132l-0.636,0c-0.072,0 -0.108,0.036 -0.12,0.108l-1.032,6.31c-0.012,0.036 -0.036,0.036 -0.048,0l-1.019,-6.31c-0.012,-0.072 -0.048,-0.108 -0.12,-0.108l-0.552,0c-0.072,0 -0.108,0.036 -0.12,0.108l-0.972,6.31c-0.012,0.036 -0.036,0.036 -0.048,0l-1.128,-6.31c-0.012,-0.072 -0.06,-0.108 -0.132,-0.108l-0.636,0c-0.084,0 -0.119,0.06 -0.107,0.132l1.583,8.158c0.012,0.072 0.06,0.108 0.132,0.108Z" style="fill:white;fill-rule:nonzero;"/>
            <path d="M57.39,159.37l0,-1.5c0,-1.081 -0.719,-1.835 -1.883,-1.835c-1.141,0 -1.871,0.754 -1.871,1.835l0,2.592c0,1.105 0.73,1.835 1.871,1.835c1.056,0 1.715,-0.599 1.847,-1.535c0.012,-0.072 -0.036,-0.132 -0.108,-0.132l-0.599,-0.024c-0.072,0 -0.107,0.036 -0.132,0.108c-0.108,0.493 -0.48,0.841 -1.008,0.841c-0.601,0 -1.021,-0.469 -1.021,-1.141l0,-0.877c0,-0.024 0.024,-0.048 0.048,-0.048l2.736,0c0.072,0 0.12,-0.048 0.12,-0.119Zm-1.883,-2.593c0.624,0 1.045,0.469 1.045,1.153l0,0.805c0,0.024 -0.025,0.048 -0.049,0.048l-1.969,0c-0.024,0 -0.048,-0.024 -0.048,-0.048l0,-0.805c0,-0.684 0.42,-1.153 1.021,-1.153Z" style="fill:white;fill-rule:nonzero;"/>
            <path d="M60.738,156.646l0,-0.396c0,-0.071 -0.048,-0.119 -0.12,-0.119l-0.912,0c-0.024,0 -0.048,-0.024 -0.048,-0.048l0,-1.344c0,-0.072 -0.048,-0.12 -0.12,-0.12l-0.599,0c-0.072,0 -0.119,0.048 -0.119,0.12l0,1.344c0,0.024 -0.024,0.048 -0.048,0.048l-0.468,0c-0.072,0 -0.12,0.048 -0.12,0.119l0,0.396c0,0.071 0.048,0.119 0.12,0.119l0.468,0c0.024,0 0.048,0.024 0.048,0.048l0,3.926c0,1.211 0.586,1.462 1.438,1.462l0.3,0c0.072,0 0.12,-0.048 0.12,-0.119l0,-0.515c0,-0.072 -0.048,-0.12 -0.12,-0.12l-0.12,0c-0.504,0.012 -0.78,-0.192 -0.78,-0.961l0,-3.673c0,-0.024 0.024,-0.048 0.048,-0.048l0.912,0c0.072,0 0.12,-0.048 0.12,-0.119Z" style="fill:white;fill-rule:nonzero;"/>
        </g>
    </g>
</svg>
