<?xml version="1.0" encoding="UTF-8" standalone="no"?>
<!DOCTYPE svg PUBLIC "-//W3C//DTD SVG 1.1//EN" "http://www.w3.org/Graphics/SVG/1.1/DTD/svg11.dtd">
<svg width="60px" height="380px" version="1.1" xmlns="http://www.w3.org/2000/svg" xmlns:xlink="http://www.w3.org/1999/xlink" xml:space="preserve" xmlns:serif="http://www.serif.com/" style="fill-rule:evenodd;clip-rule:evenodd;stroke-miterlimit:1.5;">
    <rect id="Dual-BSG-Dark" serif:id="Dual BSG Dark" x="0" y="0" width="60" height="380" style="fill:none;"/>
    <clipPath id="_clip1">
        <rect id="Dual-BSG-Dark1" serif:id="Dual BSG Dark" x="0" y="0" width="60" height="380"/>
    </clipPath>
    <g clip-path="url(#_clip1)">
        <g id="Background">
            <rect id="bright" x="0" y="0" width="60" height="380" style="fill:rgb(54,69,74);"/>
            <circle id="out1-bg" serif:id="out1 bg" cx="30.056" cy="154.968" r="14" style="fill:rgb(51,51,51);"/>
            <circle id="out2-bg" serif:id="out2 bg" cx="30" cy="325" r="14" style="fill:rgb(51,51,51);"/>
            <g id="knobBgMediumThree">
                <path d="M45.556,80.901c8.592,-8.58 8.592,-22.49 0,-31.07c-8.585,-8.574 -22.527,-8.574 -31.112,0c-8.592,8.58 -8.592,22.49 0,31.07l15.556,-15.535l15.556,15.535Z" style="fill:none;stroke:rgb(128,128,128);stroke-width:0.7px;"/>
            </g>
            <g id="knobBgMediumThree1" serif:id="knobBgMediumThree">
                <path d="M45.556,250.982c8.592,-8.58 8.592,-22.49 0,-31.07c-8.585,-8.574 -22.527,-8.574 -31.112,0c-8.592,8.58 -8.592,22.49 0,31.07l15.556,-15.535l15.556,15.535Z" style="fill:none;stroke:rgb(128,128,128);stroke-width:0.7px;"/>
            </g>
            <g>
                <path d="M10.259,194.021c0.111,0 0.215,0.044 0.294,0.122c0.079,0.079 0.122,0.184 0.122,0.294l0,1.126c0,0.039 0.016,0.076 0.043,0.104c0.028,0.027 0.065,0.043 0.104,0.043l1.126,0c0.039,0 0.076,-0.016 0.103,-0.043c0.028,-0.028 0.044,-0.065 0.043,-0.104l0,-1.126c0,-0.49 -0.191,-0.951 -0.537,-1.298c-0.347,-0.346 -0.808,-0.537 -1.298,-0.537l-3.377,0c-0.49,0 -0.951,0.191 -1.298,0.537c-0.347,0.347 -0.538,0.808 -0.537,1.298l0,1.126c0,0.49 0.19,0.951 0.537,1.298c0.347,0.346 0.808,0.537 1.298,0.537l1.903,0c0.061,0 0.116,-0.038 0.138,-0.095c0.02,-0.054 0.007,-0.115 -0.034,-0.155c-0.002,-0.003 -0.005,-0.005 -0.007,-0.007c-0.036,-0.031 -0.071,-0.064 -0.104,-0.098c-0.265,-0.264 -0.454,-0.594 -0.549,-0.955c-0.007,-0.025 -0.02,-0.048 -0.038,-0.066c-0.027,-0.027 -0.064,-0.043 -0.104,-0.043l-1.205,0c-0.111,0 -0.215,-0.043 -0.294,-0.122c-0.078,-0.079 -0.122,-0.183 -0.122,-0.294l0,-1.126c0,-0.111 0.043,-0.215 0.122,-0.294c0.078,-0.078 0.183,-0.122 0.294,-0.122l3.377,0Z" style="fill:rgb(121,140,115);fill-rule:nonzero;"/>
                <path d="M15.472,195.563l0,-1.126c0,-0.49 -0.191,-0.951 -0.538,-1.298c-0.346,-0.346 -0.807,-0.537 -1.298,-0.537l-1.903,0c-0.061,0 -0.116,0.038 -0.138,0.095c-0.02,0.055 -0.006,0.115 0.034,0.156c0.002,0.002 0.005,0.004 0.007,0.007c0.036,0.031 0.072,0.064 0.106,0.098c0.264,0.265 0.453,0.594 0.546,0.953c0.007,0.026 0.021,0.049 0.039,0.067c0.027,0.027 0.064,0.043 0.104,0.043l1.205,0c0.111,0 0.216,0.043 0.294,0.122c0.079,0.079 0.122,0.183 0.122,0.294l0,1.126c0,0.229 -0.187,0.416 -0.416,0.416l-3.377,0c-0.111,0 -0.215,-0.043 -0.293,-0.122c-0.079,-0.079 -0.123,-0.183 -0.123,-0.294l0,-1.126c0,-0.039 -0.015,-0.076 -0.043,-0.104c-0.027,-0.027 -0.065,-0.043 -0.104,-0.043l-1.125,0c-0.081,0 -0.147,0.066 -0.147,0.147l0,1.126c0,0.49 0.191,0.951 0.537,1.298c0.347,0.346 0.808,0.537 1.298,0.537l3.377,0c0.491,0 0.952,-0.19 1.298,-0.537c0.347,-0.347 0.538,-0.808 0.538,-1.298Z" style="fill:rgb(121,140,115);fill-rule:nonzero;"/>
            </g>
            <path d="M54.524,25l5.476,0" style="fill:none;stroke:rgb(128,128,128);stroke-width:0.7px;stroke-linecap:round;stroke-linejoin:round;"/>
            <path d="M0,25l5.476,0" style="fill:none;stroke:rgb(128,128,128);stroke-width:0.7px;stroke-linecap:round;stroke-linejoin:round;"/>
        </g>
        <g id="Lables">
            <g id="Branding">
                <path d="M12.357,362.45l0.545,0c0.049,0 0.07,-0.028 0.056,-0.077l-0.72,-2.163c-0.007,-0.021 0,-0.028 0.014,-0.042c0.419,-0.182 0.685,-0.637 0.685,-1.232c0,-0.826 -0.482,-1.393 -1.203,-1.393l-1.253,0c-0.042,0 -0.07,0.028 -0.07,0.07l0,4.767c0,0.042 0.028,0.07 0.07,0.07l0.531,0c0.042,0 0.07,-0.028 0.07,-0.07l0,-2.079c0,-0.014 0.014,-0.028 0.028,-0.028l0.483,0c0.014,0 0.021,0 0.028,0.021l0.652,2.1c0.014,0.035 0.049,0.056 0.084,0.056Zm-1.247,-4.326l0.518,0c0.379,0 0.638,0.315 0.638,0.819c0,0.49 -0.259,0.805 -0.638,0.805l-0.518,0c-0.014,0 -0.028,-0.014 -0.028,-0.028l0,-1.568c0,-0.014 0.014,-0.028 0.028,-0.028Z" style="fill:rgb(199,206,201);fill-rule:nonzero;"/>
                <path d="M16.045,362.45l0.546,0c0.049,0 0.07,-0.035 0.063,-0.077l-1.057,-4.76c-0.007,-0.042 -0.035,-0.063 -0.077,-0.063l-0.615,0c-0.042,0 -0.07,0.021 -0.077,0.063l-1.043,4.76c-0.007,0.042 0.014,0.077 0.063,0.077l0.532,0c0.042,0 0.07,-0.021 0.077,-0.063l0.161,-0.805c0,-0.014 0.021,-0.028 0.035,-0.028l1.126,0c0.014,0 0.035,0.014 0.035,0.028l0.154,0.805c0.007,0.042 0.035,0.063 0.077,0.063Zm-1.308,-1.456l0.476,-2.394c0.006,-0.028 0.02,-0.028 0.027,0l0.462,2.394c0,0.014 -0.007,0.028 -0.021,0.028l-0.923,0c-0.014,0 -0.021,-0.014 -0.021,-0.028Z" style="fill:rgb(199,206,201);fill-rule:nonzero;"/>
                <path d="M18.719,362.506c0.764,0 1.267,-0.497 1.267,-1.267l0,-0.105c0,-0.042 -0.028,-0.07 -0.07,-0.07l-0.531,-0.028c-0.042,0 -0.07,0.028 -0.07,0.07l0,0.182c0,0.378 -0.238,0.637 -0.596,0.637c-0.357,0 -0.588,-0.259 -0.588,-0.637l0,-2.576c0,-0.385 0.231,-0.637 0.588,-0.637c0.358,0 0.596,0.252 0.596,0.637l0,0.182c0,0.042 0.028,0.07 0.07,0.07l0.531,-0.028c0.042,0 0.07,-0.028 0.07,-0.07l0,-0.112c0,-0.77 -0.503,-1.26 -1.267,-1.26c-0.756,0 -1.259,0.49 -1.259,1.26l0,2.485c0,0.77 0.503,1.267 1.259,1.267Z" style="fill:rgb(199,206,201);fill-rule:nonzero;"/>
                <path d="M21.142,362.45l0.531,0c0.042,0 0.07,-0.028 0.07,-0.07l0,-1.575c0,-0.014 0,-0.028 0.007,-0.035l0.357,-0.567c0.014,-0.014 0.028,-0.014 0.035,0.007l0.91,2.184c0.014,0.042 0.042,0.056 0.077,0.056l0.581,0c0.049,0 0.077,-0.035 0.056,-0.084l-1.169,-2.744c-0.007,-0.014 -0.007,-0.028 0,-0.042l1.078,-1.946c0.028,-0.049 0.007,-0.084 -0.049,-0.084l-0.574,0c-0.035,0 -0.063,0.021 -0.084,0.049l-1.19,2.128c-0.014,0.028 -0.035,0.021 -0.035,-0.007l0,-2.1c0,-0.042 -0.028,-0.07 -0.07,-0.07l-0.531,0c-0.042,0 -0.07,0.028 -0.07,0.07l0,4.76c0,0.042 0.028,0.07 0.07,0.07Z" style="fill:rgb(199,206,201);fill-rule:nonzero;"/>
                <path d="M25.44,362.45l0.497,0c0.042,0 0.063,-0.014 0.07,-0.063l0.503,-3.311c0,-0.021 0.021,-0.021 0.028,0l0.532,3.311c0.007,0.042 0.028,0.063 0.07,0.063l0.497,0c0.042,0 0.07,-0.021 0.077,-0.063l0.882,-4.76c0.007,-0.042 -0.014,-0.077 -0.063,-0.077l-0.546,0c-0.042,0 -0.063,0.021 -0.07,0.063l-0.518,3.283c-0.007,0.021 -0.021,0.021 -0.028,0l-0.539,-3.283c-0.007,-0.042 -0.028,-0.063 -0.07,-0.063l-0.468,0c-0.042,0 -0.063,0.014 -0.07,0.063l-0.504,3.283c-0.007,0.021 -0.021,0.021 -0.028,0l-0.567,-3.283c-0.007,-0.042 -0.035,-0.063 -0.077,-0.063l-0.553,0c-0.049,0 -0.07,0.035 -0.063,0.077l0.931,4.76c0.007,0.042 0.035,0.063 0.077,0.063Z" style="fill:rgb(199,206,201);fill-rule:nonzero;"/>
                <path d="M29.626,362.45l0.531,0c0.042,0 0.07,-0.028 0.07,-0.07l0,-4.76c0,-0.042 -0.028,-0.07 -0.07,-0.07l-0.531,0c-0.042,0 -0.07,0.028 -0.07,0.07l0,4.76c0,0.042 0.028,0.07 0.07,0.07Z" style="fill:rgb(199,206,201);fill-rule:nonzero;"/>
                <path d="M31.523,362.45l0.525,0c0.042,0 0.07,-0.028 0.07,-0.07l-0.007,-3.073c0,-0.028 0.028,-0.028 0.035,0l1.246,3.087c0.014,0.042 0.042,0.056 0.077,0.056l0.546,0c0.042,0 0.07,-0.028 0.07,-0.07l0,-4.76c0,-0.042 -0.028,-0.07 -0.07,-0.07l-0.525,0c-0.042,0 -0.07,0.028 -0.07,0.07l0,3.066c0,0.028 -0.028,0.035 -0.035,0.007l-1.246,-3.087c-0.014,-0.042 -0.042,-0.056 -0.077,-0.056l-0.539,0c-0.042,0 -0.07,0.028 -0.07,0.07l0,4.76c0,0.042 0.028,0.07 0.07,0.07Z" style="fill:rgb(199,206,201);fill-rule:nonzero;"/>
                <path d="M35.373,362.45l1.147,0c0.771,0 1.267,-0.511 1.267,-1.323l0,-2.254c0,-0.812 -0.496,-1.323 -1.267,-1.323l-1.147,0c-0.042,0 -0.07,0.028 -0.07,0.07l0,4.76c0,0.042 0.028,0.07 0.07,0.07Zm0.601,-0.609l0,-3.682c0,-0.014 0.014,-0.028 0.028,-0.028l0.511,0c0.365,0 0.596,0.301 0.596,0.777l0,2.184c-0.007,0.476 -0.238,0.77 -0.596,0.77l-0.511,0.007c-0.014,0 -0.028,-0.014 -0.028,-0.028Z" style="fill:rgb(199,206,201);fill-rule:nonzero;"/>
                <path d="M40.111,362.506c0.771,0 1.288,-0.504 1.288,-1.281l0,-2.443c0,-0.777 -0.517,-1.288 -1.288,-1.288c-0.763,0 -1.273,0.511 -1.273,1.288l0,2.443c0,0.777 0.51,1.281 1.273,1.281Zm0,-0.581c-0.364,0 -0.602,-0.273 -0.602,-0.672l0,-2.506c0,-0.399 0.238,-0.672 0.602,-0.672c0.372,0 0.617,0.273 0.617,0.672l0,2.506c0,0.399 -0.245,0.672 -0.617,0.672Z" style="fill:rgb(199,206,201);fill-rule:nonzero;"/>
                <path d="M43.192,362.45l0.497,0c0.042,0 0.063,-0.014 0.07,-0.063l0.503,-3.311c0,-0.021 0.021,-0.021 0.028,0l0.532,3.311c0.007,0.042 0.028,0.063 0.07,0.063l0.497,0c0.042,0 0.07,-0.021 0.077,-0.063l0.882,-4.76c0.007,-0.042 -0.014,-0.077 -0.063,-0.077l-0.546,0c-0.042,0 -0.063,0.021 -0.07,0.063l-0.518,3.283c-0.007,0.021 -0.021,0.021 -0.028,0l-0.539,-3.283c-0.007,-0.042 -0.028,-0.063 -0.07,-0.063l-0.468,0c-0.042,0 -0.063,0.014 -0.07,0.063l-0.504,3.283c-0.007,0.021 -0.021,0.021 -0.028,0l-0.567,-3.283c-0.007,-0.042 -0.035,-0.063 -0.077,-0.063l-0.553,0c-0.049,0 -0.07,0.035 -0.063,0.077l0.931,4.76c0.007,0.042 0.035,0.063 0.077,0.063Z" style="fill:rgb(199,206,201);fill-rule:nonzero;"/>
                <path d="M48.343,362.506c0.729,0 1.246,-0.504 1.246,-1.295c0,-0.672 -0.37,-0.966 -1.084,-1.498c-0.54,-0.399 -0.743,-0.588 -0.743,-0.987c0,-0.42 0.231,-0.651 0.546,-0.651c0.344,0 0.582,0.28 0.582,0.7l0,0.189c0,0.042 0.028,0.07 0.07,0.07l0.517,0c0.042,0 0.07,-0.028 0.07,-0.07l0,-0.175c0,-0.777 -0.489,-1.295 -1.239,-1.295c-0.707,0 -1.21,0.469 -1.21,1.232c0,0.763 0.503,1.134 1.042,1.533c0.505,0.371 0.785,0.567 0.785,0.994c0,0.406 -0.252,0.672 -0.582,0.672c-0.336,0 -0.574,-0.273 -0.574,-0.707l0,-0.154c0,-0.042 -0.028,-0.07 -0.07,-0.07l-0.517,0c-0.042,0 -0.07,0.028 -0.07,0.07l0,0.189c0,0.749 0.496,1.253 1.231,1.253Z" style="fill:rgb(199,206,201);fill-rule:nonzero;"/>
                <path d="M10.193,25.418l2.051,0c1.381,0 2.268,-0.899 2.268,-2.291l0,-3.817c0,-1.392 -0.887,-2.291 -2.268,-2.291l-2.051,0c-0.084,0 -0.144,0.06 -0.144,0.144l0,8.111c0,0.084 0.06,0.144 0.144,0.144Zm1.247,-1.259l0,-5.881c0,-0.036 0.024,-0.06 0.06,-0.06l0.708,0c0.565,0 0.913,0.456 0.913,1.176l0,3.649c-0.012,0.708 -0.372,1.164 -0.901,1.164l-0.72,0.012c-0.036,0 -0.06,-0.024 -0.06,-0.06Z" style="fill:white;fill-rule:nonzero;"/>
                <path d="M18.052,25.514c1.357,0 2.268,-0.959 2.268,-2.423l0,-5.928c0,-0.084 -0.06,-0.144 -0.144,-0.144l-1.103,0c-0.084,0 -0.144,0.06 -0.144,0.144l0,6.072c0,0.636 -0.348,1.08 -0.877,1.08c-0.528,0 -0.876,-0.444 -0.876,-1.08l0,-6.072c0,-0.084 -0.06,-0.144 -0.144,-0.144l-1.103,0c-0.084,0 -0.144,0.06 -0.144,0.144l0,5.928c0,1.464 0.899,2.423 2.267,2.423Z" style="fill:white;fill-rule:nonzero;"/>
                <path d="M25.128,25.418l1.116,0c0.096,0 0.156,-0.048 0.132,-0.156l-1.776,-8.111c-0.012,-0.084 -0.072,-0.132 -0.156,-0.132l-1.285,0c-0.084,0 -0.144,0.048 -0.156,0.132l-1.764,8.111c-0.024,0.108 0.024,0.156 0.12,0.156l1.104,0c0.084,0 0.144,-0.036 0.156,-0.132l0.24,-1.272c0,-0.036 0.036,-0.048 0.072,-0.048l1.741,0c0.036,0 0.072,0.024 0.072,0.06l0.228,1.26c0.012,0.096 0.072,0.132 0.156,0.132Zm-2.029,-2.603l0.696,-3.625c0.012,-0.048 0.06,-0.048 0.072,0l0.661,3.625c0.012,0.048 -0.024,0.06 -0.06,0.06l-1.309,0c-0.036,0 -0.072,-0.012 -0.06,-0.06Z" style="fill:white;fill-rule:nonzero;"/>
                <path d="M27.629,25.418l3.899,0c0.084,0 0.144,-0.06 0.144,-0.144l0,-0.911c0,-0.084 -0.06,-0.144 -0.144,-0.144l-2.592,0c-0.036,0 -0.06,-0.024 -0.06,-0.06l0,-6.996c0,-0.084 -0.06,-0.144 -0.144,-0.144l-1.103,0c-0.084,0 -0.144,0.06 -0.144,0.144l0,8.111c0,0.084 0.06,0.144 0.144,0.144Z" style="fill:white;fill-rule:nonzero;"/>
                <path d="M39.676,23.091c-0.012,-0.961 -0.408,-1.597 -0.995,-1.98c-0.024,-0.024 -0.024,-0.048 0.024,-0.072c0.575,-0.348 0.875,-0.924 0.875,-1.764c0,-1.513 -0.947,-2.256 -2.436,-2.256l-1.895,0c-0.084,0 -0.144,0.06 -0.144,0.144l0,8.111c0,0.084 0.06,0.144 0.144,0.144l2.111,0c1.345,0 2.328,-0.803 2.316,-2.327Zm-3.12,-4.873l0.612,0c0.661,0 1.045,0.432 1.045,1.201c0,0.732 -0.384,1.152 -1.045,1.152l-0.612,0c-0.036,0 -0.06,-0.024 -0.06,-0.06l0,-2.233c0,-0.036 0.024,-0.06 0.06,-0.06Zm0.696,5.989l-0.696,0c-0.036,0 -0.06,-0.024 -0.06,-0.06l0,-2.497c0,-0.036 0.024,-0.06 0.06,-0.06l0.696,0c0.637,0 1.033,0.504 1.033,1.333c0,0.828 -0.396,1.284 -1.033,1.284Z" style="fill:white;fill-rule:nonzero;"/>
                <path d="M42.808,25.514c1.309,0 2.232,-0.875 2.232,-2.255c0,-1.176 -0.66,-1.692 -1.883,-2.605c-0.889,-0.66 -1.213,-0.96 -1.213,-1.56c0,-0.624 0.348,-0.972 0.804,-0.972c0.505,0 0.853,0.408 0.853,1.032l0,0.312c0,0.084 0.06,0.144 0.144,0.144l1.091,0c0.084,0 0.144,-0.06 0.144,-0.144l0,-0.288c0,-1.356 -0.887,-2.255 -2.232,-2.255c-1.284,0 -2.171,0.839 -2.171,2.171c0,1.344 0.911,2.017 1.823,2.677c0.841,0.624 1.261,0.924 1.261,1.56c0,0.6 -0.36,0.984 -0.853,0.984c-0.48,0 -0.84,-0.408 -0.84,-1.044l0,-0.264c0,-0.084 -0.06,-0.144 -0.144,-0.144l-1.079,0c-0.084,0 -0.144,0.06 -0.144,0.144l0,0.336c0,1.284 0.887,2.171 2.207,2.171Z" style="fill:white;fill-rule:nonzero;"/>
                <path d="M48.28,25.514c1.357,0 2.28,-0.851 2.28,-2.171l0,-2.22c0,-0.084 -0.06,-0.144 -0.144,-0.144l-2.039,0c-0.085,0 -0.145,0.06 -0.145,0.144l0,0.875c0,0.084 0.06,0.144 0.145,0.144l0.732,0c0.036,0 0.06,0.024 0.06,0.06l0,1.153c0,0.576 -0.36,0.96 -0.889,0.96c-0.528,0 -0.876,-0.384 -0.876,-0.96l0,-4.273c0,-0.576 0.348,-0.96 0.876,-0.96c0.529,0 0.889,0.384 0.889,0.96l0,0.493c0,0.084 0.06,0.144 0.144,0.144l1.103,0c0.084,0 0.144,-0.06 0.144,-0.144l0,-0.469c0,-1.332 -0.923,-2.183 -2.28,-2.183c-1.356,0 -2.255,0.851 -2.255,2.171l0,4.249c0,1.32 0.899,2.171 2.255,2.171Z" style="fill:white;fill-rule:nonzero;"/>
                <path d="M15.576,35.327c0.893,0 1.561,-0.593 1.668,-1.503l0.207,-1.646c0,-0.054 -0.027,-0.09 -0.081,-0.09l-1.316,0c-0.054,0 -0.09,0.036 -0.099,0.09l-0.045,0.377c-0.009,0.054 0.018,0.09 0.072,0.09l0.758,0c0.018,0 0.027,0.018 0.027,0.036l-0.144,1.153c-0.063,0.558 -0.451,0.936 -0.984,0.936c-0.514,0 -0.812,-0.378 -0.749,-0.936l0.424,-3.457c0.073,-0.558 0.47,-0.936 0.984,-0.936c0.523,0 0.821,0.378 0.749,0.936l-0.045,0.405c-0.009,0.054 0.027,0.09 0.072,0.09l0.449,0c0.054,0 0.09,-0.036 0.099,-0.09l0.045,-0.387c0.117,-0.918 -0.405,-1.511 -1.297,-1.511c-0.893,0 -1.552,0.593 -1.668,1.502l-0.423,3.438c-0.108,0.91 0.405,1.503 1.297,1.503Z" style="fill:rgb(199,206,201);fill-rule:nonzero;"/>
                <path d="M20.596,30.792l-0.036,0.252c0,0.027 -0.018,0.045 -0.045,0.018c-0.161,-0.288 -0.449,-0.432 -0.809,-0.432c-0.703,0 -1.224,0.557 -1.341,1.349c-0.054,0.333 -0.09,0.639 -0.126,0.973c-0.045,0.333 -0.09,0.666 -0.117,0.999c-0.063,0.8 0.306,1.376 1.007,1.376c0.361,0 0.685,-0.153 0.919,-0.441c0.027,-0.027 0.045,-0.009 0.045,0.018l-0.036,0.261c-0.009,0.054 0.027,0.09 0.081,0.09l0.44,0c0.054,0 0.09,-0.036 0.099,-0.09l0.54,-4.373c0,-0.054 -0.027,-0.09 -0.081,-0.09l-0.441,0c-0.054,0 -0.09,0.036 -0.099,0.09Zm-1.214,3.977c-0.451,0 -0.711,-0.369 -0.64,-0.899l0.108,-0.891c0.027,-0.234 0.063,-0.577 0.108,-0.892c0.063,-0.54 0.415,-0.9 0.865,-0.9c0.414,0 0.674,0.36 0.611,0.9l-0.215,1.783c-0.072,0.539 -0.414,0.899 -0.837,0.899Z" style="fill:rgb(199,206,201);fill-rule:nonzero;"/>
                <path d="M22.748,29.891c0.243,0 0.44,-0.198 0.476,-0.477c0.027,-0.26 -0.117,-0.458 -0.368,-0.458c-0.252,0 -0.459,0.198 -0.486,0.458c-0.036,0.279 0.126,0.477 0.378,0.477Zm-0.891,5.364l0.45,0c0.054,0 0.09,-0.036 0.099,-0.09l0.531,-4.373c0.009,-0.054 -0.018,-0.09 -0.072,-0.09l-0.45,0c-0.045,0 -0.09,0.036 -0.09,0.09l-0.54,4.373c-0.009,0.054 0.018,0.09 0.072,0.09Z" style="fill:rgb(199,206,201);fill-rule:nonzero;"/>
                <path d="M25.628,30.639c-0.351,0 -0.702,0.135 -0.954,0.458c-0.027,0.027 -0.054,0.018 -0.054,-0.009l0.045,-0.296c0,-0.054 -0.027,-0.09 -0.081,-0.09l-0.441,0c-0.054,0 -0.099,0.036 -0.099,0.09l-0.54,4.373c-0.009,0.054 0.027,0.09 0.072,0.09l0.45,0c0.054,0 0.09,-0.036 0.099,-0.09l0.369,-2.997c0.072,-0.603 0.405,-0.972 0.864,-0.972c0.45,0 0.657,0.342 0.585,0.927l-0.369,3.042c-0.009,0.054 0.027,0.09 0.072,0.09l0.45,0c0.053,0 0.089,-0.036 0.098,-0.09l0.376,-3.096c0.108,-0.9 -0.223,-1.43 -0.942,-1.43Z" style="fill:rgb(199,206,201);fill-rule:nonzero;"/>
                <path d="M28.337,35.3c0.81,0 1.385,-0.476 1.475,-1.223c0.108,-0.846 -0.521,-1.135 -0.998,-1.36c-0.432,-0.198 -0.811,-0.369 -0.757,-0.837c0.054,-0.387 0.352,-0.702 0.775,-0.702c0.432,0 0.675,0.306 0.621,0.702l-0.009,0.072c0,0.045 0.027,0.072 0.081,0.072l0.404,0c0.054,0 0.09,-0.036 0.099,-0.09l0,-0.027c0.09,-0.747 -0.333,-1.25 -1.133,-1.25c-0.775,0 -1.332,0.467 -1.431,1.241c-0.108,0.855 0.485,1.125 0.945,1.333c0.423,0.198 0.846,0.369 0.783,0.873c-0.045,0.405 -0.36,0.702 -0.783,0.702c-0.451,0 -0.703,-0.306 -0.658,-0.684l0.009,-0.072c0,-0.045 -0.027,-0.072 -0.081,-0.072l-0.413,0c-0.054,0 -0.099,0.036 -0.099,0.09l-0.009,0.063c-0.09,0.702 0.369,1.169 1.179,1.169Z" style="fill:rgb(199,206,201);fill-rule:nonzero;"/>
                <path d="M32.594,30.639c-0.351,0 -0.702,0.135 -0.954,0.458c-0.027,0.027 -0.054,0.018 -0.054,-0.009l0.252,-2.042c0.009,-0.054 -0.018,-0.09 -0.072,-0.09l-0.45,0c-0.045,0 -0.09,0.036 -0.099,0.09l-0.747,6.119c-0.009,0.054 0.027,0.09 0.072,0.09l0.45,0c0.054,0 0.09,-0.036 0.099,-0.09l0.369,-2.997c0.072,-0.603 0.405,-0.972 0.864,-0.972c0.45,0 0.657,0.342 0.585,0.927l-0.369,3.042c-0.009,0.054 0.027,0.09 0.072,0.09l0.45,0c0.053,0 0.089,-0.036 0.098,-0.09l0.376,-3.096c0.108,-0.9 -0.223,-1.43 -0.942,-1.43Z" style="fill:rgb(199,206,201);fill-rule:nonzero;"/>
                <path d="M35.177,29.891c0.243,0 0.44,-0.198 0.476,-0.477c0.027,-0.26 -0.117,-0.458 -0.368,-0.458c-0.252,0 -0.459,0.198 -0.486,0.458c-0.036,0.279 0.126,0.477 0.378,0.477Zm-0.891,5.364l0.45,0c0.054,0 0.09,-0.036 0.099,-0.09l0.531,-4.373c0.009,-0.054 -0.018,-0.09 -0.072,-0.09l-0.45,0c-0.045,0 -0.09,0.036 -0.09,0.09l-0.54,4.373c-0.009,0.054 0.018,0.09 0.072,0.09Z" style="fill:rgb(199,206,201);fill-rule:nonzero;"/>
                <path d="M38.042,29.441l0.108,0c0.054,0 0.09,-0.027 0.099,-0.09l0.054,-0.368c0.009,-0.054 -0.027,-0.09 -0.081,-0.09l-0.117,0c-0.882,0 -1.27,0.458 -1.397,1.485l-0.036,0.288c0,0.018 -0.027,0.036 -0.045,0.036l-0.342,0c-0.054,0 -0.099,0.036 -0.099,0.09l-0.036,0.296c-0.009,0.054 0.018,0.09 0.072,0.09l0.351,0c0.018,0 0.036,0.018 0.027,0.036l-0.486,3.951c0,0.054 0.027,0.09 0.081,0.09l0.432,0c0.054,0 0.099,-0.036 0.099,-0.09l0.488,-3.951c0,-0.018 0.027,-0.036 0.045,-0.036l0.666,0c0.054,0 0.09,-0.036 0.099,-0.09l0.036,-0.296c0.009,-0.054 -0.018,-0.09 -0.072,-0.09l-0.675,0c-0.018,0 -0.036,-0.018 -0.027,-0.036l0.027,-0.279c0.081,-0.622 0.27,-0.946 0.729,-0.946Z" style="fill:rgb(199,206,201);fill-rule:nonzero;"/>
                <path d="M40.396,31.088l0.036,-0.296c0.009,-0.054 -0.018,-0.09 -0.072,-0.09l-0.665,0c-0.018,0 -0.027,-0.018 -0.027,-0.036l0.126,-1.008c0,-0.054 -0.027,-0.09 -0.081,-0.09l-0.433,0c-0.054,0 -0.099,0.036 -0.099,0.09l-0.125,1.008c0,0.018 -0.027,0.036 -0.045,0.036l-0.333,0c-0.054,0 -0.099,0.036 -0.099,0.09l-0.036,0.296c-0.009,0.054 0.018,0.09 0.072,0.09l0.342,0c0.018,0 0.036,0.018 0.027,0.036l-0.36,2.944c-0.108,0.908 0.297,1.097 0.917,1.097l0.216,0c0.054,0 0.09,-0.036 0.099,-0.09l0.045,-0.386c0.009,-0.054 -0.027,-0.09 -0.072,-0.09l-0.09,0c-0.369,0.009 -0.549,-0.144 -0.477,-0.72l0.333,-2.755c0.009,-0.018 0.027,-0.036 0.045,-0.036l0.657,0c0.054,0 0.099,-0.036 0.099,-0.09Z" style="fill:rgb(199,206,201);fill-rule:nonzero;"/>
                <path d="M43.564,33.131l0.135,-1.125c0.099,-0.81 -0.35,-1.376 -1.196,-1.376c-0.838,0 -1.44,0.566 -1.539,1.376l-0.234,1.944c-0.099,0.829 0.36,1.377 1.188,1.377c0.774,0 1.314,-0.449 1.485,-1.151c0.018,-0.054 -0.009,-0.1 -0.063,-0.1l-0.432,-0.018c-0.054,0 -0.081,0.027 -0.108,0.082c-0.126,0.369 -0.423,0.63 -0.81,0.63c-0.433,0 -0.703,-0.351 -0.64,-0.856l0.081,-0.657c0,-0.018 0.027,-0.036 0.045,-0.036l1.99,0c0.053,0 0.089,-0.036 0.098,-0.09Zm-1.133,-1.944c0.45,0 0.72,0.351 0.657,0.865l-0.081,0.603c0,0.018 -0.018,0.036 -0.036,0.036l-1.432,0c-0.018,0 -0.036,-0.018 -0.036,-0.036l0.081,-0.603c0.063,-0.514 0.406,-0.865 0.847,-0.865Z" style="fill:rgb(199,206,201);fill-rule:nonzero;"/>
                <path d="M46.273,30.657c-0.414,0 -0.711,0.279 -0.918,0.684c-0.009,0.027 -0.036,0.027 -0.036,-0.009l0.072,-0.54c0,-0.054 -0.027,-0.09 -0.081,-0.09l-0.44,0c-0.054,0 -0.099,0.036 -0.099,0.09l-0.54,4.373c-0.009,0.054 0.027,0.09 0.072,0.09l0.45,0c0.054,0 0.09,-0.036 0.099,-0.09l0.333,-2.699c0.072,-0.612 0.431,-1.089 0.845,-1.116c0.153,-0.027 0.279,-0.009 0.369,0.036c0.054,0.018 0.099,0.009 0.117,-0.054l0.153,-0.459c0.018,-0.045 0.009,-0.09 -0.027,-0.117c-0.09,-0.054 -0.198,-0.099 -0.369,-0.099Z" style="fill:rgb(199,206,201);fill-rule:nonzero;"/>
            </g>
            <path d="M22.902,95.095c1.177,0 2.015,-0.838 2.015,-2.171c0,-1.14 -0.599,-1.62 -1.811,-2.52c-0.972,-0.72 -1.369,-1.08 -1.369,-1.848c0,-0.853 0.481,-1.309 1.105,-1.309c0.696,0 1.165,0.564 1.165,1.417l0,0.312c0,0.072 0.048,0.12 0.12,0.12l0.598,0c0.072,0 0.12,-0.048 0.12,-0.12l0,-0.3c0,-1.309 -0.79,-2.171 -2.003,-2.171c-1.129,0 -1.943,0.754 -1.943,2.027c0,1.272 0.79,1.872 1.739,2.568c0.888,0.672 1.441,1.044 1.441,1.896c0,0.829 -0.517,1.357 -1.177,1.357c-0.672,0 -1.153,-0.552 -1.153,-1.417l0,-0.252c0,-0.072 -0.048,-0.12 -0.12,-0.12l-0.598,0c-0.072,0 -0.12,0.048 -0.12,0.12l0,0.288c0,1.273 0.814,2.123 1.991,2.123Z" style="fill:white;fill-rule:nonzero;"/>
            <path d="M28.302,88.845c-0.48,0 -0.936,0.179 -1.249,0.611c-0.024,0.035 -0.06,0.023 -0.06,-0.012l0,-2.723c0,-0.072 -0.048,-0.12 -0.12,-0.12l-0.61,0c-0.072,0 -0.12,0.048 -0.12,0.12l0,8.158c0,0.072 0.048,0.12 0.12,0.12l0.61,0c0.072,0 0.12,-0.048 0.12,-0.12l0,-3.996c0,-0.804 0.397,-1.296 1.033,-1.296c0.612,0 0.961,0.456 0.961,1.236l0,4.056c0,0.072 0.048,0.12 0.12,0.12l0.61,0c0.072,0 0.12,-0.048 0.12,-0.12l0,-4.128c0,-1.2 -0.551,-1.906 -1.535,-1.906Z" style="fill:white;fill-rule:nonzero;"/>
            <path d="M31.722,87.847c0.336,0 0.575,-0.263 0.575,-0.635c0,-0.348 -0.239,-0.611 -0.575,-0.611c-0.348,0 -0.599,0.263 -0.599,0.611c0,0.372 0.251,0.635 0.599,0.635Zm-0.311,7.152l0.61,0c0.072,0 0.12,-0.048 0.12,-0.12l0,-5.83c0,-0.072 -0.048,-0.12 -0.12,-0.12l-0.61,0c-0.072,0 -0.12,0.048 -0.12,0.12l0,5.83c0,0.072 0.048,0.12 0.12,0.12Z" style="fill:white;fill-rule:nonzero;"/>
            <path d="M35.585,87.247l0.144,0c0.072,0 0.12,-0.036 0.12,-0.12l0.012,-0.49c0,-0.072 -0.048,-0.12 -0.12,-0.12l-0.168,0c-1.211,0 -1.666,0.61 -1.666,1.979l0,0.385c0,0.024 -0.024,0.048 -0.048,0.048l-0.48,0c-0.072,0 -0.12,0.048 -0.12,0.119l0,0.396c0,0.071 0.048,0.119 0.12,0.119l0.48,0c0.024,0 0.048,0.024 0.048,0.048l0,5.268c0,0.072 0.048,0.12 0.12,0.12l0.598,0c0.072,0 0.12,-0.048 0.12,-0.12l0,-5.268c0,-0.024 0.024,-0.048 0.048,-0.048l0.924,0c0.072,0 0.12,-0.048 0.12,-0.119l0,-0.396c0,-0.071 -0.048,-0.119 -0.12,-0.119l-0.924,0c-0.024,0 -0.048,-0.024 -0.048,-0.048l0,-0.373c0,-0.828 0.204,-1.261 0.84,-1.261Z" style="fill:white;fill-rule:nonzero;"/>
            <path d="M39.101,89.444l0,-0.396c0,-0.071 -0.048,-0.119 -0.12,-0.119l-0.912,0c-0.024,0 -0.048,-0.024 -0.048,-0.048l0,-1.344c0,-0.072 -0.048,-0.12 -0.12,-0.12l-0.598,0c-0.072,0 -0.12,0.048 -0.12,0.12l0,1.344c0,0.024 -0.024,0.048 -0.048,0.048l-0.468,0c-0.072,0 -0.12,0.048 -0.12,0.119l0,0.396c0,0.071 0.048,0.119 0.12,0.119l0.468,0c0.024,0 0.048,0.024 0.048,0.048l0,3.926c0,1.211 0.587,1.462 1.438,1.462l0.3,0c0.072,0 0.12,-0.048 0.12,-0.12l0,-0.514c0,-0.072 -0.048,-0.12 -0.12,-0.12l-0.12,0c-0.504,0.012 -0.78,-0.192 -0.78,-0.961l0,-3.673c0,-0.024 0.024,-0.048 0.048,-0.048l0.912,0c0.072,0 0.12,-0.048 0.12,-0.119Z" style="fill:white;fill-rule:nonzero;"/>
            <g transform="matrix(1,0,0,1,-34.7265,-44.2957)">
                <g transform="matrix(12,0,0,12,41.0805,309.296)">
                    <path d="M0.217,0.008c0.098,0 0.168,-0.07 0.168,-0.181c0,-0.095 -0.05,-0.135 -0.151,-0.21c-0.081,-0.06 -0.114,-0.09 -0.114,-0.154c0,-0.071 0.04,-0.109 0.092,-0.109c0.058,0 0.097,0.047 0.097,0.118l0,0.026c0,0.006 0.004,0.01 0.01,0.01l0.05,0c0.006,0 0.01,-0.004 0.01,-0.01l0,-0.025c0,-0.109 -0.066,-0.181 -0.167,-0.181c-0.094,0 -0.162,0.063 -0.162,0.169c0,0.106 0.066,0.156 0.145,0.214c0.074,0.056 0.12,0.087 0.12,0.158c0,0.069 -0.043,0.113 -0.098,0.113c-0.056,0 -0.096,-0.046 -0.096,-0.118l0,-0.021c0,-0.006 -0.004,-0.01 -0.01,-0.01l-0.05,0c-0.006,0 -0.01,0.004 -0.01,0.01l0,0.024c0,0.106 0.068,0.177 0.166,0.177Z" style="fill:white;fill-rule:nonzero;"/>
                </g>
                <g transform="matrix(12,0,0,12,46.1925,309.296)">
                    <path d="M0.241,-0.513c-0.04,0 -0.078,0.015 -0.104,0.051c-0.002,0.003 -0.005,0.002 -0.005,-0.001l0,-0.227c0,-0.006 -0.004,-0.01 -0.01,-0.01l-0.051,0c-0.006,0 -0.01,0.004 -0.01,0.01l0,0.68c0,0.006 0.004,0.01 0.01,0.01l0.051,0c0.006,0 0.01,-0.004 0.01,-0.01l0,-0.333c0,-0.067 0.033,-0.108 0.086,-0.108c0.051,0 0.08,0.038 0.08,0.103l0,0.338c0,0.006 0.004,0.01 0.01,0.01l0.051,0c0.006,0 0.01,-0.004 0.01,-0.01l0,-0.344c0,-0.1 -0.046,-0.159 -0.128,-0.159Z" style="fill:white;fill-rule:nonzero;"/>
                </g>
                <g transform="matrix(12,0,0,12,51.2805,309.296)">
                    <path d="M0.102,-0.596c0.028,0 0.048,-0.022 0.048,-0.053c0,-0.029 -0.02,-0.051 -0.048,-0.051c-0.029,0 -0.05,0.022 -0.05,0.051c0,0.031 0.021,0.053 0.05,0.053Zm-0.026,0.596l0.051,0c0.006,0 0.01,-0.004 0.01,-0.01l0,-0.486c0,-0.006 -0.004,-0.01 -0.01,-0.01l-0.051,0c-0.006,0 -0.01,0.004 -0.01,0.01l0,0.486c0,0.006 0.004,0.01 0.01,0.01Z" style="fill:white;fill-rule:nonzero;"/>
                </g>
                <g transform="matrix(12,0,0,12,53.7045,309.296)">
                    <path d="M0.222,-0.646l0.012,0c0.006,0 0.01,-0.003 0.01,-0.01l0.001,-0.041c0,-0.006 -0.004,-0.01 -0.01,-0.01l-0.014,0c-0.101,0 -0.139,0.051 -0.139,0.165l0,0.032c0,0.002 -0.002,0.004 -0.004,0.004l-0.04,0c-0.006,0 -0.01,0.004 -0.01,0.01l0,0.033c0,0.006 0.004,0.01 0.01,0.01l0.04,0c0.002,0 0.004,0.002 0.004,0.004l0,0.439c0,0.006 0.004,0.01 0.01,0.01l0.05,0c0.006,0 0.01,-0.004 0.01,-0.01l0,-0.439c0,-0.002 0.002,-0.004 0.004,-0.004l0.077,0c0.006,0 0.01,-0.004 0.01,-0.01l0,-0.033c0,-0.006 -0.004,-0.01 -0.01,-0.01l-0.077,0c-0.002,0 -0.004,-0.002 -0.004,-0.004l0,-0.031c0,-0.069 0.017,-0.105 0.07,-0.105Z" style="fill:white;fill-rule:nonzero;"/>
                </g>
                <g transform="matrix(12,0,0,12,57.0165,309.296)">
                    <path d="M0.239,-0.463l0,-0.033c0,-0.006 -0.004,-0.01 -0.01,-0.01l-0.076,0c-0.002,0 -0.004,-0.002 -0.004,-0.004l0,-0.112c0,-0.006 -0.004,-0.01 -0.01,-0.01l-0.05,0c-0.006,0 -0.01,0.004 -0.01,0.01l0,0.112c0,0.002 -0.002,0.004 -0.004,0.004l-0.039,0c-0.006,0 -0.01,0.004 -0.01,0.01l0,0.033c0,0.006 0.004,0.01 0.01,0.01l0.039,0c0.002,0 0.004,0.002 0.004,0.004l0,0.327c0,0.101 0.049,0.122 0.12,0.122l0.025,0c0.006,0 0.01,-0.004 0.01,-0.01l0,-0.043c0,-0.006 -0.004,-0.01 -0.01,-0.01l-0.01,0c-0.042,0.001 -0.065,-0.016 -0.065,-0.08l0,-0.306c0,-0.002 0.002,-0.004 0.004,-0.004l0.076,0c0.006,0 0.01,-0.004 0.01,-0.01Z" style="fill:white;fill-rule:nonzero;"/>
                </g>
                <g transform="matrix(12,0,0,12,60.2205,309.296)">
                    <path d="M0.034,0l0.05,0c0.006,0 0.01,-0.004 0.011,-0.009l0.181,-0.68c0.002,-0.007 -0.002,-0.011 -0.009,-0.011l-0.05,0c-0.006,0 -0.01,0.004 -0.011,0.009l-0.181,0.68c-0.002,0.007 0.002,0.011 0.009,0.011Z" style="fill:rgb(121,140,115);fill-rule:nonzero;"/>
                </g>
                <g transform="matrix(12,0,0,12,63.4845,309.296)">
                    <path d="M0.227,0.008c0.103,0 0.174,-0.07 0.174,-0.175l0,-0.366c0,-0.105 -0.071,-0.175 -0.174,-0.175c-0.102,0 -0.172,0.07 -0.172,0.175l0,0.366c0,0.105 0.07,0.175 0.172,0.175Zm0,-0.062c-0.06,0 -0.101,-0.045 -0.101,-0.109l0,-0.373c0,-0.065 0.041,-0.11 0.101,-0.11c0.061,0 0.103,0.045 0.103,0.11l0,0.373c0,0.064 -0.042,0.109 -0.103,0.109Z" style="fill:rgb(121,140,115);fill-rule:nonzero;"/>
                </g>
                <g transform="matrix(12,0,0,12,68.9565,309.296)">
                    <path d="M0.222,-0.646l0.012,0c0.006,0 0.01,-0.003 0.01,-0.01l0.001,-0.041c0,-0.006 -0.004,-0.01 -0.01,-0.01l-0.014,0c-0.101,0 -0.139,0.051 -0.139,0.165l0,0.032c0,0.002 -0.002,0.004 -0.004,0.004l-0.04,0c-0.006,0 -0.01,0.004 -0.01,0.01l0,0.033c0,0.006 0.004,0.01 0.01,0.01l0.04,0c0.002,0 0.004,0.002 0.004,0.004l0,0.439c0,0.006 0.004,0.01 0.01,0.01l0.05,0c0.006,0 0.01,-0.004 0.01,-0.01l0,-0.439c0,-0.002 0.002,-0.004 0.004,-0.004l0.077,0c0.006,0 0.01,-0.004 0.01,-0.01l0,-0.033c0,-0.006 -0.004,-0.01 -0.01,-0.01l-0.077,0c-0.002,0 -0.004,-0.002 -0.004,-0.004l0,-0.031c0,-0.069 0.017,-0.105 0.07,-0.105Z" style="fill:rgb(121,140,115);fill-rule:nonzero;"/>
                </g>
                <g transform="matrix(12,0,0,12,72.2685,309.296)">
                    <path d="M0.222,-0.646l0.012,0c0.006,0 0.01,-0.003 0.01,-0.01l0.001,-0.041c0,-0.006 -0.004,-0.01 -0.01,-0.01l-0.014,0c-0.101,0 -0.139,0.051 -0.139,0.165l0,0.032c0,0.002 -0.002,0.004 -0.004,0.004l-0.04,0c-0.006,0 -0.01,0.004 -0.01,0.01l0,0.033c0,0.006 0.004,0.01 0.01,0.01l0.04,0c0.002,0 0.004,0.002 0.004,0.004l0,0.439c0,0.006 0.004,0.01 0.01,0.01l0.05,0c0.006,0 0.01,-0.004 0.01,-0.01l0,-0.439c0,-0.002 0.002,-0.004 0.004,-0.004l0.077,0c0.006,0 0.01,-0.004 0.01,-0.01l0,-0.033c0,-0.006 -0.004,-0.01 -0.01,-0.01l-0.077,0c-0.002,0 -0.004,-0.002 -0.004,-0.004l0,-0.031c0,-0.069 0.017,-0.105 0.07,-0.105Z" style="fill:rgb(121,140,115);fill-rule:nonzero;"/>
                </g>
                <g transform="matrix(12,0,0,12,75.5805,309.296)">
                    <path d="M0.193,0.005c0.093,0 0.152,-0.053 0.152,-0.136c0,-0.094 -0.076,-0.126 -0.134,-0.151c-0.052,-0.022 -0.098,-0.041 -0.098,-0.093c0,-0.043 0.03,-0.078 0.079,-0.078c0.049,0 0.081,0.034 0.081,0.078l0,0.008c0,0.005 0.004,0.008 0.01,0.008l0.046,0c0.006,0 0.01,-0.004 0.01,-0.01l0,-0.003c0,-0.083 -0.056,-0.139 -0.148,-0.139c-0.088,0 -0.146,0.052 -0.146,0.138c0,0.095 0.071,0.125 0.127,0.148c0.051,0.022 0.102,0.041 0.102,0.097c0,0.045 -0.031,0.078 -0.08,0.078c-0.051,0 -0.085,-0.034 -0.085,-0.076l0,-0.008c0,-0.005 -0.004,-0.008 -0.01,-0.008l-0.048,0c-0.006,0 -0.01,0.004 -0.01,0.01l0,0.007c0,0.078 0.059,0.13 0.152,0.13Z" style="fill:rgb(121,140,115);fill-rule:nonzero;"/>
                </g>
                <g transform="matrix(12,0,0,12,80.0685,309.296)">
                    <path d="M0.363,-0.236l0,-0.125c0,-0.09 -0.06,-0.153 -0.157,-0.153c-0.095,0 -0.156,0.063 -0.156,0.153l0,0.216c0,0.092 0.061,0.153 0.156,0.153c0.088,0 0.143,-0.05 0.154,-0.128c0.001,-0.006 -0.003,-0.011 -0.009,-0.011l-0.05,-0.002c-0.006,0 -0.009,0.003 -0.011,0.009c-0.009,0.041 -0.04,0.07 -0.084,0.07c-0.05,0 -0.085,-0.039 -0.085,-0.095l0,-0.073c0,-0.002 0.002,-0.004 0.004,-0.004l0.228,0c0.006,0 0.01,-0.004 0.01,-0.01Zm-0.157,-0.216c0.052,0 0.087,0.039 0.087,0.096l0,0.067c0,0.002 -0.002,0.004 -0.004,0.004l-0.164,0c-0.002,0 -0.004,-0.002 -0.004,-0.004l0,-0.067c0,-0.057 0.035,-0.096 0.085,-0.096Z" style="fill:rgb(121,140,115);fill-rule:nonzero;"/>
                </g>
                <g transform="matrix(12,0,0,12,84.9045,309.296)">
                    <path d="M0.239,-0.463l0,-0.033c0,-0.006 -0.004,-0.01 -0.01,-0.01l-0.076,0c-0.002,0 -0.004,-0.002 -0.004,-0.004l0,-0.112c0,-0.006 -0.004,-0.01 -0.01,-0.01l-0.05,0c-0.006,0 -0.01,0.004 -0.01,0.01l0,0.112c0,0.002 -0.002,0.004 -0.004,0.004l-0.039,0c-0.006,0 -0.01,0.004 -0.01,0.01l0,0.033c0,0.006 0.004,0.01 0.01,0.01l0.039,0c0.002,0 0.004,0.002 0.004,0.004l0,0.327c0,0.101 0.049,0.122 0.12,0.122l0.025,0c0.006,0 0.01,-0.004 0.01,-0.01l0,-0.043c0,-0.006 -0.004,-0.01 -0.01,-0.01l-0.01,0c-0.042,0.001 -0.065,-0.016 -0.065,-0.08l0,-0.306c0,-0.002 0.002,-0.004 0.004,-0.004l0.076,0c0.006,0 0.01,-0.004 0.01,-0.01Z" style="fill:rgb(121,140,115);fill-rule:nonzero;"/>
                </g>
            </g>
            <path d="M26.053,347.659c0.838,0 1.404,-0.539 1.404,-1.43l0,-2.449c0,-0.9 -0.566,-1.439 -1.404,-1.439c-0.846,0 -1.403,0.539 -1.403,1.439l0,2.449c0,0.891 0.557,1.43 1.403,1.43Zm0,-0.557c-0.45,0 -0.765,-0.306 -0.765,-0.837l0,-2.512c0,-0.54 0.315,-0.846 0.765,-0.846c0.46,0 0.766,0.306 0.766,0.846l0,2.512c0,0.531 -0.306,0.837 -0.766,0.837Z" style="fill:white;fill-rule:nonzero;"/>
            <path d="M29.941,347.659c0.847,0 1.395,-0.584 1.395,-1.538l0,-3.618c0,-0.054 -0.036,-0.09 -0.09,-0.09l-0.458,0c-0.054,0 -0.09,0.036 -0.09,0.09l0,3.672c0,0.576 -0.297,0.927 -0.757,0.927c-0.45,0 -0.747,-0.351 -0.747,-0.927l0,-3.672c0,-0.054 -0.036,-0.09 -0.09,-0.09l-0.458,0c-0.054,0 -0.09,0.036 -0.09,0.09l0,3.618c0,0.954 0.557,1.538 1.385,1.538Z" style="fill:white;fill-rule:nonzero;"/>
            <path d="M35.026,342.404l-2.717,0c-0.054,0 -0.09,0.036 -0.09,0.09l0,0.386c0,0.054 0.036,0.09 0.09,0.09l0.972,0c0.018,0 0.036,0.018 0.036,0.036l0,4.5c0,0.054 0.036,0.09 0.09,0.09l0.458,0c0.054,0 0.09,-0.036 0.09,-0.09l0,-4.5c0,-0.018 0.018,-0.036 0.036,-0.036l1.035,0c0.054,0 0.09,-0.036 0.09,-0.09l0,-0.386c0,-0.054 -0.036,-0.09 -0.09,-0.09Z" style="fill:white;fill-rule:nonzero;"/>
            <path d="M27.597,307.596l0.459,0c0.054,0 0.089,-0.036 0.089,-0.09l0,-5.004c0,-0.054 -0.035,-0.09 -0.089,-0.09l-0.459,0c-0.054,0 -0.089,0.036 -0.089,0.09l0,5.004c0,0.054 0.035,0.09 0.089,0.09Z" style="fill:white;fill-rule:nonzero;"/>
            <path d="M29.496,307.596l0.45,0c0.054,0 0.089,-0.036 0.089,-0.09l0,-3.753c0,-0.036 0.036,-0.045 0.045,-0.009l1.523,3.78c0.018,0.054 0.054,0.072 0.098,0.072l0.477,0c0.054,0 0.089,-0.036 0.089,-0.09l0,-5.004c0,-0.054 -0.035,-0.09 -0.089,-0.09l-0.45,0c-0.054,0 -0.089,0.036 -0.089,0.09l0,3.744c0,0.036 -0.036,0.045 -0.045,0.009l-1.532,-3.771c-0.018,-0.054 -0.054,-0.072 -0.098,-0.072l-0.468,0c-0.054,0 -0.089,0.036 -0.089,0.09l0,5.004c0,0.054 0.035,0.09 0.089,0.09Z" style="fill:white;fill-rule:nonzero;"/>
            <path d="M26.17,177.659c0.838,0 1.404,-0.539 1.404,-1.43l0,-2.449c0,-0.9 -0.566,-1.439 -1.404,-1.439c-0.846,0 -1.403,0.539 -1.403,1.439l0,2.449c0,0.891 0.557,1.43 1.403,1.43Zm0,-0.557c-0.45,0 -0.765,-0.306 -0.765,-0.837l0,-2.512c0,-0.54 0.315,-0.846 0.765,-0.846c0.46,0 0.766,0.306 0.766,0.846l0,2.512c0,0.531 -0.306,0.837 -0.766,0.837Z" style="fill:white;fill-rule:nonzero;"/>
            <path d="M30.058,177.659c0.847,0 1.395,-0.584 1.395,-1.538l0,-3.618c0,-0.054 -0.036,-0.09 -0.09,-0.09l-0.458,0c-0.054,0 -0.09,0.036 -0.09,0.09l0,3.672c0,0.576 -0.297,0.927 -0.757,0.927c-0.45,0 -0.747,-0.351 -0.747,-0.927l0,-3.672c0,-0.054 -0.036,-0.09 -0.09,-0.09l-0.458,0c-0.054,0 -0.09,0.036 -0.09,0.09l0,3.618c0,0.954 0.557,1.538 1.385,1.538Z" style="fill:white;fill-rule:nonzero;"/>
            <path d="M35.143,172.404l-2.717,0c-0.054,0 -0.09,0.036 -0.09,0.09l0,0.386c0,0.054 0.036,0.09 0.09,0.09l0.972,0c0.018,0 0.036,0.018 0.036,0.036l0,4.5c0,0.054 0.036,0.09 0.09,0.09l0.458,0c0.054,0 0.09,-0.036 0.09,-0.09l0,-4.5c0,-0.018 0.018,-0.036 0.036,-0.036l1.035,0c0.054,0 0.09,-0.036 0.09,-0.09l0,-0.386c0,-0.054 -0.036,-0.09 -0.09,-0.09Z" style="fill:white;fill-rule:nonzero;"/>
            <path d="M27.71,137.592l0.458,0c0.054,0 0.09,-0.036 0.09,-0.09l0,-5.004c0,-0.054 -0.036,-0.09 -0.09,-0.09l-0.458,0c-0.054,0 -0.09,0.036 -0.09,0.09l0,5.004c0,0.054 0.036,0.09 0.09,0.09Z" style="fill:white;fill-rule:nonzero;"/>
            <path d="M29.609,137.592l0.449,0c0.054,0 0.09,-0.036 0.09,-0.09l0,-3.753c0,-0.036 0.036,-0.045 0.045,-0.009l1.522,3.78c0.018,0.054 0.054,0.072 0.099,0.072l0.476,0c0.054,0 0.09,-0.036 0.09,-0.09l0,-5.004c0,-0.054 -0.036,-0.09 -0.09,-0.09l-0.449,0c-0.054,0 -0.09,0.036 -0.09,0.09l0,3.744c0,0.036 -0.036,0.045 -0.045,0.009l-1.531,-3.771c-0.018,-0.054 -0.054,-0.072 -0.099,-0.072l-0.467,0c-0.054,0 -0.09,0.036 -0.09,0.09l0,5.004c0,0.054 0.036,0.09 0.09,0.09Z" style="fill:white;fill-rule:nonzero;"/>
        </g>
    </g>
</svg>
