<?xml version="1.0" encoding="UTF-8" standalone="no"?>
<!DOCTYPE svg PUBLIC "-//W3C//DTD SVG 1.1//EN" "http://www.w3.org/Graphics/SVG/1.1/DTD/svg11.dtd">
<svg width="60px" height="380px" version="1.1" xmlns="http://www.w3.org/2000/svg" xmlns:xlink="http://www.w3.org/1999/xlink" xml:space="preserve" xmlns:serif="http://www.serif.com/" style="fill-rule:evenodd;clip-rule:evenodd;stroke-linecap:round;stroke-linejoin:round;stroke-miterlimit:1.5;">
    <rect id="Capacitor-Mono-Dark" serif:id="Capacitor Mono Dark" x="0" y="0" width="60" height="380" style="fill:none;"/>
    <clipPath id="_clip1">
        <rect x="0" y="0" width="60" height="380"/>
    </clipPath>
    <g clip-path="url(#_clip1)">
        <g id="Background">
            <path id="bg" d="M60,379.995l0,-379.995l-60,0l0,379.995l60,0Z" style="fill:rgb(54,69,74);"/>
            <g id="bgOutLight">
                <circle cx="30" cy="325" r="14" style="fill:rgb(51,51,51);"/>
            </g>
            <path d="M0,24.695l3.669,0" style="fill:none;stroke:rgb(128,128,128);stroke-width:0.7px;"/>
            <path d="M56.764,24.6l3.236,0" style="fill:none;stroke:rgb(128,128,128);stroke-width:0.7px;"/>
            <g id="knobBgMediumThree">
                <path d="M45.556,80.9c8.592,-8.58 8.592,-22.49 0,-31.07c-8.585,-8.573 -22.527,-8.573 -31.112,0c-8.592,8.58 -8.592,22.49 0,31.07l15.556,-15.535l15.556,15.535Z" style="fill:none;stroke:rgb(128,128,128);stroke-width:0.7px;stroke-linecap:butt;stroke-linejoin:miter;"/>
            </g>
            <g id="knobBgMediumThree1" serif:id="knobBgMediumThree">
                <path d="M45.556,140.9c8.592,-8.58 8.592,-22.49 0,-31.07c-8.585,-8.573 -22.527,-8.573 -31.112,0c-8.592,8.58 -8.592,22.49 0,31.07l15.556,-15.535l15.556,15.535Z" style="fill:none;stroke:rgb(128,128,128);stroke-width:0.7px;stroke-linecap:butt;stroke-linejoin:miter;"/>
            </g>
        </g>
        <g id="Lables">
            <g id="Branding">
                <path d="M12.357,362.45l0.545,0c0.049,0 0.07,-0.028 0.056,-0.077l-0.72,-2.163c-0.007,-0.021 0,-0.028 0.014,-0.042c0.419,-0.182 0.685,-0.637 0.685,-1.232c0,-0.826 -0.482,-1.393 -1.203,-1.393l-1.253,0c-0.042,0 -0.07,0.028 -0.07,0.07l0,4.767c0,0.042 0.028,0.07 0.07,0.07l0.531,0c0.042,0 0.07,-0.028 0.07,-0.07l0,-2.079c0,-0.014 0.014,-0.028 0.028,-0.028l0.483,0c0.014,0 0.021,0 0.028,0.021l0.652,2.1c0.014,0.035 0.049,0.056 0.084,0.056Zm-1.247,-4.326l0.518,0c0.379,0 0.638,0.315 0.638,0.819c0,0.49 -0.259,0.805 -0.638,0.805l-0.518,0c-0.014,0 -0.028,-0.014 -0.028,-0.028l0,-1.568c0,-0.014 0.014,-0.028 0.028,-0.028Z" style="fill:rgb(199,206,201);fill-rule:nonzero;"/>
                <path d="M16.045,362.45l0.546,0c0.049,0 0.07,-0.035 0.063,-0.077l-1.057,-4.76c-0.007,-0.042 -0.035,-0.063 -0.077,-0.063l-0.615,0c-0.042,0 -0.07,0.021 -0.077,0.063l-1.043,4.76c-0.007,0.042 0.014,0.077 0.063,0.077l0.532,0c0.042,0 0.07,-0.021 0.077,-0.063l0.161,-0.805c0,-0.014 0.021,-0.028 0.035,-0.028l1.126,0c0.014,0 0.035,0.014 0.035,0.028l0.154,0.805c0.007,0.042 0.035,0.063 0.077,0.063Zm-1.308,-1.456l0.476,-2.394c0.006,-0.028 0.02,-0.028 0.027,0l0.462,2.394c0,0.014 -0.007,0.028 -0.021,0.028l-0.923,0c-0.014,0 -0.021,-0.014 -0.021,-0.028Z" style="fill:rgb(199,206,201);fill-rule:nonzero;"/>
                <path d="M18.719,362.506c0.764,0 1.267,-0.497 1.267,-1.267l0,-0.105c0,-0.042 -0.028,-0.07 -0.07,-0.07l-0.531,-0.028c-0.042,0 -0.07,0.028 -0.07,0.07l0,0.182c0,0.378 -0.238,0.637 -0.596,0.637c-0.357,0 -0.588,-0.259 -0.588,-0.637l0,-2.576c0,-0.385 0.231,-0.637 0.588,-0.637c0.358,0 0.596,0.252 0.596,0.637l0,0.182c0,0.042 0.028,0.07 0.07,0.07l0.531,-0.028c0.042,0 0.07,-0.028 0.07,-0.07l0,-0.112c0,-0.77 -0.503,-1.26 -1.267,-1.26c-0.756,0 -1.259,0.49 -1.259,1.26l0,2.485c0,0.77 0.503,1.267 1.259,1.267Z" style="fill:rgb(199,206,201);fill-rule:nonzero;"/>
                <path d="M21.142,362.45l0.531,0c0.042,0 0.07,-0.028 0.07,-0.07l0,-1.575c0,-0.014 0,-0.028 0.007,-0.035l0.357,-0.567c0.014,-0.014 0.028,-0.014 0.035,0.007l0.91,2.184c0.014,0.042 0.042,0.056 0.077,0.056l0.581,0c0.049,0 0.077,-0.035 0.056,-0.084l-1.169,-2.744c-0.007,-0.014 -0.007,-0.028 0,-0.042l1.078,-1.946c0.028,-0.049 0.007,-0.084 -0.049,-0.084l-0.574,0c-0.035,0 -0.063,0.021 -0.084,0.049l-1.19,2.128c-0.014,0.028 -0.035,0.021 -0.035,-0.007l0,-2.1c0,-0.042 -0.028,-0.07 -0.07,-0.07l-0.531,0c-0.042,0 -0.07,0.028 -0.07,0.07l0,4.76c0,0.042 0.028,0.07 0.07,0.07Z" style="fill:rgb(199,206,201);fill-rule:nonzero;"/>
                <path d="M25.44,362.45l0.497,0c0.042,0 0.063,-0.014 0.07,-0.063l0.503,-3.311c0,-0.021 0.021,-0.021 0.028,0l0.532,3.311c0.007,0.042 0.028,0.063 0.07,0.063l0.497,0c0.042,0 0.07,-0.021 0.077,-0.063l0.882,-4.76c0.007,-0.042 -0.014,-0.077 -0.063,-0.077l-0.546,0c-0.042,0 -0.063,0.021 -0.07,0.063l-0.518,3.283c-0.007,0.021 -0.021,0.021 -0.028,0l-0.539,-3.283c-0.007,-0.042 -0.028,-0.063 -0.07,-0.063l-0.468,0c-0.042,0 -0.063,0.014 -0.07,0.063l-0.504,3.283c-0.007,0.021 -0.021,0.021 -0.028,0l-0.567,-3.283c-0.007,-0.042 -0.035,-0.063 -0.077,-0.063l-0.553,0c-0.049,0 -0.07,0.035 -0.063,0.077l0.931,4.76c0.007,0.042 0.035,0.063 0.077,0.063Z" style="fill:rgb(199,206,201);fill-rule:nonzero;"/>
                <path d="M29.626,362.45l0.531,0c0.042,0 0.07,-0.028 0.07,-0.07l0,-4.76c0,-0.042 -0.028,-0.07 -0.07,-0.07l-0.531,0c-0.042,0 -0.07,0.028 -0.07,0.07l0,4.76c0,0.042 0.028,0.07 0.07,0.07Z" style="fill:rgb(199,206,201);fill-rule:nonzero;"/>
                <path d="M31.523,362.45l0.525,0c0.042,0 0.07,-0.028 0.07,-0.07l-0.007,-3.073c0,-0.028 0.028,-0.028 0.035,0l1.246,3.087c0.014,0.042 0.042,0.056 0.077,0.056l0.546,0c0.042,0 0.07,-0.028 0.07,-0.07l0,-4.76c0,-0.042 -0.028,-0.07 -0.07,-0.07l-0.525,0c-0.042,0 -0.07,0.028 -0.07,0.07l0,3.066c0,0.028 -0.028,0.035 -0.035,0.007l-1.246,-3.087c-0.014,-0.042 -0.042,-0.056 -0.077,-0.056l-0.539,0c-0.042,0 -0.07,0.028 -0.07,0.07l0,4.76c0,0.042 0.028,0.07 0.07,0.07Z" style="fill:rgb(199,206,201);fill-rule:nonzero;"/>
                <path d="M35.373,362.45l1.147,0c0.771,0 1.267,-0.511 1.267,-1.323l0,-2.254c0,-0.812 -0.496,-1.323 -1.267,-1.323l-1.147,0c-0.042,0 -0.07,0.028 -0.07,0.07l0,4.76c0,0.042 0.028,0.07 0.07,0.07Zm0.601,-0.609l0,-3.682c0,-0.014 0.014,-0.028 0.028,-0.028l0.511,0c0.365,0 0.596,0.301 0.596,0.777l0,2.184c-0.007,0.476 -0.238,0.77 -0.596,0.77l-0.511,0.007c-0.014,0 -0.028,-0.014 -0.028,-0.028Z" style="fill:rgb(199,206,201);fill-rule:nonzero;"/>
                <path d="M40.111,362.506c0.771,0 1.288,-0.504 1.288,-1.281l0,-2.443c0,-0.777 -0.517,-1.288 -1.288,-1.288c-0.763,0 -1.273,0.511 -1.273,1.288l0,2.443c0,0.777 0.51,1.281 1.273,1.281Zm0,-0.581c-0.364,0 -0.602,-0.273 -0.602,-0.672l0,-2.506c0,-0.399 0.238,-0.672 0.602,-0.672c0.372,0 0.617,0.273 0.617,0.672l0,2.506c0,0.399 -0.245,0.672 -0.617,0.672Z" style="fill:rgb(199,206,201);fill-rule:nonzero;"/>
                <path d="M43.192,362.45l0.497,0c0.042,0 0.063,-0.014 0.07,-0.063l0.503,-3.311c0,-0.021 0.021,-0.021 0.028,0l0.532,3.311c0.007,0.042 0.028,0.063 0.07,0.063l0.497,0c0.042,0 0.07,-0.021 0.077,-0.063l0.882,-4.76c0.007,-0.042 -0.014,-0.077 -0.063,-0.077l-0.546,0c-0.042,0 -0.063,0.021 -0.07,0.063l-0.518,3.283c-0.007,0.021 -0.021,0.021 -0.028,0l-0.539,-3.283c-0.007,-0.042 -0.028,-0.063 -0.07,-0.063l-0.468,0c-0.042,0 -0.063,0.014 -0.07,0.063l-0.504,3.283c-0.007,0.021 -0.021,0.021 -0.028,0l-0.567,-3.283c-0.007,-0.042 -0.035,-0.063 -0.077,-0.063l-0.553,0c-0.049,0 -0.07,0.035 -0.063,0.077l0.931,4.76c0.007,0.042 0.035,0.063 0.077,0.063Z" style="fill:rgb(199,206,201);fill-rule:nonzero;"/>
                <path d="M48.343,362.506c0.729,0 1.246,-0.504 1.246,-1.295c0,-0.672 -0.37,-0.966 -1.084,-1.498c-0.54,-0.399 -0.743,-0.588 -0.743,-0.987c0,-0.42 0.231,-0.651 0.546,-0.651c0.344,0 0.582,0.28 0.582,0.7l0,0.189c0,0.042 0.028,0.07 0.07,0.07l0.517,0c0.042,0 0.07,-0.028 0.07,-0.07l0,-0.175c0,-0.777 -0.489,-1.295 -1.239,-1.295c-0.707,0 -1.21,0.469 -1.21,1.232c0,0.763 0.503,1.134 1.042,1.533c0.505,0.371 0.785,0.567 0.785,0.994c0,0.406 -0.252,0.672 -0.582,0.672c-0.336,0 -0.574,-0.273 -0.574,-0.707l0,-0.154c0,-0.042 -0.028,-0.07 -0.07,-0.07l-0.517,0c-0.042,0 -0.07,0.028 -0.07,0.07l0,0.189c0,0.749 0.496,1.253 1.231,1.253Z" style="fill:rgb(199,206,201);fill-rule:nonzero;"/>
                <path d="M22.437,35.318l0.45,0c0.045,0 0.09,-0.036 0.099,-0.09l0.566,-4.617c0,-0.036 0.036,-0.036 0.045,-0.009l0.649,2.097c0.008,0.054 0.044,0.072 0.08,0.072c0.027,0 0.063,-0.018 0.081,-0.072l1.152,-2.088c0.009,-0.027 0.045,-0.027 0.036,0.009l-0.558,4.608c-0.009,0.054 0.018,0.09 0.072,0.09l0.441,0c0.054,0 0.099,-0.036 0.099,-0.09l0.756,-6.12c0.009,-0.054 -0.027,-0.09 -0.081,-0.09l-0.45,0c-0.045,0 -0.081,0.018 -0.108,0.072l-1.287,2.439c-0.009,0.027 -0.045,0.027 -0.045,0l-0.684,-2.439c-0.009,-0.054 -0.045,-0.072 -0.081,-0.072l-0.458,0c-0.054,0 -0.09,0.036 -0.099,0.09l-0.747,6.12c-0.009,0.054 0.018,0.09 0.072,0.09Z" style="fill:rgb(199,206,201);fill-rule:nonzero;"/>
                <path d="M28.052,35.39c0.847,0 1.449,-0.548 1.548,-1.376l0.243,-1.945c0.099,-0.81 -0.369,-1.376 -1.205,-1.376c-0.847,0 -1.45,0.566 -1.549,1.376l-0.233,1.945c-0.099,0.828 0.359,1.376 1.196,1.376Zm0.072,-0.557c-0.441,0 -0.711,-0.351 -0.648,-0.855l0.234,-1.864c0.063,-0.513 0.405,-0.864 0.855,-0.864c0.442,0 0.712,0.351 0.649,0.864l-0.225,1.864c-0.063,0.504 -0.424,0.855 -0.865,0.855Z" style="fill:rgb(199,206,201);fill-rule:nonzero;"/>
                <path d="M32.544,30.702c-0.351,0 -0.702,0.135 -0.954,0.458c-0.027,0.027 -0.054,0.018 -0.054,-0.009l0.045,-0.296c0,-0.054 -0.027,-0.09 -0.081,-0.09l-0.441,0c-0.054,0 -0.099,0.036 -0.099,0.09l-0.54,4.373c-0.009,0.054 0.027,0.09 0.072,0.09l0.45,0c0.054,0 0.09,-0.036 0.099,-0.09l0.369,-2.997c0.072,-0.603 0.405,-0.972 0.864,-0.972c0.45,0 0.657,0.342 0.585,0.927l-0.369,3.042c-0.009,0.054 0.027,0.09 0.072,0.09l0.449,0c0.054,0 0.09,-0.036 0.099,-0.09l0.376,-3.096c0.108,-0.9 -0.224,-1.43 -0.942,-1.43Z" style="fill:rgb(199,206,201);fill-rule:nonzero;"/>
                <path d="M35.369,35.39c0.847,0 1.449,-0.548 1.548,-1.376l0.243,-1.945c0.099,-0.81 -0.369,-1.376 -1.205,-1.376c-0.847,0 -1.45,0.566 -1.549,1.376l-0.233,1.945c-0.099,0.828 0.359,1.376 1.196,1.376Zm0.072,-0.557c-0.441,0 -0.711,-0.351 -0.648,-0.855l0.234,-1.864c0.063,-0.513 0.405,-0.864 0.855,-0.864c0.442,0 0.712,0.351 0.649,0.864l-0.225,1.864c-0.063,0.504 -0.424,0.855 -0.865,0.855Z" style="fill:rgb(199,206,201);fill-rule:nonzero;"/>
                <path d="M9.463,25c1.368,0 2.279,-0.887 2.279,-2.255l0,-0.144c0,-0.084 -0.06,-0.144 -0.144,-0.144l-1.115,-0.048c-0.084,0 -0.144,0.06 -0.144,0.144l0,0.3c0,0.564 -0.348,0.949 -0.876,0.949c-0.517,0 -0.865,-0.385 -0.865,-0.949l0,-4.297c0,-0.564 0.348,-0.948 0.865,-0.948c0.528,0 0.876,0.384 0.876,0.948l0,0.3c0,0.096 0.06,0.144 0.144,0.144l1.115,-0.048c0.084,0 0.144,-0.072 0.144,-0.156l0,-0.144c0,-1.38 -0.911,-2.242 -2.279,-2.242c-1.357,0 -2.256,0.862 -2.256,2.242l0,4.093c0,1.368 0.899,2.255 2.256,2.255Z" style="fill:white;fill-rule:nonzero;"/>
                <path d="M16.31,24.904l1.116,0c0.096,0 0.156,-0.048 0.132,-0.156l-1.776,-8.11c-0.012,-0.084 -0.072,-0.133 -0.156,-0.133l-1.284,0c-0.084,0 -0.144,0.049 -0.156,0.133l-1.764,8.11c-0.024,0.108 0.024,0.156 0.12,0.156l1.104,0c0.084,0 0.144,-0.036 0.156,-0.132l0.24,-1.272c0,-0.036 0.036,-0.048 0.072,-0.048l1.74,0c0.036,0 0.072,0.024 0.072,0.06l0.228,1.26c0.012,0.096 0.072,0.132 0.156,0.132Zm-2.028,-2.602l0.696,-3.626c0.012,-0.048 0.06,-0.048 0.072,0l0.66,3.625c0.012,0.048 -0.024,0.061 -0.06,0.061l-1.308,0c-0.036,0 -0.072,-0.012 -0.06,-0.06Z" style="fill:white;fill-rule:nonzero;"/>
                <path d="M20.935,16.494l-2.256,0c-0.084,0 -0.144,0.059 -0.144,0.143l0,8.123c0,0.084 0.06,0.144 0.144,0.144l1.103,0c0.084,0 0.144,-0.06 0.144,-0.144l0,-3.336c0,-0.036 0.024,-0.06 0.06,-0.06l1.021,0c1.236,0 2.075,-0.947 2.075,-2.399c0,-1.465 -0.863,-2.471 -2.147,-2.471Zm-0.228,3.78l-0.721,0c-0.036,0 -0.06,-0.025 -0.06,-0.061l0,-2.461c0,-0.036 0.024,-0.06 0.06,-0.06l0.721,0c0.588,0 0.984,0.492 0.984,1.309c0,0.792 -0.396,1.273 -0.984,1.273Z" style="fill:white;fill-rule:nonzero;"/>
                <path d="M27.23,24.904l1.116,0c0.096,0 0.156,-0.048 0.132,-0.156l-1.776,-8.11c-0.012,-0.084 -0.072,-0.133 -0.156,-0.133l-1.284,0c-0.084,0 -0.144,0.049 -0.156,0.133l-1.764,8.11c-0.024,0.108 0.024,0.156 0.12,0.156l1.104,0c0.084,0 0.144,-0.036 0.156,-0.132l0.24,-1.272c0,-0.036 0.036,-0.048 0.072,-0.048l1.74,0c0.036,0 0.072,0.024 0.072,0.06l0.228,1.26c0.012,0.096 0.072,0.132 0.156,0.132Zm-2.028,-2.602l0.696,-3.626c0.012,-0.048 0.06,-0.048 0.072,0l0.66,3.625c0.012,0.048 -0.024,0.061 -0.06,0.061l-1.308,0c-0.036,0 -0.072,-0.012 -0.06,-0.06Z" style="fill:white;fill-rule:nonzero;"/>
                <path d="M31.387,25c1.368,0 2.279,-0.887 2.279,-2.255l0,-0.144c0,-0.084 -0.06,-0.144 -0.144,-0.144l-1.115,-0.048c-0.084,0 -0.144,0.06 -0.144,0.144l0,0.3c0,0.564 -0.348,0.949 -0.876,0.949c-0.517,0 -0.865,-0.385 -0.865,-0.949l0,-4.297c0,-0.564 0.348,-0.948 0.865,-0.948c0.528,0 0.876,0.384 0.876,0.948l0,0.3c0,0.096 0.06,0.144 0.144,0.144l1.115,-0.048c0.084,0 0.144,-0.072 0.144,-0.156l0,-0.144c0,-1.38 -0.911,-2.242 -2.279,-2.242c-1.357,0 -2.256,0.862 -2.256,2.242l0,4.093c0,1.368 0.899,2.255 2.256,2.255Z" style="fill:white;fill-rule:nonzero;"/>
                <path d="M34.903,24.904l1.103,0c0.084,0 0.144,-0.06 0.144,-0.144l0,-8.11c0,-0.084 -0.06,-0.145 -0.144,-0.145l-1.103,0c-0.084,0 -0.144,0.061 -0.144,0.145l0,8.11c0,0.084 0.06,0.144 0.144,0.144Z" style="fill:white;fill-rule:nonzero;"/>
                <path d="M41.754,16.506l-4.475,0c-0.084,0 -0.144,0.059 -0.144,0.143l0,0.911c0,0.084 0.06,0.144 0.144,0.144l1.44,0c0.036,0 0.06,0.024 0.06,0.06l0,6.996c0,0.084 0.06,0.144 0.144,0.144l1.103,0c0.084,0 0.144,-0.06 0.144,-0.144l0,-6.996c0,-0.036 0.024,-0.06 0.06,-0.06l1.524,0c0.084,0 0.144,-0.06 0.144,-0.144l0,-0.911c0,-0.084 -0.06,-0.143 -0.144,-0.143Z" style="fill:white;fill-rule:nonzero;"/>
                <path d="M44.731,25c1.38,0 2.303,-0.899 2.303,-2.279l0,-4.033c0,-1.38 -0.923,-2.278 -2.303,-2.278c-1.381,0 -2.292,0.898 -2.292,2.278l0,4.033c0,1.38 0.911,2.279 2.292,2.279Zm0,-1.198c-0.553,0 -0.901,-0.421 -0.901,-1.021l0,-4.153c0,-0.6 0.348,-1.02 0.901,-1.02c0.552,0 0.912,0.42 0.912,1.02l0,4.153c0,0.6 -0.36,1.021 -0.912,1.021Z" style="fill:white;fill-rule:nonzero;"/>
                <path d="M51.511,24.904l1.151,0c0.096,0 0.156,-0.06 0.12,-0.168l-1.175,-3.612c-0.012,-0.036 0,-0.06 0.036,-0.072c0.683,-0.359 1.091,-1.115 1.091,-2.111c0,-1.453 -0.863,-2.447 -2.147,-2.447l-2.256,0c-0.084,0 -0.144,0.059 -0.144,0.143l0,8.123c0,0.084 0.06,0.144 0.144,0.144l1.103,0c0.084,0 0.144,-0.06 0.144,-0.144l0,-3.42c0,-0.036 0.024,-0.06 0.06,-0.06l0.625,0c0.036,0 0.048,0.024 0.06,0.048l1.032,3.456c0.024,0.072 0.072,0.12 0.156,0.12Zm-1.873,-7.212l0.733,0c0.576,0 0.972,0.48 0.972,1.273c0,0.768 -0.396,1.237 -0.972,1.237l-0.733,0c-0.036,0 -0.06,-0.025 -0.06,-0.061l0,-2.389c0,-0.036 0.024,-0.06 0.06,-0.06Z" style="fill:white;fill-rule:nonzero;"/>
            </g>
            <path d="M13.255,94.999l3.526,0c0.072,0 0.12,-0.048 0.12,-0.12l0,-0.502c0,-0.072 -0.048,-0.12 -0.12,-0.12l-2.748,0c-0.024,0 -0.048,-0.024 -0.048,-0.048l0,-7.488c0,-0.072 -0.048,-0.12 -0.12,-0.12l-0.61,0c-0.072,0 -0.12,0.048 -0.12,0.12l0,8.158c0,0.072 0.048,0.12 0.12,0.12Z" style="fill:white;fill-rule:nonzero;"/>
            <path d="M19.506,95.095c1.153,0 1.895,-0.73 1.895,-1.835l0,-2.592c0,-1.081 -0.742,-1.835 -1.895,-1.835c-1.153,0 -1.883,0.754 -1.883,1.835l0,2.592c0,1.105 0.73,1.835 1.883,1.835Zm0,-0.742c-0.612,0 -1.033,-0.468 -1.033,-1.141l0,-2.484c0,-0.685 0.421,-1.153 1.033,-1.153c0.612,0 1.045,0.468 1.045,1.153l0,2.484c0,0.673 -0.433,1.141 -1.045,1.141Z" style="fill:white;fill-rule:nonzero;"/>
            <path d="M23.514,94.999l0.588,0c0.072,0 0.12,-0.036 0.132,-0.108l0.864,-4.392c0.012,-0.048 0.036,-0.048 0.048,0l0.888,4.392c0.012,0.072 0.06,0.108 0.132,0.108l0.612,0c0.072,0 0.12,-0.036 0.132,-0.108l1.271,-5.818c0.012,-0.084 -0.024,-0.132 -0.108,-0.132l-0.576,-0.012c-0.072,0 -0.12,0.036 -0.132,0.108l-0.887,4.678c-0.012,0.036 -0.036,0.036 -0.048,0l-0.888,-4.678c-0.012,-0.072 -0.06,-0.108 -0.132,-0.108l-0.54,0c-0.072,0 -0.12,0.036 -0.132,0.108l-0.876,4.666c-0.012,0.036 -0.036,0.036 -0.048,0l-0.875,-4.666c-0.012,-0.072 -0.06,-0.108 -0.132,-0.108l-0.588,0c-0.084,0 -0.12,0.048 -0.108,0.132l1.271,5.83c0.012,0.072 0.06,0.108 0.132,0.108Z" style="fill:white;fill-rule:nonzero;"/>
            <path d="M32.993,90.667c-0.048,-1.068 -0.659,-1.834 -1.619,-1.834c-0.492,0 -0.913,0.203 -1.189,0.587c-0.036,0.035 -0.06,0.012 -0.06,-0.024l0,-0.348c0,-0.071 -0.048,-0.119 -0.119,-0.119l-0.611,0c-0.072,0 -0.12,0.048 -0.12,0.12l0,8.158c0,0.072 0.048,0.12 0.12,0.12l0.611,0c0.071,0 0.119,-0.048 0.119,-0.12l0,-2.664c0,-0.036 0.024,-0.06 0.06,-0.024c0.276,0.384 0.697,0.576 1.189,0.576c0.972,0 1.583,-0.744 1.619,-1.799c0.012,-0.444 0.012,-0.852 0.012,-1.296c0,-0.444 0,-0.888 -0.012,-1.332l0,-0.001Zm-1.871,3.684c-0.576,0 -0.997,-0.48 -0.997,-1.199l0,-2.376c0,-0.721 0.421,-1.201 0.997,-1.201c0.624,0 1.045,0.492 1.033,1.2l0,1.188c0,0.312 0.012,0.768 0,1.188c0.012,0.72 -0.421,1.2 -1.033,1.2Z" style="fill:white;fill-rule:nonzero;"/>
            <path d="M36.102,88.833c-0.997,0 -1.764,0.622 -1.848,1.583c-0.012,0.072 0.036,0.12 0.108,0.12l0.659,0.012c0.072,0 0.12,-0.036 0.132,-0.12c0.048,-0.504 0.445,-0.853 0.925,-0.853c0.624,0 1.009,0.529 1.009,1.321l0,0.469c0,0.024 -0.024,0.048 -0.048,0.048l-0.829,0c-1.189,0 -2.135,0.527 -2.135,1.967c0,1.428 0.946,1.715 1.631,1.715c0.54,0 1.008,-0.167 1.321,-0.575c0.036,-0.036 0.06,-0.024 0.06,0.012l0,0.347c0,0.072 0.048,0.12 0.12,0.12l0.61,0c0.072,0 0.12,-0.048 0.12,-0.12l0,-4.043c0,-1.213 -0.718,-2.003 -1.835,-2.003Zm-0.216,5.52c-0.528,0 -0.937,-0.312 -0.937,-1.045c0,-0.829 0.517,-1.213 1.249,-1.213l0.841,0c0.024,0 0.048,0.024 0.048,0.048l0,1.009c0,0.804 -0.601,1.201 -1.201,1.201Z" style="fill:white;fill-rule:nonzero;"/>
            <path d="M40.854,95.059c1.116,0 1.823,-0.634 1.823,-1.631c0,-1.128 -0.91,-1.512 -1.607,-1.812c-0.624,-0.264 -1.177,-0.492 -1.177,-1.116c0,-0.517 0.361,-0.937 0.949,-0.937c0.588,0 0.973,0.408 0.973,0.937l0,0.096c0,0.06 0.048,0.096 0.12,0.096l0.55,0c0.072,0 0.12,-0.048 0.12,-0.12l0,-0.036c0,-0.997 -0.67,-1.667 -1.775,-1.667c-1.057,0 -1.751,0.622 -1.751,1.655c0,1.14 0.85,1.5 1.523,1.776c0.612,0.264 1.225,0.492 1.225,1.164c0,0.541 -0.373,0.937 -0.961,0.937c-0.612,0 -1.021,-0.408 -1.021,-0.913l0,-0.096c0,-0.06 -0.048,-0.096 -0.12,-0.096l-0.574,0c-0.072,0 -0.12,0.048 -0.12,0.12l0,0.084c0,0.937 0.706,1.559 1.823,1.559Z" style="fill:white;fill-rule:nonzero;"/>
            <path d="M45.042,95.059c1.116,0 1.823,-0.634 1.823,-1.631c0,-1.128 -0.91,-1.512 -1.607,-1.812c-0.624,-0.264 -1.177,-0.492 -1.177,-1.116c0,-0.517 0.361,-0.937 0.949,-0.937c0.588,0 0.973,0.408 0.973,0.937l0,0.096c0,0.06 0.048,0.096 0.12,0.096l0.55,0c0.072,0 0.12,-0.048 0.12,-0.12l0,-0.036c0,-0.997 -0.67,-1.667 -1.775,-1.667c-1.057,0 -1.751,0.622 -1.751,1.655c0,1.14 0.85,1.5 1.523,1.776c0.612,0.264 1.225,0.492 1.225,1.164c0,0.541 -0.373,0.937 -0.961,0.937c-0.612,0 -1.021,-0.408 -1.021,-0.913l0,-0.096c0,-0.06 -0.048,-0.096 -0.12,-0.096l-0.574,0c-0.072,0 -0.12,0.048 -0.12,0.12l0,0.084c0,0.937 0.706,1.559 1.823,1.559Z" style="fill:white;fill-rule:nonzero;"/>
            <path d="M15.253,146.721l0,3.648c0,0.024 -0.024,0.048 -0.048,0.048l-2.138,0c-0.024,0 -0.048,-0.024 -0.048,-0.048l0,-3.648c0,-0.072 -0.048,-0.12 -0.12,-0.12l-0.61,0c-0.072,0 -0.12,0.048 -0.12,0.12l0,8.158c0,0.072 0.048,0.12 0.12,0.12l0.61,0c0.072,0 0.12,-0.048 0.12,-0.12l0,-3.66c0,-0.024 0.024,-0.048 0.048,-0.048l2.138,0c0.024,0 0.048,0.024 0.048,0.048l0,3.66c0,0.072 0.048,0.12 0.12,0.12l0.61,0c0.072,0 0.12,-0.048 0.12,-0.12l0,-8.158c0,-0.072 -0.048,-0.12 -0.12,-0.12l-0.61,0c-0.072,0 -0.12,0.048 -0.12,0.12Z" style="fill:white;fill-rule:nonzero;"/>
            <path d="M18.192,147.847c0.336,0 0.575,-0.263 0.575,-0.635c0,-0.348 -0.239,-0.611 -0.575,-0.611c-0.348,0 -0.599,0.263 -0.599,0.611c0,0.372 0.251,0.635 0.599,0.635Zm-0.311,7.152l0.61,0c0.072,0 0.12,-0.048 0.12,-0.12l0,-5.83c0,-0.072 -0.048,-0.12 -0.12,-0.12l-0.61,0c-0.072,0 -0.12,0.048 -0.12,0.12l0,5.83c0,0.072 0.048,0.12 0.12,0.12Z" style="fill:white;fill-rule:nonzero;"/>
            <path d="M22.885,149.048l0,0.372c0,0.047 -0.024,0.059 -0.06,0.012c-0.277,-0.408 -0.733,-0.599 -1.201,-0.599c-1.02,0 -1.631,0.73 -1.631,1.835l0,2.532c0,1.081 0.599,1.835 1.631,1.835c0.456,0 0.912,-0.191 1.201,-0.611c0.036,-0.035 0.06,-0.011 0.06,0.024l0,0.36c0,1.2 -0.397,1.897 -1.73,1.861c-0.072,0 -0.12,0.048 -0.12,0.12l0,0.515c0,0.071 0.036,0.119 0.12,0.131c1.957,0.084 2.58,-0.958 2.58,-2.555l0,-5.832c0,-0.071 -0.048,-0.119 -0.12,-0.119l-0.61,0c-0.072,0 -0.12,0.047 -0.12,0.119Zm-1.009,5.245c-0.6,0 -1.033,-0.468 -1.033,-1.141l0,-2.424c0,-0.685 0.433,-1.153 1.033,-1.153c0.6,0 1.009,0.468 1.009,1.153l0,2.424c0,0.673 -0.409,1.141 -1.009,1.141Z" style="fill:white;fill-rule:nonzero;"/>
            <path d="M27.24,148.845c-0.48,0 -0.936,0.179 -1.249,0.611c-0.024,0.035 -0.06,0.023 -0.06,-0.012l0,-2.723c0,-0.072 -0.048,-0.12 -0.12,-0.12l-0.61,0c-0.072,0 -0.12,0.048 -0.12,0.12l0,8.158c0,0.072 0.048,0.12 0.12,0.12l0.61,0c0.072,0 0.12,-0.048 0.12,-0.12l0,-3.996c0,-0.804 0.397,-1.296 1.033,-1.296c0.612,0 0.961,0.456 0.961,1.236l0,4.056c0,0.072 0.048,0.12 0.12,0.12l0.61,0c0.072,0 0.12,-0.048 0.12,-0.12l0,-4.128c0,-1.2 -0.551,-1.906 -1.535,-1.906Z" style="fill:white;fill-rule:nonzero;"/>
            <path d="M33.959,150.667c-0.048,-1.068 -0.659,-1.834 -1.619,-1.834c-0.492,0 -0.913,0.203 -1.189,0.587c-0.036,0.035 -0.06,0.012 -0.06,-0.024l0,-0.348c0,-0.071 -0.048,-0.119 -0.119,-0.119l-0.611,0c-0.072,0 -0.12,0.048 -0.12,0.12l0,8.158c0,0.072 0.048,0.12 0.12,0.12l0.611,0c0.071,0 0.119,-0.048 0.119,-0.12l0,-2.664c0,-0.036 0.024,-0.06 0.06,-0.024c0.276,0.384 0.697,0.576 1.189,0.576c0.972,0 1.583,-0.744 1.619,-1.799c0.012,-0.444 0.012,-0.852 0.012,-1.296c0,-0.444 0,-0.888 -0.012,-1.332l0,-0.001Zm-1.871,3.684c-0.576,0 -0.997,-0.48 -0.997,-1.199l0,-2.376c0,-0.721 0.421,-1.201 0.997,-1.201c0.624,0 1.045,0.492 1.033,1.2l0,1.188c0,0.312 0.012,0.768 0,1.188c0.012,0.72 -0.421,1.2 -1.033,1.2Z" style="fill:white;fill-rule:nonzero;"/>
            <path d="M37.068,148.833c-0.997,0 -1.764,0.622 -1.848,1.583c-0.012,0.072 0.036,0.12 0.108,0.12l0.659,0.012c0.072,0 0.12,-0.036 0.132,-0.12c0.048,-0.504 0.445,-0.853 0.925,-0.853c0.624,0 1.009,0.529 1.009,1.321l0,0.469c0,0.024 -0.024,0.048 -0.048,0.048l-0.829,0c-1.189,0 -2.135,0.527 -2.135,1.967c0,1.428 0.946,1.715 1.631,1.715c0.54,0 1.008,-0.167 1.321,-0.575c0.036,-0.036 0.06,-0.024 0.06,0.012l0,0.347c0,0.072 0.048,0.12 0.12,0.12l0.61,0c0.072,0 0.12,-0.048 0.12,-0.12l0,-4.043c0,-1.213 -0.718,-2.003 -1.835,-2.003Zm-0.216,5.52c-0.528,0 -0.937,-0.312 -0.937,-1.045c0,-0.829 0.517,-1.213 1.249,-1.213l0.841,0c0.024,0 0.048,0.024 0.048,0.048l0,1.009c0,0.804 -0.601,1.201 -1.201,1.201Z" style="fill:white;fill-rule:nonzero;"/>
            <path d="M41.82,155.059c1.116,0 1.823,-0.634 1.823,-1.631c0,-1.128 -0.91,-1.512 -1.607,-1.812c-0.624,-0.264 -1.177,-0.492 -1.177,-1.116c0,-0.517 0.361,-0.937 0.949,-0.937c0.588,0 0.973,0.408 0.973,0.937l0,0.096c0,0.06 0.048,0.096 0.12,0.096l0.55,0c0.072,0 0.12,-0.048 0.12,-0.12l0,-0.036c0,-0.997 -0.67,-1.667 -1.775,-1.667c-1.057,0 -1.751,0.622 -1.751,1.655c0,1.14 0.85,1.5 1.523,1.776c0.612,0.264 1.225,0.492 1.225,1.164c0,0.541 -0.373,0.937 -0.961,0.937c-0.612,0 -1.021,-0.408 -1.021,-0.913l0,-0.096c0,-0.06 -0.048,-0.096 -0.12,-0.096l-0.574,0c-0.072,0 -0.12,0.048 -0.12,0.12l0,0.084c0,0.937 0.706,1.559 1.823,1.559Z" style="fill:white;fill-rule:nonzero;"/>
            <path d="M46.008,155.059c1.116,0 1.823,-0.634 1.823,-1.631c0,-1.128 -0.91,-1.512 -1.607,-1.812c-0.624,-0.264 -1.177,-0.492 -1.177,-1.116c0,-0.517 0.361,-0.937 0.949,-0.937c0.588,0 0.973,0.408 0.973,0.937l0,0.096c0,0.06 0.048,0.096 0.12,0.096l0.55,0c0.072,0 0.12,-0.048 0.12,-0.12l0,-0.036c0,-0.997 -0.67,-1.667 -1.775,-1.667c-1.057,0 -1.751,0.622 -1.751,1.655c0,1.14 0.85,1.5 1.523,1.776c0.612,0.264 1.225,0.492 1.225,1.164c0,0.541 -0.373,0.937 -0.961,0.937c-0.612,0 -1.021,-0.408 -1.021,-0.913l0,-0.096c0,-0.06 -0.048,-0.096 -0.12,-0.096l-0.574,0c-0.072,0 -0.12,0.048 -0.12,0.12l0,0.084c0,0.937 0.706,1.559 1.823,1.559Z" style="fill:white;fill-rule:nonzero;"/>
            <path d="M27.71,307.592l0.458,0c0.054,0 0.09,-0.036 0.09,-0.09l0,-5.004c0,-0.054 -0.036,-0.09 -0.09,-0.09l-0.458,0c-0.054,0 -0.09,0.036 -0.09,0.09l0,5.004c0,0.054 0.036,0.09 0.09,0.09Z" style="fill:white;fill-rule:nonzero;"/>
            <path d="M29.609,307.592l0.449,0c0.054,0 0.09,-0.036 0.09,-0.09l0,-3.753c0,-0.036 0.036,-0.045 0.045,-0.009l1.522,3.78c0.018,0.054 0.054,0.072 0.099,0.072l0.476,0c0.054,0 0.09,-0.036 0.09,-0.09l0,-5.004c0,-0.054 -0.036,-0.09 -0.09,-0.09l-0.449,0c-0.054,0 -0.09,0.036 -0.09,0.09l0,3.744c0,0.036 -0.036,0.045 -0.045,0.009l-1.531,-3.771c-0.018,-0.054 -0.054,-0.072 -0.099,-0.072l-0.467,0c-0.054,0 -0.09,0.036 -0.09,0.09l0,5.004c0,0.054 0.036,0.09 0.09,0.09Z" style="fill:white;fill-rule:nonzero;"/>
            <path d="M26.207,347.659c0.838,0 1.404,-0.539 1.404,-1.43l0,-2.449c0,-0.9 -0.566,-1.439 -1.404,-1.439c-0.846,0 -1.403,0.539 -1.403,1.439l0,2.449c0,0.891 0.557,1.43 1.403,1.43Zm0,-0.557c-0.45,0 -0.765,-0.306 -0.765,-0.837l0,-2.512c0,-0.54 0.315,-0.846 0.765,-0.846c0.46,0 0.766,0.306 0.766,0.846l0,2.512c0,0.531 -0.306,0.837 -0.766,0.837Z" style="fill:white;fill-rule:nonzero;"/>
            <path d="M30.095,347.659c0.847,0 1.395,-0.584 1.395,-1.538l0,-3.618c0,-0.054 -0.036,-0.09 -0.09,-0.09l-0.458,0c-0.054,0 -0.09,0.036 -0.09,0.09l0,3.672c0,0.576 -0.297,0.927 -0.757,0.927c-0.45,0 -0.747,-0.351 -0.747,-0.927l0,-3.672c0,-0.054 -0.036,-0.09 -0.09,-0.09l-0.458,0c-0.054,0 -0.09,0.036 -0.09,0.09l0,3.618c0,0.954 0.557,1.538 1.385,1.538Z" style="fill:white;fill-rule:nonzero;"/>
            <path d="M35.18,342.404l-2.717,0c-0.054,0 -0.09,0.036 -0.09,0.09l0,0.386c0,0.054 0.036,0.09 0.09,0.09l0.972,0c0.018,0 0.036,0.018 0.036,0.036l0,4.5c0,0.054 0.036,0.09 0.09,0.09l0.458,0c0.054,0 0.09,-0.036 0.09,-0.09l0,-4.5c0,-0.018 0.018,-0.036 0.036,-0.036l1.035,0c0.054,0 0.09,-0.036 0.09,-0.09l0,-0.386c0,-0.054 -0.036,-0.09 -0.09,-0.09Z" style="fill:white;fill-rule:nonzero;"/>
            <path d="M18.512,262.494l0,2.187c0,0.018 -0.018,0.036 -0.036,0.036l-1.324,0c-0.018,0 -0.036,-0.018 -0.036,-0.036l0,-2.187c0,-0.054 -0.036,-0.09 -0.09,-0.09l-0.458,0c-0.054,0 -0.09,0.036 -0.09,0.09l0,5.012c0,0.054 0.036,0.09 0.09,0.09l0.458,0c0.054,0 0.09,-0.036 0.09,-0.09l0,-2.196c0,-0.018 0.018,-0.036 0.036,-0.036l1.324,0c0.018,0 0.036,0.018 0.036,0.036l0,2.196c0,0.054 0.036,0.09 0.09,0.09l0.458,0c0.054,0 0.09,-0.036 0.09,-0.09l0,-5.012c0,-0.054 -0.036,-0.09 -0.09,-0.09l-0.458,0c-0.054,0 -0.09,0.036 -0.09,0.09Z" style="fill:white;fill-rule:nonzero;"/>
            <path d="M20.501,267.596l0.458,0c0.054,0 0.09,-0.036 0.09,-0.09l0,-5.004c0,-0.054 -0.036,-0.09 -0.09,-0.09l-0.458,0c-0.054,0 -0.09,0.036 -0.09,0.09l0,5.004c0,0.054 0.036,0.09 0.09,0.09Z" style="fill:white;fill-rule:nonzero;"/>
            <path d="M23.578,267.659c0.829,0 1.386,-0.503 1.386,-1.358l0,-1.233c0,-0.054 -0.036,-0.09 -0.09,-0.09l-1.16,0c-0.054,0 -0.09,0.036 -0.09,0.09l0,0.287c0,0.054 0.036,0.09 0.09,0.09l0.576,0c0.018,0 0.036,0.018 0.036,0.036l0,0.829c0,0.504 -0.297,0.792 -0.748,0.792c-0.45,0 -0.747,-0.288 -0.747,-0.792l0,-2.62c0,-0.504 0.297,-0.783 0.747,-0.783c0.451,0 0.748,0.279 0.748,0.783l0,0.234c0,0.055 0.036,0.091 0.09,0.091l0.458,0c0.054,0 0.09,-0.036 0.09,-0.091l0,-0.216c0,-0.855 -0.557,-1.367 -1.386,-1.367c-0.828,0 -1.385,0.503 -1.385,1.358l0,2.602c0,0.855 0.557,1.358 1.385,1.358Z" style="fill:white;fill-rule:nonzero;"/>
            <path d="M28.097,262.494l0,2.187c0,0.018 -0.018,0.036 -0.036,0.036l-1.324,0c-0.018,0 -0.036,-0.018 -0.036,-0.036l0,-2.187c0,-0.054 -0.036,-0.09 -0.09,-0.09l-0.458,0c-0.054,0 -0.09,0.036 -0.09,0.09l0,5.012c0,0.054 0.036,0.09 0.09,0.09l0.458,0c0.054,0 0.09,-0.036 0.09,-0.09l0,-2.196c0,-0.018 0.018,-0.036 0.036,-0.036l1.324,0c0.018,0 0.036,0.018 0.036,0.036l0,2.196c0,0.054 0.036,0.09 0.09,0.09l0.458,0c0.054,0 0.09,-0.036 0.09,-0.09l0,-5.012c0,-0.054 -0.036,-0.09 -0.09,-0.09l-0.458,0c-0.054,0 -0.09,0.036 -0.09,0.09Z" style="fill:white;fill-rule:nonzero;"/>
            <path d="M31.319,262.395l-1.341,0c-0.054,0 -0.09,0.036 -0.09,0.09l0,5.021c0,0.054 0.036,0.09 0.09,0.09l0.458,0c0.054,0 0.09,-0.036 0.09,-0.09l0,-2.169c0,-0.018 0.018,-0.036 0.036,-0.036l0.784,0c0.774,0 1.295,-0.575 1.295,-1.431c0,-0.873 -0.53,-1.475 -1.322,-1.475Zm-0.091,2.403l-0.666,0c-0.018,0 -0.036,-0.018 -0.036,-0.036l0,-1.774c0,-0.018 0.018,-0.036 0.036,-0.036l0.666,0c0.46,0 0.775,0.36 0.775,0.928c0,0.558 -0.315,0.918 -0.775,0.918Z" style="fill:white;fill-rule:nonzero;"/>
            <path d="M35.723,267.596l0.477,0c0.063,0 0.09,-0.036 0.072,-0.099l-1.196,-5.012c-0.009,-0.045 -0.045,-0.081 -0.099,-0.081l-0.549,0c-0.054,0 -0.09,0.036 -0.099,0.081l-1.178,5.012c-0.018,0.054 0.009,0.099 0.072,0.099l0.459,0c0.054,0 0.09,-0.027 0.099,-0.081l0.189,-0.855c0,-0.018 0.027,-0.036 0.045,-0.036l1.385,0c0.017,0 0.044,0.018 0.044,0.036l0.18,0.855c0.009,0.054 0.045,0.081 0.099,0.081Zm-1.618,-1.529l0.593,-2.71c0.009,-0.036 0.027,-0.036 0.036,0l0.585,2.71c0.009,0.018 -0.009,0.036 -0.027,0.036l-1.16,0c-0.018,0 -0.036,-0.018 -0.027,-0.036Z" style="fill:white;fill-rule:nonzero;"/>
            <path d="M38.527,267.659c0.802,0 1.377,-0.53 1.377,-1.367c0,-0.711 -0.413,-1.026 -1.223,-1.585c-0.631,-0.441 -0.883,-0.639 -0.883,-1.062c0,-0.486 0.297,-0.747 0.693,-0.747c0.442,0 0.73,0.324 0.73,0.819l0,0.126c0,0.054 0.036,0.09 0.09,0.09l0.449,0c0.054,0 0.09,-0.036 0.09,-0.09l0,-0.144c0,-0.801 -0.539,-1.358 -1.359,-1.358c-0.774,0 -1.322,0.485 -1.322,1.295c0,0.792 0.539,1.17 1.169,1.594c0.568,0.378 0.928,0.612 0.928,1.098c0,0.468 -0.315,0.783 -0.739,0.783c-0.423,0 -0.72,-0.324 -0.72,-0.837l0,-0.09c0,-0.054 -0.036,-0.09 -0.09,-0.09l-0.449,0c-0.054,0 -0.09,0.036 -0.09,0.09l0,0.153c0,0.783 0.548,1.322 1.349,1.322Z" style="fill:white;fill-rule:nonzero;"/>
            <path d="M42.145,267.659c0.802,0 1.377,-0.53 1.377,-1.367c0,-0.711 -0.413,-1.026 -1.223,-1.585c-0.631,-0.441 -0.883,-0.639 -0.883,-1.062c0,-0.486 0.297,-0.747 0.693,-0.747c0.442,0 0.73,0.324 0.73,0.819l0,0.126c0,0.054 0.036,0.09 0.09,0.09l0.449,0c0.054,0 0.09,-0.036 0.09,-0.09l0,-0.144c0,-0.801 -0.539,-1.358 -1.359,-1.358c-0.774,0 -1.322,0.485 -1.322,1.295c0,0.792 0.539,1.17 1.169,1.594c0.568,0.378 0.928,0.612 0.928,1.098c0,0.468 -0.315,0.783 -0.739,0.783c-0.423,0 -0.72,-0.324 -0.72,-0.837l0,-0.09c0,-0.054 -0.036,-0.09 -0.09,-0.09l-0.449,0c-0.054,0 -0.09,0.036 -0.09,0.09l0,0.153c0,0.783 0.548,1.322 1.349,1.322Z" style="fill:white;fill-rule:nonzero;"/>
            <path d="M17.108,227.596l2.375,0c0.054,0 0.09,-0.036 0.09,-0.09l0,-0.377c0,-0.054 -0.036,-0.09 -0.09,-0.09l-1.791,0c-0.018,0 -0.036,-0.018 -0.036,-0.036l0,-4.509c0,-0.054 -0.036,-0.09 -0.09,-0.09l-0.458,0c-0.054,0 -0.09,0.036 -0.09,0.09l0,5.012c0,0.054 0.036,0.09 0.09,0.09Z" style="fill:white;fill-rule:nonzero;"/>
            <path d="M21.652,227.659c0.838,0 1.404,-0.539 1.404,-1.43l0,-2.449c0,-0.9 -0.566,-1.439 -1.404,-1.439c-0.846,0 -1.403,0.539 -1.403,1.439l0,2.449c0,0.891 0.557,1.43 1.403,1.43Zm0,-0.557c-0.45,0 -0.765,-0.306 -0.765,-0.837l0,-2.512c0,-0.54 0.315,-0.846 0.765,-0.846c0.46,0 0.766,0.306 0.766,0.846l0,2.512c0,0.531 -0.306,0.837 -0.766,0.837Z" style="fill:white;fill-rule:nonzero;"/>
            <path d="M25.001,227.596l0.414,0c0.054,0 0.081,-0.027 0.09,-0.081l0.621,-3.805c0.009,-0.027 0.027,-0.027 0.035,0l0.63,3.805c0.009,0.054 0.036,0.081 0.09,0.081l0.432,0c0.054,0 0.09,-0.027 0.099,-0.081l0.99,-5.011c0.009,-0.054 -0.018,-0.099 -0.081,-0.099l-0.477,0c-0.054,0 -0.09,0.027 -0.099,0.081l-0.639,3.841c-0.009,0.027 -0.027,0.027 -0.036,0l-0.639,-3.841c-0.009,-0.054 -0.045,-0.081 -0.099,-0.081l-0.377,0c-0.054,0 -0.081,0.027 -0.09,0.081l-0.621,3.841c-0.009,0.027 -0.027,0.036 -0.036,0.009l-0.693,-3.85c-0.009,-0.054 -0.045,-0.081 -0.099,-0.081l-0.486,0c-0.063,0 -0.09,0.036 -0.081,0.099l1.053,5.011c0.009,0.054 0.045,0.081 0.099,0.081Z" style="fill:white;fill-rule:nonzero;"/>
            <path d="M30.779,222.395l-1.341,0c-0.054,0 -0.09,0.036 -0.09,0.09l0,5.021c0,0.054 0.036,0.09 0.09,0.09l0.458,0c0.054,0 0.09,-0.036 0.09,-0.09l0,-2.169c0,-0.018 0.018,-0.036 0.036,-0.036l0.784,0c0.774,0 1.295,-0.575 1.295,-1.431c0,-0.873 -0.53,-1.475 -1.322,-1.475Zm-0.091,2.403l-0.666,0c-0.018,0 -0.036,-0.018 -0.036,-0.036l0,-1.774c0,-0.018 0.018,-0.036 0.036,-0.036l0.666,0c0.46,0 0.775,0.36 0.775,0.928c0,0.558 -0.315,0.918 -0.775,0.918Z" style="fill:white;fill-rule:nonzero;"/>
            <path d="M35.183,227.596l0.477,0c0.063,0 0.09,-0.036 0.072,-0.099l-1.196,-5.012c-0.009,-0.045 -0.045,-0.081 -0.099,-0.081l-0.549,0c-0.054,0 -0.09,0.036 -0.099,0.081l-1.178,5.012c-0.018,0.054 0.009,0.099 0.072,0.099l0.459,0c0.054,0 0.09,-0.027 0.099,-0.081l0.189,-0.855c0,-0.018 0.027,-0.036 0.045,-0.036l1.385,0c0.017,0 0.044,0.018 0.044,0.036l0.18,0.855c0.009,0.054 0.045,0.081 0.099,0.081Zm-1.618,-1.529l0.593,-2.71c0.009,-0.036 0.027,-0.036 0.036,0l0.585,2.71c0.009,0.018 -0.009,0.036 -0.027,0.036l-1.16,0c-0.018,0 -0.036,-0.018 -0.027,-0.036Z" style="fill:white;fill-rule:nonzero;"/>
            <path d="M37.987,227.659c0.802,0 1.377,-0.53 1.377,-1.367c0,-0.711 -0.413,-1.026 -1.223,-1.585c-0.631,-0.441 -0.883,-0.639 -0.883,-1.062c0,-0.486 0.297,-0.747 0.693,-0.747c0.442,0 0.73,0.324 0.73,0.819l0,0.126c0,0.054 0.036,0.09 0.09,0.09l0.449,0c0.054,0 0.09,-0.036 0.09,-0.09l0,-0.144c0,-0.801 -0.539,-1.358 -1.359,-1.358c-0.774,0 -1.322,0.485 -1.322,1.295c0,0.792 0.539,1.17 1.169,1.594c0.568,0.378 0.928,0.612 0.928,1.098c0,0.468 -0.315,0.783 -0.739,0.783c-0.423,0 -0.72,-0.324 -0.72,-0.837l0,-0.09c0,-0.054 -0.036,-0.09 -0.09,-0.09l-0.449,0c-0.054,0 -0.09,0.036 -0.09,0.09l0,0.153c0,0.783 0.548,1.322 1.349,1.322Z" style="fill:white;fill-rule:nonzero;"/>
            <path d="M41.605,227.659c0.802,0 1.377,-0.53 1.377,-1.367c0,-0.711 -0.413,-1.026 -1.223,-1.585c-0.631,-0.441 -0.883,-0.639 -0.883,-1.062c0,-0.486 0.297,-0.747 0.693,-0.747c0.442,0 0.73,0.324 0.73,0.819l0,0.126c0,0.054 0.036,0.09 0.09,0.09l0.449,0c0.054,0 0.09,-0.036 0.09,-0.09l0,-0.144c0,-0.801 -0.539,-1.358 -1.359,-1.358c-0.774,0 -1.322,0.485 -1.322,1.295c0,0.792 0.539,1.17 1.169,1.594c0.568,0.378 0.928,0.612 0.928,1.098c0,0.468 -0.315,0.783 -0.739,0.783c-0.423,0 -0.72,-0.324 -0.72,-0.837l0,-0.09c0,-0.054 -0.036,-0.09 -0.09,-0.09l-0.449,0c-0.054,0 -0.09,0.036 -0.09,0.09l0,0.153c0,0.783 0.548,1.322 1.349,1.322Z" style="fill:white;fill-rule:nonzero;"/>
        </g>
        <g id="components" display="none">
            <circle id="lowpass" cx="30" cy="65" r="10" style="fill:#ff0000;"/>
            <circle id="highpass" cx="30" cy="125" r="10" style="fill:#ff0000;"/>
            <circle id="highpass_cv" cx="30" cy="245" r="10" style="fill:#00ff00;"/>
            <circle id="lowpass_cv" cx="30" cy="205" r="10" style="fill:#00ff00;"/>
            <circle id="in" cx="30" cy="285" r="10" style="fill:#00ff00;"/>
            <circle id="out1" cx="30" cy="325" r="10" style="fill:#0000ff;"/>
        </g>
    </g>
</svg>
