<?xml version="1.0" encoding="UTF-8" standalone="no"?>
<!DOCTYPE svg PUBLIC "-//W3C//DTD SVG 1.1//EN" "http://www.w3.org/Graphics/SVG/1.1/DTD/svg11.dtd">
<svg width="120px" height="380px" version="1.1" xmlns="http://www.w3.org/2000/svg" xmlns:xlink="http://www.w3.org/1999/xlink" xml:space="preserve" xmlns:serif="http://www.serif.com/" style="fill-rule:evenodd;clip-rule:evenodd;stroke-miterlimit:1.5;">
    <rect id="Capacitor-ST-Dark" serif:id="Capacitor ST Dark" x="0" y="0" width="120" height="380" style="fill:none;"/>
    <clipPath id="_clip1">
        <rect x="0" y="0" width="120" height="380"/>
    </clipPath>
    <g clip-path="url(#_clip1)">
        <g id="Background">
            <path id="bright" d="M120,379.995l0,-379.995l-120,0l0,379.995l120,0Z" style="fill:rgb(54,69,74);"/>
            <circle cx="97.5" cy="325" r="14" style="fill:rgb(51,51,51);"/>
            <circle cx="22.5" cy="325" r="14" style="fill:rgb(51,51,51);"/>
            <g id="knobMediumBgThree">
                <path d="M45.556,80.901c8.592,-8.58 8.592,-22.49 0,-31.07c-8.585,-8.574 -22.527,-8.574 -31.112,0c-8.592,8.58 -8.592,22.49 0,31.07l15.556,-15.535l15.556,15.535Z" style="fill:none;stroke:rgb(128,128,128);stroke-width:0.7px;"/>
            </g>
            <g id="knobMediumBgThree1" serif:id="knobMediumBgThree">
                <path d="M105.556,80.901c8.592,-8.58 8.592,-22.49 0,-31.07c-8.585,-8.574 -22.527,-8.574 -31.112,0c-8.592,8.58 -8.592,22.49 0,31.07l15.556,-15.535l15.556,15.535Z" style="fill:none;stroke:rgb(128,128,128);stroke-width:0.7px;"/>
            </g>
            <g id="knobMediumBgThree2" serif:id="knobMediumBgThree">
                <path d="M45.556,140.901c8.592,-8.58 8.592,-22.49 0,-31.07c-8.585,-8.574 -22.527,-8.574 -31.112,0c-8.592,8.58 -8.592,22.49 0,31.07l15.556,-15.535l15.556,15.535Z" style="fill:none;stroke:rgb(128,128,128);stroke-width:0.7px;"/>
            </g>
            <g id="knobMediumBgThree3" serif:id="knobMediumBgThree">
                <path d="M105.556,140.901c8.592,-8.58 8.592,-22.49 0,-31.07c-8.585,-8.574 -22.527,-8.574 -31.112,0c-8.592,8.58 -8.592,22.49 0,31.07l15.556,-15.535l15.556,15.535Z" style="fill:none;stroke:rgb(128,128,128);stroke-width:0.7px;"/>
            </g>
            <g id="knobBgMediumThree">
                <path d="M69.911,185c5.474,-5.466 5.474,-14.329 0,-19.795c-5.47,-5.463 -14.352,-5.463 -19.822,0c-5.474,5.466 -5.474,14.329 0,19.795l9.911,-9.898l9.911,9.898Z" style="fill:none;stroke:rgb(128,128,128);stroke-width:0.7px;"/>
            </g>
            <g>
                <path d="M60,324.021c0.111,0 0.215,0.044 0.294,0.122c0.078,0.079 0.122,0.184 0.122,0.294l0,1.126c0,0.039 0.015,0.076 0.043,0.104c0.027,0.027 0.065,0.043 0.104,0.043l1.125,0c0.039,0 0.077,-0.016 0.104,-0.043c0.028,-0.028 0.043,-0.065 0.043,-0.104l0,-1.126c0,-0.49 -0.191,-0.951 -0.537,-1.298c-0.347,-0.346 -0.808,-0.537 -1.298,-0.537l-3.377,0c-0.491,0 -0.952,0.191 -1.298,0.537c-0.347,0.347 -0.538,0.808 -0.538,1.298l0,1.126c0,0.49 0.191,0.951 0.538,1.298c0.346,0.346 0.807,0.537 1.298,0.537l1.903,0c0.061,0 0.116,-0.038 0.137,-0.095c0.021,-0.054 0.007,-0.115 -0.033,-0.155c-0.002,-0.003 -0.005,-0.005 -0.007,-0.007c-0.036,-0.031 -0.071,-0.064 -0.105,-0.098c-0.264,-0.264 -0.454,-0.594 -0.548,-0.955c-0.007,-0.025 -0.02,-0.048 -0.038,-0.066c-0.027,-0.027 -0.064,-0.043 -0.104,-0.043l-1.205,0c-0.111,0 -0.215,-0.043 -0.294,-0.122c-0.079,-0.079 -0.122,-0.183 -0.122,-0.294l0,-1.126c0,-0.111 0.043,-0.215 0.121,-0.294c0.079,-0.078 0.184,-0.122 0.295,-0.122l3.377,0Z" style="fill:rgb(121,140,115);fill-rule:nonzero;"/>
                <path d="M65.213,325.563l0,-1.126c0,-0.49 -0.191,-0.951 -0.538,-1.298c-0.347,-0.346 -0.807,-0.537 -1.298,-0.537l-1.903,0c-0.062,0 -0.116,0.038 -0.138,0.095c-0.02,0.055 -0.007,0.115 0.034,0.156c0.002,0.002 0.005,0.004 0.007,0.007c0.036,0.031 0.072,0.064 0.105,0.098c0.265,0.265 0.454,0.594 0.547,0.953c0.007,0.026 0.02,0.049 0.039,0.067c0.026,0.027 0.063,0.043 0.103,0.043l1.206,0c0.111,0 0.215,0.043 0.294,0.122c0.079,0.079 0.122,0.183 0.122,0.294l0,1.126c0,0.229 -0.187,0.416 -0.416,0.416l-3.377,0c-0.111,0 -0.215,-0.043 -0.294,-0.122c-0.078,-0.079 -0.122,-0.183 -0.122,-0.294l0,-1.126c0,-0.039 -0.015,-0.076 -0.043,-0.104c-0.028,-0.027 -0.065,-0.043 -0.104,-0.043l-1.125,0c-0.082,0 -0.147,0.066 -0.147,0.147l0,1.126c0,0.49 0.19,0.951 0.537,1.298c0.347,0.346 0.808,0.537 1.298,0.537l3.377,0c0.49,0 0.951,-0.19 1.298,-0.537c0.347,-0.347 0.538,-0.808 0.538,-1.298Z" style="fill:rgb(121,140,115);fill-rule:nonzero;"/>
            </g>
        </g>
        <g id="Lables">
            <g id="Branding">
                <path d="M42.357,362.45l0.545,0c0.049,0 0.07,-0.028 0.056,-0.077l-0.72,-2.163c-0.007,-0.021 0,-0.028 0.014,-0.042c0.419,-0.182 0.685,-0.637 0.685,-1.232c0,-0.826 -0.482,-1.393 -1.203,-1.393l-1.253,0c-0.042,0 -0.07,0.028 -0.07,0.07l0,4.767c0,0.042 0.028,0.07 0.07,0.07l0.531,0c0.042,0 0.07,-0.028 0.07,-0.07l0,-2.079c0,-0.014 0.014,-0.028 0.028,-0.028l0.483,0c0.014,0 0.021,0 0.028,0.021l0.652,2.1c0.014,0.035 0.049,0.056 0.084,0.056Zm-1.247,-4.326l0.518,0c0.379,0 0.638,0.315 0.638,0.819c0,0.49 -0.259,0.805 -0.638,0.805l-0.518,0c-0.014,0 -0.028,-0.014 -0.028,-0.028l0,-1.568c0,-0.014 0.014,-0.028 0.028,-0.028Z" style="fill:rgb(199,206,201);fill-rule:nonzero;"/>
                <path d="M46.045,362.45l0.546,0c0.049,0 0.07,-0.035 0.063,-0.077l-1.057,-4.76c-0.007,-0.042 -0.035,-0.063 -0.077,-0.063l-0.615,0c-0.042,0 -0.07,0.021 -0.077,0.063l-1.043,4.76c-0.007,0.042 0.014,0.077 0.063,0.077l0.532,0c0.042,0 0.07,-0.021 0.077,-0.063l0.161,-0.805c0,-0.014 0.021,-0.028 0.035,-0.028l1.126,0c0.014,0 0.035,0.014 0.035,0.028l0.154,0.805c0.007,0.042 0.035,0.063 0.077,0.063Zm-1.308,-1.456l0.476,-2.394c0.006,-0.028 0.02,-0.028 0.027,0l0.462,2.394c0,0.014 -0.007,0.028 -0.021,0.028l-0.923,0c-0.014,0 -0.021,-0.014 -0.021,-0.028Z" style="fill:rgb(199,206,201);fill-rule:nonzero;"/>
                <path d="M48.719,362.506c0.764,0 1.267,-0.497 1.267,-1.267l0,-0.105c0,-0.042 -0.028,-0.07 -0.07,-0.07l-0.531,-0.028c-0.042,0 -0.07,0.028 -0.07,0.07l0,0.182c0,0.378 -0.238,0.637 -0.596,0.637c-0.357,0 -0.588,-0.259 -0.588,-0.637l0,-2.576c0,-0.385 0.231,-0.637 0.588,-0.637c0.358,0 0.596,0.252 0.596,0.637l0,0.182c0,0.042 0.028,0.07 0.07,0.07l0.531,-0.028c0.042,0 0.07,-0.028 0.07,-0.07l0,-0.112c0,-0.77 -0.503,-1.26 -1.267,-1.26c-0.756,0 -1.259,0.49 -1.259,1.26l0,2.485c0,0.77 0.503,1.267 1.259,1.267Z" style="fill:rgb(199,206,201);fill-rule:nonzero;"/>
                <path d="M51.142,362.45l0.531,0c0.042,0 0.07,-0.028 0.07,-0.07l0,-1.575c0,-0.014 0,-0.028 0.007,-0.035l0.357,-0.567c0.014,-0.014 0.028,-0.014 0.035,0.007l0.91,2.184c0.014,0.042 0.042,0.056 0.077,0.056l0.581,0c0.049,0 0.077,-0.035 0.056,-0.084l-1.169,-2.744c-0.007,-0.014 -0.007,-0.028 0,-0.042l1.078,-1.946c0.028,-0.049 0.007,-0.084 -0.049,-0.084l-0.574,0c-0.035,0 -0.063,0.021 -0.084,0.049l-1.19,2.128c-0.014,0.028 -0.035,0.021 -0.035,-0.007l0,-2.1c0,-0.042 -0.028,-0.07 -0.07,-0.07l-0.531,0c-0.042,0 -0.07,0.028 -0.07,0.07l0,4.76c0,0.042 0.028,0.07 0.07,0.07Z" style="fill:rgb(199,206,201);fill-rule:nonzero;"/>
                <path d="M55.44,362.45l0.497,0c0.042,0 0.063,-0.014 0.07,-0.063l0.503,-3.311c0,-0.021 0.021,-0.021 0.028,0l0.532,3.311c0.007,0.042 0.028,0.063 0.07,0.063l0.497,0c0.042,0 0.07,-0.021 0.077,-0.063l0.882,-4.76c0.007,-0.042 -0.014,-0.077 -0.063,-0.077l-0.546,0c-0.042,0 -0.063,0.021 -0.07,0.063l-0.518,3.283c-0.007,0.021 -0.021,0.021 -0.028,0l-0.539,-3.283c-0.007,-0.042 -0.028,-0.063 -0.07,-0.063l-0.468,0c-0.042,0 -0.063,0.014 -0.07,0.063l-0.504,3.283c-0.007,0.021 -0.021,0.021 -0.028,0l-0.567,-3.283c-0.007,-0.042 -0.035,-0.063 -0.077,-0.063l-0.553,0c-0.049,0 -0.07,0.035 -0.063,0.077l0.931,4.76c0.007,0.042 0.035,0.063 0.077,0.063Z" style="fill:rgb(199,206,201);fill-rule:nonzero;"/>
                <path d="M59.626,362.45l0.531,0c0.042,0 0.07,-0.028 0.07,-0.07l0,-4.76c0,-0.042 -0.028,-0.07 -0.07,-0.07l-0.531,0c-0.042,0 -0.07,0.028 -0.07,0.07l0,4.76c0,0.042 0.028,0.07 0.07,0.07Z" style="fill:rgb(199,206,201);fill-rule:nonzero;"/>
                <path d="M61.522,362.45l0.525,0c0.042,0 0.07,-0.028 0.07,-0.07l-0.007,-3.073c0,-0.028 0.028,-0.028 0.035,0l1.246,3.087c0.014,0.042 0.042,0.056 0.077,0.056l0.546,0c0.042,0 0.07,-0.028 0.07,-0.07l0,-4.76c0,-0.042 -0.028,-0.07 -0.07,-0.07l-0.525,0c-0.042,0 -0.07,0.028 -0.07,0.07l0,3.066c0,0.028 -0.028,0.035 -0.035,0.007l-1.246,-3.087c-0.014,-0.042 -0.042,-0.056 -0.077,-0.056l-0.539,0c-0.042,0 -0.07,0.028 -0.07,0.07l0,4.76c0,0.042 0.028,0.07 0.07,0.07Z" style="fill:rgb(199,206,201);fill-rule:nonzero;"/>
                <path d="M65.373,362.45l1.147,0c0.771,0 1.267,-0.511 1.267,-1.323l0,-2.254c0,-0.812 -0.496,-1.323 -1.267,-1.323l-1.147,0c-0.042,0 -0.07,0.028 -0.07,0.07l0,4.76c0,0.042 0.028,0.07 0.07,0.07Zm0.601,-0.609l0,-3.682c0,-0.014 0.014,-0.028 0.028,-0.028l0.511,0c0.365,0 0.596,0.301 0.596,0.777l0,2.184c-0.007,0.476 -0.238,0.77 -0.596,0.77l-0.511,0.007c-0.014,0 -0.028,-0.014 -0.028,-0.028Z" style="fill:rgb(199,206,201);fill-rule:nonzero;"/>
                <path d="M70.111,362.506c0.771,0 1.288,-0.504 1.288,-1.281l0,-2.443c0,-0.777 -0.517,-1.288 -1.288,-1.288c-0.763,0 -1.273,0.511 -1.273,1.288l0,2.443c0,0.777 0.51,1.281 1.273,1.281Zm0,-0.581c-0.364,0 -0.602,-0.273 -0.602,-0.672l0,-2.506c0,-0.399 0.238,-0.672 0.602,-0.672c0.372,0 0.617,0.273 0.617,0.672l0,2.506c0,0.399 -0.245,0.672 -0.617,0.672Z" style="fill:rgb(199,206,201);fill-rule:nonzero;"/>
                <path d="M73.192,362.45l0.497,0c0.042,0 0.063,-0.014 0.07,-0.063l0.503,-3.311c0,-0.021 0.021,-0.021 0.028,0l0.532,3.311c0.007,0.042 0.028,0.063 0.07,0.063l0.497,0c0.042,0 0.07,-0.021 0.077,-0.063l0.882,-4.76c0.007,-0.042 -0.014,-0.077 -0.063,-0.077l-0.546,0c-0.042,0 -0.063,0.021 -0.07,0.063l-0.518,3.283c-0.007,0.021 -0.021,0.021 -0.028,0l-0.539,-3.283c-0.007,-0.042 -0.028,-0.063 -0.07,-0.063l-0.468,0c-0.042,0 -0.063,0.014 -0.07,0.063l-0.504,3.283c-0.007,0.021 -0.021,0.021 -0.028,0l-0.567,-3.283c-0.007,-0.042 -0.035,-0.063 -0.077,-0.063l-0.553,0c-0.049,0 -0.07,0.035 -0.063,0.077l0.931,4.76c0.007,0.042 0.035,0.063 0.077,0.063Z" style="fill:rgb(199,206,201);fill-rule:nonzero;"/>
                <path d="M78.343,362.506c0.729,0 1.246,-0.504 1.246,-1.295c0,-0.672 -0.37,-0.966 -1.084,-1.498c-0.54,-0.399 -0.743,-0.588 -0.743,-0.987c0,-0.42 0.231,-0.651 0.546,-0.651c0.344,0 0.582,0.28 0.582,0.7l0,0.189c0,0.042 0.028,0.07 0.07,0.07l0.517,0c0.042,0 0.07,-0.028 0.07,-0.07l0,-0.175c0,-0.777 -0.489,-1.295 -1.239,-1.295c-0.707,0 -1.21,0.469 -1.21,1.232c0,0.763 0.503,1.134 1.042,1.533c0.505,0.371 0.785,0.567 0.785,0.994c0,0.406 -0.252,0.672 -0.582,0.672c-0.336,0 -0.574,-0.273 -0.574,-0.707l0,-0.154c0,-0.042 -0.028,-0.07 -0.07,-0.07l-0.517,0c-0.042,0 -0.07,0.028 -0.07,0.07l0,0.189c0,0.749 0.496,1.253 1.231,1.253Z" style="fill:rgb(199,206,201);fill-rule:nonzero;"/>
                <path d="M32.508,25c1.369,0 2.28,-0.887 2.28,-2.255l0,-0.144c0,-0.084 -0.06,-0.144 -0.144,-0.144l-1.115,-0.048c-0.084,0 -0.144,0.06 -0.144,0.144l0,0.3c0,0.564 -0.348,0.948 -0.877,0.948c-0.516,0 -0.864,-0.384 -0.864,-0.948l0,-4.297c0,-0.564 0.348,-0.948 0.864,-0.948c0.529,0 0.877,0.384 0.877,0.948l0,0.3c0,0.096 0.06,0.144 0.144,0.144l1.115,-0.048c0.084,0 0.144,-0.072 0.144,-0.156l0,-0.144c0,-1.38 -0.911,-2.243 -2.28,-2.243c-1.356,0 -2.255,0.863 -2.255,2.243l0,4.093c0,1.368 0.899,2.255 2.255,2.255Z" style="fill:white;fill-rule:nonzero;"/>
                <path d="M39.476,24.904l1.116,0c0.096,0 0.156,-0.048 0.132,-0.156l-1.776,-8.111c-0.012,-0.084 -0.073,-0.132 -0.157,-0.132l-1.284,0c-0.084,0 -0.144,0.049 -0.156,0.133l-1.764,8.11c-0.024,0.108 0.024,0.156 0.12,0.156l1.104,0c0.084,0 0.144,-0.036 0.156,-0.132l0.24,-1.272c0,-0.036 0.036,-0.048 0.072,-0.048l1.741,0c0.036,0 0.072,0.024 0.072,0.06l0.228,1.26c0.012,0.096 0.072,0.132 0.156,0.132Zm-2.029,-2.602l0.696,-3.626c0.012,-0.048 0.06,-0.048 0.072,0l0.66,3.625c0.013,0.048 -0.024,0.061 -0.06,0.061l-1.308,0c-0.036,0 -0.072,-0.012 -0.06,-0.06Z" style="fill:white;fill-rule:nonzero;"/>
                <path d="M44.221,16.494l-2.256,0c-0.084,0 -0.144,0.059 -0.144,0.143l0,8.123c0,0.084 0.06,0.144 0.144,0.144l1.103,0c0.084,0 0.144,-0.06 0.144,-0.144l0,-3.336c0,-0.036 0.024,-0.06 0.06,-0.06l1.021,0c1.236,0 2.075,-0.947 2.075,-2.399c0,-1.465 -0.863,-2.471 -2.147,-2.471Zm-0.229,3.779l-0.72,0c-0.036,0 -0.06,-0.024 -0.06,-0.06l0,-2.461c0,-0.036 0.024,-0.06 0.06,-0.06l0.72,0c0.589,0 0.985,0.492 0.985,1.309c0,0.792 -0.396,1.272 -0.985,1.272Z" style="fill:white;fill-rule:nonzero;"/>
                <path d="M50.636,24.904l1.116,0c0.096,0 0.156,-0.048 0.132,-0.156l-1.776,-8.111c-0.012,-0.084 -0.073,-0.132 -0.157,-0.132l-1.284,0c-0.084,0 -0.144,0.049 -0.156,0.133l-1.764,8.11c-0.024,0.108 0.024,0.156 0.12,0.156l1.104,0c0.084,0 0.144,-0.036 0.156,-0.132l0.24,-1.272c0,-0.036 0.036,-0.048 0.072,-0.048l1.741,0c0.036,0 0.072,0.024 0.072,0.06l0.228,1.26c0.012,0.096 0.072,0.132 0.156,0.132Zm-2.029,-2.602l0.696,-3.626c0.012,-0.048 0.06,-0.048 0.072,0l0.66,3.625c0.013,0.048 -0.024,0.061 -0.06,0.061l-1.308,0c-0.036,0 -0.072,-0.012 -0.06,-0.06Z" style="fill:white;fill-rule:nonzero;"/>
                <path d="M54.912,25c1.369,0 2.28,-0.887 2.28,-2.255l0,-0.144c0,-0.084 -0.06,-0.144 -0.144,-0.144l-1.115,-0.048c-0.084,0 -0.144,0.06 -0.144,0.144l0,0.3c0,0.564 -0.348,0.948 -0.877,0.948c-0.516,0 -0.864,-0.384 -0.864,-0.948l0,-4.297c0,-0.564 0.348,-0.948 0.864,-0.948c0.529,0 0.877,0.384 0.877,0.948l0,0.3c0,0.096 0.06,0.144 0.144,0.144l1.115,-0.048c0.084,0 0.144,-0.072 0.144,-0.156l0,-0.144c0,-1.38 -0.911,-2.243 -2.28,-2.243c-1.356,0 -2.255,0.863 -2.255,2.243l0,4.093c0,1.368 0.899,2.255 2.255,2.255Z" style="fill:white;fill-rule:nonzero;"/>
                <path d="M58.549,24.904l1.103,0c0.084,0 0.144,-0.06 0.144,-0.144l0,-8.11c0,-0.084 -0.06,-0.145 -0.144,-0.145l-1.103,0c-0.084,0 -0.144,0.061 -0.144,0.145l0,8.11c0,0.084 0.06,0.144 0.144,0.144Z" style="fill:white;fill-rule:nonzero;"/>
                <path d="M65.52,16.505l-4.475,0c-0.084,0 -0.144,0.06 -0.144,0.144l0,0.911c0,0.084 0.06,0.144 0.144,0.144l1.44,0c0.036,0 0.06,0.024 0.06,0.06l0,6.996c0,0.084 0.06,0.144 0.144,0.144l1.103,0c0.084,0 0.144,-0.06 0.144,-0.144l0,-6.996c0,-0.036 0.024,-0.06 0.06,-0.06l1.524,0c0.084,0 0.144,-0.06 0.144,-0.144l0,-0.911c0,-0.084 -0.06,-0.143 -0.144,-0.143Z" style="fill:white;fill-rule:nonzero;"/>
                <path d="M68.616,25c1.381,0 2.304,-0.899 2.304,-2.279l0,-4.033c0,-1.38 -0.923,-2.278 -2.304,-2.278c-1.38,0 -2.291,0.898 -2.291,2.278l0,4.033c0,1.38 0.911,2.279 2.291,2.279Zm0,-1.198c-0.552,0 -0.9,-0.421 -0.9,-1.021l0,-4.153c0,-0.6 0.348,-1.02 0.9,-1.02c0.553,0 0.913,0.42 0.913,1.02l0,4.153c0,0.6 -0.36,1.021 -0.913,1.021Z" style="fill:white;fill-rule:nonzero;"/>
                <path d="M75.517,24.904l1.151,0c0.096,0 0.156,-0.06 0.12,-0.168l-1.175,-3.612c-0.012,-0.036 0,-0.06 0.036,-0.072c0.683,-0.359 1.091,-1.115 1.091,-2.111c0,-1.453 -0.863,-2.448 -2.147,-2.448l-2.256,0c-0.084,0 -0.144,0.06 -0.144,0.144l0,8.123c0,0.084 0.06,0.144 0.144,0.144l1.103,0c0.084,0 0.144,-0.06 0.144,-0.144l0,-3.42c0,-0.036 0.024,-0.06 0.06,-0.06l0.624,0c0.036,0 0.048,0.024 0.06,0.048l1.033,3.456c0.024,0.072 0.072,0.12 0.156,0.12Zm-1.873,-7.212l0.732,0c0.577,0 0.973,0.48 0.973,1.273c0,0.768 -0.396,1.237 -0.973,1.237l-0.732,0c-0.036,0 -0.06,-0.025 -0.06,-0.061l0,-2.389c0,-0.036 0.024,-0.06 0.06,-0.06Z" style="fill:white;fill-rule:nonzero;"/>
                <path d="M82.404,25c1.309,0 2.232,-0.875 2.232,-2.255c0,-1.176 -0.66,-1.692 -1.883,-2.604c-0.889,-0.661 -1.213,-0.961 -1.213,-1.561c0,-0.624 0.348,-0.972 0.804,-0.972c0.505,0 0.853,0.408 0.853,1.032l0,0.312c0,0.084 0.06,0.144 0.144,0.144l1.091,0c0.084,0 0.144,-0.06 0.144,-0.144l0,-0.288c0,-1.356 -0.887,-2.255 -2.232,-2.255c-1.284,0 -2.171,0.839 -2.171,2.171c0,1.345 0.911,2.017 1.823,2.677c0.841,0.624 1.261,0.924 1.261,1.56c0,0.6 -0.36,0.985 -0.853,0.985c-0.48,0 -0.84,-0.409 -0.84,-1.045l0,-0.264c0,-0.084 -0.06,-0.144 -0.144,-0.144l-1.079,0c-0.084,0 -0.144,0.06 -0.144,0.144l0,0.336c0,1.284 0.887,2.171 2.207,2.171Z" style="fill:white;fill-rule:nonzero;"/>
                <path d="M89.964,16.505l-4.475,0c-0.084,0 -0.144,0.06 -0.144,0.144l0,0.911c0,0.084 0.06,0.144 0.144,0.144l1.44,0c0.036,0 0.06,0.024 0.06,0.06l0,6.996c0,0.084 0.06,0.144 0.144,0.144l1.103,0c0.084,0 0.144,-0.06 0.144,-0.144l0,-6.996c0,-0.036 0.024,-0.06 0.06,-0.06l1.524,0c0.084,0 0.144,-0.06 0.144,-0.144l0,-0.911c0,-0.084 -0.06,-0.143 -0.144,-0.143Z" style="fill:white;fill-rule:nonzero;"/>
                <path d="M41.421,35.327c0.858,0 1.552,-0.628 1.669,-1.628c0.108,-0.855 -0.288,-1.215 -1.082,-1.89c-0.65,-0.54 -0.903,-0.81 -0.831,-1.386c0.081,-0.64 0.47,-0.982 0.93,-0.982c0.506,0 0.794,0.424 0.713,1.063l-0.027,0.234c-0.009,0.054 0.027,0.09 0.072,0.09l0.44,0c0.054,0 0.09,-0.036 0.099,-0.09l0.027,-0.225c0.117,-0.982 -0.377,-1.628 -1.261,-1.628c-0.821,0 -1.489,0.565 -1.607,1.52c-0.117,0.954 0.406,1.404 1.038,1.926c0.587,0.504 0.949,0.783 0.876,1.422c-0.081,0.621 -0.505,1.018 -0.984,1.018c-0.496,0 -0.794,-0.415 -0.713,-1.063l0.027,-0.189c0,-0.054 -0.027,-0.09 -0.081,-0.09l-0.433,0c-0.055,0 -0.091,0.036 -0.1,0.09l-0.027,0.216c-0.117,0.955 0.397,1.592 1.255,1.592Z" style="fill:rgb(199,206,201);fill-rule:nonzero;"/>
                <path d="M45.848,31.089l0.036,-0.297c0.009,-0.054 -0.018,-0.089 -0.072,-0.089l-0.666,0c-0.018,0 -0.027,-0.018 -0.027,-0.036l0.126,-1.008c0,-0.054 -0.027,-0.09 -0.081,-0.09l-0.432,0c-0.054,0 -0.099,0.036 -0.099,0.09l-0.126,1.008c0,0.018 -0.027,0.036 -0.045,0.036l-0.332,0c-0.054,0 -0.099,0.035 -0.099,0.089l-0.036,0.297c-0.009,0.054 0.018,0.089 0.072,0.089l0.341,0c0.018,0 0.036,0.018 0.027,0.036l-0.359,2.944c-0.108,0.909 0.296,1.097 0.917,1.097l0.216,0c0.054,0 0.09,-0.035 0.099,-0.089l0.045,-0.387c0.009,-0.054 -0.027,-0.089 -0.072,-0.089l-0.09,0c-0.369,0.009 -0.549,-0.144 -0.477,-0.721l0.333,-2.755c0.009,-0.018 0.027,-0.036 0.045,-0.036l0.657,0c0.054,0 0.099,-0.035 0.099,-0.089Z" style="fill:rgb(199,206,201);fill-rule:nonzero;"/>
                <path d="M49.016,33.132l0.135,-1.125c0.099,-0.811 -0.351,-1.376 -1.196,-1.376c-0.838,0 -1.441,0.565 -1.539,1.376l-0.234,1.944c-0.099,0.829 0.359,1.376 1.187,1.376c0.775,0 1.315,-0.449 1.485,-1.151c0.018,-0.054 -0.009,-0.099 -0.063,-0.099l-0.431,-0.018c-0.054,0 -0.081,0.027 -0.108,0.081c-0.126,0.369 -0.424,0.631 -0.811,0.631c-0.432,0 -0.702,-0.352 -0.639,-0.856l0.081,-0.658c0,-0.018 0.027,-0.036 0.045,-0.036l1.989,0c0.054,0 0.09,-0.035 0.099,-0.089Zm-1.134,-1.945c0.451,0 0.721,0.352 0.658,0.865l-0.081,0.604c0,0.018 -0.018,0.036 -0.036,0.036l-1.432,0c-0.018,0 -0.036,-0.018 -0.036,-0.036l0.081,-0.604c0.063,-0.513 0.405,-0.865 0.846,-0.865Z" style="fill:rgb(199,206,201);fill-rule:nonzero;"/>
                <path d="M51.725,30.658c-0.414,0 -0.711,0.279 -0.918,0.684c-0.009,0.027 -0.036,0.027 -0.036,-0.009l0.072,-0.54c0,-0.054 -0.027,-0.09 -0.081,-0.09l-0.44,0c-0.054,0 -0.099,0.036 -0.099,0.09l-0.54,4.372c-0.009,0.054 0.027,0.09 0.072,0.09l0.45,0c0.054,0 0.09,-0.036 0.099,-0.09l0.333,-2.699c0.071,-0.612 0.431,-1.088 0.845,-1.115c0.153,-0.027 0.279,-0.009 0.369,0.036c0.054,0.018 0.099,0.009 0.117,-0.054l0.153,-0.459c0.018,-0.045 0.009,-0.09 -0.027,-0.117c-0.09,-0.054 -0.198,-0.099 -0.369,-0.099Z" style="fill:rgb(199,206,201);fill-rule:nonzero;"/>
                <path d="M55.091,33.132l0.135,-1.125c0.099,-0.811 -0.351,-1.376 -1.196,-1.376c-0.838,0 -1.441,0.565 -1.539,1.376l-0.234,1.944c-0.099,0.829 0.359,1.376 1.187,1.376c0.775,0 1.315,-0.449 1.485,-1.151c0.018,-0.054 -0.009,-0.099 -0.063,-0.099l-0.431,-0.018c-0.054,0 -0.081,0.027 -0.108,0.081c-0.126,0.369 -0.424,0.631 -0.811,0.631c-0.432,0 -0.702,-0.352 -0.639,-0.856l0.081,-0.658c0,-0.018 0.027,-0.036 0.045,-0.036l1.989,0c0.054,0 0.09,-0.035 0.099,-0.089Zm-1.134,-1.945c0.451,0 0.721,0.352 0.658,0.865l-0.081,0.604c0,0.018 -0.018,0.036 -0.036,0.036l-1.432,0c-0.018,0 -0.036,-0.018 -0.036,-0.036l0.081,-0.604c0.063,-0.513 0.405,-0.865 0.846,-0.865Z" style="fill:rgb(199,206,201);fill-rule:nonzero;"/>
                <path d="M57.008,35.327c0.847,0 1.449,-0.547 1.548,-1.376l0.243,-1.944c0.099,-0.811 -0.369,-1.376 -1.206,-1.376c-0.846,0 -1.449,0.565 -1.548,1.376l-0.233,1.944c-0.099,0.829 0.359,1.376 1.196,1.376Zm0.072,-0.556c-0.441,0 -0.711,-0.352 -0.648,-0.856l0.234,-1.863c0.063,-0.513 0.405,-0.865 0.855,-0.865c0.442,0 0.712,0.352 0.649,0.865l-0.225,1.863c-0.063,0.504 -0.424,0.856 -0.865,0.856Z" style="fill:rgb(199,206,201);fill-rule:nonzero;"/>
                <path d="M64.676,29.424l0.045,-0.378c0,-0.054 -0.027,-0.089 -0.081,-0.089l-2.573,0c-0.054,0 -0.09,0.035 -0.099,0.089l-0.747,6.119c-0.009,0.054 0.018,0.09 0.072,0.09l0.45,0c0.045,0 0.09,-0.036 0.099,-0.09l0.333,-2.745c0,-0.018 0.018,-0.036 0.036,-0.036l1.268,0c0.054,0 0.09,-0.035 0.099,-0.089l0.045,-0.387c0.009,-0.054 -0.018,-0.089 -0.072,-0.089l-1.268,0c-0.018,0 -0.036,-0.018 -0.027,-0.036l0.27,-2.234c0,-0.018 0.027,-0.036 0.045,-0.036l2.006,0c0.045,0 0.09,-0.035 0.099,-0.089Z" style="fill:rgb(199,206,201);fill-rule:nonzero;"/>
                <path d="M65.657,29.891c0.243,0 0.441,-0.197 0.477,-0.476c0.027,-0.261 -0.117,-0.458 -0.369,-0.458c-0.251,0 -0.458,0.197 -0.485,0.458c-0.036,0.279 0.126,0.476 0.377,0.476Zm-0.89,5.364l0.45,0c0.054,0 0.09,-0.036 0.099,-0.09l0.53,-4.372c0.009,-0.054 -0.018,-0.09 -0.072,-0.09l-0.449,0c-0.045,0 -0.09,0.036 -0.09,0.09l-0.54,4.372c-0.009,0.054 0.018,0.09 0.072,0.09Z" style="fill:rgb(199,206,201);fill-rule:nonzero;"/>
                <path d="M66.441,35.255l0.44,0c0.054,0 0.09,-0.036 0.099,-0.09l0.756,-6.118c0,-0.054 -0.027,-0.09 -0.081,-0.09l-0.441,0c-0.054,0 -0.099,0.036 -0.099,0.09l-0.755,6.118c-0.009,0.054 0.027,0.09 0.081,0.09Z" style="fill:rgb(199,206,201);fill-rule:nonzero;"/>
                <path d="M70.049,31.089l0.036,-0.297c0.009,-0.054 -0.018,-0.089 -0.072,-0.089l-0.666,0c-0.018,0 -0.027,-0.018 -0.027,-0.036l0.126,-1.008c0,-0.054 -0.027,-0.09 -0.081,-0.09l-0.432,0c-0.054,0 -0.099,0.036 -0.099,0.09l-0.126,1.008c0,0.018 -0.027,0.036 -0.045,0.036l-0.332,0c-0.054,0 -0.099,0.035 -0.099,0.089l-0.036,0.297c-0.009,0.054 0.018,0.089 0.072,0.089l0.341,0c0.018,0 0.036,0.018 0.027,0.036l-0.359,2.944c-0.108,0.909 0.296,1.097 0.917,1.097l0.216,0c0.054,0 0.09,-0.035 0.099,-0.089l0.045,-0.387c0.009,-0.054 -0.027,-0.089 -0.072,-0.089l-0.09,0c-0.369,0.009 -0.549,-0.144 -0.477,-0.721l0.333,-2.755c0.009,-0.018 0.027,-0.036 0.045,-0.036l0.657,0c0.054,0 0.099,-0.035 0.099,-0.089Z" style="fill:rgb(199,206,201);fill-rule:nonzero;"/>
                <path d="M73.217,33.132l0.135,-1.125c0.099,-0.811 -0.351,-1.376 -1.196,-1.376c-0.838,0 -1.441,0.565 -1.539,1.376l-0.234,1.944c-0.099,0.829 0.359,1.376 1.187,1.376c0.775,0 1.315,-0.449 1.485,-1.151c0.018,-0.054 -0.009,-0.099 -0.063,-0.099l-0.431,-0.018c-0.054,0 -0.081,0.027 -0.108,0.081c-0.126,0.369 -0.424,0.631 -0.811,0.631c-0.432,0 -0.702,-0.352 -0.639,-0.856l0.081,-0.658c0,-0.018 0.027,-0.036 0.045,-0.036l1.989,0c0.054,0 0.09,-0.035 0.099,-0.089Zm-1.134,-1.945c0.451,0 0.721,0.352 0.658,0.865l-0.081,0.604c0,0.018 -0.018,0.036 -0.036,0.036l-1.432,0c-0.018,0 -0.036,-0.018 -0.036,-0.036l0.081,-0.604c0.063,-0.513 0.405,-0.865 0.846,-0.865Z" style="fill:rgb(199,206,201);fill-rule:nonzero;"/>
                <path d="M75.926,30.658c-0.414,0 -0.711,0.279 -0.918,0.684c-0.009,0.027 -0.036,0.027 -0.036,-0.009l0.072,-0.54c0,-0.054 -0.027,-0.09 -0.081,-0.09l-0.44,0c-0.054,0 -0.099,0.036 -0.099,0.09l-0.54,4.372c-0.009,0.054 0.027,0.09 0.072,0.09l0.45,0c0.054,0 0.09,-0.036 0.099,-0.09l0.333,-2.699c0.071,-0.612 0.431,-1.088 0.845,-1.115c0.153,-0.027 0.279,-0.009 0.369,0.036c0.054,0.018 0.099,0.009 0.117,-0.054l0.153,-0.459c0.018,-0.045 0.009,-0.09 -0.027,-0.117c-0.09,-0.054 -0.198,-0.099 -0.369,-0.099Z" style="fill:rgb(199,206,201);fill-rule:nonzero;"/>
                <path d="M77.573,35.3c0.811,0 1.386,-0.475 1.476,-1.223c0.108,-0.846 -0.521,-1.134 -0.998,-1.359c-0.433,-0.198 -0.811,-0.369 -0.757,-0.837c0.054,-0.387 0.351,-0.703 0.775,-0.703c0.432,0 0.674,0.307 0.62,0.703l-0.009,0.072c0,0.045 0.027,0.072 0.081,0.072l0.405,0c0.054,0 0.09,-0.036 0.099,-0.09l0,-0.027c0.09,-0.748 -0.333,-1.25 -1.133,-1.25c-0.775,0 -1.332,0.467 -1.431,1.241c-0.108,0.855 0.485,1.125 0.944,1.332c0.424,0.198 0.847,0.369 0.784,0.873c-0.045,0.405 -0.36,0.703 -0.784,0.703c-0.45,0 -0.702,-0.307 -0.657,-0.685l0.009,-0.072c0,-0.045 -0.027,-0.072 -0.081,-0.072l-0.413,0c-0.054,0 -0.099,0.036 -0.099,0.09l-0.009,0.063c-0.09,0.703 0.368,1.169 1.178,1.169Z" style="fill:rgb(199,206,201);fill-rule:nonzero;"/>
            </g>
            <path d="M20.21,307.592l0.458,0c0.054,0 0.09,-0.036 0.09,-0.09l0,-5.004c0,-0.054 -0.036,-0.09 -0.09,-0.09l-0.458,0c-0.054,0 -0.09,0.036 -0.09,0.09l0,5.004c0,0.054 0.036,0.09 0.09,0.09Z" style="fill:white;fill-rule:nonzero;"/>
            <path d="M22.109,307.592l0.449,0c0.054,0 0.09,-0.036 0.09,-0.09l0,-3.753c0,-0.036 0.036,-0.045 0.045,-0.009l1.522,3.78c0.018,0.054 0.054,0.072 0.099,0.072l0.476,0c0.054,0 0.09,-0.036 0.09,-0.09l0,-5.004c0,-0.054 -0.036,-0.09 -0.09,-0.09l-0.449,0c-0.054,0 -0.09,0.036 -0.09,0.09l0,3.744c0,0.036 -0.036,0.045 -0.045,0.009l-1.531,-3.771c-0.018,-0.054 -0.054,-0.072 -0.099,-0.072l-0.467,0c-0.054,0 -0.09,0.036 -0.09,0.09l0,5.004c0,0.054 0.036,0.09 0.09,0.09Z" style="fill:white;fill-rule:nonzero;"/>
            <path d="M21.421,262.494l0,2.187c0,0.018 -0.018,0.036 -0.036,0.036l-1.325,0c-0.018,0 -0.036,-0.018 -0.036,-0.036l0,-2.187c0,-0.054 -0.035,-0.09 -0.089,-0.09l-0.459,0c-0.054,0 -0.089,0.036 -0.089,0.09l0,5.012c0,0.054 0.035,0.09 0.089,0.09l0.459,0c0.054,0 0.089,-0.036 0.089,-0.09l0,-2.196c0,-0.018 0.018,-0.036 0.036,-0.036l1.325,0c0.018,0 0.036,0.018 0.036,0.036l0,2.196c0,0.054 0.035,0.09 0.089,0.09l0.459,0c0.054,0 0.089,-0.036 0.089,-0.09l0,-5.012c0,-0.054 -0.035,-0.09 -0.089,-0.09l-0.459,0c-0.054,0 -0.089,0.036 -0.089,0.09Z" style="fill:white;fill-rule:nonzero;"/>
            <path d="M24.642,262.395l-1.341,0c-0.054,0 -0.089,0.036 -0.089,0.09l0,5.021c0,0.054 0.035,0.09 0.089,0.09l0.459,0c0.054,0 0.089,-0.036 0.089,-0.09l0,-2.169c0,-0.018 0.018,-0.036 0.036,-0.036l0.784,0c0.774,0 1.295,-0.575 1.295,-1.431c0,-0.873 -0.53,-1.475 -1.322,-1.475Zm-0.09,2.403l-0.667,0c-0.018,0 -0.036,-0.018 -0.036,-0.036l0,-1.774c0,-0.018 0.018,-0.036 0.036,-0.036l0.667,0c0.459,0 0.775,0.36 0.775,0.928c0,0.558 -0.316,0.918 -0.775,0.918Z" style="fill:white;fill-rule:nonzero;"/>
            <path d="M19.733,227.596l2.375,0c0.054,0 0.09,-0.036 0.09,-0.09l0,-0.377c0,-0.054 -0.036,-0.09 -0.09,-0.09l-1.791,0c-0.018,0 -0.036,-0.018 -0.036,-0.036l0,-4.509c0,-0.054 -0.036,-0.09 -0.09,-0.09l-0.458,0c-0.054,0 -0.09,0.036 -0.09,0.09l0,5.012c0,0.054 0.036,0.09 0.09,0.09Z" style="fill:white;fill-rule:nonzero;"/>
            <path d="M24.386,222.395l-1.341,0c-0.054,0 -0.09,0.036 -0.09,0.09l0,5.021c0,0.054 0.036,0.09 0.09,0.09l0.458,0c0.054,0 0.09,-0.036 0.09,-0.09l0,-2.169c0,-0.018 0.018,-0.036 0.036,-0.036l0.784,0c0.774,0 1.295,-0.575 1.295,-1.431c0,-0.873 -0.53,-1.475 -1.322,-1.475Zm-0.091,2.403l-0.666,0c-0.018,0 -0.036,-0.018 -0.036,-0.036l0,-1.774c0,-0.018 0.018,-0.036 0.036,-0.036l0.666,0c0.46,0 0.775,0.36 0.775,0.928c0,0.558 -0.315,0.918 -0.775,0.918Z" style="fill:white;fill-rule:nonzero;"/>
            <path d="M94.733,227.596l2.375,0c0.054,0 0.09,-0.036 0.09,-0.09l0,-0.377c0,-0.054 -0.036,-0.09 -0.09,-0.09l-1.791,0c-0.018,0 -0.036,-0.018 -0.036,-0.036l0,-4.509c0,-0.054 -0.036,-0.09 -0.09,-0.09l-0.458,0c-0.054,0 -0.09,0.036 -0.09,0.09l0,5.012c0,0.054 0.036,0.09 0.09,0.09Z" style="fill:white;fill-rule:nonzero;"/>
            <path d="M99.386,222.395l-1.341,0c-0.054,0 -0.09,0.036 -0.09,0.09l0,5.021c0,0.054 0.036,0.09 0.09,0.09l0.458,0c0.054,0 0.09,-0.036 0.09,-0.09l0,-2.169c0,-0.018 0.018,-0.036 0.036,-0.036l0.784,0c0.774,0 1.295,-0.575 1.295,-1.431c0,-0.873 -0.53,-1.475 -1.322,-1.475Zm-0.091,2.403l-0.666,0c-0.018,0 -0.036,-0.018 -0.036,-0.036l0,-1.774c0,-0.018 0.018,-0.036 0.036,-0.036l0.666,0c0.46,0 0.775,0.36 0.775,0.928c0,0.558 -0.315,0.918 -0.775,0.918Z" style="fill:white;fill-rule:nonzero;"/>
            <path d="M18.702,347.659c0.837,0 1.403,-0.539 1.403,-1.43l0,-2.449c0,-0.9 -0.566,-1.439 -1.403,-1.439c-0.846,0 -1.403,0.539 -1.403,1.439l0,2.449c0,0.891 0.557,1.43 1.403,1.43Zm0,-0.557c-0.45,0 -0.766,-0.306 -0.766,-0.837l0,-2.512c0,-0.54 0.316,-0.846 0.766,-0.846c0.459,0 0.766,0.306 0.766,0.846l0,2.512c0,0.531 -0.307,0.837 -0.766,0.837Z" style="fill:white;fill-rule:nonzero;"/>
            <path d="M22.59,347.659c0.846,0 1.394,-0.584 1.394,-1.538l0,-3.618c0,-0.054 -0.035,-0.09 -0.089,-0.09l-0.459,0c-0.054,0 -0.089,0.036 -0.089,0.09l0,3.672c0,0.576 -0.298,0.927 -0.757,0.927c-0.45,0 -0.748,-0.351 -0.748,-0.927l0,-3.672c0,-0.054 -0.035,-0.09 -0.089,-0.09l-0.459,0c-0.054,0 -0.089,0.036 -0.089,0.09l0,3.618c0,0.954 0.557,1.538 1.385,1.538Z" style="fill:white;fill-rule:nonzero;"/>
            <path d="M27.674,342.404l-2.716,0c-0.054,0 -0.09,0.036 -0.09,0.09l0,0.386c0,0.054 0.036,0.09 0.09,0.09l0.972,0c0.018,0 0.036,0.018 0.036,0.036l0,4.5c0,0.054 0.035,0.09 0.089,0.09l0.459,0c0.054,0 0.089,-0.036 0.089,-0.09l0,-4.5c0,-0.018 0.018,-0.036 0.036,-0.036l1.035,0c0.054,0 0.09,-0.036 0.09,-0.09l0,-0.386c0,-0.054 -0.036,-0.09 -0.09,-0.09Z" style="fill:white;fill-rule:nonzero;"/>
            <path d="M44.812,203.149l1.847,0c1.237,0 2.027,-0.862 2.027,-2.231l0,-3.936c0,-1.369 -0.79,-2.231 -2.027,-2.231l-1.847,0c-0.072,0 -0.12,0.048 -0.12,0.12l0,8.158c0,0.072 0.048,0.12 0.12,0.12Zm0.73,-0.79l0,-6.818c0,-0.024 0.024,-0.048 0.048,-0.048l1.057,0c0.732,0 1.177,0.588 1.177,1.525l0,3.864c-0.012,0.937 -0.469,1.513 -1.177,1.513l-1.057,0.012c-0.024,0 -0.048,-0.024 -0.048,-0.048Z" style="fill:white;fill-rule:nonzero;"/>
            <path d="M52.191,197.019c-0.576,0 -0.936,0.372 -1.14,0.912c-0.024,0.036 -0.06,0.036 -0.06,-0.012l0,-0.72c0,-0.072 -0.048,-0.12 -0.12,-0.12l-0.612,0c-0.072,0 -0.12,0.048 -0.12,0.12l0,5.83c0,0.072 0.048,0.12 0.12,0.12l0.612,0c0.072,0 0.12,-0.048 0.12,-0.12l0,-3.599c0,-0.815 0.408,-1.451 0.984,-1.487c0.192,-0.036 0.372,-0.012 0.504,0.048c0.084,0.024 0.144,0.012 0.156,-0.072l0.132,-0.612c0.012,-0.06 0,-0.12 -0.06,-0.156c-0.12,-0.072 -0.276,-0.132 -0.516,-0.132Z" style="fill:white;fill-rule:nonzero;"/>
            <path d="M53.613,205.549l0.06,0c1.187,0 1.511,-0.335 1.919,-1.87l1.667,-6.456c0.024,-0.072 -0.012,-0.132 -0.096,-0.132l-0.671,-0.012c-0.072,0 -0.12,0.036 -0.132,0.108l-1.044,4.716c-0.012,0.048 -0.036,0.048 -0.048,0l-1.055,-4.716c-0.012,-0.072 -0.06,-0.108 -0.132,-0.108l-0.648,0c-0.084,0 -0.132,0.048 -0.108,0.132l1.523,5.904c0,0.024 0.012,0.048 0,0.072c-0.252,1.344 -0.467,1.632 -1.187,1.632l-0.06,0c-0.036,0 -0.06,0.048 -0.06,0.12l0,0.49c0,0.072 0.036,0.12 0.072,0.12Z" style="fill:white;fill-rule:nonzero;"/>
            <path d="M57.741,203.149l0.6,0c0.072,0 0.12,-0.048 0.132,-0.108l2.172,-8.158c0.024,-0.084 -0.024,-0.132 -0.108,-0.132l-0.6,0c-0.072,0 -0.12,0.048 -0.132,0.108l-2.172,8.158c-0.024,0.084 0.024,0.132 0.108,0.132Z" style="fill:white;fill-rule:nonzero;"/>
            <path d="M63.015,203.149l0.576,0c0.072,0 0.108,-0.036 0.12,-0.108l0.984,-6.335c0,-0.036 0.036,-0.036 0.048,0l1.008,6.335c0.012,0.072 0.048,0.108 0.12,0.108l0.588,0c0.072,0 0.12,-0.036 0.132,-0.108l1.487,-8.158c0.012,-0.072 -0.024,-0.132 -0.108,-0.132l-0.636,0c-0.072,0 -0.108,0.036 -0.12,0.108l-1.031,6.31c-0.012,0.036 -0.036,0.036 -0.048,0l-1.02,-6.31c-0.012,-0.072 -0.048,-0.108 -0.12,-0.108l-0.552,0c-0.072,0 -0.108,0.036 -0.12,0.108l-0.972,6.31c-0.012,0.036 -0.036,0.036 -0.048,0l-1.127,-6.31c-0.012,-0.072 -0.06,-0.108 -0.132,-0.108l-0.636,0c-0.084,0 -0.12,0.06 -0.108,0.132l1.583,8.158c0.012,0.072 0.06,0.108 0.132,0.108Z" style="fill:white;fill-rule:nonzero;"/>
            <path d="M72.326,200.318l0,-1.5c0,-1.081 -0.718,-1.835 -1.883,-1.835c-1.141,0 -1.871,0.754 -1.871,1.835l0,2.592c0,1.105 0.73,1.835 1.871,1.835c1.057,0 1.716,-0.599 1.847,-1.535c0.012,-0.072 -0.036,-0.132 -0.107,-0.132l-0.599,-0.024c-0.072,0 -0.108,0.036 -0.132,0.108c-0.108,0.492 -0.481,0.841 -1.009,0.841c-0.6,0 -1.021,-0.469 -1.021,-1.141l0,-0.877c0,-0.024 0.024,-0.048 0.048,-0.048l2.736,0c0.072,0 0.12,-0.048 0.12,-0.119Zm-1.883,-2.593c0.624,0 1.045,0.469 1.045,1.153l0,0.805c0,0.024 -0.024,0.048 -0.048,0.048l-1.97,0c-0.024,0 -0.048,-0.024 -0.048,-0.048l0,-0.805c0,-0.684 0.421,-1.153 1.021,-1.153Z" style="fill:white;fill-rule:nonzero;"/>
            <path d="M75.674,197.594l0,-0.396c0,-0.071 -0.048,-0.119 -0.12,-0.119l-0.912,0c-0.024,0 -0.048,-0.024 -0.048,-0.048l0,-1.344c0,-0.072 -0.048,-0.12 -0.12,-0.12l-0.598,0c-0.072,0 -0.12,0.048 -0.12,0.12l0,1.344c0,0.024 -0.024,0.048 -0.048,0.048l-0.468,0c-0.072,0 -0.12,0.048 -0.12,0.119l0,0.396c0,0.071 0.048,0.119 0.12,0.119l0.468,0c0.024,0 0.048,0.024 0.048,0.048l0,3.926c0,1.211 0.587,1.462 1.438,1.462l0.3,0c0.072,0 0.12,-0.048 0.12,-0.12l0,-0.514c0,-0.072 -0.048,-0.12 -0.12,-0.12l-0.12,0c-0.504,0.012 -0.78,-0.192 -0.78,-0.961l0,-3.673c0,-0.024 0.024,-0.048 0.048,-0.048l0.912,0c0.072,0 0.12,-0.048 0.12,-0.119Z" style="fill:white;fill-rule:nonzero;"/>
            <path d="M95.21,307.609l0.458,0c0.054,0 0.09,-0.036 0.09,-0.09l0,-5.004c0,-0.054 -0.036,-0.09 -0.09,-0.09l-0.458,0c-0.054,0 -0.09,0.036 -0.09,0.09l0,5.004c0,0.054 0.036,0.09 0.09,0.09Z" style="fill:white;fill-rule:nonzero;"/>
            <path d="M97.109,307.609l0.449,0c0.054,0 0.09,-0.036 0.09,-0.09l0,-3.753c0,-0.036 0.036,-0.045 0.045,-0.009l1.522,3.78c0.018,0.054 0.054,0.072 0.099,0.072l0.476,0c0.054,0 0.09,-0.036 0.09,-0.09l0,-5.004c0,-0.054 -0.036,-0.09 -0.09,-0.09l-0.449,0c-0.054,0 -0.09,0.036 -0.09,0.09l0,3.744c0,0.036 -0.036,0.045 -0.045,0.009l-1.531,-3.771c-0.018,-0.054 -0.054,-0.072 -0.099,-0.072l-0.467,0c-0.054,0 -0.09,0.036 -0.09,0.09l0,5.004c0,0.054 0.036,0.09 0.09,0.09Z" style="fill:white;fill-rule:nonzero;"/>
            <path d="M96.34,262.494l0,2.187c0,0.018 -0.018,0.036 -0.036,0.036l-1.325,0c-0.018,0 -0.036,-0.018 -0.036,-0.036l0,-2.187c0,-0.054 -0.035,-0.09 -0.089,-0.09l-0.459,0c-0.054,0 -0.089,0.036 -0.089,0.09l0,5.012c0,0.054 0.035,0.09 0.089,0.09l0.459,0c0.054,0 0.089,-0.036 0.089,-0.09l0,-2.196c0,-0.018 0.018,-0.036 0.036,-0.036l1.325,0c0.018,0 0.036,0.018 0.036,0.036l0,2.196c0,0.054 0.035,0.09 0.089,0.09l0.459,0c0.054,0 0.089,-0.036 0.089,-0.09l0,-5.012c0,-0.054 -0.035,-0.09 -0.089,-0.09l-0.459,0c-0.054,0 -0.089,0.036 -0.089,0.09Z" style="fill:white;fill-rule:nonzero;"/>
            <path d="M99.561,262.395l-1.341,0c-0.054,0 -0.089,0.036 -0.089,0.09l0,5.021c0,0.054 0.035,0.09 0.089,0.09l0.459,0c0.054,0 0.089,-0.036 0.089,-0.09l0,-2.169c0,-0.018 0.018,-0.036 0.036,-0.036l0.784,0c0.774,0 1.295,-0.575 1.295,-1.431c0,-0.873 -0.53,-1.475 -1.322,-1.475Zm-0.09,2.403l-0.667,0c-0.018,0 -0.036,-0.018 -0.036,-0.036l0,-1.774c0,-0.018 0.018,-0.036 0.036,-0.036l0.667,0c0.459,0 0.775,0.36 0.775,0.928c0,0.558 -0.316,0.918 -0.775,0.918Z" style="fill:white;fill-rule:nonzero;"/>
            <path d="M56.259,248.149l1.241,0c0.838,0 1.377,-0.547 1.377,-1.385l0,-2.412c0,-0.847 -0.539,-1.394 -1.377,-1.394l-1.241,0c-0.054,0 -0.09,0.035 -0.09,0.089l0,5.013c0,0.054 0.036,0.089 0.09,0.089Zm0.548,-0.592l0,-3.998c0,-0.018 0.018,-0.036 0.036,-0.036l0.648,0c0.46,0 0.748,0.334 0.748,0.856l0,2.34c-0.009,0.531 -0.298,0.865 -0.748,0.865l-0.648,0.009c-0.018,0 -0.036,-0.018 -0.036,-0.036Z" style="fill:white;fill-rule:nonzero;"/>
            <path d="M60.794,248.149l0.414,0c0.054,0 0.081,-0.027 0.09,-0.081l0.621,-3.805c0.009,-0.027 0.027,-0.027 0.036,0l0.63,3.805c0.009,0.054 0.036,0.081 0.09,0.081l0.432,0c0.054,0 0.09,-0.027 0.099,-0.081l0.99,-5.011c0.009,-0.054 -0.018,-0.099 -0.081,-0.099l-0.477,0c-0.054,0 -0.09,0.027 -0.099,0.081l-0.639,3.842c-0.009,0.027 -0.027,0.027 -0.036,0l-0.639,-3.842c-0.009,-0.054 -0.045,-0.081 -0.099,-0.081l-0.378,0c-0.054,0 -0.081,0.027 -0.09,0.081l-0.621,3.842c-0.009,0.027 -0.027,0.036 -0.036,0.009l-0.692,-3.851c-0.009,-0.054 -0.045,-0.081 -0.099,-0.081l-0.486,0c-0.063,0 -0.09,0.036 -0.081,0.099l1.052,5.011c0.009,0.054 0.045,0.081 0.099,0.081Z" style="fill:white;fill-rule:nonzero;"/>
            <path d="M93.702,347.659c0.837,0 1.403,-0.539 1.403,-1.43l0,-2.449c0,-0.9 -0.566,-1.439 -1.403,-1.439c-0.846,0 -1.403,0.539 -1.403,1.439l0,2.449c0,0.891 0.557,1.43 1.403,1.43Zm0,-0.557c-0.45,0 -0.766,-0.306 -0.766,-0.837l0,-2.512c0,-0.54 0.316,-0.846 0.766,-0.846c0.459,0 0.766,0.306 0.766,0.846l0,2.512c0,0.531 -0.307,0.837 -0.766,0.837Z" style="fill:white;fill-rule:nonzero;"/>
            <path d="M97.59,347.659c0.846,0 1.394,-0.584 1.394,-1.538l0,-3.618c0,-0.054 -0.035,-0.09 -0.089,-0.09l-0.459,0c-0.054,0 -0.089,0.036 -0.089,0.09l0,3.672c0,0.576 -0.298,0.927 -0.757,0.927c-0.45,0 -0.748,-0.351 -0.748,-0.927l0,-3.672c0,-0.054 -0.035,-0.09 -0.089,-0.09l-0.459,0c-0.054,0 -0.089,0.036 -0.089,0.09l0,3.618c0,0.954 0.557,1.538 1.385,1.538Z" style="fill:white;fill-rule:nonzero;"/>
            <path d="M102.674,342.404l-2.716,0c-0.054,0 -0.09,0.036 -0.09,0.09l0,0.386c0,0.054 0.036,0.09 0.09,0.09l0.972,0c0.018,0 0.036,0.018 0.036,0.036l0,4.5c0,0.054 0.035,0.09 0.089,0.09l0.459,0c0.054,0 0.089,-0.036 0.089,-0.09l0,-4.5c0,-0.018 0.018,-0.036 0.036,-0.036l1.035,0c0.054,0 0.09,-0.036 0.09,-0.09l0,-0.386c0,-0.054 -0.036,-0.09 -0.09,-0.09Z" style="fill:white;fill-rule:nonzero;"/>
            <path d="M13.573,94.999l3.527,0c0.072,0 0.12,-0.048 0.12,-0.12l0,-0.502c0,-0.072 -0.048,-0.12 -0.12,-0.12l-2.748,0c-0.024,0 -0.048,-0.024 -0.048,-0.048l0,-7.488c0,-0.072 -0.048,-0.12 -0.12,-0.12l-0.611,0c-0.072,0 -0.12,0.048 -0.12,0.12l0,8.158c0,0.072 0.048,0.12 0.12,0.12Z" style="fill:white;fill-rule:nonzero;"/>
            <path d="M19.824,95.095c1.153,0 1.896,-0.73 1.896,-1.835l0,-2.592c0,-1.081 -0.743,-1.835 -1.896,-1.835c-1.152,0 -1.883,0.754 -1.883,1.835l0,2.592c0,1.105 0.731,1.835 1.883,1.835Zm0,-0.742c-0.612,0 -1.032,-0.468 -1.032,-1.141l0,-2.484c0,-0.685 0.42,-1.153 1.032,-1.153c0.613,0 1.045,0.468 1.045,1.153l0,2.484c0,0.673 -0.432,1.141 -1.045,1.141Z" style="fill:white;fill-rule:nonzero;"/>
            <path d="M23.833,94.999l0.588,0c0.072,0 0.12,-0.036 0.132,-0.108l0.864,-4.392c0.012,-0.048 0.036,-0.048 0.048,0l0.887,4.392c0.012,0.072 0.06,0.108 0.132,0.108l0.612,0c0.072,0 0.12,-0.036 0.132,-0.108l1.272,-5.818c0.012,-0.084 -0.024,-0.132 -0.108,-0.132l-0.576,-0.012c-0.072,0 -0.12,0.036 -0.132,0.108l-0.888,4.678c-0.012,0.035 -0.036,0.035 -0.048,0l-0.888,-4.678c-0.012,-0.072 -0.06,-0.108 -0.132,-0.108l-0.539,0c-0.072,0 -0.12,0.036 -0.132,0.108l-0.876,4.666c-0.012,0.036 -0.036,0.036 -0.048,0l-0.876,-4.666c-0.012,-0.072 -0.06,-0.108 -0.132,-0.108l-0.588,0c-0.084,0 -0.12,0.048 -0.108,0.132l1.272,5.829c0.012,0.073 0.06,0.109 0.132,0.109Z" style="fill:white;fill-rule:nonzero;"/>
            <path d="M33.312,90.667c-0.048,-1.068 -0.659,-1.834 -1.619,-1.834c-0.493,0 -0.913,0.203 -1.189,0.587c-0.036,0.035 -0.06,0.012 -0.06,-0.024l0,-0.348c0,-0.071 -0.048,-0.119 -0.12,-0.119l-0.611,0c-0.072,0 -0.12,0.048 -0.12,0.12l0,8.158c0,0.072 0.048,0.12 0.12,0.12l0.611,0c0.072,0 0.12,-0.048 0.12,-0.12l0,-2.664c0,-0.036 0.024,-0.06 0.06,-0.024c0.276,0.384 0.696,0.576 1.189,0.576c0.972,0 1.583,-0.744 1.619,-1.799c0.012,-0.444 0.012,-0.852 0.012,-1.296c0,-0.444 0,-0.888 -0.012,-1.332l0,-0.001Zm-1.872,3.684c-0.576,0 -0.996,-0.48 -0.996,-1.199l0,-2.376c0,-0.721 0.42,-1.201 0.996,-1.201c0.625,0 1.045,0.492 1.033,1.2l0,1.188c0,0.312 0.012,0.768 0,1.188c0.012,0.72 -0.42,1.2 -1.033,1.2Z" style="fill:white;fill-rule:nonzero;"/>
            <path d="M36.421,88.833c-0.997,0 -1.764,0.622 -1.848,1.583c-0.012,0.072 0.036,0.12 0.108,0.12l0.659,0.012c0.072,0 0.12,-0.036 0.132,-0.12c0.048,-0.504 0.444,-0.853 0.925,-0.853c0.624,0 1.008,0.529 1.008,1.321l0,0.469c0,0.024 -0.024,0.048 -0.048,0.048l-0.828,0c-1.189,0 -2.136,0.527 -2.136,1.967c0,1.428 0.947,1.715 1.631,1.715c0.541,0 1.009,-0.167 1.321,-0.575c0.036,-0.036 0.06,-0.024 0.06,0.012l0,0.347c0,0.072 0.048,0.12 0.12,0.12l0.611,0c0.072,0 0.12,-0.048 0.12,-0.12l0,-4.043c0,-1.213 -0.719,-2.003 -1.835,-2.003Zm-0.217,5.52c-0.528,0 -0.936,-0.312 -0.936,-1.045c0,-0.829 0.516,-1.213 1.249,-1.213l0.84,0c0.024,0 0.048,0.024 0.048,0.048l0,1.009c0,0.804 -0.6,1.201 -1.201,1.201Z" style="fill:white;fill-rule:nonzero;"/>
            <path d="M41.173,95.059c1.116,0 1.823,-0.634 1.823,-1.631c0,-1.128 -0.911,-1.512 -1.607,-1.812c-0.625,-0.264 -1.177,-0.492 -1.177,-1.116c0,-0.517 0.36,-0.937 0.948,-0.937c0.589,0 0.973,0.408 0.973,0.937l0,0.096c0,0.06 0.048,0.096 0.12,0.096l0.551,0c0.072,0 0.12,-0.048 0.12,-0.12l0,-0.036c0,-0.997 -0.671,-1.667 -1.776,-1.667c-1.056,0 -1.751,0.622 -1.751,1.655c0,1.14 0.851,1.5 1.523,1.776c0.613,0.264 1.225,0.492 1.225,1.164c0,0.541 -0.372,0.937 -0.96,0.937c-0.613,0 -1.021,-0.408 -1.021,-0.913l0,-0.096c0,-0.06 -0.048,-0.096 -0.12,-0.096l-0.575,0c-0.072,0 -0.12,0.048 -0.12,0.12l0,0.084c0,0.937 0.707,1.559 1.824,1.559Z" style="fill:white;fill-rule:nonzero;"/>
            <path d="M45.361,95.059c1.116,0 1.823,-0.634 1.823,-1.631c0,-1.128 -0.911,-1.512 -1.607,-1.812c-0.625,-0.264 -1.177,-0.492 -1.177,-1.116c0,-0.517 0.36,-0.937 0.948,-0.937c0.589,0 0.973,0.408 0.973,0.937l0,0.096c0,0.06 0.048,0.096 0.12,0.096l0.551,0c0.072,0 0.12,-0.048 0.12,-0.12l0,-0.036c0,-0.997 -0.671,-1.667 -1.776,-1.667c-1.056,0 -1.751,0.622 -1.751,1.655c0,1.14 0.851,1.5 1.523,1.776c0.613,0.264 1.225,0.492 1.225,1.164c0,0.541 -0.372,0.937 -0.96,0.937c-0.613,0 -1.021,-0.408 -1.021,-0.913l0,-0.096c0,-0.06 -0.048,-0.096 -0.12,-0.096l-0.575,0c-0.072,0 -0.12,0.048 -0.12,0.12l0,0.084c0,0.937 0.707,1.559 1.824,1.559Z" style="fill:white;fill-rule:nonzero;"/>
            <path d="M15.409,146.721l0,3.648c0,0.024 -0.024,0.048 -0.048,0.048l-2.138,0c-0.024,0 -0.048,-0.024 -0.048,-0.048l0,-3.648c0,-0.072 -0.048,-0.12 -0.12,-0.12l-0.61,0c-0.072,0 -0.12,0.048 -0.12,0.12l0,8.158c0,0.072 0.048,0.12 0.12,0.12l0.61,0c0.072,0 0.12,-0.048 0.12,-0.12l0,-3.66c0,-0.024 0.024,-0.048 0.048,-0.048l2.138,0c0.024,0 0.048,0.024 0.048,0.048l0,3.66c0,0.072 0.048,0.12 0.12,0.12l0.61,0c0.072,0 0.12,-0.048 0.12,-0.12l0,-8.158c0,-0.072 -0.048,-0.12 -0.12,-0.12l-0.61,0c-0.072,0 -0.12,0.048 -0.12,0.12Z" style="fill:white;fill-rule:nonzero;"/>
            <path d="M18.348,147.847c0.336,0 0.575,-0.263 0.575,-0.635c0,-0.348 -0.239,-0.611 -0.575,-0.611c-0.348,0 -0.599,0.263 -0.599,0.611c0,0.372 0.251,0.635 0.599,0.635Zm-0.311,7.152l0.61,0c0.072,0 0.12,-0.048 0.12,-0.12l0,-5.83c0,-0.072 -0.048,-0.12 -0.12,-0.12l-0.61,0c-0.072,0 -0.12,0.048 -0.12,0.12l0,5.83c0,0.072 0.048,0.12 0.12,0.12Z" style="fill:white;fill-rule:nonzero;"/>
            <path d="M23.041,149.048l0,0.372c0,0.047 -0.024,0.059 -0.06,0.012c-0.277,-0.408 -0.733,-0.599 -1.201,-0.599c-1.02,0 -1.631,0.73 -1.631,1.835l0,2.532c0,1.081 0.599,1.835 1.631,1.835c0.456,0 0.912,-0.191 1.201,-0.611c0.036,-0.035 0.06,-0.011 0.06,0.024l0,0.36c0,1.2 -0.397,1.897 -1.73,1.861c-0.072,0 -0.12,0.048 -0.12,0.12l0,0.515c0,0.071 0.036,0.119 0.12,0.131c1.957,0.084 2.58,-0.958 2.58,-2.555l0,-5.832c0,-0.071 -0.048,-0.119 -0.12,-0.119l-0.61,0c-0.072,0 -0.12,0.047 -0.12,0.119Zm-1.009,5.245c-0.6,0 -1.033,-0.468 -1.033,-1.141l0,-2.424c0,-0.685 0.433,-1.153 1.033,-1.153c0.6,0 1.009,0.468 1.009,1.153l0,2.424c0,0.673 -0.409,1.141 -1.009,1.141Z" style="fill:white;fill-rule:nonzero;"/>
            <path d="M27.396,148.845c-0.48,0 -0.936,0.179 -1.249,0.611c-0.024,0.035 -0.06,0.023 -0.06,-0.012l0,-2.723c0,-0.072 -0.048,-0.12 -0.12,-0.12l-0.61,0c-0.072,0 -0.12,0.048 -0.12,0.12l0,8.158c0,0.072 0.048,0.12 0.12,0.12l0.61,0c0.072,0 0.12,-0.048 0.12,-0.12l0,-3.996c0,-0.804 0.397,-1.296 1.033,-1.296c0.612,0 0.961,0.456 0.961,1.236l0,4.056c0,0.072 0.048,0.12 0.12,0.12l0.61,0c0.072,0 0.12,-0.048 0.12,-0.12l0,-4.128c0,-1.2 -0.551,-1.906 -1.535,-1.906Z" style="fill:white;fill-rule:nonzero;"/>
            <path d="M34.115,150.667c-0.048,-1.068 -0.659,-1.834 -1.619,-1.834c-0.492,0 -0.913,0.203 -1.189,0.587c-0.036,0.035 -0.06,0.012 -0.06,-0.024l0,-0.348c0,-0.071 -0.048,-0.119 -0.119,-0.119l-0.611,0c-0.072,0 -0.12,0.048 -0.12,0.12l0,8.158c0,0.072 0.048,0.12 0.12,0.12l0.611,0c0.071,0 0.119,-0.048 0.119,-0.12l0,-2.664c0,-0.036 0.024,-0.06 0.06,-0.024c0.276,0.384 0.697,0.576 1.189,0.576c0.972,0 1.583,-0.744 1.619,-1.799c0.012,-0.444 0.012,-0.852 0.012,-1.296c0,-0.444 0,-0.888 -0.012,-1.332l0,-0.001Zm-1.871,3.684c-0.576,0 -0.997,-0.48 -0.997,-1.199l0,-2.376c0,-0.721 0.421,-1.201 0.997,-1.201c0.624,0 1.045,0.492 1.033,1.2l0,1.188c0,0.312 0.012,0.768 0,1.188c0.012,0.72 -0.421,1.2 -1.033,1.2Z" style="fill:white;fill-rule:nonzero;"/>
            <path d="M37.224,148.833c-0.997,0 -1.764,0.622 -1.848,1.583c-0.012,0.072 0.036,0.12 0.108,0.12l0.659,0.012c0.072,0 0.12,-0.036 0.132,-0.12c0.048,-0.504 0.445,-0.853 0.925,-0.853c0.624,0 1.009,0.529 1.009,1.321l0,0.469c0,0.024 -0.024,0.048 -0.048,0.048l-0.829,0c-1.189,0 -2.135,0.527 -2.135,1.967c0,1.428 0.946,1.715 1.631,1.715c0.54,0 1.008,-0.167 1.321,-0.575c0.036,-0.036 0.06,-0.024 0.06,0.012l0,0.347c0,0.072 0.048,0.12 0.12,0.12l0.61,0c0.072,0 0.12,-0.048 0.12,-0.12l0,-4.043c0,-1.213 -0.718,-2.003 -1.835,-2.003Zm-0.216,5.52c-0.528,0 -0.937,-0.312 -0.937,-1.045c0,-0.829 0.517,-1.213 1.249,-1.213l0.841,0c0.024,0 0.048,0.024 0.048,0.048l0,1.009c0,0.804 -0.601,1.201 -1.201,1.201Z" style="fill:white;fill-rule:nonzero;"/>
            <path d="M41.976,155.059c1.116,0 1.823,-0.634 1.823,-1.631c0,-1.128 -0.91,-1.512 -1.607,-1.812c-0.624,-0.264 -1.177,-0.492 -1.177,-1.116c0,-0.517 0.361,-0.937 0.949,-0.937c0.588,0 0.973,0.408 0.973,0.937l0,0.096c0,0.06 0.048,0.096 0.12,0.096l0.55,0c0.072,0 0.12,-0.048 0.12,-0.12l0,-0.036c0,-0.997 -0.67,-1.667 -1.775,-1.667c-1.057,0 -1.751,0.622 -1.751,1.655c0,1.14 0.85,1.5 1.523,1.776c0.612,0.264 1.225,0.492 1.225,1.164c0,0.541 -0.373,0.937 -0.961,0.937c-0.612,0 -1.021,-0.408 -1.021,-0.913l0,-0.096c0,-0.06 -0.048,-0.096 -0.12,-0.096l-0.574,0c-0.072,0 -0.12,0.048 -0.12,0.12l0,0.084c0,0.937 0.706,1.559 1.823,1.559Z" style="fill:white;fill-rule:nonzero;"/>
            <path d="M46.164,155.059c1.116,0 1.823,-0.634 1.823,-1.631c0,-1.128 -0.91,-1.512 -1.607,-1.812c-0.624,-0.264 -1.177,-0.492 -1.177,-1.116c0,-0.517 0.361,-0.937 0.949,-0.937c0.588,0 0.973,0.408 0.973,0.937l0,0.096c0,0.06 0.048,0.096 0.12,0.096l0.55,0c0.072,0 0.12,-0.048 0.12,-0.12l0,-0.036c0,-0.997 -0.67,-1.667 -1.775,-1.667c-1.057,0 -1.751,0.622 -1.751,1.655c0,1.14 0.85,1.5 1.523,1.776c0.612,0.264 1.225,0.492 1.225,1.164c0,0.541 -0.373,0.937 -0.961,0.937c-0.612,0 -1.021,-0.408 -1.021,-0.913l0,-0.096c0,-0.06 -0.048,-0.096 -0.12,-0.096l-0.574,0c-0.072,0 -0.12,0.048 -0.12,0.12l0,0.084c0,0.937 0.706,1.559 1.823,1.559Z" style="fill:white;fill-rule:nonzero;"/>
            <path d="M20.086,179.899l4.548,0c0.098,0 0.168,-0.07 0.168,-0.168l0,-1.062c0,-0.098 -0.07,-0.168 -0.168,-0.168l-3.024,0c-0.042,0 -0.07,-0.028 -0.07,-0.07l0,-8.162c0,-0.098 -0.07,-0.168 -0.168,-0.168l-1.286,0c-0.098,0 -0.168,0.07 -0.168,0.168l0,9.462c0,0.098 0.07,0.168 0.168,0.168Z" style="fill:rgb(121,140,115);fill-rule:nonzero;"/>
            <path d="M98.692,179.913l1.342,0c0.112,0 0.182,-0.07 0.14,-0.196l-1.371,-4.214c-0.014,-0.042 0,-0.07 0.042,-0.084c0.797,-0.419 1.273,-1.3 1.273,-2.463c0,-1.695 -1.007,-2.855 -2.505,-2.855l-2.631,0c-0.098,0 -0.168,0.07 -0.168,0.168l0,9.476c0,0.098 0.07,0.168 0.168,0.168l1.286,0c0.098,0 0.168,-0.07 0.168,-0.168l0,-3.99c0,-0.042 0.028,-0.07 0.07,-0.07l0.729,0c0.042,0 0.056,0.028 0.07,0.056l1.205,4.032c0.028,0.084 0.084,0.14 0.182,0.14Zm-2.186,-8.414l0.855,0c0.672,0 1.135,0.56 1.135,1.485c0,0.897 -0.463,1.443 -1.135,1.443l-0.855,0c-0.042,0 -0.07,-0.028 -0.07,-0.07l0,-2.788c0,-0.042 0.028,-0.07 0.07,-0.07Z" style="fill:rgb(121,140,115);fill-rule:nonzero;"/>
            <path d="M75.409,146.721l0,3.648c0,0.024 -0.024,0.048 -0.048,0.048l-2.138,0c-0.024,0 -0.048,-0.024 -0.048,-0.048l0,-3.648c0,-0.072 -0.048,-0.12 -0.12,-0.12l-0.61,0c-0.072,0 -0.12,0.048 -0.12,0.12l0,8.159c0,0.072 0.048,0.12 0.12,0.12l0.61,0c0.072,0 0.12,-0.048 0.12,-0.12l0,-3.66c0,-0.024 0.024,-0.048 0.048,-0.048l2.138,0c0.024,0 0.048,0.024 0.048,0.048l0,3.66c0,0.072 0.048,0.12 0.12,0.12l0.61,0c0.072,0 0.12,-0.048 0.12,-0.12l0,-8.159c0,-0.072 -0.048,-0.12 -0.12,-0.12l-0.61,0c-0.072,0 -0.12,0.048 -0.12,0.12Z" style="fill:white;fill-rule:nonzero;"/>
            <path d="M78.348,147.848c0.336,0 0.575,-0.264 0.575,-0.635c0,-0.348 -0.239,-0.612 -0.575,-0.612c-0.348,0 -0.599,0.264 -0.599,0.612c0,0.371 0.251,0.635 0.599,0.635Zm-0.311,7.152l0.61,0c0.072,0 0.12,-0.048 0.12,-0.12l0,-5.831c0,-0.072 -0.048,-0.12 -0.12,-0.12l-0.61,0c-0.072,0 -0.12,0.048 -0.12,0.12l0,5.831c0,0.072 0.048,0.12 0.12,0.12Z" style="fill:white;fill-rule:nonzero;"/>
            <path d="M83.041,149.049l0,0.371c0,0.048 -0.024,0.06 -0.06,0.012c-0.277,-0.407 -0.733,-0.599 -1.201,-0.599c-1.02,0 -1.631,0.731 -1.631,1.835l0,2.533c0,1.08 0.599,1.835 1.631,1.835c0.456,0 0.912,-0.192 1.201,-0.611c0.036,-0.036 0.06,-0.012 0.06,0.024l0,0.359c0,1.201 -0.397,1.897 -1.73,1.861c-0.072,0 -0.12,0.048 -0.12,0.12l0,0.515c0,0.072 0.036,0.12 0.12,0.132c1.957,0.084 2.58,-0.959 2.58,-2.556l0,-5.831c0,-0.072 -0.048,-0.12 -0.12,-0.12l-0.61,0c-0.072,0 -0.12,0.048 -0.12,0.12Zm-1.009,5.244c-0.6,0 -1.033,-0.468 -1.033,-1.14l0,-2.425c0,-0.684 0.433,-1.152 1.033,-1.152c0.6,0 1.009,0.468 1.009,1.152l0,2.425c0,0.672 -0.409,1.14 -1.009,1.14Z" style="fill:white;fill-rule:nonzero;"/>
            <path d="M87.396,148.845c-0.48,0 -0.936,0.18 -1.249,0.611c-0.024,0.036 -0.06,0.024 -0.06,-0.012l0,-2.723c0,-0.072 -0.048,-0.12 -0.12,-0.12l-0.61,0c-0.072,0 -0.12,0.048 -0.12,0.12l0,8.159c0,0.072 0.048,0.12 0.12,0.12l0.61,0c0.072,0 0.12,-0.048 0.12,-0.12l0,-3.996c0,-0.804 0.397,-1.296 1.033,-1.296c0.612,0 0.961,0.456 0.961,1.236l0,4.056c0,0.072 0.048,0.12 0.12,0.12l0.61,0c0.072,0 0.12,-0.048 0.12,-0.12l0,-4.128c0,-1.2 -0.551,-1.907 -1.535,-1.907Z" style="fill:white;fill-rule:nonzero;"/>
            <path d="M94.115,150.668c-0.048,-1.068 -0.659,-1.835 -1.619,-1.835c-0.492,0 -0.913,0.204 -1.189,0.587c-0.036,0.036 -0.06,0.012 -0.06,-0.024l0,-0.347c0,-0.072 -0.048,-0.12 -0.119,-0.12l-0.611,0c-0.072,0 -0.12,0.048 -0.12,0.12l0,8.159c0,0.072 0.048,0.12 0.12,0.12l0.611,0c0.071,0 0.119,-0.048 0.119,-0.12l0,-2.664c0,-0.036 0.024,-0.06 0.06,-0.024c0.276,0.384 0.697,0.576 1.189,0.576c0.972,0 1.583,-0.744 1.619,-1.8c0.012,-0.444 0.012,-0.851 0.012,-1.295c0,-0.444 0,-0.888 -0.012,-1.332l0,-0.001Zm-1.871,3.684c-0.576,0 -0.997,-0.48 -0.997,-1.2l0,-2.375c0,-0.721 0.421,-1.201 0.997,-1.201c0.624,0 1.045,0.492 1.033,1.2l0,1.188c0,0.312 0.012,0.768 0,1.188c0.012,0.72 -0.421,1.2 -1.033,1.2Z" style="fill:white;fill-rule:nonzero;"/>
            <path d="M97.224,148.833c-0.997,0 -1.764,0.623 -1.848,1.584c-0.012,0.072 0.036,0.12 0.108,0.12l0.659,0.012c0.072,0 0.12,-0.036 0.132,-0.12c0.048,-0.505 0.445,-0.853 0.925,-0.853c0.624,0 1.009,0.528 1.009,1.321l0,0.468c0,0.024 -0.024,0.048 -0.048,0.048l-0.829,0c-1.189,0 -2.135,0.527 -2.135,1.968c0,1.428 0.946,1.715 1.631,1.715c0.54,0 1.008,-0.168 1.321,-0.575c0.036,-0.036 0.06,-0.024 0.06,0.012l0,0.347c0,0.072 0.048,0.12 0.12,0.12l0.61,0c0.072,0 0.12,-0.048 0.12,-0.12l0,-4.043c0,-1.213 -0.718,-2.004 -1.835,-2.004Zm-0.216,5.52c-0.528,0 -0.937,-0.312 -0.937,-1.044c0,-0.829 0.517,-1.213 1.249,-1.213l0.841,0c0.024,0 0.048,0.024 0.048,0.048l0,1.009c0,0.804 -0.601,1.2 -1.201,1.2Z" style="fill:white;fill-rule:nonzero;"/>
            <path d="M101.976,155.06c1.116,0 1.823,-0.635 1.823,-1.631c0,-1.128 -0.91,-1.512 -1.607,-1.812c-0.624,-0.264 -1.177,-0.492 -1.177,-1.117c0,-0.516 0.361,-0.936 0.949,-0.936c0.588,0 0.973,0.408 0.973,0.936l0,0.096c0,0.06 0.048,0.096 0.12,0.096l0.55,0c0.072,0 0.12,-0.048 0.12,-0.12l0,-0.036c0,-0.996 -0.67,-1.667 -1.775,-1.667c-1.057,0 -1.751,0.623 -1.751,1.655c0,1.141 0.85,1.501 1.523,1.777c0.612,0.264 1.225,0.492 1.225,1.164c0,0.54 -0.373,0.936 -0.961,0.936c-0.612,0 -1.021,-0.408 -1.021,-0.912l0,-0.096c0,-0.06 -0.048,-0.096 -0.12,-0.096l-0.574,0c-0.072,0 -0.12,0.048 -0.12,0.12l0,0.084c0,0.936 0.706,1.559 1.823,1.559Z" style="fill:white;fill-rule:nonzero;"/>
            <path d="M106.164,155.06c1.116,0 1.823,-0.635 1.823,-1.631c0,-1.128 -0.91,-1.512 -1.607,-1.812c-0.624,-0.264 -1.177,-0.492 -1.177,-1.117c0,-0.516 0.361,-0.936 0.949,-0.936c0.588,0 0.973,0.408 0.973,0.936l0,0.096c0,0.06 0.048,0.096 0.12,0.096l0.55,0c0.072,0 0.12,-0.048 0.12,-0.12l0,-0.036c0,-0.996 -0.67,-1.667 -1.775,-1.667c-1.057,0 -1.751,0.623 -1.751,1.655c0,1.141 0.85,1.501 1.523,1.777c0.612,0.264 1.225,0.492 1.225,1.164c0,0.54 -0.373,0.936 -0.961,0.936c-0.612,0 -1.021,-0.408 -1.021,-0.912l0,-0.096c0,-0.06 -0.048,-0.096 -0.12,-0.096l-0.574,0c-0.072,0 -0.12,0.048 -0.12,0.12l0,0.084c0,0.936 0.706,1.559 1.823,1.559Z" style="fill:white;fill-rule:nonzero;"/>
            <path d="M73.447,94.999l3.526,0c0.072,0 0.12,-0.048 0.12,-0.12l0,-0.502c0,-0.072 -0.048,-0.12 -0.12,-0.12l-2.748,0c-0.024,0 -0.048,-0.024 -0.048,-0.048l0,-7.488c0,-0.072 -0.048,-0.12 -0.12,-0.12l-0.61,0c-0.072,0 -0.12,0.048 -0.12,0.12l0,8.158c0,0.072 0.048,0.12 0.12,0.12Z" style="fill:white;fill-rule:nonzero;"/>
            <path d="M79.698,95.095c1.153,0 1.895,-0.73 1.895,-1.835l0,-2.592c0,-1.081 -0.742,-1.835 -1.895,-1.835c-1.153,0 -1.883,0.754 -1.883,1.835l0,2.592c0,1.105 0.73,1.835 1.883,1.835Zm0,-0.742c-0.612,0 -1.033,-0.468 -1.033,-1.141l0,-2.484c0,-0.685 0.421,-1.153 1.033,-1.153c0.612,0 1.045,0.468 1.045,1.153l0,2.484c0,0.673 -0.433,1.141 -1.045,1.141Z" style="fill:white;fill-rule:nonzero;"/>
            <path d="M83.706,94.999l0.588,0c0.072,0 0.12,-0.036 0.132,-0.108l0.864,-4.392c0.012,-0.048 0.036,-0.048 0.048,0l0.888,4.392c0.012,0.072 0.06,0.108 0.132,0.108l0.612,0c0.072,0 0.12,-0.036 0.132,-0.108l1.271,-5.818c0.012,-0.084 -0.024,-0.132 -0.108,-0.132l-0.576,-0.012c-0.072,0 -0.12,0.036 -0.132,0.108l-0.887,4.678c-0.012,0.035 -0.036,0.035 -0.048,0l-0.888,-4.678c-0.012,-0.072 -0.06,-0.108 -0.132,-0.108l-0.54,0c-0.072,0 -0.12,0.036 -0.132,0.108l-0.876,4.666c-0.012,0.036 -0.036,0.036 -0.048,0l-0.875,-4.666c-0.012,-0.072 -0.06,-0.108 -0.132,-0.108l-0.588,0c-0.084,0 -0.12,0.048 -0.108,0.132l1.271,5.829c0.012,0.073 0.06,0.109 0.132,0.109Z" style="fill:white;fill-rule:nonzero;"/>
            <path d="M93.185,90.667c-0.048,-1.068 -0.659,-1.834 -1.619,-1.834c-0.492,0 -0.913,0.203 -1.189,0.587c-0.036,0.035 -0.06,0.012 -0.06,-0.024l0,-0.348c0,-0.071 -0.048,-0.119 -0.119,-0.119l-0.611,0c-0.072,0 -0.12,0.048 -0.12,0.12l0,8.158c0,0.072 0.048,0.12 0.12,0.12l0.611,0c0.071,0 0.119,-0.048 0.119,-0.12l0,-2.664c0,-0.036 0.024,-0.06 0.06,-0.024c0.276,0.384 0.697,0.576 1.189,0.576c0.972,0 1.583,-0.744 1.619,-1.799c0.012,-0.444 0.012,-0.852 0.012,-1.296c0,-0.444 0,-0.888 -0.012,-1.332l0,-0.001Zm-1.871,3.684c-0.576,0 -0.997,-0.48 -0.997,-1.199l0,-2.376c0,-0.721 0.421,-1.201 0.997,-1.201c0.624,0 1.045,0.492 1.033,1.2l0,1.188c0,0.312 0.012,0.768 0,1.188c0.012,0.72 -0.421,1.2 -1.033,1.2Z" style="fill:white;fill-rule:nonzero;"/>
            <path d="M96.294,88.833c-0.997,0 -1.764,0.622 -1.848,1.583c-0.012,0.072 0.036,0.12 0.108,0.12l0.659,0.012c0.072,0 0.12,-0.036 0.132,-0.12c0.048,-0.504 0.445,-0.853 0.925,-0.853c0.624,0 1.009,0.529 1.009,1.321l0,0.469c0,0.024 -0.024,0.048 -0.048,0.048l-0.829,0c-1.189,0 -2.135,0.527 -2.135,1.967c0,1.428 0.946,1.715 1.631,1.715c0.54,0 1.008,-0.167 1.321,-0.575c0.036,-0.036 0.06,-0.024 0.06,0.012l0,0.347c0,0.072 0.048,0.12 0.12,0.12l0.61,0c0.072,0 0.12,-0.048 0.12,-0.12l0,-4.043c0,-1.213 -0.718,-2.003 -1.835,-2.003Zm-0.216,5.52c-0.528,0 -0.937,-0.312 -0.937,-1.045c0,-0.829 0.517,-1.213 1.249,-1.213l0.841,0c0.024,0 0.048,0.024 0.048,0.048l0,1.009c0,0.804 -0.601,1.201 -1.201,1.201Z" style="fill:white;fill-rule:nonzero;"/>
            <path d="M101.046,95.059c1.116,0 1.823,-0.634 1.823,-1.631c0,-1.128 -0.91,-1.512 -1.607,-1.812c-0.624,-0.264 -1.177,-0.492 -1.177,-1.116c0,-0.517 0.361,-0.937 0.949,-0.937c0.588,0 0.973,0.408 0.973,0.937l0,0.096c0,0.06 0.048,0.096 0.12,0.096l0.55,0c0.072,0 0.12,-0.048 0.12,-0.12l0,-0.036c0,-0.997 -0.67,-1.667 -1.775,-1.667c-1.057,0 -1.751,0.622 -1.751,1.655c0,1.14 0.85,1.5 1.523,1.776c0.612,0.264 1.225,0.492 1.225,1.164c0,0.541 -0.373,0.937 -0.961,0.937c-0.612,0 -1.021,-0.408 -1.021,-0.913l0,-0.096c0,-0.06 -0.048,-0.096 -0.12,-0.096l-0.574,0c-0.072,0 -0.12,0.048 -0.12,0.12l0,0.084c0,0.937 0.706,1.559 1.823,1.559Z" style="fill:white;fill-rule:nonzero;"/>
            <path d="M105.234,95.059c1.116,0 1.823,-0.634 1.823,-1.631c0,-1.128 -0.91,-1.512 -1.607,-1.812c-0.624,-0.264 -1.177,-0.492 -1.177,-1.116c0,-0.517 0.361,-0.937 0.949,-0.937c0.588,0 0.973,0.408 0.973,0.937l0,0.096c0,0.06 0.048,0.096 0.12,0.096l0.55,0c0.072,0 0.12,-0.048 0.12,-0.12l0,-0.036c0,-0.997 -0.67,-1.667 -1.775,-1.667c-1.057,0 -1.751,0.622 -1.751,1.655c0,1.14 0.85,1.5 1.523,1.776c0.612,0.264 1.225,0.492 1.225,1.164c0,0.541 -0.373,0.937 -0.961,0.937c-0.612,0 -1.021,-0.408 -1.021,-0.913l0,-0.096c0,-0.06 -0.048,-0.096 -0.12,-0.096l-0.574,0c-0.072,0 -0.12,0.048 -0.12,0.12l0,0.084c0,0.937 0.706,1.559 1.823,1.559Z" style="fill:white;fill-rule:nonzero;"/>
            <path d="M0,24.6l26.25,0" style="fill:none;stroke:rgb(128,128,128);stroke-width:0.7px;stroke-linecap:round;stroke-linejoin:round;"/>
            <path d="M93.75,24.6l26.25,0" style="fill:none;stroke:rgb(128,128,128);stroke-width:0.7px;stroke-linecap:round;stroke-linejoin:round;"/>
        </g>
    </g>
</svg>
