<?xml version="1.0" encoding="UTF-8" standalone="no"?>
<!DOCTYPE svg PUBLIC "-//W3C//DTD SVG 1.1//EN" "http://www.w3.org/Graphics/SVG/1.1/DTD/svg11.dtd">
<svg width="90px" height="380px" version="1.1" xmlns="http://www.w3.org/2000/svg" xmlns:xlink="http://www.w3.org/1999/xlink" xml:space="preserve" xmlns:serif="http://www.serif.com/" style="fill-rule:evenodd;clip-rule:evenodd;stroke-linecap:round;stroke-linejoin:round;stroke-miterlimit:1.5;">
    <rect id="Capacitor-Stereo-Dark" serif:id="Capacitor Stereo Dark" x="0" y="0" width="90" height="380" style="fill:none;"/>
    <clipPath id="_clip1">
        <rect x="0" y="0" width="90" height="380"/>
    </clipPath>
    <g clip-path="url(#_clip1)">
        <g id="Background">
            <path id="bright" d="M90,379.995l0,-379.995l-90,0l0,379.995l90,0Z" style="fill:rgb(54,69,74);"/>
            <circle cx="63.75" cy="325" r="14" style="fill:rgb(51,51,51);"/>
            <circle cx="26.25" cy="325" r="14" style="fill:rgb(51,51,51);"/>
            <path d="M73.001,24.6l16.999,0" style="fill:none;stroke:rgb(128,128,128);stroke-width:0.7px;"/>
            <path d="M0,24.6l16.958,0" style="fill:none;stroke:rgb(128,128,128);stroke-width:0.7px;"/>
            <g id="knobBgMediumThree">
                <path d="M73.661,195c5.474,-5.466 5.474,-14.329 0,-19.795c-5.47,-5.463 -14.352,-5.463 -19.822,0c-5.474,5.466 -5.474,14.329 0,19.795l9.911,-9.898l9.911,9.898Z" style="fill:none;stroke:rgb(128,128,128);stroke-width:0.7px;stroke-linecap:butt;stroke-linejoin:miter;"/>
            </g>
        </g>
        <g id="Lables">
            <g id="Branding">
                <path d="M27.355,362.45l0.545,0c0.049,0 0.07,-0.028 0.056,-0.077l-0.72,-2.163c-0.007,-0.021 0,-0.028 0.014,-0.042c0.419,-0.182 0.685,-0.637 0.685,-1.232c0,-0.826 -0.482,-1.393 -1.204,-1.393l-1.252,0c-0.042,0 -0.07,0.028 -0.07,0.07l0,4.767c0,0.042 0.028,0.07 0.07,0.07l0.531,0c0.042,0 0.07,-0.028 0.07,-0.07l0,-2.079c0,-0.014 0.014,-0.028 0.028,-0.028l0.483,0c0.014,0 0.021,0 0.028,0.021l0.652,2.1c0.014,0.035 0.049,0.056 0.084,0.056Zm-1.247,-4.326l0.518,0c0.379,0 0.638,0.315 0.638,0.819c0,0.49 -0.259,0.805 -0.638,0.805l-0.518,0c-0.014,0 -0.028,-0.014 -0.028,-0.028l0,-1.568c0,-0.014 0.014,-0.028 0.028,-0.028Z" style="fill:rgb(199,206,201);fill-rule:nonzero;"/>
                <path d="M31.043,362.45l0.546,0c0.049,0 0.07,-0.035 0.063,-0.077l-1.057,-4.76c-0.007,-0.042 -0.035,-0.063 -0.077,-0.063l-0.615,0c-0.042,0 -0.07,0.021 -0.077,0.063l-1.043,4.76c-0.007,0.042 0.014,0.077 0.063,0.077l0.532,0c0.042,0 0.07,-0.021 0.077,-0.063l0.161,-0.805c0,-0.014 0.021,-0.028 0.035,-0.028l1.126,0c0.014,0 0.035,0.014 0.035,0.028l0.154,0.805c0.007,0.042 0.035,0.063 0.077,0.063Zm-1.308,-1.456l0.475,-2.394c0.007,-0.028 0.021,-0.028 0.028,0l0.462,2.394c0,0.014 -0.007,0.028 -0.021,0.028l-0.923,0c-0.014,0 -0.021,-0.014 -0.021,-0.028Z" style="fill:rgb(199,206,201);fill-rule:nonzero;"/>
                <path d="M33.717,362.506c0.764,0 1.267,-0.497 1.267,-1.267l0,-0.105c0,-0.042 -0.028,-0.07 -0.07,-0.07l-0.531,-0.028c-0.042,0 -0.07,0.028 -0.07,0.07l0,0.182c0,0.378 -0.238,0.637 -0.596,0.637c-0.357,0 -0.588,-0.259 -0.588,-0.637l0,-2.576c0,-0.385 0.231,-0.637 0.588,-0.637c0.358,0 0.596,0.252 0.596,0.637l0,0.182c0,0.042 0.028,0.07 0.07,0.07l0.531,-0.028c0.042,0 0.07,-0.028 0.07,-0.07l0,-0.112c0,-0.77 -0.503,-1.26 -1.267,-1.26c-0.756,0 -1.259,0.49 -1.259,1.26l0,2.485c0,0.77 0.503,1.267 1.259,1.267Z" style="fill:rgb(199,206,201);fill-rule:nonzero;"/>
                <path d="M36.14,362.45l0.531,0c0.042,0 0.07,-0.028 0.07,-0.07l0,-1.575c0,-0.014 0,-0.028 0.007,-0.035l0.357,-0.567c0.014,-0.014 0.028,-0.014 0.035,0.007l0.91,2.184c0.014,0.042 0.042,0.056 0.077,0.056l0.581,0c0.049,0 0.077,-0.035 0.056,-0.084l-1.169,-2.744c-0.007,-0.014 -0.007,-0.028 0,-0.042l1.078,-1.946c0.028,-0.049 0.007,-0.084 -0.049,-0.084l-0.574,0c-0.035,0 -0.063,0.021 -0.084,0.049l-1.19,2.128c-0.014,0.028 -0.035,0.021 -0.035,-0.007l0,-2.1c0,-0.042 -0.028,-0.07 -0.07,-0.07l-0.531,0c-0.042,0 -0.07,0.028 -0.07,0.07l0,4.76c0,0.042 0.028,0.07 0.07,0.07Z" style="fill:rgb(199,206,201);fill-rule:nonzero;"/>
                <path d="M40.438,362.45l0.497,0c0.042,0 0.063,-0.014 0.07,-0.063l0.503,-3.311c0,-0.021 0.021,-0.021 0.028,0l0.532,3.311c0.007,0.042 0.028,0.063 0.07,0.063l0.497,0c0.042,0 0.07,-0.021 0.077,-0.063l0.882,-4.76c0.007,-0.042 -0.014,-0.077 -0.063,-0.077l-0.546,0c-0.042,0 -0.063,0.021 -0.07,0.063l-0.518,3.283c-0.007,0.021 -0.021,0.021 -0.028,0l-0.539,-3.283c-0.007,-0.042 -0.028,-0.063 -0.07,-0.063l-0.469,0c-0.042,0 -0.063,0.014 -0.07,0.063l-0.503,3.283c-0.007,0.021 -0.021,0.021 -0.028,0l-0.567,-3.283c-0.007,-0.042 -0.035,-0.063 -0.077,-0.063l-0.553,0c-0.049,0 -0.07,0.035 -0.063,0.077l0.931,4.76c0.007,0.042 0.035,0.063 0.077,0.063Z" style="fill:rgb(199,206,201);fill-rule:nonzero;"/>
                <path d="M44.624,362.45l0.531,0c0.042,0 0.07,-0.028 0.07,-0.07l0,-4.76c0,-0.042 -0.028,-0.07 -0.07,-0.07l-0.531,0c-0.042,0 -0.07,0.028 -0.07,0.07l0,4.76c0,0.042 0.028,0.07 0.07,0.07Z" style="fill:rgb(199,206,201);fill-rule:nonzero;"/>
                <path d="M46.52,362.45l0.525,0c0.042,0 0.07,-0.028 0.07,-0.07l-0.007,-3.073c0,-0.028 0.028,-0.028 0.035,0l1.246,3.087c0.014,0.042 0.042,0.056 0.077,0.056l0.546,0c0.042,0 0.07,-0.028 0.07,-0.07l0,-4.76c0,-0.042 -0.028,-0.07 -0.07,-0.07l-0.525,0c-0.042,0 -0.07,0.028 -0.07,0.07l0,3.066c0,0.028 -0.028,0.035 -0.035,0.007l-1.246,-3.087c-0.014,-0.042 -0.042,-0.056 -0.077,-0.056l-0.539,0c-0.042,0 -0.07,0.028 -0.07,0.07l0,4.76c0,0.042 0.028,0.07 0.07,0.07Z" style="fill:rgb(199,206,201);fill-rule:nonzero;"/>
                <path d="M50.371,362.45l1.147,0c0.771,0 1.267,-0.511 1.267,-1.323l0,-2.254c0,-0.812 -0.496,-1.323 -1.267,-1.323l-1.147,0c-0.042,0 -0.07,0.028 -0.07,0.07l0,4.76c0,0.042 0.028,0.07 0.07,0.07Zm0.601,-0.609l0,-3.682c0,-0.014 0.014,-0.028 0.028,-0.028l0.511,0c0.365,0 0.596,0.301 0.596,0.777l0,2.184c-0.007,0.476 -0.238,0.77 -0.596,0.77l-0.511,0.007c-0.014,0 -0.028,-0.014 -0.028,-0.028Z" style="fill:rgb(199,206,201);fill-rule:nonzero;"/>
                <path d="M55.109,362.506c0.771,0 1.288,-0.504 1.288,-1.281l0,-2.443c0,-0.777 -0.517,-1.288 -1.288,-1.288c-0.763,0 -1.273,0.511 -1.273,1.288l0,2.443c0,0.777 0.51,1.281 1.273,1.281Zm0,-0.581c-0.364,0 -0.602,-0.273 -0.602,-0.672l0,-2.506c0,-0.399 0.238,-0.672 0.602,-0.672c0.372,0 0.617,0.273 0.617,0.672l0,2.506c0,0.399 -0.245,0.672 -0.617,0.672Z" style="fill:rgb(199,206,201);fill-rule:nonzero;"/>
                <path d="M58.19,362.45l0.497,0c0.042,0 0.063,-0.014 0.07,-0.063l0.503,-3.311c0,-0.021 0.021,-0.021 0.028,0l0.532,3.311c0.007,0.042 0.028,0.063 0.07,0.063l0.497,0c0.042,0 0.07,-0.021 0.077,-0.063l0.882,-4.76c0.007,-0.042 -0.014,-0.077 -0.063,-0.077l-0.546,0c-0.042,0 -0.063,0.021 -0.07,0.063l-0.518,3.283c-0.007,0.021 -0.021,0.021 -0.028,0l-0.539,-3.283c-0.007,-0.042 -0.028,-0.063 -0.07,-0.063l-0.469,0c-0.042,0 -0.063,0.014 -0.07,0.063l-0.503,3.283c-0.007,0.021 -0.021,0.021 -0.028,0l-0.567,-3.283c-0.007,-0.042 -0.035,-0.063 -0.077,-0.063l-0.553,0c-0.049,0 -0.07,0.035 -0.063,0.077l0.931,4.76c0.007,0.042 0.035,0.063 0.077,0.063Z" style="fill:rgb(199,206,201);fill-rule:nonzero;"/>
                <path d="M63.341,362.506c0.729,0 1.246,-0.504 1.246,-1.295c0,-0.672 -0.371,-0.966 -1.084,-1.498c-0.54,-0.399 -0.743,-0.588 -0.743,-0.987c0,-0.42 0.231,-0.651 0.546,-0.651c0.344,0 0.582,0.28 0.582,0.7l0,0.189c0,0.042 0.028,0.07 0.07,0.07l0.517,0c0.042,0 0.07,-0.028 0.07,-0.07l0,-0.175c0,-0.777 -0.489,-1.295 -1.239,-1.295c-0.707,0 -1.21,0.469 -1.21,1.232c0,0.763 0.503,1.134 1.042,1.533c0.505,0.371 0.785,0.567 0.785,0.994c0,0.406 -0.252,0.672 -0.582,0.672c-0.336,0 -0.574,-0.273 -0.574,-0.707l0,-0.154c0,-0.042 -0.028,-0.07 -0.07,-0.07l-0.517,0c-0.042,0 -0.07,0.028 -0.07,0.07l0,0.189c0,0.749 0.496,1.253 1.231,1.253Z" style="fill:rgb(199,206,201);fill-rule:nonzero;"/>
                <path d="M23.982,25c1.368,0 2.279,-0.887 2.279,-2.255l0,-0.144c0,-0.084 -0.06,-0.144 -0.144,-0.144l-1.115,-0.048c-0.084,0 -0.144,0.06 -0.144,0.144l0,0.3c0,0.564 -0.348,0.948 -0.876,0.948c-0.517,0 -0.865,-0.384 -0.865,-0.948l0,-4.297c0,-0.564 0.348,-0.948 0.865,-0.948c0.528,0 0.876,0.384 0.876,0.948l0,0.3c0,0.096 0.06,0.144 0.144,0.144l1.115,-0.048c0.084,0 0.144,-0.072 0.144,-0.156l0,-0.144c0,-1.38 -0.911,-2.243 -2.279,-2.243c-1.357,0 -2.256,0.863 -2.256,2.243l0,4.093c0,1.368 0.899,2.255 2.256,2.255Z" style="fill:white;fill-rule:nonzero;"/>
                <path d="M30.949,24.904l1.116,0c0.096,0 0.156,-0.048 0.132,-0.156l-1.776,-8.111c-0.012,-0.084 -0.072,-0.132 -0.156,-0.132l-1.284,0c-0.084,0 -0.144,0.049 -0.156,0.133l-1.765,8.11c-0.024,0.108 0.024,0.156 0.12,0.156l1.105,0c0.084,0 0.144,-0.036 0.156,-0.132l0.24,-1.272c0,-0.036 0.036,-0.048 0.072,-0.048l1.74,0c0.036,0 0.072,0.024 0.072,0.06l0.228,1.26c0.012,0.096 0.072,0.132 0.156,0.132Zm-2.028,-2.602l0.696,-3.626c0.012,-0.048 0.06,-0.048 0.072,0l0.66,3.625c0.012,0.048 -0.024,0.061 -0.06,0.061l-1.308,0c-0.036,0 -0.072,-0.012 -0.06,-0.06Z" style="fill:white;fill-rule:nonzero;"/>
                <path d="M35.694,16.494l-2.256,0c-0.084,0 -0.144,0.059 -0.144,0.143l0,8.123c0,0.084 0.06,0.144 0.144,0.144l1.103,0c0.084,0 0.144,-0.06 0.144,-0.144l0,-3.336c0,-0.036 0.024,-0.06 0.06,-0.06l1.021,0c1.236,0 2.075,-0.947 2.075,-2.399c0,-1.465 -0.863,-2.471 -2.147,-2.471Zm-0.228,3.779l-0.721,0c-0.036,0 -0.06,-0.024 -0.06,-0.06l0,-2.461c0,-0.036 0.024,-0.06 0.06,-0.06l0.721,0c0.588,0 0.984,0.492 0.984,1.309c0,0.792 -0.396,1.272 -0.984,1.272Z" style="fill:white;fill-rule:nonzero;"/>
                <path d="M42.109,24.904l1.116,0c0.096,0 0.156,-0.048 0.132,-0.156l-1.776,-8.111c-0.012,-0.084 -0.072,-0.132 -0.156,-0.132l-1.284,0c-0.084,0 -0.144,0.049 -0.156,0.133l-1.765,8.11c-0.024,0.108 0.024,0.156 0.12,0.156l1.105,0c0.084,0 0.144,-0.036 0.156,-0.132l0.24,-1.272c0,-0.036 0.036,-0.048 0.072,-0.048l1.74,0c0.036,0 0.072,0.024 0.072,0.06l0.228,1.26c0.012,0.096 0.072,0.132 0.156,0.132Zm-2.028,-2.602l0.696,-3.626c0.012,-0.048 0.06,-0.048 0.072,0l0.66,3.625c0.012,0.048 -0.024,0.061 -0.06,0.061l-1.308,0c-0.036,0 -0.072,-0.012 -0.06,-0.06Z" style="fill:white;fill-rule:nonzero;"/>
                <path d="M46.386,25c1.368,0 2.279,-0.887 2.279,-2.255l0,-0.144c0,-0.084 -0.06,-0.144 -0.144,-0.144l-1.115,-0.048c-0.084,0 -0.144,0.06 -0.144,0.144l0,0.3c0,0.564 -0.348,0.948 -0.876,0.948c-0.517,0 -0.865,-0.384 -0.865,-0.948l0,-4.297c0,-0.564 0.348,-0.948 0.865,-0.948c0.528,0 0.876,0.384 0.876,0.948l0,0.3c0,0.096 0.06,0.144 0.144,0.144l1.115,-0.048c0.084,0 0.144,-0.072 0.144,-0.156l0,-0.144c0,-1.38 -0.911,-2.243 -2.279,-2.243c-1.357,0 -2.256,0.863 -2.256,2.243l0,4.093c0,1.368 0.899,2.255 2.256,2.255Z" style="fill:white;fill-rule:nonzero;"/>
                <path d="M50.022,24.904l1.103,0c0.084,0 0.144,-0.06 0.144,-0.144l0,-8.11c0,-0.084 -0.06,-0.145 -0.144,-0.145l-1.103,0c-0.084,0 -0.144,0.061 -0.144,0.145l0,8.11c0,0.084 0.06,0.144 0.144,0.144Z" style="fill:white;fill-rule:nonzero;"/>
                <path d="M56.993,16.505l-4.475,0c-0.084,0 -0.144,0.06 -0.144,0.144l0,0.911c0,0.084 0.06,0.144 0.144,0.144l1.44,0c0.036,0 0.06,0.024 0.06,0.06l0,6.996c0,0.084 0.06,0.144 0.144,0.144l1.103,0c0.084,0 0.144,-0.06 0.144,-0.144l0,-6.996c0,-0.036 0.024,-0.06 0.06,-0.06l1.524,0c0.084,0 0.144,-0.06 0.144,-0.144l0,-0.911c0,-0.084 -0.06,-0.143 -0.144,-0.143Z" style="fill:white;fill-rule:nonzero;"/>
                <path d="M60.09,25c1.38,0 2.303,-0.899 2.303,-2.279l0,-4.033c0,-1.38 -0.923,-2.278 -2.303,-2.278c-1.381,0 -2.292,0.898 -2.292,2.278l0,4.033c0,1.38 0.911,2.279 2.292,2.279Zm0,-1.198c-0.553,0 -0.901,-0.421 -0.901,-1.021l0,-4.153c0,-0.6 0.348,-1.02 0.901,-1.02c0.552,0 0.912,0.42 0.912,1.02l0,4.153c0,0.6 -0.36,1.021 -0.912,1.021Z" style="fill:white;fill-rule:nonzero;"/>
                <path d="M66.99,24.904l1.151,0c0.096,0 0.156,-0.06 0.12,-0.168l-1.175,-3.612c-0.012,-0.036 0,-0.06 0.036,-0.072c0.683,-0.359 1.091,-1.115 1.091,-2.111c0,-1.453 -0.863,-2.448 -2.147,-2.448l-2.256,0c-0.084,0 -0.144,0.06 -0.144,0.144l0,8.123c0,0.084 0.06,0.144 0.144,0.144l1.103,0c0.084,0 0.144,-0.06 0.144,-0.144l0,-3.42c0,-0.036 0.024,-0.06 0.06,-0.06l0.624,0c0.037,0 0.049,0.024 0.061,0.048l1.032,3.456c0.024,0.072 0.072,0.12 0.156,0.12Zm-1.873,-7.212l0.733,0c0.576,0 0.972,0.48 0.972,1.273c0,0.768 -0.396,1.237 -0.972,1.237l-0.733,0c-0.036,0 -0.06,-0.025 -0.06,-0.061l0,-2.389c0,-0.036 0.024,-0.06 0.06,-0.06Z" style="fill:white;fill-rule:nonzero;"/>
                <path d="M36.514,35.39c0.858,0 1.552,-0.629 1.669,-1.628c0.108,-0.855 -0.287,-1.215 -1.082,-1.891c-0.65,-0.54 -0.903,-0.81 -0.831,-1.386c0.082,-0.639 0.47,-0.981 0.93,-0.981c0.506,0 0.795,0.423 0.714,1.062l-0.027,0.234c-0.009,0.054 0.027,0.09 0.072,0.09l0.44,0c0.054,0 0.09,-0.036 0.099,-0.09l0.027,-0.225c0.117,-0.981 -0.378,-1.628 -1.261,-1.628c-0.822,0 -1.49,0.566 -1.607,1.52c-0.118,0.954 0.406,1.404 1.038,1.926c0.587,0.505 0.948,0.784 0.876,1.423c-0.082,0.621 -0.506,1.017 -0.984,1.017c-0.497,0 -0.795,-0.414 -0.714,-1.062l0.027,-0.189c0,-0.054 -0.027,-0.09 -0.081,-0.09l-0.433,0c-0.054,0 -0.09,0.036 -0.099,0.09l-0.027,0.216c-0.117,0.954 0.397,1.592 1.254,1.592Z" style="fill:rgb(199,206,201);fill-rule:nonzero;"/>
                <path d="M40.941,31.151l0.036,-0.296c0.009,-0.054 -0.018,-0.09 -0.072,-0.09l-0.665,0c-0.018,0 -0.027,-0.018 -0.027,-0.036l0.126,-1.008c0,-0.054 -0.027,-0.09 -0.081,-0.09l-0.433,0c-0.054,0 -0.099,0.036 -0.099,0.09l-0.126,1.008c0,0.018 -0.026,0.036 -0.044,0.036l-0.333,0c-0.054,0 -0.099,0.036 -0.099,0.09l-0.036,0.296c-0.009,0.054 0.018,0.09 0.072,0.09l0.342,0c0.018,0 0.036,0.018 0.027,0.036l-0.36,2.944c-0.108,0.908 0.297,1.097 0.917,1.097l0.216,0c0.054,0 0.09,-0.036 0.099,-0.09l0.045,-0.386c0.009,-0.054 -0.027,-0.09 -0.072,-0.09l-0.09,0c-0.369,0.009 -0.549,-0.144 -0.477,-0.72l0.333,-2.755c0.009,-0.018 0.027,-0.036 0.045,-0.036l0.657,0c0.054,0 0.099,-0.036 0.099,-0.09Z" style="fill:rgb(199,206,201);fill-rule:nonzero;"/>
                <path d="M44.109,33.194l0.135,-1.125c0.099,-0.81 -0.35,-1.376 -1.196,-1.376c-0.838,0 -1.44,0.566 -1.539,1.376l-0.234,1.944c-0.099,0.829 0.36,1.377 1.187,1.377c0.775,0 1.315,-0.449 1.486,-1.151c0.018,-0.054 -0.009,-0.1 -0.063,-0.1l-0.432,-0.018c-0.054,0 -0.081,0.027 -0.108,0.082c-0.126,0.369 -0.423,0.63 -0.81,0.63c-0.433,0 -0.703,-0.351 -0.64,-0.856l0.081,-0.657c0,-0.018 0.027,-0.036 0.045,-0.036l1.99,0c0.053,0 0.089,-0.036 0.098,-0.09Zm-1.133,-1.944c0.45,0 0.72,0.351 0.657,0.865l-0.081,0.603c0,0.018 -0.018,0.036 -0.036,0.036l-1.432,0c-0.018,0 -0.036,-0.018 -0.036,-0.036l0.081,-0.603c0.063,-0.514 0.406,-0.865 0.847,-0.865Z" style="fill:rgb(199,206,201);fill-rule:nonzero;"/>
                <path d="M46.818,30.72c-0.414,0 -0.711,0.279 -0.918,0.684c-0.009,0.027 -0.036,0.027 -0.036,-0.009l0.072,-0.54c0,-0.054 -0.027,-0.09 -0.081,-0.09l-0.44,0c-0.054,0 -0.099,0.036 -0.099,0.09l-0.54,4.373c-0.009,0.054 0.027,0.09 0.072,0.09l0.45,0c0.054,0 0.09,-0.036 0.099,-0.09l0.333,-2.699c0.072,-0.612 0.431,-1.089 0.845,-1.116c0.153,-0.027 0.279,-0.009 0.369,0.036c0.054,0.018 0.099,0.009 0.117,-0.054l0.153,-0.459c0.018,-0.045 0.009,-0.09 -0.027,-0.117c-0.09,-0.054 -0.198,-0.099 -0.369,-0.099Z" style="fill:rgb(199,206,201);fill-rule:nonzero;"/>
                <path d="M50.184,33.194l0.135,-1.125c0.099,-0.81 -0.35,-1.376 -1.196,-1.376c-0.838,0 -1.44,0.566 -1.539,1.376l-0.234,1.944c-0.099,0.829 0.36,1.377 1.187,1.377c0.775,0 1.315,-0.449 1.486,-1.151c0.018,-0.054 -0.009,-0.1 -0.063,-0.1l-0.432,-0.018c-0.054,0 -0.081,0.027 -0.108,0.082c-0.126,0.369 -0.423,0.63 -0.81,0.63c-0.433,0 -0.703,-0.351 -0.64,-0.856l0.081,-0.657c0,-0.018 0.027,-0.036 0.045,-0.036l1.99,0c0.053,0 0.089,-0.036 0.098,-0.09Zm-1.133,-1.944c0.45,0 0.72,0.351 0.657,0.865l-0.081,0.603c0,0.018 -0.018,0.036 -0.036,0.036l-1.432,0c-0.018,0 -0.036,-0.018 -0.036,-0.036l0.081,-0.603c0.063,-0.514 0.406,-0.865 0.847,-0.865Z" style="fill:rgb(199,206,201);fill-rule:nonzero;"/>
                <path d="M52.101,35.39c0.847,0 1.45,-0.548 1.549,-1.376l0.242,-1.945c0.099,-0.81 -0.368,-1.376 -1.205,-1.376c-0.847,0 -1.449,0.566 -1.548,1.376l-0.234,1.945c-0.099,0.828 0.36,1.376 1.196,1.376Zm0.073,-0.557c-0.442,0 -0.712,-0.351 -0.649,-0.855l0.234,-1.864c0.063,-0.513 0.406,-0.864 0.856,-0.864c0.441,0 0.711,0.351 0.648,0.864l-0.225,1.864c-0.063,0.504 -0.423,0.855 -0.864,0.855Z" style="fill:rgb(199,206,201);fill-rule:nonzero;"/>
            </g>
            <g id="knobMediumBgThree">
                <path d="M60.555,80.888c8.592,-8.58 8.592,-22.49 0,-31.07c-8.586,-8.574 -22.527,-8.574 -31.112,0c-8.592,8.58 -8.592,22.49 0,31.07l15.556,-15.535l15.556,15.535Z" style="fill:none;stroke:rgb(128,128,128);stroke-width:0.7px;stroke-linecap:butt;stroke-linejoin:miter;"/>
            </g>
            <g id="knobMediumBgThree1" serif:id="knobMediumBgThree">
                <path d="M60.555,140.888c8.592,-8.58 8.592,-22.49 0,-31.07c-8.586,-8.574 -22.527,-8.574 -31.112,0c-8.592,8.58 -8.592,22.49 0,31.07l15.556,-15.535l15.556,15.535Z" style="fill:none;stroke:rgb(128,128,128);stroke-width:0.7px;stroke-linecap:butt;stroke-linejoin:miter;"/>
            </g>
            <path d="M21.062,307.591l0.458,0c0.054,0 0.09,-0.036 0.09,-0.09l0,-5.004c0,-0.054 -0.036,-0.09 -0.09,-0.09l-0.458,0c-0.054,0 -0.09,0.036 -0.09,0.09l0,5.004c0,0.054 0.036,0.09 0.09,0.09Z" style="fill:white;fill-rule:nonzero;"/>
            <path d="M22.961,307.591l0.449,0c0.054,0 0.09,-0.036 0.09,-0.09l0,-3.753c0,-0.036 0.036,-0.045 0.045,-0.009l1.522,3.78c0.018,0.054 0.054,0.072 0.099,0.072l0.476,0c0.054,0 0.09,-0.036 0.09,-0.09l0,-5.004c0,-0.054 -0.036,-0.09 -0.09,-0.09l-0.449,0c-0.054,0 -0.09,0.036 -0.09,0.09l0,3.744c0,0.036 -0.036,0.045 -0.045,0.009l-1.531,-3.771c-0.018,-0.054 -0.054,-0.072 -0.099,-0.072l-0.467,0c-0.054,0 -0.09,0.036 -0.09,0.09l0,5.004c0,0.054 0.036,0.09 0.09,0.09Z" style="fill:white;fill-rule:nonzero;"/>
            <path d="M29.063,307.591l2.375,0c0.054,0 0.09,-0.035 0.09,-0.089l0,-0.378c0,-0.054 -0.036,-0.089 -0.09,-0.089l-1.791,0c-0.018,0 -0.036,-0.018 -0.036,-0.036l0,-4.509c0,-0.054 -0.036,-0.09 -0.09,-0.09l-0.458,0c-0.054,0 -0.09,0.036 -0.09,0.09l0,5.012c0,0.054 0.036,0.089 0.09,0.089Z" style="fill:white;fill-rule:nonzero;"/>
            <path d="M13.502,267.596l2.375,0c0.054,0 0.09,-0.036 0.09,-0.09l0,-0.377c0,-0.054 -0.036,-0.09 -0.09,-0.09l-1.791,0c-0.018,0 -0.036,-0.018 -0.036,-0.036l0,-4.509c0,-0.054 -0.036,-0.09 -0.09,-0.09l-0.458,0c-0.054,0 -0.09,0.036 -0.09,0.09l0,5.012c0,0.054 0.036,0.09 0.09,0.09Z" style="fill:white;fill-rule:nonzero;"/>
            <path d="M18.046,267.659c0.838,0 1.404,-0.539 1.404,-1.43l0,-2.449c0,-0.9 -0.566,-1.439 -1.404,-1.439c-0.846,0 -1.403,0.539 -1.403,1.439l0,2.449c0,0.891 0.557,1.43 1.403,1.43Zm0,-0.557c-0.45,0 -0.765,-0.306 -0.765,-0.837l0,-2.512c0,-0.54 0.315,-0.846 0.765,-0.846c0.46,0 0.766,0.306 0.766,0.846l0,2.512c0,0.531 -0.306,0.837 -0.766,0.837Z" style="fill:white;fill-rule:nonzero;"/>
            <path d="M21.395,267.596l0.414,0c0.054,0 0.081,-0.027 0.09,-0.081l0.621,-3.805c0.009,-0.027 0.026,-0.027 0.035,0l0.63,3.805c0.009,0.054 0.036,0.081 0.09,0.081l0.432,0c0.054,0 0.09,-0.027 0.099,-0.081l0.99,-5.011c0.009,-0.054 -0.018,-0.099 -0.081,-0.099l-0.477,0c-0.054,0 -0.09,0.027 -0.099,0.081l-0.639,3.841c-0.009,0.027 -0.027,0.027 -0.036,0l-0.639,-3.841c-0.009,-0.054 -0.045,-0.081 -0.099,-0.081l-0.377,0c-0.054,0 -0.081,0.027 -0.09,0.081l-0.621,3.841c-0.009,0.027 -0.027,0.036 -0.036,0.009l-0.693,-3.85c-0.009,-0.054 -0.045,-0.081 -0.099,-0.081l-0.486,0c-0.063,0 -0.09,0.036 -0.081,0.099l1.053,5.011c0.009,0.054 0.045,0.081 0.099,0.081Z" style="fill:white;fill-rule:nonzero;"/>
            <path d="M27.173,262.395l-1.341,0c-0.054,0 -0.09,0.036 -0.09,0.09l0,5.021c0,0.054 0.036,0.09 0.09,0.09l0.458,0c0.054,0 0.09,-0.036 0.09,-0.09l0,-2.169c0,-0.018 0.018,-0.036 0.036,-0.036l0.784,0c0.774,0 1.295,-0.575 1.295,-1.431c0,-0.873 -0.53,-1.475 -1.322,-1.475Zm-0.091,2.403l-0.666,0c-0.018,0 -0.036,-0.018 -0.036,-0.036l0,-1.774c0,-0.018 0.018,-0.036 0.036,-0.036l0.666,0c0.46,0 0.775,0.36 0.775,0.928c0,0.558 -0.315,0.918 -0.775,0.918Z" style="fill:white;fill-rule:nonzero;"/>
            <path d="M31.577,267.596l0.477,0c0.063,0 0.09,-0.036 0.072,-0.099l-1.196,-5.012c-0.009,-0.045 -0.045,-0.081 -0.099,-0.081l-0.549,0c-0.054,0 -0.09,0.036 -0.099,0.081l-1.178,5.012c-0.018,0.054 0.009,0.099 0.072,0.099l0.459,0c0.054,0 0.09,-0.027 0.099,-0.081l0.189,-0.855c0,-0.018 0.027,-0.036 0.045,-0.036l1.385,0c0.017,0 0.044,0.018 0.044,0.036l0.18,0.855c0.009,0.054 0.045,0.081 0.099,0.081Zm-1.618,-1.529l0.593,-2.71c0.009,-0.036 0.027,-0.036 0.036,0l0.585,2.71c0.009,0.018 -0.009,0.036 -0.027,0.036l-1.16,0c-0.018,0 -0.036,-0.018 -0.027,-0.036Z" style="fill:white;fill-rule:nonzero;"/>
            <path d="M34.381,267.659c0.802,0 1.377,-0.53 1.377,-1.367c0,-0.711 -0.413,-1.026 -1.223,-1.585c-0.631,-0.441 -0.883,-0.639 -0.883,-1.062c0,-0.486 0.297,-0.747 0.693,-0.747c0.442,0 0.73,0.324 0.73,0.819l0,0.126c0,0.054 0.036,0.09 0.09,0.09l0.449,0c0.054,0 0.09,-0.036 0.09,-0.09l0,-0.144c0,-0.801 -0.539,-1.358 -1.359,-1.358c-0.774,0 -1.322,0.485 -1.322,1.295c0,0.792 0.539,1.17 1.169,1.594c0.568,0.378 0.928,0.612 0.928,1.098c0,0.468 -0.315,0.783 -0.739,0.783c-0.423,0 -0.72,-0.324 -0.72,-0.837l0,-0.09c0,-0.054 -0.036,-0.09 -0.09,-0.09l-0.449,0c-0.054,0 -0.09,0.036 -0.09,0.09l0,0.153c0,0.783 0.548,1.322 1.349,1.322Z" style="fill:white;fill-rule:nonzero;"/>
            <path d="M37.999,267.659c0.802,0 1.377,-0.53 1.377,-1.367c0,-0.711 -0.413,-1.026 -1.223,-1.585c-0.631,-0.441 -0.883,-0.639 -0.883,-1.062c0,-0.486 0.297,-0.747 0.693,-0.747c0.442,0 0.73,0.324 0.73,0.819l0,0.126c0,0.054 0.036,0.09 0.09,0.09l0.449,0c0.054,0 0.09,-0.036 0.09,-0.09l0,-0.144c0,-0.801 -0.539,-1.358 -1.359,-1.358c-0.774,0 -1.322,0.485 -1.322,1.295c0,0.792 0.539,1.17 1.169,1.594c0.568,0.378 0.928,0.612 0.928,1.098c0,0.468 -0.315,0.783 -0.739,0.783c-0.423,0 -0.72,-0.324 -0.72,-0.837l0,-0.09c0,-0.054 -0.036,-0.09 -0.09,-0.09l-0.449,0c-0.054,0 -0.09,0.036 -0.09,0.09l0,0.153c0,0.783 0.548,1.322 1.349,1.322Z" style="fill:white;fill-rule:nonzero;"/>
            <path d="M13.673,227.596l1.241,0c0.838,0 1.377,-0.548 1.377,-1.385l0,-2.413c0,-0.846 -0.539,-1.394 -1.377,-1.394l-1.241,0c-0.054,0 -0.09,0.036 -0.09,0.09l0,5.012c0,0.054 0.036,0.09 0.09,0.09Zm0.548,-0.593l0,-3.997c0,-0.018 0.018,-0.036 0.036,-0.036l0.648,0c0.46,0 0.748,0.333 0.748,0.855l0,2.341c-0.009,0.531 -0.297,0.864 -0.748,0.864l-0.648,0.009c-0.018,0 -0.036,-0.018 -0.036,-0.036Z" style="fill:white;fill-rule:nonzero;"/>
            <path d="M19.694,227.596l0.467,0c0.063,0 0.09,-0.036 0.072,-0.099l-0.836,-2.277c-0.009,-0.027 0,-0.036 0.027,-0.045c0.494,-0.188 0.791,-0.674 0.791,-1.313c0,-0.865 -0.539,-1.467 -1.322,-1.467l-1.341,0c-0.054,0 -0.09,0.036 -0.09,0.09l0,5.021c0,0.054 0.036,0.09 0.09,0.09l0.458,0c0.054,0 0.09,-0.036 0.09,-0.09l0,-2.205c0,-0.018 0.018,-0.036 0.036,-0.036l0.63,0c0.018,0 0.027,0 0.036,0.027l0.784,2.232c0.018,0.054 0.063,0.072 0.108,0.072Zm-1.558,-4.644l0.666,0c0.46,0 0.775,0.36 0.775,0.91c0,0.549 -0.315,0.891 -0.775,0.891l-0.666,0c-0.018,0 -0.036,-0.018 -0.036,-0.036l0,-1.729c0,-0.018 0.018,-0.036 0.036,-0.036Z" style="fill:white;fill-rule:nonzero;"/>
            <path d="M22.052,227.587l0.458,0c0.054,0 0.09,-0.036 0.09,-0.09l0,-2.133c0,-0.009 0,-0.036 0.009,-0.045l1.089,-2.807c0.027,-0.063 0,-0.108 -0.063,-0.108l-0.486,0c-0.045,0 -0.09,0.018 -0.108,0.072l-0.738,2.079c-0.009,0.027 -0.044,0.027 -0.053,0l-0.738,-2.079c-0.018,-0.054 -0.063,-0.072 -0.108,-0.072l-0.486,0c-0.063,0 -0.09,0.045 -0.063,0.108l1.098,2.807c0.009,0.009 0.009,0.036 0.009,0.045l0,2.133c0,0.054 0.036,0.09 0.09,0.09Z" style="fill:white;fill-rule:nonzero;"/>
            <path d="M24.477,227.596l0.45,0c0.054,0 0.09,-0.036 0.099,-0.081l1.629,-6.119c0.018,-0.063 -0.018,-0.099 -0.081,-0.099l-0.45,0c-0.054,0 -0.09,0.036 -0.099,0.081l-1.629,6.119c-0.018,0.063 0.018,0.099 0.081,0.099Z" style="fill:white;fill-rule:nonzero;"/>
            <path d="M28.487,227.596l0.414,0c0.054,0 0.081,-0.027 0.09,-0.081l0.621,-3.805c0.009,-0.027 0.026,-0.027 0.035,0l0.63,3.805c0.009,0.054 0.036,0.081 0.09,0.081l0.432,0c0.054,0 0.09,-0.027 0.099,-0.081l0.99,-5.011c0.009,-0.054 -0.018,-0.099 -0.081,-0.099l-0.477,0c-0.054,0 -0.09,0.027 -0.099,0.081l-0.639,3.841c-0.009,0.027 -0.027,0.027 -0.036,0l-0.639,-3.841c-0.009,-0.054 -0.045,-0.081 -0.099,-0.081l-0.377,0c-0.054,0 -0.081,0.027 -0.09,0.081l-0.621,3.841c-0.009,0.027 -0.027,0.036 -0.036,0.009l-0.693,-3.85c-0.009,-0.054 -0.045,-0.081 -0.099,-0.081l-0.486,0c-0.063,0 -0.09,0.036 -0.081,0.099l1.053,5.011c0.009,0.054 0.045,0.081 0.099,0.081Z" style="fill:white;fill-rule:nonzero;"/>
            <path d="M35.452,222.88l0,-0.377c0,-0.054 -0.036,-0.09 -0.09,-0.09l-2.393,0c-0.054,0 -0.09,0.036 -0.09,0.09l0,5.003c0,0.054 0.036,0.09 0.09,0.09l2.393,0c0.054,0 0.09,-0.036 0.09,-0.09l0,-0.377c0,-0.054 -0.036,-0.09 -0.09,-0.09l-1.809,0c-0.018,0 -0.036,-0.018 -0.036,-0.036l0,-1.693c0,-0.018 0.018,-0.036 0.036,-0.036l1.116,0c0.054,0 0.09,-0.036 0.09,-0.09l0,-0.377c0,-0.054 -0.036,-0.09 -0.09,-0.09l-1.116,0c-0.018,0 -0.036,-0.018 -0.036,-0.036l0,-1.675c0,-0.018 0.018,-0.036 0.036,-0.036l1.809,0c0.054,0 0.09,-0.036 0.09,-0.09Z" style="fill:white;fill-rule:nonzero;"/>
            <path d="M38.953,222.404l-2.717,0c-0.054,0 -0.09,0.036 -0.09,0.09l0,0.386c0,0.054 0.036,0.09 0.09,0.09l0.972,0c0.018,0 0.036,0.018 0.036,0.036l0,4.5c0,0.054 0.036,0.09 0.09,0.09l0.458,0c0.054,0 0.09,-0.036 0.09,-0.09l0,-4.5c0,-0.018 0.018,-0.036 0.036,-0.036l1.035,0c0.054,0 0.09,-0.036 0.09,-0.09l0,-0.386c0,-0.054 -0.036,-0.09 -0.09,-0.09Z" style="fill:white;fill-rule:nonzero;"/>
            <path d="M19.693,347.659c0.838,0 1.404,-0.539 1.404,-1.43l0,-2.449c0,-0.9 -0.566,-1.439 -1.404,-1.439c-0.846,0 -1.403,0.539 -1.403,1.439l0,2.449c0,0.891 0.557,1.43 1.403,1.43Zm0,-0.557c-0.45,0 -0.765,-0.306 -0.765,-0.837l0,-2.512c0,-0.54 0.315,-0.846 0.765,-0.846c0.46,0 0.766,0.306 0.766,0.846l0,2.512c0,0.531 -0.306,0.837 -0.766,0.837Z" style="fill:white;fill-rule:nonzero;"/>
            <path d="M23.581,347.659c0.847,0 1.395,-0.584 1.395,-1.538l0,-3.618c0,-0.054 -0.036,-0.09 -0.09,-0.09l-0.458,0c-0.054,0 -0.09,0.036 -0.09,0.09l0,3.672c0,0.576 -0.297,0.927 -0.757,0.927c-0.45,0 -0.747,-0.351 -0.747,-0.927l0,-3.672c0,-0.054 -0.036,-0.09 -0.09,-0.09l-0.458,0c-0.054,0 -0.09,0.036 -0.09,0.09l0,3.618c0,0.954 0.557,1.538 1.385,1.538Z" style="fill:white;fill-rule:nonzero;"/>
            <path d="M28.666,342.404l-2.717,0c-0.054,0 -0.09,0.036 -0.09,0.09l0,0.386c0,0.054 0.036,0.09 0.09,0.09l0.972,0c0.018,0 0.036,0.018 0.036,0.036l0,4.5c0,0.054 0.036,0.09 0.09,0.09l0.458,0c0.054,0 0.09,-0.036 0.09,-0.09l0,-4.5c0,-0.018 0.018,-0.036 0.036,-0.036l1.035,0c0.054,0 0.09,-0.036 0.09,-0.09l0,-0.386c0,-0.054 -0.036,-0.09 -0.09,-0.09Z" style="fill:white;fill-rule:nonzero;"/>
            <path d="M31.745,347.596l2.375,0c0.054,0 0.09,-0.036 0.09,-0.09l0,-0.377c0,-0.054 -0.036,-0.09 -0.09,-0.09l-1.791,0c-0.018,0 -0.036,-0.018 -0.036,-0.036l0,-4.509c0,-0.054 -0.036,-0.09 -0.09,-0.09l-0.458,0c-0.054,0 -0.09,0.036 -0.09,0.09l0,5.012c0,0.054 0.036,0.09 0.09,0.09Z" style="fill:white;fill-rule:nonzero;"/>
            <path d="M58.451,307.6l0.458,0c0.054,0 0.09,-0.036 0.09,-0.09l0,-5.004c0,-0.054 -0.036,-0.09 -0.09,-0.09l-0.458,0c-0.054,0 -0.09,0.036 -0.09,0.09l0,5.004c0,0.054 0.036,0.09 0.09,0.09Z" style="fill:white;fill-rule:nonzero;"/>
            <path d="M60.35,307.6l0.449,0c0.054,0 0.09,-0.036 0.09,-0.09l0,-3.753c0,-0.036 0.036,-0.045 0.045,-0.009l1.522,3.78c0.018,0.054 0.054,0.072 0.099,0.072l0.476,0c0.054,0 0.09,-0.036 0.09,-0.09l0,-5.004c0,-0.054 -0.036,-0.09 -0.09,-0.09l-0.449,0c-0.054,0 -0.09,0.036 -0.09,0.09l0,3.744c0,0.036 -0.036,0.045 -0.045,0.009l-1.531,-3.771c-0.018,-0.054 -0.054,-0.072 -0.099,-0.072l-0.467,0c-0.054,0 -0.09,0.036 -0.09,0.09l0,5.004c0,0.054 0.036,0.09 0.09,0.09Z" style="fill:white;fill-rule:nonzero;"/>
            <path d="M68.594,307.6l0.467,0c0.063,0 0.09,-0.036 0.072,-0.099l-0.836,-2.276c-0.009,-0.027 0,-0.036 0.027,-0.045c0.495,-0.189 0.791,-0.675 0.791,-1.314c0,-0.865 -0.539,-1.466 -1.322,-1.466l-1.341,0c-0.054,0 -0.09,0.035 -0.09,0.089l0,5.021c0,0.054 0.036,0.09 0.09,0.09l0.458,0c0.054,0 0.09,-0.036 0.09,-0.09l0,-2.205c0,-0.018 0.018,-0.036 0.036,-0.036l0.631,0c0.018,0 0.027,0 0.036,0.027l0.783,2.232c0.018,0.054 0.063,0.072 0.108,0.072Zm-1.558,-4.644l0.667,0c0.459,0 0.774,0.361 0.774,0.91c0,0.549 -0.315,0.892 -0.774,0.892l-0.667,0c-0.018,0 -0.036,-0.018 -0.036,-0.036l0,-1.73c0,-0.018 0.018,-0.036 0.036,-0.036Z" style="fill:white;fill-rule:nonzero;"/>
            <path d="M52.253,262.494l0,2.187c0,0.018 -0.018,0.036 -0.036,0.036l-1.324,0c-0.018,0 -0.036,-0.018 -0.036,-0.036l0,-2.187c0,-0.054 -0.036,-0.09 -0.09,-0.09l-0.458,0c-0.054,0 -0.09,0.036 -0.09,0.09l0,5.012c0,0.054 0.036,0.09 0.09,0.09l0.458,0c0.054,0 0.09,-0.036 0.09,-0.09l0,-2.196c0,-0.018 0.018,-0.036 0.036,-0.036l1.324,0c0.018,0 0.036,0.018 0.036,0.036l0,2.196c0,0.054 0.036,0.09 0.09,0.09l0.458,0c0.054,0 0.09,-0.036 0.09,-0.09l0,-5.012c0,-0.054 -0.036,-0.09 -0.09,-0.09l-0.458,0c-0.054,0 -0.09,0.036 -0.09,0.09Z" style="fill:white;fill-rule:nonzero;"/>
            <path d="M54.242,267.596l0.458,0c0.054,0 0.09,-0.036 0.09,-0.09l0,-5.004c0,-0.054 -0.036,-0.09 -0.09,-0.09l-0.458,0c-0.054,0 -0.09,0.036 -0.09,0.09l0,5.004c0,0.054 0.036,0.09 0.09,0.09Z" style="fill:white;fill-rule:nonzero;"/>
            <path d="M57.319,267.659c0.829,0 1.386,-0.503 1.386,-1.358l0,-1.233c0,-0.054 -0.036,-0.09 -0.09,-0.09l-1.16,0c-0.054,0 -0.09,0.036 -0.09,0.09l0,0.287c0,0.054 0.036,0.09 0.09,0.09l0.576,0c0.018,0 0.036,0.018 0.036,0.036l0,0.829c0,0.504 -0.297,0.792 -0.748,0.792c-0.45,0 -0.747,-0.288 -0.747,-0.792l0,-2.62c0,-0.504 0.297,-0.783 0.747,-0.783c0.451,0 0.748,0.279 0.748,0.783l0,0.234c0,0.055 0.036,0.091 0.09,0.091l0.458,0c0.054,0 0.09,-0.036 0.09,-0.091l0,-0.216c0,-0.855 -0.557,-1.367 -1.386,-1.367c-0.828,0 -1.385,0.503 -1.385,1.358l0,2.602c0,0.855 0.557,1.358 1.385,1.358Z" style="fill:white;fill-rule:nonzero;"/>
            <path d="M61.838,262.494l0,2.187c0,0.018 -0.018,0.036 -0.036,0.036l-1.324,0c-0.018,0 -0.036,-0.018 -0.036,-0.036l0,-2.187c0,-0.054 -0.036,-0.09 -0.09,-0.09l-0.458,0c-0.054,0 -0.09,0.036 -0.09,0.09l0,5.012c0,0.054 0.036,0.09 0.09,0.09l0.458,0c0.054,0 0.09,-0.036 0.09,-0.09l0,-2.196c0,-0.018 0.018,-0.036 0.036,-0.036l1.324,0c0.018,0 0.036,0.018 0.036,0.036l0,2.196c0,0.054 0.036,0.09 0.09,0.09l0.458,0c0.054,0 0.09,-0.036 0.09,-0.09l0,-5.012c0,-0.054 -0.036,-0.09 -0.09,-0.09l-0.458,0c-0.054,0 -0.09,0.036 -0.09,0.09Z" style="fill:white;fill-rule:nonzero;"/>
            <path d="M65.06,262.395l-1.341,0c-0.054,0 -0.09,0.036 -0.09,0.09l0,5.021c0,0.054 0.036,0.09 0.09,0.09l0.458,0c0.054,0 0.09,-0.036 0.09,-0.09l0,-2.169c0,-0.018 0.018,-0.036 0.036,-0.036l0.784,0c0.774,0 1.295,-0.575 1.295,-1.431c0,-0.873 -0.53,-1.475 -1.322,-1.475Zm-0.091,2.403l-0.666,0c-0.018,0 -0.036,-0.018 -0.036,-0.036l0,-1.774c0,-0.018 0.018,-0.036 0.036,-0.036l0.666,0c0.46,0 0.775,0.36 0.775,0.928c0,0.558 -0.315,0.918 -0.775,0.918Z" style="fill:white;fill-rule:nonzero;"/>
            <path d="M69.464,267.596l0.477,0c0.063,0 0.09,-0.036 0.072,-0.099l-1.196,-5.012c-0.009,-0.045 -0.045,-0.081 -0.099,-0.081l-0.549,0c-0.054,0 -0.09,0.036 -0.099,0.081l-1.178,5.012c-0.018,0.054 0.009,0.099 0.072,0.099l0.459,0c0.054,0 0.09,-0.027 0.099,-0.081l0.189,-0.855c0,-0.018 0.027,-0.036 0.045,-0.036l1.385,0c0.017,0 0.044,0.018 0.044,0.036l0.18,0.855c0.009,0.054 0.045,0.081 0.099,0.081Zm-1.618,-1.529l0.593,-2.71c0.009,-0.036 0.027,-0.036 0.036,0l0.585,2.71c0.009,0.018 -0.009,0.036 -0.027,0.036l-1.16,0c-0.018,0 -0.036,-0.018 -0.027,-0.036Z" style="fill:white;fill-rule:nonzero;"/>
            <path d="M72.268,267.659c0.802,0 1.377,-0.53 1.377,-1.367c0,-0.711 -0.413,-1.026 -1.223,-1.585c-0.631,-0.441 -0.883,-0.639 -0.883,-1.062c0,-0.486 0.297,-0.747 0.693,-0.747c0.442,0 0.73,0.324 0.73,0.819l0,0.126c0,0.054 0.036,0.09 0.09,0.09l0.449,0c0.054,0 0.09,-0.036 0.09,-0.09l0,-0.144c0,-0.801 -0.539,-1.358 -1.359,-1.358c-0.774,0 -1.322,0.485 -1.322,1.295c0,0.792 0.539,1.17 1.169,1.594c0.568,0.378 0.928,0.612 0.928,1.098c0,0.468 -0.315,0.783 -0.739,0.783c-0.423,0 -0.72,-0.324 -0.72,-0.837l0,-0.09c0,-0.054 -0.036,-0.09 -0.09,-0.09l-0.449,0c-0.054,0 -0.09,0.036 -0.09,0.09l0,0.153c0,0.783 0.548,1.322 1.349,1.322Z" style="fill:white;fill-rule:nonzero;"/>
            <path d="M75.886,267.659c0.802,0 1.377,-0.53 1.377,-1.367c0,-0.711 -0.413,-1.026 -1.223,-1.585c-0.631,-0.441 -0.883,-0.639 -0.883,-1.062c0,-0.486 0.297,-0.747 0.693,-0.747c0.442,0 0.73,0.324 0.73,0.819l0,0.126c0,0.054 0.036,0.09 0.09,0.09l0.449,0c0.054,0 0.09,-0.036 0.09,-0.09l0,-0.144c0,-0.801 -0.539,-1.358 -1.359,-1.358c-0.774,0 -1.322,0.485 -1.322,1.295c0,0.792 0.539,1.17 1.169,1.594c0.568,0.378 0.928,0.612 0.928,1.098c0,0.468 -0.315,0.783 -0.739,0.783c-0.423,0 -0.72,-0.324 -0.72,-0.837l0,-0.09c0,-0.054 -0.036,-0.09 -0.09,-0.09l-0.449,0c-0.054,0 -0.09,0.036 -0.09,0.09l0,0.153c0,0.783 0.548,1.322 1.349,1.322Z" style="fill:white;fill-rule:nonzero;"/>
            <path d="M57.083,347.659c0.837,0 1.403,-0.539 1.403,-1.43l0,-2.449c0,-0.9 -0.566,-1.439 -1.403,-1.439c-0.847,0 -1.404,0.539 -1.404,1.439l0,2.449c0,0.891 0.557,1.43 1.404,1.43Zm0,-0.557c-0.451,0 -0.766,-0.306 -0.766,-0.837l0,-2.512c0,-0.54 0.315,-0.846 0.766,-0.846c0.459,0 0.765,0.306 0.765,0.846l0,2.512c0,0.531 -0.306,0.837 -0.765,0.837Z" style="fill:white;fill-rule:nonzero;"/>
            <path d="M60.971,347.659c0.846,0 1.394,-0.584 1.394,-1.538l0,-3.618c0,-0.054 -0.036,-0.09 -0.09,-0.09l-0.458,0c-0.054,0 -0.09,0.036 -0.09,0.09l0,3.672c0,0.576 -0.297,0.927 -0.756,0.927c-0.451,0 -0.748,-0.351 -0.748,-0.927l0,-3.672c0,-0.054 -0.036,-0.09 -0.09,-0.09l-0.458,0c-0.054,0 -0.09,0.036 -0.09,0.09l0,3.618c0,0.954 0.557,1.538 1.386,1.538Z" style="fill:white;fill-rule:nonzero;"/>
            <path d="M66.055,342.404l-2.717,0c-0.054,0 -0.09,0.036 -0.09,0.09l0,0.386c0,0.054 0.036,0.09 0.09,0.09l0.972,0c0.018,0 0.036,0.018 0.036,0.036l0,4.5c0,0.054 0.036,0.09 0.09,0.09l0.458,0c0.054,0 0.09,-0.036 0.09,-0.09l0,-4.5c0,-0.018 0.018,-0.036 0.036,-0.036l1.035,0c0.054,0 0.09,-0.036 0.09,-0.09l0,-0.386c0,-0.054 -0.036,-0.09 -0.09,-0.09Z" style="fill:white;fill-rule:nonzero;"/>
            <path d="M71.276,347.596l0.467,0c0.063,0 0.09,-0.036 0.072,-0.099l-0.836,-2.277c-0.009,-0.027 0,-0.036 0.027,-0.045c0.495,-0.188 0.791,-0.674 0.791,-1.313c0,-0.865 -0.539,-1.467 -1.322,-1.467l-1.341,0c-0.054,0 -0.09,0.036 -0.09,0.09l0,5.021c0,0.054 0.036,0.09 0.09,0.09l0.458,0c0.054,0 0.09,-0.036 0.09,-0.09l0,-2.205c0,-0.018 0.018,-0.036 0.036,-0.036l0.631,0c0.018,0 0.027,0 0.036,0.027l0.783,2.232c0.018,0.054 0.063,0.072 0.108,0.072Zm-1.558,-4.644l0.667,0c0.459,0 0.774,0.36 0.774,0.91c0,0.549 -0.315,0.891 -0.774,0.891l-0.667,0c-0.018,0 -0.036,-0.018 -0.036,-0.036l0,-1.729c0,-0.018 0.018,-0.036 0.036,-0.036Z" style="fill:white;fill-rule:nonzero;"/>
            <path d="M28.582,94.999l3.526,0c0.072,0 0.12,-0.048 0.12,-0.12l0,-0.502c0,-0.072 -0.048,-0.12 -0.12,-0.12l-2.748,0c-0.024,0 -0.048,-0.024 -0.048,-0.048l0,-7.488c0,-0.072 -0.047,-0.12 -0.119,-0.12l-0.611,0c-0.072,0 -0.12,0.048 -0.12,0.12l0,8.158c0,0.072 0.048,0.12 0.12,0.12Z" style="fill:white;fill-rule:nonzero;"/>
            <path d="M34.833,95.095c1.153,0 1.895,-0.73 1.895,-1.835l0,-2.592c0,-1.081 -0.742,-1.835 -1.895,-1.835c-1.152,0 -1.883,0.754 -1.883,1.835l0,2.592c0,1.105 0.731,1.835 1.883,1.835Zm0,-0.742c-0.612,0 -1.033,-0.468 -1.033,-1.141l0,-2.484c0,-0.685 0.421,-1.153 1.033,-1.153c0.613,0 1.045,0.468 1.045,1.153l0,2.484c0,0.673 -0.432,1.141 -1.045,1.141Z" style="fill:white;fill-rule:nonzero;"/>
            <path d="M38.842,94.999l0.587,0c0.072,0 0.12,-0.036 0.132,-0.108l0.864,-4.392c0.012,-0.048 0.036,-0.048 0.048,0l0.888,4.392c0.012,0.072 0.06,0.108 0.132,0.108l0.612,0c0.072,0 0.12,-0.036 0.132,-0.108l1.271,-5.818c0.012,-0.084 -0.023,-0.132 -0.107,-0.132l-0.576,-0.012c-0.072,0 -0.12,0.036 -0.132,0.108l-0.888,4.678c-0.012,0.035 -0.036,0.035 -0.048,0l-0.888,-4.678c-0.012,-0.072 -0.06,-0.108 -0.132,-0.108l-0.54,0c-0.072,0 -0.12,0.036 -0.132,0.108l-0.875,4.666c-0.012,0.036 -0.036,0.036 -0.048,0l-0.876,-4.666c-0.012,-0.072 -0.06,-0.108 -0.132,-0.108l-0.588,0c-0.084,0 -0.12,0.048 -0.108,0.132l1.272,5.829c0.012,0.073 0.06,0.109 0.132,0.109Z" style="fill:white;fill-rule:nonzero;"/>
            <path d="M48.321,90.667c-0.048,-1.068 -0.659,-1.834 -1.62,-1.834c-0.492,0 -0.912,0.203 -1.188,0.587c-0.036,0.035 -0.061,0.012 -0.061,-0.024l0,-0.348c0,-0.071 -0.047,-0.119 -0.119,-0.119l-0.611,0c-0.072,0 -0.12,0.048 -0.12,0.12l0,8.158c0,0.072 0.048,0.12 0.12,0.12l0.611,0c0.072,0 0.119,-0.048 0.119,-0.12l0,-2.664c0,-0.036 0.025,-0.06 0.061,-0.024c0.276,0.384 0.696,0.576 1.188,0.576c0.973,0 1.584,-0.744 1.62,-1.799c0.011,-0.444 0.011,-0.852 0.011,-1.296c0,-0.444 0,-0.888 -0.011,-1.332l0,-0.001Zm-1.872,3.684c-0.576,0 -0.997,-0.48 -0.997,-1.199l0,-2.376c0,-0.721 0.421,-1.201 0.997,-1.201c0.625,0 1.045,0.492 1.033,1.2l0,1.188c0,0.312 0.012,0.768 0,1.188c0.012,0.72 -0.42,1.2 -1.033,1.2Z" style="fill:white;fill-rule:nonzero;"/>
            <path d="M51.429,88.833c-0.996,0 -1.763,0.622 -1.847,1.583c-0.012,0.072 0.036,0.12 0.107,0.12l0.66,0.012c0.072,0 0.12,-0.036 0.132,-0.12c0.048,-0.504 0.444,-0.853 0.924,-0.853c0.625,0 1.009,0.529 1.009,1.321l0,0.469c0,0.024 -0.024,0.048 -0.048,0.048l-0.829,0c-1.188,0 -2.135,0.527 -2.135,1.967c0,1.428 0.947,1.715 1.631,1.715c0.54,0 1.009,-0.167 1.321,-0.575c0.036,-0.036 0.06,-0.024 0.06,0.012l0,0.347c0,0.072 0.048,0.12 0.12,0.12l0.611,0c0.072,0 0.119,-0.048 0.119,-0.12l0,-4.043c0,-1.213 -0.718,-2.003 -1.835,-2.003Zm-0.216,5.52c-0.528,0 -0.937,-0.312 -0.937,-1.045c0,-0.829 0.517,-1.213 1.249,-1.213l0.841,0c0.024,0 0.048,0.024 0.048,0.048l0,1.009c0,0.804 -0.6,1.201 -1.201,1.201Z" style="fill:white;fill-rule:nonzero;"/>
            <path d="M56.181,95.059c1.117,0 1.823,-0.634 1.823,-1.631c0,-1.128 -0.91,-1.512 -1.607,-1.812c-0.624,-0.264 -1.177,-0.492 -1.177,-1.116c0,-0.517 0.361,-0.937 0.949,-0.937c0.589,0 0.973,0.408 0.973,0.937l0,0.096c0,0.06 0.048,0.096 0.12,0.096l0.551,0c0.072,0 0.119,-0.048 0.119,-0.12l0,-0.036c0,-0.997 -0.67,-1.667 -1.775,-1.667c-1.056,0 -1.751,0.622 -1.751,1.655c0,1.14 0.851,1.5 1.523,1.776c0.613,0.264 1.225,0.492 1.225,1.164c0,0.541 -0.372,0.937 -0.961,0.937c-0.612,0 -1.021,-0.408 -1.021,-0.913l0,-0.096c0,-0.06 -0.047,-0.096 -0.119,-0.096l-0.575,0c-0.072,0 -0.12,0.048 -0.12,0.12l0,0.084c0,0.937 0.707,1.559 1.823,1.559Z" style="fill:white;fill-rule:nonzero;"/>
            <path d="M60.369,95.059c1.117,0 1.823,-0.634 1.823,-1.631c0,-1.128 -0.91,-1.512 -1.607,-1.812c-0.624,-0.264 -1.177,-0.492 -1.177,-1.116c0,-0.517 0.361,-0.937 0.949,-0.937c0.589,0 0.973,0.408 0.973,0.937l0,0.096c0,0.06 0.048,0.096 0.12,0.096l0.551,0c0.072,0 0.119,-0.048 0.119,-0.12l0,-0.036c0,-0.997 -0.67,-1.667 -1.775,-1.667c-1.056,0 -1.751,0.622 -1.751,1.655c0,1.14 0.851,1.5 1.523,1.776c0.613,0.264 1.225,0.492 1.225,1.164c0,0.541 -0.372,0.937 -0.961,0.937c-0.612,0 -1.021,-0.408 -1.021,-0.913l0,-0.096c0,-0.06 -0.047,-0.096 -0.119,-0.096l-0.575,0c-0.072,0 -0.12,0.048 -0.12,0.12l0,0.084c0,0.937 0.707,1.559 1.823,1.559Z" style="fill:white;fill-rule:nonzero;"/>
            <path d="M30.407,146.721l0,3.648c0,0.024 -0.024,0.048 -0.048,0.048l-2.138,0c-0.024,0 -0.048,-0.024 -0.048,-0.048l0,-3.648c0,-0.072 -0.048,-0.12 -0.12,-0.12l-0.611,0c-0.071,0 -0.119,0.048 -0.119,0.12l0,8.158c0,0.072 0.048,0.12 0.119,0.12l0.611,0c0.072,0 0.12,-0.048 0.12,-0.12l0,-3.66c0,-0.024 0.024,-0.048 0.048,-0.048l2.138,0c0.024,0 0.048,0.024 0.048,0.048l0,3.66c0,0.072 0.048,0.12 0.119,0.12l0.611,0c0.072,0 0.12,-0.048 0.12,-0.12l0,-8.158c0,-0.072 -0.048,-0.12 -0.12,-0.12l-0.611,0c-0.071,0 -0.119,0.048 -0.119,0.12Z" style="fill:white;fill-rule:nonzero;"/>
            <path d="M33.346,147.847c0.335,0 0.575,-0.263 0.575,-0.635c0,-0.348 -0.24,-0.611 -0.575,-0.611c-0.348,0 -0.599,0.263 -0.599,0.611c0,0.372 0.251,0.635 0.599,0.635Zm-0.312,7.152l0.611,0c0.072,0 0.12,-0.048 0.12,-0.12l0,-5.83c0,-0.072 -0.048,-0.12 -0.12,-0.12l-0.611,0c-0.071,0 -0.119,0.048 -0.119,0.12l0,5.83c0,0.072 0.048,0.12 0.119,0.12Z" style="fill:white;fill-rule:nonzero;"/>
            <path d="M38.039,149.048l0,0.372c0,0.047 -0.024,0.059 -0.06,0.012c-0.277,-0.408 -0.733,-0.599 -1.201,-0.599c-1.02,0 -1.631,0.73 -1.631,1.835l0,2.532c0,1.081 0.599,1.835 1.631,1.835c0.456,0 0.912,-0.191 1.201,-0.611c0.036,-0.035 0.06,-0.011 0.06,0.024l0,0.36c0,1.2 -0.397,1.897 -1.73,1.861c-0.072,0 -0.12,0.048 -0.12,0.12l0,0.515c0,0.071 0.036,0.119 0.12,0.131c1.957,0.084 2.58,-0.958 2.58,-2.555l0,-5.832c0,-0.071 -0.048,-0.119 -0.12,-0.119l-0.611,0c-0.071,0 -0.119,0.047 -0.119,0.119Zm-1.009,5.245c-0.6,0 -1.033,-0.468 -1.033,-1.141l0,-2.424c0,-0.685 0.433,-1.153 1.033,-1.153c0.6,0 1.009,0.468 1.009,1.153l0,2.424c0,0.673 -0.409,1.141 -1.009,1.141Z" style="fill:white;fill-rule:nonzero;"/>
            <path d="M42.394,148.845c-0.48,0 -0.937,0.179 -1.249,0.611c-0.024,0.035 -0.06,0.023 -0.06,-0.012l0,-2.723c0,-0.072 -0.048,-0.12 -0.12,-0.12l-0.611,0c-0.071,0 -0.119,0.048 -0.119,0.12l0,8.158c0,0.072 0.048,0.12 0.119,0.12l0.611,0c0.072,0 0.12,-0.048 0.12,-0.12l0,-3.996c0,-0.804 0.396,-1.296 1.033,-1.296c0.612,0 0.961,0.456 0.961,1.236l0,4.056c0,0.072 0.048,0.12 0.119,0.12l0.611,0c0.072,0 0.12,-0.048 0.12,-0.12l0,-4.128c0,-1.2 -0.551,-1.906 -1.535,-1.906Z" style="fill:white;fill-rule:nonzero;"/>
            <path d="M49.113,150.667c-0.048,-1.068 -0.659,-1.834 -1.619,-1.834c-0.492,0 -0.913,0.203 -1.189,0.587c-0.036,0.035 -0.06,0.012 -0.06,-0.024l0,-0.348c0,-0.071 -0.048,-0.119 -0.119,-0.119l-0.611,0c-0.072,0 -0.12,0.048 -0.12,0.12l0,8.158c0,0.072 0.048,0.12 0.12,0.12l0.611,0c0.071,0 0.119,-0.048 0.119,-0.12l0,-2.664c0,-0.036 0.024,-0.06 0.06,-0.024c0.276,0.384 0.697,0.576 1.189,0.576c0.972,0 1.583,-0.744 1.619,-1.799c0.012,-0.444 0.012,-0.852 0.012,-1.296c0,-0.444 0,-0.888 -0.012,-1.332l0,-0.001Zm-1.871,3.684c-0.577,0 -0.997,-0.48 -0.997,-1.199l0,-2.376c0,-0.721 0.42,-1.201 0.997,-1.201c0.624,0 1.045,0.492 1.033,1.2l0,1.188c0,0.312 0.012,0.768 0,1.188c0.012,0.72 -0.421,1.2 -1.033,1.2Z" style="fill:white;fill-rule:nonzero;"/>
            <path d="M52.222,148.833c-0.997,0 -1.764,0.622 -1.848,1.583c-0.012,0.072 0.036,0.12 0.108,0.12l0.659,0.012c0.072,0 0.12,-0.036 0.132,-0.12c0.048,-0.504 0.445,-0.853 0.925,-0.853c0.624,0 1.009,0.529 1.009,1.321l0,0.469c0,0.024 -0.024,0.048 -0.048,0.048l-0.829,0c-1.189,0 -2.135,0.527 -2.135,1.967c0,1.428 0.946,1.715 1.631,1.715c0.54,0 1.008,-0.167 1.321,-0.575c0.036,-0.036 0.06,-0.024 0.06,0.012l0,0.347c0,0.072 0.048,0.12 0.119,0.12l0.611,0c0.072,0 0.12,-0.048 0.12,-0.12l0,-4.043c0,-1.213 -0.719,-2.003 -1.835,-2.003Zm-0.216,5.52c-0.529,0 -0.937,-0.312 -0.937,-1.045c0,-0.829 0.517,-1.213 1.249,-1.213l0.841,0c0.024,0 0.048,0.024 0.048,0.048l0,1.009c0,0.804 -0.601,1.201 -1.201,1.201Z" style="fill:white;fill-rule:nonzero;"/>
            <path d="M56.974,155.059c1.116,0 1.823,-0.634 1.823,-1.631c0,-1.128 -0.91,-1.512 -1.607,-1.812c-0.624,-0.264 -1.177,-0.492 -1.177,-1.116c0,-0.517 0.36,-0.937 0.949,-0.937c0.588,0 0.973,0.408 0.973,0.937l0,0.096c0,0.06 0.048,0.096 0.119,0.096l0.551,0c0.072,0 0.12,-0.048 0.12,-0.12l0,-0.036c0,-0.997 -0.671,-1.667 -1.775,-1.667c-1.057,0 -1.751,0.622 -1.751,1.655c0,1.14 0.85,1.5 1.523,1.776c0.612,0.264 1.225,0.492 1.225,1.164c0,0.541 -0.373,0.937 -0.961,0.937c-0.613,0 -1.021,-0.408 -1.021,-0.913l0,-0.096c0,-0.06 -0.048,-0.096 -0.12,-0.096l-0.575,0c-0.071,0 -0.119,0.048 -0.119,0.12l0,0.084c0,0.937 0.706,1.559 1.823,1.559Z" style="fill:white;fill-rule:nonzero;"/>
            <path d="M61.162,155.059c1.116,0 1.823,-0.634 1.823,-1.631c0,-1.128 -0.91,-1.512 -1.607,-1.812c-0.624,-0.264 -1.177,-0.492 -1.177,-1.116c0,-0.517 0.36,-0.937 0.949,-0.937c0.588,0 0.973,0.408 0.973,0.937l0,0.096c0,0.06 0.048,0.096 0.119,0.096l0.551,0c0.072,0 0.12,-0.048 0.12,-0.12l0,-0.036c0,-0.997 -0.671,-1.667 -1.775,-1.667c-1.057,0 -1.751,0.622 -1.751,1.655c0,1.14 0.85,1.5 1.523,1.776c0.612,0.264 1.225,0.492 1.225,1.164c0,0.541 -0.373,0.937 -0.961,0.937c-0.613,0 -1.021,-0.408 -1.021,-0.913l0,-0.096c0,-0.06 -0.048,-0.096 -0.12,-0.096l-0.575,0c-0.071,0 -0.119,0.048 -0.119,0.12l0,0.084c0,0.937 0.706,1.559 1.823,1.559Z" style="fill:white;fill-rule:nonzero;"/>
            <path d="M48.379,207.999l1.847,0c1.237,0 2.027,-0.862 2.027,-2.231l0,-3.936c0,-1.369 -0.79,-2.231 -2.027,-2.231l-1.847,0c-0.072,0 -0.12,0.048 -0.12,0.12l0,8.158c0,0.072 0.048,0.12 0.12,0.12Zm0.73,-0.79l0,-6.818c0,-0.024 0.024,-0.048 0.048,-0.048l1.057,0c0.732,0 1.177,0.588 1.177,1.525l0,3.864c-0.012,0.937 -0.469,1.513 -1.177,1.513l-1.057,0.012c-0.024,0 -0.048,-0.024 -0.048,-0.048Z" style="fill:white;fill-rule:nonzero;"/>
            <path d="M55.758,201.869c-0.576,0 -0.936,0.372 -1.14,0.912c-0.024,0.036 -0.06,0.036 -0.06,-0.012l0,-0.72c0,-0.072 -0.048,-0.12 -0.12,-0.12l-0.612,0c-0.072,0 -0.12,0.048 -0.12,0.12l0,5.83c0,0.072 0.048,0.12 0.12,0.12l0.612,0c0.072,0 0.12,-0.048 0.12,-0.12l0,-3.599c0,-0.815 0.408,-1.451 0.984,-1.487c0.192,-0.036 0.372,-0.012 0.504,0.048c0.084,0.024 0.144,0.012 0.156,-0.072l0.132,-0.612c0.012,-0.06 0,-0.12 -0.06,-0.156c-0.12,-0.072 -0.276,-0.132 -0.516,-0.132Z" style="fill:white;fill-rule:nonzero;"/>
            <path d="M57.18,210.399l0.06,0c1.187,0 1.511,-0.335 1.919,-1.87l1.667,-6.456c0.024,-0.072 -0.012,-0.132 -0.096,-0.132l-0.671,-0.012c-0.072,0 -0.12,0.036 -0.132,0.108l-1.044,4.716c-0.012,0.048 -0.036,0.048 -0.048,0l-1.055,-4.716c-0.012,-0.072 -0.06,-0.108 -0.132,-0.108l-0.648,0c-0.084,0 -0.132,0.048 -0.108,0.132l1.523,5.904c0,0.024 0.012,0.048 0,0.072c-0.252,1.344 -0.467,1.632 -1.187,1.632l-0.06,0c-0.036,0 -0.06,0.048 -0.06,0.12l0,0.49c0,0.072 0.036,0.12 0.072,0.12Z" style="fill:white;fill-rule:nonzero;"/>
            <path d="M61.308,207.999l0.6,0c0.072,0 0.12,-0.048 0.132,-0.108l2.172,-8.158c0.024,-0.084 -0.024,-0.132 -0.108,-0.132l-0.6,0c-0.072,0 -0.12,0.048 -0.132,0.108l-2.172,8.158c-0.024,0.084 0.024,0.132 0.108,0.132Z" style="fill:white;fill-rule:nonzero;"/>
            <path d="M66.582,207.999l0.576,0c0.072,0 0.108,-0.036 0.12,-0.108l0.984,-6.335c0,-0.036 0.036,-0.036 0.048,0l1.008,6.335c0.012,0.072 0.048,0.108 0.12,0.108l0.588,0c0.072,0 0.12,-0.036 0.132,-0.108l1.487,-8.158c0.012,-0.072 -0.024,-0.132 -0.108,-0.132l-0.636,0c-0.072,0 -0.108,0.036 -0.12,0.108l-1.031,6.31c-0.012,0.036 -0.036,0.036 -0.048,0l-1.02,-6.31c-0.012,-0.072 -0.048,-0.108 -0.12,-0.108l-0.552,0c-0.072,0 -0.108,0.036 -0.12,0.108l-0.972,6.31c-0.012,0.036 -0.036,0.036 -0.048,0l-1.127,-6.31c-0.012,-0.072 -0.06,-0.108 -0.132,-0.108l-0.636,0c-0.084,0 -0.12,0.06 -0.108,0.132l1.583,8.158c0.012,0.072 0.06,0.108 0.132,0.108Z" style="fill:white;fill-rule:nonzero;"/>
            <path d="M75.893,205.168l0,-1.5c0,-1.081 -0.718,-1.835 -1.883,-1.835c-1.141,0 -1.871,0.754 -1.871,1.835l0,2.592c0,1.105 0.73,1.835 1.871,1.835c1.057,0 1.716,-0.599 1.847,-1.535c0.012,-0.072 -0.036,-0.132 -0.107,-0.132l-0.599,-0.024c-0.072,0 -0.108,0.036 -0.132,0.108c-0.108,0.492 -0.481,0.841 -1.009,0.841c-0.6,0 -1.021,-0.469 -1.021,-1.141l0,-0.877c0,-0.024 0.024,-0.048 0.048,-0.048l2.736,0c0.072,0 0.12,-0.048 0.12,-0.119Zm-1.883,-2.593c0.624,0 1.045,0.469 1.045,1.153l0,0.805c0,0.024 -0.024,0.048 -0.048,0.048l-1.97,0c-0.024,0 -0.048,-0.024 -0.048,-0.048l0,-0.805c0,-0.684 0.421,-1.153 1.021,-1.153Z" style="fill:white;fill-rule:nonzero;"/>
            <path d="M79.241,202.444l0,-0.396c0,-0.071 -0.048,-0.119 -0.12,-0.119l-0.912,0c-0.024,0 -0.048,-0.024 -0.048,-0.048l0,-1.344c0,-0.072 -0.048,-0.12 -0.12,-0.12l-0.598,0c-0.072,0 -0.12,0.048 -0.12,0.12l0,1.344c0,0.024 -0.024,0.048 -0.048,0.048l-0.468,0c-0.072,0 -0.12,0.048 -0.12,0.119l0,0.396c0,0.071 0.048,0.119 0.12,0.119l0.468,0c0.024,0 0.048,0.024 0.048,0.048l0,3.926c0,1.211 0.587,1.462 1.438,1.462l0.3,0c0.072,0 0.12,-0.048 0.12,-0.12l0,-0.514c0,-0.072 -0.048,-0.12 -0.12,-0.12l-0.12,0c-0.504,0.012 -0.78,-0.192 -0.78,-0.961l0,-3.673c0,-0.024 0.024,-0.048 0.048,-0.048l0.912,0c0.072,0 0.12,-0.048 0.12,-0.119Z" style="fill:white;fill-rule:nonzero;"/>
        </g>
    </g>
</svg>
