<?xml version="1.0" encoding="UTF-8" standalone="no"?>
<!DOCTYPE svg PUBLIC "-//W3C//DTD SVG 1.1//EN" "http://www.w3.org/Graphics/SVG/1.1/DTD/svg11.dtd">
<svg width="90px" height="380px" version="1.1" xmlns="http://www.w3.org/2000/svg" xmlns:xlink="http://www.w3.org/1999/xlink" xml:space="preserve" xmlns:serif="http://www.serif.com/" style="fill-rule:evenodd;clip-rule:evenodd;stroke-linecap:round;stroke-linejoin:round;stroke-miterlimit:1.5;">
    <rect id="Console-Pure-Dark" serif:id="Console Pure Dark" x="0" y="0" width="90" height="380" style="fill:none;"/>
    <clipPath id="_clip1">
        <rect x="0" y="0" width="90" height="380"/>
    </clipPath>
    <g clip-path="url(#_clip1)">
        <g id="Background">
            <path id="bright" d="M90,379.995l0,-379.995l-90,0l0,379.995l90,0Z" style="fill:rgb(54,69,74);"/>
            <g>
                <path d="M45,309.021c0.111,0 0.215,0.044 0.294,0.122c0.078,0.079 0.122,0.184 0.122,0.294l0,1.126c0,0.039 0.015,0.076 0.043,0.104c0.027,0.027 0.065,0.043 0.104,0.043l1.125,0c0.039,0 0.077,-0.016 0.104,-0.043c0.028,-0.028 0.043,-0.065 0.043,-0.104l0,-1.126c0,-0.49 -0.191,-0.951 -0.537,-1.298c-0.347,-0.346 -0.808,-0.537 -1.298,-0.537l-3.377,0c-0.491,0 -0.952,0.191 -1.298,0.537c-0.347,0.347 -0.538,0.808 -0.538,1.298l0,1.126c0,0.49 0.191,0.951 0.538,1.298c0.346,0.346 0.807,0.537 1.298,0.537l1.903,0c0.061,0 0.116,-0.038 0.137,-0.095c0.021,-0.054 0.007,-0.115 -0.033,-0.155c-0.002,-0.003 -0.005,-0.005 -0.007,-0.007c-0.036,-0.031 -0.071,-0.064 -0.105,-0.098c-0.264,-0.264 -0.454,-0.594 -0.548,-0.955c-0.007,-0.025 -0.02,-0.048 -0.038,-0.066c-0.027,-0.027 -0.064,-0.043 -0.104,-0.043l-1.205,0c-0.111,0 -0.215,-0.043 -0.294,-0.122c-0.079,-0.079 -0.122,-0.183 -0.122,-0.294l0,-1.126c0,-0.111 0.043,-0.215 0.121,-0.294c0.079,-0.078 0.184,-0.122 0.295,-0.122l3.377,0Z" style="fill:rgb(121,140,115);fill-rule:nonzero;"/>
                <path d="M50.213,310.563l0,-1.126c0,-0.49 -0.191,-0.951 -0.538,-1.298c-0.347,-0.346 -0.807,-0.537 -1.298,-0.537l-1.903,0c-0.062,0 -0.116,0.038 -0.138,0.095c-0.02,0.055 -0.007,0.115 0.034,0.156c0.002,0.002 0.005,0.004 0.007,0.007c0.036,0.031 0.072,0.064 0.105,0.098c0.265,0.265 0.454,0.594 0.547,0.953c0.007,0.026 0.02,0.049 0.039,0.067c0.026,0.027 0.063,0.043 0.103,0.043l1.206,0c0.111,0 0.215,0.043 0.294,0.122c0.079,0.079 0.122,0.183 0.122,0.294l0,1.126c0,0.229 -0.187,0.416 -0.416,0.416l-3.377,0c-0.111,0 -0.215,-0.043 -0.294,-0.122c-0.078,-0.079 -0.122,-0.183 -0.122,-0.294l0,-1.126c0,-0.039 -0.015,-0.076 -0.043,-0.104c-0.028,-0.027 -0.065,-0.043 -0.104,-0.043l-1.125,0c-0.082,0 -0.147,0.066 -0.147,0.147l0,1.126c0,0.49 0.19,0.951 0.537,1.298c0.347,0.346 0.808,0.537 1.298,0.537l3.377,0c0.49,0 0.951,-0.19 1.298,-0.537c0.347,-0.347 0.538,-0.808 0.538,-1.298Z" style="fill:rgb(121,140,115);fill-rule:nonzero;"/>
            </g>
            <circle cx="63.75" cy="325" r="14" style="fill:rgb(51,51,51);"/>
            <circle cx="26.25" cy="325" r="14" style="fill:rgb(51,51,51);"/>
            <path d="M67.5,24.6l22.5,0" style="fill:none;stroke:rgb(128,128,128);stroke-width:0.7px;"/>
            <path d="M0,295l63.75,0" style="fill:none;stroke:rgb(128,128,128);stroke-width:0.7px;"/>
            <path d="M26.25,325l63.75,0" style="fill:none;stroke:rgb(128,128,128);stroke-width:0.7px;"/>
            <path d="M0,24.6l22.5,0" style="fill:none;stroke:rgb(128,128,128);stroke-width:0.7px;"/>
        </g>
        <g id="Lables">
            <g id="Branding">
                <path d="M27.355,362.45l0.545,0c0.049,0 0.07,-0.028 0.056,-0.077l-0.72,-2.163c-0.007,-0.021 0,-0.028 0.014,-0.042c0.419,-0.182 0.685,-0.637 0.685,-1.232c0,-0.826 -0.482,-1.393 -1.204,-1.393l-1.252,0c-0.042,0 -0.07,0.028 -0.07,0.07l0,4.767c0,0.042 0.028,0.07 0.07,0.07l0.531,0c0.042,0 0.07,-0.028 0.07,-0.07l0,-2.079c0,-0.014 0.014,-0.028 0.028,-0.028l0.483,0c0.014,0 0.021,0 0.028,0.021l0.652,2.1c0.014,0.035 0.049,0.056 0.084,0.056Zm-1.247,-4.326l0.518,0c0.379,0 0.638,0.315 0.638,0.819c0,0.49 -0.259,0.805 -0.638,0.805l-0.518,0c-0.014,0 -0.028,-0.014 -0.028,-0.028l0,-1.568c0,-0.014 0.014,-0.028 0.028,-0.028Z" style="fill:rgb(199,206,201);fill-rule:nonzero;"/>
                <path d="M31.043,362.45l0.546,0c0.049,0 0.07,-0.035 0.063,-0.077l-1.057,-4.76c-0.007,-0.042 -0.035,-0.063 -0.077,-0.063l-0.615,0c-0.042,0 -0.07,0.021 -0.077,0.063l-1.043,4.76c-0.007,0.042 0.014,0.077 0.063,0.077l0.532,0c0.042,0 0.07,-0.021 0.077,-0.063l0.161,-0.805c0,-0.014 0.021,-0.028 0.035,-0.028l1.126,0c0.014,0 0.035,0.014 0.035,0.028l0.154,0.805c0.007,0.042 0.035,0.063 0.077,0.063Zm-1.308,-1.456l0.475,-2.394c0.007,-0.028 0.021,-0.028 0.028,0l0.462,2.394c0,0.014 -0.007,0.028 -0.021,0.028l-0.923,0c-0.014,0 -0.021,-0.014 -0.021,-0.028Z" style="fill:rgb(199,206,201);fill-rule:nonzero;"/>
                <path d="M33.717,362.506c0.764,0 1.267,-0.497 1.267,-1.267l0,-0.105c0,-0.042 -0.028,-0.07 -0.07,-0.07l-0.531,-0.028c-0.042,0 -0.07,0.028 -0.07,0.07l0,0.182c0,0.378 -0.238,0.637 -0.596,0.637c-0.357,0 -0.588,-0.259 -0.588,-0.637l0,-2.576c0,-0.385 0.231,-0.637 0.588,-0.637c0.358,0 0.596,0.252 0.596,0.637l0,0.182c0,0.042 0.028,0.07 0.07,0.07l0.531,-0.028c0.042,0 0.07,-0.028 0.07,-0.07l0,-0.112c0,-0.77 -0.503,-1.26 -1.267,-1.26c-0.756,0 -1.259,0.49 -1.259,1.26l0,2.485c0,0.77 0.503,1.267 1.259,1.267Z" style="fill:rgb(199,206,201);fill-rule:nonzero;"/>
                <path d="M36.14,362.45l0.531,0c0.042,0 0.07,-0.028 0.07,-0.07l0,-1.575c0,-0.014 0,-0.028 0.007,-0.035l0.357,-0.567c0.014,-0.014 0.028,-0.014 0.035,0.007l0.91,2.184c0.014,0.042 0.042,0.056 0.077,0.056l0.581,0c0.049,0 0.077,-0.035 0.056,-0.084l-1.169,-2.744c-0.007,-0.014 -0.007,-0.028 0,-0.042l1.078,-1.946c0.028,-0.049 0.007,-0.084 -0.049,-0.084l-0.574,0c-0.035,0 -0.063,0.021 -0.084,0.049l-1.19,2.128c-0.014,0.028 -0.035,0.021 -0.035,-0.007l0,-2.1c0,-0.042 -0.028,-0.07 -0.07,-0.07l-0.531,0c-0.042,0 -0.07,0.028 -0.07,0.07l0,4.76c0,0.042 0.028,0.07 0.07,0.07Z" style="fill:rgb(199,206,201);fill-rule:nonzero;"/>
                <path d="M40.438,362.45l0.497,0c0.042,0 0.063,-0.014 0.07,-0.063l0.503,-3.311c0,-0.021 0.021,-0.021 0.028,0l0.532,3.311c0.007,0.042 0.028,0.063 0.07,0.063l0.497,0c0.042,0 0.07,-0.021 0.077,-0.063l0.882,-4.76c0.007,-0.042 -0.014,-0.077 -0.063,-0.077l-0.546,0c-0.042,0 -0.063,0.021 -0.07,0.063l-0.518,3.283c-0.007,0.021 -0.021,0.021 -0.028,0l-0.539,-3.283c-0.007,-0.042 -0.028,-0.063 -0.07,-0.063l-0.469,0c-0.042,0 -0.063,0.014 -0.07,0.063l-0.503,3.283c-0.007,0.021 -0.021,0.021 -0.028,0l-0.567,-3.283c-0.007,-0.042 -0.035,-0.063 -0.077,-0.063l-0.553,0c-0.049,0 -0.07,0.035 -0.063,0.077l0.931,4.76c0.007,0.042 0.035,0.063 0.077,0.063Z" style="fill:rgb(199,206,201);fill-rule:nonzero;"/>
                <path d="M44.624,362.45l0.531,0c0.042,0 0.07,-0.028 0.07,-0.07l0,-4.76c0,-0.042 -0.028,-0.07 -0.07,-0.07l-0.531,0c-0.042,0 -0.07,0.028 -0.07,0.07l0,4.76c0,0.042 0.028,0.07 0.07,0.07Z" style="fill:rgb(199,206,201);fill-rule:nonzero;"/>
                <path d="M46.52,362.45l0.525,0c0.042,0 0.07,-0.028 0.07,-0.07l-0.007,-3.073c0,-0.028 0.028,-0.028 0.035,0l1.246,3.087c0.014,0.042 0.042,0.056 0.077,0.056l0.546,0c0.042,0 0.07,-0.028 0.07,-0.07l0,-4.76c0,-0.042 -0.028,-0.07 -0.07,-0.07l-0.525,0c-0.042,0 -0.07,0.028 -0.07,0.07l0,3.066c0,0.028 -0.028,0.035 -0.035,0.007l-1.246,-3.087c-0.014,-0.042 -0.042,-0.056 -0.077,-0.056l-0.539,0c-0.042,0 -0.07,0.028 -0.07,0.07l0,4.76c0,0.042 0.028,0.07 0.07,0.07Z" style="fill:rgb(199,206,201);fill-rule:nonzero;"/>
                <path d="M50.371,362.45l1.147,0c0.771,0 1.267,-0.511 1.267,-1.323l0,-2.254c0,-0.812 -0.496,-1.323 -1.267,-1.323l-1.147,0c-0.042,0 -0.07,0.028 -0.07,0.07l0,4.76c0,0.042 0.028,0.07 0.07,0.07Zm0.601,-0.609l0,-3.682c0,-0.014 0.014,-0.028 0.028,-0.028l0.511,0c0.365,0 0.596,0.301 0.596,0.777l0,2.184c-0.007,0.476 -0.238,0.77 -0.596,0.77l-0.511,0.007c-0.014,0 -0.028,-0.014 -0.028,-0.028Z" style="fill:rgb(199,206,201);fill-rule:nonzero;"/>
                <path d="M55.109,362.506c0.771,0 1.288,-0.504 1.288,-1.281l0,-2.443c0,-0.777 -0.517,-1.288 -1.288,-1.288c-0.763,0 -1.273,0.511 -1.273,1.288l0,2.443c0,0.777 0.51,1.281 1.273,1.281Zm0,-0.581c-0.364,0 -0.602,-0.273 -0.602,-0.672l0,-2.506c0,-0.399 0.238,-0.672 0.602,-0.672c0.372,0 0.617,0.273 0.617,0.672l0,2.506c0,0.399 -0.245,0.672 -0.617,0.672Z" style="fill:rgb(199,206,201);fill-rule:nonzero;"/>
                <path d="M58.19,362.45l0.497,0c0.042,0 0.063,-0.014 0.07,-0.063l0.503,-3.311c0,-0.021 0.021,-0.021 0.028,0l0.532,3.311c0.007,0.042 0.028,0.063 0.07,0.063l0.497,0c0.042,0 0.07,-0.021 0.077,-0.063l0.882,-4.76c0.007,-0.042 -0.014,-0.077 -0.063,-0.077l-0.546,0c-0.042,0 -0.063,0.021 -0.07,0.063l-0.518,3.283c-0.007,0.021 -0.021,0.021 -0.028,0l-0.539,-3.283c-0.007,-0.042 -0.028,-0.063 -0.07,-0.063l-0.469,0c-0.042,0 -0.063,0.014 -0.07,0.063l-0.503,3.283c-0.007,0.021 -0.021,0.021 -0.028,0l-0.567,-3.283c-0.007,-0.042 -0.035,-0.063 -0.077,-0.063l-0.553,0c-0.049,0 -0.07,0.035 -0.063,0.077l0.931,4.76c0.007,0.042 0.035,0.063 0.077,0.063Z" style="fill:rgb(199,206,201);fill-rule:nonzero;"/>
                <path d="M63.341,362.506c0.729,0 1.246,-0.504 1.246,-1.295c0,-0.672 -0.371,-0.966 -1.084,-1.498c-0.54,-0.399 -0.743,-0.588 -0.743,-0.987c0,-0.42 0.231,-0.651 0.546,-0.651c0.344,0 0.582,0.28 0.582,0.7l0,0.189c0,0.042 0.028,0.07 0.07,0.07l0.517,0c0.042,0 0.07,-0.028 0.07,-0.07l0,-0.175c0,-0.777 -0.489,-1.295 -1.239,-1.295c-0.707,0 -1.21,0.469 -1.21,1.232c0,0.763 0.503,1.134 1.042,1.533c0.505,0.371 0.785,0.567 0.785,0.994c0,0.406 -0.252,0.672 -0.582,0.672c-0.336,0 -0.574,-0.273 -0.574,-0.707l0,-0.154c0,-0.042 -0.028,-0.07 -0.07,-0.07l-0.517,0c-0.042,0 -0.07,0.028 -0.07,0.07l0,0.189c0,0.749 0.496,1.253 1.231,1.253Z" style="fill:rgb(199,206,201);fill-rule:nonzero;"/>
                <path d="M28.2,24.991c1.368,0 2.279,-0.887 2.279,-2.255l0,-0.144c0,-0.084 -0.06,-0.144 -0.144,-0.144l-1.114,-0.048c-0.084,0 -0.144,0.06 -0.144,0.144l0,0.3c0,0.564 -0.349,0.948 -0.877,0.948c-0.516,0 -0.865,-0.384 -0.865,-0.948l0,-4.297c0,-0.564 0.349,-0.949 0.865,-0.949c0.528,0 0.877,0.385 0.877,0.949l0,0.3c0,0.096 0.06,0.144 0.144,0.144l1.114,-0.048c0.084,0 0.144,-0.072 0.144,-0.156l0,-0.144c0,-1.38 -0.911,-2.243 -2.279,-2.243c-1.356,0 -2.255,0.863 -2.255,2.243l0,4.093c0,1.368 0.899,2.254 2.255,2.254Z" style="fill:white;fill-rule:nonzero;"/>
                <path d="M33.84,24.991c1.38,0 2.303,-0.899 2.303,-2.279l0,-4.033c0,-1.38 -0.923,-2.279 -2.303,-2.279c-1.38,0 -2.291,0.899 -2.291,2.279l0,4.033c0,1.38 0.911,2.279 2.291,2.279Zm0,-1.199c-0.552,0 -0.901,-0.42 -0.901,-1.02l0,-4.153c0,-0.6 0.349,-1.02 0.901,-1.02c0.552,0 0.913,0.42 0.913,1.02l0,4.153c0,0.6 -0.361,1.02 -0.913,1.02Z" style="fill:white;fill-rule:nonzero;"/>
                <path d="M37.572,24.895l1.08,0c0.084,0 0.144,-0.06 0.144,-0.144l-0.012,-4.848c0,-0.048 0.048,-0.06 0.072,-0.012l1.872,4.896c0.024,0.072 0.084,0.108 0.168,0.108l1.164,0c0.084,0 0.144,-0.06 0.144,-0.144l0,-8.112c0,-0.084 -0.06,-0.144 -0.144,-0.144l-1.092,0c-0.084,0 -0.144,0.06 -0.144,0.144l0,4.836c0,0.06 -0.048,0.06 -0.072,0.012l-1.86,-4.884c-0.024,-0.072 -0.084,-0.108 -0.168,-0.108l-1.152,0c-0.084,0 -0.144,0.06 -0.144,0.144l0,8.112c0,0.084 0.06,0.144 0.144,0.144Z" style="fill:white;fill-rule:nonzero;"/>
                <path d="M45.66,24.991c1.308,0 2.231,-0.875 2.231,-2.255c0,-1.177 -0.659,-1.693 -1.883,-2.605c-0.888,-0.66 -1.213,-0.96 -1.213,-1.56c0,-0.624 0.349,-0.973 0.805,-0.973c0.504,0 0.853,0.409 0.853,1.033l0,0.312c0,0.084 0.06,0.144 0.144,0.144l1.09,0c0.084,0 0.144,-0.06 0.144,-0.144l0,-0.288c0,-1.356 -0.887,-2.255 -2.231,-2.255c-1.284,0 -2.171,0.839 -2.171,2.171c0,1.344 0.911,2.016 1.823,2.676c0.84,0.625 1.261,0.925 1.261,1.561c0,0.6 -0.361,0.984 -0.853,0.984c-0.48,0 -0.841,-0.408 -0.841,-1.044l0,-0.264c0,-0.084 -0.06,-0.144 -0.144,-0.144l-1.078,0c-0.084,0 -0.144,0.06 -0.144,0.144l0,0.336c0,1.284 0.887,2.17 2.207,2.17Z" style="fill:white;fill-rule:nonzero;"/>
                <path d="M51.168,24.991c1.38,0 2.303,-0.899 2.303,-2.279l0,-4.033c0,-1.38 -0.923,-2.279 -2.303,-2.279c-1.38,0 -2.291,0.899 -2.291,2.279l0,4.033c0,1.38 0.911,2.279 2.291,2.279Zm0,-1.199c-0.552,0 -0.901,-0.42 -0.901,-1.02l0,-4.153c0,-0.6 0.349,-1.02 0.901,-1.02c0.552,0 0.913,0.42 0.913,1.02l0,4.153c0,0.6 -0.361,1.02 -0.913,1.02Z" style="fill:white;fill-rule:nonzero;"/>
                <path d="M54.889,24.895l3.898,0c0.084,0 0.144,-0.06 0.144,-0.144l0,-0.911c0,-0.084 -0.06,-0.144 -0.144,-0.144l-2.592,0c-0.036,0 -0.06,-0.024 -0.06,-0.06l0,-6.996c0,-0.084 -0.06,-0.144 -0.144,-0.144l-1.102,0c-0.084,0 -0.144,0.06 -0.144,0.144l0,8.111c0,0.084 0.06,0.143 0.144,0.143Z" style="fill:white;fill-rule:nonzero;"/>
                <path d="M64.031,17.551l0,-0.911c0,-0.084 -0.06,-0.144 -0.144,-0.144l-3.898,0c-0.084,0 -0.144,0.06 -0.144,0.144l0,8.111c0,0.084 0.06,0.143 0.144,0.143l3.898,0c0.084,0 0.144,-0.059 0.144,-0.143l0,-0.911c0,-0.084 -0.06,-0.144 -0.144,-0.144l-2.592,0c-0.036,0 -0.06,-0.024 -0.06,-0.06l0,-2.281c0,-0.036 0.024,-0.061 0.06,-0.061l1.536,0c0.084,0 0.144,-0.059 0.144,-0.143l0,-0.923c0,-0.084 -0.06,-0.144 -0.144,-0.144l-1.536,0c-0.036,0 -0.06,-0.024 -0.06,-0.06l0,-2.269c0,-0.036 0.024,-0.061 0.06,-0.061l2.592,0c0.084,0 0.144,-0.059 0.144,-0.143Z" style="fill:white;fill-rule:nonzero;"/>
            </g>
            <path d="M21.062,37.596l0.458,0c0.054,0 0.09,-0.036 0.09,-0.09l0,-5.004c0,-0.054 -0.036,-0.09 -0.09,-0.09l-0.458,0c-0.054,0 -0.09,0.036 -0.09,0.09l0,5.004c0,0.054 0.036,0.09 0.09,0.09Z" style="fill:white;fill-rule:nonzero;"/>
            <path d="M22.961,37.596l0.449,0c0.054,0 0.09,-0.036 0.09,-0.09l0,-3.753c0,-0.036 0.036,-0.045 0.045,-0.009l1.522,3.78c0.018,0.054 0.054,0.072 0.099,0.072l0.476,0c0.054,0 0.09,-0.036 0.09,-0.09l0,-5.004c0,-0.054 -0.036,-0.09 -0.09,-0.09l-0.449,0c-0.054,0 -0.09,0.036 -0.09,0.09l0,3.744c0,0.036 -0.036,0.045 -0.045,0.009l-1.531,-3.771c-0.018,-0.054 -0.054,-0.072 -0.099,-0.072l-0.467,0c-0.054,0 -0.09,0.036 -0.09,0.09l0,5.004c0,0.054 0.036,0.09 0.09,0.09Z" style="fill:white;fill-rule:nonzero;"/>
            <path d="M29.063,37.596l2.375,0c0.054,0 0.09,-0.036 0.09,-0.09l0,-0.377c0,-0.054 -0.036,-0.09 -0.09,-0.09l-1.791,0c-0.018,0 -0.036,-0.018 -0.036,-0.036l0,-4.509c0,-0.054 -0.036,-0.09 -0.09,-0.09l-0.458,0c-0.054,0 -0.09,0.036 -0.09,0.09l0,5.012c0,0.054 0.036,0.09 0.09,0.09Z" style="fill:white;fill-rule:nonzero;"/>
            <path d="M58.373,37.596l0.458,0c0.054,0 0.09,-0.036 0.09,-0.09l0,-5.004c0,-0.054 -0.036,-0.09 -0.09,-0.09l-0.458,0c-0.054,0 -0.09,0.036 -0.09,0.09l0,5.004c0,0.054 0.036,0.09 0.09,0.09Z" style="fill:white;fill-rule:nonzero;"/>
            <path d="M60.272,37.596l0.449,0c0.054,0 0.09,-0.036 0.09,-0.09l0,-3.753c0,-0.036 0.036,-0.045 0.045,-0.009l1.522,3.78c0.018,0.054 0.054,0.072 0.099,0.072l0.476,0c0.054,0 0.09,-0.036 0.09,-0.09l0,-5.004c0,-0.054 -0.036,-0.09 -0.09,-0.09l-0.449,0c-0.054,0 -0.09,0.036 -0.09,0.09l0,3.744c0,0.036 -0.036,0.045 -0.045,0.009l-1.531,-3.771c-0.018,-0.054 -0.054,-0.072 -0.099,-0.072l-0.467,0c-0.054,0 -0.09,0.036 -0.09,0.09l0,5.004c0,0.054 0.036,0.09 0.09,0.09Z" style="fill:white;fill-rule:nonzero;"/>
            <path d="M68.516,37.596l0.467,0c0.063,0 0.09,-0.036 0.072,-0.099l-0.836,-2.277c-0.009,-0.027 0,-0.036 0.027,-0.045c0.494,-0.188 0.791,-0.674 0.791,-1.313c0,-0.865 -0.539,-1.467 -1.322,-1.467l-1.341,0c-0.054,0 -0.09,0.036 -0.09,0.09l0,5.021c0,0.054 0.036,0.09 0.09,0.09l0.458,0c0.054,0 0.09,-0.036 0.09,-0.09l0,-2.205c0,-0.018 0.018,-0.036 0.036,-0.036l0.63,0c0.018,0 0.027,0 0.036,0.027l0.784,2.232c0.018,0.054 0.063,0.072 0.108,0.072Zm-1.558,-4.644l0.666,0c0.46,0 0.775,0.36 0.775,0.91c0,0.549 -0.315,0.891 -0.775,0.891l-0.666,0c-0.018,0 -0.036,-0.018 -0.036,-0.036l0,-1.729c0,-0.018 0.018,-0.036 0.036,-0.036Z" style="fill:white;fill-rule:nonzero;"/>
            <path d="M19.693,347.659c0.838,0 1.404,-0.539 1.404,-1.43l0,-2.449c0,-0.9 -0.566,-1.439 -1.404,-1.439c-0.846,0 -1.403,0.539 -1.403,1.439l0,2.449c0,0.891 0.557,1.43 1.403,1.43Zm0,-0.557c-0.45,0 -0.765,-0.306 -0.765,-0.837l0,-2.512c0,-0.54 0.315,-0.846 0.765,-0.846c0.46,0 0.766,0.306 0.766,0.846l0,2.512c0,0.531 -0.306,0.837 -0.766,0.837Z" style="fill:white;fill-rule:nonzero;"/>
            <path d="M23.581,347.659c0.847,0 1.395,-0.584 1.395,-1.538l0,-3.618c0,-0.054 -0.036,-0.09 -0.09,-0.09l-0.458,0c-0.054,0 -0.09,0.036 -0.09,0.09l0,3.672c0,0.576 -0.297,0.927 -0.757,0.927c-0.45,0 -0.747,-0.351 -0.747,-0.927l0,-3.672c0,-0.054 -0.036,-0.09 -0.09,-0.09l-0.458,0c-0.054,0 -0.09,0.036 -0.09,0.09l0,3.618c0,0.954 0.557,1.538 1.385,1.538Z" style="fill:white;fill-rule:nonzero;"/>
            <path d="M28.666,342.404l-2.717,0c-0.054,0 -0.09,0.036 -0.09,0.09l0,0.386c0,0.054 0.036,0.09 0.09,0.09l0.972,0c0.018,0 0.036,0.018 0.036,0.036l0,4.5c0,0.054 0.036,0.09 0.09,0.09l0.458,0c0.054,0 0.09,-0.036 0.09,-0.09l0,-4.5c0,-0.018 0.018,-0.036 0.036,-0.036l1.035,0c0.054,0 0.09,-0.036 0.09,-0.09l0,-0.386c0,-0.054 -0.036,-0.09 -0.09,-0.09Z" style="fill:white;fill-rule:nonzero;"/>
            <path d="M31.745,347.596l2.375,0c0.054,0 0.09,-0.036 0.09,-0.09l0,-0.377c0,-0.054 -0.036,-0.09 -0.09,-0.09l-1.791,0c-0.018,0 -0.036,-0.018 -0.036,-0.036l0,-4.509c0,-0.054 -0.036,-0.09 -0.09,-0.09l-0.458,0c-0.054,0 -0.09,0.036 -0.09,0.09l0,5.012c0,0.054 0.036,0.09 0.09,0.09Z" style="fill:white;fill-rule:nonzero;"/>
            <path d="M57.083,347.659c0.837,0 1.403,-0.539 1.403,-1.43l0,-2.449c0,-0.9 -0.566,-1.439 -1.403,-1.439c-0.847,0 -1.404,0.539 -1.404,1.439l0,2.449c0,0.891 0.557,1.43 1.404,1.43Zm0,-0.557c-0.451,0 -0.766,-0.306 -0.766,-0.837l0,-2.512c0,-0.54 0.315,-0.846 0.766,-0.846c0.459,0 0.765,0.306 0.765,0.846l0,2.512c0,0.531 -0.306,0.837 -0.765,0.837Z" style="fill:white;fill-rule:nonzero;"/>
            <path d="M60.971,347.659c0.846,0 1.394,-0.584 1.394,-1.538l0,-3.618c0,-0.054 -0.036,-0.09 -0.09,-0.09l-0.458,0c-0.054,0 -0.09,0.036 -0.09,0.09l0,3.672c0,0.576 -0.297,0.927 -0.756,0.927c-0.451,0 -0.748,-0.351 -0.748,-0.927l0,-3.672c0,-0.054 -0.036,-0.09 -0.09,-0.09l-0.458,0c-0.054,0 -0.09,0.036 -0.09,0.09l0,3.618c0,0.954 0.557,1.538 1.386,1.538Z" style="fill:white;fill-rule:nonzero;"/>
            <path d="M66.055,342.404l-2.717,0c-0.054,0 -0.09,0.036 -0.09,0.09l0,0.386c0,0.054 0.036,0.09 0.09,0.09l0.972,0c0.018,0 0.036,0.018 0.036,0.036l0,4.5c0,0.054 0.036,0.09 0.09,0.09l0.458,0c0.054,0 0.09,-0.036 0.09,-0.09l0,-4.5c0,-0.018 0.018,-0.036 0.036,-0.036l1.035,0c0.054,0 0.09,-0.036 0.09,-0.09l0,-0.386c0,-0.054 -0.036,-0.09 -0.09,-0.09Z" style="fill:white;fill-rule:nonzero;"/>
            <path d="M71.276,347.596l0.467,0c0.063,0 0.09,-0.036 0.072,-0.099l-0.836,-2.277c-0.009,-0.027 0,-0.036 0.027,-0.045c0.495,-0.188 0.791,-0.674 0.791,-1.313c0,-0.865 -0.539,-1.467 -1.322,-1.467l-1.341,0c-0.054,0 -0.09,0.036 -0.09,0.09l0,5.021c0,0.054 0.036,0.09 0.09,0.09l0.458,0c0.054,0 0.09,-0.036 0.09,-0.09l0,-2.205c0,-0.018 0.018,-0.036 0.036,-0.036l0.631,0c0.018,0 0.027,0 0.036,0.027l0.783,2.232c0.018,0.054 0.063,0.072 0.108,0.072Zm-1.558,-4.644l0.667,0c0.459,0 0.774,0.36 0.774,0.91c0,0.549 -0.315,0.891 -0.774,0.891l-0.667,0c-0.018,0 -0.036,-0.018 -0.036,-0.036l0,-1.729c0,-0.018 0.018,-0.036 0.036,-0.036Z" style="fill:white;fill-rule:nonzero;"/>
        </g>
    </g>
</svg>
