<?xml version="1.0" encoding="UTF-8" standalone="no"?>
<!DOCTYPE svg PUBLIC "-//W3C//DTD SVG 1.1//EN" "http://www.w3.org/Graphics/SVG/1.1/DTD/svg11.dtd">
<svg width="90px" height="380px" version="1.1" xmlns="http://www.w3.org/2000/svg" xmlns:xlink="http://www.w3.org/1999/xlink" xml:space="preserve" xmlns:serif="http://www.serif.com/" style="fill-rule:evenodd;clip-rule:evenodd;stroke-linecap:round;stroke-linejoin:round;stroke-miterlimit:1.5;">
    <rect id="Console-MM-Dark" serif:id="Console MM Dark" x="0" y="0" width="90" height="380" style="fill:none;"/>
    <clipPath id="_clip1">
        <rect x="0" y="0" width="90" height="380"/>
    </clipPath>
    <g clip-path="url(#_clip1)">
        <g id="Background">
            <path id="bright" d="M90,379.995l0,-379.995l-90,0l0,379.995l90,0Z" style="fill:rgb(54,69,74);"/>
            <circle cx="63.75" cy="244.953" r="14" style="fill:rgb(51,51,51);"/>
            <circle cx="63.75" cy="75" r="14" style="fill:rgb(51,51,51);"/>
            <circle cx="63.75" cy="115" r="14" style="fill:rgb(51,51,51);"/>
            <circle cx="63.75" cy="155" r="14" style="fill:rgb(51,51,51);"/>
            <circle cx="26.25" cy="244.953" r="14" style="fill:rgb(51,51,51);"/>
            <path d="M67.5,24.6l22.5,0" style="fill:none;stroke:rgb(128,128,128);stroke-width:0.7px;"/>
            <path d="M26.385,75l37.31,0" style="fill:none;stroke:rgb(128,128,128);stroke-width:0.7px;"/>
            <path d="M26.25,115l37.31,0" style="fill:none;stroke:rgb(128,128,128);stroke-width:0.7px;"/>
            <path d="M26.25,155l37.31,0" style="fill:none;stroke:rgb(128,128,128);stroke-width:0.7px;"/>
            <path d="M26.309,190c37.437,25.041 0.034,0.072 37.441,25" style="fill:none;stroke:rgb(128,128,128);stroke-width:0.7px;"/>
            <path d="M26.309,250l0,-175" style="fill:none;stroke:rgb(128,128,128);stroke-width:0.7px;"/>
            <path d="M63.56,250c0,-10.693 0.19,-24.999 0.19,-35" style="fill:none;stroke:rgb(128,128,128);stroke-width:0.7px;"/>
            <path d="M0,24.6l22.5,0" style="fill:none;stroke:rgb(128,128,128);stroke-width:0.7px;"/>
            <g id="knobBgLargeThree">
                <g>
                    <path d="M65.783,331.04c11.462,-11.44 11.462,-29.987 0,-41.426c-11.454,-11.432 -30.053,-11.432 -41.507,0c-11.462,11.439 -11.462,29.986 0,41.426l20.753,-20.713l20.754,20.713Z" style="fill:none;stroke:rgb(128,128,128);stroke-width:0.7px;stroke-linecap:butt;stroke-linejoin:miter;"/>
                </g>
            </g>
        </g>
        <g id="Lables">
            <g id="Branding">
                <path d="M27.355,362.45l0.545,0c0.049,0 0.07,-0.028 0.056,-0.077l-0.72,-2.163c-0.007,-0.021 0,-0.028 0.014,-0.042c0.419,-0.182 0.685,-0.637 0.685,-1.232c0,-0.826 -0.482,-1.393 -1.204,-1.393l-1.252,0c-0.042,0 -0.07,0.028 -0.07,0.07l0,4.767c0,0.042 0.028,0.07 0.07,0.07l0.531,0c0.042,0 0.07,-0.028 0.07,-0.07l0,-2.079c0,-0.014 0.014,-0.028 0.028,-0.028l0.483,0c0.014,0 0.021,0 0.028,0.021l0.652,2.1c0.014,0.035 0.049,0.056 0.084,0.056Zm-1.247,-4.326l0.518,0c0.379,0 0.638,0.315 0.638,0.819c0,0.49 -0.259,0.805 -0.638,0.805l-0.518,0c-0.014,0 -0.028,-0.014 -0.028,-0.028l0,-1.568c0,-0.014 0.014,-0.028 0.028,-0.028Z" style="fill:rgb(199,206,201);fill-rule:nonzero;"/>
                <path d="M31.043,362.45l0.546,0c0.049,0 0.07,-0.035 0.063,-0.077l-1.057,-4.76c-0.007,-0.042 -0.035,-0.063 -0.077,-0.063l-0.615,0c-0.042,0 -0.07,0.021 -0.077,0.063l-1.043,4.76c-0.007,0.042 0.014,0.077 0.063,0.077l0.532,0c0.042,0 0.07,-0.021 0.077,-0.063l0.161,-0.805c0,-0.014 0.021,-0.028 0.035,-0.028l1.126,0c0.014,0 0.035,0.014 0.035,0.028l0.154,0.805c0.007,0.042 0.035,0.063 0.077,0.063Zm-1.308,-1.456l0.475,-2.394c0.007,-0.028 0.021,-0.028 0.028,0l0.462,2.394c0,0.014 -0.007,0.028 -0.021,0.028l-0.923,0c-0.014,0 -0.021,-0.014 -0.021,-0.028Z" style="fill:rgb(199,206,201);fill-rule:nonzero;"/>
                <path d="M33.717,362.506c0.764,0 1.267,-0.497 1.267,-1.267l0,-0.105c0,-0.042 -0.028,-0.07 -0.07,-0.07l-0.531,-0.028c-0.042,0 -0.07,0.028 -0.07,0.07l0,0.182c0,0.378 -0.238,0.637 -0.596,0.637c-0.357,0 -0.588,-0.259 -0.588,-0.637l0,-2.576c0,-0.385 0.231,-0.637 0.588,-0.637c0.358,0 0.596,0.252 0.596,0.637l0,0.182c0,0.042 0.028,0.07 0.07,0.07l0.531,-0.028c0.042,0 0.07,-0.028 0.07,-0.07l0,-0.112c0,-0.77 -0.503,-1.26 -1.267,-1.26c-0.756,0 -1.259,0.49 -1.259,1.26l0,2.485c0,0.77 0.503,1.267 1.259,1.267Z" style="fill:rgb(199,206,201);fill-rule:nonzero;"/>
                <path d="M36.14,362.45l0.531,0c0.042,0 0.07,-0.028 0.07,-0.07l0,-1.575c0,-0.014 0,-0.028 0.007,-0.035l0.357,-0.567c0.014,-0.014 0.028,-0.014 0.035,0.007l0.91,2.184c0.014,0.042 0.042,0.056 0.077,0.056l0.581,0c0.049,0 0.077,-0.035 0.056,-0.084l-1.169,-2.744c-0.007,-0.014 -0.007,-0.028 0,-0.042l1.078,-1.946c0.028,-0.049 0.007,-0.084 -0.049,-0.084l-0.574,0c-0.035,0 -0.063,0.021 -0.084,0.049l-1.19,2.128c-0.014,0.028 -0.035,0.021 -0.035,-0.007l0,-2.1c0,-0.042 -0.028,-0.07 -0.07,-0.07l-0.531,0c-0.042,0 -0.07,0.028 -0.07,0.07l0,4.76c0,0.042 0.028,0.07 0.07,0.07Z" style="fill:rgb(199,206,201);fill-rule:nonzero;"/>
                <path d="M40.438,362.45l0.497,0c0.042,0 0.063,-0.014 0.07,-0.063l0.503,-3.311c0,-0.021 0.021,-0.021 0.028,0l0.532,3.311c0.007,0.042 0.028,0.063 0.07,0.063l0.497,0c0.042,0 0.07,-0.021 0.077,-0.063l0.882,-4.76c0.007,-0.042 -0.014,-0.077 -0.063,-0.077l-0.546,0c-0.042,0 -0.063,0.021 -0.07,0.063l-0.518,3.283c-0.007,0.021 -0.021,0.021 -0.028,0l-0.539,-3.283c-0.007,-0.042 -0.028,-0.063 -0.07,-0.063l-0.469,0c-0.042,0 -0.063,0.014 -0.07,0.063l-0.503,3.283c-0.007,0.021 -0.021,0.021 -0.028,0l-0.567,-3.283c-0.007,-0.042 -0.035,-0.063 -0.077,-0.063l-0.553,0c-0.049,0 -0.07,0.035 -0.063,0.077l0.931,4.76c0.007,0.042 0.035,0.063 0.077,0.063Z" style="fill:rgb(199,206,201);fill-rule:nonzero;"/>
                <path d="M44.624,362.45l0.531,0c0.042,0 0.07,-0.028 0.07,-0.07l0,-4.76c0,-0.042 -0.028,-0.07 -0.07,-0.07l-0.531,0c-0.042,0 -0.07,0.028 -0.07,0.07l0,4.76c0,0.042 0.028,0.07 0.07,0.07Z" style="fill:rgb(199,206,201);fill-rule:nonzero;"/>
                <path d="M46.52,362.45l0.525,0c0.042,0 0.07,-0.028 0.07,-0.07l-0.007,-3.073c0,-0.028 0.028,-0.028 0.035,0l1.246,3.087c0.014,0.042 0.042,0.056 0.077,0.056l0.546,0c0.042,0 0.07,-0.028 0.07,-0.07l0,-4.76c0,-0.042 -0.028,-0.07 -0.07,-0.07l-0.525,0c-0.042,0 -0.07,0.028 -0.07,0.07l0,3.066c0,0.028 -0.028,0.035 -0.035,0.007l-1.246,-3.087c-0.014,-0.042 -0.042,-0.056 -0.077,-0.056l-0.539,0c-0.042,0 -0.07,0.028 -0.07,0.07l0,4.76c0,0.042 0.028,0.07 0.07,0.07Z" style="fill:rgb(199,206,201);fill-rule:nonzero;"/>
                <path d="M50.371,362.45l1.147,0c0.771,0 1.267,-0.511 1.267,-1.323l0,-2.254c0,-0.812 -0.496,-1.323 -1.267,-1.323l-1.147,0c-0.042,0 -0.07,0.028 -0.07,0.07l0,4.76c0,0.042 0.028,0.07 0.07,0.07Zm0.601,-0.609l0,-3.682c0,-0.014 0.014,-0.028 0.028,-0.028l0.511,0c0.365,0 0.596,0.301 0.596,0.777l0,2.184c-0.007,0.476 -0.238,0.77 -0.596,0.77l-0.511,0.007c-0.014,0 -0.028,-0.014 -0.028,-0.028Z" style="fill:rgb(199,206,201);fill-rule:nonzero;"/>
                <path d="M55.109,362.506c0.771,0 1.288,-0.504 1.288,-1.281l0,-2.443c0,-0.777 -0.517,-1.288 -1.288,-1.288c-0.763,0 -1.273,0.511 -1.273,1.288l0,2.443c0,0.777 0.51,1.281 1.273,1.281Zm0,-0.581c-0.364,0 -0.602,-0.273 -0.602,-0.672l0,-2.506c0,-0.399 0.238,-0.672 0.602,-0.672c0.372,0 0.617,0.273 0.617,0.672l0,2.506c0,0.399 -0.245,0.672 -0.617,0.672Z" style="fill:rgb(199,206,201);fill-rule:nonzero;"/>
                <path d="M58.19,362.45l0.497,0c0.042,0 0.063,-0.014 0.07,-0.063l0.503,-3.311c0,-0.021 0.021,-0.021 0.028,0l0.532,3.311c0.007,0.042 0.028,0.063 0.07,0.063l0.497,0c0.042,0 0.07,-0.021 0.077,-0.063l0.882,-4.76c0.007,-0.042 -0.014,-0.077 -0.063,-0.077l-0.546,0c-0.042,0 -0.063,0.021 -0.07,0.063l-0.518,3.283c-0.007,0.021 -0.021,0.021 -0.028,0l-0.539,-3.283c-0.007,-0.042 -0.028,-0.063 -0.07,-0.063l-0.469,0c-0.042,0 -0.063,0.014 -0.07,0.063l-0.503,3.283c-0.007,0.021 -0.021,0.021 -0.028,0l-0.567,-3.283c-0.007,-0.042 -0.035,-0.063 -0.077,-0.063l-0.553,0c-0.049,0 -0.07,0.035 -0.063,0.077l0.931,4.76c0.007,0.042 0.035,0.063 0.077,0.063Z" style="fill:rgb(199,206,201);fill-rule:nonzero;"/>
                <path d="M63.341,362.506c0.729,0 1.246,-0.504 1.246,-1.295c0,-0.672 -0.371,-0.966 -1.084,-1.498c-0.54,-0.399 -0.743,-0.588 -0.743,-0.987c0,-0.42 0.231,-0.651 0.546,-0.651c0.344,0 0.582,0.28 0.582,0.7l0,0.189c0,0.042 0.028,0.07 0.07,0.07l0.517,0c0.042,0 0.07,-0.028 0.07,-0.07l0,-0.175c0,-0.777 -0.489,-1.295 -1.239,-1.295c-0.707,0 -1.21,0.469 -1.21,1.232c0,0.763 0.503,1.134 1.042,1.533c0.505,0.371 0.785,0.567 0.785,0.994c0,0.406 -0.252,0.672 -0.582,0.672c-0.336,0 -0.574,-0.273 -0.574,-0.707l0,-0.154c0,-0.042 -0.028,-0.07 -0.07,-0.07l-0.517,0c-0.042,0 -0.07,0.028 -0.07,0.07l0,0.189c0,0.749 0.496,1.253 1.231,1.253Z" style="fill:rgb(199,206,201);fill-rule:nonzero;"/>
                <path d="M28.2,24.991c1.368,0 2.279,-0.887 2.279,-2.255l0,-0.144c0,-0.084 -0.06,-0.144 -0.144,-0.144l-1.114,-0.048c-0.084,0 -0.144,0.06 -0.144,0.144l0,0.3c0,0.564 -0.349,0.948 -0.877,0.948c-0.516,0 -0.865,-0.384 -0.865,-0.948l0,-4.297c0,-0.564 0.349,-0.949 0.865,-0.949c0.528,0 0.877,0.385 0.877,0.949l0,0.3c0,0.096 0.06,0.144 0.144,0.144l1.114,-0.048c0.084,0 0.144,-0.072 0.144,-0.156l0,-0.144c0,-1.38 -0.911,-2.243 -2.279,-2.243c-1.356,0 -2.255,0.863 -2.255,2.243l0,4.093c0,1.368 0.899,2.254 2.255,2.254Z" style="fill:white;fill-rule:nonzero;"/>
                <path d="M33.84,24.991c1.38,0 2.303,-0.899 2.303,-2.279l0,-4.033c0,-1.38 -0.923,-2.279 -2.303,-2.279c-1.38,0 -2.291,0.899 -2.291,2.279l0,4.033c0,1.38 0.911,2.279 2.291,2.279Zm0,-1.199c-0.552,0 -0.901,-0.42 -0.901,-1.02l0,-4.153c0,-0.6 0.349,-1.02 0.901,-1.02c0.552,0 0.913,0.42 0.913,1.02l0,4.153c0,0.6 -0.361,1.02 -0.913,1.02Z" style="fill:white;fill-rule:nonzero;"/>
                <path d="M37.572,24.895l1.08,0c0.084,0 0.144,-0.06 0.144,-0.144l-0.012,-4.848c0,-0.048 0.048,-0.06 0.072,-0.012l1.872,4.896c0.024,0.072 0.084,0.108 0.168,0.108l1.164,0c0.084,0 0.144,-0.06 0.144,-0.144l0,-8.112c0,-0.084 -0.06,-0.144 -0.144,-0.144l-1.092,0c-0.084,0 -0.144,0.06 -0.144,0.144l0,4.836c0,0.06 -0.048,0.06 -0.072,0.012l-1.86,-4.884c-0.024,-0.072 -0.084,-0.108 -0.168,-0.108l-1.152,0c-0.084,0 -0.144,0.06 -0.144,0.144l0,8.112c0,0.084 0.06,0.144 0.144,0.144Z" style="fill:white;fill-rule:nonzero;"/>
                <path d="M45.66,24.991c1.308,0 2.231,-0.875 2.231,-2.255c0,-1.177 -0.659,-1.693 -1.883,-2.605c-0.888,-0.66 -1.213,-0.96 -1.213,-1.56c0,-0.624 0.349,-0.973 0.805,-0.973c0.504,0 0.853,0.409 0.853,1.033l0,0.312c0,0.084 0.06,0.144 0.144,0.144l1.09,0c0.084,0 0.144,-0.06 0.144,-0.144l0,-0.288c0,-1.356 -0.887,-2.255 -2.231,-2.255c-1.284,0 -2.171,0.839 -2.171,2.171c0,1.344 0.911,2.016 1.823,2.676c0.84,0.625 1.261,0.925 1.261,1.561c0,0.6 -0.361,0.984 -0.853,0.984c-0.48,0 -0.841,-0.408 -0.841,-1.044l0,-0.264c0,-0.084 -0.06,-0.144 -0.144,-0.144l-1.078,0c-0.084,0 -0.144,0.06 -0.144,0.144l0,0.336c0,1.284 0.887,2.17 2.207,2.17Z" style="fill:white;fill-rule:nonzero;"/>
                <path d="M51.168,24.991c1.38,0 2.303,-0.899 2.303,-2.279l0,-4.033c0,-1.38 -0.923,-2.279 -2.303,-2.279c-1.38,0 -2.291,0.899 -2.291,2.279l0,4.033c0,1.38 0.911,2.279 2.291,2.279Zm0,-1.199c-0.552,0 -0.901,-0.42 -0.901,-1.02l0,-4.153c0,-0.6 0.349,-1.02 0.901,-1.02c0.552,0 0.913,0.42 0.913,1.02l0,4.153c0,0.6 -0.361,1.02 -0.913,1.02Z" style="fill:white;fill-rule:nonzero;"/>
                <path d="M54.889,24.895l3.898,0c0.084,0 0.144,-0.06 0.144,-0.144l0,-0.911c0,-0.084 -0.06,-0.144 -0.144,-0.144l-2.592,0c-0.036,0 -0.06,-0.024 -0.06,-0.06l0,-6.996c0,-0.084 -0.06,-0.144 -0.144,-0.144l-1.102,0c-0.084,0 -0.144,0.06 -0.144,0.144l0,8.111c0,0.084 0.06,0.143 0.144,0.143Z" style="fill:white;fill-rule:nonzero;"/>
                <path d="M64.031,17.551l0,-0.911c0,-0.084 -0.06,-0.144 -0.144,-0.144l-3.898,0c-0.084,0 -0.144,0.06 -0.144,0.144l0,8.111c0,0.084 0.06,0.143 0.144,0.143l3.898,0c0.084,0 0.144,-0.059 0.144,-0.143l0,-0.911c0,-0.084 -0.06,-0.144 -0.144,-0.144l-2.592,0c-0.036,0 -0.06,-0.024 -0.06,-0.06l0,-2.281c0,-0.036 0.024,-0.061 0.06,-0.061l1.536,0c0.084,0 0.144,-0.059 0.144,-0.143l0,-0.923c0,-0.084 -0.06,-0.144 -0.144,-0.144l-1.536,0c-0.036,0 -0.06,-0.024 -0.06,-0.06l0,-2.269c0,-0.036 0.024,-0.061 0.06,-0.061l2.592,0c0.084,0 0.144,-0.059 0.144,-0.143Z" style="fill:white;fill-rule:nonzero;"/>
                <path d="M40.789,35.318l0.45,0c0.045,0 0.09,-0.036 0.099,-0.09l0.566,-4.617c0,-0.036 0.036,-0.036 0.045,-0.009l0.648,2.097c0.009,0.054 0.045,0.072 0.081,0.072c0.027,0 0.063,-0.018 0.081,-0.072l1.152,-2.088c0.009,-0.027 0.045,-0.027 0.036,0.009l-0.558,4.608c-0.009,0.054 0.018,0.09 0.072,0.09l0.441,0c0.054,0 0.099,-0.036 0.099,-0.09l0.756,-6.12c0.009,-0.054 -0.027,-0.09 -0.081,-0.09l-0.45,0c-0.045,0 -0.081,0.018 -0.108,0.072l-1.287,2.439c-0.009,0.027 -0.045,0.027 -0.045,0l-0.684,-2.439c-0.009,-0.054 -0.045,-0.072 -0.081,-0.072l-0.458,0c-0.054,0 -0.09,0.036 -0.099,0.09l-0.747,6.12c-0.009,0.054 0.018,0.09 0.072,0.09Z" style="fill:rgb(199,206,201);fill-rule:nonzero;"/>
                <path d="M45.316,35.318l0.45,0c0.045,0 0.09,-0.036 0.099,-0.09l0.566,-4.617c0,-0.036 0.036,-0.036 0.045,-0.009l0.648,2.097c0.009,0.054 0.045,0.072 0.081,0.072c0.027,0 0.063,-0.018 0.081,-0.072l1.152,-2.088c0.009,-0.027 0.045,-0.027 0.036,0.009l-0.558,4.608c-0.009,0.054 0.018,0.09 0.072,0.09l0.441,0c0.054,0 0.099,-0.036 0.099,-0.09l0.756,-6.12c0.009,-0.054 -0.027,-0.09 -0.081,-0.09l-0.45,0c-0.045,0 -0.081,0.018 -0.108,0.072l-1.287,2.439c-0.009,0.027 -0.045,0.027 -0.045,0l-0.684,-2.439c-0.009,-0.054 -0.045,-0.072 -0.081,-0.072l-0.458,0c-0.054,0 -0.09,0.036 -0.099,0.09l-0.747,6.12c-0.009,0.054 0.018,0.09 0.072,0.09Z" style="fill:rgb(199,206,201);fill-rule:nonzero;"/>
            </g>
            <path d="M25.121,267.549l2.375,0c0.054,0 0.09,-0.036 0.09,-0.089l0,-0.378c0,-0.054 -0.036,-0.09 -0.09,-0.09l-1.791,0c-0.018,0 -0.036,-0.018 -0.036,-0.036l0,-4.509c0,-0.054 -0.036,-0.09 -0.09,-0.09l-0.458,0c-0.054,0 -0.09,0.036 -0.09,0.09l0,5.013c0,0.053 0.036,0.089 0.09,0.089Z" style="fill:white;fill-rule:nonzero;"/>
            <path d="M64.652,267.549l0.467,0c0.063,0 0.09,-0.036 0.072,-0.099l-0.836,-2.277c-0.009,-0.026 0,-0.035 0.027,-0.044c0.495,-0.189 0.791,-0.675 0.791,-1.314c0,-0.865 -0.539,-1.467 -1.322,-1.467l-1.341,0c-0.054,0 -0.09,0.036 -0.09,0.09l0,5.021c0,0.054 0.036,0.09 0.09,0.09l0.458,0c0.054,0 0.09,-0.036 0.09,-0.09l0,-2.205c0,-0.018 0.018,-0.036 0.036,-0.036l0.631,0c0.018,0 0.027,0 0.036,0.027l0.783,2.232c0.018,0.054 0.063,0.072 0.108,0.072Zm-1.558,-4.644l0.667,0c0.459,0 0.774,0.361 0.774,0.91c0,0.549 -0.315,0.891 -0.774,0.891l-0.667,0c-0.018,0 -0.036,-0.018 -0.036,-0.036l0,-1.729c0,-0.018 0.018,-0.036 0.036,-0.036Z" style="fill:white;fill-rule:nonzero;"/>
            <path d="M39.739,130.581c0,-0.27 -0.018,-0.504 -0.063,-0.711c-0.126,-0.828 -0.629,-1.241 -1.368,-1.241c-0.792,0 -1.304,0.458 -1.403,1.322c-0.027,0.207 -0.036,0.432 -0.036,0.666c0,0.306 0.027,0.576 0.072,0.801c0.126,0.765 0.611,1.25 1.349,1.25c0.325,0 0.595,-0.134 0.766,-0.368c0.027,-0.027 0.045,-0.018 0.045,0.009l0,1.206c0,0.585 -0.315,0.982 -0.793,0.982c-0.387,0 -0.711,-0.397 -0.711,-0.982l0,-0.126c0,-0.054 -0.036,-0.09 -0.09,-0.09l-0.458,0c-0.054,0 -0.09,0.036 -0.09,0.09l0,0.144c0,0.937 0.575,1.538 1.349,1.538c0.865,0 1.44,-0.601 1.44,-1.538l-0.009,-2.952Zm-1.431,1.531c-0.369,0 -0.621,-0.235 -0.72,-0.676c-0.054,-0.243 -0.081,-0.504 -0.081,-0.774c0,-0.234 0.018,-0.441 0.045,-0.657c0.09,-0.54 0.351,-0.82 0.756,-0.82c0.406,0 0.649,0.271 0.748,0.775c0.036,0.225 0.045,0.45 0.045,0.702c0,0.243 -0.009,0.495 -0.054,0.738c-0.099,0.468 -0.351,0.712 -0.739,0.712Z" style="fill:white;fill-rule:nonzero;"/>
            <path d="M42.764,132.479l2.06,0c0.054,0 0.09,-0.035 0.09,-0.089l0,-0.378c0,-0.054 -0.036,-0.089 -0.09,-0.089l-2.06,0c-0.054,0 -0.09,0.035 -0.09,0.089l0,0.378c0,0.054 0.036,0.089 0.09,0.089Z" style="fill:white;fill-rule:nonzero;"/>
            <path d="M48.407,128.728l-0.783,0.467c-0.036,0.027 -0.063,0.063 -0.063,0.108l0,0.323c0,0.063 0.045,0.099 0.108,0.072l0.747,-0.333c0.018,-0.009 0.045,0 0.045,0.027l0,5.517c0,0.054 0.036,0.09 0.09,0.09l0.458,0c0.054,0 0.09,-0.036 0.09,-0.09l0,-6.119c0,-0.053 -0.036,-0.089 -0.09,-0.089l-0.485,0c-0.036,0 -0.072,0 -0.117,0.027Z" style="fill:white;fill-rule:nonzero;"/>
            <path d="M53.059,132.282c-0.126,-0.765 -0.611,-1.25 -1.349,-1.25c-0.325,0 -0.595,0.134 -0.766,0.368c-0.027,0.027 -0.045,0.018 -0.045,-0.009l0,-1.206c0,-0.585 0.315,-0.982 0.792,-0.982c0.388,0 0.712,0.397 0.712,0.982l0,0.126c0,0.054 0.036,0.09 0.09,0.09l0.458,0c0.054,0 0.09,-0.036 0.09,-0.09l0,-0.144c0,-0.937 -0.575,-1.538 -1.349,-1.538c-0.865,0 -1.44,0.601 -1.44,1.538l0.009,2.952c0,0.27 0.018,0.504 0.063,0.711c0.126,0.828 0.629,1.241 1.368,1.241c0.792,0 1.304,-0.458 1.403,-1.322c0.027,-0.207 0.036,-0.432 0.036,-0.666c0,-0.306 -0.027,-0.576 -0.072,-0.801Zm-0.611,1.413c-0.09,0.54 -0.351,0.82 -0.757,0.82c-0.405,0 -0.648,-0.271 -0.747,-0.775c-0.036,-0.225 -0.045,-0.45 -0.045,-0.702c0,-0.243 0.009,-0.495 0.054,-0.738c0.099,-0.468 0.351,-0.712 0.738,-0.712c0.37,0 0.622,0.235 0.721,0.676c0.054,0.243 0.081,0.504 0.081,0.774c0,0.234 -0.018,0.441 -0.045,0.657Z" style="fill:white;fill-rule:nonzero;"/>
            <path d="M33.338,178.221c0.919,0 1.53,-0.592 1.53,-1.502l0,-1.647c0,-0.054 -0.036,-0.089 -0.09,-0.089l-1.359,0c-0.054,0 -0.09,0.035 -0.09,0.089l0,0.378c0,0.054 0.036,0.089 0.09,0.089l0.775,0c0.018,0 0.036,0.018 0.036,0.036l0,1.153c0,0.558 -0.351,0.937 -0.892,0.937c-0.531,0 -0.891,-0.379 -0.891,-0.937l0,-3.456c0,-0.558 0.36,-0.937 0.891,-0.937c0.541,0 0.892,0.379 0.892,0.937l0,0.405c0,0.054 0.036,0.09 0.09,0.09l0.458,0c0.054,0 0.09,-0.036 0.09,-0.09l0,-0.387c0,-0.919 -0.611,-1.511 -1.53,-1.511c-0.918,0 -1.52,0.592 -1.52,1.502l0,3.438c0,0.91 0.602,1.502 1.52,1.502Z" style="fill:white;fill-rule:nonzero;"/>
            <path d="M38.667,178.149l0.467,0c0.063,0 0.09,-0.036 0.072,-0.099l-0.98,-2.834c-0.009,-0.027 0,-0.036 0.027,-0.045c0.576,-0.216 0.935,-0.801 0.935,-1.602c0,-1.036 -0.593,-1.727 -1.467,-1.727l-1.484,0c-0.054,0 -0.09,0.035 -0.09,0.089l0,6.128c0,0.054 0.036,0.09 0.09,0.09l0.458,0c0.054,0 0.09,-0.036 0.09,-0.09l0,-2.772c0,-0.018 0.018,-0.036 0.036,-0.036l0.774,0c0.018,0 0.027,0 0.036,0.027l0.928,2.799c0.018,0.045 0.063,0.072 0.108,0.072Zm-1.846,-5.751l0.81,0c0.55,0 0.919,0.46 0.919,1.18c0,0.702 -0.369,1.162 -0.919,1.162l-0.81,0c-0.018,0 -0.036,-0.018 -0.036,-0.036l0,-2.27c0,-0.018 0.018,-0.036 0.036,-0.036Z" style="fill:white;fill-rule:nonzero;"/>
            <path d="M41.879,171.842l-1.484,0c-0.054,0 -0.09,0.035 -0.09,0.089l0,6.128c0,0.054 0.036,0.09 0.09,0.09l0.458,0c0.054,0 0.09,-0.036 0.09,-0.09l0,-2.718c0,-0.018 0.018,-0.036 0.036,-0.036l0.928,0c0.864,0 1.439,-0.683 1.439,-1.718c0,-1.044 -0.584,-1.745 -1.467,-1.745Zm-0.081,2.943l-0.819,0c-0.018,0 -0.036,-0.018 -0.036,-0.036l0,-2.315c0,-0.018 0.018,-0.036 0.036,-0.036l0.819,0c0.541,0 0.91,0.469 0.91,1.198c0,0.729 -0.369,1.189 -0.91,1.189Z" style="fill:white;fill-rule:nonzero;"/>
            <path d="M43.72,178.149l0.45,0c0.054,0 0.09,-0.036 0.099,-0.081l1.629,-6.118c0.018,-0.063 -0.018,-0.099 -0.081,-0.099l-0.45,0c-0.054,0 -0.09,0.036 -0.099,0.081l-1.629,6.118c-0.018,0.063 0.018,0.099 0.081,0.099Z" style="fill:white;fill-rule:nonzero;"/>
            <path d="M48.98,178.149l0.468,0c0.063,0 0.09,-0.045 0.081,-0.099l-1.368,-6.118c-0.009,-0.054 -0.045,-0.081 -0.099,-0.081l-0.539,0c-0.054,0 -0.09,0.027 -0.099,0.081l-1.359,6.118c-0.009,0.054 0.018,0.099 0.081,0.099l0.459,0c0.054,0 0.09,-0.027 0.099,-0.081l0.234,-1.116c0,-0.018 0.027,-0.036 0.045,-0.036l1.628,0c0.018,0 0.045,0.018 0.045,0.036l0.225,1.116c0.009,0.054 0.045,0.081 0.099,0.081Zm-1.916,-1.789l0.719,-3.467c0.009,-0.036 0.027,-0.036 0.036,0l0.711,3.467c0,0.018 -0.009,0.036 -0.027,0.036l-1.412,0c-0.018,0 -0.027,-0.018 -0.027,-0.036Z" style="fill:white;fill-rule:nonzero;"/>
            <path d="M52.157,178.221c0.937,0 1.557,-0.691 1.557,-1.735l0,-4.545c0,-0.054 -0.036,-0.09 -0.09,-0.09l-0.458,0c-0.054,0 -0.09,0.036 -0.09,0.09l0,4.617c0,0.657 -0.369,1.107 -0.919,1.107c-0.54,0 -0.9,-0.45 -0.9,-1.107l0,-4.617c0,-0.054 -0.036,-0.09 -0.09,-0.09l-0.458,0c-0.054,0 -0.09,0.036 -0.09,0.09l0,4.545c0,1.044 0.62,1.735 1.538,1.735Z" style="fill:white;fill-rule:nonzero;"/>
            <path d="M54.903,178.149l0.477,0c0.045,0 0.081,-0.018 0.099,-0.072l0.936,-2.384c0.009,-0.036 0.045,-0.036 0.054,0l0.935,2.384c0.018,0.054 0.054,0.072 0.099,0.072l0.477,0c0.063,0 0.099,-0.045 0.072,-0.108l-1.269,-3.005c-0.009,-0.018 -0.009,-0.036 0,-0.054l1.269,-3.023c0.027,-0.063 -0.009,-0.108 -0.072,-0.108l-0.477,0c-0.045,0 -0.081,0.018 -0.099,0.072l-0.935,2.393c-0.009,0.036 -0.045,0.036 -0.054,0l-0.936,-2.393c-0.018,-0.054 -0.054,-0.072 -0.099,-0.072l-0.477,0c-0.063,0 -0.099,0.045 -0.072,0.108l1.26,3.014c0.009,0.018 0.009,0.036 0,0.054l-1.26,3.014c-0.027,0.063 0.009,0.108 0.072,0.108Z" style="fill:white;fill-rule:nonzero;"/>
            <path d="M39.531,88.728l-0.783,0.467c-0.036,0.027 -0.063,0.063 -0.063,0.108l0,0.323c0,0.063 0.045,0.099 0.108,0.072l0.747,-0.333c0.018,-0.009 0.045,0 0.045,0.027l0,5.517c0,0.054 0.036,0.09 0.09,0.09l0.458,0c0.054,0 0.09,-0.036 0.09,-0.09l0,-6.119c0,-0.053 -0.036,-0.089 -0.09,-0.089l-0.485,0c-0.036,0 -0.072,0 -0.117,0.027Z" style="fill:white;fill-rule:nonzero;"/>
            <path d="M43.257,92.479l2.06,0c0.054,0 0.09,-0.035 0.09,-0.089l0,-0.378c0,-0.054 -0.036,-0.089 -0.09,-0.089l-2.06,0c-0.054,0 -0.09,0.035 -0.09,0.089l0,0.378c0,0.054 0.036,0.089 0.09,0.089Z" style="fill:white;fill-rule:nonzero;"/>
            <path d="M50.511,91.634c0.216,-0.117 0.378,-0.287 0.494,-0.504c0.126,-0.234 0.189,-0.54 0.189,-0.891c0,-0.378 -0.072,-0.693 -0.216,-0.945c-0.233,-0.45 -0.683,-0.683 -1.232,-0.683c-0.568,0 -1.009,0.251 -1.233,0.701c-0.135,0.252 -0.189,0.558 -0.189,0.918c0,0.36 0.063,0.675 0.189,0.918c0.117,0.217 0.278,0.378 0.485,0.486c0.027,0.018 0.027,0.036 0,0.054c-0.225,0.126 -0.395,0.305 -0.503,0.585c-0.117,0.261 -0.171,0.585 -0.171,0.963c0,0.324 0.045,0.612 0.126,0.864c0.215,0.621 0.674,0.971 1.296,0.971c0.639,0 1.107,-0.359 1.313,-0.971c0.081,-0.234 0.135,-0.522 0.135,-0.855c0,-0.414 -0.081,-0.765 -0.207,-1.044c-0.107,-0.244 -0.269,-0.405 -0.476,-0.513c-0.027,-0.018 -0.027,-0.036 0,-0.054Zm-1.432,-2.016c0.126,-0.288 0.351,-0.451 0.667,-0.451c0.315,0 0.54,0.163 0.666,0.424c0.099,0.18 0.153,0.405 0.153,0.684c0,0.261 -0.045,0.477 -0.126,0.648c-0.117,0.297 -0.369,0.478 -0.693,0.478c-0.307,0 -0.532,-0.154 -0.658,-0.442c-0.09,-0.171 -0.144,-0.405 -0.144,-0.675c0,-0.27 0.045,-0.486 0.135,-0.666Zm1.405,4.221c-0.108,0.432 -0.369,0.676 -0.738,0.676c-0.352,0 -0.595,-0.235 -0.703,-0.649c-0.063,-0.189 -0.09,-0.405 -0.09,-0.657c0,-0.297 0.036,-0.54 0.108,-0.738c0.126,-0.36 0.36,-0.559 0.685,-0.559c0.324,0 0.558,0.181 0.684,0.523c0.081,0.198 0.126,0.468 0.126,0.774c0,0.234 -0.027,0.45 -0.072,0.63Z" style="fill:white;fill-rule:nonzero;"/>
            <path d="M35.341,347.555l3.526,0c0.072,0 0.12,-0.048 0.12,-0.12l0,-0.503c0,-0.072 -0.048,-0.119 -0.12,-0.119l-2.748,0c-0.024,0 -0.048,-0.024 -0.048,-0.048l0,-7.488c0,-0.072 -0.048,-0.12 -0.12,-0.12l-0.61,0c-0.072,0 -0.12,0.048 -0.12,0.12l0,8.158c0,0.072 0.048,0.12 0.12,0.12Z" style="fill:white;fill-rule:nonzero;"/>
            <path d="M43.463,344.723l0,-1.499c0,-1.081 -0.718,-1.835 -1.883,-1.835c-1.141,0 -1.871,0.754 -1.871,1.835l0,2.592c0,1.105 0.73,1.835 1.871,1.835c1.057,0 1.716,-0.599 1.847,-1.535c0.012,-0.072 -0.036,-0.132 -0.107,-0.132l-0.599,-0.024c-0.072,0 -0.108,0.036 -0.132,0.108c-0.108,0.492 -0.481,0.841 -1.009,0.841c-0.6,0 -1.021,-0.469 -1.021,-1.141l0,-0.877c0,-0.024 0.024,-0.048 0.048,-0.048l2.736,0c0.072,0 0.12,-0.048 0.12,-0.12Zm-1.883,-2.592c0.624,0 1.045,0.468 1.045,1.153l0,0.804c0,0.025 -0.024,0.049 -0.048,0.049l-1.97,0c-0.024,0 -0.048,-0.024 -0.048,-0.049l0,-0.804c0,-0.685 0.421,-1.153 1.021,-1.153Z" style="fill:white;fill-rule:nonzero;"/>
            <path d="M45.834,347.555l0.72,0c0.072,0 0.12,-0.036 0.132,-0.108l1.474,-5.819c0.024,-0.072 -0.012,-0.131 -0.096,-0.131l-0.695,-0.012c-0.072,0 -0.12,0.036 -0.132,0.107l-1.019,4.645c-0.012,0.048 -0.036,0.048 -0.048,0l-1.031,-4.644c-0.012,-0.072 -0.06,-0.108 -0.132,-0.108l-0.695,0c-0.084,0 -0.12,0.048 -0.096,0.132l1.487,5.83c0.012,0.072 0.059,0.108 0.131,0.108Z" style="fill:white;fill-rule:nonzero;"/>
            <path d="M52.739,344.723l0,-1.499c0,-1.081 -0.718,-1.835 -1.883,-1.835c-1.141,0 -1.871,0.754 -1.871,1.835l0,2.592c0,1.105 0.73,1.835 1.871,1.835c1.057,0 1.716,-0.599 1.847,-1.535c0.012,-0.072 -0.036,-0.132 -0.107,-0.132l-0.599,-0.024c-0.072,0 -0.108,0.036 -0.132,0.108c-0.108,0.492 -0.481,0.841 -1.009,0.841c-0.6,0 -1.021,-0.469 -1.021,-1.141l0,-0.877c0,-0.024 0.024,-0.048 0.048,-0.048l2.736,0c0.072,0 0.12,-0.048 0.12,-0.12Zm-1.883,-2.592c0.624,0 1.045,0.468 1.045,1.153l0,0.804c0,0.025 -0.024,0.049 -0.048,0.049l-1.97,0c-0.024,0 -0.048,-0.024 -0.048,-0.049l0,-0.804c0,-0.685 0.421,-1.153 1.021,-1.153Z" style="fill:white;fill-rule:nonzero;"/>
            <path d="M54.049,347.555l0.61,0c0.072,0 0.12,-0.048 0.12,-0.12l0,-8.158c0,-0.072 -0.048,-0.12 -0.12,-0.12l-0.61,0c-0.072,0 -0.12,0.048 -0.12,0.12l0,8.158c0,0.072 0.048,0.12 0.12,0.12Z" style="fill:white;fill-rule:nonzero;"/>
            <path d="M57.939,55.006c1.38,0 2.303,-0.898 2.303,-2.278l0,-4.033c0,-1.38 -0.923,-2.279 -2.303,-2.279c-1.38,0 -2.291,0.899 -2.291,2.279l0,4.033c0,1.38 0.911,2.278 2.291,2.278Zm0,-1.198c-0.552,0 -0.901,-0.42 -0.901,-1.02l0,-4.153c0,-0.601 0.349,-1.021 0.901,-1.021c0.552,0 0.913,0.42 0.913,1.021l0,4.153c0,0.6 -0.361,1.02 -0.913,1.02Z" style="fill:rgb(121,140,115);fill-rule:nonzero;"/>
            <path d="M63.735,55.006c1.356,0 2.267,-0.958 2.267,-2.422l0,-5.928c0,-0.084 -0.06,-0.144 -0.144,-0.144l-1.102,0c-0.084,0 -0.144,0.06 -0.144,0.144l0,6.072c0,0.636 -0.349,1.08 -0.877,1.08c-0.528,0 -0.877,-0.444 -0.877,-1.08l0,-6.072c0,-0.084 -0.06,-0.144 -0.144,-0.144l-1.102,0c-0.084,0 -0.144,0.06 -0.144,0.144l0,5.928c0,1.464 0.899,2.422 2.267,2.422Z" style="fill:rgb(121,140,115);fill-rule:nonzero;"/>
            <path d="M71.678,46.512l-4.474,0c-0.084,0 -0.144,0.06 -0.144,0.144l0,0.911c0,0.083 0.06,0.143 0.144,0.143l1.44,0c0.036,0 0.06,0.024 0.06,0.06l0,6.996c0,0.084 0.06,0.144 0.144,0.144l1.102,0c0.084,0 0.144,-0.06 0.144,-0.144l0,-6.996c0,-0.036 0.024,-0.06 0.06,-0.06l1.524,0c0.084,0 0.144,-0.06 0.144,-0.143l0,-0.911c0,-0.084 -0.06,-0.144 -0.144,-0.144Z" style="fill:rgb(121,140,115);fill-rule:nonzero;"/>
            <path d="M22.596,55.006l1.103,0c0.084,0 0.144,-0.06 0.144,-0.144l0,-8.111c0,-0.084 -0.06,-0.144 -0.144,-0.144l-1.103,0c-0.084,0 -0.144,0.06 -0.144,0.144l0,8.111c0,0.084 0.06,0.144 0.144,0.144Z" style="fill:rgb(121,140,115);fill-rule:nonzero;"/>
            <path d="M25.416,55.006l1.08,0c0.084,0 0.144,-0.06 0.144,-0.144l-0.012,-4.848c0,-0.048 0.048,-0.06 0.072,-0.012l1.872,4.896c0.024,0.072 0.084,0.108 0.168,0.108l1.164,0c0.084,0 0.144,-0.06 0.144,-0.144l0,-8.112c0,-0.084 -0.06,-0.144 -0.144,-0.144l-1.092,0c-0.084,0 -0.144,0.06 -0.144,0.144l0,4.836c0,0.06 -0.048,0.06 -0.072,0.012l-1.86,-4.884c-0.024,-0.072 -0.084,-0.108 -0.168,-0.108l-1.152,0c-0.084,0 -0.144,0.06 -0.144,0.144l0,8.112c0,0.084 0.06,0.144 0.144,0.144Z" style="fill:rgb(121,140,115);fill-rule:nonzero;"/>
            <circle cx="42.579" cy="265" r="4.298" style="fill:none;stroke:rgb(121,140,115);stroke-width:1.38px;stroke-linecap:square;stroke-linejoin:miter;"/>
            <circle cx="47.421" cy="265" r="4.298" style="fill:none;stroke:rgb(121,140,115);stroke-width:1.38px;stroke-linecap:square;stroke-linejoin:miter;"/>
        </g>
    </g>
</svg>
