<?xml version="1.0" encoding="UTF-8" standalone="no"?>
<!DOCTYPE svg PUBLIC "-//W3C//DTD SVG 1.1//EN" "http://www.w3.org/Graphics/SVG/1.1/DTD/svg11.dtd">
<svg width="90px" height="380px" version="1.1" xmlns="http://www.w3.org/2000/svg" xmlns:xlink="http://www.w3.org/1999/xlink" xml:space="preserve" xmlns:serif="http://www.serif.com/" style="fill-rule:evenodd;clip-rule:evenodd;stroke-linecap:round;stroke-linejoin:round;stroke-miterlimit:1.5;">
    <rect id="Console-Pure-Dark" serif:id="Console Pure Dark" x="0" y="0" width="90" height="379.995" style="fill:none;"/>
    <clipPath id="_clip1">
        <rect x="0" y="0" width="90" height="379.995"/>
    </clipPath>
    <g clip-path="url(#_clip1)">
        <g id="Background">
            <path id="bright" d="M90,379.995l0,-379.995l-90,0l0,379.995l90,0Z" style="fill:#36454a;"/>
            <circle cx="63.75" cy="325" r="14" style="fill:#333;"/>
            <circle cx="63.75" cy="55" r="14" style="fill:#333;"/>
            <circle cx="63.75" cy="95" r="14" style="fill:#333;"/>
            <circle cx="63.75" cy="135" r="14" style="fill:#333;"/>
            <circle cx="26.25" cy="325" r="14" style="fill:#333;"/>
            <path d="M67.5,24.6l22.5,0" style="fill:none;stroke:#808080;stroke-width:0.7px;"/>
            <path d="M26.385,55l37.31,0" style="fill:none;stroke:#808080;stroke-width:0.7px;"/>
            <path d="M26.25,95l37.31,0" style="fill:none;stroke:#808080;stroke-width:0.7px;"/>
            <path d="M26.25,135l37.31,0" style="fill:none;stroke:#808080;stroke-width:0.7px;"/>
            <path d="M0,24.6l22.5,0" style="fill:none;stroke:#808080;stroke-width:0.7px;"/>
            <g id="knobBgLargeThree">
                <g>
                    <path d="M65.754,280.5c11.461,-11.44 11.461,-29.987 0,-41.426c-11.455,-11.432 -30.053,-11.432 -41.508,0c-11.461,11.439 -11.461,29.986 0,41.426l20.754,-20.713l20.754,20.713Z" style="fill:none;stroke:#808080;stroke-width:0.7px;stroke-linecap:butt;stroke-linejoin:miter;"/>
                </g>
            </g>
        </g>
        <g id="Lables">
            <g id="Branding">
                <path d="M27.355,362.45l0.545,0c0.049,0 0.07,-0.028 0.056,-0.077l-0.72,-2.163c-0.007,-0.021 0,-0.028 0.014,-0.042c0.419,-0.182 0.685,-0.637 0.685,-1.232c0,-0.826 -0.482,-1.393 -1.204,-1.393l-1.252,0c-0.042,0 -0.07,0.028 -0.07,0.07l0,4.767c0,0.042 0.028,0.07 0.07,0.07l0.531,0c0.042,0 0.07,-0.028 0.07,-0.07l0,-2.079c0,-0.014 0.014,-0.028 0.028,-0.028l0.483,0c0.014,0 0.021,0 0.028,0.021l0.652,2.1c0.014,0.035 0.049,0.056 0.084,0.056Zm-1.247,-4.326l0.518,0c0.379,0 0.638,0.315 0.638,0.819c0,0.49 -0.259,0.805 -0.638,0.805l-0.518,0c-0.014,0 -0.028,-0.014 -0.028,-0.028l0,-1.568c0,-0.014 0.014,-0.028 0.028,-0.028Z" style="fill:#c7cec9;fill-rule:nonzero;"/>
                <path d="M31.043,362.45l0.546,0c0.049,0 0.07,-0.035 0.063,-0.077l-1.057,-4.76c-0.007,-0.042 -0.035,-0.063 -0.077,-0.063l-0.615,0c-0.042,0 -0.07,0.021 -0.077,0.063l-1.043,4.76c-0.007,0.042 0.014,0.077 0.063,0.077l0.532,0c0.042,0 0.07,-0.021 0.077,-0.063l0.161,-0.805c0,-0.014 0.021,-0.028 0.035,-0.028l1.126,0c0.014,0 0.035,0.014 0.035,0.028l0.154,0.805c0.007,0.042 0.035,0.063 0.077,0.063Zm-1.308,-1.456l0.475,-2.394c0.007,-0.028 0.021,-0.028 0.028,0l0.462,2.394c0,0.014 -0.007,0.028 -0.021,0.028l-0.923,0c-0.014,0 -0.021,-0.014 -0.021,-0.028Z" style="fill:#c7cec9;fill-rule:nonzero;"/>
                <path d="M33.717,362.506c0.764,0 1.267,-0.497 1.267,-1.267l0,-0.105c0,-0.042 -0.028,-0.07 -0.07,-0.07l-0.531,-0.028c-0.042,0 -0.07,0.028 -0.07,0.07l0,0.182c0,0.378 -0.238,0.637 -0.596,0.637c-0.357,0 -0.588,-0.259 -0.588,-0.637l0,-2.576c0,-0.385 0.231,-0.637 0.588,-0.637c0.358,0 0.596,0.252 0.596,0.637l0,0.182c0,0.042 0.028,0.07 0.07,0.07l0.531,-0.028c0.042,0 0.07,-0.028 0.07,-0.07l0,-0.112c0,-0.77 -0.503,-1.26 -1.267,-1.26c-0.756,0 -1.259,0.49 -1.259,1.26l0,2.485c0,0.77 0.503,1.267 1.259,1.267Z" style="fill:#c7cec9;fill-rule:nonzero;"/>
                <path d="M36.14,362.45l0.531,0c0.042,0 0.07,-0.028 0.07,-0.07l0,-1.575c0,-0.014 0,-0.028 0.007,-0.035l0.357,-0.567c0.014,-0.014 0.028,-0.014 0.035,0.007l0.91,2.184c0.014,0.042 0.042,0.056 0.077,0.056l0.581,0c0.049,0 0.077,-0.035 0.056,-0.084l-1.169,-2.744c-0.007,-0.014 -0.007,-0.028 0,-0.042l1.078,-1.946c0.028,-0.049 0.007,-0.084 -0.049,-0.084l-0.574,0c-0.035,0 -0.063,0.021 -0.084,0.049l-1.19,2.128c-0.014,0.028 -0.035,0.021 -0.035,-0.007l0,-2.1c0,-0.042 -0.028,-0.07 -0.07,-0.07l-0.531,0c-0.042,0 -0.07,0.028 -0.07,0.07l0,4.76c0,0.042 0.028,0.07 0.07,0.07Z" style="fill:#c7cec9;fill-rule:nonzero;"/>
                <path d="M40.438,362.45l0.497,0c0.042,0 0.063,-0.014 0.07,-0.063l0.503,-3.311c0,-0.021 0.021,-0.021 0.028,0l0.532,3.311c0.007,0.042 0.028,0.063 0.07,0.063l0.497,0c0.042,0 0.07,-0.021 0.077,-0.063l0.882,-4.76c0.007,-0.042 -0.014,-0.077 -0.063,-0.077l-0.546,0c-0.042,0 -0.063,0.021 -0.07,0.063l-0.518,3.283c-0.007,0.021 -0.021,0.021 -0.028,0l-0.539,-3.283c-0.007,-0.042 -0.028,-0.063 -0.07,-0.063l-0.469,0c-0.042,0 -0.063,0.014 -0.07,0.063l-0.503,3.283c-0.007,0.021 -0.021,0.021 -0.028,0l-0.567,-3.283c-0.007,-0.042 -0.035,-0.063 -0.077,-0.063l-0.553,0c-0.049,0 -0.07,0.035 -0.063,0.077l0.931,4.76c0.007,0.042 0.035,0.063 0.077,0.063Z" style="fill:#c7cec9;fill-rule:nonzero;"/>
                <path d="M44.624,362.45l0.531,0c0.042,0 0.07,-0.028 0.07,-0.07l0,-4.76c0,-0.042 -0.028,-0.07 -0.07,-0.07l-0.531,0c-0.042,0 -0.07,0.028 -0.07,0.07l0,4.76c0,0.042 0.028,0.07 0.07,0.07Z" style="fill:#c7cec9;fill-rule:nonzero;"/>
                <path d="M46.52,362.45l0.525,0c0.042,0 0.07,-0.028 0.07,-0.07l-0.007,-3.073c0,-0.028 0.028,-0.028 0.035,0l1.246,3.087c0.014,0.042 0.042,0.056 0.077,0.056l0.546,0c0.042,0 0.07,-0.028 0.07,-0.07l0,-4.76c0,-0.042 -0.028,-0.07 -0.07,-0.07l-0.525,0c-0.042,0 -0.07,0.028 -0.07,0.07l0,3.066c0,0.028 -0.028,0.035 -0.035,0.007l-1.246,-3.087c-0.014,-0.042 -0.042,-0.056 -0.077,-0.056l-0.539,0c-0.042,0 -0.07,0.028 -0.07,0.07l0,4.76c0,0.042 0.028,0.07 0.07,0.07Z" style="fill:#c7cec9;fill-rule:nonzero;"/>
                <path d="M50.371,362.45l1.147,0c0.771,0 1.267,-0.511 1.267,-1.323l0,-2.254c0,-0.812 -0.496,-1.323 -1.267,-1.323l-1.147,0c-0.042,0 -0.07,0.028 -0.07,0.07l0,4.76c0,0.042 0.028,0.07 0.07,0.07Zm0.601,-0.609l0,-3.682c0,-0.014 0.014,-0.028 0.028,-0.028l0.511,0c0.365,0 0.596,0.301 0.596,0.777l0,2.184c-0.007,0.476 -0.238,0.77 -0.596,0.77l-0.511,0.007c-0.014,0 -0.028,-0.014 -0.028,-0.028Z" style="fill:#c7cec9;fill-rule:nonzero;"/>
                <path d="M55.109,362.506c0.771,0 1.288,-0.504 1.288,-1.281l0,-2.443c0,-0.777 -0.517,-1.288 -1.288,-1.288c-0.763,0 -1.273,0.511 -1.273,1.288l0,2.443c0,0.777 0.51,1.281 1.273,1.281Zm0,-0.581c-0.364,0 -0.602,-0.273 -0.602,-0.672l0,-2.506c0,-0.399 0.238,-0.672 0.602,-0.672c0.372,0 0.617,0.273 0.617,0.672l0,2.506c0,0.399 -0.245,0.672 -0.617,0.672Z" style="fill:#c7cec9;fill-rule:nonzero;"/>
                <path d="M58.19,362.45l0.497,0c0.042,0 0.063,-0.014 0.07,-0.063l0.503,-3.311c0,-0.021 0.021,-0.021 0.028,0l0.532,3.311c0.007,0.042 0.028,0.063 0.07,0.063l0.497,0c0.042,0 0.07,-0.021 0.077,-0.063l0.882,-4.76c0.007,-0.042 -0.014,-0.077 -0.063,-0.077l-0.546,0c-0.042,0 -0.063,0.021 -0.07,0.063l-0.518,3.283c-0.007,0.021 -0.021,0.021 -0.028,0l-0.539,-3.283c-0.007,-0.042 -0.028,-0.063 -0.07,-0.063l-0.469,0c-0.042,0 -0.063,0.014 -0.07,0.063l-0.503,3.283c-0.007,0.021 -0.021,0.021 -0.028,0l-0.567,-3.283c-0.007,-0.042 -0.035,-0.063 -0.077,-0.063l-0.553,0c-0.049,0 -0.07,0.035 -0.063,0.077l0.931,4.76c0.007,0.042 0.035,0.063 0.077,0.063Z" style="fill:#c7cec9;fill-rule:nonzero;"/>
                <path d="M63.341,362.506c0.729,0 1.246,-0.504 1.246,-1.295c0,-0.672 -0.371,-0.966 -1.084,-1.498c-0.54,-0.399 -0.743,-0.588 -0.743,-0.987c0,-0.42 0.231,-0.651 0.546,-0.651c0.344,0 0.582,0.28 0.582,0.7l0,0.189c0,0.042 0.028,0.07 0.07,0.07l0.517,0c0.042,0 0.07,-0.028 0.07,-0.07l0,-0.175c0,-0.777 -0.489,-1.295 -1.239,-1.295c-0.707,0 -1.21,0.469 -1.21,1.232c0,0.763 0.503,1.134 1.042,1.533c0.505,0.371 0.785,0.567 0.785,0.994c0,0.406 -0.252,0.672 -0.582,0.672c-0.336,0 -0.574,-0.273 -0.574,-0.707l0,-0.154c0,-0.042 -0.028,-0.07 -0.07,-0.07l-0.517,0c-0.042,0 -0.07,0.028 -0.07,0.07l0,0.189c0,0.749 0.496,1.253 1.231,1.253Z" style="fill:#c7cec9;fill-rule:nonzero;"/>
                <path d="M28.2,24.991c1.368,0 2.279,-0.887 2.279,-2.255l0,-0.144c0,-0.084 -0.06,-0.144 -0.144,-0.144l-1.114,-0.048c-0.084,0 -0.144,0.06 -0.144,0.144l0,0.3c0,0.564 -0.349,0.948 -0.877,0.948c-0.516,0 -0.865,-0.384 -0.865,-0.948l0,-4.297c0,-0.564 0.349,-0.949 0.865,-0.949c0.528,0 0.877,0.385 0.877,0.949l0,0.3c0,0.096 0.06,0.144 0.144,0.144l1.114,-0.048c0.084,0 0.144,-0.072 0.144,-0.156l0,-0.144c0,-1.38 -0.911,-2.243 -2.279,-2.243c-1.356,0 -2.255,0.863 -2.255,2.243l0,4.093c0,1.368 0.899,2.254 2.255,2.254Z" style="fill:#fff;fill-rule:nonzero;"/>
                <path d="M33.84,24.991c1.38,0 2.303,-0.899 2.303,-2.279l0,-4.033c0,-1.38 -0.923,-2.279 -2.303,-2.279c-1.38,0 -2.291,0.899 -2.291,2.279l0,4.033c0,1.38 0.911,2.279 2.291,2.279Zm0,-1.199c-0.552,0 -0.901,-0.42 -0.901,-1.02l0,-4.153c0,-0.6 0.349,-1.02 0.901,-1.02c0.552,0 0.913,0.42 0.913,1.02l0,4.153c0,0.6 -0.361,1.02 -0.913,1.02Z" style="fill:#fff;fill-rule:nonzero;"/>
                <path d="M37.572,24.895l1.08,0c0.084,0 0.144,-0.06 0.144,-0.144l-0.012,-4.848c0,-0.048 0.048,-0.06 0.072,-0.012l1.872,4.896c0.024,0.072 0.084,0.108 0.168,0.108l1.164,0c0.084,0 0.144,-0.06 0.144,-0.144l0,-8.112c0,-0.084 -0.06,-0.144 -0.144,-0.144l-1.092,0c-0.084,0 -0.144,0.06 -0.144,0.144l0,4.836c0,0.06 -0.048,0.06 -0.072,0.012l-1.86,-4.884c-0.024,-0.072 -0.084,-0.108 -0.168,-0.108l-1.152,0c-0.084,0 -0.144,0.06 -0.144,0.144l0,8.112c0,0.084 0.06,0.144 0.144,0.144Z" style="fill:#fff;fill-rule:nonzero;"/>
                <path d="M45.66,24.991c1.308,0 2.231,-0.875 2.231,-2.255c0,-1.177 -0.659,-1.693 -1.883,-2.605c-0.888,-0.66 -1.213,-0.96 -1.213,-1.56c0,-0.624 0.349,-0.973 0.805,-0.973c0.504,0 0.853,0.409 0.853,1.033l0,0.312c0,0.084 0.06,0.144 0.144,0.144l1.09,0c0.084,0 0.144,-0.06 0.144,-0.144l0,-0.288c0,-1.356 -0.887,-2.255 -2.231,-2.255c-1.284,0 -2.171,0.839 -2.171,2.171c0,1.344 0.911,2.016 1.823,2.676c0.84,0.625 1.261,0.925 1.261,1.561c0,0.6 -0.361,0.984 -0.853,0.984c-0.48,0 -0.841,-0.408 -0.841,-1.044l0,-0.264c0,-0.084 -0.06,-0.144 -0.144,-0.144l-1.078,0c-0.084,0 -0.144,0.06 -0.144,0.144l0,0.336c0,1.284 0.887,2.17 2.207,2.17Z" style="fill:#fff;fill-rule:nonzero;"/>
                <path d="M51.168,24.991c1.38,0 2.303,-0.899 2.303,-2.279l0,-4.033c0,-1.38 -0.923,-2.279 -2.303,-2.279c-1.38,0 -2.291,0.899 -2.291,2.279l0,4.033c0,1.38 0.911,2.279 2.291,2.279Zm0,-1.199c-0.552,0 -0.901,-0.42 -0.901,-1.02l0,-4.153c0,-0.6 0.349,-1.02 0.901,-1.02c0.552,0 0.913,0.42 0.913,1.02l0,4.153c0,0.6 -0.361,1.02 -0.913,1.02Z" style="fill:#fff;fill-rule:nonzero;"/>
                <path d="M54.889,24.895l3.898,0c0.084,0 0.144,-0.06 0.144,-0.144l0,-0.911c0,-0.084 -0.06,-0.144 -0.144,-0.144l-2.592,0c-0.036,0 -0.06,-0.024 -0.06,-0.06l0,-6.996c0,-0.084 -0.06,-0.144 -0.144,-0.144l-1.102,0c-0.084,0 -0.144,0.06 -0.144,0.144l0,8.111c0,0.084 0.06,0.143 0.144,0.143Z" style="fill:#fff;fill-rule:nonzero;"/>
                <path d="M64.031,17.551l0,-0.911c0,-0.084 -0.06,-0.144 -0.144,-0.144l-3.898,0c-0.084,0 -0.144,0.06 -0.144,0.144l0,8.111c0,0.084 0.06,0.143 0.144,0.143l3.898,0c0.084,0 0.144,-0.059 0.144,-0.143l0,-0.911c0,-0.084 -0.06,-0.144 -0.144,-0.144l-2.592,0c-0.036,0 -0.06,-0.024 -0.06,-0.06l0,-2.281c0,-0.036 0.024,-0.061 0.06,-0.061l1.536,0c0.084,0 0.144,-0.059 0.144,-0.143l0,-0.923c0,-0.084 -0.06,-0.144 -0.144,-0.144l-1.536,0c-0.036,0 -0.06,-0.024 -0.06,-0.06l0,-2.269c0,-0.036 0.024,-0.061 0.06,-0.061l2.592,0c0.084,0 0.144,-0.059 0.144,-0.143Z" style="fill:#fff;fill-rule:nonzero;"/>
                <path d="M40.456,35.318l0.45,0c0.045,0 0.09,-0.036 0.099,-0.09l0.566,-4.617c0,-0.036 0.036,-0.036 0.045,-0.009l0.649,2.097c0.009,0.054 0.045,0.072 0.08,0.072c0.027,0 0.063,-0.018 0.081,-0.072l1.152,-2.088c0.009,-0.027 0.045,-0.027 0.036,0.009l-0.558,4.608c-0.009,0.054 0.018,0.09 0.072,0.09l0.441,0c0.054,0 0.099,-0.036 0.099,-0.09l0.756,-6.12c0.009,-0.054 -0.027,-0.09 -0.081,-0.09l-0.45,0c-0.045,0 -0.081,0.018 -0.108,0.072l-1.287,2.439c-0.009,0.027 -0.045,0.027 -0.045,0l-0.684,-2.439c-0.009,-0.054 -0.045,-0.072 -0.081,-0.072l-0.458,0c-0.054,0 -0.09,0.036 -0.099,0.09l-0.747,6.12c-0.009,0.054 0.018,0.09 0.072,0.09Z" style="fill:#c7cec9;fill-rule:nonzero;"/>
                <path d="M44.983,35.318l0.45,0c0.045,0 0.09,-0.036 0.099,-0.09l0.566,-4.617c0,-0.036 0.036,-0.036 0.045,-0.009l0.649,2.097c0.009,0.054 0.045,0.072 0.08,0.072c0.027,0 0.063,-0.018 0.081,-0.072l1.152,-2.088c0.009,-0.027 0.045,-0.027 0.036,0.009l-0.558,4.608c-0.009,0.054 0.018,0.09 0.072,0.09l0.441,0c0.054,0 0.099,-0.036 0.099,-0.09l0.756,-6.12c0.009,-0.054 -0.027,-0.09 -0.081,-0.09l-0.45,0c-0.045,0 -0.081,0.018 -0.108,0.072l-1.287,2.439c-0.009,0.027 -0.045,0.027 -0.045,0l-0.684,-2.439c-0.009,-0.054 -0.045,-0.072 -0.081,-0.072l-0.458,0c-0.054,0 -0.09,0.036 -0.099,0.09l-0.747,6.12c-0.009,0.054 0.018,0.09 0.072,0.09Z" style="fill:#c7cec9;fill-rule:nonzero;"/>
            </g>
            <path d="M23.321,157.592l0.585,0c0.052,0 0.075,-0.038 0.067,-0.083l-1.132,-5.099c-0.007,-0.045 -0.037,-0.068 -0.082,-0.068l-0.66,0c-0.045,0 -0.075,0.023 -0.082,0.068l-1.118,5.099c-0.007,0.045 0.015,0.083 0.068,0.083l0.57,0c0.045,0 0.075,-0.023 0.082,-0.068l0.173,-0.862c0,-0.015 0.022,-0.03 0.037,-0.03l1.207,0c0.015,0 0.038,0.015 0.038,0.03l0.165,0.862c0.007,0.045 0.037,0.068 0.082,0.068Zm-1.402,-1.56l0.51,-2.565c0.007,-0.03 0.022,-0.03 0.03,0l0.495,2.565c0,0.015 -0.008,0.03 -0.023,0.03l-0.989,0c-0.015,0 -0.023,-0.015 -0.023,-0.03Z" style="fill:#fff;fill-rule:nonzero;"/>
            <path d="M26.134,157.652c0.818,0 1.364,-0.592 1.364,-1.485l0,-3.75c0,-0.045 -0.03,-0.075 -0.074,-0.075l-0.57,0c-0.045,0 -0.075,0.03 -0.075,0.075l0,3.825c0,0.465 -0.255,0.788 -0.645,0.788c-0.383,0 -0.638,-0.323 -0.638,-0.788l0,-3.825c0,-0.045 -0.03,-0.075 -0.075,-0.075l-0.569,0c-0.045,0 -0.075,0.03 -0.075,0.075l0,3.75c0,0.893 0.539,1.485 1.357,1.485Z" style="fill:#fff;fill-rule:nonzero;"/>
            <path d="M28.392,157.592l0.585,0c0.037,0 0.067,-0.015 0.082,-0.06l0.682,-1.8c0.008,-0.03 0.038,-0.03 0.045,0l0.683,1.8c0.015,0.045 0.045,0.06 0.082,0.06l0.578,0c0.052,0 0.082,-0.038 0.06,-0.09l-1.043,-2.505c-0.007,-0.015 -0.007,-0.03 0,-0.045l1.043,-2.52c0.022,-0.052 -0.008,-0.09 -0.06,-0.09l-0.585,0c-0.038,0 -0.068,0.015 -0.083,0.06l-0.675,1.808c-0.007,0.03 -0.037,0.03 -0.045,0l-0.682,-1.808c-0.015,-0.045 -0.045,-0.06 -0.082,-0.06l-0.585,0c-0.053,0 -0.083,0.038 -0.06,0.09l1.042,2.513c0.008,0.015 0.008,0.03 0,0.045l-1.042,2.512c-0.023,0.052 0.007,0.09 0.06,0.09Z" style="fill:#fff;fill-rule:nonzero;"/>
            <path d="M23.35,113.868c0,-0.195 -0.015,-0.375 -0.045,-0.525c-0.105,-0.735 -0.569,-1.095 -1.237,-1.095c-0.728,0 -1.2,0.405 -1.26,1.155c-0.015,0.157 -0.03,0.33 -0.03,0.517c0,0.218 0.023,0.421 0.053,0.586c0.082,0.682 0.524,1.154 1.214,1.154c0.226,0 0.413,-0.082 0.548,-0.217c0.023,-0.015 0.038,-0.008 0.038,0.015l0,0.825c0,0.413 -0.225,0.69 -0.555,0.69c-0.278,0 -0.496,-0.277 -0.496,-0.69l0,-0.135c0,-0.045 -0.03,-0.075 -0.075,-0.075l-0.569,0c-0.045,0 -0.075,0.03 -0.075,0.075l0,0.165c0,0.795 0.509,1.304 1.214,1.304c0.766,0 1.283,-0.509 1.283,-1.304l-0.008,-2.445Zm-0.757,0.66c-0.067,0.338 -0.247,0.51 -0.517,0.51c-0.271,0 -0.451,-0.165 -0.518,-0.487c-0.03,-0.203 -0.053,-0.398 -0.053,-0.586c0,-0.165 0.008,-0.322 0.03,-0.502c0.06,-0.39 0.248,-0.593 0.541,-0.593c0.285,0 0.457,0.195 0.525,0.555c0.022,0.188 0.03,0.368 0.03,0.54c0,0.173 -0.008,0.368 -0.038,0.563Z" style="fill:#fff;fill-rule:nonzero;"/>
            <path d="M24.138,115.577l1.815,0c0.045,0 0.075,-0.029 0.075,-0.074l0,-0.472c0,-0.045 -0.03,-0.075 -0.075,-0.075l-1.815,0c-0.045,0 -0.075,0.03 -0.075,0.075l0,0.472c0,0.045 0.03,0.074 0.075,0.074Z" style="fill:#fff;fill-rule:nonzero;"/>
            <path d="M27.206,112.331l-0.615,0.337c-0.038,0.015 -0.053,0.052 -0.053,0.09l0,0.419c0,0.053 0.038,0.075 0.09,0.06l0.585,-0.217c0.015,-0.008 0.038,0 0.038,0.022l0,4.44c0,0.045 0.03,0.075 0.075,0.075l0.569,0c0.045,0 0.075,-0.03 0.075,-0.075l0,-5.099c0,-0.045 -0.03,-0.075 -0.075,-0.075l-0.592,0c-0.03,0 -0.067,0.008 -0.097,0.023Z" style="fill:#fff;fill-rule:nonzero;"/>
            <path d="M31.345,115.36c-0.082,-0.682 -0.524,-1.154 -1.214,-1.154c-0.226,0 -0.413,0.082 -0.548,0.217c-0.023,0.015 -0.038,0.008 -0.038,-0.015l0,-0.825c0,-0.413 0.225,-0.691 0.555,-0.691c0.278,0 0.496,0.278 0.496,0.691l0,0.135c0,0.045 0.03,0.075 0.075,0.075l0.569,0c0.045,0 0.075,-0.03 0.075,-0.075l0,-0.165c0,-0.795 -0.509,-1.305 -1.214,-1.305c-0.766,0 -1.283,0.51 -1.283,1.305l0.008,2.445c0,0.195 0.015,0.375 0.045,0.525c0.105,0.735 0.569,1.094 1.237,1.094c0.728,0 1.2,-0.404 1.26,-1.154c0.015,-0.157 0.03,-0.33 0.03,-0.518c0,-0.217 -0.023,-0.42 -0.053,-0.585Zm-0.704,1.043c-0.06,0.39 -0.248,0.593 -0.541,0.593c-0.285,0 -0.457,-0.195 -0.525,-0.555c-0.022,-0.188 -0.03,-0.368 -0.03,-0.541c0,-0.172 0.008,-0.367 0.038,-0.562c0.067,-0.338 0.247,-0.511 0.517,-0.511c0.271,0 0.451,0.166 0.518,0.488c0.03,0.203 0.053,0.398 0.053,0.585c0,0.166 -0.008,0.323 -0.03,0.503Z" style="fill:#fff;fill-rule:nonzero;"/>
            <path d="M22.995,72.365l-0.615,0.337c-0.038,0.015 -0.053,0.052 -0.053,0.09l0,0.42c0,0.052 0.038,0.075 0.09,0.06l0.585,-0.218c0.015,-0.007 0.038,0 0.038,0.023l0,4.44c0,0.045 0.03,0.075 0.075,0.075l0.569,0c0.045,0 0.075,-0.03 0.075,-0.075l0,-5.1c0,-0.045 -0.03,-0.075 -0.075,-0.075l-0.592,0c-0.03,0 -0.067,0.008 -0.097,0.023Z" style="fill:#fff;fill-rule:nonzero;"/>
            <path d="M24.562,75.612l1.814,0c0.045,0 0.075,-0.03 0.075,-0.075l0,-0.472c0,-0.045 -0.03,-0.075 -0.075,-0.075l-1.814,0c-0.045,0 -0.075,0.03 -0.075,0.075l0,0.472c0,0.045 0.03,0.075 0.075,0.075Z" style="fill:#fff;fill-rule:nonzero;"/>
            <path d="M29.16,74.802c0.172,-0.097 0.307,-0.24 0.396,-0.427c0.098,-0.195 0.15,-0.435 0.15,-0.728c0,-0.3 -0.052,-0.548 -0.164,-0.75c-0.21,-0.42 -0.622,-0.637 -1.125,-0.637c-0.518,0 -0.923,0.24 -1.117,0.644c-0.105,0.203 -0.151,0.45 -0.151,0.735c0,0.286 0.053,0.541 0.151,0.743c0.089,0.188 0.224,0.33 0.397,0.428c0.022,0.015 0.022,0.029 0,0.044c-0.18,0.098 -0.323,0.248 -0.412,0.473c-0.09,0.217 -0.135,0.48 -0.135,0.773c0,0.27 0.037,0.51 0.105,0.72c0.194,0.524 0.614,0.832 1.162,0.832c0.57,0 0.99,-0.322 1.177,-0.832c0.067,-0.195 0.112,-0.435 0.112,-0.713c0,-0.323 -0.06,-0.6 -0.164,-0.825c-0.09,-0.21 -0.218,-0.345 -0.382,-0.435c-0.023,-0.015 -0.023,-0.03 0,-0.045Zm-1.216,-1.568c0.082,-0.217 0.248,-0.352 0.473,-0.352c0.232,0 0.398,0.135 0.48,0.337c0.068,0.128 0.105,0.293 0.105,0.488c0,0.188 -0.03,0.338 -0.09,0.465c-0.075,0.233 -0.255,0.375 -0.495,0.375c-0.218,0 -0.391,-0.127 -0.466,-0.352c-0.067,-0.135 -0.097,-0.293 -0.097,-0.488c0,-0.188 0.03,-0.338 0.09,-0.473Zm0.998,3.286c-0.067,0.322 -0.263,0.502 -0.525,0.502c-0.248,0 -0.428,-0.172 -0.496,-0.48c-0.045,-0.142 -0.06,-0.3 -0.06,-0.48c0,-0.21 0.023,-0.383 0.075,-0.525c0.075,-0.278 0.248,-0.428 0.481,-0.428c0.24,0 0.413,0.143 0.488,0.405c0.052,0.143 0.09,0.338 0.09,0.556c0,0.165 -0.023,0.322 -0.053,0.45Z" style="fill:#fff;fill-rule:nonzero;"/>
            <path d="M19.693,347.659c0.838,0 1.404,-0.539 1.404,-1.43l0,-2.449c0,-0.9 -0.566,-1.439 -1.404,-1.439c-0.846,0 -1.403,0.539 -1.403,1.439l0,2.449c0,0.891 0.557,1.43 1.403,1.43Zm0,-0.557c-0.45,0 -0.765,-0.306 -0.765,-0.837l0,-2.512c0,-0.54 0.315,-0.846 0.765,-0.846c0.46,0 0.766,0.306 0.766,0.846l0,2.512c0,0.531 -0.306,0.837 -0.766,0.837Z" style="fill:#fff;fill-rule:nonzero;"/>
            <path d="M23.581,347.659c0.847,0 1.395,-0.584 1.395,-1.538l0,-3.618c0,-0.054 -0.036,-0.09 -0.09,-0.09l-0.458,0c-0.054,0 -0.09,0.036 -0.09,0.09l0,3.672c0,0.576 -0.297,0.927 -0.757,0.927c-0.45,0 -0.747,-0.351 -0.747,-0.927l0,-3.672c0,-0.054 -0.036,-0.09 -0.09,-0.09l-0.458,0c-0.054,0 -0.09,0.036 -0.09,0.09l0,3.618c0,0.954 0.557,1.538 1.385,1.538Z" style="fill:#fff;fill-rule:nonzero;"/>
            <path d="M28.666,342.404l-2.717,0c-0.054,0 -0.09,0.036 -0.09,0.09l0,0.386c0,0.054 0.036,0.09 0.09,0.09l0.972,0c0.018,0 0.036,0.018 0.036,0.036l0,4.5c0,0.054 0.036,0.09 0.09,0.09l0.458,0c0.054,0 0.09,-0.036 0.09,-0.09l0,-4.5c0,-0.018 0.018,-0.036 0.036,-0.036l1.035,0c0.054,0 0.09,-0.036 0.09,-0.09l0,-0.386c0,-0.054 -0.036,-0.09 -0.09,-0.09Z" style="fill:#fff;fill-rule:nonzero;"/>
            <path d="M31.745,347.596l2.375,0c0.054,0 0.09,-0.036 0.09,-0.09l0,-0.377c0,-0.054 -0.036,-0.09 -0.09,-0.09l-1.791,0c-0.018,0 -0.036,-0.018 -0.036,-0.036l0,-4.509c0,-0.054 -0.036,-0.09 -0.09,-0.09l-0.458,0c-0.054,0 -0.09,0.036 -0.09,0.09l0,5.012c0,0.054 0.036,0.09 0.09,0.09Z" style="fill:#fff;fill-rule:nonzero;"/>
            <path d="M59.485,152.351l-2.691,0c-0.045,0 -0.075,0.03 -0.075,0.075l0,0.472c0,0.045 0.03,0.075 0.075,0.075l0.93,0c0.015,0 0.03,0.015 0.03,0.03l0,4.523c0,0.045 0.03,0.075 0.075,0.075l0.569,0c0.045,0 0.075,-0.03 0.075,-0.075l0,-4.523c0,-0.015 0.015,-0.03 0.03,-0.03l0.982,0c0.045,0 0.075,-0.03 0.075,-0.075l0,-0.472c0,-0.045 -0.03,-0.075 -0.075,-0.075Z" style="fill:#fff;fill-rule:nonzero;"/>
            <path d="M62.314,152.426l0,2.205c0,0.015 -0.015,0.03 -0.03,0.03l-1.134,0c-0.015,0 -0.03,-0.015 -0.03,-0.03l0,-2.205c0,-0.045 -0.03,-0.075 -0.074,-0.075l-0.57,0c-0.045,0 -0.075,0.03 -0.075,0.075l0,5.1c0,0.045 0.03,0.075 0.075,0.075l0.57,0c0.044,0 0.074,-0.03 0.074,-0.075l0,-2.213c0,-0.015 0.015,-0.03 0.03,-0.03l1.134,0c0.015,0 0.03,0.015 0.03,0.03l0,2.213c0,0.045 0.03,0.075 0.075,0.075l0.569,0c0.045,0 0.075,-0.03 0.075,-0.075l0,-5.1c0,-0.045 -0.03,-0.075 -0.075,-0.075l-0.569,0c-0.045,0 -0.075,0.03 -0.075,0.075Z" style="fill:#fff;fill-rule:nonzero;"/>
            <path d="M66.199,157.601l0.584,0c0.052,0 0.075,-0.03 0.06,-0.083l-0.772,-2.317c-0.007,-0.023 0,-0.03 0.015,-0.045c0.45,-0.195 0.734,-0.682 0.734,-1.32c0,-0.885 -0.516,-1.492 -1.289,-1.492l-1.342,0c-0.045,0 -0.075,0.03 -0.075,0.075l0,5.107c0,0.045 0.03,0.075 0.075,0.075l0.569,0c0.045,0 0.075,-0.03 0.075,-0.075l0,-2.228c0,-0.015 0.015,-0.03 0.03,-0.03l0.518,0c0.015,0 0.022,0 0.03,0.023l0.698,2.25c0.015,0.037 0.052,0.06 0.09,0.06Zm-1.336,-4.635l0.555,0c0.406,0 0.683,0.337 0.683,0.878c0,0.525 -0.277,0.862 -0.683,0.862l-0.555,0c-0.015,0 -0.03,-0.015 -0.03,-0.03l0,-1.68c0,-0.015 0.015,-0.03 0.03,-0.03Z" style="fill:#fff;fill-rule:nonzero;"/>
            <path d="M68.981,157.661c0.818,0 1.364,-0.592 1.364,-1.485l0,-3.75c0,-0.045 -0.03,-0.075 -0.074,-0.075l-0.57,0c-0.045,0 -0.075,0.03 -0.075,0.075l0,3.825c0,0.465 -0.255,0.788 -0.645,0.788c-0.383,0 -0.638,-0.323 -0.638,-0.788l0,-3.825c0,-0.045 -0.03,-0.075 -0.075,-0.075l-0.569,0c-0.045,0 -0.075,0.03 -0.075,0.075l0,3.75c0,0.893 0.539,1.485 1.357,1.485Z" style="fill:#fff;fill-rule:nonzero;"/>
            <path d="M59.541,112.317l-2.692,0c-0.045,0 -0.075,0.03 -0.075,0.075l0,0.472c0,0.045 0.03,0.075 0.075,0.075l0.93,0c0.015,0 0.03,0.015 0.03,0.03l0,4.522c0,0.045 0.03,0.075 0.075,0.075l0.569,0c0.045,0 0.075,-0.03 0.075,-0.075l0,-4.522c0,-0.015 0.015,-0.03 0.03,-0.03l0.983,0c0.045,0 0.075,-0.03 0.075,-0.075l0,-0.472c0,-0.045 -0.03,-0.075 -0.075,-0.075Z" style="fill:#fff;fill-rule:nonzero;"/>
            <path d="M62.369,112.392l0,2.205c0,0.015 -0.015,0.03 -0.03,0.03l-1.133,0c-0.015,0 -0.03,-0.015 -0.03,-0.03l0,-2.205c0,-0.045 -0.03,-0.075 -0.075,-0.075l-0.569,0c-0.045,0 -0.075,0.03 -0.075,0.075l0,5.099c0,0.045 0.03,0.075 0.075,0.075l0.569,0c0.045,0 0.075,-0.03 0.075,-0.075l0,-2.212c0,-0.015 0.015,-0.03 0.03,-0.03l1.133,0c0.015,0 0.03,0.015 0.03,0.03l0,2.212c0,0.045 0.03,0.075 0.075,0.075l0.569,0c0.045,0 0.075,-0.03 0.075,-0.075l0,-5.099c0,-0.045 -0.03,-0.075 -0.075,-0.075l-0.569,0c-0.045,0 -0.075,0.03 -0.075,0.075Z" style="fill:#fff;fill-rule:nonzero;"/>
            <path d="M66.254,117.566l0.584,0c0.053,0 0.075,-0.03 0.06,-0.082l-0.771,-2.317c-0.008,-0.023 0,-0.03 0.015,-0.045c0.449,-0.195 0.734,-0.682 0.734,-1.32c0,-0.886 -0.517,-1.492 -1.29,-1.492l-1.342,0c-0.045,0 -0.075,0.03 -0.075,0.075l0,5.106c0,0.045 0.03,0.075 0.075,0.075l0.569,0c0.045,0 0.075,-0.03 0.075,-0.075l0,-2.227c0,-0.015 0.015,-0.03 0.03,-0.03l0.518,0c0.015,0 0.023,0 0.03,0.022l0.698,2.25c0.015,0.038 0.053,0.06 0.09,0.06Zm-1.336,-4.635l0.556,0c0.405,0 0.683,0.338 0.683,0.878c0,0.526 -0.278,0.863 -0.683,0.863l-0.556,0c-0.015,0 -0.03,-0.015 -0.03,-0.03l0,-1.68c0,-0.016 0.015,-0.031 0.03,-0.031Z" style="fill:#fff;fill-rule:nonzero;"/>
            <path d="M69.036,117.626c0.818,0 1.365,-0.591 1.365,-1.484l0,-3.75c0,-0.045 -0.03,-0.075 -0.075,-0.075l-0.569,0c-0.045,0 -0.075,0.03 -0.075,0.075l0,3.825c0,0.465 -0.255,0.788 -0.646,0.788c-0.383,0 -0.638,-0.323 -0.638,-0.788l0,-3.825c0,-0.045 -0.03,-0.075 -0.075,-0.075l-0.569,0c-0.045,0 -0.075,0.03 -0.075,0.075l0,3.75c0,0.893 0.54,1.484 1.357,1.484Z" style="fill:#fff;fill-rule:nonzero;"/>
            <path d="M59.541,72.351l-2.692,0c-0.045,0 -0.075,0.03 -0.075,0.075l0,0.472c0,0.045 0.03,0.075 0.075,0.075l0.93,0c0.015,0 0.03,0.015 0.03,0.03l0,4.523c0,0.045 0.03,0.075 0.075,0.075l0.569,0c0.045,0 0.075,-0.03 0.075,-0.075l0,-4.523c0,-0.015 0.015,-0.03 0.03,-0.03l0.983,0c0.045,0 0.075,-0.03 0.075,-0.075l0,-0.472c0,-0.045 -0.03,-0.075 -0.075,-0.075Z" style="fill:#fff;fill-rule:nonzero;"/>
            <path d="M62.369,72.426l0,2.205c0,0.015 -0.015,0.03 -0.03,0.03l-1.133,0c-0.015,0 -0.03,-0.015 -0.03,-0.03l0,-2.205c0,-0.045 -0.03,-0.075 -0.075,-0.075l-0.569,0c-0.045,0 -0.075,0.03 -0.075,0.075l0,5.1c0,0.045 0.03,0.075 0.075,0.075l0.569,0c0.045,0 0.075,-0.03 0.075,-0.075l0,-2.213c0,-0.015 0.015,-0.03 0.03,-0.03l1.133,0c0.015,0 0.03,0.015 0.03,0.03l0,2.213c0,0.045 0.03,0.075 0.075,0.075l0.569,0c0.045,0 0.075,-0.03 0.075,-0.075l0,-5.1c0,-0.045 -0.03,-0.075 -0.075,-0.075l-0.569,0c-0.045,0 -0.075,0.03 -0.075,0.075Z" style="fill:#fff;fill-rule:nonzero;"/>
            <path d="M66.254,77.601l0.584,0c0.053,0 0.075,-0.03 0.06,-0.083l-0.771,-2.317c-0.008,-0.023 0,-0.03 0.015,-0.045c0.449,-0.195 0.734,-0.682 0.734,-1.32c0,-0.885 -0.517,-1.492 -1.29,-1.492l-1.342,0c-0.045,0 -0.075,0.03 -0.075,0.075l0,5.107c0,0.045 0.03,0.075 0.075,0.075l0.569,0c0.045,0 0.075,-0.03 0.075,-0.075l0,-2.228c0,-0.015 0.015,-0.03 0.03,-0.03l0.518,0c0.015,0 0.023,0 0.03,0.023l0.698,2.25c0.015,0.037 0.053,0.06 0.09,0.06Zm-1.336,-4.635l0.556,0c0.405,0 0.683,0.337 0.683,0.878c0,0.525 -0.278,0.862 -0.683,0.862l-0.556,0c-0.015,0 -0.03,-0.015 -0.03,-0.03l0,-1.68c0,-0.015 0.015,-0.03 0.03,-0.03Z" style="fill:#fff;fill-rule:nonzero;"/>
            <path d="M69.036,77.661c0.818,0 1.365,-0.592 1.365,-1.485l0,-3.75c0,-0.045 -0.03,-0.075 -0.075,-0.075l-0.569,0c-0.045,0 -0.075,0.03 -0.075,0.075l0,3.825c0,0.465 -0.255,0.788 -0.646,0.788c-0.383,0 -0.638,-0.323 -0.638,-0.788l0,-3.825c0,-0.045 -0.03,-0.075 -0.075,-0.075l-0.569,0c-0.045,0 -0.075,0.03 -0.075,0.075l0,3.75c0,0.893 0.54,1.485 1.357,1.485Z" style="fill:#fff;fill-rule:nonzero;"/>
            <path d="M57.083,347.659c0.837,0 1.403,-0.539 1.403,-1.43l0,-2.449c0,-0.9 -0.566,-1.439 -1.403,-1.439c-0.847,0 -1.404,0.539 -1.404,1.439l0,2.449c0,0.891 0.557,1.43 1.404,1.43Zm0,-0.557c-0.451,0 -0.766,-0.306 -0.766,-0.837l0,-2.512c0,-0.54 0.315,-0.846 0.766,-0.846c0.459,0 0.765,0.306 0.765,0.846l0,2.512c0,0.531 -0.306,0.837 -0.765,0.837Z" style="fill:#fff;fill-rule:nonzero;"/>
            <path d="M60.971,347.659c0.846,0 1.394,-0.584 1.394,-1.538l0,-3.618c0,-0.054 -0.036,-0.09 -0.09,-0.09l-0.458,0c-0.054,0 -0.09,0.036 -0.09,0.09l0,3.672c0,0.576 -0.297,0.927 -0.756,0.927c-0.451,0 -0.748,-0.351 -0.748,-0.927l0,-3.672c0,-0.054 -0.036,-0.09 -0.09,-0.09l-0.458,0c-0.054,0 -0.09,0.036 -0.09,0.09l0,3.618c0,0.954 0.557,1.538 1.386,1.538Z" style="fill:#fff;fill-rule:nonzero;"/>
            <path d="M66.055,342.404l-2.717,0c-0.054,0 -0.09,0.036 -0.09,0.09l0,0.386c0,0.054 0.036,0.09 0.09,0.09l0.972,0c0.018,0 0.036,0.018 0.036,0.036l0,4.5c0,0.054 0.036,0.09 0.09,0.09l0.458,0c0.054,0 0.09,-0.036 0.09,-0.09l0,-4.5c0,-0.018 0.018,-0.036 0.036,-0.036l1.035,0c0.054,0 0.09,-0.036 0.09,-0.09l0,-0.386c0,-0.054 -0.036,-0.09 -0.09,-0.09Z" style="fill:#fff;fill-rule:nonzero;"/>
            <path d="M71.276,347.596l0.467,0c0.063,0 0.09,-0.036 0.072,-0.099l-0.836,-2.277c-0.009,-0.027 0,-0.036 0.027,-0.045c0.495,-0.188 0.791,-0.674 0.791,-1.313c0,-0.865 -0.539,-1.467 -1.322,-1.467l-1.341,0c-0.054,0 -0.09,0.036 -0.09,0.09l0,5.021c0,0.054 0.036,0.09 0.09,0.09l0.458,0c0.054,0 0.09,-0.036 0.09,-0.09l0,-2.205c0,-0.018 0.018,-0.036 0.036,-0.036l0.631,0c0.018,0 0.027,0 0.036,0.027l0.783,2.232c0.018,0.054 0.063,0.072 0.108,0.072Zm-1.558,-4.644l0.667,0c0.459,0 0.774,0.36 0.774,0.91c0,0.549 -0.315,0.891 -0.774,0.891l-0.667,0c-0.018,0 -0.036,-0.018 -0.036,-0.036l0,-1.729c0,-0.018 0.018,-0.036 0.036,-0.036Z" style="fill:#fff;fill-rule:nonzero;"/>
            <path d="M35.341,297.555l3.526,0c0.072,0 0.12,-0.048 0.12,-0.12l0,-0.503c0,-0.072 -0.048,-0.119 -0.12,-0.119l-2.748,0c-0.024,0 -0.048,-0.024 -0.048,-0.048l0,-7.488c0,-0.072 -0.048,-0.12 -0.12,-0.12l-0.61,0c-0.072,0 -0.12,0.048 -0.12,0.12l0,8.158c0,0.072 0.048,0.12 0.12,0.12Z" style="fill:#fff;fill-rule:nonzero;"/>
            <path d="M43.463,294.723l0,-1.499c0,-1.081 -0.718,-1.835 -1.883,-1.835c-1.141,0 -1.871,0.754 -1.871,1.835l0,2.592c0,1.105 0.73,1.835 1.871,1.835c1.057,0 1.716,-0.599 1.847,-1.535c0.012,-0.072 -0.036,-0.132 -0.107,-0.132l-0.599,-0.024c-0.072,0 -0.108,0.036 -0.132,0.108c-0.108,0.492 -0.481,0.841 -1.009,0.841c-0.6,0 -1.021,-0.469 -1.021,-1.141l0,-0.877c0,-0.024 0.024,-0.048 0.048,-0.048l2.736,0c0.072,0 0.12,-0.048 0.12,-0.12Zm-1.883,-2.592c0.624,0 1.045,0.468 1.045,1.153l0,0.804c0,0.025 -0.024,0.049 -0.048,0.049l-1.97,0c-0.024,0 -0.048,-0.024 -0.048,-0.049l0,-0.804c0,-0.685 0.421,-1.153 1.021,-1.153Z" style="fill:#fff;fill-rule:nonzero;"/>
            <path d="M45.834,297.555l0.72,0c0.072,0 0.12,-0.036 0.132,-0.108l1.474,-5.819c0.024,-0.072 -0.012,-0.131 -0.096,-0.131l-0.695,-0.012c-0.072,0 -0.12,0.036 -0.132,0.107l-1.019,4.645c-0.012,0.048 -0.036,0.048 -0.048,0l-1.031,-4.644c-0.012,-0.072 -0.06,-0.108 -0.132,-0.108l-0.695,0c-0.084,0 -0.12,0.048 -0.096,0.132l1.487,5.83c0.012,0.072 0.059,0.108 0.131,0.108Z" style="fill:#fff;fill-rule:nonzero;"/>
            <path d="M52.739,294.723l0,-1.499c0,-1.081 -0.718,-1.835 -1.883,-1.835c-1.141,0 -1.871,0.754 -1.871,1.835l0,2.592c0,1.105 0.73,1.835 1.871,1.835c1.057,0 1.716,-0.599 1.847,-1.535c0.012,-0.072 -0.036,-0.132 -0.107,-0.132l-0.599,-0.024c-0.072,0 -0.108,0.036 -0.132,0.108c-0.108,0.492 -0.481,0.841 -1.009,0.841c-0.6,0 -1.021,-0.469 -1.021,-1.141l0,-0.877c0,-0.024 0.024,-0.048 0.048,-0.048l2.736,0c0.072,0 0.12,-0.048 0.12,-0.12Zm-1.883,-2.592c0.624,0 1.045,0.468 1.045,1.153l0,0.804c0,0.025 -0.024,0.049 -0.048,0.049l-1.97,0c-0.024,0 -0.048,-0.024 -0.048,-0.049l0,-0.804c0,-0.685 0.421,-1.153 1.021,-1.153Z" style="fill:#fff;fill-rule:nonzero;"/>
            <path d="M54.049,297.555l0.61,0c0.072,0 0.12,-0.048 0.12,-0.12l0,-8.158c0,-0.072 -0.048,-0.12 -0.12,-0.12l-0.61,0c-0.072,0 -0.12,0.048 -0.12,0.12l0,8.158c0,0.072 0.048,0.12 0.12,0.12Z" style="fill:#fff;fill-rule:nonzero;"/>
        </g>
        <g id="Lights">
        </g>
    </g>
</svg>
