<?xml version="1.0" encoding="UTF-8" standalone="no"?>
<!DOCTYPE svg PUBLIC "-//W3C//DTD SVG 1.1//EN" "http://www.w3.org/Graphics/SVG/1.1/DTD/svg11.dtd">
<svg width="90px" height="380px" version="1.1" xmlns="http://www.w3.org/2000/svg" xmlns:xlink="http://www.w3.org/1999/xlink" xml:space="preserve" xmlns:serif="http://www.serif.com/" style="fill-rule:evenodd;clip-rule:evenodd;stroke-linecap:round;stroke-linejoin:round;stroke-miterlimit:1.5;">
    <rect id="ElectroHat-Dark" serif:id="ElectroHat Dark" x="0" y="0" width="90" height="380" style="fill:none;"/>
    <clipPath id="_clip1">
        <rect x="0" y="0" width="90" height="380"/>
    </clipPath>
    <g clip-path="url(#_clip1)">
        <g id="Background">
            <path id="bright" d="M90,379.995l0,-379.995l-90,0l0,379.995l90,0Z" style="fill:rgb(54,69,74);"/>
            <circle cx="63.75" cy="325" r="14" style="fill:rgb(51,51,51);"/>
            <path d="M75,24.6l15,0" style="fill:none;stroke:rgb(128,128,128);stroke-width:0.7px;"/>
            <path d="M0,24.6l13.941,0" style="fill:none;stroke:rgb(128,128,128);stroke-width:0.7px;"/>
            <g id="knobBgMediumThree">
                <path d="M32.411,195c5.474,-5.466 5.474,-14.329 0,-19.795c-5.47,-5.463 -14.352,-5.463 -19.822,0c-5.474,5.466 -5.474,14.329 0,19.795l9.911,-9.898l9.911,9.898Z" style="fill:none;stroke:rgb(128,128,128);stroke-width:0.7px;stroke-linecap:butt;stroke-linejoin:miter;"/>
            </g>
            <g id="knobBgMediumThree1" serif:id="knobBgMediumThree">
                <path d="M77.411,195c5.474,-5.466 5.474,-14.329 0,-19.795c-5.47,-5.463 -14.352,-5.463 -19.822,0c-5.474,5.466 -5.474,14.329 0,19.795l9.911,-9.898l9.911,9.898Z" style="fill:none;stroke:rgb(128,128,128);stroke-width:0.7px;stroke-linecap:butt;stroke-linejoin:miter;"/>
            </g>
        </g>
        <g id="Lables">
            <g id="Branding">
                <path d="M27.355,362.45l0.545,0c0.049,0 0.07,-0.028 0.056,-0.077l-0.72,-2.163c-0.007,-0.021 0,-0.028 0.014,-0.042c0.419,-0.182 0.685,-0.637 0.685,-1.232c0,-0.826 -0.482,-1.393 -1.204,-1.393l-1.252,0c-0.042,0 -0.07,0.028 -0.07,0.07l0,4.767c0,0.042 0.028,0.07 0.07,0.07l0.531,0c0.042,0 0.07,-0.028 0.07,-0.07l0,-2.079c0,-0.014 0.014,-0.028 0.028,-0.028l0.483,0c0.014,0 0.021,0 0.028,0.021l0.652,2.1c0.014,0.035 0.049,0.056 0.084,0.056Zm-1.247,-4.326l0.518,0c0.379,0 0.638,0.315 0.638,0.819c0,0.49 -0.259,0.805 -0.638,0.805l-0.518,0c-0.014,0 -0.028,-0.014 -0.028,-0.028l0,-1.568c0,-0.014 0.014,-0.028 0.028,-0.028Z" style="fill:rgb(199,206,201);fill-rule:nonzero;"/>
                <path d="M31.043,362.45l0.546,0c0.049,0 0.07,-0.035 0.063,-0.077l-1.057,-4.76c-0.007,-0.042 -0.035,-0.063 -0.077,-0.063l-0.615,0c-0.042,0 -0.07,0.021 -0.077,0.063l-1.043,4.76c-0.007,0.042 0.014,0.077 0.063,0.077l0.532,0c0.042,0 0.07,-0.021 0.077,-0.063l0.161,-0.805c0,-0.014 0.021,-0.028 0.035,-0.028l1.126,0c0.014,0 0.035,0.014 0.035,0.028l0.154,0.805c0.007,0.042 0.035,0.063 0.077,0.063Zm-1.308,-1.456l0.475,-2.394c0.007,-0.028 0.021,-0.028 0.028,0l0.462,2.394c0,0.014 -0.007,0.028 -0.021,0.028l-0.923,0c-0.014,0 -0.021,-0.014 -0.021,-0.028Z" style="fill:rgb(199,206,201);fill-rule:nonzero;"/>
                <path d="M33.717,362.506c0.764,0 1.267,-0.497 1.267,-1.267l0,-0.105c0,-0.042 -0.028,-0.07 -0.07,-0.07l-0.531,-0.028c-0.042,0 -0.07,0.028 -0.07,0.07l0,0.182c0,0.378 -0.238,0.637 -0.596,0.637c-0.357,0 -0.588,-0.259 -0.588,-0.637l0,-2.576c0,-0.385 0.231,-0.637 0.588,-0.637c0.358,0 0.596,0.252 0.596,0.637l0,0.182c0,0.042 0.028,0.07 0.07,0.07l0.531,-0.028c0.042,0 0.07,-0.028 0.07,-0.07l0,-0.112c0,-0.77 -0.503,-1.26 -1.267,-1.26c-0.756,0 -1.259,0.49 -1.259,1.26l0,2.485c0,0.77 0.503,1.267 1.259,1.267Z" style="fill:rgb(199,206,201);fill-rule:nonzero;"/>
                <path d="M36.14,362.45l0.531,0c0.042,0 0.07,-0.028 0.07,-0.07l0,-1.575c0,-0.014 0,-0.028 0.007,-0.035l0.357,-0.567c0.014,-0.014 0.028,-0.014 0.035,0.007l0.91,2.184c0.014,0.042 0.042,0.056 0.077,0.056l0.581,0c0.049,0 0.077,-0.035 0.056,-0.084l-1.169,-2.744c-0.007,-0.014 -0.007,-0.028 0,-0.042l1.078,-1.946c0.028,-0.049 0.007,-0.084 -0.049,-0.084l-0.574,0c-0.035,0 -0.063,0.021 -0.084,0.049l-1.19,2.128c-0.014,0.028 -0.035,0.021 -0.035,-0.007l0,-2.1c0,-0.042 -0.028,-0.07 -0.07,-0.07l-0.531,0c-0.042,0 -0.07,0.028 -0.07,0.07l0,4.76c0,0.042 0.028,0.07 0.07,0.07Z" style="fill:rgb(199,206,201);fill-rule:nonzero;"/>
                <path d="M40.438,362.45l0.497,0c0.042,0 0.063,-0.014 0.07,-0.063l0.503,-3.311c0,-0.021 0.021,-0.021 0.028,0l0.532,3.311c0.007,0.042 0.028,0.063 0.07,0.063l0.497,0c0.042,0 0.07,-0.021 0.077,-0.063l0.882,-4.76c0.007,-0.042 -0.014,-0.077 -0.063,-0.077l-0.546,0c-0.042,0 -0.063,0.021 -0.07,0.063l-0.518,3.283c-0.007,0.021 -0.021,0.021 -0.028,0l-0.539,-3.283c-0.007,-0.042 -0.028,-0.063 -0.07,-0.063l-0.469,0c-0.042,0 -0.063,0.014 -0.07,0.063l-0.503,3.283c-0.007,0.021 -0.021,0.021 -0.028,0l-0.567,-3.283c-0.007,-0.042 -0.035,-0.063 -0.077,-0.063l-0.553,0c-0.049,0 -0.07,0.035 -0.063,0.077l0.931,4.76c0.007,0.042 0.035,0.063 0.077,0.063Z" style="fill:rgb(199,206,201);fill-rule:nonzero;"/>
                <path d="M44.624,362.45l0.531,0c0.042,0 0.07,-0.028 0.07,-0.07l0,-4.76c0,-0.042 -0.028,-0.07 -0.07,-0.07l-0.531,0c-0.042,0 -0.07,0.028 -0.07,0.07l0,4.76c0,0.042 0.028,0.07 0.07,0.07Z" style="fill:rgb(199,206,201);fill-rule:nonzero;"/>
                <path d="M46.52,362.45l0.525,0c0.042,0 0.07,-0.028 0.07,-0.07l-0.007,-3.073c0,-0.028 0.028,-0.028 0.035,0l1.246,3.087c0.014,0.042 0.042,0.056 0.077,0.056l0.546,0c0.042,0 0.07,-0.028 0.07,-0.07l0,-4.76c0,-0.042 -0.028,-0.07 -0.07,-0.07l-0.525,0c-0.042,0 -0.07,0.028 -0.07,0.07l0,3.066c0,0.028 -0.028,0.035 -0.035,0.007l-1.246,-3.087c-0.014,-0.042 -0.042,-0.056 -0.077,-0.056l-0.539,0c-0.042,0 -0.07,0.028 -0.07,0.07l0,4.76c0,0.042 0.028,0.07 0.07,0.07Z" style="fill:rgb(199,206,201);fill-rule:nonzero;"/>
                <path d="M50.371,362.45l1.147,0c0.771,0 1.267,-0.511 1.267,-1.323l0,-2.254c0,-0.812 -0.496,-1.323 -1.267,-1.323l-1.147,0c-0.042,0 -0.07,0.028 -0.07,0.07l0,4.76c0,0.042 0.028,0.07 0.07,0.07Zm0.601,-0.609l0,-3.682c0,-0.014 0.014,-0.028 0.028,-0.028l0.511,0c0.365,0 0.596,0.301 0.596,0.777l0,2.184c-0.007,0.476 -0.238,0.77 -0.596,0.77l-0.511,0.007c-0.014,0 -0.028,-0.014 -0.028,-0.028Z" style="fill:rgb(199,206,201);fill-rule:nonzero;"/>
                <path d="M55.109,362.506c0.771,0 1.288,-0.504 1.288,-1.281l0,-2.443c0,-0.777 -0.517,-1.288 -1.288,-1.288c-0.763,0 -1.273,0.511 -1.273,1.288l0,2.443c0,0.777 0.51,1.281 1.273,1.281Zm0,-0.581c-0.364,0 -0.602,-0.273 -0.602,-0.672l0,-2.506c0,-0.399 0.238,-0.672 0.602,-0.672c0.372,0 0.617,0.273 0.617,0.672l0,2.506c0,0.399 -0.245,0.672 -0.617,0.672Z" style="fill:rgb(199,206,201);fill-rule:nonzero;"/>
                <path d="M58.19,362.45l0.497,0c0.042,0 0.063,-0.014 0.07,-0.063l0.503,-3.311c0,-0.021 0.021,-0.021 0.028,0l0.532,3.311c0.007,0.042 0.028,0.063 0.07,0.063l0.497,0c0.042,0 0.07,-0.021 0.077,-0.063l0.882,-4.76c0.007,-0.042 -0.014,-0.077 -0.063,-0.077l-0.546,0c-0.042,0 -0.063,0.021 -0.07,0.063l-0.518,3.283c-0.007,0.021 -0.021,0.021 -0.028,0l-0.539,-3.283c-0.007,-0.042 -0.028,-0.063 -0.07,-0.063l-0.469,0c-0.042,0 -0.063,0.014 -0.07,0.063l-0.503,3.283c-0.007,0.021 -0.021,0.021 -0.028,0l-0.567,-3.283c-0.007,-0.042 -0.035,-0.063 -0.077,-0.063l-0.553,0c-0.049,0 -0.07,0.035 -0.063,0.077l0.931,4.76c0.007,0.042 0.035,0.063 0.077,0.063Z" style="fill:rgb(199,206,201);fill-rule:nonzero;"/>
                <path d="M63.341,362.506c0.729,0 1.246,-0.504 1.246,-1.295c0,-0.672 -0.371,-0.966 -1.084,-1.498c-0.54,-0.399 -0.743,-0.588 -0.743,-0.987c0,-0.42 0.231,-0.651 0.546,-0.651c0.344,0 0.582,0.28 0.582,0.7l0,0.189c0,0.042 0.028,0.07 0.07,0.07l0.517,0c0.042,0 0.07,-0.028 0.07,-0.07l0,-0.175c0,-0.777 -0.489,-1.295 -1.239,-1.295c-0.707,0 -1.21,0.469 -1.21,1.232c0,0.763 0.503,1.134 1.042,1.533c0.505,0.371 0.785,0.567 0.785,0.994c0,0.406 -0.252,0.672 -0.582,0.672c-0.336,0 -0.574,-0.273 -0.574,-0.707l0,-0.154c0,-0.042 -0.028,-0.07 -0.07,-0.07l-0.517,0c-0.042,0 -0.07,0.028 -0.07,0.07l0,0.189c0,0.749 0.496,1.253 1.231,1.253Z" style="fill:rgb(199,206,201);fill-rule:nonzero;"/>
                <path d="M22.367,17.551l0,-0.911c0,-0.084 -0.06,-0.144 -0.144,-0.144l-3.898,0c-0.084,0 -0.144,0.06 -0.144,0.144l0,8.111c0,0.084 0.06,0.143 0.144,0.143l3.898,0c0.084,0 0.144,-0.059 0.144,-0.143l0,-0.911c0,-0.084 -0.06,-0.144 -0.144,-0.144l-2.592,0c-0.036,0 -0.06,-0.024 -0.06,-0.06l0,-2.281c0,-0.036 0.024,-0.061 0.06,-0.061l1.536,0c0.084,0 0.144,-0.059 0.144,-0.143l0,-0.923c0,-0.084 -0.06,-0.144 -0.144,-0.144l-1.536,0c-0.036,0 -0.06,-0.024 -0.06,-0.06l0,-2.269c0,-0.036 0.024,-0.061 0.06,-0.061l2.592,0c0.084,0 0.144,-0.059 0.144,-0.143Z" style="fill:white;fill-rule:nonzero;"/>
                <path d="M23.665,24.894l3.898,0c0.084,0 0.144,-0.059 0.144,-0.143l0,-0.911c0,-0.084 -0.06,-0.144 -0.144,-0.144l-2.592,0c-0.036,0 -0.06,-0.024 -0.06,-0.06l0,-6.996c0,-0.084 -0.06,-0.144 -0.144,-0.144l-1.102,0c-0.084,0 -0.144,0.06 -0.144,0.144l0,8.111c0,0.084 0.06,0.143 0.144,0.143Z" style="fill:white;fill-rule:nonzero;"/>
                <path d="M32.807,17.551l0,-0.911c0,-0.084 -0.06,-0.144 -0.144,-0.144l-3.898,0c-0.084,0 -0.144,0.06 -0.144,0.144l0,8.111c0,0.084 0.06,0.143 0.144,0.143l3.898,0c0.084,0 0.144,-0.059 0.144,-0.143l0,-0.911c0,-0.084 -0.06,-0.144 -0.144,-0.144l-2.592,0c-0.036,0 -0.06,-0.024 -0.06,-0.06l0,-2.281c0,-0.036 0.024,-0.061 0.06,-0.061l1.536,0c0.084,0 0.144,-0.059 0.144,-0.143l0,-0.923c0,-0.084 -0.06,-0.144 -0.144,-0.144l-1.536,0c-0.036,0 -0.06,-0.024 -0.06,-0.06l0,-2.269c0,-0.036 0.024,-0.061 0.06,-0.061l2.592,0c0.084,0 0.144,-0.059 0.144,-0.143Z" style="fill:white;fill-rule:nonzero;"/>
                <path d="M36.072,24.99c1.368,0 2.279,-0.886 2.279,-2.254l0,-0.144c0,-0.084 -0.06,-0.144 -0.144,-0.144l-1.114,-0.048c-0.084,0 -0.144,0.06 -0.144,0.144l0,0.3c0,0.564 -0.349,0.948 -0.877,0.948c-0.516,0 -0.865,-0.384 -0.865,-0.948l0,-4.297c0,-0.564 0.349,-0.949 0.865,-0.949c0.528,0 0.877,0.385 0.877,0.949l0,0.3c0,0.096 0.06,0.144 0.144,0.144l1.114,-0.048c0.084,0 0.144,-0.072 0.144,-0.156l0,-0.144c0,-1.38 -0.911,-2.243 -2.279,-2.243c-1.356,0 -2.255,0.863 -2.255,2.243l0,4.093c0,1.368 0.899,2.254 2.255,2.254Z" style="fill:white;fill-rule:nonzero;"/>
                <path d="M43.871,16.496l-4.474,0c-0.084,0 -0.144,0.06 -0.144,0.144l0,0.911c0,0.084 0.06,0.143 0.144,0.143l1.44,0c0.036,0 0.06,0.025 0.06,0.061l0,6.996c0,0.084 0.06,0.144 0.144,0.144l1.102,0c0.084,0 0.144,-0.06 0.144,-0.144l0,-6.996c0,-0.036 0.024,-0.06 0.06,-0.06l1.524,0c0.084,0 0.144,-0.06 0.144,-0.144l0,-0.911c0,-0.084 -0.06,-0.144 -0.144,-0.144Z" style="fill:white;fill-rule:nonzero;"/>
                <path d="M48.433,24.895l1.15,0c0.096,0 0.156,-0.06 0.12,-0.168l-1.175,-3.612c-0.012,-0.036 0,-0.06 0.036,-0.072c0.684,-0.36 1.091,-1.115 1.091,-2.112c0,-1.452 -0.863,-2.447 -2.147,-2.447l-2.255,0c-0.084,0 -0.144,0.06 -0.144,0.144l0,8.123c0,0.084 0.06,0.144 0.144,0.144l1.102,0c0.084,0 0.144,-0.06 0.144,-0.144l0,-3.42c0,-0.036 0.024,-0.061 0.06,-0.061l0.625,0c0.036,0 0.048,0.025 0.06,0.049l1.033,3.456c0.024,0.072 0.072,0.12 0.156,0.12Zm-1.874,-7.213l0.733,0c0.576,0 0.973,0.481 0.973,1.273c0,0.769 -0.397,1.237 -0.973,1.237l-0.733,0c-0.036,0 -0.06,-0.024 -0.06,-0.06l0,-2.389c0,-0.036 0.024,-0.061 0.06,-0.061Z" style="fill:white;fill-rule:nonzero;"/>
                <path d="M52.908,24.99c1.38,0 2.303,-0.898 2.303,-2.278l0,-4.033c0,-1.38 -0.923,-2.279 -2.303,-2.279c-1.38,0 -2.291,0.899 -2.291,2.279l0,4.033c0,1.38 0.911,2.278 2.291,2.278Zm0,-1.198c-0.552,0 -0.901,-0.42 -0.901,-1.02l0,-4.153c0,-0.6 0.349,-1.021 0.901,-1.021c0.552,0 0.913,0.421 0.913,1.021l0,4.153c0,0.6 -0.361,1.02 -0.913,1.02Z" style="fill:white;fill-rule:nonzero;"/>
                <path d="M59.521,16.64l0,3.384c0,0.036 -0.024,0.06 -0.06,0.06l-1.526,0c-0.036,0 -0.06,-0.024 -0.06,-0.06l0,-3.384c0,-0.084 -0.06,-0.144 -0.144,-0.144l-1.102,0c-0.084,0 -0.144,0.06 -0.144,0.144l0,8.111c0,0.084 0.06,0.144 0.144,0.144l1.102,0c0.084,0 0.144,-0.06 0.144,-0.144l0,-3.396c0,-0.036 0.024,-0.061 0.06,-0.061l1.526,0c0.036,0 0.06,0.025 0.06,0.061l0,3.396c0,0.084 0.06,0.144 0.144,0.144l1.102,0c0.084,0 0.144,-0.06 0.144,-0.144l0,-8.111c0,-0.084 -0.06,-0.144 -0.144,-0.144l-1.102,0c-0.084,0 -0.144,0.06 -0.144,0.144Z" style="fill:white;fill-rule:nonzero;"/>
                <path d="M65.899,24.895l1.116,0c0.096,0 0.156,-0.048 0.132,-0.156l-1.776,-8.111c-0.012,-0.084 -0.072,-0.132 -0.156,-0.132l-1.284,0c-0.084,0 -0.144,0.048 -0.156,0.132l-1.764,8.111c-0.024,0.108 0.024,0.156 0.12,0.156l1.104,0c0.084,0 0.144,-0.036 0.156,-0.132l0.24,-1.272c0,-0.036 0.036,-0.049 0.072,-0.049l1.74,0c0.036,0 0.072,0.025 0.072,0.061l0.228,1.26c0.012,0.096 0.072,0.132 0.156,0.132Zm-2.028,-2.603l0.696,-3.625c0.012,-0.048 0.06,-0.048 0.072,0l0.66,3.625c0.012,0.048 -0.024,0.06 -0.06,0.06l-1.308,0c-0.036,0 -0.072,-0.012 -0.06,-0.06Z" style="fill:white;fill-rule:nonzero;"/>
                <path d="M71.855,16.496l-4.474,0c-0.084,0 -0.144,0.06 -0.144,0.144l0,0.911c0,0.084 0.06,0.143 0.144,0.143l1.44,0c0.036,0 0.06,0.025 0.06,0.061l0,6.996c0,0.084 0.06,0.144 0.144,0.144l1.102,0c0.084,0 0.144,-0.06 0.144,-0.144l0,-6.996c0,-0.036 0.024,-0.06 0.06,-0.06l1.524,0c0.084,0 0.144,-0.06 0.144,-0.144l0,-0.911c0,-0.084 -0.06,-0.144 -0.144,-0.144Z" style="fill:white;fill-rule:nonzero;"/>
                <path d="M22.594,35.318l0.45,0c0.063,0 0.099,-0.045 0.09,-0.099l-0.576,-6.119c0,-0.054 -0.027,-0.081 -0.081,-0.081l-0.522,0c-0.054,0 -0.09,0.027 -0.108,0.081l-2.07,6.119c-0.018,0.054 0,0.099 0.063,0.099l0.45,0c0.054,0 0.09,-0.027 0.108,-0.081l0.36,-1.116c0,-0.018 0.027,-0.036 0.045,-0.036l1.584,0c0.018,0 0.036,0.018 0.036,0.036l0.081,1.116c0,0.054 0.036,0.081 0.09,0.081Zm-1.638,-1.79l1.125,-3.465c0.009,-0.036 0.027,-0.036 0.027,0l0.27,3.465c0,0.018 -0.018,0.036 -0.036,0.036l-1.368,0c-0.018,0 -0.027,-0.018 -0.018,-0.036Z" style="fill:rgb(199,206,201);fill-rule:nonzero;"/>
                <path d="M26.015,30.72c-0.414,0 -0.711,0.279 -0.918,0.684c-0.009,0.027 -0.036,0.027 -0.036,-0.009l0.072,-0.54c0,-0.054 -0.027,-0.09 -0.081,-0.09l-0.44,0c-0.054,0 -0.099,0.036 -0.099,0.09l-0.54,4.373c-0.009,0.054 0.027,0.09 0.072,0.09l0.45,0c0.054,0 0.09,-0.036 0.099,-0.09l0.333,-2.699c0.071,-0.612 0.431,-1.089 0.845,-1.116c0.153,-0.027 0.279,-0.009 0.369,0.036c0.054,0.018 0.099,0.009 0.117,-0.054l0.153,-0.459c0.018,-0.045 0.009,-0.09 -0.027,-0.117c-0.09,-0.054 -0.198,-0.099 -0.369,-0.099Z" style="fill:rgb(199,206,201);fill-rule:nonzero;"/>
                <path d="M28.58,31.151l0.036,-0.296c0.009,-0.054 -0.018,-0.09 -0.072,-0.09l-0.666,0c-0.018,0 -0.027,-0.018 -0.027,-0.036l0.126,-1.008c0,-0.054 -0.027,-0.09 -0.081,-0.09l-0.432,0c-0.054,0 -0.099,0.036 -0.099,0.09l-0.126,1.008c0,0.018 -0.027,0.036 -0.045,0.036l-0.332,0c-0.054,0 -0.099,0.036 -0.099,0.09l-0.036,0.296c-0.009,0.054 0.018,0.09 0.072,0.09l0.341,0c0.018,0 0.036,0.018 0.027,0.036l-0.359,2.944c-0.108,0.908 0.296,1.097 0.917,1.097l0.216,0c0.054,0 0.09,-0.036 0.099,-0.09l0.045,-0.386c0.009,-0.054 -0.027,-0.09 -0.072,-0.09l-0.09,0c-0.369,0.009 -0.549,-0.144 -0.477,-0.72l0.333,-2.755c0.009,-0.018 0.027,-0.036 0.045,-0.036l0.657,0c0.054,0 0.099,-0.036 0.099,-0.09Z" style="fill:rgb(199,206,201);fill-rule:nonzero;"/>
                <path d="M29.867,29.954c0.243,0 0.441,-0.198 0.477,-0.477c0.027,-0.26 -0.117,-0.458 -0.369,-0.458c-0.252,0 -0.458,0.198 -0.485,0.458c-0.036,0.279 0.126,0.477 0.377,0.477Zm-0.89,5.364l0.45,0c0.054,0 0.09,-0.036 0.099,-0.09l0.53,-4.373c0.009,-0.054 -0.018,-0.09 -0.072,-0.09l-0.449,0c-0.045,0 -0.09,0.036 -0.09,0.09l-0.54,4.373c-0.009,0.054 0.018,0.09 0.072,0.09Z" style="fill:rgb(199,206,201);fill-rule:nonzero;"/>
                <path d="M32.732,29.504l0.108,0c0.054,0 0.09,-0.027 0.099,-0.09l0.054,-0.368c0.009,-0.054 -0.027,-0.09 -0.081,-0.09l-0.117,0c-0.882,0 -1.27,0.458 -1.396,1.485l-0.036,0.288c0,0.018 -0.027,0.036 -0.045,0.036l-0.342,0c-0.054,0 -0.099,0.036 -0.099,0.09l-0.036,0.296c-0.009,0.054 0.018,0.09 0.072,0.09l0.351,0c0.018,0 0.036,0.018 0.027,0.036l-0.486,3.951c0,0.054 0.027,0.09 0.081,0.09l0.432,0c0.054,0 0.099,-0.036 0.099,-0.09l0.487,-3.951c0,-0.018 0.027,-0.036 0.045,-0.036l0.666,0c0.054,0 0.09,-0.036 0.099,-0.09l0.036,-0.296c0.009,-0.054 -0.018,-0.09 -0.072,-0.09l-0.675,0c-0.018,0 -0.036,-0.018 -0.027,-0.036l0.027,-0.279c0.081,-0.622 0.27,-0.946 0.729,-0.946Z" style="fill:rgb(199,206,201);fill-rule:nonzero;"/>
                <path d="M35.456,30.855l-0.036,0.252c0,0.027 -0.018,0.045 -0.045,0.018c-0.162,-0.288 -0.449,-0.432 -0.81,-0.432c-0.702,0 -1.224,0.557 -1.34,1.349c-0.054,0.333 -0.09,0.639 -0.126,0.973c-0.045,0.333 -0.09,0.666 -0.117,0.999c-0.063,0.8 0.305,1.376 1.007,1.376c0.36,0 0.684,-0.153 0.919,-0.441c0.027,-0.027 0.045,-0.009 0.045,0.018l-0.036,0.261c-0.009,0.054 0.027,0.09 0.081,0.09l0.44,0c0.054,0 0.09,-0.036 0.099,-0.09l0.54,-4.373c0,-0.054 -0.027,-0.09 -0.081,-0.09l-0.441,0c-0.054,0 -0.09,0.036 -0.099,0.09Zm-1.215,3.977c-0.45,0 -0.711,-0.369 -0.639,-0.899l0.108,-0.891c0.027,-0.234 0.063,-0.577 0.108,-0.892c0.063,-0.54 0.414,-0.9 0.864,-0.9c0.415,0 0.675,0.36 0.612,0.9l-0.215,1.783c-0.072,0.539 -0.415,0.899 -0.838,0.899Z" style="fill:rgb(199,206,201);fill-rule:nonzero;"/>
                <path d="M37.841,35.39c0.847,0 1.452,-0.548 1.542,-1.25l0.009,-0.099c0.009,-0.054 -0.027,-0.09 -0.072,-0.09l-0.451,-0.009c-0.054,0 -0.09,0.036 -0.099,0.09l0,0.063c-0.054,0.387 -0.406,0.738 -0.857,0.738c-0.432,0 -0.702,-0.351 -0.639,-0.864l0.234,-1.855c0.063,-0.513 0.405,-0.864 0.846,-0.864c0.451,0 0.721,0.351 0.667,0.738l-0.009,0.072c0,0.045 0.027,0.081 0.081,0.081l0.449,-0.018c0.045,0 0.09,-0.036 0.09,-0.09l0.018,-0.09c0.081,-0.675 -0.387,-1.25 -1.224,-1.25c-0.837,0 -1.44,0.575 -1.539,1.376l-0.233,1.945c-0.099,0.828 0.359,1.376 1.187,1.376Z" style="fill:rgb(199,206,201);fill-rule:nonzero;"/>
                <path d="M42.134,31.151l0.036,-0.296c0.009,-0.054 -0.018,-0.09 -0.072,-0.09l-0.666,0c-0.018,0 -0.027,-0.018 -0.027,-0.036l0.126,-1.008c0,-0.054 -0.027,-0.09 -0.081,-0.09l-0.432,0c-0.054,0 -0.099,0.036 -0.099,0.09l-0.126,1.008c0,0.018 -0.027,0.036 -0.045,0.036l-0.332,0c-0.054,0 -0.099,0.036 -0.099,0.09l-0.036,0.296c-0.009,0.054 0.018,0.09 0.072,0.09l0.341,0c0.018,0 0.036,0.018 0.027,0.036l-0.359,2.944c-0.108,0.908 0.296,1.097 0.917,1.097l0.216,0c0.054,0 0.09,-0.036 0.099,-0.09l0.045,-0.386c0.009,-0.054 -0.027,-0.09 -0.072,-0.09l-0.09,0c-0.369,0.009 -0.549,-0.144 -0.477,-0.72l0.333,-2.755c0.009,-0.018 0.027,-0.036 0.045,-0.036l0.657,0c0.054,0 0.099,-0.036 0.099,-0.09Z" style="fill:rgb(199,206,201);fill-rule:nonzero;"/>
                <path d="M44.968,30.855l-0.369,2.997c-0.071,0.603 -0.395,0.972 -0.863,0.972c-0.441,0 -0.657,-0.297 -0.585,-0.909l0.378,-3.06c0,-0.054 -0.027,-0.09 -0.081,-0.09l-0.441,0c-0.054,0 -0.09,0.036 -0.099,0.09l-0.395,3.204c-0.108,0.918 0.314,1.322 0.98,1.322c0.378,0 0.702,-0.135 0.936,-0.467c0.018,-0.027 0.045,-0.027 0.036,0.009l-0.037,0.305c-0.009,0.054 0.027,0.09 0.081,0.09l0.441,0c0.054,0 0.09,-0.036 0.099,-0.09l0.54,-4.373c0,-0.054 -0.027,-0.09 -0.081,-0.09l-0.441,0c-0.054,0 -0.099,0.036 -0.099,0.09Z" style="fill:rgb(199,206,201);fill-rule:nonzero;"/>
                <path d="M48.659,30.855l-0.036,0.252c0,0.027 -0.018,0.045 -0.045,0.018c-0.162,-0.288 -0.449,-0.432 -0.81,-0.432c-0.702,0 -1.224,0.557 -1.34,1.349c-0.054,0.333 -0.09,0.639 -0.126,0.973c-0.045,0.333 -0.09,0.666 -0.117,0.999c-0.063,0.8 0.305,1.376 1.007,1.376c0.36,0 0.684,-0.153 0.919,-0.441c0.027,-0.027 0.045,-0.009 0.045,0.018l-0.036,0.261c-0.009,0.054 0.027,0.09 0.081,0.09l0.44,0c0.054,0 0.09,-0.036 0.099,-0.09l0.54,-4.373c0,-0.054 -0.027,-0.09 -0.081,-0.09l-0.441,0c-0.054,0 -0.09,0.036 -0.099,0.09Zm-1.215,3.977c-0.45,0 -0.711,-0.369 -0.639,-0.899l0.108,-0.891c0.027,-0.234 0.063,-0.577 0.108,-0.892c0.063,-0.54 0.414,-0.9 0.864,-0.9c0.415,0 0.675,0.36 0.612,0.9l-0.215,1.783c-0.072,0.539 -0.415,0.899 -0.838,0.899Z" style="fill:rgb(199,206,201);fill-rule:nonzero;"/>
                <path d="M49.83,35.318l0.44,0c0.054,0 0.09,-0.036 0.099,-0.09l0.756,-6.119c0,-0.054 -0.027,-0.09 -0.081,-0.09l-0.441,0c-0.054,0 -0.099,0.036 -0.099,0.09l-0.755,6.119c-0.009,0.054 0.027,0.09 0.081,0.09Z" style="fill:rgb(199,206,201);fill-rule:nonzero;"/>
                <path d="M53.304,35.318l0.45,0c0.045,0 0.09,-0.036 0.099,-0.09l0.539,-4.509c0.009,-0.036 0.045,-0.045 0.045,-0.009l1.197,4.536c0.009,0.054 0.045,0.072 0.09,0.072l0.459,0c0.054,0 0.09,-0.036 0.099,-0.09l0.756,-6.12c0,-0.054 -0.027,-0.09 -0.081,-0.09l-0.432,0c-0.054,0 -0.099,0.036 -0.099,0.09l-0.558,4.518c0,0.036 -0.036,0.036 -0.045,0l-1.197,-4.536c-0.009,-0.054 -0.045,-0.072 -0.09,-0.072l-0.458,0c-0.054,0 -0.09,0.036 -0.099,0.09l-0.747,6.12c-0.009,0.054 0.018,0.09 0.072,0.09Z" style="fill:rgb(199,206,201);fill-rule:nonzero;"/>
                <path d="M58.685,35.39c0.847,0 1.449,-0.548 1.548,-1.376l0.243,-1.945c0.099,-0.81 -0.369,-1.376 -1.206,-1.376c-0.846,0 -1.449,0.566 -1.548,1.376l-0.233,1.945c-0.099,0.828 0.359,1.376 1.196,1.376Zm0.072,-0.557c-0.441,0 -0.711,-0.351 -0.648,-0.855l0.234,-1.864c0.063,-0.513 0.405,-0.864 0.855,-0.864c0.442,0 0.712,0.351 0.649,0.864l-0.225,1.864c-0.063,0.504 -0.424,0.855 -0.865,0.855Z" style="fill:rgb(199,206,201);fill-rule:nonzero;"/>
                <path d="M62.06,29.954c0.243,0 0.441,-0.198 0.477,-0.477c0.027,-0.26 -0.117,-0.458 -0.369,-0.458c-0.252,0 -0.458,0.198 -0.485,0.458c-0.036,0.279 0.126,0.477 0.377,0.477Zm-0.89,5.364l0.45,0c0.054,0 0.09,-0.036 0.099,-0.09l0.53,-4.373c0.009,-0.054 -0.018,-0.09 -0.072,-0.09l-0.449,0c-0.045,0 -0.09,0.036 -0.09,0.09l-0.54,4.373c-0.009,0.054 0.018,0.09 0.072,0.09Z" style="fill:rgb(199,206,201);fill-rule:nonzero;"/>
                <path d="M63.95,35.363c0.811,0 1.386,-0.476 1.476,-1.223c0.108,-0.846 -0.521,-1.135 -0.999,-1.36c-0.432,-0.198 -0.81,-0.369 -0.756,-0.837c0.054,-0.387 0.351,-0.702 0.774,-0.702c0.433,0 0.675,0.306 0.621,0.702l-0.009,0.072c0,0.045 0.027,0.072 0.081,0.072l0.405,0c0.054,0 0.09,-0.036 0.099,-0.09l0,-0.027c0.09,-0.747 -0.333,-1.25 -1.134,-1.25c-0.774,0 -1.331,0.467 -1.43,1.241c-0.108,0.855 0.485,1.125 0.944,1.333c0.423,0.198 0.847,0.369 0.784,0.873c-0.045,0.405 -0.361,0.702 -0.784,0.702c-0.45,0 -0.702,-0.306 -0.657,-0.684l0.009,-0.072c0,-0.045 -0.027,-0.072 -0.081,-0.072l-0.413,0c-0.054,0 -0.099,0.036 -0.099,0.09l-0.009,0.063c-0.09,0.702 0.368,1.169 1.178,1.169Z" style="fill:rgb(199,206,201);fill-rule:nonzero;"/>
                <path d="M68.972,33.194l0.135,-1.125c0.099,-0.81 -0.351,-1.376 -1.197,-1.376c-0.837,0 -1.44,0.566 -1.539,1.376l-0.233,1.944c-0.099,0.829 0.359,1.377 1.187,1.377c0.775,0 1.314,-0.449 1.485,-1.151c0.018,-0.054 -0.009,-0.1 -0.063,-0.1l-0.431,-0.018c-0.054,0 -0.081,0.027 -0.108,0.082c-0.126,0.369 -0.424,0.63 -0.811,0.63c-0.432,0 -0.702,-0.351 -0.639,-0.856l0.081,-0.657c0,-0.018 0.027,-0.036 0.045,-0.036l1.989,0c0.054,0 0.09,-0.036 0.099,-0.09Zm-1.134,-1.944c0.451,0 0.721,0.351 0.658,0.865l-0.081,0.603c0,0.018 -0.018,0.036 -0.036,0.036l-1.432,0c-0.018,0 -0.036,-0.018 -0.036,-0.036l0.081,-0.603c0.063,-0.514 0.405,-0.865 0.846,-0.865Z" style="fill:rgb(199,206,201);fill-rule:nonzero;"/>
            </g>
            <g id="knobMediumBgThree">
                <path d="M60.555,80.888c8.592,-8.58 8.592,-22.49 0,-31.07c-8.586,-8.574 -22.527,-8.574 -31.112,0c-8.592,8.58 -8.592,22.49 0,31.07l15.556,-15.535l15.556,15.535Z" style="fill:none;stroke:rgb(128,128,128);stroke-width:0.7px;stroke-linecap:butt;stroke-linejoin:miter;"/>
            </g>
            <g id="knobMediumBgThree1" serif:id="knobMediumBgThree">
                <path d="M60.557,140.9c8.592,-8.58 8.592,-22.49 0,-31.07c-8.585,-8.573 -22.526,-8.573 -31.112,0c-8.592,8.58 -8.592,22.49 0,31.07l15.556,-15.535l15.556,15.535Z" style="fill:none;stroke:rgb(128,128,128);stroke-width:0.7px;stroke-linecap:butt;stroke-linejoin:miter;"/>
            </g>
            <path d="M22.019,302.4l-2.716,0c-0.054,0 -0.09,0.035 -0.09,0.089l0,0.387c0,0.054 0.036,0.089 0.09,0.089l0.972,0c0.018,0 0.036,0.018 0.036,0.036l0,4.5c0,0.054 0.035,0.09 0.089,0.09l0.459,0c0.054,0 0.089,-0.036 0.089,-0.09l0,-4.5c0,-0.018 0.018,-0.036 0.036,-0.036l1.035,0c0.054,0 0.09,-0.035 0.09,-0.089l0,-0.387c0,-0.054 -0.036,-0.089 -0.09,-0.089Z" style="fill:white;fill-rule:nonzero;"/>
            <path d="M23.982,307.582l0.459,0c0.054,0 0.089,-0.036 0.089,-0.09l0,-2.132c0,-0.009 0,-0.036 0.009,-0.045l1.089,-2.807c0.027,-0.063 0,-0.108 -0.063,-0.108l-0.486,0c-0.045,0 -0.09,0.018 -0.108,0.072l-0.737,2.078c-0.009,0.027 -0.045,0.027 -0.054,0l-0.737,-2.078c-0.018,-0.054 -0.063,-0.072 -0.108,-0.072l-0.486,0c-0.063,0 -0.09,0.045 -0.063,0.108l1.098,2.807c0.009,0.009 0.009,0.036 0.009,0.045l0,2.132c0,0.054 0.035,0.09 0.089,0.09Z" style="fill:white;fill-rule:nonzero;"/>
            <path d="M27.852,302.391l-1.341,0c-0.054,0 -0.089,0.035 -0.089,0.089l0,5.021c0,0.054 0.035,0.09 0.089,0.09l0.459,0c0.054,0 0.089,-0.036 0.089,-0.09l0,-2.169c0,-0.018 0.018,-0.036 0.036,-0.036l0.784,0c0.774,0 1.295,-0.574 1.295,-1.43c0,-0.874 -0.53,-1.475 -1.322,-1.475Zm-0.09,2.403l-0.667,0c-0.018,0 -0.036,-0.018 -0.036,-0.036l0,-1.775c0,-0.018 0.018,-0.036 0.036,-0.036l0.667,0c0.459,0 0.775,0.361 0.775,0.928c0,0.558 -0.316,0.919 -0.775,0.919Z" style="fill:white;fill-rule:nonzero;"/>
            <path d="M32.729,302.876l0,-0.378c0,-0.054 -0.036,-0.089 -0.09,-0.089l-2.393,0c-0.054,0 -0.089,0.035 -0.089,0.089l0,5.004c0,0.054 0.035,0.089 0.089,0.089l2.393,0c0.054,0 0.09,-0.035 0.09,-0.089l0,-0.378c0,-0.054 -0.036,-0.089 -0.09,-0.089l-1.809,0c-0.018,0 -0.036,-0.018 -0.036,-0.036l0,-1.694c0,-0.018 0.018,-0.036 0.036,-0.036l1.116,0c0.054,0 0.09,-0.035 0.09,-0.089l0,-0.378c0,-0.054 -0.036,-0.089 -0.09,-0.089l-1.116,0c-0.018,0 -0.036,-0.018 -0.036,-0.036l0,-1.676c0,-0.018 0.018,-0.036 0.036,-0.036l1.809,0c0.054,0 0.09,-0.035 0.09,-0.089Z" style="fill:white;fill-rule:nonzero;"/>
            <path d="M22.685,262.404l-2.716,0c-0.054,0 -0.09,0.036 -0.09,0.09l0,0.386c0,0.054 0.036,0.09 0.09,0.09l0.972,0c0.018,0 0.036,0.018 0.036,0.036l0,4.5c0,0.054 0.035,0.09 0.089,0.09l0.459,0c0.054,0 0.089,-0.036 0.089,-0.09l0,-4.5c0,-0.018 0.018,-0.036 0.036,-0.036l1.035,0c0.054,0 0.09,-0.036 0.09,-0.09l0,-0.386c0,-0.054 -0.036,-0.09 -0.09,-0.09Z" style="fill:white;fill-rule:nonzero;"/>
            <path d="M25.926,267.596l0.468,0c0.062,0 0.089,-0.036 0.071,-0.099l-0.836,-2.277c-0.009,-0.027 0,-0.036 0.027,-0.045c0.495,-0.188 0.791,-0.674 0.791,-1.313c0,-0.865 -0.539,-1.467 -1.322,-1.467l-1.341,0c-0.054,0 -0.089,0.036 -0.089,0.09l0,5.021c0,0.054 0.035,0.09 0.089,0.09l0.459,0c0.054,0 0.089,-0.036 0.089,-0.09l0,-2.205c0,-0.018 0.018,-0.036 0.036,-0.036l0.631,0c0.018,0 0.027,0 0.036,0.027l0.784,2.232c0.018,0.054 0.062,0.072 0.107,0.072Zm-1.558,-4.644l0.667,0c0.459,0 0.775,0.36 0.775,0.91c0,0.549 -0.316,0.891 -0.775,0.891l-0.667,0c-0.018,0 -0.036,-0.018 -0.036,-0.036l0,-1.729c0,-0.018 0.018,-0.036 0.036,-0.036Z" style="fill:white;fill-rule:nonzero;"/>
            <path d="M27.519,267.596l0.459,0c0.054,0 0.089,-0.036 0.089,-0.09l0,-5.004c0,-0.054 -0.035,-0.09 -0.089,-0.09l-0.459,0c-0.054,0 -0.089,0.036 -0.089,0.09l0,5.004c0,0.054 0.035,0.09 0.089,0.09Z" style="fill:white;fill-rule:nonzero;"/>
            <path d="M29.418,267.596l0.459,0c0.054,0 0.089,-0.036 0.089,-0.09l0,-4.058c0,-0.036 0.036,-0.036 0.045,-0.009l0.757,1.699c0.018,0.054 0.045,0.075 0.081,0.075c0.036,0 0.063,-0.021 0.081,-0.075l0.748,-1.699c0.009,-0.027 0.045,-0.027 0.045,0.009l0,4.058c0,0.054 0.035,0.09 0.089,0.09l0.459,0c0.054,0 0.089,-0.036 0.089,-0.09l0,-5.012c0,-0.054 -0.035,-0.09 -0.089,-0.09l-0.468,0c-0.045,0 -0.08,0.027 -0.098,0.072l-0.838,1.825c-0.009,0.027 -0.045,0.027 -0.054,0l-0.838,-1.825c-0.018,-0.045 -0.053,-0.072 -0.098,-0.072l-0.459,0c-0.054,0 -0.089,0.036 -0.089,0.09l0,5.012c0,0.054 0.035,0.09 0.089,0.09Z" style="fill:white;fill-rule:nonzero;"/>
            <path d="M23.789,347.596l0.458,0c0.054,0 0.09,-0.036 0.09,-0.09l0,-5.004c0,-0.054 -0.036,-0.09 -0.09,-0.09l-0.458,0c-0.054,0 -0.09,0.036 -0.09,0.09l0,5.004c0,0.054 0.036,0.09 0.09,0.09Z" style="fill:white;fill-rule:nonzero;"/>
            <path d="M25.688,347.596l0.449,0c0.054,0 0.09,-0.036 0.09,-0.09l0,-3.753c0,-0.036 0.036,-0.045 0.045,-0.009l1.522,3.78c0.018,0.054 0.054,0.072 0.099,0.072l0.476,0c0.054,0 0.09,-0.036 0.09,-0.09l0,-5.004c0,-0.054 -0.036,-0.09 -0.09,-0.09l-0.449,0c-0.054,0 -0.09,0.036 -0.09,0.09l0,3.744c0,0.036 -0.036,0.045 -0.045,0.009l-1.531,-3.771c-0.018,-0.054 -0.054,-0.072 -0.099,-0.072l-0.467,0c-0.054,0 -0.09,0.036 -0.09,0.09l0,5.004c0,0.054 0.036,0.09 0.09,0.09Z" style="fill:white;fill-rule:nonzero;"/>
            <path d="M51.13,307.6l1.241,0c0.838,0 1.377,-0.547 1.377,-1.385l0,-2.412c0,-0.847 -0.539,-1.394 -1.377,-1.394l-1.241,0c-0.054,0 -0.09,0.035 -0.09,0.089l0,5.013c0,0.054 0.036,0.089 0.09,0.089Zm0.548,-0.592l0,-3.998c0,-0.018 0.018,-0.036 0.036,-0.036l0.648,0c0.46,0 0.748,0.334 0.748,0.856l0,2.34c-0.009,0.531 -0.297,0.865 -0.748,0.865l-0.648,0.009c-0.018,0 -0.036,-0.018 -0.036,-0.036Z" style="fill:white;fill-rule:nonzero;"/>
            <path d="M57.151,307.6l0.467,0c0.063,0 0.09,-0.036 0.072,-0.099l-0.836,-2.276c-0.009,-0.027 0,-0.036 0.027,-0.045c0.494,-0.189 0.791,-0.675 0.791,-1.314c0,-0.865 -0.539,-1.466 -1.323,-1.466l-1.34,0c-0.054,0 -0.09,0.035 -0.09,0.089l0,5.021c0,0.054 0.036,0.09 0.09,0.09l0.458,0c0.054,0 0.09,-0.036 0.09,-0.09l0,-2.205c0,-0.018 0.018,-0.036 0.036,-0.036l0.63,0c0.018,0 0.027,0 0.036,0.027l0.784,2.232c0.018,0.054 0.063,0.072 0.108,0.072Zm-1.558,-4.644l0.666,0c0.46,0 0.775,0.361 0.775,0.91c0,0.549 -0.315,0.892 -0.775,0.892l-0.666,0c-0.018,0 -0.036,-0.018 -0.036,-0.036l0,-1.73c0,-0.018 0.018,-0.036 0.036,-0.036Z" style="fill:white;fill-rule:nonzero;"/>
            <path d="M59.509,307.591l0.458,0c0.054,0 0.09,-0.036 0.09,-0.09l0,-2.132c0,-0.009 0,-0.036 0.009,-0.045l1.089,-2.807c0.027,-0.063 0,-0.108 -0.063,-0.108l-0.486,0c-0.045,0 -0.09,0.018 -0.108,0.072l-0.738,2.078c-0.009,0.027 -0.045,0.027 -0.054,0l-0.737,-2.078c-0.018,-0.054 -0.063,-0.072 -0.108,-0.072l-0.486,0c-0.063,0 -0.09,0.045 -0.063,0.108l1.098,2.807c0.009,0.009 0.009,0.036 0.009,0.045l0,2.132c0,0.054 0.036,0.09 0.09,0.09Z" style="fill:white;fill-rule:nonzero;"/>
            <path d="M61.934,307.6l0.45,0c0.054,0 0.09,-0.036 0.099,-0.081l1.629,-6.118c0.018,-0.063 -0.018,-0.099 -0.081,-0.099l-0.45,0c-0.054,0 -0.09,0.036 -0.099,0.081l-1.629,6.118c-0.018,0.063 0.018,0.099 0.081,0.099Z" style="fill:white;fill-rule:nonzero;"/>
            <path d="M65.944,307.6l0.413,0c0.054,0 0.081,-0.027 0.09,-0.081l0.621,-3.805c0.009,-0.027 0.027,-0.027 0.036,0l0.63,3.805c0.009,0.054 0.036,0.081 0.09,0.081l0.432,0c0.054,0 0.09,-0.027 0.099,-0.081l0.99,-5.011c0.009,-0.054 -0.018,-0.099 -0.081,-0.099l-0.477,0c-0.054,0 -0.09,0.027 -0.099,0.081l-0.639,3.842c-0.009,0.027 -0.027,0.027 -0.036,0l-0.639,-3.842c-0.009,-0.054 -0.045,-0.081 -0.099,-0.081l-0.378,0c-0.054,0 -0.081,0.027 -0.09,0.081l-0.621,3.842c-0.009,0.027 -0.027,0.036 -0.036,0.009l-0.692,-3.851c-0.009,-0.054 -0.045,-0.081 -0.099,-0.081l-0.486,0c-0.063,0 -0.09,0.036 -0.081,0.099l1.053,5.011c0.009,0.054 0.045,0.081 0.099,0.081Z" style="fill:white;fill-rule:nonzero;"/>
            <path d="M72.909,302.885l0,-0.378c0,-0.054 -0.036,-0.089 -0.09,-0.089l-2.393,0c-0.054,0 -0.09,0.035 -0.09,0.089l0,5.004c0,0.054 0.036,0.089 0.09,0.089l2.393,0c0.054,0 0.09,-0.035 0.09,-0.089l0,-0.378c0,-0.054 -0.036,-0.089 -0.09,-0.089l-1.809,0c-0.018,0 -0.036,-0.018 -0.036,-0.036l0,-1.694c0,-0.018 0.018,-0.036 0.036,-0.036l1.116,0c0.054,0 0.09,-0.035 0.09,-0.089l0,-0.378c0,-0.054 -0.036,-0.089 -0.09,-0.089l-1.116,0c-0.018,0 -0.036,-0.018 -0.036,-0.036l0,-1.676c0,-0.018 0.018,-0.036 0.036,-0.036l1.809,0c0.054,0 0.09,-0.035 0.09,-0.089Z" style="fill:white;fill-rule:nonzero;"/>
            <path d="M76.41,302.409l-2.717,0c-0.054,0 -0.09,0.035 -0.09,0.089l0,0.387c0,0.054 0.036,0.089 0.09,0.089l0.972,0c0.018,0 0.036,0.018 0.036,0.036l0,4.5c0,0.054 0.036,0.09 0.09,0.09l0.458,0c0.054,0 0.09,-0.036 0.09,-0.09l0,-4.5c0,-0.018 0.018,-0.036 0.036,-0.036l1.035,0c0.054,0 0.09,-0.035 0.09,-0.089l0,-0.387c0,-0.054 -0.036,-0.089 -0.09,-0.089Z" style="fill:white;fill-rule:nonzero;"/>
            <path d="M48.595,264.888c0.431,-0.189 0.655,-0.558 0.655,-1.108c0,-0.9 -0.584,-1.376 -1.502,-1.376l-1.161,0c-0.054,0 -0.089,0.036 -0.089,0.09l0,5.012c0,0.054 0.035,0.09 0.089,0.09l1.251,0c0.864,0 1.457,-0.512 1.457,-1.421c-0.009,-0.613 -0.287,-1.027 -0.709,-1.243c-0.018,-0.017 -0.018,-0.035 0.009,-0.044Zm-1.424,-1.918l0.595,0c0.54,0 0.865,0.315 0.865,0.874c0,0.549 -0.325,0.855 -0.865,0.855l-0.595,0c-0.018,0 -0.036,-0.018 -0.036,-0.036l0,-1.657c0,-0.018 0.018,-0.036 0.036,-0.036Zm0.613,4.06l-0.613,0c-0.018,0 -0.036,-0.018 -0.036,-0.036l0,-1.81c0,-0.018 0.018,-0.036 0.036,-0.036l0.622,0c0.531,0 0.856,0.36 0.856,0.955c0,0.594 -0.325,0.927 -0.865,0.927Z" style="fill:white;fill-rule:nonzero;"/>
            <path d="M52.5,267.596l0.468,0c0.062,0 0.089,-0.036 0.071,-0.099l-0.836,-2.277c-0.009,-0.027 0,-0.036 0.027,-0.045c0.495,-0.188 0.791,-0.674 0.791,-1.313c0,-0.865 -0.539,-1.467 -1.322,-1.467l-1.341,0c-0.054,0 -0.089,0.036 -0.089,0.09l0,5.021c0,0.054 0.035,0.09 0.089,0.09l0.459,0c0.054,0 0.089,-0.036 0.089,-0.09l0,-2.205c0,-0.018 0.018,-0.036 0.036,-0.036l0.631,0c0.018,0 0.027,0 0.036,0.027l0.784,2.232c0.018,0.054 0.062,0.072 0.107,0.072Zm-1.558,-4.644l0.667,0c0.459,0 0.775,0.36 0.775,0.91c0,0.549 -0.316,0.891 -0.775,0.891l-0.667,0c-0.018,0 -0.036,-0.018 -0.036,-0.036l0,-1.729c0,-0.018 0.018,-0.036 0.036,-0.036Z" style="fill:white;fill-rule:nonzero;"/>
            <path d="M54.093,267.596l0.459,0c0.054,0 0.089,-0.036 0.089,-0.09l0,-5.004c0,-0.054 -0.035,-0.09 -0.089,-0.09l-0.459,0c-0.054,0 -0.089,0.036 -0.089,0.09l0,5.004c0,0.054 0.035,0.09 0.089,0.09Z" style="fill:white;fill-rule:nonzero;"/>
            <path d="M57.171,267.659c0.828,0 1.385,-0.503 1.385,-1.358l0,-1.233c0,-0.054 -0.035,-0.09 -0.089,-0.09l-1.161,0c-0.054,0 -0.09,0.036 -0.09,0.09l0,0.287c0,0.054 0.036,0.09 0.09,0.09l0.577,0c0.018,0 0.036,0.018 0.036,0.036l0,0.829c0,0.504 -0.298,0.792 -0.748,0.792c-0.45,0 -0.748,-0.288 -0.748,-0.792l0,-2.62c0,-0.504 0.298,-0.783 0.748,-0.783c0.45,0 0.748,0.279 0.748,0.783l0,0.234c0,0.055 0.035,0.091 0.089,0.091l0.459,0c0.054,0 0.089,-0.036 0.089,-0.091l0,-0.216c0,-0.855 -0.557,-1.367 -1.385,-1.367c-0.828,0 -1.385,0.503 -1.385,1.358l0,2.602c0,0.855 0.557,1.358 1.385,1.358Z" style="fill:white;fill-rule:nonzero;"/>
            <path d="M61.69,262.494l0,2.187c0,0.018 -0.018,0.036 -0.036,0.036l-1.325,0c-0.018,0 -0.036,-0.018 -0.036,-0.036l0,-2.187c0,-0.054 -0.035,-0.09 -0.089,-0.09l-0.459,0c-0.054,0 -0.089,0.036 -0.089,0.09l0,5.012c0,0.054 0.035,0.09 0.089,0.09l0.459,0c0.054,0 0.089,-0.036 0.089,-0.09l0,-2.196c0,-0.018 0.018,-0.036 0.036,-0.036l1.325,0c0.018,0 0.036,0.018 0.036,0.036l0,2.196c0,0.054 0.035,0.09 0.089,0.09l0.459,0c0.054,0 0.089,-0.036 0.089,-0.09l0,-5.012c0,-0.054 -0.035,-0.09 -0.089,-0.09l-0.459,0c-0.054,0 -0.089,0.036 -0.089,0.09Z" style="fill:white;fill-rule:nonzero;"/>
            <path d="M66.062,262.404l-2.716,0c-0.054,0 -0.09,0.036 -0.09,0.09l0,0.386c0,0.054 0.036,0.09 0.09,0.09l0.972,0c0.018,0 0.036,0.018 0.036,0.036l0,4.5c0,0.054 0.035,0.09 0.089,0.09l0.459,0c0.054,0 0.089,-0.036 0.089,-0.09l0,-4.5c0,-0.018 0.018,-0.036 0.036,-0.036l1.035,0c0.054,0 0.09,-0.036 0.09,-0.09l0,-0.386c0,-0.054 -0.036,-0.09 -0.09,-0.09Z" style="fill:white;fill-rule:nonzero;"/>
            <path d="M67.161,267.596l0.45,0c0.054,0 0.089,-0.036 0.089,-0.09l0,-3.753c0,-0.036 0.036,-0.045 0.045,-0.009l1.523,3.78c0.018,0.054 0.054,0.072 0.098,0.072l0.477,0c0.054,0 0.089,-0.036 0.089,-0.09l0,-5.004c0,-0.054 -0.035,-0.09 -0.089,-0.09l-0.45,0c-0.054,0 -0.089,0.036 -0.089,0.09l0,3.744c0,0.036 -0.036,0.045 -0.045,0.009l-1.532,-3.771c-0.018,-0.054 -0.054,-0.072 -0.098,-0.072l-0.468,0c-0.054,0 -0.089,0.036 -0.089,0.09l0,5.004c0,0.054 0.035,0.09 0.089,0.09Z" style="fill:white;fill-rule:nonzero;"/>
            <path d="M73.766,262.88l0,-0.377c0,-0.054 -0.036,-0.09 -0.09,-0.09l-2.393,0c-0.054,0 -0.089,0.036 -0.089,0.09l0,5.003c0,0.054 0.035,0.09 0.089,0.09l2.393,0c0.054,0 0.09,-0.036 0.09,-0.09l0,-0.377c0,-0.054 -0.036,-0.09 -0.09,-0.09l-1.809,0c-0.018,0 -0.036,-0.018 -0.036,-0.036l0,-1.693c0,-0.018 0.018,-0.036 0.036,-0.036l1.116,0c0.054,0 0.09,-0.036 0.09,-0.09l0,-0.377c0,-0.054 -0.036,-0.09 -0.09,-0.09l-1.116,0c-0.018,0 -0.036,-0.018 -0.036,-0.036l0,-1.675c0,-0.018 0.018,-0.036 0.036,-0.036l1.809,0c0.054,0 0.09,-0.036 0.09,-0.09Z" style="fill:white;fill-rule:nonzero;"/>
            <path d="M75.99,267.659c0.801,0 1.376,-0.53 1.376,-1.367c0,-0.711 -0.413,-1.026 -1.223,-1.585c-0.63,-0.441 -0.883,-0.639 -0.883,-1.062c0,-0.486 0.298,-0.747 0.694,-0.747c0.441,0 0.73,0.324 0.73,0.819l0,0.126c0,0.054 0.035,0.09 0.089,0.09l0.45,0c0.054,0 0.089,-0.036 0.089,-0.09l0,-0.144c0,-0.801 -0.539,-1.358 -1.358,-1.358c-0.774,0 -1.322,0.485 -1.322,1.295c0,0.792 0.539,1.17 1.169,1.594c0.567,0.378 0.928,0.612 0.928,1.098c0,0.468 -0.316,0.783 -0.739,0.783c-0.423,0 -0.721,-0.324 -0.721,-0.837l0,-0.09c0,-0.054 -0.036,-0.09 -0.089,-0.09l-0.45,0c-0.054,0 -0.089,0.036 -0.089,0.09l0,0.153c0,0.783 0.548,1.322 1.349,1.322Z" style="fill:white;fill-rule:nonzero;"/>
            <path d="M79.608,267.659c0.801,0 1.376,-0.53 1.376,-1.367c0,-0.711 -0.413,-1.026 -1.223,-1.585c-0.63,-0.441 -0.883,-0.639 -0.883,-1.062c0,-0.486 0.298,-0.747 0.694,-0.747c0.441,0 0.73,0.324 0.73,0.819l0,0.126c0,0.054 0.035,0.09 0.089,0.09l0.45,0c0.054,0 0.089,-0.036 0.089,-0.09l0,-0.144c0,-0.801 -0.539,-1.358 -1.358,-1.358c-0.774,0 -1.322,0.485 -1.322,1.295c0,0.792 0.539,1.17 1.169,1.594c0.567,0.378 0.928,0.612 0.928,1.098c0,0.468 -0.316,0.783 -0.739,0.783c-0.423,0 -0.721,-0.324 -0.721,-0.837l0,-0.09c0,-0.054 -0.036,-0.09 -0.089,-0.09l-0.45,0c-0.054,0 -0.089,0.036 -0.089,0.09l0,0.153c0,0.783 0.548,1.322 1.349,1.322Z" style="fill:white;fill-rule:nonzero;"/>
            <path d="M59.94,347.659c0.838,0 1.404,-0.539 1.404,-1.43l0,-2.449c0,-0.9 -0.566,-1.439 -1.404,-1.439c-0.846,0 -1.403,0.539 -1.403,1.439l0,2.449c0,0.891 0.557,1.43 1.403,1.43Zm0,-0.557c-0.45,0 -0.765,-0.306 -0.765,-0.837l0,-2.512c0,-0.54 0.315,-0.846 0.765,-0.846c0.46,0 0.766,0.306 0.766,0.846l0,2.512c0,0.531 -0.306,0.837 -0.766,0.837Z" style="fill:white;fill-rule:nonzero;"/>
            <path d="M63.828,347.659c0.847,0 1.395,-0.584 1.395,-1.538l0,-3.618c0,-0.054 -0.036,-0.09 -0.09,-0.09l-0.458,0c-0.054,0 -0.09,0.036 -0.09,0.09l0,3.672c0,0.576 -0.297,0.927 -0.757,0.927c-0.45,0 -0.747,-0.351 -0.747,-0.927l0,-3.672c0,-0.054 -0.036,-0.09 -0.09,-0.09l-0.458,0c-0.054,0 -0.09,0.036 -0.09,0.09l0,3.618c0,0.954 0.557,1.538 1.385,1.538Z" style="fill:white;fill-rule:nonzero;"/>
            <path d="M68.913,342.404l-2.717,0c-0.054,0 -0.09,0.036 -0.09,0.09l0,0.386c0,0.054 0.036,0.09 0.09,0.09l0.972,0c0.018,0 0.036,0.018 0.036,0.036l0,4.5c0,0.054 0.036,0.09 0.09,0.09l0.458,0c0.054,0 0.09,-0.036 0.09,-0.09l0,-4.5c0,-0.018 0.018,-0.036 0.036,-0.036l1.035,0c0.054,0 0.09,-0.036 0.09,-0.09l0,-0.386c0,-0.054 -0.036,-0.09 -0.09,-0.09Z" style="fill:white;fill-rule:nonzero;"/>
            <path d="M40.367,86.601l-4.018,0c-0.072,0 -0.12,0.048 -0.12,0.12l0,0.502c0,0.072 0.048,0.12 0.12,0.12l1.488,0c0.024,0 0.048,0.024 0.048,0.048l0,7.488c0,0.072 0.048,0.12 0.12,0.12l0.61,0c0.072,0 0.12,-0.048 0.12,-0.12l0,-7.488c0,-0.024 0.024,-0.048 0.048,-0.048l1.584,0c0.072,0 0.12,-0.048 0.12,-0.12l0,-0.502c0,-0.072 -0.048,-0.12 -0.12,-0.12Z" style="fill:white;fill-rule:nonzero;"/>
            <path d="M43.392,88.869c-0.576,0 -0.936,0.372 -1.14,0.912c-0.024,0.036 -0.06,0.036 -0.06,-0.012l0,-0.72c0,-0.072 -0.048,-0.12 -0.12,-0.12l-0.612,0c-0.072,0 -0.12,0.048 -0.12,0.12l0,5.83c0,0.072 0.048,0.12 0.12,0.12l0.612,0c0.072,0 0.12,-0.048 0.12,-0.12l0,-3.599c0,-0.815 0.408,-1.451 0.984,-1.487c0.192,-0.036 0.372,-0.012 0.504,0.048c0.084,0.024 0.144,0.012 0.156,-0.072l0.132,-0.612c0.012,-0.06 0,-0.12 -0.06,-0.156c-0.12,-0.072 -0.276,-0.132 -0.516,-0.132Z" style="fill:white;fill-rule:nonzero;"/>
            <path d="M45.348,87.847c0.336,0 0.575,-0.263 0.575,-0.635c0,-0.348 -0.239,-0.611 -0.575,-0.611c-0.348,0 -0.599,0.263 -0.599,0.611c0,0.372 0.251,0.635 0.599,0.635Zm-0.311,7.152l0.61,0c0.072,0 0.12,-0.048 0.12,-0.12l0,-5.83c0,-0.072 -0.048,-0.12 -0.12,-0.12l-0.61,0c-0.072,0 -0.12,0.048 -0.12,0.12l0,5.83c0,0.072 0.048,0.12 0.12,0.12Z" style="fill:white;fill-rule:nonzero;"/>
            <path d="M52.14,88.845c-0.516,0 -1.081,0.227 -1.381,0.838c-0.023,0.048 -0.059,0.048 -0.071,0.012c-0.24,-0.539 -0.695,-0.85 -1.308,-0.85c-0.432,0 -0.876,0.167 -1.201,0.587c-0.036,0.035 -0.06,0.024 -0.06,-0.012l0,-0.371c0,-0.072 -0.048,-0.12 -0.12,-0.12l-0.598,0c-0.072,0 -0.12,0.048 -0.12,0.12l0,5.83c0,0.072 0.048,0.12 0.12,0.12l0.598,0c0.072,0 0.12,-0.048 0.12,-0.12l0,-3.995c0,-0.805 0.385,-1.297 0.997,-1.297c0.54,0 0.925,0.492 0.925,1.32l0,3.972c0,0.072 0.048,0.12 0.12,0.12l0.61,0c0.072,0 0.12,-0.048 0.12,-0.12l0,-3.996c0,-0.804 0.385,-1.296 0.985,-1.296c0.552,0 0.937,0.492 0.937,1.32l0,3.972c0,0.072 0.048,0.12 0.12,0.12l0.598,0c0.072,0 0.12,-0.048 0.12,-0.12l0,-4.044c0,-1.236 -0.551,-1.99 -1.511,-1.99Z" style="fill:white;fill-rule:nonzero;"/>
            <path d="M28.094,152.719c0,-1.008 -0.407,-1.668 -1.054,-2.04c-0.024,-0.012 -0.024,-0.036 0.012,-0.048c0.659,-0.323 0.994,-0.935 0.994,-1.836c0,-1.428 -0.85,-2.195 -2.207,-2.195l-1.727,0c-0.072,0 -0.12,0.048 -0.12,0.12l0,8.159c0,0.072 0.048,0.12 0.12,0.12l1.835,0c1.297,0 2.159,-0.815 2.147,-2.28Zm-3.203,-5.376l0.948,0c0.865,0 1.369,0.564 1.369,1.524c0,0.925 -0.504,1.465 -1.369,1.465l-0.948,0c-0.024,0 -0.049,-0.024 -0.049,-0.048l0,-2.893c0,-0.024 0.025,-0.048 0.049,-0.048Zm0.996,6.901l-0.996,0c-0.024,0 -0.049,-0.024 -0.049,-0.048l0,-3.169c0,-0.024 0.025,-0.048 0.049,-0.048l0.996,0c0.853,0 1.357,0.612 1.357,1.644c0,1.033 -0.504,1.621 -1.357,1.621Z" style="fill:white;fill-rule:nonzero;"/>
            <path d="M31.299,148.868c-0.576,0 -0.936,0.372 -1.14,0.912c-0.024,0.036 -0.06,0.036 -0.06,-0.012l0,-0.72c0,-0.072 -0.048,-0.12 -0.12,-0.12l-0.612,0c-0.072,0 -0.12,0.048 -0.12,0.12l0,5.831c0,0.072 0.048,0.12 0.12,0.12l0.612,0c0.072,0 0.12,-0.048 0.12,-0.12l0,-3.599c0,-0.816 0.408,-1.452 0.984,-1.488c0.192,-0.036 0.372,-0.012 0.504,0.048c0.084,0.024 0.144,0.012 0.156,-0.072l0.132,-0.612c0.012,-0.06 0,-0.12 -0.06,-0.156c-0.12,-0.072 -0.276,-0.132 -0.516,-0.132Z" style="fill:white;fill-rule:nonzero;"/>
            <path d="M33.255,147.847c0.336,0 0.575,-0.264 0.575,-0.636c0,-0.347 -0.239,-0.611 -0.575,-0.611c-0.347,0 -0.599,0.264 -0.599,0.611c0,0.372 0.252,0.636 0.599,0.636Zm-0.311,7.152l0.611,0c0.072,0 0.119,-0.048 0.119,-0.12l0,-5.831c0,-0.072 -0.047,-0.12 -0.119,-0.12l-0.611,0c-0.072,0 -0.12,0.048 -0.12,0.12l0,5.831c0,0.072 0.048,0.12 0.12,0.12Z" style="fill:white;fill-rule:nonzero;"/>
            <path d="M37.948,149.048l0,0.371c0,0.048 -0.024,0.06 -0.06,0.012c-0.276,-0.407 -0.733,-0.599 -1.201,-0.599c-1.02,0 -1.631,0.731 -1.631,1.835l0,2.533c0,1.08 0.599,1.835 1.631,1.835c0.456,0 0.913,-0.192 1.201,-0.611c0.036,-0.036 0.06,-0.012 0.06,0.024l0,0.359c0,1.2 -0.396,1.897 -1.729,1.861c-0.072,0 -0.12,0.048 -0.12,0.12l0,0.515c0,0.072 0.036,0.12 0.12,0.132c1.957,0.084 2.579,-0.959 2.579,-2.556l0,-5.831c0,-0.072 -0.047,-0.12 -0.119,-0.12l-0.611,0c-0.072,0 -0.12,0.048 -0.12,0.12Zm-1.009,5.244c-0.6,0 -1.033,-0.468 -1.033,-1.14l0,-2.425c0,-0.684 0.433,-1.152 1.033,-1.152c0.601,0 1.009,0.468 1.009,1.152l0,2.425c0,0.672 -0.408,1.14 -1.009,1.14Z" style="fill:white;fill-rule:nonzero;"/>
            <path d="M42.303,148.844c-0.48,0 -0.936,0.18 -1.248,0.611c-0.024,0.036 -0.061,0.024 -0.061,-0.012l0,-2.723c0,-0.072 -0.047,-0.12 -0.119,-0.12l-0.611,0c-0.072,0 -0.12,0.048 -0.12,0.12l0,8.159c0,0.072 0.048,0.12 0.12,0.12l0.611,0c0.072,0 0.119,-0.048 0.119,-0.12l0,-3.996c0,-0.804 0.397,-1.296 1.033,-1.296c0.613,0 0.961,0.456 0.961,1.236l0,4.056c0,0.072 0.048,0.12 0.12,0.12l0.611,0c0.072,0 0.119,-0.048 0.119,-0.12l0,-4.128c0,-1.2 -0.551,-1.907 -1.535,-1.907Z" style="fill:white;fill-rule:nonzero;"/>
            <path d="M47.366,149.443l0,-0.395c0,-0.072 -0.048,-0.12 -0.12,-0.12l-0.912,0c-0.024,0 -0.048,-0.024 -0.048,-0.048l0,-1.344c0,-0.072 -0.047,-0.12 -0.119,-0.12l-0.599,0c-0.072,0 -0.12,0.048 -0.12,0.12l0,1.344c0,0.024 -0.024,0.048 -0.048,0.048l-0.468,0c-0.072,0 -0.12,0.048 -0.12,0.12l0,0.395c0,0.072 0.048,0.12 0.12,0.12l0.468,0c0.024,0 0.048,0.024 0.048,0.048l0,3.925c0,1.211 0.587,1.463 1.438,1.463l0.3,0c0.072,0 0.12,-0.048 0.12,-0.12l0,-0.515c0,-0.072 -0.048,-0.12 -0.12,-0.12l-0.12,0c-0.504,0.012 -0.78,-0.192 -0.78,-0.96l0,-3.673c0,-0.024 0.024,-0.048 0.048,-0.048l0.912,0c0.072,0 0.12,-0.048 0.12,-0.12Z" style="fill:white;fill-rule:nonzero;"/>
            <path d="M50.595,148.844c-0.48,0 -0.936,0.18 -1.248,0.611c-0.024,0.036 -0.061,0.024 -0.061,-0.012l0,-0.395c0,-0.072 -0.047,-0.12 -0.119,-0.12l-0.611,0c-0.072,0 -0.12,0.048 -0.12,0.12l0,5.831c0,0.072 0.048,0.12 0.12,0.12l0.611,0c0.072,0 0.119,-0.048 0.119,-0.12l0,-3.996c0,-0.804 0.397,-1.296 1.033,-1.296c0.613,0 0.961,0.456 0.961,1.236l0,4.056c0,0.072 0.048,0.12 0.12,0.12l0.611,0c0.072,0 0.119,-0.048 0.119,-0.12l0,-4.128c0,-1.2 -0.551,-1.907 -1.535,-1.907Z" style="fill:white;fill-rule:nonzero;"/>
            <path d="M57.146,152.167l0,-1.5c0,-1.08 -0.718,-1.835 -1.883,-1.835c-1.14,0 -1.871,0.755 -1.871,1.835l0,2.592c0,1.105 0.731,1.836 1.871,1.836c1.057,0 1.716,-0.599 1.848,-1.536c0.012,-0.072 -0.036,-0.132 -0.108,-0.132l-0.599,-0.024c-0.072,0 -0.108,0.036 -0.132,0.108c-0.108,0.493 -0.48,0.841 -1.009,0.841c-0.6,0 -1.021,-0.468 -1.021,-1.141l0,-0.876c0,-0.024 0.025,-0.048 0.049,-0.048l2.736,0c0.072,0 0.119,-0.048 0.119,-0.12Zm-1.883,-2.592c0.625,0 1.045,0.468 1.045,1.152l0,0.805c0,0.024 -0.024,0.048 -0.048,0.048l-1.969,0c-0.024,0 -0.049,-0.024 -0.049,-0.048l0,-0.805c0,-0.684 0.421,-1.152 1.021,-1.152Z" style="fill:white;fill-rule:nonzero;"/>
            <path d="M59.991,155.059c1.117,0 1.823,-0.635 1.823,-1.631c0,-1.129 -0.91,-1.513 -1.607,-1.813c-0.624,-0.264 -1.177,-0.492 -1.177,-1.116c0,-0.516 0.361,-0.936 0.949,-0.936c0.589,0 0.973,0.408 0.973,0.936l0,0.096c0,0.06 0.048,0.096 0.12,0.096l0.551,0c0.072,0 0.119,-0.048 0.119,-0.12l0,-0.036c0,-0.996 -0.67,-1.667 -1.775,-1.667c-1.056,0 -1.751,0.623 -1.751,1.655c0,1.14 0.851,1.5 1.523,1.776c0.613,0.264 1.225,0.493 1.225,1.165c0,0.54 -0.372,0.936 -0.961,0.936c-0.612,0 -1.021,-0.408 -1.021,-0.912l0,-0.096c0,-0.06 -0.047,-0.096 -0.119,-0.096l-0.575,0c-0.072,0 -0.12,0.048 -0.12,0.12l0,0.084c0,0.936 0.707,1.559 1.823,1.559Z" style="fill:white;fill-rule:nonzero;"/>
            <path d="M64.179,155.059c1.117,0 1.823,-0.635 1.823,-1.631c0,-1.129 -0.91,-1.513 -1.607,-1.813c-0.624,-0.264 -1.177,-0.492 -1.177,-1.116c0,-0.516 0.361,-0.936 0.949,-0.936c0.589,0 0.973,0.408 0.973,0.936l0,0.096c0,0.06 0.048,0.096 0.12,0.096l0.551,0c0.072,0 0.119,-0.048 0.119,-0.12l0,-0.036c0,-0.996 -0.67,-1.667 -1.775,-1.667c-1.056,0 -1.751,0.623 -1.751,1.655c0,1.14 0.851,1.5 1.523,1.776c0.613,0.264 1.225,0.493 1.225,1.165c0,0.54 -0.372,0.936 -0.961,0.936c-0.612,0 -1.021,-0.408 -1.021,-0.912l0,-0.096c0,-0.06 -0.047,-0.096 -0.119,-0.096l-0.575,0c-0.072,0 -0.12,0.048 -0.12,0.12l0,0.084c0,0.936 0.707,1.559 1.823,1.559Z" style="fill:white;fill-rule:nonzero;"/>
            <path d="M17.537,200l-4.018,0c-0.072,0 -0.12,0.048 -0.12,0.12l0,0.503c0,0.072 0.048,0.119 0.12,0.119l1.488,0c0.024,0 0.048,0.025 0.048,0.049l0,7.488c0,0.072 0.048,0.12 0.12,0.12l0.61,0c0.072,0 0.12,-0.048 0.12,-0.12l0,-7.488c0,-0.024 0.024,-0.049 0.048,-0.049l1.584,0c0.072,0 0.12,-0.047 0.12,-0.119l0,-0.503c0,-0.072 -0.048,-0.12 -0.12,-0.12Z" style="fill:white;fill-rule:nonzero;"/>
            <path d="M18.24,210.798l0.06,0c1.187,0 1.511,-0.335 1.919,-1.87l1.667,-6.456c0.024,-0.072 -0.012,-0.132 -0.096,-0.132l-0.671,-0.012c-0.072,0 -0.12,0.036 -0.132,0.108l-1.044,4.716c-0.012,0.048 -0.036,0.048 -0.048,0l-1.055,-4.716c-0.012,-0.072 -0.06,-0.108 -0.132,-0.108l-0.648,0c-0.084,0 -0.132,0.048 -0.108,0.132l1.523,5.904c0,0.024 0.012,0.048 0,0.072c-0.252,1.344 -0.467,1.632 -1.187,1.632l-0.06,0c-0.036,0 -0.06,0.048 -0.06,0.12l0,0.491c0,0.072 0.036,0.119 0.072,0.119Z" style="fill:white;fill-rule:nonzero;"/>
            <path d="M26.633,204.066c-0.048,-1.068 -0.659,-1.834 -1.619,-1.834c-0.492,0 -0.913,0.204 -1.189,0.587c-0.036,0.036 -0.06,0.012 -0.06,-0.024l0,-0.347c0,-0.072 -0.048,-0.12 -0.119,-0.12l-0.611,0c-0.072,0 -0.12,0.048 -0.12,0.12l0,8.158c0,0.072 0.048,0.12 0.12,0.12l0.611,0c0.071,0 0.119,-0.048 0.119,-0.12l0,-2.663c0,-0.036 0.024,-0.06 0.06,-0.024c0.276,0.384 0.697,0.576 1.189,0.576c0.972,0 1.583,-0.744 1.619,-1.8c0.012,-0.444 0.012,-0.852 0.012,-1.296c0,-0.444 0,-0.888 -0.012,-1.331l0,-0.001Zm-1.871,3.684c-0.576,0 -0.997,-0.48 -0.997,-1.2l0,-2.376c0,-0.72 0.421,-1.2 0.997,-1.2c0.624,0 1.045,0.492 1.033,1.2l0,1.188c0,0.312 0.012,0.768 0,1.188c0.012,0.72 -0.421,1.2 -1.033,1.2Z" style="fill:white;fill-rule:nonzero;"/>
            <path d="M31.601,205.567l0,-1.5c0,-1.08 -0.718,-1.835 -1.883,-1.835c-1.141,0 -1.871,0.755 -1.871,1.835l0,2.592c0,1.105 0.73,1.835 1.871,1.835c1.057,0 1.716,-0.598 1.847,-1.535c0.012,-0.072 -0.036,-0.132 -0.107,-0.132l-0.599,-0.024c-0.072,0 -0.108,0.036 -0.132,0.108c-0.108,0.493 -0.481,0.841 -1.009,0.841c-0.6,0 -1.021,-0.468 -1.021,-1.141l0,-0.876c0,-0.024 0.024,-0.049 0.048,-0.049l2.736,0c0.072,0 0.12,-0.047 0.12,-0.119Zm-1.883,-2.593c0.624,0 1.045,0.469 1.045,1.153l0,0.805c0,0.024 -0.024,0.048 -0.048,0.048l-1.97,0c-0.024,0 -0.048,-0.024 -0.048,-0.048l0,-0.805c0,-0.684 0.421,-1.153 1.021,-1.153Z" style="fill:white;fill-rule:nonzero;"/>
            <path d="M52.129,208.399l1.847,0c1.237,0 2.027,-0.863 2.027,-2.231l0,-3.937c0,-1.368 -0.79,-2.231 -2.027,-2.231l-1.847,0c-0.072,0 -0.12,0.048 -0.12,0.12l0,8.159c0,0.072 0.048,0.12 0.12,0.12Zm0.73,-0.791l0,-6.817c0,-0.024 0.024,-0.048 0.048,-0.048l1.057,0c0.732,0 1.177,0.588 1.177,1.524l0,3.865c-0.012,0.936 -0.469,1.512 -1.177,1.512l-1.057,0.012c-0.024,0 -0.048,-0.024 -0.048,-0.048Z" style="fill:white;fill-rule:nonzero;"/>
            <path d="M59.508,202.268c-0.576,0 -0.936,0.372 -1.14,0.912c-0.024,0.036 -0.06,0.036 -0.06,-0.012l0,-0.72c0,-0.072 -0.048,-0.12 -0.12,-0.12l-0.612,0c-0.072,0 -0.12,0.048 -0.12,0.12l0,5.831c0,0.072 0.048,0.12 0.12,0.12l0.612,0c0.072,0 0.12,-0.048 0.12,-0.12l0,-3.599c0,-0.816 0.408,-1.452 0.984,-1.488c0.192,-0.036 0.372,-0.012 0.504,0.048c0.084,0.024 0.144,0.012 0.156,-0.072l0.132,-0.612c0.012,-0.06 0,-0.12 -0.06,-0.156c-0.12,-0.072 -0.276,-0.132 -0.516,-0.132Z" style="fill:white;fill-rule:nonzero;"/>
            <path d="M60.93,210.799l0.06,0c1.187,0 1.511,-0.336 1.919,-1.871l1.667,-6.456c0.024,-0.072 -0.012,-0.132 -0.096,-0.132l-0.671,-0.012c-0.072,0 -0.12,0.036 -0.132,0.108l-1.044,4.716c-0.012,0.048 -0.036,0.048 -0.048,0l-1.055,-4.716c-0.012,-0.072 -0.06,-0.108 -0.132,-0.108l-0.648,0c-0.084,0 -0.132,0.048 -0.108,0.132l1.523,5.904c0,0.024 0.012,0.048 0,0.072c-0.252,1.344 -0.467,1.632 -1.187,1.632l-0.06,0c-0.036,0 -0.06,0.048 -0.06,0.12l0,0.491c0,0.072 0.036,0.12 0.072,0.12Z" style="fill:white;fill-rule:nonzero;"/>
            <path d="M65.058,208.399l0.6,0c0.072,0 0.12,-0.048 0.132,-0.108l2.172,-8.159c0.024,-0.084 -0.024,-0.132 -0.108,-0.132l-0.6,0c-0.072,0 -0.12,0.048 -0.132,0.108l-2.172,8.159c-0.024,0.084 0.024,0.132 0.108,0.132Z" style="fill:white;fill-rule:nonzero;"/>
            <path d="M70.332,208.399l0.576,0c0.072,0 0.108,-0.036 0.12,-0.108l0.984,-6.335c0,-0.036 0.036,-0.036 0.048,0l1.008,6.335c0.012,0.072 0.048,0.108 0.12,0.108l0.588,0c0.072,0 0.12,-0.036 0.132,-0.108l1.487,-8.159c0.012,-0.072 -0.024,-0.132 -0.108,-0.132l-0.636,0c-0.072,0 -0.108,0.036 -0.12,0.108l-1.031,6.31c-0.012,0.036 -0.036,0.036 -0.048,0l-1.02,-6.31c-0.012,-0.072 -0.048,-0.108 -0.12,-0.108l-0.552,0c-0.072,0 -0.108,0.036 -0.12,0.108l-0.972,6.31c-0.012,0.036 -0.036,0.036 -0.048,0l-1.127,-6.31c-0.012,-0.072 -0.06,-0.108 -0.132,-0.108l-0.636,0c-0.084,0 -0.12,0.06 -0.108,0.132l1.583,8.158c0.012,0.073 0.06,0.109 0.132,0.109Z" style="fill:white;fill-rule:nonzero;"/>
            <path d="M79.643,205.567l0,-1.5c0,-1.08 -0.718,-1.835 -1.883,-1.835c-1.141,0 -1.871,0.755 -1.871,1.835l0,2.592c0,1.105 0.73,1.836 1.871,1.836c1.057,0 1.716,-0.599 1.847,-1.536c0.012,-0.072 -0.036,-0.132 -0.107,-0.132l-0.599,-0.024c-0.072,0 -0.108,0.036 -0.132,0.108c-0.108,0.493 -0.481,0.841 -1.009,0.841c-0.6,0 -1.021,-0.468 -1.021,-1.141l0,-0.876c0,-0.024 0.024,-0.048 0.048,-0.048l2.736,0c0.072,0 0.12,-0.048 0.12,-0.12Zm-1.883,-2.592c0.624,0 1.045,0.468 1.045,1.152l0,0.805c0,0.024 -0.024,0.048 -0.048,0.048l-1.97,0c-0.024,0 -0.048,-0.024 -0.048,-0.048l0,-0.805c0,-0.684 0.421,-1.152 1.021,-1.152Z" style="fill:white;fill-rule:nonzero;"/>
            <path d="M82.991,202.843l0,-0.395c0,-0.072 -0.048,-0.12 -0.12,-0.12l-0.912,0c-0.024,0 -0.048,-0.024 -0.048,-0.048l0,-1.344c0,-0.072 -0.048,-0.12 -0.12,-0.12l-0.598,0c-0.072,0 -0.12,0.048 -0.12,0.12l0,1.344c0,0.024 -0.024,0.048 -0.048,0.048l-0.468,0c-0.072,0 -0.12,0.048 -0.12,0.12l0,0.395c0,0.072 0.048,0.12 0.12,0.12l0.468,0c0.024,0 0.048,0.024 0.048,0.048l0,3.925c0,1.211 0.587,1.463 1.438,1.463l0.3,0c0.072,0 0.12,-0.048 0.12,-0.12l0,-0.515c0,-0.072 -0.048,-0.12 -0.12,-0.12l-0.12,0c-0.504,0.012 -0.78,-0.192 -0.78,-0.96l0,-3.673c0,-0.024 0.024,-0.048 0.048,-0.048l0.912,0c0.072,0 0.12,-0.048 0.12,-0.12Z" style="fill:white;fill-rule:nonzero;"/>
        </g>
        <g id="components" display="none">
                <circle id="trim" cx="45" cy="65" r="10" style="fill:#ff0000;"/>
                <circle id="brightness" cx="45" cy="125" r="10" style="fill:#ff0000;"/>
                <circle id="type" cx="22.5" cy="185" r="10" style="fill:#ff0000;"/>
                <circle id="drywet" cx="67.5" cy="185" r="10" style="fill:#ff0000;"/>
                <circle id="trim_cv" cx="26.25" cy="245" r="10" style="fill:#00ff00;"/>
                <circle id="brighness_cv" cx="63.75" cy="245" r="10" style="fill:#00ff00;"/>
                <circle id="type_cv" cx="26.25" cy="285" r="10" style="fill:#00ff00;"/>
                <circle id="drywet_cv" cx="63.75" cy="285" r="10" style="fill:#00ff00;"/>
                <circle id="in" cx="26.25" cy="325" r="10" style="fill:#00ff00;"/>
                <circle id="out" cx="63.75" cy="325" r="10" style="fill:#0000ff;"/>
        </g>
    </g>
</svg>
