<?xml version="1.0" encoding="UTF-8" standalone="no"?>
<!DOCTYPE svg PUBLIC "-//W3C//DTD SVG 1.1//EN" "http://www.w3.org/Graphics/SVG/1.1/DTD/svg11.dtd">
<svg width="105px" height="380px" version="1.1" xmlns="http://www.w3.org/2000/svg" xmlns:xlink="http://www.w3.org/1999/xlink" xml:space="preserve" xmlns:serif="http://www.serif.com/" style="fill-rule:evenodd;clip-rule:evenodd;stroke-linecap:round;stroke-miterlimit:1.5;">
    <rect id="Golem-Dark" serif:id="Golem Dark" x="0" y="0" width="105" height="379.995" style="fill:none;"/>
    <clipPath id="_clip1">
        <rect x="0" y="0" width="105" height="379.995"/>
    </clipPath>
    <g clip-path="url(#_clip1)">
        <g id="Background">
            <rect id="bright" x="0" y="0" width="105" height="379.995" style="fill:rgb(54,69,74);"/>
            <g>
                <path d="M47.677,60c1.333,-1.667 2.666,-3.333 4,-5" style="fill:none;stroke:white;stroke-width:0.6px;"/>
                <circle cx="49.677" cy="57.5" r="2" style="fill:none;stroke:white;stroke-width:0.6px;stroke-linecap:square;"/>
            </g>
            <g>
                <path d="M47.793,105c1.333,-1.667 2.666,-3.333 4,-5" style="fill:none;stroke:white;stroke-width:0.6px;"/>
                <circle cx="49.793" cy="102.5" r="2" style="fill:none;stroke:white;stroke-width:0.6px;stroke-linecap:square;"/>
            </g>
            <g id="knobBgMediumThree">
                <path d="M28.661,270.247c5.474,-5.466 5.474,-14.328 0,-19.795c-5.47,-5.462 -14.352,-5.462 -19.822,0c-5.474,5.467 -5.474,14.329 0,19.795l9.911,-9.897l9.911,9.897Z" style="fill:none;stroke:rgb(128,128,128);stroke-width:0.7px;stroke-linecap:butt;"/>
            </g>
            <g>
                <path d="M10.377,272.506l2.06,0c0.054,0 0.09,-0.036 0.09,-0.09l0,-0.377c0,-0.054 -0.036,-0.09 -0.09,-0.09l-2.06,0c-0.054,0 -0.09,0.036 -0.09,0.09l0,0.377c0,0.054 0.036,0.09 0.09,0.09Z" style="fill:rgb(128,128,128);fill-rule:nonzero;"/>
                <path d="M27.046,271.702l-1.323,0c-0.018,0 -0.036,-0.018 -0.036,-0.036l0,-1.323c0,-0.054 -0.036,-0.09 -0.09,-0.09l-0.323,0c-0.054,0 -0.09,0.036 -0.09,0.09l0,1.323c0,0.018 -0.018,0.036 -0.036,0.036l-1.323,0c-0.054,0 -0.09,0.036 -0.09,0.09l0,0.314c0,0.054 0.036,0.09 0.09,0.09l1.323,0c0.018,0 0.036,0.018 0.036,0.036l0,1.323c0,0.054 0.036,0.09 0.09,0.09l0.323,0c0.054,0 0.09,-0.036 0.09,-0.09l0,-1.323c0,-0.018 0.018,-0.036 0.036,-0.036l1.323,0c0.054,0 0.09,-0.036 0.09,-0.09l0,-0.314c0,-0.054 -0.036,-0.09 -0.09,-0.09Z" style="fill:rgb(128,128,128);fill-rule:nonzero;"/>
            </g>
            <g id="knobBgMediumThree1" serif:id="knobBgMediumThree">
                <path d="M96.161,200.245c5.474,-5.466 5.474,-14.329 0,-19.795c-5.47,-5.463 -14.352,-5.463 -19.822,0c-5.474,5.466 -5.474,14.329 0,19.795l9.911,-9.898l9.911,9.898Z" style="fill:none;stroke:rgb(128,128,128);stroke-width:0.7px;stroke-linecap:butt;"/>
            </g>
            <g>
                <path d="M77.877,202.503l2.06,0c0.054,0 0.09,-0.036 0.09,-0.09l0,-0.377c0,-0.054 -0.036,-0.09 -0.09,-0.09l-2.06,0c-0.054,0 -0.09,0.036 -0.09,0.09l0,0.377c0,0.054 0.036,0.09 0.09,0.09Z" style="fill:rgb(128,128,128);fill-rule:nonzero;"/>
                <path d="M94.546,201.699l-1.323,0c-0.018,0 -0.036,-0.018 -0.036,-0.036l0,-1.323c0,-0.054 -0.036,-0.09 -0.09,-0.09l-0.323,0c-0.054,0 -0.09,0.036 -0.09,0.09l0,1.323c0,0.018 -0.018,0.036 -0.036,0.036l-1.323,0c-0.054,0 -0.09,0.036 -0.09,0.09l0,0.314c0,0.054 0.036,0.09 0.09,0.09l1.323,0c0.018,0 0.036,0.018 0.036,0.036l0,1.323c0,0.054 0.036,0.09 0.09,0.09l0.323,0c0.054,0 0.09,-0.036 0.09,-0.09l0,-1.323c0,-0.018 0.018,-0.036 0.036,-0.036l1.323,0c0.054,0 0.09,-0.036 0.09,-0.09l0,-0.314c0,-0.054 -0.036,-0.09 -0.09,-0.09Z" style="fill:rgb(128,128,128);fill-rule:nonzero;"/>
            </g>
            <path d="M42.75,255.095c1.237,0 2.087,-0.838 2.087,-2.099l0,-4.392c0,-1.261 -0.85,-2.099 -2.087,-2.099c-1.225,0 -2.063,0.838 -2.063,2.099l0,4.392c0,1.261 0.838,2.099 2.063,2.099Zm0,-0.742c-0.72,0 -1.213,-0.54 -1.213,-1.309l0,-4.476c0,-0.781 0.493,-1.321 1.213,-1.321c0.732,0 1.237,0.54 1.237,1.321l0,4.476c0,0.769 -0.505,1.309 -1.237,1.309Z" style="fill:white;fill-rule:nonzero;"/>
            <path d="M48.161,247.247l0.144,0c0.072,0 0.12,-0.036 0.12,-0.12l0.012,-0.49c0,-0.072 -0.048,-0.12 -0.12,-0.12l-0.168,0c-1.211,0 -1.666,0.61 -1.666,1.979l0,0.385c0,0.024 -0.024,0.048 -0.048,0.048l-0.48,0c-0.072,0 -0.12,0.048 -0.12,0.119l0,0.396c0,0.071 0.048,0.119 0.12,0.119l0.48,0c0.024,0 0.048,0.024 0.048,0.048l0,5.268c0,0.072 0.048,0.12 0.12,0.12l0.598,0c0.072,0 0.12,-0.048 0.12,-0.12l0,-5.268c0,-0.024 0.024,-0.048 0.048,-0.048l0.924,0c0.072,0 0.12,-0.048 0.12,-0.119l0,-0.396c0,-0.071 -0.048,-0.119 -0.12,-0.119l-0.924,0c-0.024,0 -0.048,-0.024 -0.048,-0.048l0,-0.373c0,-0.828 0.204,-1.261 0.84,-1.261Z" style="fill:white;fill-rule:nonzero;"/>
            <path d="M51.473,247.247l0.144,0c0.072,0 0.12,-0.036 0.12,-0.12l0.012,-0.49c0,-0.072 -0.048,-0.12 -0.12,-0.12l-0.168,0c-1.211,0 -1.666,0.61 -1.666,1.979l0,0.385c0,0.024 -0.024,0.048 -0.048,0.048l-0.48,0c-0.072,0 -0.12,0.048 -0.12,0.119l0,0.396c0,0.071 0.048,0.119 0.12,0.119l0.48,0c0.024,0 0.048,0.024 0.048,0.048l0,5.268c0,0.072 0.048,0.12 0.12,0.12l0.598,0c0.072,0 0.12,-0.048 0.12,-0.12l0,-5.268c0,-0.024 0.024,-0.048 0.048,-0.048l0.924,0c0.072,0 0.12,-0.048 0.12,-0.119l0,-0.396c0,-0.071 -0.048,-0.119 -0.12,-0.119l-0.924,0c-0.024,0 -0.048,-0.024 -0.048,-0.048l0,-0.373c0,-0.828 0.204,-1.261 0.84,-1.261Z" style="fill:white;fill-rule:nonzero;"/>
            <path d="M54.438,255.059c1.116,0 1.823,-0.634 1.823,-1.631c0,-1.128 -0.91,-1.512 -1.607,-1.812c-0.624,-0.264 -1.177,-0.492 -1.177,-1.116c0,-0.517 0.361,-0.937 0.949,-0.937c0.588,0 0.973,0.408 0.973,0.937l0,0.096c0,0.06 0.048,0.096 0.12,0.096l0.55,0c0.072,0 0.12,-0.048 0.12,-0.12l0,-0.036c0,-0.997 -0.67,-1.667 -1.775,-1.667c-1.057,0 -1.751,0.622 -1.751,1.655c0,1.14 0.85,1.5 1.523,1.776c0.612,0.264 1.225,0.492 1.225,1.164c0,0.541 -0.373,0.937 -0.961,0.937c-0.612,0 -1.021,-0.408 -1.021,-0.913l0,-0.096c0,-0.06 -0.048,-0.096 -0.12,-0.096l-0.574,0c-0.072,0 -0.12,0.048 -0.12,0.12l0,0.084c0,0.937 0.706,1.559 1.823,1.559Z" style="fill:white;fill-rule:nonzero;"/>
            <path d="M60.965,252.168l0,-1.5c0,-1.081 -0.718,-1.835 -1.883,-1.835c-1.141,0 -1.871,0.754 -1.871,1.835l0,2.592c0,1.105 0.73,1.835 1.871,1.835c1.057,0 1.716,-0.599 1.847,-1.535c0.012,-0.072 -0.036,-0.132 -0.107,-0.132l-0.599,-0.024c-0.072,0 -0.108,0.036 -0.132,0.108c-0.108,0.492 -0.481,0.841 -1.009,0.841c-0.6,0 -1.021,-0.469 -1.021,-1.141l0,-0.877c0,-0.024 0.024,-0.048 0.048,-0.048l2.736,0c0.072,0 0.12,-0.048 0.12,-0.119Zm-1.883,-2.593c0.624,0 1.045,0.469 1.045,1.153l0,0.805c0,0.024 -0.024,0.048 -0.048,0.048l-1.97,0c-0.024,0 -0.048,-0.024 -0.048,-0.048l0,-0.805c0,-0.684 0.421,-1.153 1.021,-1.153Z" style="fill:white;fill-rule:nonzero;"/>
            <path d="M64.313,249.444l0,-0.396c0,-0.071 -0.048,-0.119 -0.12,-0.119l-0.912,0c-0.024,0 -0.048,-0.024 -0.048,-0.048l0,-1.344c0,-0.072 -0.048,-0.12 -0.12,-0.12l-0.598,0c-0.072,0 -0.12,0.048 -0.12,0.12l0,1.344c0,0.024 -0.024,0.048 -0.048,0.048l-0.468,0c-0.072,0 -0.12,0.048 -0.12,0.119l0,0.396c0,0.071 0.048,0.119 0.12,0.119l0.468,0c0.024,0 0.048,0.024 0.048,0.048l0,3.926c0,1.211 0.587,1.462 1.438,1.462l0.3,0c0.072,0 0.12,-0.048 0.12,-0.12l0,-0.514c0,-0.072 -0.048,-0.12 -0.12,-0.12l-0.12,0c-0.504,0.012 -0.78,-0.192 -0.78,-0.961l0,-3.673c0,-0.024 0.024,-0.048 0.048,-0.048l0.912,0c0.072,0 0.12,-0.048 0.12,-0.119Z" style="fill:white;fill-rule:nonzero;"/>
            <path d="M41.189,189.86c0,-1.008 -0.407,-1.669 -1.054,-2.04c-0.024,-0.012 -0.024,-0.036 0.012,-0.048c0.659,-0.323 0.994,-0.936 0.994,-1.836c0,-1.429 -0.85,-2.195 -2.207,-2.195l-1.727,0c-0.072,0 -0.12,0.048 -0.12,0.12l0,8.159c0,0.071 0.048,0.119 0.12,0.119l1.835,0c1.297,0 2.159,-0.814 2.147,-2.279Zm-3.204,-5.377l0.949,0c0.864,0 1.369,0.565 1.369,1.525c0,0.925 -0.505,1.465 -1.369,1.465l-0.949,0c-0.024,0 -0.048,-0.024 -0.048,-0.048l0,-2.894c0,-0.024 0.024,-0.048 0.048,-0.048Zm0.997,6.902l-0.997,0c-0.024,0 -0.048,-0.024 -0.048,-0.048l0,-3.17c0,-0.024 0.024,-0.048 0.048,-0.048l0.997,0c0.852,0 1.357,0.613 1.357,1.645c0,1.033 -0.505,1.621 -1.357,1.621Z" style="fill:white;fill-rule:nonzero;"/>
            <path d="M44.106,185.973c-0.997,0 -1.764,0.623 -1.848,1.583c-0.012,0.072 0.036,0.12 0.108,0.12l0.659,0.012c0.072,0 0.12,-0.036 0.132,-0.12c0.048,-0.504 0.445,-0.853 0.925,-0.853c0.624,0 1.009,0.529 1.009,1.321l0,0.469c0,0.024 -0.024,0.048 -0.048,0.048l-0.829,0c-1.189,0 -2.135,0.527 -2.135,1.967c0,1.428 0.946,1.715 1.631,1.715c0.54,0 1.008,-0.167 1.321,-0.575c0.036,-0.035 0.06,-0.024 0.06,0.012l0,0.347c0,0.072 0.048,0.12 0.12,0.12l0.61,0c0.072,0 0.12,-0.048 0.12,-0.12l0,-4.043c0,-1.213 -0.718,-2.003 -1.835,-2.003Zm-0.216,5.52c-0.528,0 -0.937,-0.312 -0.937,-1.045c0,-0.828 0.517,-1.213 1.249,-1.213l0.841,0c0.024,0 0.048,0.024 0.048,0.048l0,1.009c0,0.805 -0.601,1.201 -1.201,1.201Z" style="fill:white;fill-rule:nonzero;"/>
            <path d="M47.323,192.139l0.61,0c0.072,0 0.12,-0.048 0.12,-0.12l0,-8.158c0,-0.072 -0.048,-0.12 -0.12,-0.12l-0.61,0c-0.072,0 -0.12,0.048 -0.12,0.12l0,8.158c0,0.072 0.048,0.12 0.12,0.12Z" style="fill:white;fill-rule:nonzero;"/>
            <path d="M51.21,185.973c-0.997,0 -1.764,0.623 -1.848,1.583c-0.012,0.072 0.036,0.12 0.108,0.12l0.659,0.012c0.072,0 0.12,-0.036 0.132,-0.12c0.048,-0.504 0.445,-0.853 0.925,-0.853c0.624,0 1.009,0.529 1.009,1.321l0,0.469c0,0.024 -0.024,0.048 -0.048,0.048l-0.829,0c-1.189,0 -2.135,0.527 -2.135,1.967c0,1.428 0.946,1.715 1.631,1.715c0.54,0 1.008,-0.167 1.321,-0.575c0.036,-0.035 0.06,-0.024 0.06,0.012l0,0.347c0,0.072 0.048,0.12 0.12,0.12l0.61,0c0.072,0 0.12,-0.048 0.12,-0.12l0,-4.043c0,-1.213 -0.718,-2.003 -1.835,-2.003Zm-0.216,5.52c-0.528,0 -0.937,-0.312 -0.937,-1.045c0,-0.828 0.517,-1.213 1.249,-1.213l0.841,0c0.024,0 0.048,0.024 0.048,0.048l0,1.009c0,0.805 -0.601,1.201 -1.201,1.201Z" style="fill:white;fill-rule:nonzero;"/>
            <path d="M56.538,185.985c-0.48,0 -0.936,0.179 -1.249,0.611c-0.024,0.035 -0.06,0.023 -0.06,-0.012l0,-0.395c0,-0.072 -0.048,-0.12 -0.12,-0.12l-0.61,0c-0.072,0 -0.12,0.048 -0.12,0.12l0,5.83c0,0.072 0.048,0.12 0.12,0.12l0.61,0c0.072,0 0.12,-0.048 0.12,-0.12l0,-3.996c0,-0.804 0.397,-1.296 1.033,-1.296c0.612,0 0.961,0.456 0.961,1.236l0,4.056c0,0.072 0.048,0.12 0.12,0.12l0.61,0c0.072,0 0.12,-0.048 0.12,-0.12l0,-4.128c0,-1.2 -0.551,-1.906 -1.535,-1.906Z" style="fill:white;fill-rule:nonzero;"/>
            <path d="M61.206,192.235c1.153,0 1.895,-0.73 1.895,-1.667l0,-0.132c0,-0.072 -0.048,-0.12 -0.12,-0.12l-0.61,-0.012c-0.072,0 -0.12,0.048 -0.12,0.12l0,0.084c0,0.517 -0.421,0.985 -1.045,0.985c-0.6,0 -1.021,-0.468 -1.021,-1.153l0,-2.472c0,-0.685 0.421,-1.153 1.021,-1.153c0.624,0 1.045,0.468 1.045,0.985l0,0.096c0,0.06 0.048,0.108 0.12,0.108l0.61,-0.024c0.072,0 0.12,-0.048 0.12,-0.12l0,-0.12c0,-0.901 -0.742,-1.667 -1.895,-1.667c-1.141,0 -1.871,0.766 -1.871,1.835l0,2.592c0,1.105 0.73,1.835 1.871,1.835Z" style="fill:white;fill-rule:nonzero;"/>
            <path d="M67.913,189.308l0,-1.5c0,-1.081 -0.718,-1.835 -1.883,-1.835c-1.141,0 -1.871,0.754 -1.871,1.835l0,2.592c0,1.105 0.73,1.835 1.871,1.835c1.057,0 1.716,-0.599 1.847,-1.535c0.012,-0.072 -0.036,-0.132 -0.107,-0.132l-0.599,-0.024c-0.072,0 -0.108,0.036 -0.132,0.108c-0.108,0.493 -0.481,0.841 -1.009,0.841c-0.6,0 -1.021,-0.469 -1.021,-1.141l0,-0.877c0,-0.024 0.024,-0.048 0.048,-0.048l2.736,0c0.072,0 0.12,-0.048 0.12,-0.119Zm-1.883,-2.593c0.624,0 1.045,0.469 1.045,1.153l0,0.805c0,0.024 -0.024,0.048 -0.048,0.048l-1.97,0c-0.024,0 -0.048,-0.024 -0.048,-0.048l0,-0.805c0,-0.684 0.421,-1.153 1.021,-1.153Z" style="fill:white;fill-rule:nonzero;"/>
            <circle cx="52.5" cy="325" r="14" style="fill:rgb(51,51,51);"/>
            <circle cx="52.5" cy="284.971" r="14" style="fill:rgb(51,51,51);"/>
            <path d="M69.5,24.6l35.5,0" style="fill:none;stroke:rgb(128,128,128);stroke-width:0.7px;stroke-linejoin:round;"/>
            <path d="M52.5,225.598c12.229,12.405 22.312,22.801 33.75,34.402" style="fill:none;stroke:rgb(128,128,128);stroke-width:0.7px;stroke-linejoin:round;"/>
            <path d="M52.5,154.944c8.728,8.853 16.302,16.536 24.465,24.816" style="fill:none;stroke:rgb(128,128,128);stroke-width:0.7px;stroke-linejoin:round;"/>
            <path d="M18.75,120.711c4.759,4.828 8.889,9.017 13.34,13.531" style="fill:none;stroke:rgb(128,128,128);stroke-width:0.7px;stroke-linejoin:round;"/>
            <path d="M86.3,120.711c-4.759,4.828 -8.889,9.017 -13.34,13.531" style="fill:none;stroke:rgb(128,128,128);stroke-width:0.7px;stroke-linejoin:round;"/>
            <path d="M51.999,225c-8.65,8.774 -16.156,16.387 -24.246,24.593" style="fill:none;stroke:rgb(128,128,128);stroke-width:0.7px;stroke-linejoin:round;"/>
            <path d="M52.5,154.987c-12.143,12.317 -22.68,23.005 -34.037,34.524" style="fill:none;stroke:rgb(128,128,128);stroke-width:0.7px;stroke-linejoin:round;"/>
            <path d="M0,24.6l35.537,0" style="fill:none;stroke:rgb(128,128,128);stroke-width:0.7px;stroke-linejoin:round;"/>
            <path d="M18.75,120.711l0,-35.711" style="fill:none;stroke:rgb(128,128,128);stroke-width:0.7px;stroke-linejoin:round;"/>
            <path d="M86.3,120.711l0,-35.711" style="fill:none;stroke:rgb(128,128,128);stroke-width:0.7px;stroke-linejoin:round;"/>
        </g>
        <g id="Lables">
            <g id="Branding">
                <path d="M34.855,362.45l0.545,0c0.049,0 0.07,-0.028 0.056,-0.077l-0.72,-2.163c-0.007,-0.021 0,-0.028 0.014,-0.042c0.419,-0.182 0.685,-0.637 0.685,-1.232c0,-0.826 -0.482,-1.393 -1.204,-1.393l-1.252,0c-0.042,0 -0.07,0.028 -0.07,0.07l0,4.767c0,0.042 0.028,0.07 0.07,0.07l0.531,0c0.042,0 0.07,-0.028 0.07,-0.07l0,-2.079c0,-0.014 0.014,-0.028 0.028,-0.028l0.483,0c0.014,0 0.021,0 0.028,0.021l0.652,2.1c0.014,0.035 0.049,0.056 0.084,0.056Zm-1.247,-4.326l0.518,0c0.379,0 0.638,0.315 0.638,0.819c0,0.49 -0.259,0.805 -0.638,0.805l-0.518,0c-0.014,0 -0.028,-0.014 -0.028,-0.028l0,-1.568c0,-0.014 0.014,-0.028 0.028,-0.028Z" style="fill:rgb(199,206,201);fill-rule:nonzero;"/>
                <path d="M38.543,362.45l0.546,0c0.049,0 0.07,-0.035 0.063,-0.077l-1.057,-4.76c-0.007,-0.042 -0.035,-0.063 -0.077,-0.063l-0.615,0c-0.042,0 -0.07,0.021 -0.077,0.063l-1.043,4.76c-0.007,0.042 0.014,0.077 0.063,0.077l0.532,0c0.042,0 0.07,-0.021 0.077,-0.063l0.161,-0.805c0,-0.014 0.021,-0.028 0.035,-0.028l1.126,0c0.014,0 0.035,0.014 0.035,0.028l0.154,0.805c0.007,0.042 0.035,0.063 0.077,0.063Zm-1.308,-1.456l0.475,-2.394c0.007,-0.028 0.021,-0.028 0.028,0l0.462,2.394c0,0.014 -0.007,0.028 -0.021,0.028l-0.923,0c-0.014,0 -0.021,-0.014 -0.021,-0.028Z" style="fill:rgb(199,206,201);fill-rule:nonzero;"/>
                <path d="M41.217,362.506c0.764,0 1.267,-0.497 1.267,-1.267l0,-0.105c0,-0.042 -0.028,-0.07 -0.07,-0.07l-0.531,-0.028c-0.042,0 -0.07,0.028 -0.07,0.07l0,0.182c0,0.378 -0.238,0.637 -0.596,0.637c-0.357,0 -0.588,-0.259 -0.588,-0.637l0,-2.576c0,-0.385 0.231,-0.637 0.588,-0.637c0.358,0 0.596,0.252 0.596,0.637l0,0.182c0,0.042 0.028,0.07 0.07,0.07l0.531,-0.028c0.042,0 0.07,-0.028 0.07,-0.07l0,-0.112c0,-0.77 -0.503,-1.26 -1.267,-1.26c-0.756,0 -1.259,0.49 -1.259,1.26l0,2.485c0,0.77 0.503,1.267 1.259,1.267Z" style="fill:rgb(199,206,201);fill-rule:nonzero;"/>
                <path d="M43.64,362.45l0.531,0c0.042,0 0.07,-0.028 0.07,-0.07l0,-1.575c0,-0.014 0,-0.028 0.007,-0.035l0.357,-0.567c0.014,-0.014 0.028,-0.014 0.035,0.007l0.91,2.184c0.014,0.042 0.042,0.056 0.077,0.056l0.581,0c0.049,0 0.077,-0.035 0.056,-0.084l-1.169,-2.744c-0.007,-0.014 -0.007,-0.028 0,-0.042l1.078,-1.946c0.028,-0.049 0.007,-0.084 -0.049,-0.084l-0.574,0c-0.035,0 -0.063,0.021 -0.084,0.049l-1.19,2.128c-0.014,0.028 -0.035,0.021 -0.035,-0.007l0,-2.1c0,-0.042 -0.028,-0.07 -0.07,-0.07l-0.531,0c-0.042,0 -0.07,0.028 -0.07,0.07l0,4.76c0,0.042 0.028,0.07 0.07,0.07Z" style="fill:rgb(199,206,201);fill-rule:nonzero;"/>
                <path d="M47.938,362.45l0.497,0c0.042,0 0.063,-0.014 0.07,-0.063l0.503,-3.311c0,-0.021 0.021,-0.021 0.028,0l0.532,3.311c0.007,0.042 0.028,0.063 0.07,0.063l0.497,0c0.042,0 0.07,-0.021 0.077,-0.063l0.882,-4.76c0.007,-0.042 -0.014,-0.077 -0.063,-0.077l-0.546,0c-0.042,0 -0.063,0.021 -0.07,0.063l-0.518,3.283c-0.007,0.021 -0.021,0.021 -0.028,0l-0.539,-3.283c-0.007,-0.042 -0.028,-0.063 -0.07,-0.063l-0.469,0c-0.042,0 -0.063,0.014 -0.07,0.063l-0.503,3.283c-0.007,0.021 -0.021,0.021 -0.028,0l-0.567,-3.283c-0.007,-0.042 -0.035,-0.063 -0.077,-0.063l-0.553,0c-0.049,0 -0.07,0.035 -0.063,0.077l0.931,4.76c0.007,0.042 0.035,0.063 0.077,0.063Z" style="fill:rgb(199,206,201);fill-rule:nonzero;"/>
                <path d="M52.124,362.45l0.531,0c0.042,0 0.07,-0.028 0.07,-0.07l0,-4.76c0,-0.042 -0.028,-0.07 -0.07,-0.07l-0.531,0c-0.042,0 -0.07,0.028 -0.07,0.07l0,4.76c0,0.042 0.028,0.07 0.07,0.07Z" style="fill:rgb(199,206,201);fill-rule:nonzero;"/>
                <path d="M54.02,362.45l0.525,0c0.042,0 0.07,-0.028 0.07,-0.07l-0.007,-3.073c0,-0.028 0.028,-0.028 0.035,0l1.246,3.087c0.014,0.042 0.042,0.056 0.077,0.056l0.546,0c0.042,0 0.07,-0.028 0.07,-0.07l0,-4.76c0,-0.042 -0.028,-0.07 -0.07,-0.07l-0.525,0c-0.042,0 -0.07,0.028 -0.07,0.07l0,3.066c0,0.028 -0.028,0.035 -0.035,0.007l-1.246,-3.087c-0.014,-0.042 -0.042,-0.056 -0.077,-0.056l-0.539,0c-0.042,0 -0.07,0.028 -0.07,0.07l0,4.76c0,0.042 0.028,0.07 0.07,0.07Z" style="fill:rgb(199,206,201);fill-rule:nonzero;"/>
                <path d="M57.871,362.45l1.147,0c0.771,0 1.267,-0.511 1.267,-1.323l0,-2.254c0,-0.812 -0.496,-1.323 -1.267,-1.323l-1.147,0c-0.042,0 -0.07,0.028 -0.07,0.07l0,4.76c0,0.042 0.028,0.07 0.07,0.07Zm0.601,-0.609l0,-3.682c0,-0.014 0.014,-0.028 0.028,-0.028l0.511,0c0.365,0 0.596,0.301 0.596,0.777l0,2.184c-0.007,0.476 -0.238,0.77 -0.596,0.77l-0.511,0.007c-0.014,0 -0.028,-0.014 -0.028,-0.028Z" style="fill:rgb(199,206,201);fill-rule:nonzero;"/>
                <path d="M62.609,362.506c0.771,0 1.288,-0.504 1.288,-1.281l0,-2.443c0,-0.777 -0.517,-1.288 -1.288,-1.288c-0.763,0 -1.273,0.511 -1.273,1.288l0,2.443c0,0.777 0.51,1.281 1.273,1.281Zm0,-0.581c-0.364,0 -0.602,-0.273 -0.602,-0.672l0,-2.506c0,-0.399 0.238,-0.672 0.602,-0.672c0.372,0 0.617,0.273 0.617,0.672l0,2.506c0,0.399 -0.245,0.672 -0.617,0.672Z" style="fill:rgb(199,206,201);fill-rule:nonzero;"/>
                <path d="M65.69,362.45l0.497,0c0.042,0 0.063,-0.014 0.07,-0.063l0.503,-3.311c0,-0.021 0.021,-0.021 0.028,0l0.532,3.311c0.007,0.042 0.028,0.063 0.07,0.063l0.497,0c0.042,0 0.07,-0.021 0.077,-0.063l0.882,-4.76c0.007,-0.042 -0.014,-0.077 -0.063,-0.077l-0.546,0c-0.042,0 -0.063,0.021 -0.07,0.063l-0.518,3.283c-0.007,0.021 -0.021,0.021 -0.028,0l-0.539,-3.283c-0.007,-0.042 -0.028,-0.063 -0.07,-0.063l-0.469,0c-0.042,0 -0.063,0.014 -0.07,0.063l-0.503,3.283c-0.007,0.021 -0.021,0.021 -0.028,0l-0.567,-3.283c-0.007,-0.042 -0.035,-0.063 -0.077,-0.063l-0.553,0c-0.049,0 -0.07,0.035 -0.063,0.077l0.931,4.76c0.007,0.042 0.035,0.063 0.077,0.063Z" style="fill:rgb(199,206,201);fill-rule:nonzero;"/>
                <path d="M70.841,362.506c0.729,0 1.246,-0.504 1.246,-1.295c0,-0.672 -0.371,-0.966 -1.084,-1.498c-0.54,-0.399 -0.743,-0.588 -0.743,-0.987c0,-0.42 0.231,-0.651 0.546,-0.651c0.344,0 0.582,0.28 0.582,0.7l0,0.189c0,0.042 0.028,0.07 0.07,0.07l0.517,0c0.042,0 0.07,-0.028 0.07,-0.07l0,-0.175c0,-0.777 -0.489,-1.295 -1.239,-1.295c-0.707,0 -1.21,0.469 -1.21,1.232c0,0.763 0.503,1.134 1.042,1.533c0.505,0.371 0.785,0.567 0.785,0.994c0,0.406 -0.252,0.672 -0.582,0.672c-0.336,0 -0.574,-0.273 -0.574,-0.707l0,-0.154c0,-0.042 -0.028,-0.07 -0.07,-0.07l-0.517,0c-0.042,0 -0.07,0.028 -0.07,0.07l0,0.189c0,0.749 0.496,1.253 1.231,1.253Z" style="fill:rgb(199,206,201);fill-rule:nonzero;"/>
                <path d="M41.088,24.991c1.356,0 2.279,-0.851 2.279,-2.172l0,-2.219c0,-0.084 -0.06,-0.144 -0.144,-0.144l-2.039,0c-0.084,0 -0.144,0.06 -0.144,0.144l0,0.875c0,0.084 0.06,0.144 0.144,0.144l0.733,0c0.036,0 0.06,0.024 0.06,0.06l0,1.152c0,0.577 -0.361,0.961 -0.889,0.961c-0.528,0 -0.877,-0.384 -0.877,-0.961l0,-4.272c0,-0.576 0.349,-0.96 0.877,-0.96c0.528,0 0.889,0.384 0.889,0.96l0,0.492c0,0.084 0.06,0.144 0.144,0.144l1.102,0c0.084,0 0.144,-0.06 0.144,-0.144l0,-0.468c0,-1.332 -0.923,-2.183 -2.279,-2.183c-1.356,0 -2.255,0.851 -2.255,2.171l0,4.248c0,1.321 0.899,2.172 2.255,2.172Z" style="fill:white;fill-rule:nonzero;"/>
                <path d="M46.728,24.991c1.38,0 2.303,-0.899 2.303,-2.279l0,-4.033c0,-1.38 -0.923,-2.279 -2.303,-2.279c-1.38,0 -2.291,0.899 -2.291,2.279l0,4.033c0,1.38 0.911,2.279 2.291,2.279Zm0,-1.199c-0.552,0 -0.901,-0.42 -0.901,-1.02l0,-4.153c0,-0.6 0.349,-1.02 0.901,-1.02c0.552,0 0.913,0.42 0.913,1.02l0,4.153c0,0.6 -0.361,1.02 -0.913,1.02Z" style="fill:white;fill-rule:nonzero;"/>
                <path d="M50.449,24.895l3.898,0c0.084,0 0.144,-0.06 0.144,-0.144l0,-0.911c0,-0.084 -0.06,-0.144 -0.144,-0.144l-2.592,0c-0.036,0 -0.06,-0.024 -0.06,-0.06l0,-6.996c0,-0.084 -0.06,-0.144 -0.144,-0.144l-1.102,0c-0.084,0 -0.144,0.06 -0.144,0.144l0,8.111c0,0.084 0.06,0.143 0.144,0.143Z" style="fill:white;fill-rule:nonzero;"/>
                <path d="M59.591,17.551l0,-0.911c0,-0.084 -0.06,-0.144 -0.144,-0.144l-3.898,0c-0.084,0 -0.144,0.06 -0.144,0.144l0,8.111c0,0.084 0.06,0.143 0.144,0.143l3.898,0c0.084,0 0.144,-0.059 0.144,-0.143l0,-0.911c0,-0.084 -0.06,-0.144 -0.144,-0.144l-2.592,0c-0.036,0 -0.06,-0.024 -0.06,-0.06l0,-2.281c0,-0.036 0.024,-0.061 0.06,-0.061l1.536,0c0.084,0 0.144,-0.059 0.144,-0.143l0,-0.923c0,-0.084 -0.06,-0.144 -0.144,-0.144l-1.536,0c-0.036,0 -0.06,-0.024 -0.06,-0.06l0,-2.269c0,-0.036 0.024,-0.061 0.06,-0.061l2.592,0c0.084,0 0.144,-0.059 0.144,-0.143Z" style="fill:white;fill-rule:nonzero;"/>
                <path d="M60.864,24.895l1.104,0c0.084,0 0.144,-0.06 0.144,-0.144l0,-5.244c0,-0.06 0.048,-0.072 0.072,-0.024l1.032,2.124c0.036,0.072 0.072,0.108 0.096,0.108c0.024,0 0.06,-0.036 0.096,-0.108l1.032,-2.1c0.024,-0.048 0.072,-0.048 0.072,0.012l0,5.232c0,0.084 0.06,0.144 0.144,0.144l1.104,0c0.084,0 0.144,-0.06 0.144,-0.144l0,-8.112c0,-0.084 -0.06,-0.144 -0.144,-0.144l-1.104,0c-0.072,0 -0.132,0.024 -0.168,0.108l-1.14,2.592c-0.024,0.048 -0.048,0.048 -0.072,0l-1.152,-2.592c-0.036,-0.084 -0.096,-0.108 -0.168,-0.108l-1.092,0c-0.084,0 -0.144,0.06 -0.144,0.144l0,8.112c0,0.084 0.06,0.144 0.144,0.144Z" style="fill:white;fill-rule:nonzero;"/>
                <path d="M43.906,35.318l2.745,0c0.054,0 0.09,-0.036 0.099,-0.09l0.045,-0.377c0.009,-0.054 -0.027,-0.09 -0.081,-0.09l-2.034,0c-0.027,0 -0.036,-0.018 -0.018,-0.045c0.539,-0.747 1.098,-1.512 1.629,-2.277c0.513,-0.721 0.782,-1.333 0.854,-1.909c0.117,-0.945 -0.35,-1.583 -1.16,-1.583c-0.82,0 -1.449,0.62 -1.584,1.538l-0.045,0.36c0,0.054 0.027,0.09 0.081,0.09l0.449,0c0.054,0 0.099,-0.036 0.099,-0.09l0.045,-0.342c0.063,-0.594 0.414,-0.999 0.856,-0.999c0.459,0 0.711,0.396 0.63,1.026c-0.054,0.441 -0.306,0.99 -0.756,1.638c-0.568,0.829 -1.188,1.666 -1.836,2.539c-0.027,0.036 -0.036,0.081 -0.045,0.117l-0.045,0.404c-0.009,0.054 0.018,0.09 0.072,0.09Z" style="fill:rgb(199,206,201);fill-rule:nonzero;"/>
                <path d="M47.659,32.798l1.997,0c0.054,0 0.09,-0.036 0.099,-0.09l0.045,-0.377c0.009,-0.054 -0.027,-0.09 -0.081,-0.09l-1.997,0c-0.045,0 -0.09,0.036 -0.099,0.09l-0.045,0.377c0,0.054 0.027,0.09 0.081,0.09Z" style="fill:rgb(199,206,201);fill-rule:nonzero;"/>
                <path d="M51.268,29.954c0.242,0 0.44,-0.198 0.476,-0.477c0.027,-0.26 -0.117,-0.458 -0.368,-0.458c-0.252,0 -0.459,0.198 -0.486,0.458c-0.036,0.279 0.126,0.477 0.378,0.477Zm-0.891,5.364l0.45,0c0.054,0 0.09,-0.036 0.099,-0.09l0.531,-4.373c0.008,-0.054 -0.018,-0.09 -0.072,-0.09l-0.45,0c-0.045,0 -0.09,0.036 -0.09,0.09l-0.54,4.373c-0.009,0.054 0.018,0.09 0.072,0.09Z" style="fill:rgb(199,206,201);fill-rule:nonzero;"/>
                <path d="M54.148,30.702c-0.351,0 -0.702,0.135 -0.954,0.458c-0.027,0.027 -0.054,0.018 -0.054,-0.009l0.045,-0.296c0,-0.054 -0.027,-0.09 -0.081,-0.09l-0.441,0c-0.054,0 -0.099,0.036 -0.099,0.09l-0.54,4.373c-0.009,0.054 0.027,0.09 0.072,0.09l0.45,0c0.054,0 0.09,-0.036 0.099,-0.09l0.369,-2.997c0.072,-0.603 0.405,-0.972 0.864,-0.972c0.45,0 0.657,0.342 0.585,0.927l-0.369,3.042c-0.009,0.054 0.027,0.09 0.072,0.09l0.45,0c0.053,0 0.089,-0.036 0.098,-0.09l0.376,-3.096c0.108,-0.9 -0.224,-1.43 -0.942,-1.43Z" style="fill:rgb(199,206,201);fill-rule:nonzero;"/>
                <path d="M55.858,32.798l1.997,0c0.054,0 0.09,-0.036 0.099,-0.09l0.045,-0.377c0.009,-0.054 -0.027,-0.09 -0.081,-0.09l-1.997,0c-0.045,0 -0.09,0.036 -0.099,0.09l-0.045,0.377c0,0.054 0.027,0.09 0.081,0.09Z" style="fill:rgb(199,206,201);fill-rule:nonzero;"/>
                <path d="M59.701,29.046l-0.819,0.467c-0.036,0.027 -0.072,0.063 -0.072,0.108l-0.045,0.324c-0.009,0.063 0.036,0.099 0.099,0.072l0.765,-0.333c0.018,-0.009 0.045,0 0.036,0.027l-0.675,5.517c-0.009,0.054 0.027,0.09 0.081,0.09l0.441,0c0.054,0 0.09,-0.036 0.099,-0.09l0.755,-6.119c0,-0.054 -0.027,-0.09 -0.081,-0.09l-0.467,0c-0.036,0 -0.072,0 -0.117,0.027Z" style="fill:rgb(199,206,201);fill-rule:nonzero;"/>
            </g>
            <path d="M46.227,347.659c0.837,0 1.403,-0.539 1.403,-1.43l0,-2.449c0,-0.9 -0.566,-1.439 -1.403,-1.439c-0.846,0 -1.403,0.539 -1.403,1.439l0,2.449c0,0.891 0.557,1.43 1.403,1.43Zm0,-0.557c-0.45,0 -0.766,-0.306 -0.766,-0.837l0,-2.512c0,-0.54 0.316,-0.846 0.766,-0.846c0.459,0 0.766,0.306 0.766,0.846l0,2.512c0,0.531 -0.307,0.837 -0.766,0.837Z" style="fill:white;fill-rule:nonzero;"/>
            <path d="M50.115,347.659c0.846,0 1.394,-0.584 1.394,-1.538l0,-3.618c0,-0.054 -0.035,-0.09 -0.089,-0.09l-0.459,0c-0.054,0 -0.089,0.036 -0.089,0.09l0,3.672c0,0.576 -0.298,0.927 -0.757,0.927c-0.45,0 -0.748,-0.351 -0.748,-0.927l0,-3.672c0,-0.054 -0.035,-0.09 -0.089,-0.09l-0.459,0c-0.054,0 -0.089,0.036 -0.089,0.09l0,3.618c0,0.954 0.557,1.538 1.385,1.538Z" style="fill:white;fill-rule:nonzero;"/>
            <path d="M55.199,342.404l-2.716,0c-0.054,0 -0.09,0.036 -0.09,0.09l0,0.386c0,0.054 0.036,0.09 0.09,0.09l0.972,0c0.018,0 0.036,0.018 0.036,0.036l0,4.5c0,0.054 0.035,0.09 0.089,0.09l0.459,0c0.054,0 0.089,-0.036 0.089,-0.09l0,-4.5c0,-0.018 0.018,-0.036 0.036,-0.036l1.035,0c0.054,0 0.09,-0.036 0.09,-0.09l0,-0.386c0,-0.054 -0.036,-0.09 -0.09,-0.09Z" style="fill:white;fill-rule:nonzero;"/>
            <path d="M58.027,345.076l2.059,0c0.054,0 0.09,-0.036 0.09,-0.09l0,-0.377c0,-0.054 -0.036,-0.09 -0.09,-0.09l-2.059,0c-0.054,0 -0.09,0.036 -0.09,0.09l0,0.377c0,0.054 0.036,0.09 0.09,0.09Z" style="fill:white;fill-rule:nonzero;"/>
            <g id="knobBgMediumThree2" serif:id="knobBgMediumThree">
                <path d="M67.556,240.817c8.592,-8.58 8.592,-22.49 0,-31.07c-8.585,-8.574 -22.527,-8.574 -31.112,0c-8.592,8.58 -8.592,22.49 0,31.07l15.556,-15.535l15.556,15.535Z" style="fill:none;stroke:rgb(128,128,128);stroke-width:0.7px;stroke-linecap:butt;"/>
            </g>
            <g id="knobBgLargeThree">
                <g>
                    <path d="M73.254,175.963c11.461,-11.44 11.461,-29.987 0,-41.426c-11.455,-11.432 -30.053,-11.432 -41.508,0c-11.461,11.439 -11.461,29.986 0,41.426l20.754,-20.713l20.754,20.713Z" style="fill:none;stroke:rgb(128,128,128);stroke-width:0.7px;stroke-linecap:butt;"/>
                </g>
            </g>
            <path d="M45.646,307.659c0.838,0 1.404,-0.539 1.404,-1.43l0,-2.449c0,-0.9 -0.566,-1.439 -1.404,-1.439c-0.846,0 -1.403,0.539 -1.403,1.439l0,2.449c0,0.891 0.557,1.43 1.403,1.43Zm0,-0.557c-0.45,0 -0.765,-0.306 -0.765,-0.837l0,-2.512c0,-0.54 0.315,-0.846 0.765,-0.846c0.46,0 0.766,0.306 0.766,0.846l0,2.512c0,0.531 -0.306,0.837 -0.766,0.837Z" style="fill:white;fill-rule:nonzero;"/>
            <path d="M49.534,307.659c0.847,0 1.395,-0.584 1.395,-1.538l0,-3.618c0,-0.054 -0.036,-0.09 -0.09,-0.09l-0.458,0c-0.054,0 -0.09,0.036 -0.09,0.09l0,3.672c0,0.576 -0.297,0.927 -0.757,0.927c-0.45,0 -0.747,-0.351 -0.747,-0.927l0,-3.672c0,-0.054 -0.036,-0.09 -0.09,-0.09l-0.458,0c-0.054,0 -0.09,0.036 -0.09,0.09l0,3.618c0,0.954 0.557,1.538 1.385,1.538Z" style="fill:white;fill-rule:nonzero;"/>
            <path d="M54.619,302.404l-2.717,0c-0.054,0 -0.09,0.036 -0.09,0.09l0,0.386c0,0.054 0.036,0.09 0.09,0.09l0.972,0c0.018,0 0.036,0.018 0.036,0.036l0,4.5c0,0.054 0.036,0.09 0.09,0.09l0.458,0c0.054,0 0.09,-0.036 0.09,-0.09l0,-4.5c0,-0.018 0.018,-0.036 0.036,-0.036l1.035,0c0.054,0 0.09,-0.036 0.09,-0.09l0,-0.386c0,-0.054 -0.036,-0.09 -0.09,-0.09Z" style="fill:white;fill-rule:nonzero;"/>
            <path d="M60.667,304.483l-1.323,0c-0.018,0 -0.036,-0.018 -0.036,-0.036l0,-1.323c0,-0.054 -0.036,-0.09 -0.09,-0.09l-0.323,0c-0.054,0 -0.09,0.036 -0.09,0.09l0,1.323c0,0.018 -0.018,0.036 -0.036,0.036l-1.323,0c-0.054,0 -0.09,0.036 -0.09,0.09l0,0.314c0,0.054 0.036,0.09 0.09,0.09l1.323,0c0.018,0 0.036,0.018 0.036,0.036l0,1.323c0,0.054 0.036,0.09 0.09,0.09l0.323,0c0.054,0 0.09,-0.036 0.09,-0.09l0,-1.323c0,-0.018 0.018,-0.036 0.036,-0.036l1.323,0c0.054,0 0.09,-0.036 0.09,-0.09l0,-0.314c0,-0.054 -0.036,-0.09 -0.09,-0.09Z" style="fill:white;fill-rule:nonzero;"/>
            <path d="M84.342,282.659c0.837,0 1.394,-0.521 1.394,-1.412l0,-0.09c0,-0.054 -0.036,-0.09 -0.09,-0.09l-0.467,-0.027c-0.054,0 -0.09,0.036 -0.09,0.09l0,0.171c0,0.504 -0.297,0.801 -0.747,0.801c-0.451,0 -0.748,-0.297 -0.748,-0.801l0,-2.602c0,-0.504 0.297,-0.792 0.748,-0.792c0.45,0 0.747,0.288 0.747,0.792l0,0.18c0,0.054 0.036,0.09 0.09,0.09l0.467,-0.027c0.054,0 0.09,-0.036 0.09,-0.09l0,-0.099c0,-0.9 -0.557,-1.412 -1.394,-1.412c-0.829,0 -1.386,0.512 -1.386,1.412l0,2.494c0,0.891 0.557,1.412 1.386,1.412Z" style="fill:white;fill-rule:nonzero;"/>
            <path d="M87.803,282.596l0.476,0c0.054,0 0.09,-0.036 0.099,-0.081l1.16,-5.013c0.018,-0.054 -0.009,-0.099 -0.072,-0.099l-0.485,0c-0.054,0 -0.09,0.027 -0.099,0.081l-0.801,3.988c-0.009,0.036 -0.027,0.036 -0.036,0l-0.827,-3.987c-0.009,-0.054 -0.045,-0.081 -0.099,-0.081l-0.503,0c-0.063,0 -0.09,0.045 -0.072,0.099l1.16,5.012c0.009,0.045 0.045,0.081 0.099,0.081Z" style="fill:white;fill-rule:nonzero;"/>
            <path d="M16.815,212.659c0.837,0 1.394,-0.521 1.394,-1.412l0,-0.09c0,-0.054 -0.036,-0.09 -0.089,-0.09l-0.468,-0.027c-0.054,0 -0.089,0.036 -0.089,0.09l0,0.171c0,0.504 -0.298,0.801 -0.748,0.801c-0.45,0 -0.748,-0.297 -0.748,-0.801l0,-2.602c0,-0.504 0.298,-0.792 0.748,-0.792c0.45,0 0.748,0.288 0.748,0.792l0,0.18c0,0.054 0.035,0.09 0.089,0.09l0.468,-0.027c0.053,0 0.089,-0.036 0.089,-0.09l0,-0.099c0,-0.9 -0.557,-1.412 -1.394,-1.412c-0.828,0 -1.385,0.512 -1.385,1.412l0,2.494c0,0.891 0.557,1.412 1.385,1.412Z" style="fill:white;fill-rule:nonzero;"/>
            <path d="M20.276,212.596l0.476,0c0.054,0 0.09,-0.036 0.099,-0.081l1.16,-5.013c0.018,-0.054 -0.009,-0.099 -0.072,-0.099l-0.485,0c-0.054,0 -0.09,0.027 -0.099,0.081l-0.8,3.988c-0.009,0.036 -0.027,0.036 -0.036,0l-0.828,-3.987c-0.009,-0.054 -0.045,-0.081 -0.099,-0.081l-0.503,0c-0.063,0 -0.09,0.045 -0.072,0.099l1.16,5.012c0.009,0.045 0.045,0.081 0.099,0.081Z" style="fill:white;fill-rule:nonzero;"/>
            <path d="M13.382,77.596l0.458,0c0.054,0 0.09,-0.036 0.09,-0.09l0,-5.004c0,-0.054 -0.036,-0.09 -0.09,-0.09l-0.458,0c-0.054,0 -0.09,0.036 -0.09,0.09l0,5.004c0,0.054 0.036,0.09 0.09,0.09Z" style="fill:white;fill-rule:nonzero;"/>
            <path d="M15.281,77.596l0.449,0c0.054,0 0.09,-0.036 0.09,-0.09l0,-3.753c0,-0.036 0.036,-0.045 0.045,-0.009l1.522,3.78c0.018,0.054 0.054,0.072 0.099,0.072l0.476,0c0.054,0 0.09,-0.036 0.09,-0.09l0,-5.004c0,-0.054 -0.036,-0.09 -0.09,-0.09l-0.449,0c-0.054,0 -0.09,0.036 -0.09,0.09l0,3.744c0,0.036 -0.036,0.045 -0.045,0.009l-1.531,-3.771c-0.018,-0.054 -0.054,-0.072 -0.099,-0.072l-0.467,0c-0.054,0 -0.09,0.036 -0.09,0.09l0,5.004c0,0.054 0.036,0.09 0.09,0.09Z" style="fill:white;fill-rule:nonzero;"/>
            <path d="M23.6,77.596l0.477,0c0.063,0 0.09,-0.036 0.072,-0.099l-1.196,-5.012c-0.009,-0.045 -0.045,-0.081 -0.099,-0.081l-0.549,0c-0.054,0 -0.09,0.036 -0.099,0.081l-1.178,5.012c-0.018,0.054 0.009,0.099 0.072,0.099l0.459,0c0.054,0 0.09,-0.027 0.099,-0.081l0.189,-0.855c0,-0.018 0.027,-0.036 0.045,-0.036l1.385,0c0.017,0 0.044,0.018 0.044,0.036l0.18,0.855c0.009,0.054 0.045,0.081 0.099,0.081Zm-1.618,-1.529l0.593,-2.71c0.009,-0.036 0.027,-0.036 0.036,0l0.585,2.71c0.009,0.018 -0.009,0.036 -0.027,0.036l-1.16,0c-0.018,0 -0.036,-0.018 -0.027,-0.036Z" style="fill:white;fill-rule:nonzero;"/>
            <path d="M56.769,60l0.477,0c0.063,0 0.09,-0.036 0.072,-0.099l-1.196,-5.012c-0.009,-0.045 -0.045,-0.081 -0.099,-0.081l-0.548,0c-0.054,0 -0.09,0.036 -0.099,0.081l-1.178,5.012c-0.018,0.054 0.009,0.099 0.072,0.099l0.458,0c0.054,0 0.09,-0.027 0.099,-0.081l0.189,-0.855c0,-0.018 0.027,-0.036 0.045,-0.036l1.385,0c0.018,0 0.045,0.018 0.045,0.036l0.18,0.855c0.009,0.054 0.044,0.081 0.098,0.081Zm-1.618,-1.529l0.593,-2.71c0.009,-0.036 0.027,-0.036 0.036,0l0.585,2.71c0.009,0.018 -0.009,0.036 -0.027,0.036l-1.16,0c-0.018,0 -0.036,-0.018 -0.027,-0.036Z" style="fill:white;fill-rule:nonzero;"/>
            <path d="M56.507,102.292c0.431,-0.189 0.655,-0.558 0.655,-1.107c0,-0.901 -0.583,-1.377 -1.502,-1.377l-1.161,0c-0.053,0 -0.089,0.036 -0.089,0.09l0,5.012c0,0.054 0.036,0.09 0.089,0.09l1.251,0c0.864,0 1.457,-0.512 1.457,-1.421c-0.009,-0.613 -0.287,-1.027 -0.709,-1.242c-0.018,-0.018 -0.018,-0.036 0.009,-0.045Zm-1.424,-1.918l0.595,0c0.54,0 0.865,0.315 0.865,0.874c0,0.549 -0.325,0.855 -0.865,0.855l-0.595,0c-0.018,0 -0.036,-0.018 -0.036,-0.036l0,-1.657c0,-0.018 0.018,-0.036 0.036,-0.036Zm0.613,4.06l-0.613,0c-0.018,0 -0.036,-0.018 -0.036,-0.036l0,-1.81c0,-0.018 0.018,-0.036 0.036,-0.036l0.622,0c0.531,0 0.856,0.36 0.856,0.955c0,0.594 -0.325,0.927 -0.865,0.927Z" style="fill:white;fill-rule:nonzero;"/>
            <path d="M81.089,77.596l0.458,0c0.054,0 0.09,-0.036 0.09,-0.09l0,-5.004c0,-0.054 -0.036,-0.09 -0.09,-0.09l-0.458,0c-0.054,0 -0.09,0.036 -0.09,0.09l0,5.004c0,0.054 0.036,0.09 0.09,0.09Z" style="fill:white;fill-rule:nonzero;"/>
            <path d="M82.988,77.596l0.449,0c0.054,0 0.09,-0.036 0.09,-0.09l0,-3.753c0,-0.036 0.036,-0.045 0.045,-0.009l1.522,3.78c0.018,0.054 0.054,0.072 0.099,0.072l0.476,0c0.054,0 0.09,-0.036 0.09,-0.09l0,-5.004c0,-0.054 -0.036,-0.09 -0.09,-0.09l-0.449,0c-0.054,0 -0.09,0.036 -0.09,0.09l0,3.744c0,0.036 -0.036,0.045 -0.045,0.009l-1.531,-3.771c-0.018,-0.054 -0.054,-0.072 -0.099,-0.072l-0.467,0c-0.054,0 -0.09,0.036 -0.09,0.09l0,5.004c0,0.054 0.036,0.09 0.09,0.09Z" style="fill:white;fill-rule:nonzero;"/>
            <path d="M91.097,74.888c0.431,-0.189 0.656,-0.558 0.656,-1.108c0,-0.9 -0.584,-1.376 -1.503,-1.376l-1.16,0c-0.054,0 -0.09,0.036 -0.09,0.09l0,5.012c0,0.054 0.036,0.09 0.09,0.09l1.25,0c0.865,0 1.458,-0.512 1.458,-1.421c-0.009,-0.613 -0.288,-1.027 -0.71,-1.243c-0.018,-0.017 -0.018,-0.035 0.009,-0.044Zm-1.423,-1.918l0.594,0c0.541,0 0.865,0.315 0.865,0.874c0,0.549 -0.324,0.855 -0.865,0.855l-0.594,0c-0.018,0 -0.036,-0.018 -0.036,-0.036l0,-1.657c0,-0.018 0.018,-0.036 0.036,-0.036Zm0.612,4.06l-0.612,0c-0.018,0 -0.036,-0.018 -0.036,-0.036l0,-1.81c0,-0.018 0.018,-0.036 0.036,-0.036l0.621,0c0.532,0 0.856,0.36 0.856,0.955c0,0.594 -0.324,0.927 -0.865,0.927Z" style="fill:white;fill-rule:nonzero;"/>
        </g>
    </g>
</svg>
