<?xml version="1.0" encoding="UTF-8" standalone="no"?>
<!DOCTYPE svg PUBLIC "-//W3C//DTD SVG 1.1//EN" "http://www.w3.org/Graphics/SVG/1.1/DTD/svg11.dtd">
<svg width="90px" height="380px" version="1.1" xmlns="http://www.w3.org/2000/svg" xmlns:xlink="http://www.w3.org/1999/xlink" xml:space="preserve" xmlns:serif="http://www.serif.com/" style="fill-rule:evenodd;clip-rule:evenodd;stroke-linecap:round;stroke-linejoin:round;stroke-miterlimit:1.5;">
    <rect id="Holt-Dark" serif:id="Holt Dark" x="0" y="0" width="90" height="380" style="fill:none;"/>
    <clipPath id="_clip1">
        <rect x="0" y="0" width="90" height="380"/>
    </clipPath>
    <g clip-path="url(#_clip1)">
        <g id="Background">
            <path id="bright" d="M90,379.995l0,-379.995l-90,0l0,379.995l90,0Z" style="fill:rgb(54,69,74);"/>
            <circle cx="63.75" cy="325" r="14" style="fill:rgb(51,51,51);"/>
            <path d="M56.755,24.6l33.245,0" style="fill:none;stroke:rgb(128,128,128);stroke-width:0.7px;"/>
            <path d="M0,24.6l31.56,0" style="fill:none;stroke:rgb(128,128,128);stroke-width:0.7px;"/>
        </g>
        <g id="Lables">
            <g id="Branding">
                <path d="M27.355,362.45l0.545,0c0.049,0 0.07,-0.028 0.056,-0.077l-0.72,-2.163c-0.007,-0.021 0,-0.028 0.014,-0.042c0.419,-0.182 0.685,-0.637 0.685,-1.232c0,-0.826 -0.482,-1.393 -1.204,-1.393l-1.252,0c-0.042,0 -0.07,0.028 -0.07,0.07l0,4.767c0,0.042 0.028,0.07 0.07,0.07l0.531,0c0.042,0 0.07,-0.028 0.07,-0.07l0,-2.079c0,-0.014 0.014,-0.028 0.028,-0.028l0.483,0c0.014,0 0.021,0 0.028,0.021l0.652,2.1c0.014,0.035 0.049,0.056 0.084,0.056Zm-1.247,-4.326l0.518,0c0.379,0 0.638,0.315 0.638,0.819c0,0.49 -0.259,0.805 -0.638,0.805l-0.518,0c-0.014,0 -0.028,-0.014 -0.028,-0.028l0,-1.568c0,-0.014 0.014,-0.028 0.028,-0.028Z" style="fill:rgb(199,206,201);fill-rule:nonzero;"/>
                <path d="M31.043,362.45l0.546,0c0.049,0 0.07,-0.035 0.063,-0.077l-1.057,-4.76c-0.007,-0.042 -0.035,-0.063 -0.077,-0.063l-0.615,0c-0.042,0 -0.07,0.021 -0.077,0.063l-1.043,4.76c-0.007,0.042 0.014,0.077 0.063,0.077l0.532,0c0.042,0 0.07,-0.021 0.077,-0.063l0.161,-0.805c0,-0.014 0.021,-0.028 0.035,-0.028l1.126,0c0.014,0 0.035,0.014 0.035,0.028l0.154,0.805c0.007,0.042 0.035,0.063 0.077,0.063Zm-1.308,-1.456l0.475,-2.394c0.007,-0.028 0.021,-0.028 0.028,0l0.462,2.394c0,0.014 -0.007,0.028 -0.021,0.028l-0.923,0c-0.014,0 -0.021,-0.014 -0.021,-0.028Z" style="fill:rgb(199,206,201);fill-rule:nonzero;"/>
                <path d="M33.717,362.506c0.764,0 1.267,-0.497 1.267,-1.267l0,-0.105c0,-0.042 -0.028,-0.07 -0.07,-0.07l-0.531,-0.028c-0.042,0 -0.07,0.028 -0.07,0.07l0,0.182c0,0.378 -0.238,0.637 -0.596,0.637c-0.357,0 -0.588,-0.259 -0.588,-0.637l0,-2.576c0,-0.385 0.231,-0.637 0.588,-0.637c0.358,0 0.596,0.252 0.596,0.637l0,0.182c0,0.042 0.028,0.07 0.07,0.07l0.531,-0.028c0.042,0 0.07,-0.028 0.07,-0.07l0,-0.112c0,-0.77 -0.503,-1.26 -1.267,-1.26c-0.756,0 -1.259,0.49 -1.259,1.26l0,2.485c0,0.77 0.503,1.267 1.259,1.267Z" style="fill:rgb(199,206,201);fill-rule:nonzero;"/>
                <path d="M36.14,362.45l0.531,0c0.042,0 0.07,-0.028 0.07,-0.07l0,-1.575c0,-0.014 0,-0.028 0.007,-0.035l0.357,-0.567c0.014,-0.014 0.028,-0.014 0.035,0.007l0.91,2.184c0.014,0.042 0.042,0.056 0.077,0.056l0.581,0c0.049,0 0.077,-0.035 0.056,-0.084l-1.169,-2.744c-0.007,-0.014 -0.007,-0.028 0,-0.042l1.078,-1.946c0.028,-0.049 0.007,-0.084 -0.049,-0.084l-0.574,0c-0.035,0 -0.063,0.021 -0.084,0.049l-1.19,2.128c-0.014,0.028 -0.035,0.021 -0.035,-0.007l0,-2.1c0,-0.042 -0.028,-0.07 -0.07,-0.07l-0.531,0c-0.042,0 -0.07,0.028 -0.07,0.07l0,4.76c0,0.042 0.028,0.07 0.07,0.07Z" style="fill:rgb(199,206,201);fill-rule:nonzero;"/>
                <path d="M40.438,362.45l0.497,0c0.042,0 0.063,-0.014 0.07,-0.063l0.503,-3.311c0,-0.021 0.021,-0.021 0.028,0l0.532,3.311c0.007,0.042 0.028,0.063 0.07,0.063l0.497,0c0.042,0 0.07,-0.021 0.077,-0.063l0.882,-4.76c0.007,-0.042 -0.014,-0.077 -0.063,-0.077l-0.546,0c-0.042,0 -0.063,0.021 -0.07,0.063l-0.518,3.283c-0.007,0.021 -0.021,0.021 -0.028,0l-0.539,-3.283c-0.007,-0.042 -0.028,-0.063 -0.07,-0.063l-0.469,0c-0.042,0 -0.063,0.014 -0.07,0.063l-0.503,3.283c-0.007,0.021 -0.021,0.021 -0.028,0l-0.567,-3.283c-0.007,-0.042 -0.035,-0.063 -0.077,-0.063l-0.553,0c-0.049,0 -0.07,0.035 -0.063,0.077l0.931,4.76c0.007,0.042 0.035,0.063 0.077,0.063Z" style="fill:rgb(199,206,201);fill-rule:nonzero;"/>
                <path d="M44.624,362.45l0.531,0c0.042,0 0.07,-0.028 0.07,-0.07l0,-4.76c0,-0.042 -0.028,-0.07 -0.07,-0.07l-0.531,0c-0.042,0 -0.07,0.028 -0.07,0.07l0,4.76c0,0.042 0.028,0.07 0.07,0.07Z" style="fill:rgb(199,206,201);fill-rule:nonzero;"/>
                <path d="M46.52,362.45l0.525,0c0.042,0 0.07,-0.028 0.07,-0.07l-0.007,-3.073c0,-0.028 0.028,-0.028 0.035,0l1.246,3.087c0.014,0.042 0.042,0.056 0.077,0.056l0.546,0c0.042,0 0.07,-0.028 0.07,-0.07l0,-4.76c0,-0.042 -0.028,-0.07 -0.07,-0.07l-0.525,0c-0.042,0 -0.07,0.028 -0.07,0.07l0,3.066c0,0.028 -0.028,0.035 -0.035,0.007l-1.246,-3.087c-0.014,-0.042 -0.042,-0.056 -0.077,-0.056l-0.539,0c-0.042,0 -0.07,0.028 -0.07,0.07l0,4.76c0,0.042 0.028,0.07 0.07,0.07Z" style="fill:rgb(199,206,201);fill-rule:nonzero;"/>
                <path d="M50.371,362.45l1.147,0c0.771,0 1.267,-0.511 1.267,-1.323l0,-2.254c0,-0.812 -0.496,-1.323 -1.267,-1.323l-1.147,0c-0.042,0 -0.07,0.028 -0.07,0.07l0,4.76c0,0.042 0.028,0.07 0.07,0.07Zm0.601,-0.609l0,-3.682c0,-0.014 0.014,-0.028 0.028,-0.028l0.511,0c0.365,0 0.596,0.301 0.596,0.777l0,2.184c-0.007,0.476 -0.238,0.77 -0.596,0.77l-0.511,0.007c-0.014,0 -0.028,-0.014 -0.028,-0.028Z" style="fill:rgb(199,206,201);fill-rule:nonzero;"/>
                <path d="M55.109,362.506c0.771,0 1.288,-0.504 1.288,-1.281l0,-2.443c0,-0.777 -0.517,-1.288 -1.288,-1.288c-0.763,0 -1.273,0.511 -1.273,1.288l0,2.443c0,0.777 0.51,1.281 1.273,1.281Zm0,-0.581c-0.364,0 -0.602,-0.273 -0.602,-0.672l0,-2.506c0,-0.399 0.238,-0.672 0.602,-0.672c0.372,0 0.617,0.273 0.617,0.672l0,2.506c0,0.399 -0.245,0.672 -0.617,0.672Z" style="fill:rgb(199,206,201);fill-rule:nonzero;"/>
                <path d="M58.19,362.45l0.497,0c0.042,0 0.063,-0.014 0.07,-0.063l0.503,-3.311c0,-0.021 0.021,-0.021 0.028,0l0.532,3.311c0.007,0.042 0.028,0.063 0.07,0.063l0.497,0c0.042,0 0.07,-0.021 0.077,-0.063l0.882,-4.76c0.007,-0.042 -0.014,-0.077 -0.063,-0.077l-0.546,0c-0.042,0 -0.063,0.021 -0.07,0.063l-0.518,3.283c-0.007,0.021 -0.021,0.021 -0.028,0l-0.539,-3.283c-0.007,-0.042 -0.028,-0.063 -0.07,-0.063l-0.469,0c-0.042,0 -0.063,0.014 -0.07,0.063l-0.503,3.283c-0.007,0.021 -0.021,0.021 -0.028,0l-0.567,-3.283c-0.007,-0.042 -0.035,-0.063 -0.077,-0.063l-0.553,0c-0.049,0 -0.07,0.035 -0.063,0.077l0.931,4.76c0.007,0.042 0.035,0.063 0.077,0.063Z" style="fill:rgb(199,206,201);fill-rule:nonzero;"/>
                <path d="M63.341,362.506c0.729,0 1.246,-0.504 1.246,-1.295c0,-0.672 -0.371,-0.966 -1.084,-1.498c-0.54,-0.399 -0.743,-0.588 -0.743,-0.987c0,-0.42 0.231,-0.651 0.546,-0.651c0.344,0 0.582,0.28 0.582,0.7l0,0.189c0,0.042 0.028,0.07 0.07,0.07l0.517,0c0.042,0 0.07,-0.028 0.07,-0.07l0,-0.175c0,-0.777 -0.489,-1.295 -1.239,-1.295c-0.707,0 -1.21,0.469 -1.21,1.232c0,0.763 0.503,1.134 1.042,1.533c0.505,0.371 0.785,0.567 0.785,0.994c0,0.406 -0.252,0.672 -0.582,0.672c-0.336,0 -0.574,-0.273 -0.574,-0.707l0,-0.154c0,-0.042 -0.028,-0.07 -0.07,-0.07l-0.517,0c-0.042,0 -0.07,0.028 -0.07,0.07l0,0.189c0,0.749 0.496,1.253 1.231,1.253Z" style="fill:rgb(199,206,201);fill-rule:nonzero;"/>
                <path d="M37.915,16.64l0,3.384c0,0.036 -0.024,0.06 -0.06,0.06l-1.526,0c-0.036,0 -0.06,-0.024 -0.06,-0.06l0,-3.384c0,-0.084 -0.06,-0.144 -0.144,-0.144l-1.102,0c-0.084,0 -0.144,0.06 -0.144,0.144l0,8.111c0,0.084 0.06,0.144 0.144,0.144l1.102,0c0.084,0 0.144,-0.06 0.144,-0.144l0,-3.396c0,-0.036 0.024,-0.061 0.06,-0.061l1.526,0c0.036,0 0.06,0.025 0.06,0.061l0,3.396c0,0.084 0.06,0.144 0.144,0.144l1.102,0c0.084,0 0.144,-0.06 0.144,-0.144l0,-8.111c0,-0.084 -0.06,-0.144 -0.144,-0.144l-1.102,0c-0.084,0 -0.144,0.06 -0.144,0.144Z" style="fill:white;fill-rule:nonzero;"/>
                <path d="M42.87,24.99c1.38,0 2.303,-0.898 2.303,-2.278l0,-4.033c0,-1.38 -0.923,-2.279 -2.303,-2.279c-1.38,0 -2.291,0.899 -2.291,2.279l0,4.033c0,1.38 0.911,2.278 2.291,2.278Zm0,-1.198c-0.552,0 -0.901,-0.42 -0.901,-1.02l0,-4.153c0,-0.6 0.349,-1.021 0.901,-1.021c0.552,0 0.913,0.421 0.913,1.021l0,4.153c0,0.6 -0.361,1.02 -0.913,1.02Z" style="fill:white;fill-rule:nonzero;"/>
                <path d="M46.591,24.894l3.898,0c0.084,0 0.144,-0.059 0.144,-0.143l0,-0.911c0,-0.084 -0.06,-0.144 -0.144,-0.144l-2.592,0c-0.036,0 -0.06,-0.024 -0.06,-0.06l0,-6.996c0,-0.084 -0.06,-0.144 -0.144,-0.144l-1.102,0c-0.084,0 -0.144,0.06 -0.144,0.144l0,8.111c0,0.084 0.06,0.143 0.144,0.143Z" style="fill:white;fill-rule:nonzero;"/>
                <path d="M55.157,16.496l-4.474,0c-0.084,0 -0.144,0.06 -0.144,0.144l0,0.911c0,0.084 0.06,0.143 0.144,0.143l1.44,0c0.036,0 0.06,0.025 0.06,0.061l0,6.996c0,0.084 0.06,0.144 0.144,0.144l1.102,0c0.084,0 0.144,-0.06 0.144,-0.144l0,-6.996c0,-0.036 0.024,-0.06 0.06,-0.06l1.524,0c0.084,0 0.144,-0.06 0.144,-0.144l0,-0.911c0,-0.084 -0.06,-0.144 -0.144,-0.144Z" style="fill:white;fill-rule:nonzero;"/>
                <path d="M28.728,29.019l-2.924,0c-0.054,0 -0.09,0.036 -0.099,0.09l-0.045,0.377c-0.009,0.054 0.027,0.09 0.081,0.09l1.08,0c0.018,0 0.036,0.018 0.027,0.036l-0.684,5.616c-0.009,0.054 0.018,0.09 0.072,0.09l0.45,0c0.045,0 0.09,-0.036 0.099,-0.09l0.684,-5.616c0,-0.018 0.027,-0.036 0.045,-0.036l1.151,0c0.045,0 0.09,-0.036 0.09,-0.09l0.054,-0.377c0,-0.054 -0.027,-0.09 -0.081,-0.09Z" style="fill:rgb(199,206,201);fill-rule:nonzero;"/>
                <path d="M31.023,30.855l-0.036,0.252c0,0.027 -0.018,0.045 -0.045,0.018c-0.161,-0.288 -0.449,-0.432 -0.809,-0.432c-0.703,0 -1.224,0.557 -1.341,1.349c-0.054,0.333 -0.09,0.639 -0.126,0.973c-0.045,0.333 -0.09,0.666 -0.117,0.999c-0.063,0.8 0.306,1.376 1.007,1.376c0.361,0 0.685,-0.153 0.919,-0.441c0.027,-0.027 0.045,-0.009 0.045,0.018l-0.036,0.261c-0.009,0.054 0.027,0.09 0.081,0.09l0.44,0c0.054,0 0.09,-0.036 0.099,-0.09l0.54,-4.373c0,-0.054 -0.027,-0.09 -0.081,-0.09l-0.441,0c-0.054,0 -0.09,0.036 -0.099,0.09Zm-1.214,3.977c-0.451,0 -0.712,-0.369 -0.64,-0.899l0.108,-0.891c0.027,-0.234 0.063,-0.577 0.108,-0.892c0.063,-0.54 0.415,-0.9 0.865,-0.9c0.414,0 0.674,0.36 0.611,0.9l-0.215,1.783c-0.072,0.539 -0.414,0.899 -0.837,0.899Z" style="fill:rgb(199,206,201);fill-rule:nonzero;"/>
                <path d="M35.262,32.042c0.072,-0.792 -0.306,-1.349 -1.007,-1.349c-0.36,0 -0.684,0.144 -0.927,0.431c-0.027,0.027 -0.036,0.009 -0.036,-0.018l0.243,-1.997c0.009,-0.054 -0.018,-0.09 -0.072,-0.09l-0.45,0c-0.045,0 -0.09,0.036 -0.099,0.09l-0.748,6.119c-0.009,0.054 0.027,0.09 0.072,0.09l0.451,0c0.054,0 0.09,-0.036 0.099,-0.09l0.027,-0.261c0.009,-0.027 0.027,-0.045 0.054,-0.018c0.162,0.288 0.45,0.441 0.81,0.441c0.693,0 1.206,-0.576 1.34,-1.377c0.054,-0.333 0.09,-0.666 0.135,-0.999c0.036,-0.333 0.081,-0.639 0.108,-0.972l0,0Zm-1.7,2.79c-0.423,0 -0.684,-0.36 -0.612,-0.9l0.216,-1.782c0.063,-0.54 0.414,-0.9 0.837,-0.9c0.441,0 0.711,0.36 0.639,0.9c-0.036,0.315 -0.081,0.657 -0.108,0.891l-0.117,0.891c-0.054,0.531 -0.405,0.9 -0.855,0.9Z" style="fill:rgb(199,206,201);fill-rule:nonzero;"/>
                <path d="M38.412,30.855l-0.369,2.997c-0.072,0.603 -0.396,0.972 -0.864,0.972c-0.441,0 -0.657,-0.297 -0.585,-0.909l0.378,-3.06c0,-0.054 -0.027,-0.09 -0.081,-0.09l-0.441,0c-0.054,0 -0.089,0.036 -0.098,0.09l-0.396,3.204c-0.108,0.918 0.315,1.322 0.98,1.322c0.378,0 0.702,-0.135 0.936,-0.467c0.018,-0.027 0.045,-0.027 0.036,0.009l-0.036,0.305c-0.009,0.054 0.027,0.09 0.081,0.09l0.441,0c0.054,0 0.09,-0.036 0.099,-0.09l0.54,-4.373c0,-0.054 -0.027,-0.09 -0.081,-0.09l-0.441,0c-0.054,0 -0.099,0.036 -0.099,0.09Z" style="fill:rgb(199,206,201);fill-rule:nonzero;"/>
                <path d="M39.583,35.318l0.441,0c0.054,0 0.09,-0.036 0.099,-0.09l0.755,-6.119c0,-0.054 -0.027,-0.09 -0.081,-0.09l-0.44,0c-0.054,0 -0.099,0.036 -0.099,0.09l-0.756,6.119c-0.009,0.054 0.027,0.09 0.081,0.09Z" style="fill:rgb(199,206,201);fill-rule:nonzero;"/>
                <path d="M43.686,30.855l-0.036,0.252c0,0.027 -0.018,0.045 -0.045,0.018c-0.161,-0.288 -0.449,-0.432 -0.809,-0.432c-0.703,0 -1.224,0.557 -1.341,1.349c-0.054,0.333 -0.09,0.639 -0.126,0.973c-0.045,0.333 -0.09,0.666 -0.117,0.999c-0.063,0.8 0.306,1.376 1.007,1.376c0.361,0 0.685,-0.153 0.919,-0.441c0.027,-0.027 0.045,-0.009 0.045,0.018l-0.036,0.261c-0.009,0.054 0.027,0.09 0.081,0.09l0.44,0c0.054,0 0.09,-0.036 0.099,-0.09l0.54,-4.373c0,-0.054 -0.027,-0.09 -0.081,-0.09l-0.441,0c-0.054,0 -0.09,0.036 -0.099,0.09Zm-1.214,3.977c-0.451,0 -0.712,-0.369 -0.64,-0.899l0.108,-0.891c0.027,-0.234 0.063,-0.577 0.108,-0.892c0.063,-0.54 0.415,-0.9 0.865,-0.9c0.414,0 0.674,0.36 0.611,0.9l-0.215,1.783c-0.072,0.539 -0.414,0.899 -0.837,0.899Z" style="fill:rgb(199,206,201);fill-rule:nonzero;"/>
                <path d="M46.872,30.72c-0.414,0 -0.711,0.279 -0.918,0.684c-0.009,0.027 -0.036,0.027 -0.036,-0.009l0.072,-0.54c0,-0.054 -0.027,-0.09 -0.081,-0.09l-0.44,0c-0.054,0 -0.099,0.036 -0.099,0.09l-0.54,4.373c-0.009,0.054 0.027,0.09 0.072,0.09l0.45,0c0.054,0 0.09,-0.036 0.099,-0.09l0.333,-2.699c0.072,-0.612 0.431,-1.089 0.845,-1.116c0.153,-0.027 0.279,-0.009 0.369,0.036c0.054,0.018 0.099,0.009 0.117,-0.054l0.153,-0.459c0.018,-0.045 0.009,-0.09 -0.027,-0.117c-0.09,-0.054 -0.198,-0.099 -0.369,-0.099Z" style="fill:rgb(199,206,201);fill-rule:nonzero;"/>
                <path d="M52.686,29.486l0.045,-0.377c0,-0.054 -0.027,-0.09 -0.081,-0.09l-2.573,0c-0.054,0 -0.09,0.036 -0.099,0.09l-0.747,6.119c-0.009,0.054 0.018,0.09 0.072,0.09l0.45,0c0.045,0 0.09,-0.036 0.099,-0.09l0.333,-2.745c0,-0.018 0.018,-0.036 0.036,-0.036l1.269,0c0.054,0 0.09,-0.036 0.099,-0.09l0.045,-0.386c0.009,-0.054 -0.018,-0.09 -0.072,-0.09l-1.269,0c-0.018,0 -0.036,-0.018 -0.027,-0.036l0.27,-2.233c0,-0.018 0.027,-0.036 0.045,-0.036l2.006,0c0.045,0 0.09,-0.036 0.099,-0.09Z" style="fill:rgb(199,206,201);fill-rule:nonzero;"/>
                <path d="M53.668,29.954c0.242,0 0.44,-0.198 0.476,-0.477c0.027,-0.26 -0.117,-0.458 -0.368,-0.458c-0.252,0 -0.459,0.198 -0.486,0.458c-0.036,0.279 0.126,0.477 0.378,0.477Zm-0.891,5.364l0.45,0c0.054,0 0.09,-0.036 0.099,-0.09l0.531,-4.373c0.008,-0.054 -0.018,-0.09 -0.072,-0.09l-0.45,0c-0.045,0 -0.09,0.036 -0.09,0.09l-0.54,4.373c-0.009,0.054 0.018,0.09 0.072,0.09Z" style="fill:rgb(199,206,201);fill-rule:nonzero;"/>
                <path d="M54.451,35.318l0.441,0c0.054,0 0.09,-0.036 0.099,-0.09l0.755,-6.119c0,-0.054 -0.027,-0.09 -0.081,-0.09l-0.44,0c-0.054,0 -0.099,0.036 -0.099,0.09l-0.756,6.119c-0.009,0.054 0.027,0.09 0.081,0.09Z" style="fill:rgb(199,206,201);fill-rule:nonzero;"/>
                <path d="M58.059,31.151l0.036,-0.296c0.009,-0.054 -0.018,-0.09 -0.072,-0.09l-0.665,0c-0.018,0 -0.027,-0.018 -0.027,-0.036l0.126,-1.008c0,-0.054 -0.027,-0.09 -0.081,-0.09l-0.433,0c-0.054,0 -0.099,0.036 -0.099,0.09l-0.126,1.008c0,0.018 -0.026,0.036 -0.044,0.036l-0.333,0c-0.054,0 -0.099,0.036 -0.099,0.09l-0.036,0.296c-0.009,0.054 0.018,0.09 0.072,0.09l0.342,0c0.018,0 0.036,0.018 0.027,0.036l-0.36,2.944c-0.108,0.908 0.297,1.097 0.917,1.097l0.216,0c0.054,0 0.09,-0.036 0.099,-0.09l0.045,-0.386c0.009,-0.054 -0.027,-0.09 -0.072,-0.09l-0.09,0c-0.369,0.009 -0.549,-0.144 -0.477,-0.72l0.333,-2.755c0.009,-0.018 0.027,-0.036 0.045,-0.036l0.657,0c0.054,0 0.099,-0.036 0.099,-0.09Z" style="fill:rgb(199,206,201);fill-rule:nonzero;"/>
                <path d="M61.227,33.194l0.135,-1.125c0.099,-0.81 -0.35,-1.376 -1.196,-1.376c-0.838,0 -1.44,0.566 -1.539,1.376l-0.234,1.944c-0.099,0.829 0.36,1.377 1.187,1.377c0.775,0 1.315,-0.449 1.486,-1.151c0.018,-0.054 -0.009,-0.1 -0.063,-0.1l-0.432,-0.018c-0.054,0 -0.081,0.027 -0.108,0.082c-0.126,0.369 -0.423,0.63 -0.81,0.63c-0.433,0 -0.703,-0.351 -0.64,-0.856l0.081,-0.657c0,-0.018 0.027,-0.036 0.045,-0.036l1.99,0c0.053,0 0.089,-0.036 0.098,-0.09Zm-1.133,-1.944c0.45,0 0.72,0.351 0.657,0.865l-0.081,0.603c0,0.018 -0.018,0.036 -0.036,0.036l-1.432,0c-0.018,0 -0.036,-0.018 -0.036,-0.036l0.081,-0.603c0.063,-0.514 0.406,-0.865 0.847,-0.865Z" style="fill:rgb(199,206,201);fill-rule:nonzero;"/>
                <path d="M63.936,30.72c-0.414,0 -0.711,0.279 -0.918,0.684c-0.009,0.027 -0.036,0.027 -0.036,-0.009l0.072,-0.54c0,-0.054 -0.027,-0.09 -0.081,-0.09l-0.44,0c-0.054,0 -0.099,0.036 -0.099,0.09l-0.54,4.373c-0.009,0.054 0.027,0.09 0.072,0.09l0.45,0c0.054,0 0.09,-0.036 0.099,-0.09l0.333,-2.699c0.072,-0.612 0.431,-1.089 0.845,-1.116c0.153,-0.027 0.279,-0.009 0.369,0.036c0.054,0.018 0.099,0.009 0.117,-0.054l0.153,-0.459c0.018,-0.045 0.009,-0.09 -0.027,-0.117c-0.09,-0.054 -0.198,-0.099 -0.369,-0.099Z" style="fill:rgb(199,206,201);fill-rule:nonzero;"/>
            </g>
            <g id="knobMediumBgThree">
                <path d="M60.555,80.888c8.592,-8.58 8.592,-22.49 0,-31.07c-8.586,-8.574 -22.527,-8.574 -31.112,0c-8.592,8.58 -8.592,22.49 0,31.07l15.556,-15.535l15.556,15.535Z" style="fill:none;stroke:rgb(128,128,128);stroke-width:0.7px;stroke-linecap:butt;stroke-linejoin:miter;"/>
            </g>
            <g id="knobMediumBgThree1" serif:id="knobMediumBgThree">
                <path d="M60.557,140.9c8.592,-8.58 8.592,-22.49 0,-31.07c-8.585,-8.573 -22.526,-8.573 -31.112,0c-8.592,8.58 -8.592,22.49 0,31.07l15.556,-15.535l15.556,15.535Z" style="fill:none;stroke:rgb(128,128,128);stroke-width:0.7px;stroke-linecap:butt;stroke-linejoin:miter;"/>
            </g>
            <g id="knobMediumBgThree2" serif:id="knobMediumBgThree">
                <path d="M60.557,200.9c8.592,-8.58 8.592,-22.49 0,-31.07c-8.585,-8.573 -22.526,-8.573 -31.112,0c-8.592,8.58 -8.592,22.49 0,31.07l15.556,-15.535l15.556,15.535Z" style="fill:none;stroke:rgb(128,128,128);stroke-width:0.7px;stroke-linecap:butt;stroke-linejoin:miter;"/>
            </g>
            <path d="M37.737,302.391l-1.341,0c-0.054,0 -0.089,0.035 -0.089,0.089l0,5.021c0,0.054 0.035,0.09 0.089,0.09l0.459,0c0.054,0 0.089,-0.036 0.089,-0.09l0,-2.169c0,-0.018 0.018,-0.036 0.036,-0.036l0.784,0c0.774,0 1.295,-0.574 1.295,-1.43c0,-0.874 -0.53,-1.475 -1.322,-1.475Zm-0.09,2.403l-0.667,0c-0.018,0 -0.036,-0.018 -0.036,-0.036l0,-1.775c0,-0.018 0.018,-0.036 0.036,-0.036l0.667,0c0.459,0 0.775,0.361 0.775,0.928c0,0.558 -0.316,0.919 -0.775,0.919Z" style="fill:white;fill-rule:nonzero;"/>
            <path d="M41.328,307.654c0.837,0 1.403,-0.538 1.403,-1.43l0,-2.448c0,-0.901 -0.566,-1.439 -1.403,-1.439c-0.846,0 -1.403,0.538 -1.403,1.439l0,2.448c0,0.892 0.557,1.43 1.403,1.43Zm0,-0.556c-0.45,0 -0.766,-0.307 -0.766,-0.838l0,-2.511c0,-0.541 0.316,-0.847 0.766,-0.847c0.459,0 0.766,0.306 0.766,0.847l0,2.511c0,0.531 -0.307,0.838 -0.766,0.838Z" style="fill:white;fill-rule:nonzero;"/>
            <path d="M43.965,307.591l2.375,0c0.054,0 0.09,-0.035 0.09,-0.089l0,-0.378c0,-0.054 -0.036,-0.089 -0.09,-0.089l-1.791,0c-0.018,0 -0.036,-0.018 -0.036,-0.036l0,-4.509c0,-0.054 -0.035,-0.09 -0.089,-0.09l-0.459,0c-0.054,0 -0.089,0.036 -0.089,0.09l0,5.012c0,0.054 0.035,0.089 0.089,0.089Z" style="fill:white;fill-rule:nonzero;"/>
            <path d="M49.805,302.876l0,-0.378c0,-0.054 -0.036,-0.089 -0.09,-0.089l-2.393,0c-0.054,0 -0.089,0.035 -0.089,0.089l0,5.004c0,0.054 0.035,0.089 0.089,0.089l2.393,0c0.054,0 0.09,-0.035 0.09,-0.089l0,-0.378c0,-0.054 -0.036,-0.089 -0.09,-0.089l-1.809,0c-0.018,0 -0.036,-0.018 -0.036,-0.036l0,-1.694c0,-0.018 0.018,-0.036 0.036,-0.036l1.116,0c0.054,0 0.09,-0.035 0.09,-0.089l0,-0.378c0,-0.054 -0.036,-0.089 -0.09,-0.089l-1.116,0c-0.018,0 -0.036,-0.018 -0.036,-0.036l0,-1.676c0,-0.018 0.018,-0.036 0.036,-0.036l1.809,0c0.054,0 0.09,-0.035 0.09,-0.089Z" style="fill:white;fill-rule:nonzero;"/>
            <path d="M52.029,307.654c0.801,0 1.376,-0.529 1.376,-1.367c0,-0.711 -0.413,-1.026 -1.223,-1.584c-0.63,-0.441 -0.883,-0.639 -0.883,-1.062c0,-0.487 0.298,-0.748 0.694,-0.748c0.441,0 0.73,0.324 0.73,0.82l0,0.126c0,0.054 0.035,0.09 0.089,0.09l0.45,0c0.054,0 0.089,-0.036 0.089,-0.09l0,-0.144c0,-0.802 -0.539,-1.358 -1.358,-1.358c-0.774,0 -1.322,0.485 -1.322,1.295c0,0.792 0.539,1.17 1.169,1.593c0.567,0.378 0.928,0.612 0.928,1.098c0,0.468 -0.316,0.784 -0.739,0.784c-0.423,0 -0.721,-0.325 -0.721,-0.838l0,-0.09c0,-0.054 -0.036,-0.09 -0.089,-0.09l-0.45,0c-0.054,0 -0.089,0.036 -0.089,0.09l0,0.153c0,0.784 0.548,1.322 1.349,1.322Z" style="fill:white;fill-rule:nonzero;"/>
            <path d="M22.235,262.88l0,-0.386c0,-0.054 -0.036,-0.09 -0.09,-0.09l-2.384,0c-0.054,0 -0.089,0.036 -0.089,0.09l0,5.012c0,0.054 0.035,0.09 0.089,0.09l0.459,0c0.054,0 0.089,-0.036 0.089,-0.09l0,-2.196c0,-0.018 0.018,-0.036 0.036,-0.036l1.116,0c0.054,0 0.09,-0.036 0.09,-0.09l0,-0.377c0,-0.054 -0.036,-0.09 -0.09,-0.09l-1.116,0c-0.018,0 -0.036,-0.018 -0.036,-0.036l0,-1.675c0,-0.018 0.018,-0.036 0.036,-0.036l1.8,0c0.054,0 0.09,-0.036 0.09,-0.09Z" style="fill:white;fill-rule:nonzero;"/>
            <path d="M25.314,267.596l0.468,0c0.062,0 0.089,-0.036 0.071,-0.099l-0.836,-2.277c-0.009,-0.027 0,-0.036 0.027,-0.045c0.495,-0.188 0.791,-0.674 0.791,-1.313c0,-0.865 -0.539,-1.467 -1.322,-1.467l-1.341,0c-0.054,0 -0.089,0.036 -0.089,0.09l0,5.021c0,0.054 0.035,0.09 0.089,0.09l0.459,0c0.054,0 0.089,-0.036 0.089,-0.09l0,-2.205c0,-0.018 0.018,-0.036 0.036,-0.036l0.631,0c0.018,0 0.027,0 0.036,0.027l0.784,2.232c0.018,0.054 0.062,0.072 0.107,0.072Zm-1.558,-4.644l0.667,0c0.459,0 0.775,0.36 0.775,0.91c0,0.549 -0.316,0.891 -0.775,0.891l-0.667,0c-0.018,0 -0.036,-0.018 -0.036,-0.036l0,-1.729c0,-0.018 0.018,-0.036 0.036,-0.036Z" style="fill:white;fill-rule:nonzero;"/>
            <path d="M29.39,262.88l0,-0.377c0,-0.054 -0.036,-0.09 -0.09,-0.09l-2.393,0c-0.054,0 -0.089,0.036 -0.089,0.09l0,5.003c0,0.054 0.035,0.09 0.089,0.09l2.393,0c0.054,0 0.09,-0.036 0.09,-0.09l0,-0.377c0,-0.054 -0.036,-0.09 -0.09,-0.09l-1.809,0c-0.018,0 -0.036,-0.018 -0.036,-0.036l0,-1.693c0,-0.018 0.018,-0.036 0.036,-0.036l1.116,0c0.054,0 0.09,-0.036 0.09,-0.09l0,-0.377c0,-0.054 -0.036,-0.09 -0.09,-0.09l-1.116,0c-0.018,0 -0.036,-0.018 -0.036,-0.036l0,-1.675c0,-0.018 0.018,-0.036 0.036,-0.036l1.809,0c0.054,0 0.09,-0.036 0.09,-0.09Z" style="fill:white;fill-rule:nonzero;"/>
            <path d="M31.659,262.341c-0.81,0 -1.358,0.548 -1.358,1.457l0,2.404c0,0.774 0.386,1.278 0.998,1.413c0.028,0.009 0.037,0.027 0.037,0.045l0,0.665c0,0.054 0.035,0.09 0.089,0.09l0.459,0c0.054,0 0.089,-0.036 0.089,-0.09l0,-0.656c0,-0.018 0.009,-0.036 0.037,-0.045c0.612,-0.135 1.007,-0.648 1.007,-1.422l0,-2.404c0,-0.909 -0.548,-1.457 -1.358,-1.457Zm0.721,3.924c0,0.531 -0.298,0.837 -0.721,0.837c-0.423,0 -0.721,-0.306 -0.721,-0.837l0,-2.521c0,-0.54 0.298,-0.837 0.721,-0.837c0.423,0 0.721,0.297 0.721,0.837l0,2.521Z" style="fill:white;fill-rule:nonzero;"/>
            <path d="M23.789,347.596l0.458,0c0.054,0 0.09,-0.036 0.09,-0.09l0,-5.004c0,-0.054 -0.036,-0.09 -0.09,-0.09l-0.458,0c-0.054,0 -0.09,0.036 -0.09,0.09l0,5.004c0,0.054 0.036,0.09 0.09,0.09Z" style="fill:white;fill-rule:nonzero;"/>
            <path d="M25.688,347.596l0.449,0c0.054,0 0.09,-0.036 0.09,-0.09l0,-3.753c0,-0.036 0.036,-0.045 0.045,-0.009l1.522,3.78c0.018,0.054 0.054,0.072 0.099,0.072l0.476,0c0.054,0 0.09,-0.036 0.09,-0.09l0,-5.004c0,-0.054 -0.036,-0.09 -0.09,-0.09l-0.449,0c-0.054,0 -0.09,0.036 -0.09,0.09l0,3.744c0,0.036 -0.036,0.045 -0.045,0.009l-1.531,-3.771c-0.018,-0.054 -0.054,-0.072 -0.099,-0.072l-0.467,0c-0.054,0 -0.09,0.036 -0.09,0.09l0,5.004c0,0.054 0.036,0.09 0.09,0.09Z" style="fill:white;fill-rule:nonzero;"/>
            <path d="M63.633,262.341c-0.81,0 -1.358,0.548 -1.358,1.457l0,2.404c0,0.774 0.386,1.278 0.998,1.413c0.028,0.009 0.037,0.027 0.037,0.045l0,0.665c0,0.054 0.035,0.09 0.089,0.09l0.459,0c0.054,0 0.089,-0.036 0.089,-0.09l0,-0.656c0,-0.018 0.009,-0.036 0.037,-0.045c0.612,-0.135 1.007,-0.648 1.007,-1.422l0,-2.404c0,-0.909 -0.548,-1.457 -1.358,-1.457Zm0.721,3.924c0,0.531 -0.298,0.837 -0.721,0.837c-0.423,0 -0.721,-0.306 -0.721,-0.837l0,-2.521c0,-0.54 0.298,-0.837 0.721,-0.837c0.423,0 0.721,0.297 0.721,0.837l0,2.521Z" style="fill:white;fill-rule:nonzero;"/>
            <path d="M59.94,347.659c0.838,0 1.404,-0.539 1.404,-1.43l0,-2.449c0,-0.9 -0.566,-1.439 -1.404,-1.439c-0.846,0 -1.403,0.539 -1.403,1.439l0,2.449c0,0.891 0.557,1.43 1.403,1.43Zm0,-0.557c-0.45,0 -0.765,-0.306 -0.765,-0.837l0,-2.512c0,-0.54 0.315,-0.846 0.765,-0.846c0.46,0 0.766,0.306 0.766,0.846l0,2.512c0,0.531 -0.306,0.837 -0.766,0.837Z" style="fill:white;fill-rule:nonzero;"/>
            <path d="M63.828,347.659c0.847,0 1.395,-0.584 1.395,-1.538l0,-3.618c0,-0.054 -0.036,-0.09 -0.09,-0.09l-0.458,0c-0.054,0 -0.09,0.036 -0.09,0.09l0,3.672c0,0.576 -0.297,0.927 -0.757,0.927c-0.45,0 -0.747,-0.351 -0.747,-0.927l0,-3.672c0,-0.054 -0.036,-0.09 -0.09,-0.09l-0.458,0c-0.054,0 -0.09,0.036 -0.09,0.09l0,3.618c0,0.954 0.557,1.538 1.385,1.538Z" style="fill:white;fill-rule:nonzero;"/>
            <path d="M68.913,342.404l-2.717,0c-0.054,0 -0.09,0.036 -0.09,0.09l0,0.386c0,0.054 0.036,0.09 0.09,0.09l0.972,0c0.018,0 0.036,0.018 0.036,0.036l0,4.5c0,0.054 0.036,0.09 0.09,0.09l0.458,0c0.054,0 0.09,-0.036 0.09,-0.09l0,-4.5c0,-0.018 0.018,-0.036 0.036,-0.036l1.035,0c0.054,0 0.09,-0.036 0.09,-0.09l0,-0.386c0,-0.054 -0.036,-0.09 -0.09,-0.09Z" style="fill:white;fill-rule:nonzero;"/>
            <path d="M28.607,87.223l0,-0.502c0,-0.072 -0.048,-0.12 -0.12,-0.12l-3.538,0c-0.072,0 -0.12,0.048 -0.12,0.12l0,8.158c0,0.072 0.048,0.12 0.12,0.12l0.61,0c0.072,0 0.12,-0.048 0.12,-0.12l0,-3.66c0,-0.024 0.024,-0.048 0.048,-0.048l1.74,0c0.072,0 0.12,-0.048 0.12,-0.12l0,-0.514c0,-0.072 -0.048,-0.12 -0.12,-0.12l-1.74,0c-0.024,0 -0.048,-0.024 -0.048,-0.048l0,-2.978c0,-0.024 0.024,-0.048 0.048,-0.048l2.76,0c0.072,0 0.12,-0.048 0.12,-0.12Z" style="fill:white;fill-rule:nonzero;"/>
            <path d="M31.284,88.869c-0.576,0 -0.936,0.372 -1.14,0.912c-0.024,0.036 -0.06,0.036 -0.06,-0.012l0,-0.72c0,-0.072 -0.048,-0.12 -0.12,-0.12l-0.612,0c-0.072,0 -0.12,0.048 -0.12,0.12l0,5.83c0,0.072 0.048,0.12 0.12,0.12l0.612,0c0.072,0 0.12,-0.048 0.12,-0.12l0,-3.599c0,-0.815 0.408,-1.451 0.984,-1.487c0.192,-0.036 0.372,-0.012 0.504,0.048c0.084,0.024 0.144,0.012 0.156,-0.072l0.132,-0.612c0.012,-0.06 0,-0.12 -0.06,-0.156c-0.12,-0.072 -0.276,-0.132 -0.516,-0.132Z" style="fill:white;fill-rule:nonzero;"/>
            <path d="M36.323,92.168l0,-1.5c0,-1.081 -0.718,-1.835 -1.883,-1.835c-1.141,0 -1.871,0.754 -1.871,1.835l0,2.592c0,1.105 0.73,1.835 1.871,1.835c1.057,0 1.716,-0.599 1.847,-1.535c0.012,-0.072 -0.036,-0.132 -0.107,-0.132l-0.599,-0.024c-0.072,0 -0.108,0.036 -0.132,0.108c-0.108,0.492 -0.481,0.841 -1.009,0.841c-0.6,0 -1.021,-0.469 -1.021,-1.141l0,-0.877c0,-0.024 0.024,-0.048 0.048,-0.048l2.736,0c0.072,0 0.12,-0.048 0.12,-0.119Zm-1.883,-2.593c0.624,0 1.045,0.469 1.045,1.153l0,0.805c0,0.024 -0.024,0.048 -0.048,0.048l-1.97,0c-0.024,0 -0.048,-0.024 -0.048,-0.048l0,-0.805c0,-0.684 0.421,-1.153 1.021,-1.153Z" style="fill:white;fill-rule:nonzero;"/>
            <path d="M40.343,89.049l0,0.348c0,0.036 -0.024,0.059 -0.06,0.024c-0.276,-0.384 -0.696,-0.588 -1.188,-0.588c-0.959,0 -1.57,0.766 -1.618,1.835c-0.012,0.444 -0.012,0.888 -0.012,1.332c0,0.444 0,0.853 0.012,1.297c0.036,1.054 0.647,1.798 1.618,1.798c0.492,0 0.912,-0.192 1.188,-0.576c0.036,-0.036 0.06,-0.012 0.06,0.024l0,2.664c0,0.072 0.048,0.12 0.12,0.12l0.612,0c0.072,0 0.12,-0.048 0.12,-0.12l0,-8.158c0,-0.072 -0.048,-0.12 -0.12,-0.12l-0.612,0c-0.072,0 -0.12,0.048 -0.12,0.12Zm-0.996,5.302c-0.612,0 -1.044,-0.479 -1.032,-1.198c-0.012,-0.42 0,-0.877 0,-1.189l0,-1.188c-0.012,-0.709 0.408,-1.201 1.032,-1.201c0.576,0 0.996,0.48 0.996,1.201l0,2.377c0,0.719 -0.42,1.198 -0.996,1.198Z" style="fill:white;fill-rule:nonzero;"/>
            <path d="M45.493,89.049l0,3.996c0,0.804 -0.385,1.296 -1.021,1.296c-0.612,0 -0.961,-0.396 -0.961,-1.212l0,-4.08c0,-0.072 -0.048,-0.12 -0.12,-0.12l-0.61,0c-0.072,0 -0.12,0.048 -0.12,0.12l0,4.272c0,1.223 0.659,1.762 1.571,1.762c0.516,0 0.937,-0.179 1.201,-0.622c0.024,-0.036 0.06,-0.036 0.06,0.011l0,0.408c0,0.071 0.048,0.119 0.12,0.119l0.61,0c0.072,0 0.12,-0.048 0.12,-0.119l0,-5.831c0,-0.072 -0.048,-0.12 -0.12,-0.12l-0.61,0c-0.072,0 -0.12,0.048 -0.12,0.12Z" style="fill:white;fill-rule:nonzero;"/>
            <path d="M51.431,92.168l0,-1.5c0,-1.081 -0.718,-1.835 -1.883,-1.835c-1.141,0 -1.871,0.754 -1.871,1.835l0,2.592c0,1.105 0.73,1.835 1.871,1.835c1.057,0 1.716,-0.599 1.847,-1.535c0.012,-0.072 -0.036,-0.132 -0.107,-0.132l-0.599,-0.024c-0.072,0 -0.108,0.036 -0.132,0.108c-0.108,0.492 -0.481,0.841 -1.009,0.841c-0.6,0 -1.021,-0.469 -1.021,-1.141l0,-0.877c0,-0.024 0.024,-0.048 0.048,-0.048l2.736,0c0.072,0 0.12,-0.048 0.12,-0.119Zm-1.883,-2.593c0.624,0 1.045,0.469 1.045,1.153l0,0.805c0,0.024 -0.024,0.048 -0.048,0.048l-1.97,0c-0.024,0 -0.048,-0.024 -0.048,-0.048l0,-0.805c0,-0.684 0.421,-1.153 1.021,-1.153Z" style="fill:white;fill-rule:nonzero;"/>
            <path d="M54.852,88.845c-0.48,0 -0.936,0.179 -1.249,0.611c-0.024,0.035 -0.06,0.023 -0.06,-0.012l0,-0.396c0,-0.071 -0.048,-0.119 -0.12,-0.119l-0.61,0c-0.072,0 -0.12,0.048 -0.12,0.119l0,5.831c0,0.072 0.048,0.12 0.12,0.12l0.61,0c0.072,0 0.12,-0.048 0.12,-0.12l0,-3.996c0,-0.804 0.397,-1.296 1.033,-1.296c0.612,0 0.961,0.456 0.961,1.236l0,4.056c0,0.072 0.048,0.12 0.12,0.12l0.61,0c0.072,0 0.12,-0.048 0.12,-0.12l0,-4.128c0,-1.2 -0.551,-1.906 -1.535,-1.906Z" style="fill:white;fill-rule:nonzero;"/>
            <path d="M59.52,95.095c1.153,0 1.895,-0.73 1.895,-1.667l0,-0.132c0,-0.072 -0.048,-0.12 -0.12,-0.12l-0.61,-0.012c-0.072,0 -0.12,0.048 -0.12,0.12l0,0.084c0,0.517 -0.421,0.985 -1.045,0.985c-0.6,0 -1.021,-0.468 -1.021,-1.153l0,-2.472c0,-0.685 0.421,-1.153 1.021,-1.153c0.624,0 1.045,0.468 1.045,0.985l0,0.096c0,0.06 0.048,0.108 0.12,0.108l0.61,-0.024c0.072,0 0.12,-0.048 0.12,-0.12l0,-0.12c0,-0.901 -0.742,-1.667 -1.895,-1.667c-1.141,0 -1.871,0.766 -1.871,1.835l0,2.592c0,1.105 0.73,1.835 1.871,1.835Z" style="fill:white;fill-rule:nonzero;"/>
            <path d="M62.298,97.399l0.06,0c1.187,0 1.511,-0.335 1.919,-1.87l1.667,-6.456c0.024,-0.072 -0.012,-0.132 -0.096,-0.132l-0.671,-0.012c-0.072,0 -0.12,0.036 -0.132,0.108l-1.044,4.716c-0.012,0.048 -0.036,0.048 -0.048,0l-1.055,-4.716c-0.012,-0.072 -0.06,-0.108 -0.132,-0.108l-0.648,0c-0.084,0 -0.132,0.048 -0.108,0.132l1.523,5.904c0,0.024 0.012,0.048 0,0.072c-0.252,1.344 -0.467,1.632 -1.187,1.632l-0.06,0c-0.036,0 -0.06,0.048 -0.06,0.12l0,0.49c0,0.072 0.036,0.12 0.072,0.12Z" style="fill:white;fill-rule:nonzero;"/>
            <path d="M26.728,154.999l0.623,0c0.083,0 0.119,-0.048 0.095,-0.132l-1.306,-3.78c-0.012,-0.036 0,-0.048 0.036,-0.06c0.767,-0.288 1.246,-1.067 1.246,-2.136c0,-1.38 -0.79,-2.303 -1.955,-2.303l-1.979,0c-0.072,0 -0.12,0.048 -0.12,0.12l0,8.171c0,0.072 0.048,0.12 0.12,0.12l0.611,0c0.072,0 0.119,-0.048 0.119,-0.12l0,-3.696c0,-0.024 0.025,-0.048 0.049,-0.048l1.032,0c0.024,0 0.036,0 0.048,0.036l1.237,3.732c0.024,0.06 0.084,0.096 0.144,0.096Zm-2.461,-7.668l1.08,0c0.733,0 1.225,0.612 1.225,1.572c0,0.937 -0.492,1.549 -1.225,1.549l-1.08,0c-0.024,0 -0.049,-0.024 -0.049,-0.048l0,-3.025c0,-0.025 0.025,-0.048 0.049,-0.048Z" style="fill:white;fill-rule:nonzero;"/>
            <path d="M32.174,152.167l0,-1.5c0,-1.08 -0.718,-1.835 -1.883,-1.835c-1.14,0 -1.871,0.755 -1.871,1.835l0,2.592c0,1.105 0.731,1.836 1.871,1.836c1.057,0 1.716,-0.599 1.848,-1.536c0.012,-0.072 -0.036,-0.132 -0.108,-0.132l-0.599,-0.024c-0.072,0 -0.108,0.036 -0.132,0.108c-0.108,0.493 -0.48,0.841 -1.009,0.841c-0.6,0 -1.021,-0.468 -1.021,-1.141l0,-0.876c0,-0.024 0.025,-0.048 0.049,-0.048l2.736,0c0.072,0 0.119,-0.048 0.119,-0.12Zm-1.883,-2.592c0.625,0 1.045,0.468 1.045,1.152l0,0.805c0,0.024 -0.024,0.048 -0.048,0.048l-1.969,0c-0.024,0 -0.049,-0.024 -0.049,-0.048l0,-0.805c0,-0.684 0.421,-1.152 1.021,-1.152Z" style="fill:white;fill-rule:nonzero;"/>
            <path d="M35.019,155.059c1.117,0 1.823,-0.635 1.823,-1.631c0,-1.129 -0.91,-1.513 -1.607,-1.813c-0.624,-0.264 -1.177,-0.492 -1.177,-1.116c0,-0.516 0.361,-0.936 0.949,-0.936c0.589,0 0.973,0.408 0.973,0.936l0,0.096c0,0.06 0.048,0.096 0.12,0.096l0.551,0c0.072,0 0.119,-0.048 0.119,-0.12l0,-0.036c0,-0.996 -0.67,-1.667 -1.775,-1.667c-1.056,0 -1.751,0.623 -1.751,1.655c0,1.14 0.851,1.5 1.523,1.776c0.613,0.264 1.225,0.493 1.225,1.165c0,0.54 -0.372,0.936 -0.961,0.936c-0.612,0 -1.021,-0.408 -1.021,-0.912l0,-0.096c0,-0.06 -0.047,-0.096 -0.119,-0.096l-0.575,0c-0.072,0 -0.12,0.048 -0.12,0.12l0,0.084c0,0.936 0.707,1.559 1.823,1.559Z" style="fill:white;fill-rule:nonzero;"/>
            <path d="M39.675,155.095c1.153,0 1.895,-0.731 1.895,-1.835l0,-2.593c0,-1.081 -0.742,-1.835 -1.895,-1.835c-1.152,0 -1.883,0.754 -1.883,1.835l0,2.593c0,1.104 0.731,1.835 1.883,1.835Zm0,-0.743c-0.612,0 -1.033,-0.468 -1.033,-1.14l0,-2.485c0,-0.684 0.421,-1.152 1.033,-1.152c0.613,0 1.045,0.468 1.045,1.152l0,2.485c0,0.672 -0.432,1.14 -1.045,1.14Z" style="fill:white;fill-rule:nonzero;"/>
            <path d="M45.051,148.844c-0.48,0 -0.936,0.18 -1.248,0.611c-0.024,0.036 -0.061,0.024 -0.061,-0.012l0,-0.395c0,-0.072 -0.047,-0.12 -0.119,-0.12l-0.611,0c-0.072,0 -0.12,0.048 -0.12,0.12l0,5.831c0,0.072 0.048,0.12 0.12,0.12l0.611,0c0.072,0 0.119,-0.048 0.119,-0.12l0,-3.996c0,-0.804 0.397,-1.296 1.033,-1.296c0.613,0 0.961,0.456 0.961,1.236l0,4.056c0,0.072 0.048,0.12 0.12,0.12l0.611,0c0.072,0 0.119,-0.048 0.119,-0.12l0,-4.128c0,-1.2 -0.551,-1.907 -1.535,-1.907Z" style="fill:white;fill-rule:nonzero;"/>
            <path d="M49.743,148.832c-0.996,0 -1.763,0.623 -1.847,1.583c-0.012,0.072 0.036,0.12 0.107,0.12l0.66,0.012c0.072,0 0.12,-0.036 0.132,-0.12c0.048,-0.504 0.444,-0.852 0.924,-0.852c0.625,0 1.009,0.528 1.009,1.321l0,0.468c0,0.024 -0.024,0.048 -0.048,0.048l-0.829,0c-1.188,0 -2.135,0.527 -2.135,1.967c0,1.428 0.947,1.716 1.631,1.716c0.54,0 1.009,-0.168 1.321,-0.575c0.036,-0.036 0.06,-0.024 0.06,0.012l0,0.347c0,0.072 0.048,0.12 0.12,0.12l0.611,0c0.072,0 0.119,-0.048 0.119,-0.12l0,-4.043c0,-1.213 -0.718,-2.004 -1.835,-2.004Zm-0.216,5.52c-0.528,0 -0.937,-0.312 -0.937,-1.045c0,-0.828 0.517,-1.212 1.249,-1.212l0.841,0c0.024,0 0.048,0.024 0.048,0.048l0,1.008c0,0.805 -0.6,1.201 -1.201,1.201Z" style="fill:white;fill-rule:nonzero;"/>
            <path d="M55.071,148.844c-0.48,0 -0.936,0.18 -1.248,0.611c-0.024,0.036 -0.061,0.024 -0.061,-0.012l0,-0.395c0,-0.072 -0.047,-0.12 -0.119,-0.12l-0.611,0c-0.072,0 -0.12,0.048 -0.12,0.12l0,5.831c0,0.072 0.048,0.12 0.12,0.12l0.611,0c0.072,0 0.119,-0.048 0.119,-0.12l0,-3.996c0,-0.804 0.397,-1.296 1.033,-1.296c0.613,0 0.961,0.456 0.961,1.236l0,4.056c0,0.072 0.048,0.12 0.12,0.12l0.611,0c0.072,0 0.119,-0.048 0.119,-0.12l0,-4.128c0,-1.2 -0.551,-1.907 -1.535,-1.907Z" style="fill:white;fill-rule:nonzero;"/>
            <path d="M59.739,155.095c1.153,0 1.895,-0.731 1.895,-1.667l0,-0.132c0,-0.072 -0.047,-0.12 -0.119,-0.12l-0.611,-0.012c-0.072,0 -0.12,0.048 -0.12,0.12l0,0.084c0,0.516 -0.42,0.984 -1.045,0.984c-0.6,0 -1.021,-0.468 -1.021,-1.152l0,-2.473c0,-0.684 0.421,-1.152 1.021,-1.152c0.625,0 1.045,0.468 1.045,0.984l0,0.096c0,0.06 0.048,0.108 0.12,0.108l0.611,-0.024c0.072,0 0.119,-0.048 0.119,-0.12l0,-0.12c0,-0.901 -0.742,-1.667 -1.895,-1.667c-1.14,0 -1.871,0.766 -1.871,1.835l0,2.593c0,1.104 0.731,1.835 1.871,1.835Z" style="fill:white;fill-rule:nonzero;"/>
            <path d="M66.446,152.167l0,-1.5c0,-1.08 -0.718,-1.835 -1.883,-1.835c-1.14,0 -1.871,0.755 -1.871,1.835l0,2.592c0,1.105 0.731,1.836 1.871,1.836c1.057,0 1.716,-0.599 1.848,-1.536c0.012,-0.072 -0.036,-0.132 -0.108,-0.132l-0.599,-0.024c-0.072,0 -0.108,0.036 -0.132,0.108c-0.108,0.493 -0.48,0.841 -1.009,0.841c-0.6,0 -1.021,-0.468 -1.021,-1.141l0,-0.876c0,-0.024 0.025,-0.048 0.049,-0.048l2.736,0c0.072,0 0.119,-0.048 0.119,-0.12Zm-1.883,-2.592c0.625,0 1.045,0.468 1.045,1.152l0,0.805c0,0.024 -0.024,0.048 -0.048,0.048l-1.969,0c-0.024,0 -0.049,-0.024 -0.049,-0.048l0,-0.805c0,-0.684 0.421,-1.152 1.021,-1.152Z" style="fill:white;fill-rule:nonzero;"/>
            <path d="M36.783,206.588l-1.979,0c-0.072,0 -0.12,0.048 -0.12,0.12l0,8.171c0,0.072 0.048,0.12 0.12,0.12l0.611,0c0.072,0 0.119,-0.048 0.119,-0.12l0,-3.624c0,-0.024 0.025,-0.048 0.049,-0.048l1.236,0c1.153,0 1.919,-0.911 1.919,-2.292c0,-1.392 -0.778,-2.327 -1.955,-2.327Zm-0.108,3.924l-1.092,0c-0.024,0 -0.049,-0.024 -0.049,-0.048l0,-3.085c0,-0.024 0.025,-0.048 0.049,-0.048l1.092,0c0.721,0 1.213,0.624 1.213,1.596c0,0.973 -0.492,1.585 -1.213,1.585Z" style="fill:white;fill-rule:nonzero;"/>
            <path d="M41.619,215.095c1.153,0 1.895,-0.731 1.895,-1.835l0,-2.593c0,-1.081 -0.742,-1.835 -1.895,-1.835c-1.152,0 -1.883,0.754 -1.883,1.835l0,2.593c0,1.104 0.731,1.835 1.883,1.835Zm0,-0.743c-0.612,0 -1.033,-0.468 -1.033,-1.14l0,-2.485c0,-0.684 0.421,-1.152 1.033,-1.152c0.613,0 1.045,0.468 1.045,1.152l0,2.485c0,0.672 -0.432,1.14 -1.045,1.14Z" style="fill:white;fill-rule:nonzero;"/>
            <path d="M44.884,214.999l0.611,0c0.072,0 0.119,-0.048 0.119,-0.12l0,-8.159c0,-0.072 -0.047,-0.12 -0.119,-0.12l-0.611,0c-0.072,0 -0.12,0.048 -0.12,0.12l0,8.159c0,0.072 0.048,0.12 0.12,0.12Z" style="fill:white;fill-rule:nonzero;"/>
            <path d="M50.63,212.167l0,-1.5c0,-1.08 -0.718,-1.835 -1.883,-1.835c-1.14,0 -1.871,0.755 -1.871,1.835l0,2.592c0,1.105 0.731,1.836 1.871,1.836c1.057,0 1.716,-0.599 1.848,-1.536c0.012,-0.072 -0.036,-0.132 -0.108,-0.132l-0.599,-0.024c-0.072,0 -0.108,0.036 -0.132,0.108c-0.108,0.493 -0.48,0.841 -1.009,0.841c-0.6,0 -1.021,-0.468 -1.021,-1.141l0,-0.876c0,-0.024 0.025,-0.048 0.049,-0.048l2.736,0c0.072,0 0.119,-0.048 0.119,-0.12Zm-1.883,-2.592c0.625,0 1.045,0.468 1.045,1.152l0,0.805c0,0.024 -0.024,0.048 -0.048,0.048l-1.969,0c-0.024,0 -0.049,-0.024 -0.049,-0.048l0,-0.805c0,-0.684 0.421,-1.152 1.021,-1.152Z" style="fill:white;fill-rule:nonzero;"/>
            <path d="M53.475,215.059c1.117,0 1.823,-0.635 1.823,-1.631c0,-1.129 -0.91,-1.513 -1.607,-1.813c-0.624,-0.264 -1.177,-0.492 -1.177,-1.116c0,-0.516 0.361,-0.936 0.949,-0.936c0.589,0 0.973,0.408 0.973,0.936l0,0.096c0,0.06 0.048,0.096 0.12,0.096l0.551,0c0.072,0 0.119,-0.048 0.119,-0.12l0,-0.036c0,-0.996 -0.67,-1.667 -1.775,-1.667c-1.056,0 -1.751,0.623 -1.751,1.655c0,1.14 0.851,1.5 1.523,1.776c0.613,0.264 1.225,0.493 1.225,1.165c0,0.54 -0.372,0.936 -0.961,0.936c-0.612,0 -1.021,-0.408 -1.021,-0.912l0,-0.096c0,-0.06 -0.047,-0.096 -0.119,-0.096l-0.575,0c-0.072,0 -0.12,0.048 -0.12,0.12l0,0.084c0,0.936 0.707,1.559 1.823,1.559Z" style="fill:white;fill-rule:nonzero;"/>
        </g>
    </g>
</svg>
