<?xml version="1.0" encoding="UTF-8" standalone="no"?>
<!DOCTYPE svg PUBLIC "-//W3C//DTD SVG 1.1//EN" "http://www.w3.org/Graphics/SVG/1.1/DTD/svg11.dtd">
<svg width="60px" height="380px" version="1.1" xmlns="http://www.w3.org/2000/svg" xmlns:xlink="http://www.w3.org/1999/xlink" xml:space="preserve" xmlns:serif="http://www.serif.com/" style="fill-rule:evenodd;clip-rule:evenodd;stroke-linecap:round;stroke-linejoin:round;stroke-miterlimit:1.5;">
    <rect id="Hombre-Dark" serif:id="Hombre Dark" x="0" y="0" width="60" height="380" style="fill:none;"/>
    <clipPath id="_clip1">
        <rect x="0" y="0" width="60" height="380"/>
    </clipPath>
    <g clip-path="url(#_clip1)">
        <g id="Background">
            <path id="bg" d="M60,379.995l0,-379.995l-60,0l0,379.995l60,0Z" style="fill:rgb(54,69,74);"/>
            <g id="bgOutLight">
                <circle cx="30" cy="325" r="14" style="fill:rgb(51,51,51);"/>
            </g>
            <path d="M0,25.095l7.5,0" style="fill:none;stroke:rgb(128,128,128);stroke-width:0.7px;"/>
            <path d="M52.5,25l7.5,0" style="fill:none;stroke:rgb(128,128,128);stroke-width:0.7px;"/>
            <g id="knobBgMediumThree">
                <path d="M45.556,80.9c8.592,-8.58 8.592,-22.49 0,-31.07c-8.585,-8.573 -22.527,-8.573 -31.112,0c-8.592,8.58 -8.592,22.49 0,31.07l15.556,-15.535l15.556,15.535Z" style="fill:none;stroke:rgb(128,128,128);stroke-width:0.7px;stroke-linecap:butt;stroke-linejoin:miter;"/>
            </g>
            <g id="knobBgMediumThree1" serif:id="knobBgMediumThree">
                <path d="M45.556,140.9c8.592,-8.58 8.592,-22.49 0,-31.07c-8.585,-8.573 -22.527,-8.573 -31.112,0c-8.592,8.58 -8.592,22.49 0,31.07l15.556,-15.535l15.556,15.535Z" style="fill:none;stroke:rgb(128,128,128);stroke-width:0.7px;stroke-linecap:butt;stroke-linejoin:miter;"/>
            </g>
        </g>
        <g id="Lables">
            <g id="Branding">
                <path d="M12.357,362.45l0.545,0c0.049,0 0.07,-0.028 0.056,-0.077l-0.72,-2.163c-0.007,-0.021 0,-0.028 0.014,-0.042c0.419,-0.182 0.685,-0.637 0.685,-1.232c0,-0.826 -0.482,-1.393 -1.203,-1.393l-1.253,0c-0.042,0 -0.07,0.028 -0.07,0.07l0,4.767c0,0.042 0.028,0.07 0.07,0.07l0.531,0c0.042,0 0.07,-0.028 0.07,-0.07l0,-2.079c0,-0.014 0.014,-0.028 0.028,-0.028l0.483,0c0.014,0 0.021,0 0.028,0.021l0.652,2.1c0.014,0.035 0.049,0.056 0.084,0.056Zm-1.247,-4.326l0.518,0c0.379,0 0.638,0.315 0.638,0.819c0,0.49 -0.259,0.805 -0.638,0.805l-0.518,0c-0.014,0 -0.028,-0.014 -0.028,-0.028l0,-1.568c0,-0.014 0.014,-0.028 0.028,-0.028Z" style="fill:rgb(199,206,201);fill-rule:nonzero;"/>
                <path d="M16.045,362.45l0.546,0c0.049,0 0.07,-0.035 0.063,-0.077l-1.057,-4.76c-0.007,-0.042 -0.035,-0.063 -0.077,-0.063l-0.615,0c-0.042,0 -0.07,0.021 -0.077,0.063l-1.043,4.76c-0.007,0.042 0.014,0.077 0.063,0.077l0.532,0c0.042,0 0.07,-0.021 0.077,-0.063l0.161,-0.805c0,-0.014 0.021,-0.028 0.035,-0.028l1.126,0c0.014,0 0.035,0.014 0.035,0.028l0.154,0.805c0.007,0.042 0.035,0.063 0.077,0.063Zm-1.308,-1.456l0.476,-2.394c0.006,-0.028 0.02,-0.028 0.027,0l0.462,2.394c0,0.014 -0.007,0.028 -0.021,0.028l-0.923,0c-0.014,0 -0.021,-0.014 -0.021,-0.028Z" style="fill:rgb(199,206,201);fill-rule:nonzero;"/>
                <path d="M18.719,362.506c0.764,0 1.267,-0.497 1.267,-1.267l0,-0.105c0,-0.042 -0.028,-0.07 -0.07,-0.07l-0.531,-0.028c-0.042,0 -0.07,0.028 -0.07,0.07l0,0.182c0,0.378 -0.238,0.637 -0.596,0.637c-0.357,0 -0.588,-0.259 -0.588,-0.637l0,-2.576c0,-0.385 0.231,-0.637 0.588,-0.637c0.358,0 0.596,0.252 0.596,0.637l0,0.182c0,0.042 0.028,0.07 0.07,0.07l0.531,-0.028c0.042,0 0.07,-0.028 0.07,-0.07l0,-0.112c0,-0.77 -0.503,-1.26 -1.267,-1.26c-0.756,0 -1.259,0.49 -1.259,1.26l0,2.485c0,0.77 0.503,1.267 1.259,1.267Z" style="fill:rgb(199,206,201);fill-rule:nonzero;"/>
                <path d="M21.142,362.45l0.531,0c0.042,0 0.07,-0.028 0.07,-0.07l0,-1.575c0,-0.014 0,-0.028 0.007,-0.035l0.357,-0.567c0.014,-0.014 0.028,-0.014 0.035,0.007l0.91,2.184c0.014,0.042 0.042,0.056 0.077,0.056l0.581,0c0.049,0 0.077,-0.035 0.056,-0.084l-1.169,-2.744c-0.007,-0.014 -0.007,-0.028 0,-0.042l1.078,-1.946c0.028,-0.049 0.007,-0.084 -0.049,-0.084l-0.574,0c-0.035,0 -0.063,0.021 -0.084,0.049l-1.19,2.128c-0.014,0.028 -0.035,0.021 -0.035,-0.007l0,-2.1c0,-0.042 -0.028,-0.07 -0.07,-0.07l-0.531,0c-0.042,0 -0.07,0.028 -0.07,0.07l0,4.76c0,0.042 0.028,0.07 0.07,0.07Z" style="fill:rgb(199,206,201);fill-rule:nonzero;"/>
                <path d="M25.44,362.45l0.497,0c0.042,0 0.063,-0.014 0.07,-0.063l0.503,-3.311c0,-0.021 0.021,-0.021 0.028,0l0.532,3.311c0.007,0.042 0.028,0.063 0.07,0.063l0.497,0c0.042,0 0.07,-0.021 0.077,-0.063l0.882,-4.76c0.007,-0.042 -0.014,-0.077 -0.063,-0.077l-0.546,0c-0.042,0 -0.063,0.021 -0.07,0.063l-0.518,3.283c-0.007,0.021 -0.021,0.021 -0.028,0l-0.539,-3.283c-0.007,-0.042 -0.028,-0.063 -0.07,-0.063l-0.468,0c-0.042,0 -0.063,0.014 -0.07,0.063l-0.504,3.283c-0.007,0.021 -0.021,0.021 -0.028,0l-0.567,-3.283c-0.007,-0.042 -0.035,-0.063 -0.077,-0.063l-0.553,0c-0.049,0 -0.07,0.035 -0.063,0.077l0.931,4.76c0.007,0.042 0.035,0.063 0.077,0.063Z" style="fill:rgb(199,206,201);fill-rule:nonzero;"/>
                <path d="M29.626,362.45l0.531,0c0.042,0 0.07,-0.028 0.07,-0.07l0,-4.76c0,-0.042 -0.028,-0.07 -0.07,-0.07l-0.531,0c-0.042,0 -0.07,0.028 -0.07,0.07l0,4.76c0,0.042 0.028,0.07 0.07,0.07Z" style="fill:rgb(199,206,201);fill-rule:nonzero;"/>
                <path d="M31.523,362.45l0.525,0c0.042,0 0.07,-0.028 0.07,-0.07l-0.007,-3.073c0,-0.028 0.028,-0.028 0.035,0l1.246,3.087c0.014,0.042 0.042,0.056 0.077,0.056l0.546,0c0.042,0 0.07,-0.028 0.07,-0.07l0,-4.76c0,-0.042 -0.028,-0.07 -0.07,-0.07l-0.525,0c-0.042,0 -0.07,0.028 -0.07,0.07l0,3.066c0,0.028 -0.028,0.035 -0.035,0.007l-1.246,-3.087c-0.014,-0.042 -0.042,-0.056 -0.077,-0.056l-0.539,0c-0.042,0 -0.07,0.028 -0.07,0.07l0,4.76c0,0.042 0.028,0.07 0.07,0.07Z" style="fill:rgb(199,206,201);fill-rule:nonzero;"/>
                <path d="M35.373,362.45l1.147,0c0.771,0 1.267,-0.511 1.267,-1.323l0,-2.254c0,-0.812 -0.496,-1.323 -1.267,-1.323l-1.147,0c-0.042,0 -0.07,0.028 -0.07,0.07l0,4.76c0,0.042 0.028,0.07 0.07,0.07Zm0.601,-0.609l0,-3.682c0,-0.014 0.014,-0.028 0.028,-0.028l0.511,0c0.365,0 0.596,0.301 0.596,0.777l0,2.184c-0.007,0.476 -0.238,0.77 -0.596,0.77l-0.511,0.007c-0.014,0 -0.028,-0.014 -0.028,-0.028Z" style="fill:rgb(199,206,201);fill-rule:nonzero;"/>
                <path d="M40.111,362.506c0.771,0 1.288,-0.504 1.288,-1.281l0,-2.443c0,-0.777 -0.517,-1.288 -1.288,-1.288c-0.763,0 -1.273,0.511 -1.273,1.288l0,2.443c0,0.777 0.51,1.281 1.273,1.281Zm0,-0.581c-0.364,0 -0.602,-0.273 -0.602,-0.672l0,-2.506c0,-0.399 0.238,-0.672 0.602,-0.672c0.372,0 0.617,0.273 0.617,0.672l0,2.506c0,0.399 -0.245,0.672 -0.617,0.672Z" style="fill:rgb(199,206,201);fill-rule:nonzero;"/>
                <path d="M43.192,362.45l0.497,0c0.042,0 0.063,-0.014 0.07,-0.063l0.503,-3.311c0,-0.021 0.021,-0.021 0.028,0l0.532,3.311c0.007,0.042 0.028,0.063 0.07,0.063l0.497,0c0.042,0 0.07,-0.021 0.077,-0.063l0.882,-4.76c0.007,-0.042 -0.014,-0.077 -0.063,-0.077l-0.546,0c-0.042,0 -0.063,0.021 -0.07,0.063l-0.518,3.283c-0.007,0.021 -0.021,0.021 -0.028,0l-0.539,-3.283c-0.007,-0.042 -0.028,-0.063 -0.07,-0.063l-0.468,0c-0.042,0 -0.063,0.014 -0.07,0.063l-0.504,3.283c-0.007,0.021 -0.021,0.021 -0.028,0l-0.567,-3.283c-0.007,-0.042 -0.035,-0.063 -0.077,-0.063l-0.553,0c-0.049,0 -0.07,0.035 -0.063,0.077l0.931,4.76c0.007,0.042 0.035,0.063 0.077,0.063Z" style="fill:rgb(199,206,201);fill-rule:nonzero;"/>
                <path d="M48.343,362.506c0.729,0 1.246,-0.504 1.246,-1.295c0,-0.672 -0.37,-0.966 -1.084,-1.498c-0.54,-0.399 -0.743,-0.588 -0.743,-0.987c0,-0.42 0.231,-0.651 0.546,-0.651c0.344,0 0.582,0.28 0.582,0.7l0,0.189c0,0.042 0.028,0.07 0.07,0.07l0.517,0c0.042,0 0.07,-0.028 0.07,-0.07l0,-0.175c0,-0.777 -0.489,-1.295 -1.239,-1.295c-0.707,0 -1.21,0.469 -1.21,1.232c0,0.763 0.503,1.134 1.042,1.533c0.505,0.371 0.785,0.567 0.785,0.994c0,0.406 -0.252,0.672 -0.582,0.672c-0.336,0 -0.574,-0.273 -0.574,-0.707l0,-0.154c0,-0.042 -0.028,-0.07 -0.07,-0.07l-0.517,0c-0.042,0 -0.07,0.028 -0.07,0.07l0,0.189c0,0.749 0.496,1.253 1.231,1.253Z" style="fill:rgb(199,206,201);fill-rule:nonzero;"/>
                <path d="M19.057,35.318l0.45,0c0.063,0 0.099,-0.036 0.09,-0.099l-0.603,-2.835c-0.009,-0.027 0,-0.036 0.027,-0.045c0.585,-0.215 1.007,-0.8 1.106,-1.602c0.126,-1.035 -0.368,-1.727 -1.214,-1.727l-1.44,0c-0.054,0 -0.09,0.036 -0.099,0.09l-0.747,6.128c-0.009,0.054 0.018,0.09 0.072,0.09l0.45,0c0.045,0 0.09,-0.036 0.099,-0.09l0.333,-2.772c0.009,-0.018 0.027,-0.036 0.045,-0.036l0.747,0c0.018,0 0.027,0 0.036,0.027l0.549,2.799c0.018,0.045 0.054,0.072 0.099,0.072Zm-1.08,-5.751l0.783,0c0.531,0 0.837,0.459 0.747,1.179c-0.09,0.703 -0.504,1.162 -1.035,1.162l-0.783,0c-0.018,0 -0.036,-0.018 -0.036,-0.036l0.279,-2.269c0.009,-0.018 0.027,-0.036 0.045,-0.036Z" style="fill:rgb(199,206,201);fill-rule:nonzero;"/>
                <path d="M23.287,33.194l0.134,-1.125c0.099,-0.81 -0.35,-1.376 -1.196,-1.376c-0.838,0 -1.44,0.566 -1.539,1.376l-0.234,1.944c-0.099,0.829 0.36,1.377 1.188,1.377c0.774,0 1.314,-0.449 1.485,-1.151c0.018,-0.054 -0.009,-0.1 -0.063,-0.1l-0.432,-0.018c-0.054,0 -0.081,0.027 -0.108,0.082c-0.126,0.369 -0.423,0.63 -0.81,0.63c-0.433,0 -0.702,-0.351 -0.64,-0.856l0.081,-0.657c0,-0.018 0.027,-0.036 0.045,-0.036l1.99,0c0.054,0 0.09,-0.036 0.099,-0.09Zm-1.134,-1.944c0.45,0 0.72,0.351 0.657,0.865l-0.081,0.603c0,0.018 -0.018,0.036 -0.036,0.036l-1.432,0c-0.018,0 -0.036,-0.018 -0.036,-0.036l0.081,-0.603c0.063,-0.514 0.406,-0.865 0.847,-0.865Z" style="fill:rgb(199,206,201);fill-rule:nonzero;"/>
                <path d="M24.728,30.441l-0.036,0.288c0,0.018 -0.027,0.036 -0.045,0.036l-0.342,0c-0.054,0 -0.099,0.036 -0.099,0.09l-0.036,0.296c-0.009,0.054 0.018,0.09 0.072,0.09l0.351,0c0.018,0 0.036,0.018 0.027,0.036l-0.486,3.951c0,0.054 0.027,0.09 0.081,0.09l0.432,0c0.054,0 0.099,-0.036 0.099,-0.09l0.488,-3.951c0,-0.018 0.027,-0.036 0.045,-0.036l0.666,0c0.054,0 0.09,-0.036 0.099,-0.09l0.036,-0.296c0.009,-0.054 -0.018,-0.09 -0.072,-0.09l-0.675,0c-0.018,0 -0.036,-0.018 -0.027,-0.036l0.027,-0.279c0.081,-0.622 0.27,-0.946 0.729,-0.946l0.108,0c0.054,0 0.09,-0.027 0.099,-0.09l0.054,-0.368c0.009,-0.054 -0.027,-0.09 -0.081,-0.09l-0.117,0c-0.882,0 -1.27,0.458 -1.397,1.485Zm2.333,-1.332l-0.747,6.119c-0.009,0.054 0.027,0.09 0.072,0.09l0.45,0c0.054,0 0.09,-0.036 0.099,-0.09l0.747,-6.119c0.009,-0.054 -0.018,-0.09 -0.072,-0.09l-0.45,0c-0.054,0 -0.09,0.036 -0.099,0.09Z" style="fill:rgb(199,206,201);fill-rule:nonzero;"/>
                <path d="M30.829,33.194l0.134,-1.125c0.099,-0.81 -0.35,-1.376 -1.196,-1.376c-0.838,0 -1.44,0.566 -1.539,1.376l-0.234,1.944c-0.099,0.829 0.36,1.377 1.188,1.377c0.774,0 1.314,-0.449 1.485,-1.151c0.018,-0.054 -0.009,-0.1 -0.063,-0.1l-0.432,-0.018c-0.054,0 -0.081,0.027 -0.108,0.082c-0.126,0.369 -0.423,0.63 -0.81,0.63c-0.433,0 -0.702,-0.351 -0.64,-0.856l0.081,-0.657c0,-0.018 0.027,-0.036 0.045,-0.036l1.99,0c0.054,0 0.09,-0.036 0.099,-0.09Zm-1.134,-1.944c0.45,0 0.72,0.351 0.657,0.865l-0.081,0.603c0,0.018 -0.018,0.036 -0.036,0.036l-1.432,0c-0.018,0 -0.036,-0.018 -0.036,-0.036l0.081,-0.603c0.063,-0.514 0.406,-0.865 0.847,-0.865Z" style="fill:rgb(199,206,201);fill-rule:nonzero;"/>
                <path d="M32.737,35.39c0.847,0 1.452,-0.548 1.542,-1.25l0.009,-0.099c0.009,-0.054 -0.027,-0.09 -0.072,-0.09l-0.451,-0.009c-0.055,0 -0.091,0.036 -0.1,0.09l0,0.063c-0.054,0.387 -0.405,0.738 -0.856,0.738c-0.432,0 -0.703,-0.351 -0.64,-0.864l0.235,-1.855c0.062,-0.513 0.405,-0.864 0.846,-0.864c0.45,0 0.72,0.351 0.666,0.738l-0.009,0.072c0,0.045 0.027,0.081 0.081,0.081l0.449,-0.018c0.045,0 0.09,-0.036 0.09,-0.09l0.018,-0.09c0.081,-0.675 -0.386,-1.25 -1.223,-1.25c-0.838,0 -1.44,0.575 -1.539,1.376l-0.234,1.945c-0.099,0.828 0.36,1.376 1.188,1.376Z" style="fill:rgb(199,206,201);fill-rule:nonzero;"/>
                <path d="M37.029,31.151l0.036,-0.296c0.009,-0.054 -0.018,-0.09 -0.072,-0.09l-0.665,0c-0.018,0 -0.027,-0.018 -0.027,-0.036l0.126,-1.008c0,-0.054 -0.027,-0.09 -0.081,-0.09l-0.433,0c-0.054,0 -0.099,0.036 -0.099,0.09l-0.125,1.008c0,0.018 -0.027,0.036 -0.045,0.036l-0.333,0c-0.054,0 -0.099,0.036 -0.099,0.09l-0.036,0.296c-0.009,0.054 0.018,0.09 0.072,0.09l0.342,0c0.018,0 0.036,0.018 0.027,0.036l-0.36,2.944c-0.108,0.908 0.297,1.097 0.917,1.097l0.216,0c0.054,0 0.09,-0.036 0.099,-0.09l0.045,-0.386c0.009,-0.054 -0.027,-0.09 -0.072,-0.09l-0.09,0c-0.369,0.009 -0.549,-0.144 -0.477,-0.72l0.333,-2.755c0.009,-0.018 0.027,-0.036 0.045,-0.036l0.657,0c0.054,0 0.099,-0.036 0.099,-0.09Z" style="fill:rgb(199,206,201);fill-rule:nonzero;"/>
                <path d="M38.56,35.39c0.846,0 1.449,-0.548 1.548,-1.376l0.242,-1.945c0.099,-0.81 -0.368,-1.376 -1.205,-1.376c-0.847,0 -1.449,0.566 -1.548,1.376l-0.234,1.945c-0.099,0.828 0.36,1.376 1.197,1.376Zm0.072,-0.557c-0.442,0 -0.712,-0.351 -0.649,-0.855l0.234,-1.864c0.063,-0.513 0.406,-0.864 0.856,-0.864c0.441,0 0.711,0.351 0.648,0.864l-0.225,1.864c-0.063,0.504 -0.423,0.855 -0.864,0.855Z" style="fill:rgb(199,206,201);fill-rule:nonzero;"/>
                <path d="M42.969,30.72c-0.414,0 -0.711,0.279 -0.918,0.684c-0.009,0.027 -0.036,0.027 -0.036,-0.009l0.072,-0.54c0,-0.054 -0.027,-0.09 -0.081,-0.09l-0.44,0c-0.054,0 -0.099,0.036 -0.099,0.09l-0.54,4.373c-0.009,0.054 0.027,0.09 0.072,0.09l0.45,0c0.054,0 0.09,-0.036 0.099,-0.09l0.333,-2.699c0.072,-0.612 0.431,-1.089 0.845,-1.116c0.153,-0.027 0.279,-0.009 0.369,0.036c0.054,0.018 0.099,0.009 0.117,-0.054l0.153,-0.459c0.018,-0.045 0.009,-0.09 -0.027,-0.117c-0.09,-0.054 -0.198,-0.099 -0.369,-0.099Z" style="fill:rgb(199,206,201);fill-rule:nonzero;"/>
                <path d="M16.644,17.163l0,3.384c0,0.036 -0.024,0.06 -0.06,0.06l-1.525,0c-0.036,0 -0.06,-0.024 -0.06,-0.06l0,-3.384c0,-0.084 -0.06,-0.144 -0.144,-0.144l-1.103,0c-0.084,0 -0.144,0.06 -0.144,0.144l0,8.111c0,0.084 0.06,0.144 0.144,0.144l1.103,0c0.084,0 0.144,-0.06 0.144,-0.144l0,-3.396c0,-0.036 0.024,-0.06 0.06,-0.06l1.525,0c0.036,0 0.06,0.024 0.06,0.06l0,3.396c0,0.084 0.06,0.144 0.144,0.144l1.103,0c0.084,0 0.144,-0.06 0.144,-0.144l0,-8.111c0,-0.084 -0.06,-0.144 -0.144,-0.144l-1.103,0c-0.084,0 -0.144,0.06 -0.144,0.144Z" style="fill:white;fill-rule:nonzero;"/>
                <path d="M21.6,25.514c1.38,0 2.303,-0.899 2.303,-2.279l0,-4.033c0,-1.38 -0.923,-2.279 -2.303,-2.279c-1.381,0 -2.292,0.899 -2.292,2.279l0,4.033c0,1.38 0.911,2.279 2.292,2.279Zm0,-1.199c-0.553,0 -0.901,-0.42 -0.901,-1.02l0,-4.153c0,-0.6 0.348,-1.02 0.901,-1.02c0.552,0 0.912,0.42 0.912,1.02l0,4.153c0,0.6 -0.36,1.02 -0.912,1.02Z" style="fill:white;fill-rule:nonzero;"/>
                <path d="M25.296,25.419l1.104,0c0.084,0 0.144,-0.06 0.144,-0.144l0,-5.244c0,-0.06 0.048,-0.072 0.072,-0.024l1.032,2.124c0.036,0.072 0.072,0.108 0.096,0.108c0.024,0 0.06,-0.036 0.096,-0.108l1.032,-2.1c0.024,-0.048 0.072,-0.048 0.072,0.012l0,5.232c0,0.084 0.06,0.144 0.144,0.144l1.104,0c0.084,0 0.144,-0.06 0.144,-0.144l0,-8.112c0,-0.084 -0.06,-0.144 -0.144,-0.144l-1.104,0c-0.072,0 -0.132,0.024 -0.168,0.108l-1.14,2.592c-0.024,0.048 -0.048,0.048 -0.072,0l-1.152,-2.592c-0.036,-0.084 -0.096,-0.108 -0.168,-0.108l-1.092,0c-0.084,0 -0.144,0.06 -0.144,0.144l0,8.112c0,0.084 0.06,0.144 0.144,0.144Z" style="fill:white;fill-rule:nonzero;"/>
                <path d="M36.251,23.091c-0.012,-0.961 -0.408,-1.597 -0.995,-1.98c-0.024,-0.024 -0.024,-0.048 0.024,-0.072c0.575,-0.348 0.875,-0.924 0.875,-1.764c0,-1.513 -0.947,-2.256 -2.436,-2.256l-1.895,0c-0.084,0 -0.144,0.06 -0.144,0.144l0,8.111c0,0.084 0.06,0.144 0.144,0.144l2.112,0c1.344,0 2.327,-0.803 2.315,-2.327Zm-3.12,-4.873l0.612,0c0.661,0 1.045,0.432 1.045,1.201c0,0.732 -0.384,1.152 -1.045,1.152l-0.612,0c-0.036,0 -0.06,-0.024 -0.06,-0.06l0,-2.233c0,-0.036 0.024,-0.06 0.06,-0.06Zm0.697,5.989l-0.697,0c-0.036,0 -0.06,-0.024 -0.06,-0.06l0,-2.497c0,-0.036 0.024,-0.06 0.06,-0.06l0.697,0c0.636,0 1.032,0.504 1.032,1.333c0,0.828 -0.396,1.284 -1.032,1.284Z" style="fill:white;fill-rule:nonzero;"/>
                <path d="M40.668,25.418l1.151,0c0.096,0 0.156,-0.06 0.12,-0.168l-1.175,-3.612c-0.012,-0.036 0,-0.06 0.036,-0.072c0.683,-0.359 1.091,-1.115 1.091,-2.111c0,-1.453 -0.863,-2.448 -2.147,-2.448l-2.256,0c-0.084,0 -0.144,0.06 -0.144,0.144l0,8.123c0,0.084 0.06,0.144 0.144,0.144l1.103,0c0.084,0 0.144,-0.06 0.144,-0.144l0,-3.42c0,-0.036 0.024,-0.06 0.06,-0.06l0.624,0c0.037,0 0.049,0.024 0.061,0.048l1.032,3.456c0.024,0.072 0.072,0.12 0.156,0.12Zm-1.873,-7.212l0.733,0c0.576,0 0.972,0.48 0.972,1.273c0,0.768 -0.396,1.236 -0.972,1.236l-0.733,0c-0.036,0 -0.06,-0.024 -0.06,-0.06l0,-2.389c0,-0.036 0.024,-0.06 0.06,-0.06Z" style="fill:white;fill-rule:nonzero;"/>
                <path d="M47.183,18.074l0,-0.911c0,-0.084 -0.06,-0.144 -0.144,-0.144l-3.899,0c-0.084,0 -0.144,0.06 -0.144,0.144l0,8.111c0,0.084 0.06,0.144 0.144,0.144l3.899,0c0.084,0 0.144,-0.06 0.144,-0.144l0,-0.911c0,-0.084 -0.06,-0.144 -0.144,-0.144l-2.592,0c-0.036,0 -0.06,-0.024 -0.06,-0.06l0,-2.281c0,-0.036 0.024,-0.06 0.06,-0.06l1.536,0c0.084,0 0.144,-0.06 0.144,-0.144l0,-0.923c0,-0.084 -0.06,-0.144 -0.144,-0.144l-1.536,0c-0.036,0 -0.06,-0.024 -0.06,-0.06l0,-2.269c0,-0.036 0.024,-0.06 0.06,-0.06l2.592,0c0.084,0 0.144,-0.06 0.144,-0.144Z" style="fill:white;fill-rule:nonzero;"/>
            </g>
            <path d="M17.633,94.899l0.684,0c0.072,0 0.12,-0.036 0.132,-0.108l1.739,-8.159c0.012,-0.084 -0.024,-0.132 -0.108,-0.132l-0.647,0c-0.072,0 -0.12,0.036 -0.132,0.108l-1.284,6.706c-0.012,0.036 -0.036,0.036 -0.048,0l-1.296,-6.706c-0.012,-0.072 -0.06,-0.108 -0.131,-0.108l-0.672,0c-0.084,0 -0.12,0.048 -0.108,0.132l1.739,8.158c0.012,0.073 0.06,0.109 0.132,0.109Z" style="fill:white;fill-rule:nonzero;"/>
            <path d="M22.637,94.995c1.153,0 1.895,-0.731 1.895,-1.835l0,-2.593c0,-1.08 -0.742,-1.835 -1.895,-1.835c-1.153,0 -1.883,0.755 -1.883,1.835l0,2.593c0,1.104 0.73,1.835 1.883,1.835Zm0,-0.743c-0.612,0 -1.033,-0.468 -1.033,-1.14l0,-2.485c0,-0.684 0.421,-1.152 1.033,-1.152c0.612,0 1.045,0.468 1.045,1.152l0,2.485c0,0.672 -0.433,1.14 -1.045,1.14Z" style="fill:white;fill-rule:nonzero;"/>
            <path d="M26.345,87.747c0.336,0 0.575,-0.264 0.575,-0.636c0,-0.347 -0.239,-0.611 -0.575,-0.611c-0.348,0 -0.599,0.264 -0.599,0.611c0,0.372 0.251,0.636 0.599,0.636Zm-0.311,7.152l0.61,0c0.072,0 0.12,-0.048 0.12,-0.12l0,-5.831c0,-0.072 -0.048,-0.12 -0.12,-0.12l-0.61,0c-0.072,0 -0.12,0.048 -0.12,0.12l0,5.831c0,0.072 0.048,0.12 0.12,0.12Z" style="fill:white;fill-rule:nonzero;"/>
            <path d="M30.017,94.995c1.153,0 1.895,-0.731 1.895,-1.667l0,-0.132c0,-0.072 -0.048,-0.12 -0.12,-0.12l-0.61,-0.012c-0.072,0 -0.12,0.048 -0.12,0.12l0,0.084c0,0.516 -0.421,0.984 -1.045,0.984c-0.6,0 -1.021,-0.468 -1.021,-1.152l0,-2.473c0,-0.684 0.421,-1.152 1.021,-1.152c0.624,0 1.045,0.468 1.045,0.984l0,0.096c0,0.06 0.048,0.108 0.12,0.108l0.61,-0.024c0.072,0 0.12,-0.048 0.12,-0.12l0,-0.12c0,-0.9 -0.742,-1.667 -1.895,-1.667c-1.141,0 -1.871,0.767 -1.871,1.835l0,2.593c0,1.104 0.73,1.835 1.871,1.835Z" style="fill:white;fill-rule:nonzero;"/>
            <path d="M33.593,87.747c0.336,0 0.575,-0.264 0.575,-0.636c0,-0.347 -0.239,-0.611 -0.575,-0.611c-0.348,0 -0.599,0.264 -0.599,0.611c0,0.372 0.251,0.636 0.599,0.636Zm-0.311,7.152l0.61,0c0.072,0 0.12,-0.048 0.12,-0.12l0,-5.831c0,-0.072 -0.048,-0.12 -0.12,-0.12l-0.61,0c-0.072,0 -0.12,0.048 -0.12,0.12l0,5.831c0,0.072 0.048,0.12 0.12,0.12Z" style="fill:white;fill-rule:nonzero;"/>
            <path d="M37.685,88.744c-0.48,0 -0.936,0.18 -1.249,0.611c-0.024,0.036 -0.06,0.024 -0.06,-0.012l0,-0.395c0,-0.072 -0.048,-0.12 -0.12,-0.12l-0.61,0c-0.072,0 -0.12,0.048 -0.12,0.12l0,5.831c0,0.072 0.048,0.12 0.12,0.12l0.61,0c0.072,0 0.12,-0.048 0.12,-0.12l0,-3.996c0,-0.804 0.397,-1.296 1.033,-1.296c0.613,0 0.961,0.456 0.961,1.236l0,4.056c0,0.072 0.048,0.12 0.12,0.12l0.61,0c0.072,0 0.12,-0.048 0.12,-0.12l0,-4.128c0,-1.2 -0.551,-1.907 -1.535,-1.907Z" style="fill:white;fill-rule:nonzero;"/>
            <path d="M43.374,88.948l0,0.371c0,0.048 -0.024,0.06 -0.06,0.012c-0.276,-0.407 -0.733,-0.599 -1.201,-0.599c-1.02,0 -1.631,0.731 -1.631,1.835l0,2.533c0,1.08 0.599,1.835 1.631,1.835c0.456,0 0.913,-0.192 1.201,-0.611c0.036,-0.036 0.06,-0.012 0.06,0.024l0,0.359c0,1.2 -0.397,1.897 -1.729,1.861c-0.073,0 -0.121,0.048 -0.121,0.12l0,0.515c0,0.072 0.036,0.12 0.121,0.132c1.956,0.084 2.579,-0.959 2.579,-2.556l0,-5.831c0,-0.072 -0.048,-0.12 -0.12,-0.12l-0.61,0c-0.072,0 -0.12,0.048 -0.12,0.12Zm-1.009,5.244c-0.6,0 -1.033,-0.468 -1.033,-1.14l0,-2.425c0,-0.684 0.433,-1.152 1.033,-1.152c0.6,0 1.009,0.468 1.009,1.152l0,2.425c0,0.672 -0.409,1.14 -1.009,1.14Z" style="fill:white;fill-rule:nonzero;"/>
            <path d="M13.005,154.999l0.611,0c0.072,0 0.12,-0.048 0.12,-0.12l0,-8.159c0,-0.072 -0.048,-0.12 -0.12,-0.12l-0.611,0c-0.072,0 -0.119,0.048 -0.119,0.12l0,8.159c0,0.072 0.047,0.12 0.119,0.12Z" style="fill:white;fill-rule:nonzero;"/>
            <path d="M17.493,148.844c-0.48,0 -0.937,0.18 -1.249,0.611c-0.024,0.036 -0.06,0.024 -0.06,-0.012l0,-0.395c0,-0.072 -0.048,-0.12 -0.12,-0.12l-0.611,0c-0.072,0 -0.119,0.048 -0.119,0.12l0,5.831c0,0.072 0.047,0.12 0.119,0.12l0.611,0c0.072,0 0.12,-0.048 0.12,-0.12l0,-3.996c0,-0.804 0.396,-1.296 1.033,-1.296c0.612,0 0.961,0.456 0.961,1.236l0,4.056c0,0.072 0.047,0.12 0.119,0.12l0.611,0c0.072,0 0.12,-0.048 0.12,-0.12l0,-4.128c0,-1.2 -0.551,-1.907 -1.535,-1.907Z" style="fill:white;fill-rule:nonzero;"/>
            <path d="M22.556,149.443l0,-0.395c0,-0.072 -0.048,-0.12 -0.12,-0.12l-0.912,0c-0.024,0 -0.048,-0.024 -0.048,-0.048l0,-1.344c0,-0.072 -0.048,-0.12 -0.12,-0.12l-0.599,0c-0.072,0 -0.119,0.048 -0.119,0.12l0,1.344c0,0.024 -0.024,0.048 -0.048,0.048l-0.468,0c-0.072,0 -0.12,0.048 -0.12,0.12l0,0.395c0,0.072 0.048,0.12 0.12,0.12l0.468,0c0.024,0 0.048,0.024 0.048,0.048l0,3.925c0,1.211 0.586,1.463 1.438,1.463l0.3,0c0.072,0 0.12,-0.048 0.12,-0.12l0,-0.515c0,-0.072 -0.048,-0.12 -0.12,-0.12l-0.12,0c-0.504,0.012 -0.78,-0.192 -0.78,-0.96l0,-3.673c0,-0.024 0.024,-0.048 0.048,-0.048l0.912,0c0.072,0 0.12,-0.048 0.12,-0.12Z" style="fill:white;fill-rule:nonzero;"/>
            <path d="M27.248,152.167l0,-1.5c0,-1.08 -0.719,-1.835 -1.883,-1.835c-1.141,0 -1.871,0.755 -1.871,1.835l0,2.592c0,1.105 0.73,1.836 1.871,1.836c1.057,0 1.715,-0.599 1.847,-1.536c0.012,-0.072 -0.036,-0.132 -0.108,-0.132l-0.599,-0.024c-0.072,0 -0.107,0.036 -0.131,0.108c-0.109,0.493 -0.481,0.841 -1.009,0.841c-0.601,0 -1.021,-0.468 -1.021,-1.141l0,-0.876c0,-0.024 0.024,-0.048 0.048,-0.048l2.736,0c0.072,0 0.12,-0.048 0.12,-0.12Zm-1.883,-2.592c0.624,0 1.045,0.468 1.045,1.152l0,0.805c0,0.024 -0.024,0.048 -0.048,0.048l-1.97,0c-0.024,0 -0.048,-0.024 -0.048,-0.048l0,-0.805c0,-0.684 0.42,-1.152 1.021,-1.152Z" style="fill:white;fill-rule:nonzero;"/>
            <path d="M30.669,148.844c-0.48,0 -0.937,0.18 -1.249,0.611c-0.024,0.036 -0.06,0.024 -0.06,-0.012l0,-0.395c0,-0.072 -0.048,-0.12 -0.12,-0.12l-0.611,0c-0.072,0 -0.119,0.048 -0.119,0.12l0,5.831c0,0.072 0.047,0.12 0.119,0.12l0.611,0c0.072,0 0.12,-0.048 0.12,-0.12l0,-3.996c0,-0.804 0.396,-1.296 1.033,-1.296c0.612,0 0.961,0.456 0.961,1.236l0,4.056c0,0.072 0.047,0.12 0.119,0.12l0.611,0c0.072,0 0.12,-0.048 0.12,-0.12l0,-4.128c0,-1.2 -0.551,-1.907 -1.535,-1.907Z" style="fill:white;fill-rule:nonzero;"/>
            <path d="M35.181,155.059c1.116,0 1.823,-0.635 1.823,-1.631c0,-1.129 -0.91,-1.513 -1.607,-1.813c-0.625,-0.264 -1.177,-0.492 -1.177,-1.116c0,-0.516 0.36,-0.936 0.949,-0.936c0.588,0 0.973,0.408 0.973,0.936l0,0.096c0,0.06 0.047,0.096 0.119,0.096l0.551,0c0.072,0 0.12,-0.048 0.12,-0.12l0,-0.036c0,-0.996 -0.671,-1.667 -1.775,-1.667c-1.057,0 -1.751,0.623 -1.751,1.655c0,1.14 0.85,1.5 1.523,1.776c0.612,0.265 1.225,0.493 1.225,1.165c0,0.54 -0.373,0.936 -0.961,0.936c-0.613,0 -1.021,-0.408 -1.021,-0.912l0,-0.096c0,-0.06 -0.048,-0.096 -0.12,-0.096l-0.575,0c-0.072,0 -0.119,0.048 -0.119,0.12l0,0.084c0,0.936 0.706,1.559 1.823,1.559Z" style="fill:white;fill-rule:nonzero;"/>
            <path d="M38.577,147.847c0.335,0 0.575,-0.264 0.575,-0.636c0,-0.347 -0.24,-0.611 -0.575,-0.611c-0.348,0 -0.599,0.264 -0.599,0.611c0,0.372 0.251,0.636 0.599,0.636Zm-0.312,7.152l0.611,0c0.072,0 0.12,-0.048 0.12,-0.12l0,-5.831c0,-0.072 -0.048,-0.12 -0.12,-0.12l-0.611,0c-0.072,0 -0.119,0.048 -0.119,0.12l0,5.831c0,0.072 0.047,0.12 0.119,0.12Z" style="fill:white;fill-rule:nonzero;"/>
            <path d="M42.644,149.443l0,-0.395c0,-0.072 -0.048,-0.12 -0.12,-0.12l-0.912,0c-0.024,0 -0.048,-0.024 -0.048,-0.048l0,-1.344c0,-0.072 -0.048,-0.12 -0.12,-0.12l-0.599,0c-0.072,0 -0.119,0.048 -0.119,0.12l0,1.344c0,0.024 -0.024,0.048 -0.048,0.048l-0.468,0c-0.072,0 -0.12,0.048 -0.12,0.12l0,0.395c0,0.072 0.048,0.12 0.12,0.12l0.468,0c0.024,0 0.048,0.024 0.048,0.048l0,3.925c0,1.211 0.586,1.463 1.438,1.463l0.3,0c0.072,0 0.12,-0.048 0.12,-0.12l0,-0.515c0,-0.072 -0.048,-0.12 -0.12,-0.12l-0.12,0c-0.504,0.012 -0.78,-0.192 -0.78,-0.96l0,-3.673c0,-0.024 0.024,-0.048 0.048,-0.048l0.912,0c0.072,0 0.12,-0.048 0.12,-0.12Z" style="fill:white;fill-rule:nonzero;"/>
            <path d="M43.515,157.399l0.06,0c1.187,0 1.511,-0.336 1.919,-1.871l1.667,-6.456c0.024,-0.072 -0.012,-0.132 -0.096,-0.132l-0.672,-0.012c-0.071,0 -0.119,0.036 -0.131,0.108l-1.044,4.716c-0.012,0.048 -0.036,0.048 -0.048,0l-1.056,-4.716c-0.012,-0.072 -0.06,-0.108 -0.132,-0.108l-0.647,0c-0.084,0 -0.132,0.048 -0.108,0.132l1.523,5.904c0,0.024 0.012,0.048 0,0.072c-0.252,1.344 -0.468,1.632 -1.187,1.632l-0.06,0c-0.036,0 -0.06,0.048 -0.06,0.12l0,0.491c0,0.072 0.036,0.12 0.072,0.12Z" style="fill:white;fill-rule:nonzero;"/>
            <path d="M27.71,307.592l0.458,0c0.054,0 0.09,-0.036 0.09,-0.09l0,-5.004c0,-0.054 -0.036,-0.09 -0.09,-0.09l-0.458,0c-0.054,0 -0.09,0.036 -0.09,0.09l0,5.004c0,0.054 0.036,0.09 0.09,0.09Z" style="fill:white;fill-rule:nonzero;"/>
            <path d="M29.609,307.592l0.449,0c0.054,0 0.09,-0.036 0.09,-0.09l0,-3.753c0,-0.036 0.036,-0.045 0.045,-0.009l1.522,3.78c0.018,0.054 0.054,0.072 0.099,0.072l0.476,0c0.054,0 0.09,-0.036 0.09,-0.09l0,-5.004c0,-0.054 -0.036,-0.09 -0.09,-0.09l-0.449,0c-0.054,0 -0.09,0.036 -0.09,0.09l0,3.744c0,0.036 -0.036,0.045 -0.045,0.009l-1.531,-3.771c-0.018,-0.054 -0.054,-0.072 -0.099,-0.072l-0.467,0c-0.054,0 -0.09,0.036 -0.09,0.09l0,5.004c0,0.054 0.036,0.09 0.09,0.09Z" style="fill:white;fill-rule:nonzero;"/>
            <path d="M26.207,347.659c0.838,0 1.404,-0.539 1.404,-1.43l0,-2.449c0,-0.9 -0.566,-1.439 -1.404,-1.439c-0.846,0 -1.403,0.539 -1.403,1.439l0,2.449c0,0.891 0.557,1.43 1.403,1.43Zm0,-0.557c-0.45,0 -0.765,-0.306 -0.765,-0.837l0,-2.512c0,-0.54 0.315,-0.846 0.765,-0.846c0.46,0 0.766,0.306 0.766,0.846l0,2.512c0,0.531 -0.306,0.837 -0.766,0.837Z" style="fill:white;fill-rule:nonzero;"/>
            <path d="M30.095,347.659c0.847,0 1.395,-0.584 1.395,-1.538l0,-3.618c0,-0.054 -0.036,-0.09 -0.09,-0.09l-0.458,0c-0.054,0 -0.09,0.036 -0.09,0.09l0,3.672c0,0.576 -0.297,0.927 -0.757,0.927c-0.45,0 -0.747,-0.351 -0.747,-0.927l0,-3.672c0,-0.054 -0.036,-0.09 -0.09,-0.09l-0.458,0c-0.054,0 -0.09,0.036 -0.09,0.09l0,3.618c0,0.954 0.557,1.538 1.385,1.538Z" style="fill:white;fill-rule:nonzero;"/>
            <path d="M35.18,342.404l-2.717,0c-0.054,0 -0.09,0.036 -0.09,0.09l0,0.386c0,0.054 0.036,0.09 0.09,0.09l0.972,0c0.018,0 0.036,0.018 0.036,0.036l0,4.5c0,0.054 0.036,0.09 0.09,0.09l0.458,0c0.054,0 0.09,-0.036 0.09,-0.09l0,-4.5c0,-0.018 0.018,-0.036 0.036,-0.036l1.035,0c0.054,0 0.09,-0.036 0.09,-0.09l0,-0.386c0,-0.054 -0.036,-0.09 -0.09,-0.09Z" style="fill:white;fill-rule:nonzero;"/>
            <path d="M15.709,267.596l0.458,0c0.054,0 0.09,-0.036 0.09,-0.09l0,-5.004c0,-0.054 -0.036,-0.09 -0.09,-0.09l-0.458,0c-0.054,0 -0.09,0.036 -0.09,0.09l0,5.004c0,0.054 0.036,0.09 0.09,0.09Z" style="fill:white;fill-rule:nonzero;"/>
            <path d="M17.608,267.596l0.449,0c0.054,0 0.09,-0.036 0.09,-0.09l0,-3.753c0,-0.036 0.036,-0.045 0.045,-0.009l1.522,3.78c0.018,0.054 0.054,0.072 0.099,0.072l0.476,0c0.054,0 0.09,-0.036 0.09,-0.09l0,-5.004c0,-0.054 -0.036,-0.09 -0.09,-0.09l-0.449,0c-0.054,0 -0.09,0.036 -0.09,0.09l0,3.744c0,0.036 -0.036,0.045 -0.045,0.009l-1.531,-3.771c-0.018,-0.054 -0.054,-0.072 -0.099,-0.072l-0.467,0c-0.054,0 -0.09,0.036 -0.09,0.09l0,5.004c0,0.054 0.036,0.09 0.09,0.09Z" style="fill:white;fill-rule:nonzero;"/>
            <path d="M24.114,262.404l-2.717,0c-0.054,0 -0.09,0.036 -0.09,0.09l0,0.386c0,0.054 0.036,0.09 0.09,0.09l0.972,0c0.018,0 0.036,0.018 0.036,0.036l0,4.5c0,0.054 0.036,0.09 0.09,0.09l0.458,0c0.054,0 0.09,-0.036 0.09,-0.09l0,-4.5c0,-0.018 0.018,-0.036 0.036,-0.036l1.035,0c0.054,0 0.09,-0.036 0.09,-0.09l0,-0.386c0,-0.054 -0.036,-0.09 -0.09,-0.09Z" style="fill:white;fill-rule:nonzero;"/>
            <path d="M27.696,262.88l0,-0.377c0,-0.054 -0.036,-0.09 -0.09,-0.09l-2.393,0c-0.054,0 -0.09,0.036 -0.09,0.09l0,5.003c0,0.054 0.036,0.09 0.09,0.09l2.393,0c0.054,0 0.09,-0.036 0.09,-0.09l0,-0.377c0,-0.054 -0.036,-0.09 -0.09,-0.09l-1.809,0c-0.018,0 -0.036,-0.018 -0.036,-0.036l0,-1.693c0,-0.018 0.018,-0.036 0.036,-0.036l1.116,0c0.054,0 0.09,-0.036 0.09,-0.09l0,-0.377c0,-0.054 -0.036,-0.09 -0.09,-0.09l-1.116,0c-0.018,0 -0.036,-0.018 -0.036,-0.036l0,-1.675c0,-0.018 0.018,-0.036 0.036,-0.036l1.809,0c0.054,0 0.09,-0.036 0.09,-0.09Z" style="fill:white;fill-rule:nonzero;"/>
            <path d="M28.813,267.596l0.449,0c0.054,0 0.09,-0.036 0.09,-0.09l0,-3.753c0,-0.036 0.036,-0.045 0.045,-0.009l1.522,3.78c0.018,0.054 0.054,0.072 0.099,0.072l0.476,0c0.054,0 0.09,-0.036 0.09,-0.09l0,-5.004c0,-0.054 -0.036,-0.09 -0.09,-0.09l-0.449,0c-0.054,0 -0.09,0.036 -0.09,0.09l0,3.744c0,0.036 -0.036,0.045 -0.045,0.009l-1.531,-3.771c-0.018,-0.054 -0.054,-0.072 -0.099,-0.072l-0.467,0c-0.054,0 -0.09,0.036 -0.09,0.09l0,5.004c0,0.054 0.036,0.09 0.09,0.09Z" style="fill:white;fill-rule:nonzero;"/>
            <path d="M34.041,267.659c0.802,0 1.377,-0.53 1.377,-1.367c0,-0.711 -0.414,-1.026 -1.224,-1.585c-0.63,-0.441 -0.882,-0.639 -0.882,-1.062c0,-0.486 0.297,-0.747 0.693,-0.747c0.441,0 0.73,0.324 0.73,0.819l0,0.126c0,0.054 0.036,0.09 0.09,0.09l0.449,0c0.054,0 0.09,-0.036 0.09,-0.09l0,-0.144c0,-0.801 -0.539,-1.358 -1.359,-1.358c-0.774,0 -1.322,0.485 -1.322,1.295c0,0.792 0.539,1.17 1.169,1.594c0.567,0.378 0.928,0.612 0.928,1.098c0,0.468 -0.316,0.783 -0.739,0.783c-0.423,0 -0.72,-0.324 -0.72,-0.837l0,-0.09c0,-0.054 -0.036,-0.09 -0.09,-0.09l-0.449,0c-0.054,0 -0.09,0.036 -0.09,0.09l0,0.153c0,0.783 0.548,1.322 1.349,1.322Z" style="fill:white;fill-rule:nonzero;"/>
            <path d="M36.553,267.596l0.458,0c0.054,0 0.09,-0.036 0.09,-0.09l0,-5.004c0,-0.054 -0.036,-0.09 -0.09,-0.09l-0.458,0c-0.054,0 -0.09,0.036 -0.09,0.09l0,5.004c0,0.054 0.036,0.09 0.09,0.09Z" style="fill:white;fill-rule:nonzero;"/>
            <path d="M40.836,262.404l-2.717,0c-0.054,0 -0.09,0.036 -0.09,0.09l0,0.386c0,0.054 0.036,0.09 0.09,0.09l0.972,0c0.018,0 0.036,0.018 0.036,0.036l0,4.5c0,0.054 0.036,0.09 0.09,0.09l0.458,0c0.054,0 0.09,-0.036 0.09,-0.09l0,-4.5c0,-0.018 0.018,-0.036 0.036,-0.036l1.035,0c0.054,0 0.09,-0.036 0.09,-0.09l0,-0.386c0,-0.054 -0.036,-0.09 -0.09,-0.09Z" style="fill:white;fill-rule:nonzero;"/>
            <path d="M42.799,267.587l0.458,0c0.054,0 0.09,-0.036 0.09,-0.09l0,-2.133c0,-0.009 0,-0.036 0.009,-0.045l1.089,-2.807c0.027,-0.063 0,-0.108 -0.063,-0.108l-0.486,0c-0.045,0 -0.09,0.018 -0.108,0.072l-0.738,2.079c-0.009,0.027 -0.045,0.027 -0.054,0l-0.737,-2.079c-0.018,-0.054 -0.063,-0.072 -0.108,-0.072l-0.486,0c-0.063,0 -0.09,0.045 -0.063,0.108l1.098,2.807c0.009,0.009 0.009,0.036 0.009,0.045l0,2.133c0,0.054 0.036,0.09 0.09,0.09Z" style="fill:white;fill-rule:nonzero;"/>
            <path d="M20.254,227.596l0.477,0c0.054,0 0.09,-0.036 0.099,-0.081l1.16,-5.013c0.018,-0.054 -0.009,-0.099 -0.072,-0.099l-0.486,0c-0.054,0 -0.09,0.027 -0.099,0.081l-0.8,3.988c-0.009,0.036 -0.027,0.036 -0.036,0l-0.827,-3.987c-0.009,-0.054 -0.045,-0.081 -0.099,-0.081l-0.504,0c-0.063,0 -0.09,0.045 -0.072,0.099l1.16,5.012c0.009,0.045 0.045,0.081 0.099,0.081Z" style="fill:white;fill-rule:nonzero;"/>
            <path d="M24.2,227.659c0.838,0 1.404,-0.539 1.404,-1.43l0,-2.449c0,-0.9 -0.566,-1.439 -1.404,-1.439c-0.846,0 -1.403,0.539 -1.403,1.439l0,2.449c0,0.891 0.557,1.43 1.403,1.43Zm0,-0.557c-0.45,0 -0.765,-0.306 -0.765,-0.837l0,-2.512c0,-0.54 0.315,-0.846 0.765,-0.846c0.46,0 0.766,0.306 0.766,0.846l0,2.512c0,0.531 -0.306,0.837 -0.766,0.837Z" style="fill:white;fill-rule:nonzero;"/>
            <path d="M26.838,227.596l0.458,0c0.054,0 0.09,-0.036 0.09,-0.09l0,-5.004c0,-0.054 -0.036,-0.09 -0.09,-0.09l-0.458,0c-0.054,0 -0.09,0.036 -0.09,0.09l0,5.004c0,0.054 0.036,0.09 0.09,0.09Z" style="fill:white;fill-rule:nonzero;"/>
            <path d="M29.915,227.659c0.838,0 1.395,-0.521 1.395,-1.412l0,-0.09c0,-0.054 -0.036,-0.09 -0.09,-0.09l-0.467,-0.027c-0.054,0 -0.09,0.036 -0.09,0.09l0,0.171c0,0.504 -0.297,0.801 -0.748,0.801c-0.45,0 -0.747,-0.297 -0.747,-0.801l0,-2.602c0,-0.504 0.297,-0.792 0.747,-0.792c0.451,0 0.748,0.288 0.748,0.792l0,0.18c0,0.054 0.036,0.09 0.09,0.09l0.467,-0.027c0.054,0 0.09,-0.036 0.09,-0.09l0,-0.099c0,-0.9 -0.557,-1.412 -1.395,-1.412c-0.828,0 -1.385,0.512 -1.385,1.412l0,2.494c0,0.891 0.557,1.412 1.385,1.412Z" style="fill:white;fill-rule:nonzero;"/>
            <path d="M32.499,227.596l0.458,0c0.054,0 0.09,-0.036 0.09,-0.09l0,-5.004c0,-0.054 -0.036,-0.09 -0.09,-0.09l-0.458,0c-0.054,0 -0.09,0.036 -0.09,0.09l0,5.004c0,0.054 0.036,0.09 0.09,0.09Z" style="fill:white;fill-rule:nonzero;"/>
            <path d="M34.398,227.596l0.449,0c0.054,0 0.09,-0.036 0.09,-0.09l0,-3.753c0,-0.036 0.036,-0.045 0.045,-0.009l1.522,3.78c0.018,0.054 0.054,0.072 0.099,0.072l0.476,0c0.054,0 0.09,-0.036 0.09,-0.09l0,-5.004c0,-0.054 -0.036,-0.09 -0.09,-0.09l-0.449,0c-0.054,0 -0.09,0.036 -0.09,0.09l0,3.744c0,0.036 -0.036,0.045 -0.045,0.009l-1.531,-3.771c-0.018,-0.054 -0.054,-0.072 -0.099,-0.072l-0.467,0c-0.054,0 -0.09,0.036 -0.09,0.09l0,5.004c0,0.054 0.036,0.09 0.09,0.09Z" style="fill:white;fill-rule:nonzero;"/>
            <path d="M39.698,227.659c0.829,0 1.386,-0.503 1.386,-1.358l0,-1.233c0,-0.054 -0.036,-0.09 -0.09,-0.09l-1.16,0c-0.054,0 -0.091,0.036 -0.091,0.09l0,0.287c0,0.054 0.037,0.09 0.091,0.09l0.576,0c0.018,0 0.036,0.018 0.036,0.036l0,0.829c0,0.504 -0.297,0.792 -0.748,0.792c-0.45,0 -0.747,-0.288 -0.747,-0.792l0,-2.62c0,-0.504 0.297,-0.783 0.747,-0.783c0.451,0 0.748,0.279 0.748,0.783l0,0.234c0,0.055 0.036,0.091 0.09,0.091l0.458,0c0.054,0 0.09,-0.036 0.09,-0.091l0,-0.216c0,-0.855 -0.557,-1.367 -1.386,-1.367c-0.828,0 -1.385,0.503 -1.385,1.358l0,2.602c0,0.855 0.557,1.358 1.385,1.358Z" style="fill:white;fill-rule:nonzero;"/>
        </g>
    </g>
</svg>
