<?xml version="1.0" encoding="UTF-8" standalone="no"?>
<!DOCTYPE svg PUBLIC "-//W3C//DTD SVG 1.1//EN" "http://www.w3.org/Graphics/SVG/1.1/DTD/svg11.dtd">
<svg width="60px" height="380px" version="1.1" xmlns="http://www.w3.org/2000/svg" xmlns:xlink="http://www.w3.org/1999/xlink" xml:space="preserve" xmlns:serif="http://www.serif.com/" style="fill-rule:evenodd;clip-rule:evenodd;stroke-linecap:round;stroke-linejoin:round;stroke-miterlimit:1.5;">
    <rect id="Interstage-Dark" serif:id="Interstage Dark" x="0" y="0" width="60" height="380" style="fill:none;"/>
    <clipPath id="_clip1">
        <rect x="0" y="0" width="60" height="380"/>
    </clipPath>
    <g clip-path="url(#_clip1)">
        <g id="Background">
            <path id="bright" d="M60,379.995l0,-379.995l-60,0l0,379.995l60,0Z" style="fill:rgb(54,69,74);"/>
            <circle cx="30" cy="325" r="14" style="fill:rgb(51,51,51);"/>
            <circle cx="30" cy="285" r="14" style="fill:rgb(51,51,51);"/>
        </g>
        <g id="Lables">
            <g id="Branding">
                <path d="M12.357,362.45l0.545,0c0.049,0 0.07,-0.028 0.056,-0.077l-0.72,-2.163c-0.007,-0.021 0,-0.028 0.014,-0.042c0.419,-0.182 0.685,-0.637 0.685,-1.232c0,-0.826 -0.482,-1.393 -1.203,-1.393l-1.253,0c-0.042,0 -0.07,0.028 -0.07,0.07l0,4.767c0,0.042 0.028,0.07 0.07,0.07l0.531,0c0.042,0 0.07,-0.028 0.07,-0.07l0,-2.079c0,-0.014 0.014,-0.028 0.028,-0.028l0.483,0c0.014,0 0.021,0 0.028,0.021l0.652,2.1c0.014,0.035 0.049,0.056 0.084,0.056Zm-1.247,-4.326l0.518,0c0.379,0 0.638,0.315 0.638,0.819c0,0.49 -0.259,0.805 -0.638,0.805l-0.518,0c-0.014,0 -0.028,-0.014 -0.028,-0.028l0,-1.568c0,-0.014 0.014,-0.028 0.028,-0.028Z" style="fill:rgb(199,206,201);fill-rule:nonzero;"/>
                <path d="M16.045,362.45l0.546,0c0.049,0 0.07,-0.035 0.063,-0.077l-1.057,-4.76c-0.007,-0.042 -0.035,-0.063 -0.077,-0.063l-0.615,0c-0.042,0 -0.07,0.021 -0.077,0.063l-1.043,4.76c-0.007,0.042 0.014,0.077 0.063,0.077l0.532,0c0.042,0 0.07,-0.021 0.077,-0.063l0.161,-0.805c0,-0.014 0.021,-0.028 0.035,-0.028l1.126,0c0.014,0 0.035,0.014 0.035,0.028l0.154,0.805c0.007,0.042 0.035,0.063 0.077,0.063Zm-1.308,-1.456l0.476,-2.394c0.006,-0.028 0.02,-0.028 0.027,0l0.462,2.394c0,0.014 -0.007,0.028 -0.021,0.028l-0.923,0c-0.014,0 -0.021,-0.014 -0.021,-0.028Z" style="fill:rgb(199,206,201);fill-rule:nonzero;"/>
                <path d="M18.719,362.506c0.764,0 1.267,-0.497 1.267,-1.267l0,-0.105c0,-0.042 -0.028,-0.07 -0.07,-0.07l-0.531,-0.028c-0.042,0 -0.07,0.028 -0.07,0.07l0,0.182c0,0.378 -0.238,0.637 -0.596,0.637c-0.357,0 -0.588,-0.259 -0.588,-0.637l0,-2.576c0,-0.385 0.231,-0.637 0.588,-0.637c0.358,0 0.596,0.252 0.596,0.637l0,0.182c0,0.042 0.028,0.07 0.07,0.07l0.531,-0.028c0.042,0 0.07,-0.028 0.07,-0.07l0,-0.112c0,-0.77 -0.503,-1.26 -1.267,-1.26c-0.756,0 -1.259,0.49 -1.259,1.26l0,2.485c0,0.77 0.503,1.267 1.259,1.267Z" style="fill:rgb(199,206,201);fill-rule:nonzero;"/>
                <path d="M21.142,362.45l0.531,0c0.042,0 0.07,-0.028 0.07,-0.07l0,-1.575c0,-0.014 0,-0.028 0.007,-0.035l0.357,-0.567c0.014,-0.014 0.028,-0.014 0.035,0.007l0.91,2.184c0.014,0.042 0.042,0.056 0.077,0.056l0.581,0c0.049,0 0.077,-0.035 0.056,-0.084l-1.169,-2.744c-0.007,-0.014 -0.007,-0.028 0,-0.042l1.078,-1.946c0.028,-0.049 0.007,-0.084 -0.049,-0.084l-0.574,0c-0.035,0 -0.063,0.021 -0.084,0.049l-1.19,2.128c-0.014,0.028 -0.035,0.021 -0.035,-0.007l0,-2.1c0,-0.042 -0.028,-0.07 -0.07,-0.07l-0.531,0c-0.042,0 -0.07,0.028 -0.07,0.07l0,4.76c0,0.042 0.028,0.07 0.07,0.07Z" style="fill:rgb(199,206,201);fill-rule:nonzero;"/>
                <path d="M25.44,362.45l0.497,0c0.042,0 0.063,-0.014 0.07,-0.063l0.503,-3.311c0,-0.021 0.021,-0.021 0.028,0l0.532,3.311c0.007,0.042 0.028,0.063 0.07,0.063l0.497,0c0.042,0 0.07,-0.021 0.077,-0.063l0.882,-4.76c0.007,-0.042 -0.014,-0.077 -0.063,-0.077l-0.546,0c-0.042,0 -0.063,0.021 -0.07,0.063l-0.518,3.283c-0.007,0.021 -0.021,0.021 -0.028,0l-0.539,-3.283c-0.007,-0.042 -0.028,-0.063 -0.07,-0.063l-0.468,0c-0.042,0 -0.063,0.014 -0.07,0.063l-0.504,3.283c-0.007,0.021 -0.021,0.021 -0.028,0l-0.567,-3.283c-0.007,-0.042 -0.035,-0.063 -0.077,-0.063l-0.553,0c-0.049,0 -0.07,0.035 -0.063,0.077l0.931,4.76c0.007,0.042 0.035,0.063 0.077,0.063Z" style="fill:rgb(199,206,201);fill-rule:nonzero;"/>
                <path d="M29.626,362.45l0.531,0c0.042,0 0.07,-0.028 0.07,-0.07l0,-4.76c0,-0.042 -0.028,-0.07 -0.07,-0.07l-0.531,0c-0.042,0 -0.07,0.028 -0.07,0.07l0,4.76c0,0.042 0.028,0.07 0.07,0.07Z" style="fill:rgb(199,206,201);fill-rule:nonzero;"/>
                <path d="M31.523,362.45l0.525,0c0.042,0 0.07,-0.028 0.07,-0.07l-0.007,-3.073c0,-0.028 0.028,-0.028 0.035,0l1.246,3.087c0.014,0.042 0.042,0.056 0.077,0.056l0.546,0c0.042,0 0.07,-0.028 0.07,-0.07l0,-4.76c0,-0.042 -0.028,-0.07 -0.07,-0.07l-0.525,0c-0.042,0 -0.07,0.028 -0.07,0.07l0,3.066c0,0.028 -0.028,0.035 -0.035,0.007l-1.246,-3.087c-0.014,-0.042 -0.042,-0.056 -0.077,-0.056l-0.539,0c-0.042,0 -0.07,0.028 -0.07,0.07l0,4.76c0,0.042 0.028,0.07 0.07,0.07Z" style="fill:rgb(199,206,201);fill-rule:nonzero;"/>
                <path d="M35.373,362.45l1.147,0c0.771,0 1.267,-0.511 1.267,-1.323l0,-2.254c0,-0.812 -0.496,-1.323 -1.267,-1.323l-1.147,0c-0.042,0 -0.07,0.028 -0.07,0.07l0,4.76c0,0.042 0.028,0.07 0.07,0.07Zm0.601,-0.609l0,-3.682c0,-0.014 0.014,-0.028 0.028,-0.028l0.511,0c0.365,0 0.596,0.301 0.596,0.777l0,2.184c-0.007,0.476 -0.238,0.77 -0.596,0.77l-0.511,0.007c-0.014,0 -0.028,-0.014 -0.028,-0.028Z" style="fill:rgb(199,206,201);fill-rule:nonzero;"/>
                <path d="M40.111,362.506c0.771,0 1.288,-0.504 1.288,-1.281l0,-2.443c0,-0.777 -0.517,-1.288 -1.288,-1.288c-0.763,0 -1.273,0.511 -1.273,1.288l0,2.443c0,0.777 0.51,1.281 1.273,1.281Zm0,-0.581c-0.364,0 -0.602,-0.273 -0.602,-0.672l0,-2.506c0,-0.399 0.238,-0.672 0.602,-0.672c0.372,0 0.617,0.273 0.617,0.672l0,2.506c0,0.399 -0.245,0.672 -0.617,0.672Z" style="fill:rgb(199,206,201);fill-rule:nonzero;"/>
                <path d="M43.192,362.45l0.497,0c0.042,0 0.063,-0.014 0.07,-0.063l0.503,-3.311c0,-0.021 0.021,-0.021 0.028,0l0.532,3.311c0.007,0.042 0.028,0.063 0.07,0.063l0.497,0c0.042,0 0.07,-0.021 0.077,-0.063l0.882,-4.76c0.007,-0.042 -0.014,-0.077 -0.063,-0.077l-0.546,0c-0.042,0 -0.063,0.021 -0.07,0.063l-0.518,3.283c-0.007,0.021 -0.021,0.021 -0.028,0l-0.539,-3.283c-0.007,-0.042 -0.028,-0.063 -0.07,-0.063l-0.468,0c-0.042,0 -0.063,0.014 -0.07,0.063l-0.504,3.283c-0.007,0.021 -0.021,0.021 -0.028,0l-0.567,-3.283c-0.007,-0.042 -0.035,-0.063 -0.077,-0.063l-0.553,0c-0.049,0 -0.07,0.035 -0.063,0.077l0.931,4.76c0.007,0.042 0.035,0.063 0.077,0.063Z" style="fill:rgb(199,206,201);fill-rule:nonzero;"/>
                <path d="M48.343,362.506c0.729,0 1.246,-0.504 1.246,-1.295c0,-0.672 -0.37,-0.966 -1.084,-1.498c-0.54,-0.399 -0.743,-0.588 -0.743,-0.987c0,-0.42 0.231,-0.651 0.546,-0.651c0.344,0 0.582,0.28 0.582,0.7l0,0.189c0,0.042 0.028,0.07 0.07,0.07l0.517,0c0.042,0 0.07,-0.028 0.07,-0.07l0,-0.175c0,-0.777 -0.489,-1.295 -1.239,-1.295c-0.707,0 -1.21,0.469 -1.21,1.232c0,0.763 0.503,1.134 1.042,1.533c0.505,0.371 0.785,0.567 0.785,0.994c0,0.406 -0.252,0.672 -0.582,0.672c-0.336,0 -0.574,-0.273 -0.574,-0.707l0,-0.154c0,-0.042 -0.028,-0.07 -0.07,-0.07l-0.517,0c-0.042,0 -0.07,0.028 -0.07,0.07l0,0.189c0,0.749 0.496,1.253 1.231,1.253Z" style="fill:rgb(199,206,201);fill-rule:nonzero;"/>
                <path d="M29.999,75.857l0,-1.103c0,-0.084 -0.06,-0.144 -0.144,-0.144l-8.11,0c-0.084,0 -0.144,0.06 -0.144,0.144l0,1.103c0,0.084 0.06,0.144 0.144,0.144l8.11,0c0.084,0 0.144,-0.06 0.144,-0.144Z" style="fill:white;fill-rule:nonzero;"/>
                <path d="M30,73.037l0,-1.08c0,-0.084 -0.06,-0.144 -0.144,-0.144l-4.848,0.012c-0.048,0 -0.06,-0.048 -0.012,-0.072l4.896,-1.872c0.072,-0.024 0.108,-0.084 0.108,-0.168l0,-1.164c0,-0.084 -0.06,-0.144 -0.144,-0.144l-8.112,0c-0.084,0 -0.144,0.06 -0.144,0.144l0,1.092c0,0.084 0.06,0.144 0.144,0.144l4.836,0c0.06,0 0.06,0.048 0.012,0.072l-4.884,1.86c-0.072,0.024 -0.108,0.084 -0.108,0.168l0,1.152c0,0.084 0.06,0.144 0.144,0.144l8.112,0c0.084,0 0.144,-0.06 0.144,-0.144Z" style="fill:white;fill-rule:nonzero;"/>
                <path d="M21.601,62.682l0,4.475c0,0.084 0.06,0.144 0.144,0.144l0.91,0c0.084,0 0.144,-0.06 0.144,-0.144l0,-1.44c0,-0.036 0.024,-0.06 0.06,-0.06l6.996,0c0.084,0 0.144,-0.06 0.144,-0.144l0,-1.103c0,-0.084 -0.06,-0.144 -0.144,-0.144l-6.996,0c-0.036,0 -0.06,-0.024 -0.06,-0.06l0,-1.524c0,-0.084 -0.06,-0.144 -0.144,-0.144l-0.91,0c-0.084,0 -0.144,0.06 -0.144,0.144Z" style="fill:white;fill-rule:nonzero;"/>
                <path d="M22.655,57.258l-0.91,0c-0.084,0 -0.144,0.06 -0.144,0.144l0,3.899c0,0.084 0.06,0.144 0.144,0.144l8.11,0c0.084,0 0.144,-0.06 0.144,-0.144l0,-3.899c0,-0.084 -0.06,-0.144 -0.144,-0.144l-0.91,0c-0.084,0 -0.144,0.06 -0.144,0.144l0,2.592c0,0.036 -0.024,0.06 -0.06,0.06l-2.282,0c-0.036,0 -0.06,-0.024 -0.06,-0.06l0,-1.536c0,-0.084 -0.06,-0.144 -0.144,-0.144l-0.922,0c-0.084,0 -0.144,0.06 -0.144,0.144l0,1.536c0,0.036 -0.024,0.06 -0.06,0.06l-2.27,0c-0.036,0 -0.06,-0.024 -0.06,-0.06l0,-2.592c0,-0.084 -0.06,-0.144 -0.144,-0.144Z" style="fill:white;fill-rule:nonzero;"/>
                <path d="M29.999,52.781l0,-1.151c0,-0.096 -0.06,-0.156 -0.168,-0.12l-3.612,1.175c-0.035,0.012 -0.059,0 -0.071,-0.036c-0.36,-0.683 -1.115,-1.091 -2.112,-1.091c-1.452,0 -2.447,0.863 -2.447,2.147l0,2.256c0,0.084 0.06,0.144 0.144,0.144l8.122,0c0.084,0 0.144,-0.06 0.144,-0.144l0,-1.103c0,-0.084 -0.06,-0.144 -0.144,-0.144l-3.42,0c-0.036,0 -0.06,-0.024 -0.06,-0.06l0,-0.625c0,-0.036 0.024,-0.048 0.048,-0.06l3.456,-1.032c0.072,-0.024 0.12,-0.072 0.12,-0.156Zm-7.212,1.873l0,-0.733c0,-0.576 0.481,-0.972 1.273,-0.972c0.768,0 1.237,0.396 1.237,0.972l0,0.733c0,0.036 -0.024,0.06 -0.06,0.06l-2.39,0c-0.036,0 -0.06,-0.024 -0.06,-0.06Z" style="fill:white;fill-rule:nonzero;"/>
                <path d="M30.095,48.365c0,-1.308 -0.875,-2.231 -2.255,-2.231c-1.176,0 -1.692,0.659 -2.604,1.883c-0.66,0.889 -0.96,1.213 -1.561,1.213c-0.624,0 -0.972,-0.348 -0.972,-0.805c0,-0.504 0.408,-0.852 1.032,-0.852l0.313,0c0.084,0 0.144,-0.06 0.144,-0.144l0,-1.091c0,-0.084 -0.06,-0.144 -0.144,-0.144l-0.289,0c-1.355,0 -2.254,0.887 -2.254,2.231c0,1.284 0.839,2.172 2.17,2.172c1.345,0 2.017,-0.911 2.677,-1.823c0.624,-0.841 0.924,-1.261 1.561,-1.261c0.6,0 0.984,0.36 0.984,0.852c0,0.481 -0.408,0.841 -1.045,0.841l-0.264,0c-0.084,0 -0.144,0.06 -0.144,0.144l0,1.079c0,0.084 0.06,0.144 0.144,0.144l0.337,0c1.283,0 2.17,-0.887 2.17,-2.208Z" style="fill:white;fill-rule:nonzero;"/>
                <path d="M21.601,40.806l0,4.475c0,0.084 0.06,0.144 0.144,0.144l0.91,0c0.084,0 0.144,-0.06 0.144,-0.144l0,-1.44c0,-0.036 0.024,-0.06 0.06,-0.06l6.996,0c0.084,0 0.144,-0.06 0.144,-0.144l0,-1.103c0,-0.084 -0.06,-0.144 -0.144,-0.144l-6.996,0c-0.036,0 -0.06,-0.024 -0.06,-0.06l0,-1.524c0,-0.084 -0.06,-0.144 -0.144,-0.144l-0.91,0c-0.084,0 -0.144,0.06 -0.144,0.144Z" style="fill:white;fill-rule:nonzero;"/>
                <path d="M29.999,36.574l0,-1.116c0,-0.096 -0.048,-0.156 -0.156,-0.132l-8.11,1.776c-0.084,0.012 -0.132,0.072 -0.132,0.156l0,1.284c0,0.084 0.048,0.144 0.132,0.156l8.11,1.764c0.108,0.024 0.156,-0.024 0.156,-0.12l0,-1.104c0,-0.084 -0.036,-0.144 -0.132,-0.156l-1.272,-0.24c-0.036,0 -0.048,-0.036 -0.048,-0.072l0,-1.74c0,-0.036 0.024,-0.072 0.06,-0.072l1.26,-0.228c0.096,-0.012 0.132,-0.072 0.132,-0.156Zm-2.602,2.028l-3.626,-0.696c-0.048,-0.012 -0.048,-0.06 0,-0.072l3.626,-0.66c0.048,-0.012 0.06,0.024 0.06,0.06l0,1.308c0,0.036 -0.012,0.072 -0.06,0.06Z" style="fill:white;fill-rule:nonzero;"/>
                <path d="M30.095,32.297c0,-1.356 -0.851,-2.279 -2.171,-2.279l-2.219,0c-0.084,0 -0.144,0.06 -0.144,0.144l0,2.039c0,0.084 0.06,0.144 0.144,0.144l0.874,0c0.084,0 0.144,-0.06 0.144,-0.144l0,-0.732c0,-0.036 0.024,-0.06 0.06,-0.06l1.153,0c0.576,0 0.961,0.36 0.961,0.888c0,0.529 -0.385,0.877 -0.961,0.877l-4.272,0c-0.577,0 -0.961,-0.348 -0.961,-0.877c0,-0.528 0.384,-0.888 0.961,-0.888l0.492,0c0.084,0 0.144,-0.06 0.144,-0.144l0,-1.103c0,-0.084 -0.06,-0.144 -0.144,-0.144l-0.468,0c-1.332,0 -2.183,0.923 -2.183,2.279c0,1.356 0.851,2.256 2.171,2.256l4.248,0c1.32,0 2.171,-0.9 2.171,-2.256Z" style="fill:white;fill-rule:nonzero;"/>
                <path d="M22.655,24.618l-0.91,0c-0.084,0 -0.144,0.06 -0.144,0.144l0,3.899c0,0.084 0.06,0.144 0.144,0.144l8.11,0c0.084,0 0.144,-0.06 0.144,-0.144l0,-3.899c0,-0.084 -0.06,-0.144 -0.144,-0.144l-0.91,0c-0.084,0 -0.144,0.06 -0.144,0.144l0,2.592c0,0.036 -0.024,0.06 -0.06,0.06l-2.282,0c-0.036,0 -0.06,-0.024 -0.06,-0.06l0,-1.536c0,-0.084 -0.06,-0.144 -0.144,-0.144l-0.922,0c-0.084,0 -0.144,0.06 -0.144,0.144l0,1.536c0,0.036 -0.024,0.06 -0.06,0.06l-2.27,0c-0.036,0 -0.06,-0.024 -0.06,-0.06l0,-2.592c0,-0.084 -0.06,-0.144 -0.144,-0.144Z" style="fill:white;fill-rule:nonzero;"/>
                <path d="M39.836,63.825l0,-0.45c0,-0.063 -0.045,-0.099 -0.099,-0.09l-6.119,0.576c-0.054,0 -0.081,0.027 -0.081,0.081l0,0.522c0,0.054 0.027,0.09 0.081,0.108l6.119,2.07c0.054,0.018 0.099,0 0.099,-0.063l0,-0.45c0,-0.054 -0.027,-0.09 -0.081,-0.108l-1.116,-0.36c-0.018,0 -0.036,-0.027 -0.036,-0.045l0,-1.584c0,-0.018 0.018,-0.036 0.036,-0.036l1.116,-0.081c0.054,0 0.081,-0.036 0.081,-0.09Zm-1.79,1.638l-3.465,-1.125c-0.036,-0.009 -0.036,-0.027 0,-0.027l3.465,-0.27c0.018,0 0.036,0.018 0.036,0.036l0,1.368c0,0.018 -0.018,0.027 -0.036,0.018Z" style="fill:rgb(199,206,201);fill-rule:nonzero;"/>
                <path d="M35.22,60.322c0,0.351 0.135,0.702 0.458,0.954c0.027,0.027 0.018,0.054 -0.009,0.054l-0.296,-0.045c-0.054,0 -0.09,0.027 -0.09,0.081l0,0.441c0,0.054 0.036,0.099 0.09,0.099l4.373,0.54c0.054,0.009 0.09,-0.027 0.09,-0.072l0,-0.45c0,-0.054 -0.036,-0.09 -0.09,-0.099l-2.997,-0.369c-0.603,-0.072 -0.972,-0.405 -0.972,-0.864c0,-0.45 0.342,-0.657 0.927,-0.585l3.042,0.369c0.054,0.009 0.09,-0.027 0.09,-0.072l0,-0.45c0,-0.053 -0.036,-0.089 -0.09,-0.098l-3.096,-0.376c-0.9,-0.108 -1.43,0.224 -1.43,0.942Z" style="fill:rgb(199,206,201);fill-rule:nonzero;"/>
                <path d="M35.373,56.201l0.252,0.036c0.027,0 0.045,0.018 0.018,0.045c-0.288,0.161 -0.432,0.449 -0.432,0.809c0,0.703 0.557,1.224 1.35,1.341c0.333,0.054 0.639,0.09 0.972,0.126c0.333,0.045 0.666,0.09 0.999,0.117c0.8,0.063 1.376,-0.306 1.376,-1.007c0,-0.361 -0.153,-0.685 -0.441,-0.919c-0.027,-0.027 -0.009,-0.045 0.018,-0.045l0.261,0.036c0.054,0.009 0.09,-0.027 0.09,-0.081l0,-0.44c0,-0.054 -0.036,-0.09 -0.09,-0.099l-4.373,-0.54c-0.054,0 -0.09,0.027 -0.09,0.081l0,0.441c0,0.054 0.036,0.09 0.09,0.099Zm3.977,1.215c0,0.45 -0.368,0.711 -0.899,0.639l-0.891,-0.108c-0.234,-0.027 -0.576,-0.063 -0.891,-0.108c-0.541,-0.063 -0.901,-0.414 -0.901,-0.865c0,-0.414 0.36,-0.674 0.901,-0.611l1.782,0.215c0.54,0.072 0.899,0.414 0.899,0.838Z" style="fill:rgb(199,206,201);fill-rule:nonzero;"/>
                <path d="M39.836,55.03l0,-0.441c0,-0.054 -0.036,-0.09 -0.09,-0.099l-6.119,-0.755c-0.054,0 -0.09,0.027 -0.09,0.081l0,0.441c0,0.053 0.036,0.098 0.09,0.098l6.119,0.756c0.054,0.009 0.09,-0.027 0.09,-0.081Z" style="fill:rgb(199,206,201);fill-rule:nonzero;"/>
                <path d="M39.908,52.223c0,-0.847 -0.548,-1.45 -1.376,-1.549l-1.945,-0.242c-0.81,-0.099 -1.376,0.368 -1.376,1.205c0,0.847 0.566,1.449 1.376,1.548l1.945,0.234c0.828,0.099 1.376,-0.36 1.376,-1.196Zm-0.557,-0.072c0,0.441 -0.351,0.711 -0.855,0.648l-1.863,-0.234c-0.514,-0.063 -0.865,-0.405 -0.865,-0.856c0,-0.441 0.351,-0.711 0.865,-0.648l1.863,0.225c0.504,0.063 0.855,0.423 0.855,0.865Z" style="fill:rgb(199,206,201);fill-rule:nonzero;"/>
                <path d="M35.373,47.309l0.278,0.036c0.036,0.009 0.045,0.027 0.009,0.045c-0.305,0.162 -0.449,0.477 -0.449,0.819c0,0.738 0.548,1.25 1.377,1.358l1.899,0.224c0.81,0.108 1.376,-0.26 1.376,-1.015c0,-0.333 -0.143,-0.675 -0.458,-0.927c-0.027,-0.027 -0.009,-0.045 0.018,-0.045l0.27,0.036c0.9,0.108 1.422,0.459 1.395,1.431c0,0.054 0.036,0.089 0.09,0.098l0.386,0.045c0.054,0.009 0.09,-0.018 0.099,-0.071c0.063,-1.422 -0.719,-1.971 -1.917,-2.115l-4.373,-0.54c-0.054,0 -0.09,0.027 -0.09,0.081l0,0.441c0,0.054 0.036,0.09 0.09,0.099Zm3.933,1.215c0,0.441 -0.351,0.711 -0.855,0.648l-1.818,-0.225c-0.514,-0.063 -0.865,-0.414 -0.865,-0.855c0,-0.432 0.351,-0.693 0.865,-0.63l1.818,0.225c0.504,0.063 0.855,0.405 0.855,0.837Z" style="fill:rgb(199,206,201);fill-rule:nonzero;"/>
                <path d="M34.472,45.184c0,-0.242 -0.198,-0.44 -0.476,-0.476c-0.261,-0.027 -0.459,0.117 -0.459,0.368c0,0.252 0.198,0.459 0.459,0.486c0.278,0.036 0.476,-0.126 0.476,-0.378Zm5.364,0.891l0,-0.45c0,-0.054 -0.036,-0.09 -0.09,-0.099l-4.373,-0.53c-0.054,-0.009 -0.09,0.018 -0.09,0.071l0,0.45c0,0.045 0.036,0.09 0.09,0.09l4.373,0.54c0.054,0.009 0.09,-0.018 0.09,-0.072Z" style="fill:rgb(199,206,201);fill-rule:nonzero;"/>
                <path d="M34.959,43.653l0.288,0.036c0.018,0 0.036,0.027 0.036,0.045l0,0.342c0,0.054 0.036,0.099 0.09,0.099l0.296,0.036c0.054,0.009 0.09,-0.018 0.09,-0.072l0,-0.351c0,-0.018 0.018,-0.036 0.036,-0.027l3.951,0.486c0.054,0 0.09,-0.027 0.09,-0.081l0,-0.432c0,-0.054 -0.036,-0.099 -0.09,-0.099l-3.951,-0.487c-0.018,0 -0.036,-0.028 -0.036,-0.046l0,-0.665c0,-0.054 -0.036,-0.09 -0.09,-0.099l-0.296,-0.036c-0.054,-0.009 -0.09,0.018 -0.09,0.072l0,0.674c0,0.018 -0.018,0.036 -0.036,0.027l-0.279,-0.027c-0.621,-0.081 -0.946,-0.269 -0.946,-0.728l0,-0.107c0,-0.054 -0.027,-0.09 -0.09,-0.099l-0.368,-0.054c-0.054,-0.009 -0.09,0.027 -0.09,0.081l0,0.116c0,0.881 0.458,1.27 1.485,1.396Zm-0.487,-2.636c0,-0.251 -0.198,-0.449 -0.476,-0.485c-0.261,-0.027 -0.459,0.126 -0.459,0.368c0,0.252 0.198,0.459 0.459,0.495c0.278,0.027 0.476,-0.126 0.476,-0.378Zm5.364,0.881l0,-0.449c0,-0.045 -0.036,-0.09 -0.09,-0.09l-4.373,-0.539c-0.054,-0.009 -0.09,0.027 -0.09,0.071l0,0.45c0,0.054 0.036,0.09 0.09,0.099l4.373,0.53c0.054,0.009 0.09,-0.018 0.09,-0.072Z" style="fill:rgb(199,206,201);fill-rule:nonzero;"/>
                <path d="M37.712,37.364l-1.124,-0.135c-0.811,-0.099 -1.377,0.35 -1.377,1.196c0,0.838 0.566,1.44 1.377,1.539l1.944,0.234c0.828,0.099 1.376,-0.36 1.376,-1.187c0,-0.775 -0.449,-1.315 -1.151,-1.486c-0.054,-0.018 -0.099,0.009 -0.099,0.063l-0.018,0.432c0,0.054 0.027,0.081 0.081,0.108c0.369,0.126 0.63,0.423 0.63,0.811c0,0.432 -0.351,0.702 -0.855,0.639l-0.658,-0.081c-0.018,0 -0.036,-0.027 -0.036,-0.045l0,-1.989c0,-0.054 -0.036,-0.09 -0.09,-0.099Zm-1.944,1.133c0,-0.45 0.352,-0.72 0.865,-0.657l0.603,0.081c0.018,0 0.036,0.018 0.036,0.036l0,1.432c0,0.018 -0.018,0.036 -0.036,0.036l-0.603,-0.081c-0.513,-0.063 -0.865,-0.405 -0.865,-0.847Z" style="fill:rgb(199,206,201);fill-rule:nonzero;"/>
                <path d="M35.238,34.655c0,0.414 0.279,0.711 0.684,0.918c0.027,0.009 0.027,0.036 -0.009,0.036l-0.54,-0.072c-0.054,0 -0.09,0.027 -0.09,0.081l0,0.44c0,0.054 0.036,0.099 0.09,0.099l4.373,0.54c0.054,0.009 0.09,-0.027 0.09,-0.072l0,-0.45c0,-0.054 -0.036,-0.09 -0.09,-0.099l-2.699,-0.333c-0.612,-0.071 -1.089,-0.431 -1.116,-0.845c-0.027,-0.153 -0.009,-0.279 0.036,-0.369c0.018,-0.054 0.009,-0.099 -0.054,-0.117l-0.459,-0.153c-0.045,-0.018 -0.09,-0.009 -0.117,0.027c-0.054,0.09 -0.099,0.198 -0.099,0.369Z" style="fill:rgb(199,206,201);fill-rule:nonzero;"/>
            </g>
            <path d="M23.443,307.659c0.838,0 1.404,-0.539 1.404,-1.43l0,-2.449c0,-0.9 -0.566,-1.439 -1.404,-1.439c-0.846,0 -1.403,0.539 -1.403,1.439l0,2.449c0,0.891 0.557,1.43 1.403,1.43Zm0,-0.557c-0.45,0 -0.765,-0.306 -0.765,-0.837l0,-2.512c0,-0.54 0.315,-0.846 0.765,-0.846c0.46,0 0.766,0.306 0.766,0.846l0,2.512c0,0.531 -0.306,0.837 -0.766,0.837Z" style="fill:white;fill-rule:nonzero;"/>
            <path d="M27.331,307.659c0.847,0 1.395,-0.584 1.395,-1.538l0,-3.618c0,-0.054 -0.036,-0.09 -0.09,-0.09l-0.458,0c-0.054,0 -0.09,0.036 -0.09,0.09l0,3.672c0,0.576 -0.297,0.927 -0.757,0.927c-0.45,0 -0.747,-0.351 -0.747,-0.927l0,-3.672c0,-0.054 -0.036,-0.09 -0.09,-0.09l-0.458,0c-0.054,0 -0.09,0.036 -0.09,0.09l0,3.618c0,0.954 0.557,1.538 1.385,1.538Z" style="fill:white;fill-rule:nonzero;"/>
            <path d="M32.416,302.404l-2.717,0c-0.054,0 -0.09,0.036 -0.09,0.09l0,0.386c0,0.054 0.036,0.09 0.09,0.09l0.972,0c0.018,0 0.036,0.018 0.036,0.036l0,4.5c0,0.054 0.036,0.09 0.09,0.09l0.458,0c0.054,0 0.09,-0.036 0.09,-0.09l0,-4.5c0,-0.018 0.018,-0.036 0.036,-0.036l1.035,0c0.054,0 0.09,-0.036 0.09,-0.09l0,-0.386c0,-0.054 -0.036,-0.09 -0.09,-0.09Z" style="fill:white;fill-rule:nonzero;"/>
            <path d="M35.495,307.596l2.375,0c0.054,0 0.09,-0.036 0.09,-0.09l0,-0.377c0,-0.054 -0.036,-0.09 -0.09,-0.09l-1.791,0c-0.018,0 -0.036,-0.018 -0.036,-0.036l0,-4.509c0,-0.054 -0.036,-0.09 -0.09,-0.09l-0.458,0c-0.054,0 -0.09,0.036 -0.09,0.09l0,5.012c0,0.054 0.036,0.09 0.09,0.09Z" style="fill:white;fill-rule:nonzero;"/>
            <path d="M24.701,267.6l0.458,0c0.054,0 0.09,-0.036 0.09,-0.09l0,-5.004c0,-0.054 -0.036,-0.09 -0.09,-0.09l-0.458,0c-0.054,0 -0.09,0.036 -0.09,0.09l0,5.004c0,0.054 0.036,0.09 0.09,0.09Z" style="fill:white;fill-rule:nonzero;"/>
            <path d="M26.6,267.6l0.449,0c0.054,0 0.09,-0.036 0.09,-0.09l0,-3.753c0,-0.036 0.036,-0.045 0.045,-0.009l1.522,3.78c0.018,0.054 0.054,0.072 0.099,0.072l0.476,0c0.054,0 0.09,-0.036 0.09,-0.09l0,-5.004c0,-0.054 -0.036,-0.09 -0.09,-0.09l-0.449,0c-0.054,0 -0.09,0.036 -0.09,0.09l0,3.744c0,0.036 -0.036,0.045 -0.045,0.009l-1.531,-3.771c-0.018,-0.054 -0.054,-0.072 -0.099,-0.072l-0.467,0c-0.054,0 -0.09,0.036 -0.09,0.09l0,5.004c0,0.054 0.036,0.09 0.09,0.09Z" style="fill:white;fill-rule:nonzero;"/>
            <path d="M34.844,267.6l0.467,0c0.063,0 0.09,-0.036 0.072,-0.099l-0.836,-2.276c-0.009,-0.027 0,-0.036 0.027,-0.045c0.495,-0.189 0.791,-0.675 0.791,-1.314c0,-0.865 -0.539,-1.466 -1.322,-1.466l-1.341,0c-0.054,0 -0.09,0.035 -0.09,0.089l0,5.021c0,0.054 0.036,0.09 0.09,0.09l0.458,0c0.054,0 0.09,-0.036 0.09,-0.09l0,-2.205c0,-0.018 0.018,-0.036 0.036,-0.036l0.631,0c0.018,0 0.027,0 0.036,0.027l0.783,2.232c0.018,0.054 0.063,0.072 0.108,0.072Zm-1.558,-4.644l0.667,0c0.459,0 0.774,0.361 0.774,0.91c0,0.549 -0.315,0.892 -0.774,0.892l-0.667,0c-0.018,0 -0.036,-0.018 -0.036,-0.036l0,-1.73c0,-0.018 0.018,-0.036 0.036,-0.036Z" style="fill:white;fill-rule:nonzero;"/>
            <path d="M24.812,227.596l0.458,0c0.054,0 0.09,-0.036 0.09,-0.09l0,-5.004c0,-0.054 -0.036,-0.09 -0.09,-0.09l-0.458,0c-0.054,0 -0.09,0.036 -0.09,0.09l0,5.004c0,0.054 0.036,0.09 0.09,0.09Z" style="fill:white;fill-rule:nonzero;"/>
            <path d="M26.711,227.596l0.449,0c0.054,0 0.09,-0.036 0.09,-0.09l0,-3.753c0,-0.036 0.036,-0.045 0.045,-0.009l1.522,3.78c0.018,0.054 0.054,0.072 0.099,0.072l0.476,0c0.054,0 0.09,-0.036 0.09,-0.09l0,-5.004c0,-0.054 -0.036,-0.09 -0.09,-0.09l-0.449,0c-0.054,0 -0.09,0.036 -0.09,0.09l0,3.744c0,0.036 -0.036,0.045 -0.045,0.009l-1.531,-3.771c-0.018,-0.054 -0.054,-0.072 -0.099,-0.072l-0.467,0c-0.054,0 -0.09,0.036 -0.09,0.09l0,5.004c0,0.054 0.036,0.09 0.09,0.09Z" style="fill:white;fill-rule:nonzero;"/>
            <path d="M32.813,227.596l2.375,0c0.054,0 0.09,-0.036 0.09,-0.09l0,-0.377c0,-0.054 -0.036,-0.09 -0.09,-0.09l-1.791,0c-0.018,0 -0.036,-0.018 -0.036,-0.036l0,-4.509c0,-0.054 -0.036,-0.09 -0.09,-0.09l-0.458,0c-0.054,0 -0.09,0.036 -0.09,0.09l0,5.012c0,0.054 0.036,0.09 0.09,0.09Z" style="fill:white;fill-rule:nonzero;"/>
            <path d="M29.581,186.78l0,-105.638" style="fill:none;stroke:rgb(128,128,128);stroke-width:0.7px;"/>
            <path d="M23.333,347.659c0.837,0 1.403,-0.539 1.403,-1.43l0,-2.449c0,-0.9 -0.566,-1.439 -1.403,-1.439c-0.847,0 -1.404,0.539 -1.404,1.439l0,2.449c0,0.891 0.557,1.43 1.404,1.43Zm0,-0.557c-0.451,0 -0.766,-0.306 -0.766,-0.837l0,-2.512c0,-0.54 0.315,-0.846 0.766,-0.846c0.459,0 0.765,0.306 0.765,0.846l0,2.512c0,0.531 -0.306,0.837 -0.765,0.837Z" style="fill:white;fill-rule:nonzero;"/>
            <path d="M27.221,347.659c0.846,0 1.394,-0.584 1.394,-1.538l0,-3.618c0,-0.054 -0.036,-0.09 -0.09,-0.09l-0.458,0c-0.054,0 -0.09,0.036 -0.09,0.09l0,3.672c0,0.576 -0.297,0.927 -0.756,0.927c-0.451,0 -0.748,-0.351 -0.748,-0.927l0,-3.672c0,-0.054 -0.036,-0.09 -0.09,-0.09l-0.458,0c-0.054,0 -0.09,0.036 -0.09,0.09l0,3.618c0,0.954 0.557,1.538 1.386,1.538Z" style="fill:white;fill-rule:nonzero;"/>
            <path d="M32.305,342.404l-2.717,0c-0.054,0 -0.09,0.036 -0.09,0.09l0,0.386c0,0.054 0.036,0.09 0.09,0.09l0.972,0c0.018,0 0.036,0.018 0.036,0.036l0,4.5c0,0.054 0.036,0.09 0.09,0.09l0.458,0c0.054,0 0.09,-0.036 0.09,-0.09l0,-4.5c0,-0.018 0.018,-0.036 0.036,-0.036l1.035,0c0.054,0 0.09,-0.036 0.09,-0.09l0,-0.386c0,-0.054 -0.036,-0.09 -0.09,-0.09Z" style="fill:white;fill-rule:nonzero;"/>
            <path d="M37.526,347.596l0.467,0c0.063,0 0.09,-0.036 0.072,-0.099l-0.836,-2.277c-0.009,-0.027 0,-0.036 0.027,-0.045c0.495,-0.188 0.791,-0.674 0.791,-1.313c0,-0.865 -0.539,-1.467 -1.322,-1.467l-1.341,0c-0.054,0 -0.09,0.036 -0.09,0.09l0,5.021c0,0.054 0.036,0.09 0.09,0.09l0.458,0c0.054,0 0.09,-0.036 0.09,-0.09l0,-2.205c0,-0.018 0.018,-0.036 0.036,-0.036l0.631,0c0.018,0 0.027,0 0.036,0.027l0.783,2.232c0.018,0.054 0.063,0.072 0.108,0.072Zm-1.558,-4.644l0.667,0c0.459,0 0.774,0.36 0.774,0.91c0,0.549 -0.315,0.891 -0.774,0.891l-0.667,0c-0.018,0 -0.036,-0.018 -0.036,-0.036l0,-1.729c0,-0.018 0.018,-0.036 0.036,-0.036Z" style="fill:white;fill-rule:nonzero;"/>
        </g>
    </g>
</svg>
