<?xml version="1.0" encoding="UTF-8" standalone="no"?>
<!DOCTYPE svg PUBLIC "-//W3C//DTD SVG 1.1//EN" "http://www.w3.org/Graphics/SVG/1.1/DTD/svg11.dtd">
<svg width="105px" height="380px" version="1.1" xmlns="http://www.w3.org/2000/svg" xmlns:xlink="http://www.w3.org/1999/xlink" xml:space="preserve" xmlns:serif="http://www.serif.com/" style="fill-rule:evenodd;clip-rule:evenodd;stroke-linecap:round;stroke-linejoin:round;stroke-miterlimit:1.5;">
    <rect id="Monitoring-Dark" serif:id="Monitoring Dark" x="0" y="0" width="105" height="380" style="fill:none;"/>
    <clipPath id="_clip1">
        <rect x="0" y="0" width="105" height="380"/>
    </clipPath>
    <g clip-path="url(#_clip1)">
        <g id="Background">
            <path id="bright" d="M105,379.995l0,-379.995l-105,0l0,379.995l105,0Z" style="fill:rgb(54,69,74);"/>
            <circle cx="71.25" cy="325" r="14" style="fill:rgb(51,51,51);"/>
            <circle cx="33.75" cy="325" r="14" style="fill:rgb(51,51,51);"/>
            <path d="M80.887,24.6l24.113,0" style="fill:none;stroke:rgb(128,128,128);stroke-width:0.7px;"/>
            <path d="M0,24.6l24.113,0" style="fill:none;stroke:rgb(128,128,128);stroke-width:0.7px;"/>
            <path d="M52.5,164.973l-10.992,-19.056c3.345,-1.93 7.139,-2.945 11.001,-2.944l-0.009,22Zm0,0l-19.048,-11.007c1.932,-3.344 4.71,-6.12 8.056,-8.049l10.992,19.056Zm0,0l11.008,-19.048c3.343,1.933 6.162,4.73 8.092,8.075l-19.1,10.973Zm0,0l0.009,-22c3.862,0.002 7.655,1.02 10.999,2.952l-11.008,19.048Z" style="fill:none;stroke:rgb(128,128,128);stroke-width:0.72px;stroke-linecap:square;stroke-linejoin:miter;"/>
            <path d="M52.5,85.445l-21.776,3.131c0.6,4.174 2.414,8.137 5.176,11.324l16.6,-14.455Zm0,0l-20.012,-9.139c-1.752,3.836 -2.364,8.095 -1.764,12.27l21.776,-3.131Zm0,0l-11.894,-18.508c-3.548,2.28 -6.366,5.532 -8.118,9.369l20.012,9.139Zm0,0l0,-22c-4.217,0 -8.346,1.212 -11.894,3.492l11.894,18.508Zm0,0l11.894,-18.508c-3.548,-2.28 -7.677,-3.492 -11.894,-3.492l0,22Zm0,0l20.012,-9.139c-1.752,-3.837 -4.57,-7.089 -8.118,-9.369l-11.894,18.508Zm0,0l21.776,3.131c0.6,-4.175 -0.012,-8.434 -1.764,-12.27l-20.012,9.139Zm0,0l16.626,14.407c2.762,-3.188 4.55,-7.102 5.15,-11.276l-21.776,-3.131Z" style="fill:none;stroke:rgb(128,128,128);stroke-width:0.69px;stroke-linejoin:miter;"/>
        </g>
        <g id="Lables">
            <g id="Branding">
                <path d="M34.855,362.45l0.545,0c0.049,0 0.07,-0.028 0.056,-0.077l-0.72,-2.163c-0.007,-0.021 0,-0.028 0.014,-0.042c0.419,-0.182 0.685,-0.637 0.685,-1.232c0,-0.826 -0.482,-1.393 -1.204,-1.393l-1.252,0c-0.042,0 -0.07,0.028 -0.07,0.07l0,4.767c0,0.042 0.028,0.07 0.07,0.07l0.531,0c0.042,0 0.07,-0.028 0.07,-0.07l0,-2.079c0,-0.014 0.014,-0.028 0.028,-0.028l0.483,0c0.014,0 0.021,0 0.028,0.021l0.652,2.1c0.014,0.035 0.049,0.056 0.084,0.056Zm-1.247,-4.326l0.518,0c0.379,0 0.638,0.315 0.638,0.819c0,0.49 -0.259,0.805 -0.638,0.805l-0.518,0c-0.014,0 -0.028,-0.014 -0.028,-0.028l0,-1.568c0,-0.014 0.014,-0.028 0.028,-0.028Z" style="fill:rgb(199,206,201);fill-rule:nonzero;"/>
                <path d="M38.543,362.45l0.546,0c0.049,0 0.07,-0.035 0.063,-0.077l-1.057,-4.76c-0.007,-0.042 -0.035,-0.063 -0.077,-0.063l-0.615,0c-0.042,0 -0.07,0.021 -0.077,0.063l-1.043,4.76c-0.007,0.042 0.014,0.077 0.063,0.077l0.532,0c0.042,0 0.07,-0.021 0.077,-0.063l0.161,-0.805c0,-0.014 0.021,-0.028 0.035,-0.028l1.126,0c0.014,0 0.035,0.014 0.035,0.028l0.154,0.805c0.007,0.042 0.035,0.063 0.077,0.063Zm-1.308,-1.456l0.475,-2.394c0.007,-0.028 0.021,-0.028 0.028,0l0.462,2.394c0,0.014 -0.007,0.028 -0.021,0.028l-0.923,0c-0.014,0 -0.021,-0.014 -0.021,-0.028Z" style="fill:rgb(199,206,201);fill-rule:nonzero;"/>
                <path d="M41.217,362.506c0.764,0 1.267,-0.497 1.267,-1.267l0,-0.105c0,-0.042 -0.028,-0.07 -0.07,-0.07l-0.531,-0.028c-0.042,0 -0.07,0.028 -0.07,0.07l0,0.182c0,0.378 -0.238,0.637 -0.596,0.637c-0.357,0 -0.588,-0.259 -0.588,-0.637l0,-2.576c0,-0.385 0.231,-0.637 0.588,-0.637c0.358,0 0.596,0.252 0.596,0.637l0,0.182c0,0.042 0.028,0.07 0.07,0.07l0.531,-0.028c0.042,0 0.07,-0.028 0.07,-0.07l0,-0.112c0,-0.77 -0.503,-1.26 -1.267,-1.26c-0.756,0 -1.259,0.49 -1.259,1.26l0,2.485c0,0.77 0.503,1.267 1.259,1.267Z" style="fill:rgb(199,206,201);fill-rule:nonzero;"/>
                <path d="M43.64,362.45l0.531,0c0.042,0 0.07,-0.028 0.07,-0.07l0,-1.575c0,-0.014 0,-0.028 0.007,-0.035l0.357,-0.567c0.014,-0.014 0.028,-0.014 0.035,0.007l0.91,2.184c0.014,0.042 0.042,0.056 0.077,0.056l0.581,0c0.049,0 0.077,-0.035 0.056,-0.084l-1.169,-2.744c-0.007,-0.014 -0.007,-0.028 0,-0.042l1.078,-1.946c0.028,-0.049 0.007,-0.084 -0.049,-0.084l-0.574,0c-0.035,0 -0.063,0.021 -0.084,0.049l-1.19,2.128c-0.014,0.028 -0.035,0.021 -0.035,-0.007l0,-2.1c0,-0.042 -0.028,-0.07 -0.07,-0.07l-0.531,0c-0.042,0 -0.07,0.028 -0.07,0.07l0,4.76c0,0.042 0.028,0.07 0.07,0.07Z" style="fill:rgb(199,206,201);fill-rule:nonzero;"/>
                <path d="M47.938,362.45l0.497,0c0.042,0 0.063,-0.014 0.07,-0.063l0.503,-3.311c0,-0.021 0.021,-0.021 0.028,0l0.532,3.311c0.007,0.042 0.028,0.063 0.07,0.063l0.497,0c0.042,0 0.07,-0.021 0.077,-0.063l0.882,-4.76c0.007,-0.042 -0.014,-0.077 -0.063,-0.077l-0.546,0c-0.042,0 -0.063,0.021 -0.07,0.063l-0.518,3.283c-0.007,0.021 -0.021,0.021 -0.028,0l-0.539,-3.283c-0.007,-0.042 -0.028,-0.063 -0.07,-0.063l-0.469,0c-0.042,0 -0.063,0.014 -0.07,0.063l-0.503,3.283c-0.007,0.021 -0.021,0.021 -0.028,0l-0.567,-3.283c-0.007,-0.042 -0.035,-0.063 -0.077,-0.063l-0.553,0c-0.049,0 -0.07,0.035 -0.063,0.077l0.931,4.76c0.007,0.042 0.035,0.063 0.077,0.063Z" style="fill:rgb(199,206,201);fill-rule:nonzero;"/>
                <path d="M52.124,362.45l0.531,0c0.042,0 0.07,-0.028 0.07,-0.07l0,-4.76c0,-0.042 -0.028,-0.07 -0.07,-0.07l-0.531,0c-0.042,0 -0.07,0.028 -0.07,0.07l0,4.76c0,0.042 0.028,0.07 0.07,0.07Z" style="fill:rgb(199,206,201);fill-rule:nonzero;"/>
                <path d="M54.02,362.45l0.525,0c0.042,0 0.07,-0.028 0.07,-0.07l-0.007,-3.073c0,-0.028 0.028,-0.028 0.035,0l1.246,3.087c0.014,0.042 0.042,0.056 0.077,0.056l0.546,0c0.042,0 0.07,-0.028 0.07,-0.07l0,-4.76c0,-0.042 -0.028,-0.07 -0.07,-0.07l-0.525,0c-0.042,0 -0.07,0.028 -0.07,0.07l0,3.066c0,0.028 -0.028,0.035 -0.035,0.007l-1.246,-3.087c-0.014,-0.042 -0.042,-0.056 -0.077,-0.056l-0.539,0c-0.042,0 -0.07,0.028 -0.07,0.07l0,4.76c0,0.042 0.028,0.07 0.07,0.07Z" style="fill:rgb(199,206,201);fill-rule:nonzero;"/>
                <path d="M57.871,362.45l1.147,0c0.771,0 1.267,-0.511 1.267,-1.323l0,-2.254c0,-0.812 -0.496,-1.323 -1.267,-1.323l-1.147,0c-0.042,0 -0.07,0.028 -0.07,0.07l0,4.76c0,0.042 0.028,0.07 0.07,0.07Zm0.601,-0.609l0,-3.682c0,-0.014 0.014,-0.028 0.028,-0.028l0.511,0c0.365,0 0.596,0.301 0.596,0.777l0,2.184c-0.007,0.476 -0.238,0.77 -0.596,0.77l-0.511,0.007c-0.014,0 -0.028,-0.014 -0.028,-0.028Z" style="fill:rgb(199,206,201);fill-rule:nonzero;"/>
                <path d="M62.609,362.506c0.771,0 1.288,-0.504 1.288,-1.281l0,-2.443c0,-0.777 -0.517,-1.288 -1.288,-1.288c-0.763,0 -1.273,0.511 -1.273,1.288l0,2.443c0,0.777 0.51,1.281 1.273,1.281Zm0,-0.581c-0.364,0 -0.602,-0.273 -0.602,-0.672l0,-2.506c0,-0.399 0.238,-0.672 0.602,-0.672c0.372,0 0.617,0.273 0.617,0.672l0,2.506c0,0.399 -0.245,0.672 -0.617,0.672Z" style="fill:rgb(199,206,201);fill-rule:nonzero;"/>
                <path d="M65.69,362.45l0.497,0c0.042,0 0.063,-0.014 0.07,-0.063l0.503,-3.311c0,-0.021 0.021,-0.021 0.028,0l0.532,3.311c0.007,0.042 0.028,0.063 0.07,0.063l0.497,0c0.042,0 0.07,-0.021 0.077,-0.063l0.882,-4.76c0.007,-0.042 -0.014,-0.077 -0.063,-0.077l-0.546,0c-0.042,0 -0.063,0.021 -0.07,0.063l-0.518,3.283c-0.007,0.021 -0.021,0.021 -0.028,0l-0.539,-3.283c-0.007,-0.042 -0.028,-0.063 -0.07,-0.063l-0.469,0c-0.042,0 -0.063,0.014 -0.07,0.063l-0.503,3.283c-0.007,0.021 -0.021,0.021 -0.028,0l-0.567,-3.283c-0.007,-0.042 -0.035,-0.063 -0.077,-0.063l-0.553,0c-0.049,0 -0.07,0.035 -0.063,0.077l0.931,4.76c0.007,0.042 0.035,0.063 0.077,0.063Z" style="fill:rgb(199,206,201);fill-rule:nonzero;"/>
                <path d="M70.841,362.506c0.729,0 1.246,-0.504 1.246,-1.295c0,-0.672 -0.371,-0.966 -1.084,-1.498c-0.54,-0.399 -0.743,-0.588 -0.743,-0.987c0,-0.42 0.231,-0.651 0.546,-0.651c0.344,0 0.582,0.28 0.582,0.7l0,0.189c0,0.042 0.028,0.07 0.07,0.07l0.517,0c0.042,0 0.07,-0.028 0.07,-0.07l0,-0.175c0,-0.777 -0.489,-1.295 -1.239,-1.295c-0.707,0 -1.21,0.469 -1.21,1.232c0,0.763 0.503,1.134 1.042,1.533c0.505,0.371 0.785,0.567 0.785,0.994c0,0.406 -0.252,0.672 -0.582,0.672c-0.336,0 -0.574,-0.273 -0.574,-0.707l0,-0.154c0,-0.042 -0.028,-0.07 -0.07,-0.07l-0.517,0c-0.042,0 -0.07,0.028 -0.07,0.07l0,0.189c0,0.749 0.496,1.253 1.231,1.253Z" style="fill:rgb(199,206,201);fill-rule:nonzero;"/>
                <path d="M26.988,24.895l1.104,0c0.084,0 0.144,-0.06 0.144,-0.144l0,-5.244c0,-0.06 0.048,-0.072 0.072,-0.024l1.032,2.124c0.036,0.072 0.072,0.108 0.096,0.108c0.024,0 0.06,-0.036 0.096,-0.108l1.032,-2.1c0.024,-0.048 0.072,-0.048 0.072,0.012l0,5.232c0,0.084 0.06,0.144 0.144,0.144l1.104,0c0.084,0 0.144,-0.06 0.144,-0.144l0,-8.112c0,-0.084 -0.06,-0.144 -0.144,-0.144l-1.104,0c-0.072,0 -0.132,0.024 -0.168,0.108l-1.14,2.592c-0.024,0.048 -0.048,0.048 -0.072,0l-1.152,-2.592c-0.036,-0.084 -0.096,-0.108 -0.168,-0.108l-1.092,0c-0.084,0 -0.144,0.06 -0.144,0.144l0,8.112c0,0.084 0.06,0.144 0.144,0.144Z" style="fill:white;fill-rule:nonzero;"/>
                <path d="M35.568,24.991c1.38,0 2.303,-0.899 2.303,-2.279l0,-4.033c0,-1.38 -0.923,-2.279 -2.303,-2.279c-1.38,0 -2.291,0.899 -2.291,2.279l0,4.033c0,1.38 0.911,2.279 2.291,2.279Zm0,-1.199c-0.552,0 -0.901,-0.42 -0.901,-1.02l0,-4.153c0,-0.6 0.349,-1.02 0.901,-1.02c0.552,0 0.913,0.42 0.913,1.02l0,4.153c0,0.6 -0.361,1.02 -0.913,1.02Z" style="fill:white;fill-rule:nonzero;"/>
                <path d="M39.3,24.895l1.08,0c0.084,0 0.144,-0.06 0.144,-0.144l-0.012,-4.848c0,-0.048 0.048,-0.06 0.072,-0.012l1.872,4.896c0.024,0.072 0.084,0.108 0.168,0.108l1.164,0c0.084,0 0.144,-0.06 0.144,-0.144l0,-8.112c0,-0.084 -0.06,-0.144 -0.144,-0.144l-1.092,0c-0.084,0 -0.144,0.06 -0.144,0.144l0,4.836c0,0.06 -0.048,0.06 -0.072,0.012l-1.86,-4.884c-0.024,-0.072 -0.084,-0.108 -0.168,-0.108l-1.152,0c-0.084,0 -0.144,0.06 -0.144,0.144l0,8.112c0,0.084 0.06,0.144 0.144,0.144Z" style="fill:white;fill-rule:nonzero;"/>
                <path d="M45.493,24.895l1.102,0c0.084,0 0.144,-0.06 0.144,-0.144l0,-8.111c0,-0.084 -0.06,-0.144 -0.144,-0.144l-1.102,0c-0.084,0 -0.144,0.06 -0.144,0.144l0,8.111c0,0.084 0.06,0.144 0.144,0.144Z" style="fill:white;fill-rule:nonzero;"/>
                <path d="M52.463,16.496l-4.474,0c-0.084,0 -0.144,0.06 -0.144,0.144l0,0.911c0,0.084 0.06,0.143 0.144,0.143l1.44,0c0.036,0 0.06,0.025 0.06,0.061l0,6.996c0,0.084 0.06,0.144 0.144,0.144l1.102,0c0.084,0 0.144,-0.06 0.144,-0.144l0,-6.996c0,-0.036 0.024,-0.06 0.06,-0.06l1.524,0c0.084,0 0.144,-0.06 0.144,-0.144l0,-0.911c0,-0.084 -0.06,-0.144 -0.144,-0.144Z" style="fill:white;fill-rule:nonzero;"/>
                <path d="M55.56,24.991c1.38,0 2.303,-0.899 2.303,-2.279l0,-4.033c0,-1.38 -0.923,-2.279 -2.303,-2.279c-1.38,0 -2.291,0.899 -2.291,2.279l0,4.033c0,1.38 0.911,2.279 2.291,2.279Zm0,-1.199c-0.552,0 -0.901,-0.42 -0.901,-1.02l0,-4.153c0,-0.6 0.349,-1.02 0.901,-1.02c0.552,0 0.913,0.42 0.913,1.02l0,4.153c0,0.6 -0.361,1.02 -0.913,1.02Z" style="fill:white;fill-rule:nonzero;"/>
                <path d="M62.461,24.895l1.15,0c0.096,0 0.156,-0.06 0.12,-0.168l-1.175,-3.612c-0.012,-0.036 0,-0.06 0.036,-0.072c0.684,-0.36 1.091,-1.115 1.091,-2.112c0,-1.452 -0.863,-2.447 -2.147,-2.447l-2.255,0c-0.084,0 -0.144,0.06 -0.144,0.144l0,8.123c0,0.084 0.06,0.144 0.144,0.144l1.102,0c0.084,0 0.144,-0.06 0.144,-0.144l0,-3.42c0,-0.036 0.024,-0.061 0.06,-0.061l0.625,0c0.036,0 0.048,0.025 0.06,0.049l1.033,3.456c0.024,0.072 0.072,0.12 0.156,0.12Zm-1.874,-7.213l0.733,0c0.576,0 0.973,0.481 0.973,1.273c0,0.769 -0.397,1.237 -0.973,1.237l-0.733,0c-0.036,0 -0.06,-0.024 -0.06,-0.06l0,-2.389c0,-0.036 0.024,-0.061 0.06,-0.061Z" style="fill:white;fill-rule:nonzero;"/>
                <path d="M64.933,24.895l1.102,0c0.084,0 0.144,-0.06 0.144,-0.144l0,-8.111c0,-0.084 -0.06,-0.144 -0.144,-0.144l-1.102,0c-0.084,0 -0.144,0.06 -0.144,0.144l0,8.111c0,0.084 0.06,0.144 0.144,0.144Z" style="fill:white;fill-rule:nonzero;"/>
                <path d="M67.752,24.895l1.08,0c0.084,0 0.144,-0.06 0.144,-0.144l-0.012,-4.848c0,-0.048 0.048,-0.06 0.072,-0.012l1.872,4.896c0.024,0.072 0.084,0.108 0.168,0.108l1.164,0c0.084,0 0.144,-0.06 0.144,-0.144l0,-8.112c0,-0.084 -0.06,-0.144 -0.144,-0.144l-1.092,0c-0.084,0 -0.144,0.06 -0.144,0.144l0,4.836c0,0.06 -0.048,0.06 -0.072,0.012l-1.86,-4.884c-0.024,-0.072 -0.084,-0.108 -0.168,-0.108l-1.152,0c-0.084,0 -0.144,0.06 -0.144,0.144l0,8.112c0,0.084 0.06,0.144 0.144,0.144Z" style="fill:white;fill-rule:nonzero;"/>
                <path d="M75.912,24.991c1.356,0 2.279,-0.851 2.279,-2.172l0,-2.219c0,-0.084 -0.06,-0.144 -0.144,-0.144l-2.039,0c-0.084,0 -0.144,0.06 -0.144,0.144l0,0.875c0,0.084 0.06,0.144 0.144,0.144l0.733,0c0.036,0 0.06,0.024 0.06,0.06l0,1.152c0,0.577 -0.361,0.961 -0.889,0.961c-0.528,0 -0.877,-0.384 -0.877,-0.961l0,-4.272c0,-0.576 0.349,-0.96 0.877,-0.96c0.528,0 0.889,0.384 0.889,0.96l0,0.492c0,0.084 0.06,0.144 0.144,0.144l1.102,0c0.084,0 0.144,-0.06 0.144,-0.144l0,-0.468c0,-1.332 -0.923,-2.183 -2.279,-2.183c-1.356,0 -2.255,0.851 -2.255,2.171l0,4.248c0,1.321 0.899,2.172 2.255,2.172Z" style="fill:white;fill-rule:nonzero;"/>
                <path d="M34.713,35.318l0.45,0c0.045,0 0.09,-0.036 0.099,-0.09l0.566,-4.617c0,-0.036 0.036,-0.036 0.045,-0.009l0.648,2.097c0.009,0.054 0.045,0.072 0.081,0.072c0.027,0 0.063,-0.018 0.081,-0.072l1.152,-2.088c0.009,-0.027 0.045,-0.027 0.036,0.009l-0.558,4.608c-0.009,0.054 0.018,0.09 0.072,0.09l0.441,0c0.054,0 0.099,-0.036 0.099,-0.09l0.756,-6.12c0.009,-0.054 -0.027,-0.09 -0.081,-0.09l-0.45,0c-0.045,0 -0.081,0.018 -0.108,0.072l-1.287,2.439c-0.009,0.027 -0.045,0.027 -0.045,0l-0.684,-2.439c-0.009,-0.054 -0.045,-0.072 -0.081,-0.072l-0.458,0c-0.054,0 -0.09,0.036 -0.099,0.09l-0.747,6.12c-0.009,0.054 0.018,0.09 0.072,0.09Z" style="fill:rgb(199,206,201);fill-rule:nonzero;"/>
                <path d="M40.085,29.954c0.243,0 0.441,-0.198 0.477,-0.477c0.027,-0.26 -0.117,-0.458 -0.369,-0.458c-0.252,0 -0.458,0.198 -0.485,0.458c-0.036,0.279 0.126,0.477 0.377,0.477Zm-0.89,5.364l0.45,0c0.054,0 0.09,-0.036 0.099,-0.09l0.53,-4.373c0.009,-0.054 -0.018,-0.09 -0.072,-0.09l-0.449,0c-0.045,0 -0.09,0.036 -0.09,0.09l-0.54,4.373c-0.009,0.054 0.018,0.09 0.072,0.09Z" style="fill:rgb(199,206,201);fill-rule:nonzero;"/>
                <path d="M40.557,35.318l0.487,0c0.045,0 0.09,-0.018 0.117,-0.063l0.954,-1.611c0.009,-0.027 0.045,-0.027 0.054,0l0.558,1.611c0.009,0.045 0.054,0.063 0.099,0.063l0.486,0c0.063,0 0.099,-0.045 0.072,-0.108l-0.801,-2.142c0,-0.018 0,-0.036 0.009,-0.054l1.332,-2.141c0.027,-0.063 0.009,-0.108 -0.054,-0.108l-0.486,0c-0.045,0 -0.09,0.018 -0.108,0.063l-0.963,1.602c-0.009,0.027 -0.045,0.027 -0.054,0l-0.558,-1.602c-0.009,-0.045 -0.054,-0.063 -0.099,-0.063l-0.486,0c-0.063,0 -0.09,0.045 -0.072,0.108l0.801,2.141c0,0.018 0,0.036 -0.009,0.054l-1.333,2.142c-0.027,0.063 -0.009,0.108 0.054,0.108Z" style="fill:rgb(199,206,201);fill-rule:nonzero;"/>
                <path d="M47.286,35.39c0.896,0 1.563,-0.611 1.681,-1.556l0.018,-0.144c0.009,-0.054 -0.027,-0.09 -0.081,-0.09l-0.452,-0.027c-0.045,0 -0.09,0.036 -0.099,0.09l-0.027,0.225c-0.063,0.558 -0.45,0.945 -0.981,0.945c-0.513,0 -0.81,-0.387 -0.747,-0.945l0.423,-3.439c0.076,-0.567 0.472,-0.945 0.985,-0.945c0.522,0 0.819,0.378 0.747,0.945l-0.027,0.225c0,0.054 0.027,0.09 0.081,0.09l0.458,-0.027c0.045,0 0.09,-0.036 0.09,-0.09l0.027,-0.153c0.108,-0.945 -0.405,-1.547 -1.304,-1.547c-0.891,0 -1.557,0.602 -1.674,1.547l-0.414,3.34c-0.117,0.945 0.405,1.556 1.296,1.556Z" style="fill:rgb(199,206,201);fill-rule:nonzero;"/>
                <path d="M51.894,30.702c-0.351,0 -0.702,0.135 -0.954,0.458c-0.027,0.027 -0.054,0.018 -0.054,-0.009l0.252,-2.042c0.009,-0.054 -0.018,-0.09 -0.072,-0.09l-0.45,0c-0.045,0 -0.09,0.036 -0.099,0.09l-0.747,6.119c-0.009,0.054 0.027,0.09 0.072,0.09l0.45,0c0.054,0 0.09,-0.036 0.099,-0.09l0.369,-2.997c0.072,-0.603 0.405,-0.972 0.864,-0.972c0.45,0 0.656,0.342 0.585,0.927l-0.369,3.042c-0.009,0.054 0.027,0.09 0.072,0.09l0.449,0c0.054,0 0.09,-0.036 0.099,-0.09l0.376,-3.096c0.108,-0.9 -0.224,-1.43 -0.942,-1.43Z" style="fill:rgb(199,206,201);fill-rule:nonzero;"/>
                <path d="M56.357,33.194l0.135,-1.125c0.099,-0.81 -0.351,-1.376 -1.197,-1.376c-0.837,0 -1.44,0.566 -1.539,1.376l-0.233,1.944c-0.099,0.829 0.359,1.377 1.187,1.377c0.775,0 1.314,-0.449 1.485,-1.151c0.018,-0.054 -0.009,-0.1 -0.063,-0.1l-0.431,-0.018c-0.054,0 -0.081,0.027 -0.108,0.082c-0.126,0.369 -0.424,0.63 -0.811,0.63c-0.432,0 -0.702,-0.351 -0.639,-0.856l0.081,-0.657c0,-0.018 0.027,-0.036 0.045,-0.036l1.989,0c0.054,0 0.09,-0.036 0.099,-0.09Zm-1.134,-1.944c0.451,0 0.721,0.351 0.658,0.865l-0.081,0.603c0,0.018 -0.018,0.036 -0.036,0.036l-1.432,0c-0.018,0 -0.036,-0.018 -0.036,-0.036l0.081,-0.603c0.063,-0.514 0.405,-0.865 0.846,-0.865Z" style="fill:rgb(199,206,201);fill-rule:nonzero;"/>
                <path d="M58.265,35.39c0.847,0 1.452,-0.548 1.542,-1.25l0.009,-0.099c0.009,-0.054 -0.027,-0.09 -0.072,-0.09l-0.451,-0.009c-0.054,0 -0.09,0.036 -0.099,0.09l0,0.063c-0.054,0.387 -0.406,0.738 -0.857,0.738c-0.432,0 -0.702,-0.351 -0.639,-0.864l0.234,-1.855c0.063,-0.513 0.405,-0.864 0.846,-0.864c0.451,0 0.721,0.351 0.667,0.738l-0.009,0.072c0,0.045 0.027,0.081 0.081,0.081l0.449,-0.018c0.045,0 0.09,-0.036 0.09,-0.09l0.018,-0.09c0.081,-0.675 -0.387,-1.25 -1.224,-1.25c-0.837,0 -1.44,0.575 -1.539,1.376l-0.233,1.945c-0.099,0.828 0.359,1.376 1.187,1.376Z" style="fill:rgb(199,206,201);fill-rule:nonzero;"/>
                <path d="M60.606,35.318l0.449,0c0.054,0 0.09,-0.036 0.099,-0.09l0.179,-1.512c0.009,-0.018 0.018,-0.036 0.027,-0.045l0.755,-0.935c0.018,-0.018 0.045,-0.027 0.045,0.009l0.476,2.501c0.009,0.045 0.045,0.072 0.09,0.072l0.467,0c0.054,0 0.09,-0.036 0.081,-0.099l-0.665,-3.014c0,-0.018 0.009,-0.045 0.018,-0.054l1.025,-1.278c0.045,-0.054 0.027,-0.108 -0.045,-0.108l-0.45,0c-0.045,0 -0.08,0.009 -0.116,0.054l-1.537,1.926c-0.027,0.026 -0.045,0.009 -0.045,-0.018l0.44,-3.618c0.009,-0.054 -0.017,-0.09 -0.071,-0.09l-0.45,0c-0.045,0 -0.089,0.036 -0.098,0.09l-0.746,6.119c-0.009,0.054 0.027,0.09 0.072,0.09Z" style="fill:rgb(199,206,201);fill-rule:nonzero;"/>
                <path d="M66.869,33.194l0.135,-1.125c0.099,-0.81 -0.351,-1.376 -1.197,-1.376c-0.837,0 -1.44,0.566 -1.539,1.376l-0.233,1.944c-0.099,0.829 0.359,1.377 1.187,1.377c0.775,0 1.314,-0.449 1.485,-1.151c0.018,-0.054 -0.009,-0.1 -0.063,-0.1l-0.431,-0.018c-0.054,0 -0.081,0.027 -0.108,0.082c-0.126,0.369 -0.424,0.63 -0.811,0.63c-0.432,0 -0.702,-0.351 -0.639,-0.856l0.081,-0.657c0,-0.018 0.027,-0.036 0.045,-0.036l1.989,0c0.054,0 0.09,-0.036 0.099,-0.09Zm-1.134,-1.944c0.451,0 0.721,0.351 0.658,0.865l-0.081,0.603c0,0.018 -0.018,0.036 -0.036,0.036l-1.432,0c-0.018,0 -0.036,-0.018 -0.036,-0.036l0.081,-0.603c0.063,-0.514 0.405,-0.865 0.846,-0.865Z" style="fill:rgb(199,206,201);fill-rule:nonzero;"/>
                <path d="M69.578,30.72c-0.414,0 -0.711,0.279 -0.918,0.684c-0.009,0.027 -0.036,0.027 -0.036,-0.009l0.072,-0.54c0,-0.054 -0.027,-0.09 -0.081,-0.09l-0.44,0c-0.054,0 -0.099,0.036 -0.099,0.09l-0.54,4.373c-0.009,0.054 0.027,0.09 0.072,0.09l0.45,0c0.054,0 0.09,-0.036 0.099,-0.09l0.333,-2.699c0.071,-0.612 0.431,-1.089 0.845,-1.116c0.153,-0.027 0.279,-0.009 0.369,0.036c0.054,0.018 0.099,0.009 0.117,-0.054l0.153,-0.459c0.018,-0.045 0.009,-0.09 -0.027,-0.117c-0.09,-0.054 -0.198,-0.099 -0.369,-0.099Z" style="fill:rgb(199,206,201);fill-rule:nonzero;"/>
            </g>
            <path d="M28.562,307.591l0.458,0c0.054,0 0.09,-0.036 0.09,-0.09l0,-5.004c0,-0.054 -0.036,-0.09 -0.09,-0.09l-0.458,0c-0.054,0 -0.09,0.036 -0.09,0.09l0,5.004c0,0.054 0.036,0.09 0.09,0.09Z" style="fill:white;fill-rule:nonzero;"/>
            <path d="M30.461,307.591l0.449,0c0.054,0 0.09,-0.036 0.09,-0.09l0,-3.753c0,-0.036 0.036,-0.045 0.045,-0.009l1.522,3.78c0.018,0.054 0.054,0.072 0.099,0.072l0.476,0c0.054,0 0.09,-0.036 0.09,-0.09l0,-5.004c0,-0.054 -0.036,-0.09 -0.09,-0.09l-0.449,0c-0.054,0 -0.09,0.036 -0.09,0.09l0,3.744c0,0.036 -0.036,0.045 -0.045,0.009l-1.531,-3.771c-0.018,-0.054 -0.054,-0.072 -0.099,-0.072l-0.467,0c-0.054,0 -0.09,0.036 -0.09,0.09l0,5.004c0,0.054 0.036,0.09 0.09,0.09Z" style="fill:white;fill-rule:nonzero;"/>
            <path d="M36.563,307.591l2.375,0c0.054,0 0.09,-0.035 0.09,-0.089l0,-0.378c0,-0.054 -0.036,-0.089 -0.09,-0.089l-1.791,0c-0.018,0 -0.036,-0.018 -0.036,-0.036l0,-4.509c0,-0.054 -0.036,-0.09 -0.09,-0.09l-0.458,0c-0.054,0 -0.09,0.036 -0.09,0.09l0,5.012c0,0.054 0.036,0.089 0.09,0.089Z" style="fill:white;fill-rule:nonzero;"/>
            <path d="M27.193,347.659c0.838,0 1.404,-0.539 1.404,-1.43l0,-2.449c0,-0.9 -0.566,-1.439 -1.404,-1.439c-0.846,0 -1.403,0.539 -1.403,1.439l0,2.449c0,0.891 0.557,1.43 1.403,1.43Zm0,-0.557c-0.45,0 -0.765,-0.306 -0.765,-0.837l0,-2.512c0,-0.54 0.315,-0.846 0.765,-0.846c0.46,0 0.766,0.306 0.766,0.846l0,2.512c0,0.531 -0.306,0.837 -0.766,0.837Z" style="fill:white;fill-rule:nonzero;"/>
            <path d="M31.081,347.659c0.847,0 1.395,-0.584 1.395,-1.538l0,-3.618c0,-0.054 -0.036,-0.09 -0.09,-0.09l-0.458,0c-0.054,0 -0.09,0.036 -0.09,0.09l0,3.672c0,0.576 -0.297,0.927 -0.757,0.927c-0.45,0 -0.747,-0.351 -0.747,-0.927l0,-3.672c0,-0.054 -0.036,-0.09 -0.09,-0.09l-0.458,0c-0.054,0 -0.09,0.036 -0.09,0.09l0,3.618c0,0.954 0.557,1.538 1.385,1.538Z" style="fill:white;fill-rule:nonzero;"/>
            <path d="M36.166,342.404l-2.717,0c-0.054,0 -0.09,0.036 -0.09,0.09l0,0.386c0,0.054 0.036,0.09 0.09,0.09l0.972,0c0.018,0 0.036,0.018 0.036,0.036l0,4.5c0,0.054 0.036,0.09 0.09,0.09l0.458,0c0.054,0 0.09,-0.036 0.09,-0.09l0,-4.5c0,-0.018 0.018,-0.036 0.036,-0.036l1.035,0c0.054,0 0.09,-0.036 0.09,-0.09l0,-0.386c0,-0.054 -0.036,-0.09 -0.09,-0.09Z" style="fill:white;fill-rule:nonzero;"/>
            <path d="M39.245,347.596l2.375,0c0.054,0 0.09,-0.036 0.09,-0.09l0,-0.377c0,-0.054 -0.036,-0.09 -0.09,-0.09l-1.791,0c-0.018,0 -0.036,-0.018 -0.036,-0.036l0,-4.509c0,-0.054 -0.036,-0.09 -0.09,-0.09l-0.458,0c-0.054,0 -0.09,0.036 -0.09,0.09l0,5.012c0,0.054 0.036,0.09 0.09,0.09Z" style="fill:white;fill-rule:nonzero;"/>
            <path d="M65.951,307.6l0.458,0c0.054,0 0.09,-0.036 0.09,-0.09l0,-5.004c0,-0.054 -0.036,-0.09 -0.09,-0.09l-0.458,0c-0.054,0 -0.09,0.036 -0.09,0.09l0,5.004c0,0.054 0.036,0.09 0.09,0.09Z" style="fill:white;fill-rule:nonzero;"/>
            <path d="M67.85,307.6l0.449,0c0.054,0 0.09,-0.036 0.09,-0.09l0,-3.753c0,-0.036 0.036,-0.045 0.045,-0.009l1.522,3.78c0.018,0.054 0.054,0.072 0.099,0.072l0.476,0c0.054,0 0.09,-0.036 0.09,-0.09l0,-5.004c0,-0.054 -0.036,-0.09 -0.09,-0.09l-0.449,0c-0.054,0 -0.09,0.036 -0.09,0.09l0,3.744c0,0.036 -0.036,0.045 -0.045,0.009l-1.531,-3.771c-0.018,-0.054 -0.054,-0.072 -0.099,-0.072l-0.467,0c-0.054,0 -0.09,0.036 -0.09,0.09l0,5.004c0,0.054 0.036,0.09 0.09,0.09Z" style="fill:white;fill-rule:nonzero;"/>
            <path d="M76.094,307.6l0.467,0c0.063,0 0.09,-0.036 0.072,-0.099l-0.836,-2.276c-0.009,-0.027 0,-0.036 0.027,-0.045c0.495,-0.189 0.791,-0.675 0.791,-1.314c0,-0.865 -0.539,-1.466 -1.322,-1.466l-1.341,0c-0.054,0 -0.09,0.035 -0.09,0.089l0,5.021c0,0.054 0.036,0.09 0.09,0.09l0.458,0c0.054,0 0.09,-0.036 0.09,-0.09l0,-2.205c0,-0.018 0.018,-0.036 0.036,-0.036l0.631,0c0.018,0 0.027,0 0.036,0.027l0.783,2.232c0.018,0.054 0.063,0.072 0.108,0.072Zm-1.558,-4.644l0.667,0c0.459,0 0.774,0.361 0.774,0.91c0,0.549 -0.315,0.892 -0.774,0.892l-0.667,0c-0.018,0 -0.036,-0.018 -0.036,-0.036l0,-1.73c0,-0.018 0.018,-0.036 0.036,-0.036Z" style="fill:white;fill-rule:nonzero;"/>
            <path d="M64.583,347.659c0.837,0 1.403,-0.539 1.403,-1.43l0,-2.449c0,-0.9 -0.566,-1.439 -1.403,-1.439c-0.847,0 -1.404,0.539 -1.404,1.439l0,2.449c0,0.891 0.557,1.43 1.404,1.43Zm0,-0.557c-0.451,0 -0.766,-0.306 -0.766,-0.837l0,-2.512c0,-0.54 0.315,-0.846 0.766,-0.846c0.459,0 0.765,0.306 0.765,0.846l0,2.512c0,0.531 -0.306,0.837 -0.765,0.837Z" style="fill:white;fill-rule:nonzero;"/>
            <path d="M68.471,347.659c0.846,0 1.394,-0.584 1.394,-1.538l0,-3.618c0,-0.054 -0.036,-0.09 -0.09,-0.09l-0.458,0c-0.054,0 -0.09,0.036 -0.09,0.09l0,3.672c0,0.576 -0.297,0.927 -0.756,0.927c-0.451,0 -0.748,-0.351 -0.748,-0.927l0,-3.672c0,-0.054 -0.036,-0.09 -0.09,-0.09l-0.458,0c-0.054,0 -0.09,0.036 -0.09,0.09l0,3.618c0,0.954 0.557,1.538 1.386,1.538Z" style="fill:white;fill-rule:nonzero;"/>
            <path d="M73.555,342.404l-2.717,0c-0.054,0 -0.09,0.036 -0.09,0.09l0,0.386c0,0.054 0.036,0.09 0.09,0.09l0.972,0c0.018,0 0.036,0.018 0.036,0.036l0,4.5c0,0.054 0.036,0.09 0.09,0.09l0.458,0c0.054,0 0.09,-0.036 0.09,-0.09l0,-4.5c0,-0.018 0.018,-0.036 0.036,-0.036l1.035,0c0.054,0 0.09,-0.036 0.09,-0.09l0,-0.386c0,-0.054 -0.036,-0.09 -0.09,-0.09Z" style="fill:white;fill-rule:nonzero;"/>
            <path d="M78.776,347.596l0.467,0c0.063,0 0.09,-0.036 0.072,-0.099l-0.836,-2.277c-0.009,-0.027 0,-0.036 0.027,-0.045c0.495,-0.188 0.791,-0.674 0.791,-1.313c0,-0.865 -0.539,-1.467 -1.322,-1.467l-1.341,0c-0.054,0 -0.09,0.036 -0.09,0.09l0,5.021c0,0.054 0.036,0.09 0.09,0.09l0.458,0c0.054,0 0.09,-0.036 0.09,-0.09l0,-2.205c0,-0.018 0.018,-0.036 0.036,-0.036l0.631,0c0.018,0 0.027,0 0.036,0.027l0.783,2.232c0.018,0.054 0.063,0.072 0.108,0.072Zm-1.558,-4.644l0.667,0c0.459,0 0.774,0.36 0.774,0.91c0,0.549 -0.315,0.891 -0.774,0.891l-0.667,0c-0.018,0 -0.036,-0.018 -0.036,-0.036l0,-1.729c0,-0.018 0.018,-0.036 0.036,-0.036Z" style="fill:white;fill-rule:nonzero;"/>
            <path d="M42.732,118.4l0.612,0c0.072,0 0.12,-0.048 0.12,-0.12l0,-6.156c0,-0.048 0.048,-0.048 0.06,-0.012l1.248,2.796c0.024,0.072 0.072,0.096 0.12,0.096c0.048,0 0.084,-0.024 0.108,-0.096l1.224,-2.784c0.012,-0.036 0.06,-0.036 0.06,0.012l0,6.144c0,0.072 0.048,0.12 0.12,0.12l0.612,0c0.072,0 0.12,-0.048 0.12,-0.12l0,-8.16c0,-0.072 -0.048,-0.12 -0.12,-0.12l-0.624,0c-0.06,0 -0.108,0.024 -0.132,0.096l-1.356,3.252c-0.012,0.036 -0.06,0.036 -0.072,0l-1.344,-3.252c-0.024,-0.072 -0.072,-0.096 -0.132,-0.096l-0.624,0c-0.072,0 -0.12,0.048 -0.12,0.12l0,8.16c0,0.072 0.048,0.12 0.12,0.12Z" style="fill:white;fill-rule:nonzero;"/>
            <path d="M50.472,118.495c1.153,0 1.896,-0.73 1.896,-1.835l0,-2.592c0,-1.081 -0.743,-1.835 -1.896,-1.835c-1.152,0 -1.883,0.754 -1.883,1.835l0,2.592c0,1.105 0.731,1.835 1.883,1.835Zm0,-0.742c-0.612,0 -1.032,-0.468 -1.032,-1.141l0,-2.484c0,-0.685 0.42,-1.153 1.032,-1.153c0.613,0 1.045,0.468 1.045,1.153l0,2.484c0,0.673 -0.432,1.141 -1.045,1.141Z" style="fill:white;fill-rule:nonzero;"/>
            <path d="M56.449,110.121l0,2.664c0,0.036 -0.024,0.059 -0.06,0.024c-0.276,-0.384 -0.696,-0.576 -1.189,-0.576c-0.972,0 -1.583,0.742 -1.619,1.799c-0.012,0.444 -0.012,0.852 -0.012,1.296c0,0.444 0,0.889 0.012,1.333c0.048,1.066 0.659,1.834 1.619,1.834c0.493,0 0.913,-0.204 1.189,-0.588c0.036,-0.036 0.06,-0.012 0.06,0.024l0,0.348c0,0.072 0.048,0.12 0.12,0.12l0.611,0c0.072,0 0.12,-0.048 0.12,-0.12l0,-8.158c0,-0.072 -0.048,-0.12 -0.12,-0.12l-0.611,0c-0.072,0 -0.12,0.048 -0.12,0.12Zm-0.997,7.63c-0.624,0 -1.044,-0.491 -1.032,-1.198l0,-1.189c0,-0.312 -0.012,-0.768 0,-1.188c-0.012,-0.721 0.42,-1.201 1.032,-1.201c0.577,0 0.997,0.48 0.997,1.201l0,2.377c0,0.719 -0.42,1.198 -0.997,1.198Z" style="fill:white;fill-rule:nonzero;"/>
            <path d="M62.388,115.568l0,-1.5c0,-1.081 -0.719,-1.835 -1.884,-1.835c-1.14,0 -1.871,0.754 -1.871,1.835l0,2.592c0,1.105 0.731,1.835 1.871,1.835c1.057,0 1.716,-0.599 1.848,-1.535c0.012,-0.072 -0.036,-0.132 -0.108,-0.132l-0.599,-0.024c-0.072,0 -0.108,0.036 -0.132,0.108c-0.108,0.492 -0.48,0.841 -1.009,0.841c-0.6,0 -1.02,-0.469 -1.02,-1.141l0,-0.877c0,-0.024 0.024,-0.048 0.048,-0.048l2.736,0c0.072,0 0.12,-0.048 0.12,-0.119Zm-1.884,-2.593c0.625,0 1.045,0.469 1.045,1.153l0,0.805c0,0.024 -0.024,0.048 -0.048,0.048l-1.969,0c-0.024,0 -0.048,-0.024 -0.048,-0.048l0,-0.805c0,-0.684 0.42,-1.153 1.02,-1.153Z" style="fill:white;fill-rule:nonzero;"/>
            <path d="M45.114,199.266c1.237,0 2.051,-0.814 2.051,-2.074l0,-0.193c0,-0.072 -0.048,-0.12 -0.12,-0.12l-0.622,-0.036c-0.072,0 -0.12,0.048 -0.12,0.12l0,0.301c0,0.744 -0.469,1.26 -1.189,1.26c-0.708,0 -1.189,-0.516 -1.189,-1.26l0,-4.585c0,-0.757 0.481,-1.261 1.189,-1.261c0.72,0 1.189,0.504 1.189,1.261l0,0.3c0,0.072 0.048,0.12 0.12,0.12l0.622,-0.036c0.072,0 0.12,-0.048 0.12,-0.12l0,-0.204c0,-1.261 -0.814,-2.063 -2.051,-2.063c-1.225,0 -2.039,0.802 -2.039,2.063l0,4.453c0,1.26 0.814,2.074 2.039,2.074Z" style="fill:white;fill-rule:nonzero;"/>
            <path d="M50.262,193.004c-0.997,0 -1.764,0.623 -1.848,1.583c-0.012,0.072 0.036,0.12 0.108,0.12l0.659,0.012c0.072,0 0.12,-0.036 0.132,-0.12c0.048,-0.504 0.445,-0.853 0.925,-0.853c0.624,0 1.009,0.529 1.009,1.321l0,0.469c0,0.024 -0.024,0.048 -0.048,0.048l-0.829,0c-1.189,0 -2.135,0.527 -2.135,1.967c0,1.428 0.946,1.715 1.631,1.715c0.54,0 1.008,-0.167 1.321,-0.575c0.036,-0.035 0.06,-0.023 0.06,0.012l0,0.347c0,0.072 0.048,0.12 0.12,0.12l0.61,0c0.072,0 0.12,-0.048 0.12,-0.12l0,-4.043c0,-1.213 -0.718,-2.003 -1.835,-2.003Zm-0.216,5.52c-0.528,0 -0.937,-0.312 -0.937,-1.045c0,-0.828 0.517,-1.213 1.249,-1.213l0.841,0c0.024,0 0.048,0.024 0.048,0.048l0,1.009c0,0.805 -0.601,1.201 -1.201,1.201Z" style="fill:white;fill-rule:nonzero;"/>
            <path d="M55.59,193.016c-0.48,0 -0.936,0.179 -1.249,0.611c-0.024,0.035 -0.06,0.024 -0.06,-0.012l0,-0.395c0,-0.072 -0.048,-0.12 -0.12,-0.12l-0.61,0c-0.072,0 -0.12,0.048 -0.12,0.12l0,5.83c0,0.072 0.048,0.12 0.12,0.12l0.61,0c0.072,0 0.12,-0.048 0.12,-0.12l0,-3.996c0,-0.804 0.397,-1.296 1.033,-1.296c0.612,0 0.961,0.456 0.961,1.236l0,4.056c0,0.072 0.048,0.12 0.12,0.12l0.61,0c0.072,0 0.12,-0.048 0.12,-0.12l0,-4.128c0,-1.2 -0.551,-1.906 -1.535,-1.906Z" style="fill:white;fill-rule:nonzero;"/>
            <path d="M60.102,199.23c1.116,0 1.823,-0.634 1.823,-1.63c0,-1.129 -0.91,-1.513 -1.607,-1.813c-0.624,-0.264 -1.177,-0.492 -1.177,-1.116c0,-0.517 0.361,-0.937 0.949,-0.937c0.588,0 0.973,0.408 0.973,0.937l0,0.096c0,0.06 0.048,0.096 0.12,0.096l0.55,0c0.072,0 0.12,-0.048 0.12,-0.12l0,-0.036c0,-0.997 -0.67,-1.667 -1.775,-1.667c-1.057,0 -1.751,0.622 -1.751,1.655c0,1.14 0.85,1.5 1.523,1.776c0.612,0.264 1.225,0.492 1.225,1.165c0,0.54 -0.373,0.936 -0.961,0.936c-0.612,0 -1.021,-0.408 -1.021,-0.912l0,-0.097c0,-0.06 -0.048,-0.096 -0.12,-0.096l-0.574,0c-0.072,0 -0.12,0.048 -0.12,0.121l0,0.084c0,0.936 0.706,1.558 1.823,1.558Z" style="fill:white;fill-rule:nonzero;"/>
            <path d="M40.78,258.425l1.848,0c1.236,0 2.027,-0.863 2.027,-2.231l0,-3.937c0,-1.368 -0.791,-2.231 -2.027,-2.231l-1.848,0c-0.072,0 -0.12,0.048 -0.12,0.12l0,8.159c0,0.072 0.048,0.12 0.12,0.12Zm0.731,-0.791l0,-6.817c0,-0.024 0.024,-0.048 0.048,-0.048l1.057,0c0.732,0 1.176,0.588 1.176,1.524l0,3.865c-0.012,0.936 -0.468,1.512 -1.176,1.512l-1.057,0.012c-0.024,0 -0.048,-0.024 -0.048,-0.048Z" style="fill:white;fill-rule:nonzero;"/>
            <path d="M46.6,251.273c0.335,0 0.575,-0.264 0.575,-0.636c0,-0.347 -0.24,-0.611 -0.575,-0.611c-0.348,0 -0.6,0.264 -0.6,0.611c0,0.372 0.252,0.636 0.6,0.636Zm-0.312,7.152l0.611,0c0.072,0 0.12,-0.048 0.12,-0.12l0,-5.831c0,-0.072 -0.048,-0.12 -0.12,-0.12l-0.611,0c-0.072,0 -0.12,0.048 -0.12,0.12l0,5.831c0,0.072 0.048,0.12 0.12,0.12Z" style="fill:white;fill-rule:nonzero;"/>
            <path d="M50.667,252.869l0,-0.395c0,-0.072 -0.048,-0.12 -0.12,-0.12l-0.912,0c-0.024,0 -0.048,-0.024 -0.048,-0.048l0,-1.344c0,-0.072 -0.048,-0.12 -0.12,-0.12l-0.599,0c-0.072,0 -0.12,0.048 -0.12,0.12l0,1.344c0,0.024 -0.024,0.048 -0.048,0.048l-0.468,0c-0.072,0 -0.12,0.048 -0.12,0.12l0,0.395c0,0.072 0.048,0.12 0.12,0.12l0.468,0c0.024,0 0.048,0.024 0.048,0.048l0,3.925c0,1.211 0.587,1.463 1.439,1.463l0.3,0c0.072,0 0.12,-0.048 0.12,-0.12l0,-0.515c0,-0.072 -0.048,-0.12 -0.12,-0.12l-0.12,0c-0.504,0.012 -0.78,-0.192 -0.78,-0.96l0,-3.673c0,-0.024 0.024,-0.048 0.048,-0.048l0.912,0c0.072,0 0.12,-0.048 0.12,-0.12Z" style="fill:white;fill-rule:nonzero;"/>
            <path d="M53.896,252.27c-0.481,0 -0.937,0.18 -1.249,0.611c-0.024,0.036 -0.06,0.024 -0.06,-0.012l0,-2.723c0,-0.072 -0.048,-0.12 -0.12,-0.12l-0.611,0c-0.072,0 -0.12,0.048 -0.12,0.12l0,8.159c0,0.072 0.048,0.12 0.12,0.12l0.611,0c0.072,0 0.12,-0.048 0.12,-0.12l0,-3.996c0,-0.804 0.396,-1.296 1.033,-1.296c0.612,0 0.96,0.456 0.96,1.236l0,4.056c0,0.072 0.048,0.12 0.12,0.12l0.611,0c0.072,0 0.12,-0.048 0.12,-0.12l0,-4.128c0,-1.2 -0.551,-1.907 -1.535,-1.907Z" style="fill:white;fill-rule:nonzero;"/>
            <path d="M60.447,255.593l0,-1.5c0,-1.08 -0.719,-1.835 -1.883,-1.835c-1.141,0 -1.872,0.755 -1.872,1.835l0,2.592c0,1.105 0.731,1.836 1.872,1.836c1.056,0 1.715,-0.599 1.847,-1.535c0.012,-0.073 -0.036,-0.133 -0.108,-0.133l-0.599,-0.024c-0.072,0 -0.108,0.036 -0.132,0.109c-0.108,0.492 -0.48,0.84 -1.008,0.84c-0.601,0 -1.021,-0.468 -1.021,-1.141l0,-0.876c0,-0.024 0.024,-0.048 0.048,-0.048l2.736,0c0.072,0 0.12,-0.048 0.12,-0.12Zm-1.883,-2.592c0.624,0 1.044,0.468 1.044,1.152l0,0.805c0,0.024 -0.024,0.048 -0.048,0.048l-1.969,0c-0.024,0 -0.048,-0.024 -0.048,-0.048l0,-0.805c0,-0.684 0.42,-1.152 1.021,-1.152Z" style="fill:white;fill-rule:nonzero;"/>
            <path d="M63.76,252.294c-0.576,0 -0.936,0.372 -1.14,0.912c-0.024,0.036 -0.06,0.036 -0.06,-0.012l0,-0.72c0,-0.072 -0.048,-0.12 -0.12,-0.12l-0.612,0c-0.072,0 -0.12,0.048 -0.12,0.12l0,5.831c0,0.072 0.048,0.12 0.12,0.12l0.612,0c0.072,0 0.12,-0.048 0.12,-0.12l0,-3.599c0,-0.816 0.408,-1.452 0.984,-1.488c0.192,-0.036 0.372,-0.012 0.504,0.048c0.084,0.024 0.144,0.012 0.156,-0.072l0.132,-0.612c0.012,-0.06 0,-0.12 -0.06,-0.156c-0.12,-0.072 -0.276,-0.132 -0.516,-0.132Z" style="fill:white;fill-rule:nonzero;"/>
            <path d="M73.061,231.837l-0.783,0.467c-0.036,0.027 -0.063,0.063 -0.063,0.107l0,0.324c0,0.063 0.045,0.099 0.108,0.072l0.747,-0.333c0.018,-0.009 0.045,0 0.045,0.027l0,5.517c0,0.054 0.036,0.09 0.09,0.09l0.458,0c0.054,0 0.09,-0.036 0.09,-0.09l0,-6.119c0,-0.054 -0.036,-0.09 -0.09,-0.09l-0.485,0c-0.036,0 -0.072,0 -0.117,0.028Z" style="fill:white;fill-rule:nonzero;"/>
            <path d="M77.713,235.391c-0.126,-0.765 -0.611,-1.25 -1.349,-1.25c-0.325,0 -0.595,0.134 -0.766,0.368c-0.027,0.027 -0.045,0.018 -0.045,-0.009l0,-1.206c0,-0.585 0.315,-0.982 0.792,-0.982c0.388,0 0.712,0.397 0.712,0.982l0,0.126c0,0.054 0.036,0.09 0.09,0.09l0.458,0c0.054,0 0.09,-0.036 0.09,-0.09l0,-0.144c0,-0.937 -0.575,-1.538 -1.349,-1.538c-0.865,0 -1.44,0.601 -1.44,1.538l0.009,2.952c0,0.27 0.018,0.504 0.063,0.711c0.126,0.828 0.629,1.241 1.368,1.241c0.792,0 1.304,-0.458 1.403,-1.322c0.027,-0.207 0.036,-0.432 0.036,-0.666c0,-0.306 -0.027,-0.576 -0.072,-0.801Zm-0.611,1.413c-0.09,0.54 -0.351,0.819 -0.757,0.819c-0.405,0 -0.648,-0.27 -0.747,-0.774c-0.036,-0.225 -0.045,-0.45 -0.045,-0.702c0,-0.243 0.009,-0.495 0.054,-0.738c0.099,-0.469 0.351,-0.712 0.738,-0.712c0.37,0 0.622,0.234 0.721,0.676c0.054,0.243 0.081,0.504 0.081,0.774c0,0.234 -0.018,0.441 -0.045,0.657Z" style="fill:white;fill-rule:nonzero;"/>
            <path d="M25.228,107.659c0.837,0 1.403,-0.539 1.403,-1.43l0,-2.449c0,-0.9 -0.566,-1.439 -1.403,-1.439c-0.847,0 -1.404,0.539 -1.404,1.439l0,2.449c0,0.891 0.557,1.43 1.404,1.43Zm0,-0.557c-0.451,0 -0.766,-0.306 -0.766,-0.837l0,-2.512c0,-0.54 0.315,-0.846 0.766,-0.846c0.459,0 0.765,0.306 0.765,0.846l0,2.512c0,0.531 -0.306,0.837 -0.765,0.837Z" style="fill:rgb(121,140,115);fill-rule:nonzero;"/>
            <path d="M30.339,102.88l0,-0.386c0,-0.054 -0.036,-0.09 -0.09,-0.09l-2.384,0c-0.054,0 -0.09,0.036 -0.09,0.09l0,5.012c0,0.054 0.036,0.09 0.09,0.09l0.458,0c0.054,0 0.09,-0.036 0.09,-0.09l0,-2.196c0,-0.018 0.018,-0.036 0.036,-0.036l1.116,0c0.054,0 0.09,-0.036 0.09,-0.09l0,-0.377c0,-0.054 -0.036,-0.09 -0.09,-0.09l-1.116,0c-0.018,0 -0.036,-0.018 -0.036,-0.036l0,-1.675c0,-0.018 0.018,-0.036 0.036,-0.036l1.8,0c0.054,0 0.09,-0.036 0.09,-0.09Z" style="fill:rgb(121,140,115);fill-rule:nonzero;"/>
            <path d="M33.75,102.88l0,-0.386c0,-0.054 -0.036,-0.09 -0.09,-0.09l-2.384,0c-0.054,0 -0.09,0.036 -0.09,0.09l0,5.012c0,0.054 0.036,0.09 0.09,0.09l0.458,0c0.054,0 0.09,-0.036 0.09,-0.09l0,-2.196c0,-0.018 0.018,-0.036 0.036,-0.036l1.116,0c0.054,0 0.09,-0.036 0.09,-0.09l0,-0.377c0,-0.054 -0.036,-0.09 -0.09,-0.09l-1.116,0c-0.018,0 -0.036,-0.018 -0.036,-0.036l0,-1.675c0,-0.018 0.018,-0.036 0.036,-0.036l1.8,0c0.054,0 0.09,-0.036 0.09,-0.09Z" style="fill:rgb(121,140,115);fill-rule:nonzero;"/>
            <path d="M22.69,152.596c0.838,0 1.404,-0.539 1.404,-1.43l0,-2.449c0,-0.9 -0.566,-1.439 -1.404,-1.439c-0.846,0 -1.403,0.539 -1.403,1.439l0,2.449c0,0.891 0.557,1.43 1.403,1.43Zm0,-0.557c-0.45,0 -0.765,-0.306 -0.765,-0.837l0,-2.512c0,-0.54 0.315,-0.846 0.765,-0.846c0.46,0 0.766,0.306 0.766,0.846l0,2.512c0,0.531 -0.306,0.837 -0.766,0.837Z" style="fill:rgb(121,140,115);fill-rule:nonzero;"/>
            <path d="M27.802,147.817l0,-0.386c0,-0.054 -0.036,-0.09 -0.09,-0.09l-2.384,0c-0.054,0 -0.09,0.036 -0.09,0.09l0,5.012c0,0.054 0.036,0.09 0.09,0.09l0.458,0c0.054,0 0.09,-0.036 0.09,-0.09l0,-2.196c0,-0.018 0.018,-0.036 0.036,-0.036l1.116,0c0.054,0 0.09,-0.036 0.09,-0.09l0,-0.377c0,-0.054 -0.036,-0.09 -0.09,-0.09l-1.116,0c-0.018,0 -0.036,-0.018 -0.036,-0.036l0,-1.675c0,-0.018 0.018,-0.036 0.036,-0.036l1.8,0c0.054,0 0.09,-0.036 0.09,-0.09Z" style="fill:rgb(121,140,115);fill-rule:nonzero;"/>
            <path d="M31.213,147.817l0,-0.386c0,-0.054 -0.036,-0.09 -0.09,-0.09l-2.384,0c-0.054,0 -0.09,0.036 -0.09,0.09l0,5.012c0,0.054 0.036,0.09 0.09,0.09l0.458,0c0.054,0 0.09,-0.036 0.09,-0.09l0,-2.196c0,-0.018 0.018,-0.036 0.036,-0.036l1.116,0c0.054,0 0.09,-0.036 0.09,-0.09l0,-0.377c0,-0.054 -0.036,-0.09 -0.09,-0.09l-1.116,0c-0.018,0 -0.036,-0.018 -0.036,-0.036l0,-1.675c0,-0.018 0.018,-0.036 0.036,-0.036l1.8,0c0.054,0 0.09,-0.036 0.09,-0.09Z" style="fill:rgb(121,140,115);fill-rule:nonzero;"/>
            <path d="M48.94,222.618c0.838,0 1.404,-0.539 1.404,-1.43l0,-2.449c0,-0.9 -0.566,-1.439 -1.404,-1.439c-0.846,0 -1.403,0.539 -1.403,1.439l0,2.449c0,0.891 0.557,1.43 1.403,1.43Zm0,-0.557c-0.45,0 -0.765,-0.306 -0.765,-0.837l0,-2.512c0,-0.54 0.315,-0.846 0.765,-0.846c0.46,0 0.766,0.306 0.766,0.846l0,2.512c0,0.531 -0.306,0.837 -0.766,0.837Z" style="fill:rgb(121,140,115);fill-rule:nonzero;"/>
            <path d="M54.052,217.839l0,-0.386c0,-0.054 -0.036,-0.09 -0.09,-0.09l-2.384,0c-0.054,0 -0.09,0.036 -0.09,0.09l0,5.012c0,0.054 0.036,0.09 0.09,0.09l0.458,0c0.054,0 0.09,-0.036 0.09,-0.09l0,-2.196c0,-0.018 0.018,-0.036 0.036,-0.036l1.116,0c0.054,0 0.09,-0.036 0.09,-0.09l0,-0.377c0,-0.054 -0.036,-0.09 -0.09,-0.09l-1.116,0c-0.018,0 -0.036,-0.018 -0.036,-0.036l0,-1.675c0,-0.018 0.018,-0.036 0.036,-0.036l1.8,0c0.054,0 0.09,-0.036 0.09,-0.09Z" style="fill:rgb(121,140,115);fill-rule:nonzero;"/>
            <path d="M57.463,217.839l0,-0.386c0,-0.054 -0.036,-0.09 -0.09,-0.09l-2.384,0c-0.054,0 -0.09,0.036 -0.09,0.09l0,5.012c0,0.054 0.036,0.09 0.09,0.09l0.458,0c0.054,0 0.09,-0.036 0.09,-0.09l0,-2.196c0,-0.018 0.018,-0.036 0.036,-0.036l1.116,0c0.054,0 0.09,-0.036 0.09,-0.09l0,-0.377c0,-0.054 -0.036,-0.09 -0.09,-0.09l-1.116,0c-0.018,0 -0.036,-0.018 -0.036,-0.036l0,-1.675c0,-0.018 0.018,-0.036 0.036,-0.036l1.8,0c0.054,0 0.09,-0.036 0.09,-0.09Z" style="fill:rgb(121,140,115);fill-rule:nonzero;"/>
            <path d="M38.417,141.299l0.477,0c0.063,0 0.09,-0.036 0.072,-0.099l-1.196,-5.012c-0.009,-0.045 -0.045,-0.081 -0.099,-0.081l-0.549,0c-0.054,0 -0.09,0.036 -0.099,0.081l-1.178,5.012c-0.018,0.054 0.009,0.099 0.072,0.099l0.459,0c0.054,0 0.09,-0.027 0.099,-0.081l0.189,-0.855c0,-0.018 0.027,-0.036 0.045,-0.036l1.385,0c0.017,0 0.044,0.018 0.044,0.036l0.18,0.855c0.009,0.054 0.045,0.081 0.099,0.081Zm-1.618,-1.529l0.593,-2.71c0.009,-0.036 0.027,-0.036 0.036,0l0.585,2.71c0.009,0.018 -0.009,0.036 -0.027,0.036l-1.16,0c-0.018,0 -0.036,-0.018 -0.027,-0.036Z" style="fill:white;fill-rule:nonzero;"/>
            <path d="M53.085,135.441c0.432,-0.188 0.656,-0.558 0.656,-1.107c0,-0.9 -0.584,-1.376 -1.502,-1.376l-1.161,0c-0.054,0 -0.089,0.035 -0.089,0.089l0,5.013c0,0.054 0.035,0.089 0.089,0.089l1.251,0c0.864,0 1.457,-0.512 1.457,-1.421c-0.009,-0.612 -0.287,-1.027 -0.71,-1.242c-0.018,-0.018 -0.018,-0.036 0.009,-0.045Zm-1.423,-1.918l0.595,0c0.54,0 0.865,0.316 0.865,0.874c0,0.549 -0.325,0.856 -0.865,0.856l-0.595,0c-0.018,0 -0.036,-0.018 -0.036,-0.036l0,-1.658c0,-0.018 0.018,-0.036 0.036,-0.036Zm0.613,4.061l-0.613,0c-0.018,0 -0.036,-0.018 -0.036,-0.036l0,-1.811c0,-0.018 0.018,-0.036 0.036,-0.036l0.622,0c0.531,0 0.856,0.361 0.856,0.955c0,0.594 -0.325,0.928 -0.865,0.928Z" style="fill:white;fill-rule:nonzero;"/>
            <path d="M77.486,152.596l1.241,0c0.838,0 1.377,-0.548 1.377,-1.385l0,-2.413c0,-0.846 -0.539,-1.394 -1.377,-1.394l-1.241,0c-0.054,0 -0.09,0.036 -0.09,0.09l0,5.012c0,0.054 0.036,0.09 0.09,0.09Zm0.548,-0.593l0,-3.997c0,-0.018 0.018,-0.036 0.036,-0.036l0.648,0c0.46,0 0.748,0.333 0.748,0.855l0,2.341c-0.009,0.531 -0.297,0.864 -0.748,0.864l-0.648,0.009c-0.018,0 -0.036,-0.018 -0.036,-0.036Z" style="fill:white;fill-rule:nonzero;"/>
            <path d="M67.405,141.434c0.838,0 1.395,-0.521 1.395,-1.412l0,-0.09c0,-0.054 -0.036,-0.09 -0.09,-0.09l-0.467,-0.027c-0.054,0 -0.09,0.036 -0.09,0.09l0,0.171c0,0.504 -0.297,0.801 -0.748,0.801c-0.45,0 -0.747,-0.297 -0.747,-0.801l0,-2.602c0,-0.504 0.297,-0.792 0.747,-0.792c0.451,0 0.748,0.288 0.748,0.792l0,0.18c0,0.054 0.036,0.09 0.09,0.09l0.467,-0.027c0.054,0 0.09,-0.036 0.09,-0.09l0,-0.099c0,-0.9 -0.557,-1.412 -1.395,-1.412c-0.828,0 -1.385,0.512 -1.385,1.412l0,2.494c0,0.891 0.557,1.412 1.385,1.412Z" style="fill:white;fill-rule:nonzero;"/>
            <path d="M22.571,57.395l-1.341,0c-0.054,0 -0.09,0.036 -0.09,0.09l0,5.021c0,0.054 0.036,0.09 0.09,0.09l0.458,0c0.054,0 0.09,-0.036 0.09,-0.09l0,-2.169c0,-0.018 0.018,-0.036 0.036,-0.036l0.784,0c0.774,0 1.295,-0.575 1.295,-1.431c0,-0.873 -0.53,-1.475 -1.322,-1.475Zm-0.091,2.403l-0.666,0c-0.018,0 -0.036,-0.018 -0.036,-0.036l0,-1.774c0,-0.018 0.018,-0.036 0.036,-0.036l0.666,0c0.46,0 0.775,0.36 0.775,0.928c0,0.558 -0.315,0.918 -0.775,0.918Z" style="fill:white;fill-rule:nonzero;"/>
            <path d="M27.448,57.88l0,-0.377c0,-0.054 -0.036,-0.09 -0.09,-0.09l-2.393,0c-0.054,0 -0.09,0.036 -0.09,0.09l0,5.003c0,0.054 0.036,0.09 0.09,0.09l2.393,0c0.054,0 0.09,-0.036 0.09,-0.09l0,-0.377c0,-0.054 -0.036,-0.09 -0.09,-0.09l-1.809,0c-0.018,0 -0.036,-0.018 -0.036,-0.036l0,-1.693c0,-0.018 0.018,-0.036 0.036,-0.036l1.116,0c0.054,0 0.09,-0.036 0.09,-0.09l0,-0.377c0,-0.054 -0.036,-0.09 -0.09,-0.09l-1.116,0c-0.018,0 -0.036,-0.018 -0.036,-0.036l0,-1.675c0,-0.018 0.018,-0.036 0.036,-0.036l1.809,0c0.054,0 0.09,-0.036 0.09,-0.09Z" style="fill:white;fill-rule:nonzero;"/>
            <path d="M30.989,62.596l0.477,0c0.063,0 0.09,-0.036 0.072,-0.099l-1.196,-5.012c-0.009,-0.045 -0.045,-0.081 -0.099,-0.081l-0.549,0c-0.054,0 -0.09,0.036 -0.099,0.081l-1.178,5.012c-0.018,0.054 0.009,0.099 0.072,0.099l0.459,0c0.054,0 0.09,-0.027 0.099,-0.081l0.189,-0.855c0,-0.018 0.027,-0.036 0.045,-0.036l1.385,0c0.017,0 0.044,0.018 0.044,0.036l0.18,0.855c0.009,0.054 0.045,0.081 0.099,0.081Zm-1.618,-1.529l0.593,-2.71c0.009,-0.036 0.027,-0.036 0.036,0l0.585,2.71c0.009,0.018 -0.009,0.036 -0.027,0.036l-1.16,0c-0.018,0 -0.036,-0.018 -0.027,-0.036Z" style="fill:white;fill-rule:nonzero;"/>
            <path d="M32.633,62.596l0.458,0c0.054,0 0.09,-0.036 0.09,-0.09l0,-1.647c0,-0.018 0.009,-0.036 0.018,-0.045l0.468,-0.711c0.018,-0.018 0.036,-0.027 0.045,0l1.071,2.421c0.018,0.054 0.054,0.072 0.099,0.072l0.513,0c0.063,0 0.099,-0.045 0.072,-0.108l-1.314,-2.961c-0.009,-0.018 0,-0.036 0.009,-0.054l1.188,-1.962c0.036,-0.063 0.009,-0.108 -0.063,-0.108l-0.495,0c-0.045,0 -0.081,0.027 -0.108,0.063l-1.458,2.331c-0.018,0.036 -0.045,0.027 -0.045,-0.009l0,-2.295c0,-0.054 -0.036,-0.09 -0.09,-0.09l-0.458,0c-0.054,0 -0.09,0.036 -0.09,0.09l0,5.013c0,0.054 0.036,0.09 0.09,0.09Z" style="fill:white;fill-rule:nonzero;"/>
            <path d="M37.483,62.659c0.802,0 1.377,-0.53 1.377,-1.367c0,-0.711 -0.413,-1.026 -1.223,-1.585c-0.631,-0.441 -0.883,-0.639 -0.883,-1.062c0,-0.486 0.297,-0.747 0.693,-0.747c0.442,0 0.73,0.324 0.73,0.819l0,0.126c0,0.054 0.036,0.09 0.09,0.09l0.449,0c0.054,0 0.09,-0.036 0.09,-0.09l0,-0.144c0,-0.801 -0.539,-1.358 -1.359,-1.358c-0.774,0 -1.322,0.485 -1.322,1.295c0,0.792 0.539,1.17 1.169,1.594c0.568,0.378 0.928,0.612 0.928,1.098c0,0.468 -0.315,0.783 -0.739,0.783c-0.423,0 -0.72,-0.324 -0.72,-0.837l0,-0.09c0,-0.054 -0.036,-0.09 -0.09,-0.09l-0.449,0c-0.054,0 -0.09,0.036 -0.09,0.09l0,0.153c0,0.783 0.548,1.322 1.349,1.322Z" style="fill:white;fill-rule:nonzero;"/>
            <path d="M14.493,77.659c0.801,0 1.376,-0.53 1.376,-1.367c0,-0.711 -0.413,-1.026 -1.223,-1.585c-0.631,-0.441 -0.883,-0.639 -0.883,-1.062c0,-0.486 0.297,-0.747 0.694,-0.747c0.441,0 0.729,0.324 0.729,0.819l0,0.126c0,0.054 0.036,0.09 0.09,0.09l0.449,0c0.054,0 0.09,-0.036 0.09,-0.09l0,-0.144c0,-0.801 -0.539,-1.358 -1.358,-1.358c-0.775,0 -1.323,0.485 -1.323,1.295c0,0.792 0.539,1.17 1.169,1.594c0.568,0.378 0.928,0.612 0.928,1.098c0,0.468 -0.315,0.783 -0.738,0.783c-0.424,0 -0.721,-0.324 -0.721,-0.837l0,-0.09c0,-0.054 -0.036,-0.09 -0.09,-0.09l-0.449,0c-0.054,0 -0.09,0.036 -0.09,0.09l0,0.153c0,0.783 0.548,1.322 1.35,1.322Z" style="fill:white;fill-rule:nonzero;"/>
            <path d="M17.004,77.596l2.375,0c0.054,0 0.09,-0.036 0.09,-0.09l0,-0.377c0,-0.054 -0.036,-0.09 -0.09,-0.09l-1.791,0c-0.018,0 -0.036,-0.018 -0.036,-0.036l0,-4.509c0,-0.054 -0.036,-0.09 -0.09,-0.09l-0.458,0c-0.054,0 -0.09,0.036 -0.09,0.09l0,5.012c0,0.054 0.036,0.09 0.09,0.09Z" style="fill:white;fill-rule:nonzero;"/>
            <path d="M22.844,72.88l0,-0.377c0,-0.054 -0.036,-0.09 -0.09,-0.09l-2.393,0c-0.054,0 -0.09,0.036 -0.09,0.09l0,5.003c0,0.054 0.036,0.09 0.09,0.09l2.393,0c0.054,0 0.09,-0.036 0.09,-0.09l0,-0.377c0,-0.054 -0.036,-0.09 -0.09,-0.09l-1.809,0c-0.018,0 -0.036,-0.018 -0.036,-0.036l0,-1.693c0,-0.018 0.018,-0.036 0.036,-0.036l1.116,0c0.054,0 0.09,-0.036 0.09,-0.09l0,-0.377c0,-0.054 -0.036,-0.09 -0.09,-0.09l-1.116,0c-0.018,0 -0.036,-0.018 -0.036,-0.036l0,-1.675c0,-0.018 0.018,-0.036 0.036,-0.036l1.809,0c0.054,0 0.09,-0.036 0.09,-0.09Z" style="fill:white;fill-rule:nonzero;"/>
            <path d="M24.753,77.596l0.414,0c0.054,0 0.081,-0.027 0.09,-0.081l0.621,-3.805c0.009,-0.027 0.027,-0.027 0.036,0l0.629,3.805c0.009,0.054 0.036,0.081 0.09,0.081l0.432,0c0.054,0 0.09,-0.027 0.099,-0.081l0.99,-5.011c0.009,-0.054 -0.018,-0.099 -0.081,-0.099l-0.477,0c-0.054,0 -0.09,0.027 -0.099,0.081l-0.639,3.841c-0.009,0.027 -0.027,0.027 -0.036,0l-0.639,-3.841c-0.009,-0.054 -0.044,-0.081 -0.098,-0.081l-0.378,0c-0.054,0 -0.081,0.027 -0.09,0.081l-0.621,3.841c-0.009,0.027 -0.027,0.036 -0.036,0.009l-0.693,-3.85c-0.009,-0.054 -0.045,-0.081 -0.099,-0.081l-0.486,0c-0.063,0 -0.09,0.036 -0.081,0.099l1.053,5.011c0.009,0.054 0.045,0.081 0.099,0.081Z" style="fill:white;fill-rule:nonzero;"/>
            <path d="M13.125,92.8c0.801,0 1.376,-0.53 1.376,-1.367c0,-0.711 -0.413,-1.026 -1.223,-1.584c-0.63,-0.442 -0.883,-0.64 -0.883,-1.063c0,-0.486 0.298,-0.747 0.694,-0.747c0.441,0 0.73,0.324 0.73,0.819l0,0.126c0,0.054 0.035,0.09 0.089,0.09l0.45,0c0.054,0 0.089,-0.036 0.089,-0.09l0,-0.144c0,-0.801 -0.539,-1.358 -1.358,-1.358c-0.774,0 -1.322,0.485 -1.322,1.295c0,0.792 0.539,1.171 1.169,1.594c0.567,0.378 0.928,0.612 0.928,1.098c0,0.468 -0.316,0.783 -0.739,0.783c-0.423,0 -0.721,-0.324 -0.721,-0.837l0,-0.09c0,-0.054 -0.036,-0.09 -0.089,-0.09l-0.45,0c-0.054,0 -0.089,0.036 -0.089,0.09l0,0.153c0,0.783 0.548,1.322 1.349,1.322Z" style="fill:white;fill-rule:nonzero;"/>
            <path d="M16.887,92.8c0.846,0 1.394,-0.584 1.394,-1.538l0,-3.618c0,-0.054 -0.035,-0.09 -0.089,-0.09l-0.459,0c-0.054,0 -0.089,0.036 -0.089,0.09l0,3.672c0,0.576 -0.298,0.927 -0.757,0.927c-0.45,0 -0.748,-0.351 -0.748,-0.927l0,-3.672c0,-0.054 -0.035,-0.09 -0.089,-0.09l-0.459,0c-0.054,0 -0.089,0.036 -0.089,0.09l0,3.618c0,0.954 0.557,1.538 1.385,1.538Z" style="fill:white;fill-rule:nonzero;"/>
            <path d="M21.487,90.029c0.431,-0.189 0.655,-0.558 0.655,-1.107c0,-0.901 -0.584,-1.377 -1.502,-1.377l-1.161,0c-0.054,0 -0.089,0.036 -0.089,0.09l0,5.012c0,0.054 0.035,0.09 0.089,0.09l1.251,0c0.864,0 1.457,-0.512 1.457,-1.421c-0.009,-0.613 -0.287,-1.027 -0.709,-1.242c-0.018,-0.018 -0.018,-0.036 0.009,-0.045Zm-1.424,-1.918l0.595,0c0.54,0 0.865,0.315 0.865,0.874c0,0.549 -0.325,0.855 -0.865,0.855l-0.595,0c-0.018,0 -0.036,-0.018 -0.036,-0.036l0,-1.657c0,-0.018 0.018,-0.036 0.036,-0.036Zm0.613,4.06l-0.613,0c-0.018,0 -0.036,-0.018 -0.036,-0.036l0,-1.81c0,-0.018 0.018,-0.036 0.036,-0.036l0.622,0c0.531,0 0.856,0.36 0.856,0.955c0,0.594 -0.325,0.927 -0.865,0.927Z" style="fill:white;fill-rule:nonzero;"/>
            <path d="M24.357,92.8c0.801,0 1.376,-0.53 1.376,-1.367c0,-0.711 -0.413,-1.026 -1.223,-1.584c-0.63,-0.442 -0.883,-0.64 -0.883,-1.063c0,-0.486 0.298,-0.747 0.694,-0.747c0.441,0 0.73,0.324 0.73,0.819l0,0.126c0,0.054 0.035,0.09 0.089,0.09l0.45,0c0.054,0 0.089,-0.036 0.089,-0.09l0,-0.144c0,-0.801 -0.539,-1.358 -1.358,-1.358c-0.774,0 -1.322,0.485 -1.322,1.295c0,0.792 0.539,1.171 1.169,1.594c0.567,0.378 0.928,0.612 0.928,1.098c0,0.468 -0.316,0.783 -0.739,0.783c-0.423,0 -0.721,-0.324 -0.721,-0.837l0,-0.09c0,-0.054 -0.036,-0.09 -0.089,-0.09l-0.45,0c-0.054,0 -0.089,0.036 -0.089,0.09l0,0.153c0,0.783 0.548,1.322 1.349,1.322Z" style="fill:white;fill-rule:nonzero;"/>
            <path d="M45.151,57.596l0.458,0c0.054,0 0.09,-0.036 0.09,-0.09l0,-4.058c0,-0.036 0.036,-0.036 0.045,-0.009l0.757,1.699c0.018,0.054 0.045,0.075 0.081,0.075c0.036,0 0.063,-0.021 0.081,-0.075l0.747,-1.699c0.009,-0.027 0.045,-0.027 0.045,0.009l0,4.058c0,0.054 0.036,0.09 0.09,0.09l0.458,0c0.054,0 0.09,-0.036 0.09,-0.09l0,-5.012c0,-0.054 -0.036,-0.09 -0.09,-0.09l-0.467,0c-0.045,0 -0.081,0.027 -0.099,0.072l-0.837,1.825c-0.009,0.027 -0.045,0.027 -0.054,0l-0.838,-1.825c-0.018,-0.045 -0.054,-0.072 -0.099,-0.072l-0.458,0c-0.054,0 -0.09,0.036 -0.09,0.09l0,5.012c0,0.054 0.036,0.09 0.09,0.09Z" style="fill:white;fill-rule:nonzero;"/>
            <path d="M50.641,57.659c0.837,0 1.403,-0.539 1.403,-1.43l0,-2.449c0,-0.9 -0.566,-1.439 -1.403,-1.439c-0.847,0 -1.404,0.539 -1.404,1.439l0,2.449c0,0.891 0.557,1.43 1.404,1.43Zm0,-0.557c-0.451,0 -0.766,-0.306 -0.766,-0.837l0,-2.512c0,-0.54 0.315,-0.846 0.766,-0.846c0.459,0 0.765,0.306 0.765,0.846l0,2.512c0,0.531 -0.306,0.837 -0.765,0.837Z" style="fill:white;fill-rule:nonzero;"/>
            <path d="M53.278,57.596l0.449,0c0.054,0 0.09,-0.036 0.09,-0.09l0,-3.753c0,-0.036 0.036,-0.045 0.045,-0.009l1.522,3.78c0.018,0.054 0.054,0.072 0.099,0.072l0.476,0c0.054,0 0.09,-0.036 0.09,-0.09l0,-5.004c0,-0.054 -0.036,-0.09 -0.09,-0.09l-0.449,0c-0.054,0 -0.09,0.036 -0.09,0.09l0,3.744c0,0.036 -0.036,0.045 -0.045,0.009l-1.531,-3.771c-0.018,-0.054 -0.054,-0.072 -0.099,-0.072l-0.467,0c-0.054,0 -0.09,0.036 -0.09,0.09l0,5.004c0,0.054 0.036,0.09 0.09,0.09Z" style="fill:white;fill-rule:nonzero;"/>
            <path d="M58.597,57.659c0.837,0 1.403,-0.539 1.403,-1.43l0,-2.449c0,-0.9 -0.566,-1.439 -1.403,-1.439c-0.847,0 -1.404,0.539 -1.404,1.439l0,2.449c0,0.891 0.557,1.43 1.404,1.43Zm0,-0.557c-0.451,0 -0.766,-0.306 -0.766,-0.837l0,-2.512c0,-0.54 0.315,-0.846 0.766,-0.846c0.459,0 0.765,0.306 0.765,0.846l0,2.512c0,0.531 -0.306,0.837 -0.765,0.837Z" style="fill:white;fill-rule:nonzero;"/>
            <path d="M68.858,62.659c0.802,0 1.377,-0.53 1.377,-1.367c0,-0.711 -0.413,-1.026 -1.223,-1.585c-0.631,-0.441 -0.883,-0.639 -0.883,-1.062c0,-0.486 0.297,-0.747 0.693,-0.747c0.442,0 0.73,0.324 0.73,0.819l0,0.126c0,0.054 0.036,0.09 0.09,0.09l0.449,0c0.054,0 0.09,-0.036 0.09,-0.09l0,-0.144c0,-0.801 -0.539,-1.358 -1.359,-1.358c-0.774,0 -1.322,0.485 -1.322,1.295c0,0.792 0.539,1.17 1.169,1.594c0.568,0.378 0.928,0.612 0.928,1.098c0,0.468 -0.315,0.783 -0.739,0.783c-0.423,0 -0.72,-0.324 -0.72,-0.837l0,-0.09c0,-0.054 -0.036,-0.09 -0.09,-0.09l-0.449,0c-0.054,0 -0.09,0.036 -0.09,0.09l0,0.153c0,0.783 0.548,1.322 1.349,1.322Z" style="fill:white;fill-rule:nonzero;"/>
            <path d="M71.37,62.596l0.458,0c0.054,0 0.09,-0.036 0.09,-0.09l0,-5.004c0,-0.054 -0.036,-0.09 -0.09,-0.09l-0.458,0c-0.054,0 -0.09,0.036 -0.09,0.09l0,5.004c0,0.054 0.036,0.09 0.09,0.09Z" style="fill:white;fill-rule:nonzero;"/>
            <path d="M73.269,62.596l1.241,0c0.838,0 1.377,-0.548 1.377,-1.385l0,-2.413c0,-0.846 -0.539,-1.394 -1.377,-1.394l-1.241,0c-0.054,0 -0.09,0.036 -0.09,0.09l0,5.012c0,0.054 0.036,0.09 0.09,0.09Zm0.548,-0.593l0,-3.997c0,-0.018 0.018,-0.036 0.036,-0.036l0.648,0c0.46,0 0.748,0.333 0.748,0.855l0,2.341c-0.009,0.531 -0.297,0.864 -0.748,0.864l-0.648,0.009c-0.018,0 -0.036,-0.018 -0.036,-0.036Z" style="fill:white;fill-rule:nonzero;"/>
            <path d="M79.577,57.88l0,-0.377c0,-0.054 -0.036,-0.09 -0.09,-0.09l-2.393,0c-0.054,0 -0.09,0.036 -0.09,0.09l0,5.003c0,0.054 0.036,0.09 0.09,0.09l2.393,0c0.054,0 0.09,-0.036 0.09,-0.09l0,-0.377c0,-0.054 -0.036,-0.09 -0.09,-0.09l-1.809,0c-0.018,0 -0.036,-0.018 -0.036,-0.036l0,-1.693c0,-0.018 0.018,-0.036 0.036,-0.036l1.116,0c0.054,0 0.09,-0.036 0.09,-0.09l0,-0.377c0,-0.054 -0.036,-0.09 -0.09,-0.09l-1.116,0c-0.018,0 -0.036,-0.018 -0.036,-0.036l0,-1.675c0,-0.018 0.018,-0.036 0.036,-0.036l1.809,0c0.054,0 0.09,-0.036 0.09,-0.09Z" style="fill:white;fill-rule:nonzero;"/>
            <path d="M78.878,77.534l0.477,0c0.054,0 0.09,-0.036 0.099,-0.081l1.16,-5.013c0.018,-0.054 -0.009,-0.099 -0.072,-0.099l-0.486,0c-0.054,0 -0.09,0.027 -0.099,0.081l-0.8,3.988c-0.009,0.036 -0.027,0.036 -0.036,0l-0.827,-3.987c-0.009,-0.054 -0.045,-0.081 -0.099,-0.081l-0.504,0c-0.063,0 -0.09,0.045 -0.072,0.099l1.16,5.012c0.009,0.045 0.045,0.081 0.099,0.081Z" style="fill:white;fill-rule:nonzero;"/>
            <path d="M81.709,77.534l0.458,0c0.054,0 0.09,-0.036 0.09,-0.09l0,-5.004c0,-0.054 -0.036,-0.09 -0.09,-0.09l-0.458,0c-0.054,0 -0.09,0.036 -0.09,0.09l0,5.004c0,0.054 0.036,0.09 0.09,0.09Z" style="fill:white;fill-rule:nonzero;"/>
            <path d="M83.608,77.534l0.449,0c0.054,0 0.09,-0.036 0.09,-0.09l0,-3.753c0,-0.036 0.036,-0.045 0.045,-0.009l1.522,3.78c0.018,0.054 0.054,0.072 0.099,0.072l0.476,0c0.054,0 0.09,-0.036 0.09,-0.09l0,-5.004c0,-0.054 -0.036,-0.09 -0.09,-0.09l-0.449,0c-0.054,0 -0.09,0.036 -0.09,0.09l0,3.744c0,0.036 -0.036,0.045 -0.045,0.009l-1.531,-3.771c-0.018,-0.054 -0.054,-0.072 -0.099,-0.072l-0.467,0c-0.054,0 -0.09,0.036 -0.09,0.09l0,5.004c0,0.054 0.036,0.09 0.09,0.09Z" style="fill:white;fill-rule:nonzero;"/>
            <path d="M88.594,77.525l0.458,0c0.054,0 0.09,-0.036 0.09,-0.09l0,-2.132c0,-0.009 0,-0.036 0.009,-0.045l1.089,-2.808c0.027,-0.063 0,-0.108 -0.063,-0.108l-0.486,0c-0.045,0 -0.09,0.018 -0.108,0.072l-0.737,2.079c-0.009,0.027 -0.045,0.027 -0.054,0l-0.738,-2.079c-0.018,-0.054 -0.063,-0.072 -0.108,-0.072l-0.486,0c-0.063,0 -0.09,0.045 -0.063,0.108l1.098,2.808c0.009,0.009 0.009,0.036 0.009,0.045l0,2.132c0,0.054 0.036,0.09 0.09,0.09Z" style="fill:white;fill-rule:nonzero;"/>
            <path d="M91.285,77.534l2.375,0c0.054,0 0.09,-0.036 0.09,-0.09l0,-0.377c0,-0.054 -0.036,-0.09 -0.09,-0.09l-1.791,0c-0.018,0 -0.036,-0.018 -0.036,-0.036l0,-4.509c0,-0.054 -0.036,-0.09 -0.09,-0.09l-0.458,0c-0.054,0 -0.09,0.036 -0.09,0.09l0,5.012c0,0.054 0.036,0.09 0.09,0.09Z" style="fill:white;fill-rule:nonzero;"/>
            <path d="M79.787,92.569l0.477,0c0.063,0 0.09,-0.036 0.072,-0.099l-1.196,-5.012c-0.009,-0.045 -0.045,-0.081 -0.099,-0.081l-0.549,0c-0.054,0 -0.09,0.036 -0.099,0.081l-1.178,5.012c-0.018,0.054 0.009,0.099 0.072,0.099l0.459,0c0.054,0 0.09,-0.027 0.099,-0.081l0.189,-0.855c0,-0.018 0.027,-0.036 0.045,-0.036l1.385,0c0.018,0 0.045,0.018 0.045,0.036l0.179,0.855c0.009,0.054 0.045,0.081 0.099,0.081Zm-1.618,-1.529l0.593,-2.71c0.009,-0.036 0.027,-0.036 0.036,0l0.585,2.71c0.009,0.018 -0.009,0.036 -0.027,0.036l-1.16,0c-0.018,0 -0.036,-0.018 -0.027,-0.036Z" style="fill:white;fill-rule:nonzero;"/>
            <path d="M82.682,92.632c0.846,0 1.394,-0.584 1.394,-1.538l0,-3.618c0,-0.054 -0.036,-0.09 -0.09,-0.09l-0.458,0c-0.054,0 -0.09,0.036 -0.09,0.09l0,3.672c0,0.576 -0.297,0.927 -0.756,0.927c-0.451,0 -0.748,-0.351 -0.748,-0.927l0,-3.672c0,-0.054 -0.036,-0.09 -0.09,-0.09l-0.458,0c-0.054,0 -0.09,0.036 -0.09,0.09l0,3.618c0,0.954 0.557,1.538 1.386,1.538Z" style="fill:white;fill-rule:nonzero;"/>
            <path d="M87.524,92.569l0.467,0c0.063,0 0.09,-0.036 0.072,-0.099l-0.836,-2.277c-0.009,-0.027 0,-0.036 0.027,-0.045c0.495,-0.188 0.791,-0.674 0.791,-1.313c0,-0.865 -0.539,-1.467 -1.322,-1.467l-1.341,0c-0.054,0 -0.09,0.036 -0.09,0.09l0,5.021c0,0.054 0.036,0.09 0.09,0.09l0.458,0c0.054,0 0.09,-0.036 0.09,-0.09l0,-2.205c0,-0.018 0.018,-0.036 0.036,-0.036l0.631,0c0.018,0 0.027,0 0.036,0.027l0.783,2.232c0.018,0.054 0.063,0.072 0.108,0.072Zm-1.558,-4.644l0.667,0c0.459,0 0.774,0.36 0.774,0.91c0,0.549 -0.315,0.891 -0.774,0.891l-0.667,0c-0.018,0 -0.036,-0.018 -0.036,-0.036l0,-1.729c0,-0.018 0.018,-0.036 0.036,-0.036Z" style="fill:white;fill-rule:nonzero;"/>
            <path d="M91.433,92.569l0.477,0c0.063,0 0.09,-0.036 0.072,-0.099l-1.196,-5.012c-0.009,-0.045 -0.045,-0.081 -0.099,-0.081l-0.549,0c-0.054,0 -0.09,0.036 -0.099,0.081l-1.178,5.012c-0.018,0.054 0.009,0.099 0.072,0.099l0.459,0c0.054,0 0.09,-0.027 0.099,-0.081l0.189,-0.855c0,-0.018 0.027,-0.036 0.045,-0.036l1.385,0c0.018,0 0.045,0.018 0.045,0.036l0.179,0.855c0.009,0.054 0.045,0.081 0.099,0.081Zm-1.618,-1.529l0.593,-2.71c0.009,-0.036 0.027,-0.036 0.036,0l0.585,2.71c0.009,0.018 -0.009,0.036 -0.027,0.036l-1.16,0c-0.018,0 -0.036,-0.018 -0.027,-0.036Z" style="fill:white;fill-rule:nonzero;"/>
            <path d="M95.2,87.377l-2.717,0c-0.054,0 -0.09,0.036 -0.09,0.09l0,0.386c0,0.054 0.036,0.09 0.09,0.09l0.972,0c0.018,0 0.036,0.018 0.036,0.036l0,4.5c0,0.054 0.036,0.09 0.09,0.09l0.458,0c0.054,0 0.09,-0.036 0.09,-0.09l0,-4.5c0,-0.018 0.018,-0.036 0.036,-0.036l1.035,0c0.054,0 0.09,-0.036 0.09,-0.09l0,-0.386c0,-0.054 -0.036,-0.09 -0.09,-0.09Z" style="fill:white;fill-rule:nonzero;"/>
            <path d="M72.68,102.395l-1.34,0c-0.054,0 -0.09,0.036 -0.09,0.09l0,5.021c0,0.054 0.036,0.09 0.09,0.09l0.458,0c0.054,0 0.09,-0.036 0.09,-0.09l0,-2.169c0,-0.018 0.018,-0.036 0.036,-0.036l0.783,0c0.775,0 1.296,-0.575 1.296,-1.431c0,-0.873 -0.53,-1.475 -1.323,-1.475Zm-0.09,2.403l-0.666,0c-0.018,0 -0.036,-0.018 -0.036,-0.036l0,-1.774c0,-0.018 0.018,-0.036 0.036,-0.036l0.666,0c0.46,0 0.775,0.36 0.775,0.928c0,0.558 -0.315,0.918 -0.775,0.918Z" style="fill:white;fill-rule:nonzero;"/>
            <path d="M77.019,102.494l0,2.187c0,0.018 -0.018,0.036 -0.036,0.036l-1.324,0c-0.018,0 -0.036,-0.018 -0.036,-0.036l0,-2.187c0,-0.054 -0.036,-0.09 -0.09,-0.09l-0.458,0c-0.054,0 -0.09,0.036 -0.09,0.09l0,5.012c0,0.054 0.036,0.09 0.09,0.09l0.458,0c0.054,0 0.09,-0.036 0.09,-0.09l0,-2.196c0,-0.018 0.018,-0.036 0.036,-0.036l1.324,0c0.018,0 0.036,0.018 0.036,0.036l0,2.196c0,0.054 0.036,0.09 0.09,0.09l0.458,0c0.054,0 0.09,-0.036 0.09,-0.09l0,-5.012c0,-0.054 -0.036,-0.09 -0.09,-0.09l-0.458,0c-0.054,0 -0.09,0.036 -0.09,0.09Z" style="fill:white;fill-rule:nonzero;"/>
            <path d="M80.204,107.659c0.838,0 1.404,-0.539 1.404,-1.43l0,-2.449c0,-0.9 -0.566,-1.439 -1.404,-1.439c-0.846,0 -1.403,0.539 -1.403,1.439l0,2.449c0,0.891 0.557,1.43 1.403,1.43Zm0,-0.557c-0.45,0 -0.765,-0.306 -0.765,-0.837l0,-2.512c0,-0.54 0.315,-0.846 0.765,-0.846c0.46,0 0.766,0.306 0.766,0.846l0,2.512c0,0.531 -0.306,0.837 -0.766,0.837Z" style="fill:white;fill-rule:nonzero;"/>
            <path d="M82.842,107.596l0.449,0c0.054,0 0.09,-0.036 0.09,-0.09l0,-3.753c0,-0.036 0.036,-0.045 0.045,-0.009l1.522,3.78c0.018,0.054 0.054,0.072 0.099,0.072l0.476,0c0.054,0 0.09,-0.036 0.09,-0.09l0,-5.004c0,-0.054 -0.036,-0.09 -0.09,-0.09l-0.449,0c-0.054,0 -0.09,0.036 -0.09,0.09l0,3.744c0,0.036 -0.036,0.045 -0.045,0.009l-1.531,-3.771c-0.018,-0.054 -0.054,-0.072 -0.099,-0.072l-0.467,0c-0.054,0 -0.09,0.036 -0.09,0.09l0,5.004c0,0.054 0.036,0.09 0.09,0.09Z" style="fill:white;fill-rule:nonzero;"/>
            <path d="M89.447,102.88l0,-0.377c0,-0.054 -0.036,-0.09 -0.09,-0.09l-2.393,0c-0.054,0 -0.09,0.036 -0.09,0.09l0,5.003c0,0.054 0.036,0.09 0.09,0.09l2.393,0c0.054,0 0.09,-0.036 0.09,-0.09l0,-0.377c0,-0.054 -0.036,-0.09 -0.09,-0.09l-1.809,0c-0.018,0 -0.036,-0.018 -0.036,-0.036l0,-1.693c0,-0.018 0.018,-0.036 0.036,-0.036l1.116,0c0.054,0 0.09,-0.036 0.09,-0.09l0,-0.377c0,-0.054 -0.036,-0.09 -0.09,-0.09l-1.116,0c-0.018,0 -0.036,-0.018 -0.036,-0.036l0,-1.675c0,-0.018 0.018,-0.036 0.036,-0.036l1.809,0c0.054,0 0.09,-0.036 0.09,-0.09Z" style="fill:white;fill-rule:nonzero;"/>
            <path d="M26.67,238.18l2.825,0c0.054,0 0.09,-0.036 0.09,-0.089l0,-0.378c0,-0.054 -0.036,-0.09 -0.09,-0.09l-2.097,0c-0.027,0 -0.045,-0.018 -0.027,-0.045c0.46,-0.747 0.946,-1.512 1.397,-2.277c0.431,-0.72 0.637,-1.332 0.637,-1.908c0,-0.946 -0.566,-1.584 -1.403,-1.584c-0.837,0 -1.412,0.62 -1.43,1.539l0,0.36c0,0.054 0.035,0.09 0.089,0.09l0.468,0c0.053,0 0.089,-0.036 0.089,-0.09l0,-0.342c-0.009,-0.595 0.298,-1 0.757,-1c0.468,0 0.784,0.396 0.784,1.027c0,0.441 -0.199,0.99 -0.577,1.638c-0.477,0.828 -1.017,1.665 -1.565,2.538c-0.027,0.036 -0.036,0.081 -0.036,0.117l0,0.405c0,0.053 0.035,0.089 0.089,0.089Z" style="fill:white;fill-rule:nonzero;"/>
            <path d="M33.338,235.877l-0.279,0c-0.018,0 -0.036,-0.018 -0.036,-0.036l0,-1.377c0,-0.054 -0.035,-0.09 -0.089,-0.09l-0.459,0c-0.054,0 -0.089,0.036 -0.089,0.09l0,1.377c0,0.018 -0.018,0.036 -0.036,0.036l-1.359,0c-0.027,0 -0.036,-0.027 -0.027,-0.045l1.296,-3.852c0.018,-0.063 -0.009,-0.099 -0.072,-0.099l-0.495,0c-0.045,0 -0.09,0.027 -0.108,0.072l-1.35,3.96c-0.009,0.036 -0.018,0.072 -0.018,0.108l0,0.342c0,0.053 0.036,0.089 0.09,0.089l2.043,0c0.018,0 0.036,0.018 0.036,0.036l0,1.602c0,0.054 0.035,0.09 0.089,0.09l0.459,0c0.054,0 0.089,-0.036 0.089,-0.09l0,-1.602c0,-0.018 0.018,-0.036 0.036,-0.036l0.279,0c0.054,0 0.09,-0.036 0.09,-0.089l0,-0.396c0,-0.054 -0.036,-0.09 -0.09,-0.09Z" style="fill:white;fill-rule:nonzero;"/>
        </g>
    </g>
</svg>
