<?xml version="1.0" encoding="UTF-8" standalone="no"?>
<!DOCTYPE svg PUBLIC "-//W3C//DTD SVG 1.1//EN" "http://www.w3.org/Graphics/SVG/1.1/DTD/svg11.dtd">
<svg width="150px" height="380px" version="1.1" xmlns="http://www.w3.org/2000/svg" xmlns:xlink="http://www.w3.org/1999/xlink" xml:space="preserve" xmlns:serif="http://www.serif.com/" style="fill-rule:evenodd;clip-rule:evenodd;stroke-miterlimit:1.5;">
    <rect id="MV-Dark" serif:id="MV Dark" x="0" y="0" width="150" height="380" style="fill:none;"/>
    <clipPath id="_clip1">
        <rect x="0" y="0" width="150" height="380"/>
    </clipPath>
    <g clip-path="url(#_clip1)">
        <g id="Background">
            <path id="bright" d="M150,379.995l0,-379.995l-150,0l0,379.995l150,0Z" style="fill:rgb(54,69,74);"/>
            <circle id="out2-bg" serif:id="out2 bg" cx="90" cy="325" r="14" style="fill:rgb(51,51,51);"/>
            <circle id="out2-bg1" serif:id="out2 bg" cx="123.75" cy="325" r="14" style="fill:rgb(51,51,51);"/>
            <g id="knobBgLargeThree">
                <g>
                    <path d="M133.254,96.146c11.461,-11.439 11.461,-29.986 0,-41.426c-11.455,-11.432 -30.053,-11.432 -41.508,0c-11.461,11.44 -11.461,29.987 0,41.426l20.754,-20.713l20.754,20.713Z" style="fill:none;stroke:rgb(128,128,128);stroke-width:0.7px;"/>
                </g>
            </g>
            <g id="knobBgLargeThree1" serif:id="knobBgLargeThree">
                <g>
                    <path d="M58.254,96.146c11.461,-11.439 11.461,-29.986 0,-41.426c-11.455,-11.432 -30.053,-11.432 -41.508,0c-11.461,11.44 -11.461,29.987 0,41.426l20.754,-20.713l20.754,20.713Z" style="fill:none;stroke:rgb(128,128,128);stroke-width:0.7px;"/>
                </g>
            </g>
            <g id="knobBgMediumThree">
                <path d="M71.806,155c8.592,-8.58 8.592,-22.49 0,-31.07c-8.585,-8.573 -22.527,-8.573 -31.112,0c-8.592,8.58 -8.592,22.49 0,31.07l15.556,-15.535l15.556,15.535Z" style="fill:none;stroke:rgb(128,128,128);stroke-width:0.7px;"/>
            </g>
            <g id="knobBgMediumThree1" serif:id="knobBgMediumThree">
                <path d="M99.911,199.998c5.474,-5.467 5.474,-14.329 0,-19.796c-5.47,-5.462 -14.352,-5.462 -19.822,0c-5.474,5.467 -5.474,14.329 0,19.796l9.911,-9.898l9.911,9.898Z" style="fill:none;stroke:rgb(128,128,128);stroke-width:0.7px;"/>
            </g>
            <g id="knobBgMediumThree2" serif:id="knobBgMediumThree">
                <path d="M32.411,225c5.474,-5.466 5.474,-14.329 0,-19.795c-5.47,-5.463 -14.352,-5.463 -19.822,0c-5.474,5.466 -5.474,14.329 0,19.795l9.911,-9.898l9.911,9.898Z" style="fill:none;stroke:rgb(128,128,128);stroke-width:0.7px;"/>
            </g>
            <g id="knobBgMediumThree3" serif:id="knobBgMediumThree">
                <path d="M66.161,235c5.474,-5.466 5.474,-14.329 0,-19.795c-5.47,-5.463 -14.352,-5.463 -19.822,0c-5.474,5.466 -5.474,14.329 0,19.795l9.911,-9.898l9.911,9.898Z" style="fill:none;stroke:rgb(128,128,128);stroke-width:0.7px;"/>
            </g>
            <g id="knobBgMediumThree4" serif:id="knobBgMediumThree">
                <path d="M99.911,245c5.474,-5.466 5.474,-14.329 0,-19.795c-5.47,-5.463 -14.352,-5.463 -19.822,0c-5.474,5.466 -5.474,14.329 0,19.795l9.911,-9.898l9.911,9.898Z" style="fill:none;stroke:rgb(128,128,128);stroke-width:0.7px;"/>
            </g>
            <g id="knobBgMediumThree5" serif:id="knobBgMediumThree">
                <path d="M133.661,255c5.474,-5.466 5.474,-14.329 0,-19.795c-5.47,-5.463 -14.352,-5.463 -19.822,0c-5.474,5.466 -5.474,14.329 0,19.795l9.911,-9.898l9.911,9.898Z" style="fill:none;stroke:rgb(128,128,128);stroke-width:0.7px;"/>
            </g>
        </g>
        <g id="Labels">
            <path d="M39.347,171.119c0,-1.008 -0.407,-1.668 -1.054,-2.04c-0.024,-0.012 -0.024,-0.036 0.012,-0.048c0.659,-0.323 0.994,-0.935 0.994,-1.836c0,-1.428 -0.85,-2.195 -2.207,-2.195l-1.727,0c-0.072,0 -0.12,0.048 -0.12,0.12l0,8.159c0,0.072 0.048,0.12 0.12,0.12l1.835,0c1.297,0 2.159,-0.815 2.147,-2.28Zm-3.204,-5.376l0.949,0c0.864,0 1.369,0.564 1.369,1.524c0,0.925 -0.505,1.465 -1.369,1.465l-0.949,0c-0.024,0 -0.048,-0.024 -0.048,-0.048l0,-2.893c0,-0.024 0.024,-0.048 0.048,-0.048Zm0.997,6.901l-0.997,0c-0.024,0 -0.048,-0.024 -0.048,-0.048l0,-3.169c0,-0.024 0.024,-0.048 0.048,-0.048l0.997,0c0.852,0 1.357,0.612 1.357,1.644c0,1.033 -0.505,1.621 -1.357,1.621Z" style="fill:white;fill-rule:nonzero;"/>
            <path d="M42.552,167.268c-0.576,0 -0.936,0.372 -1.14,0.912c-0.024,0.036 -0.06,0.036 -0.06,-0.012l0,-0.72c0,-0.072 -0.048,-0.12 -0.12,-0.12l-0.612,0c-0.072,0 -0.12,0.048 -0.12,0.12l0,5.831c0,0.072 0.048,0.12 0.12,0.12l0.612,0c0.072,0 0.12,-0.048 0.12,-0.12l0,-3.599c0,-0.816 0.408,-1.452 0.984,-1.488c0.192,-0.036 0.372,-0.012 0.504,0.048c0.084,0.024 0.144,0.012 0.156,-0.072l0.132,-0.612c0.012,-0.06 0,-0.12 -0.06,-0.156c-0.12,-0.072 -0.276,-0.132 -0.516,-0.132Z" style="fill:white;fill-rule:nonzero;"/>
            <path d="M44.508,166.247c0.336,0 0.575,-0.264 0.575,-0.636c0,-0.347 -0.239,-0.611 -0.575,-0.611c-0.348,0 -0.599,0.264 -0.599,0.611c0,0.372 0.251,0.636 0.599,0.636Zm-0.311,7.152l0.61,0c0.072,0 0.12,-0.048 0.12,-0.12l0,-5.831c0,-0.072 -0.048,-0.12 -0.12,-0.12l-0.61,0c-0.072,0 -0.12,0.048 -0.12,0.12l0,5.831c0,0.072 0.048,0.12 0.12,0.12Z" style="fill:white;fill-rule:nonzero;"/>
            <path d="M49.201,167.448l0,0.371c0,0.048 -0.024,0.06 -0.06,0.012c-0.277,-0.407 -0.733,-0.599 -1.201,-0.599c-1.02,0 -1.631,0.731 -1.631,1.835l0,2.533c0,1.08 0.599,1.835 1.631,1.835c0.456,0 0.912,-0.192 1.201,-0.611c0.036,-0.036 0.06,-0.012 0.06,0.024l0,0.359c0,1.2 -0.397,1.897 -1.73,1.861c-0.072,0 -0.12,0.048 -0.12,0.12l0,0.515c0,0.072 0.036,0.12 0.12,0.132c1.957,0.084 2.58,-0.959 2.58,-2.556l0,-5.831c0,-0.072 -0.048,-0.12 -0.12,-0.12l-0.61,0c-0.072,0 -0.12,0.048 -0.12,0.12Zm-1.009,5.244c-0.6,0 -1.033,-0.468 -1.033,-1.14l0,-2.425c0,-0.684 0.433,-1.152 1.033,-1.152c0.6,0 1.009,0.468 1.009,1.152l0,2.425c0,0.672 -0.409,1.14 -1.009,1.14Z" style="fill:white;fill-rule:nonzero;"/>
            <path d="M53.556,167.244c-0.48,0 -0.936,0.18 -1.249,0.611c-0.024,0.036 -0.06,0.024 -0.06,-0.012l0,-2.723c0,-0.072 -0.048,-0.12 -0.12,-0.12l-0.61,0c-0.072,0 -0.12,0.048 -0.12,0.12l0,8.159c0,0.072 0.048,0.12 0.12,0.12l0.61,0c0.072,0 0.12,-0.048 0.12,-0.12l0,-3.996c0,-0.804 0.397,-1.296 1.033,-1.296c0.612,0 0.961,0.456 0.961,1.236l0,4.056c0,0.072 0.048,0.12 0.12,0.12l0.61,0c0.072,0 0.12,-0.048 0.12,-0.12l0,-4.128c0,-1.2 -0.551,-1.907 -1.535,-1.907Z" style="fill:white;fill-rule:nonzero;"/>
            <path d="M58.619,167.843l0,-0.395c0,-0.072 -0.048,-0.12 -0.12,-0.12l-0.912,0c-0.024,0 -0.048,-0.024 -0.048,-0.048l0,-1.344c0,-0.072 -0.048,-0.12 -0.12,-0.12l-0.598,0c-0.072,0 -0.12,0.048 -0.12,0.12l0,1.344c0,0.024 -0.024,0.048 -0.048,0.048l-0.468,0c-0.072,0 -0.12,0.048 -0.12,0.12l0,0.395c0,0.072 0.048,0.12 0.12,0.12l0.468,0c0.024,0 0.048,0.024 0.048,0.048l0,3.925c0,1.211 0.587,1.463 1.438,1.463l0.3,0c0.072,0 0.12,-0.048 0.12,-0.12l0,-0.515c0,-0.072 -0.048,-0.12 -0.12,-0.12l-0.12,0c-0.504,0.012 -0.78,-0.192 -0.78,-0.96l0,-3.673c0,-0.024 0.024,-0.048 0.048,-0.048l0.912,0c0.072,0 0.12,-0.048 0.12,-0.12Z" style="fill:white;fill-rule:nonzero;"/>
            <path d="M61.848,167.244c-0.48,0 -0.936,0.18 -1.249,0.611c-0.024,0.036 -0.06,0.024 -0.06,-0.012l0,-0.395c0,-0.072 -0.048,-0.12 -0.12,-0.12l-0.61,0c-0.072,0 -0.12,0.048 -0.12,0.12l0,5.831c0,0.072 0.048,0.12 0.12,0.12l0.61,0c0.072,0 0.12,-0.048 0.12,-0.12l0,-3.996c0,-0.804 0.397,-1.296 1.033,-1.296c0.612,0 0.961,0.456 0.961,1.236l0,4.056c0,0.072 0.048,0.12 0.12,0.12l0.61,0c0.072,0 0.12,-0.048 0.12,-0.12l0,-4.128c0,-1.2 -0.551,-1.907 -1.535,-1.907Z" style="fill:white;fill-rule:nonzero;"/>
            <path d="M68.399,170.567l0,-1.5c0,-1.08 -0.718,-1.835 -1.883,-1.835c-1.141,0 -1.871,0.755 -1.871,1.835l0,2.592c0,1.105 0.73,1.836 1.871,1.836c1.057,0 1.716,-0.599 1.847,-1.536c0.012,-0.072 -0.036,-0.132 -0.107,-0.132l-0.599,-0.024c-0.072,0 -0.108,0.036 -0.132,0.108c-0.108,0.493 -0.481,0.841 -1.009,0.841c-0.6,0 -1.021,-0.468 -1.021,-1.141l0,-0.876c0,-0.024 0.024,-0.048 0.048,-0.048l2.736,0c0.072,0 0.12,-0.048 0.12,-0.12Zm-1.883,-2.592c0.624,0 1.045,0.468 1.045,1.152l0,0.805c0,0.024 -0.024,0.048 -0.048,0.048l-1.97,0c-0.024,0 -0.048,-0.024 -0.048,-0.048l0,-0.805c0,-0.684 0.421,-1.152 1.021,-1.152Z" style="fill:white;fill-rule:nonzero;"/>
            <path d="M71.244,173.459c1.116,0 1.823,-0.635 1.823,-1.631c0,-1.129 -0.91,-1.513 -1.607,-1.813c-0.624,-0.264 -1.177,-0.492 -1.177,-1.116c0,-0.516 0.361,-0.936 0.949,-0.936c0.588,0 0.973,0.408 0.973,0.936l0,0.096c0,0.06 0.048,0.096 0.12,0.096l0.55,0c0.072,0 0.12,-0.048 0.12,-0.12l0,-0.036c0,-0.996 -0.67,-1.667 -1.775,-1.667c-1.057,0 -1.751,0.623 -1.751,1.655c0,1.14 0.85,1.5 1.523,1.776c0.612,0.264 1.225,0.493 1.225,1.165c0,0.54 -0.373,0.936 -0.961,0.936c-0.612,0 -1.021,-0.408 -1.021,-0.912l0,-0.096c0,-0.06 -0.048,-0.096 -0.12,-0.096l-0.574,0c-0.072,0 -0.12,0.048 -0.12,0.12l0,0.084c0,0.936 0.706,1.559 1.823,1.559Z" style="fill:white;fill-rule:nonzero;"/>
            <path d="M75.432,173.459c1.116,0 1.823,-0.635 1.823,-1.631c0,-1.129 -0.91,-1.513 -1.607,-1.813c-0.624,-0.264 -1.177,-0.492 -1.177,-1.116c0,-0.516 0.361,-0.936 0.949,-0.936c0.588,0 0.973,0.408 0.973,0.936l0,0.096c0,0.06 0.048,0.096 0.12,0.096l0.55,0c0.072,0 0.12,-0.048 0.12,-0.12l0,-0.036c0,-0.996 -0.67,-1.667 -1.775,-1.667c-1.057,0 -1.751,0.623 -1.751,1.655c0,1.14 0.85,1.5 1.523,1.776c0.612,0.264 1.225,0.493 1.225,1.165c0,0.54 -0.373,0.936 -0.961,0.936c-0.612,0 -1.021,-0.408 -1.021,-0.912l0,-0.096c0,-0.06 -0.048,-0.096 -0.12,-0.096l-0.574,0c-0.072,0 -0.12,0.048 -0.12,0.12l0,0.084c0,0.936 0.706,1.559 1.823,1.559Z" style="fill:white;fill-rule:nonzero;"/>
            <path d="M74.629,213.399l1.847,0c1.237,0 2.027,-0.863 2.027,-2.231l0,-3.937c0,-1.368 -0.79,-2.231 -2.027,-2.231l-1.847,0c-0.072,0 -0.12,0.048 -0.12,0.12l0,8.159c0,0.072 0.048,0.12 0.12,0.12Zm0.73,-0.791l0,-6.817c0,-0.024 0.024,-0.048 0.048,-0.048l1.057,0c0.732,0 1.177,0.588 1.177,1.524l0,3.865c-0.012,0.936 -0.469,1.512 -1.177,1.512l-1.057,0.012c-0.024,0 -0.048,-0.024 -0.048,-0.048Z" style="fill:white;fill-rule:nonzero;"/>
            <path d="M82.008,207.268c-0.576,0 -0.936,0.372 -1.14,0.912c-0.024,0.036 -0.06,0.036 -0.06,-0.012l0,-0.72c0,-0.072 -0.048,-0.12 -0.12,-0.12l-0.612,0c-0.072,0 -0.12,0.048 -0.12,0.12l0,5.831c0,0.072 0.048,0.12 0.12,0.12l0.612,0c0.072,0 0.12,-0.048 0.12,-0.12l0,-3.599c0,-0.816 0.408,-1.452 0.984,-1.488c0.192,-0.036 0.372,-0.012 0.504,0.048c0.084,0.024 0.144,0.012 0.156,-0.072l0.132,-0.612c0.012,-0.06 0,-0.12 -0.06,-0.156c-0.12,-0.072 -0.276,-0.132 -0.516,-0.132Z" style="fill:white;fill-rule:nonzero;"/>
            <path d="M83.43,215.799l0.06,0c1.187,0 1.511,-0.336 1.919,-1.871l1.667,-6.456c0.024,-0.072 -0.012,-0.132 -0.096,-0.132l-0.671,-0.012c-0.072,0 -0.12,0.036 -0.132,0.108l-1.044,4.716c-0.012,0.048 -0.036,0.048 -0.048,0l-1.055,-4.716c-0.012,-0.072 -0.06,-0.108 -0.132,-0.108l-0.648,0c-0.084,0 -0.132,0.048 -0.108,0.132l1.523,5.904c0,0.024 0.012,0.048 0,0.072c-0.252,1.344 -0.467,1.632 -1.187,1.632l-0.06,0c-0.036,0 -0.06,0.048 -0.06,0.12l0,0.491c0,0.072 0.036,0.12 0.072,0.12Z" style="fill:white;fill-rule:nonzero;"/>
            <path d="M87.558,213.399l0.6,0c0.072,0 0.12,-0.048 0.132,-0.108l2.172,-8.159c0.024,-0.084 -0.024,-0.132 -0.108,-0.132l-0.6,0c-0.072,0 -0.12,0.048 -0.132,0.108l-2.172,8.159c-0.024,0.084 0.024,0.132 0.108,0.132Z" style="fill:white;fill-rule:nonzero;"/>
            <path d="M92.832,213.399l0.576,0c0.072,0 0.108,-0.036 0.12,-0.108l0.984,-6.335c0,-0.036 0.036,-0.036 0.048,0l1.008,6.335c0.012,0.072 0.048,0.108 0.12,0.108l0.588,0c0.072,0 0.12,-0.036 0.132,-0.108l1.487,-8.159c0.012,-0.072 -0.024,-0.132 -0.108,-0.132l-0.636,0c-0.072,0 -0.108,0.036 -0.12,0.108l-1.031,6.31c-0.012,0.036 -0.036,0.036 -0.048,0l-1.02,-6.31c-0.012,-0.072 -0.048,-0.108 -0.12,-0.108l-0.552,0c-0.072,0 -0.108,0.036 -0.12,0.108l-0.972,6.31c-0.012,0.036 -0.036,0.036 -0.048,0l-1.127,-6.31c-0.012,-0.072 -0.06,-0.108 -0.132,-0.108l-0.636,0c-0.084,0 -0.12,0.06 -0.108,0.132l1.583,8.158c0.012,0.073 0.06,0.109 0.132,0.109Z" style="fill:white;fill-rule:nonzero;"/>
            <path d="M102.143,210.567l0,-1.5c0,-1.08 -0.718,-1.835 -1.883,-1.835c-1.141,0 -1.871,0.755 -1.871,1.835l0,2.592c0,1.105 0.73,1.836 1.871,1.836c1.057,0 1.716,-0.599 1.847,-1.536c0.012,-0.072 -0.036,-0.132 -0.107,-0.132l-0.599,-0.024c-0.072,0 -0.108,0.036 -0.132,0.108c-0.108,0.493 -0.481,0.841 -1.009,0.841c-0.6,0 -1.021,-0.468 -1.021,-1.141l0,-0.876c0,-0.024 0.024,-0.048 0.048,-0.048l2.736,0c0.072,0 0.12,-0.048 0.12,-0.12Zm-1.883,-2.592c0.624,0 1.045,0.468 1.045,1.152l0,0.805c0,0.024 -0.024,0.048 -0.048,0.048l-1.97,0c-0.024,0 -0.048,-0.024 -0.048,-0.048l0,-0.805c0,-0.684 0.421,-1.152 1.021,-1.152Z" style="fill:white;fill-rule:nonzero;"/>
            <path d="M105.491,207.843l0,-0.395c0,-0.072 -0.048,-0.12 -0.12,-0.12l-0.912,0c-0.024,0 -0.048,-0.024 -0.048,-0.048l0,-1.344c0,-0.072 -0.048,-0.12 -0.12,-0.12l-0.598,0c-0.072,0 -0.12,0.048 -0.12,0.12l0,1.344c0,0.024 -0.024,0.048 -0.048,0.048l-0.468,0c-0.072,0 -0.12,0.048 -0.12,0.12l0,0.395c0,0.072 0.048,0.12 0.12,0.12l0.468,0c0.024,0 0.048,0.024 0.048,0.048l0,3.925c0,1.211 0.587,1.463 1.438,1.463l0.3,0c0.072,0 0.12,-0.048 0.12,-0.12l0,-0.515c0,-0.072 -0.048,-0.12 -0.12,-0.12l-0.12,0c-0.504,0.012 -0.78,-0.192 -0.78,-0.96l0,-3.673c0,-0.024 0.024,-0.048 0.048,-0.048l0.912,0c0.072,0 0.12,-0.048 0.12,-0.12Z" style="fill:white;fill-rule:nonzero;"/>
            <path d="M89.574,113.531l0.623,0c0.084,0 0.12,-0.048 0.096,-0.132l-1.307,-3.78c-0.012,-0.036 0,-0.048 0.037,-0.06c0.767,-0.288 1.246,-1.067 1.246,-2.136c0,-1.38 -0.79,-2.303 -1.955,-2.303l-1.979,0c-0.072,0 -0.12,0.048 -0.12,0.12l0,8.171c0,0.072 0.048,0.12 0.12,0.12l0.61,0c0.072,0 0.12,-0.048 0.12,-0.12l0,-3.696c0,-0.024 0.024,-0.049 0.048,-0.049l1.033,0.001c0.024,-0.001 0.036,-0.001 0.048,0.036l1.237,3.732c0.024,0.06 0.084,0.096 0.143,0.096Zm-2.461,-7.669l1.081,0c0.732,0 1.225,0.613 1.225,1.573c0,0.937 -0.493,1.549 -1.225,1.549l-1.081,0c-0.024,0 -0.048,-0.024 -0.048,-0.048l0,-3.026c0,-0.024 0.024,-0.048 0.048,-0.048Z" style="fill:white;fill-rule:nonzero;"/>
            <path d="M95.021,110.699l0,-1.5c0,-1.08 -0.718,-1.835 -1.883,-1.835c-1.141,0 -1.871,0.755 -1.871,1.835l0,2.592c0,1.105 0.73,1.835 1.871,1.835c1.057,0.001 1.716,-0.598 1.847,-1.535c0.012,-0.072 -0.036,-0.132 -0.107,-0.132l-0.599,-0.024c-0.072,0 -0.108,0.036 -0.132,0.108c-0.108,0.493 -0.481,0.841 -1.009,0.841c-0.6,0 -1.021,-0.468 -1.021,-1.141l0,-0.876c0,-0.024 0.024,-0.048 0.048,-0.048l2.736,0c0.072,0 0.12,-0.048 0.12,-0.12Zm-1.883,-2.592c0.624,0 1.045,0.468 1.045,1.152l0,0.805c0,0.024 -0.024,0.048 -0.048,0.048l-1.97,0c-0.024,0 -0.048,-0.024 -0.048,-0.048l0,-0.805c0,-0.684 0.421,-1.152 1.021,-1.152Z" style="fill:white;fill-rule:nonzero;"/>
            <path d="M99.043,107.58l0,0.371c0,0.048 -0.024,0.06 -0.06,0.012c-0.277,-0.407 -0.733,-0.599 -1.201,-0.599c-1.02,0 -1.631,0.731 -1.631,1.835l0,2.533c0,1.08 0.599,1.835 1.631,1.835c0.456,0 0.912,-0.192 1.201,-0.611c0.036,-0.036 0.06,-0.012 0.06,0.024l0,0.359c0,1.2 -0.397,1.897 -1.73,1.861c-0.072,0 -0.12,0.048 -0.12,0.12l0,0.515c0,0.072 0.036,0.12 0.12,0.132c1.957,0.084 2.58,-0.959 2.58,-2.556l0,-5.831c0,-0.072 -0.048,-0.12 -0.12,-0.12l-0.61,0c-0.072,0 -0.12,0.048 -0.12,0.12Zm-1.009,5.244c-0.6,0 -1.033,-0.468 -1.033,-1.14l0,-2.425c0,-0.684 0.433,-1.152 1.033,-1.152c0.6,0 1.009,0.468 1.009,1.152l0,2.425c0,0.672 -0.409,1.14 -1.009,1.14Z" style="fill:white;fill-rule:nonzero;"/>
            <path d="M104.861,110.699l0,-1.5c0,-1.08 -0.718,-1.835 -1.883,-1.835c-1.141,0 -1.871,0.755 -1.871,1.835l0,2.592c0,1.105 0.73,1.835 1.871,1.835c1.057,0.001 1.716,-0.598 1.847,-1.535c0.012,-0.072 -0.036,-0.132 -0.107,-0.132l-0.599,-0.024c-0.072,0 -0.108,0.036 -0.132,0.108c-0.108,0.493 -0.481,0.841 -1.009,0.841c-0.6,0 -1.021,-0.468 -1.021,-1.141l0,-0.876c0,-0.024 0.024,-0.048 0.048,-0.048l2.736,0c0.072,0 0.12,-0.048 0.12,-0.12Zm-1.883,-2.592c0.624,0 1.045,0.468 1.045,1.152l0,0.805c0,0.024 -0.024,0.048 -0.048,0.048l-1.97,0c-0.024,0 -0.048,-0.024 -0.048,-0.048l0,-0.805c0,-0.684 0.421,-1.152 1.021,-1.152Z" style="fill:white;fill-rule:nonzero;"/>
            <path d="M108.282,107.376c-0.48,0 -0.936,0.18 -1.249,0.611c-0.024,0.036 -0.06,0.024 -0.06,-0.012l0,-0.395c0,-0.072 -0.048,-0.12 -0.12,-0.12l-0.61,0c-0.072,0 -0.12,0.048 -0.12,0.12l0,5.831c0,0.072 0.048,0.12 0.12,0.12l0.61,0c0.072,0 0.12,-0.048 0.12,-0.12l0,-3.996c0,-0.804 0.397,-1.297 1.033,-1.297c0.612,0 0.961,0.457 0.961,1.237l0,4.056c0,0.072 0.048,0.12 0.12,0.12l0.61,0c0.072,0 0.12,-0.048 0.12,-0.12l0,-4.128c0,-1.2 -0.551,-1.907 -1.535,-1.907Z" style="fill:white;fill-rule:nonzero;"/>
            <path d="M114.833,110.699l0,-1.5c0,-1.08 -0.718,-1.835 -1.883,-1.835c-1.141,0 -1.871,0.755 -1.871,1.835l0,2.592c0,1.105 0.73,1.835 1.871,1.835c1.057,0.001 1.716,-0.598 1.847,-1.535c0.012,-0.072 -0.036,-0.132 -0.107,-0.132l-0.599,-0.024c-0.072,0 -0.108,0.036 -0.132,0.108c-0.108,0.493 -0.481,0.841 -1.009,0.841c-0.6,0 -1.021,-0.468 -1.021,-1.141l0,-0.876c0,-0.024 0.024,-0.048 0.048,-0.048l2.736,0c0.072,0 0.12,-0.048 0.12,-0.12Zm-1.883,-2.592c0.624,0 1.045,0.468 1.045,1.152l0,0.805c0,0.024 -0.024,0.048 -0.048,0.048l-1.97,0c-0.024,0 -0.048,-0.024 -0.048,-0.048l0,-0.805c0,-0.684 0.421,-1.152 1.021,-1.152Z" style="fill:white;fill-rule:nonzero;"/>
            <path d="M118.146,107.4c-0.576,0 -0.936,0.372 -1.14,0.912c-0.024,0.036 -0.06,0.036 -0.06,-0.012l0,-0.72c0,-0.072 -0.048,-0.12 -0.12,-0.12l-0.612,0c-0.072,0 -0.12,0.048 -0.12,0.12l0,5.831c0,0.072 0.048,0.119 0.12,0.119l0.612,0c0.072,0 0.12,-0.047 0.12,-0.119l0,-3.599c0,-0.816 0.408,-1.452 0.984,-1.488c0.192,-0.036 0.372,-0.012 0.504,0.048c0.084,0.024 0.144,0.012 0.156,-0.072l0.132,-0.612c0.012,-0.06 0,-0.12 -0.06,-0.156c-0.12,-0.072 -0.276,-0.132 -0.516,-0.132Z" style="fill:white;fill-rule:nonzero;"/>
            <path d="M121.35,107.364c-0.997,0 -1.764,0.623 -1.848,1.583c-0.012,0.072 0.036,0.12 0.108,0.12l0.659,0.012c0.072,0 0.12,-0.036 0.132,-0.12c0.048,-0.504 0.445,-0.853 0.925,-0.853c0.624,0 1.009,0.529 1.009,1.322l0,0.468c0,0.024 -0.024,0.048 -0.048,0.048l-0.829,0c-1.189,0 -2.135,0.527 -2.135,1.967c0,1.428 0.946,1.715 1.631,1.715c0.54,0 1.008,-0.167 1.321,-0.574c0.036,-0.036 0.06,-0.024 0.06,0.012l0,0.347c0,0.072 0.048,0.12 0.12,0.12l0.61,0c0.072,0 0.12,-0.048 0.12,-0.12l0,-4.043c0,-1.213 -0.718,-2.004 -1.835,-2.004Zm-0.216,5.52c-0.528,0 -0.937,-0.312 -0.937,-1.045c0,-0.828 0.517,-1.213 1.249,-1.213l0.841,0c0.024,0 0.048,0.025 0.048,0.049l0,1.008c0,0.805 -0.601,1.201 -1.201,1.201Z" style="fill:white;fill-rule:nonzero;"/>
            <path d="M126.653,107.975l0,-0.395c0,-0.072 -0.048,-0.12 -0.12,-0.12l-0.912,0c-0.024,0 -0.048,-0.024 -0.048,-0.048l0,-1.344c0,-0.072 -0.048,-0.12 -0.12,-0.12l-0.598,0c-0.072,0 -0.12,0.048 -0.12,0.12l0,1.344c0,0.024 -0.024,0.048 -0.048,0.048l-0.468,0c-0.072,0 -0.12,0.048 -0.12,0.12l0,0.395c0,0.072 0.048,0.119 0.12,0.119l0.468,0c0.024,0 0.048,0.025 0.048,0.049l0,3.925c0,1.211 0.587,1.462 1.438,1.462l0.3,0c0.072,0 0.12,-0.047 0.12,-0.119l0,-0.515c0,-0.072 -0.048,-0.12 -0.12,-0.12l-0.12,0c-0.504,0.012 -0.78,-0.192 -0.78,-0.96l0,-3.673c0,-0.024 0.024,-0.049 0.048,-0.049l0.912,0c0.072,0 0.12,-0.047 0.12,-0.119Z" style="fill:white;fill-rule:nonzero;"/>
            <path d="M128.214,106.379c0.336,-0.001 0.575,-0.264 0.575,-0.636c0,-0.347 -0.239,-0.611 -0.575,-0.611c-0.348,0 -0.599,0.264 -0.599,0.611c0,0.372 0.251,0.635 0.599,0.635Zm-0.311,7.153l0.61,0c0.072,0 0.12,-0.048 0.12,-0.12l0,-5.831c0,-0.072 -0.048,-0.12 -0.12,-0.12l-0.61,0c-0.072,0 -0.12,0.048 -0.12,0.12l0,5.831c0,0.072 0.048,0.12 0.12,0.12Z" style="fill:white;fill-rule:nonzero;"/>
            <path d="M131.898,113.626c1.153,0 1.895,-0.73 1.895,-1.834l0,-2.593c0,-1.081 -0.742,-1.835 -1.895,-1.835c-1.153,0 -1.883,0.754 -1.883,1.835l0,2.593c0,1.104 0.73,1.834 1.883,1.834Zm0,-0.742c-0.612,0 -1.033,-0.468 -1.033,-1.14l0,-2.485c0,-0.684 0.421,-1.153 1.033,-1.153c0.612,0.001 1.045,0.469 1.045,1.153l0,2.485c0,0.672 -0.433,1.14 -1.045,1.14Z" style="fill:white;fill-rule:nonzero;"/>
            <path d="M137.274,107.376c-0.48,0 -0.936,0.18 -1.249,0.611c-0.024,0.036 -0.06,0.024 -0.06,-0.012l0,-0.395c0,-0.072 -0.048,-0.12 -0.12,-0.12l-0.61,0c-0.072,0 -0.12,0.048 -0.12,0.12l0,5.831c0,0.072 0.048,0.12 0.12,0.12l0.61,0c0.072,0 0.12,-0.048 0.12,-0.12l0,-3.996c0,-0.804 0.397,-1.297 1.033,-1.297c0.612,0 0.961,0.457 0.961,1.237l0,4.056c0,0.072 0.048,0.12 0.12,0.12l0.61,0c0.072,0 0.12,-0.048 0.12,-0.12l0,-4.128c0,-1.2 -0.551,-1.907 -1.535,-1.907Z" style="fill:white;fill-rule:nonzero;"/>
            <path d="M14.449,113.634l1.848,0c1.236,0 2.027,-0.863 2.027,-2.231l0,-3.937c0,-1.368 -0.791,-2.231 -2.027,-2.231l-1.848,0c-0.072,0 -0.12,0.048 -0.12,0.12l0,8.159c0,0.072 0.048,0.12 0.12,0.12Zm0.731,-0.791l0,-6.817c0,-0.024 0.024,-0.048 0.048,-0.048l1.056,0c0.733,0 1.177,0.588 1.177,1.524l0,3.865c-0.012,0.936 -0.468,1.512 -1.177,1.512l-1.056,0.012c-0.024,0 -0.048,-0.024 -0.048,-0.048Z" style="fill:white;fill-rule:nonzero;"/>
            <path d="M23.4,110.802l0,-1.499c0,-1.081 -0.719,-1.836 -1.883,-1.836c-1.141,0 -1.872,0.755 -1.872,1.836l0,2.592c0,1.104 0.731,1.835 1.872,1.835c1.056,0 1.715,-0.599 1.847,-1.535c0.012,-0.072 -0.036,-0.132 -0.108,-0.132l-0.599,-0.024c-0.072,0 -0.108,0.036 -0.132,0.108c-0.108,0.492 -0.48,0.84 -1.008,0.84c-0.601,0 -1.021,-0.468 -1.021,-1.141l0,-0.876c0,-0.024 0.024,-0.048 0.048,-0.048l2.736,0c0.072,0 0.12,-0.048 0.12,-0.12Zm-1.883,-2.592c0.624,0 1.044,0.468 1.044,1.153l0,0.804c0,0.024 -0.024,0.048 -0.048,0.048l-1.969,0c-0.024,0 -0.048,-0.024 -0.048,-0.048l0,-0.804c0,-0.685 0.42,-1.153 1.021,-1.153Z" style="fill:white;fill-rule:nonzero;"/>
            <path d="M28.452,109.302c-0.048,-1.068 -0.659,-1.835 -1.619,-1.835c-0.493,0 -0.913,0.204 -1.189,0.587c-0.036,0.036 -0.06,0.012 -0.06,-0.024l0,-0.347c0,-0.072 -0.048,-0.12 -0.12,-0.12l-0.611,0c-0.072,0 -0.12,0.048 -0.12,0.12l0,8.159c0,0.072 0.048,0.12 0.12,0.12l0.611,0c0.072,0 0.12,-0.048 0.12,-0.12l0,-2.664c0,-0.036 0.024,-0.06 0.06,-0.024c0.276,0.384 0.696,0.576 1.189,0.576c0.972,0 1.583,-0.744 1.619,-1.8c0.012,-0.444 0.012,-0.852 0.012,-1.296c0,-0.443 0,-0.887 -0.012,-1.331l0,-0.001Zm-1.871,3.684c-0.577,0 -0.997,-0.48 -0.997,-1.2l0,-2.375c0,-0.721 0.42,-1.201 0.997,-1.201c0.624,0 1.044,0.492 1.032,1.2l0,1.188c0,0.312 0.012,0.768 0,1.188c0.012,0.72 -0.42,1.2 -1.032,1.2Z" style="fill:white;fill-rule:nonzero;"/>
            <path d="M31.932,108.078l0,-0.395c0,-0.072 -0.048,-0.12 -0.12,-0.12l-0.912,0c-0.024,0 -0.048,-0.024 -0.048,-0.048l0,-1.344c0,-0.072 -0.048,-0.12 -0.12,-0.12l-0.599,0c-0.072,0 -0.12,0.048 -0.12,0.12l0,1.344c0,0.024 -0.024,0.048 -0.048,0.048l-0.468,0c-0.072,0 -0.12,0.048 -0.12,0.12l0,0.395c0,0.072 0.048,0.12 0.12,0.12l0.468,0c0.024,0 0.048,0.024 0.048,0.048l0,3.925c0,1.211 0.587,1.463 1.439,1.463l0.3,0c0.072,0 0.12,-0.048 0.12,-0.12l0,-0.515c0,-0.072 -0.048,-0.12 -0.12,-0.12l-0.12,0c-0.504,0.012 -0.78,-0.192 -0.78,-0.96l0,-3.673c0,-0.024 0.024,-0.048 0.048,-0.048l0.912,0c0.072,0 0.12,-0.048 0.12,-0.12Z" style="fill:white;fill-rule:nonzero;"/>
            <path d="M35.161,107.479c-0.481,0 -0.937,0.18 -1.249,0.611c-0.024,0.036 -0.06,0.024 -0.06,-0.012l0,-2.723c0,-0.072 -0.048,-0.12 -0.12,-0.12l-0.611,0c-0.072,0 -0.12,0.048 -0.12,0.12l0,8.159c0,0.072 0.048,0.12 0.12,0.12l0.611,0c0.072,0 0.12,-0.048 0.12,-0.12l0,-3.996c0,-0.804 0.396,-1.296 1.033,-1.296c0.612,0 0.96,0.456 0.96,1.236l0,4.056c0,0.072 0.048,0.12 0.12,0.12l0.611,0c0.072,0 0.12,-0.048 0.12,-0.12l0,-4.128c0,-1.2 -0.551,-1.907 -1.535,-1.907Z" style="fill:white;fill-rule:nonzero;"/>
            <g id="Branding">
                <g>
                    <path d="M57.357,362.45l0.545,0c0.049,0 0.07,-0.028 0.056,-0.077l-0.72,-2.163c-0.007,-0.021 0,-0.028 0.014,-0.042c0.419,-0.182 0.685,-0.637 0.685,-1.232c0,-0.826 -0.482,-1.393 -1.203,-1.393l-1.253,0c-0.042,0 -0.07,0.028 -0.07,0.07l0,4.767c0,0.042 0.028,0.07 0.07,0.07l0.531,0c0.042,0 0.07,-0.028 0.07,-0.07l0,-2.079c0,-0.014 0.014,-0.028 0.028,-0.028l0.483,0c0.014,0 0.021,0 0.028,0.021l0.652,2.1c0.014,0.035 0.049,0.056 0.084,0.056Zm-1.247,-4.326l0.518,0c0.379,0 0.638,0.315 0.638,0.819c0,0.49 -0.259,0.805 -0.638,0.805l-0.518,0c-0.014,0 -0.028,-0.014 -0.028,-0.028l0,-1.568c0,-0.014 0.014,-0.028 0.028,-0.028Z" style="fill:rgb(199,206,201);fill-rule:nonzero;"/>
                    <path d="M61.045,362.45l0.546,0c0.049,0 0.07,-0.035 0.063,-0.077l-1.057,-4.76c-0.007,-0.042 -0.035,-0.063 -0.077,-0.063l-0.615,0c-0.042,0 -0.07,0.021 -0.077,0.063l-1.043,4.76c-0.007,0.042 0.014,0.077 0.063,0.077l0.532,0c0.042,0 0.07,-0.021 0.077,-0.063l0.161,-0.805c0,-0.014 0.021,-0.028 0.035,-0.028l1.126,0c0.014,0 0.035,0.014 0.035,0.028l0.154,0.805c0.007,0.042 0.035,0.063 0.077,0.063Zm-1.308,-1.456l0.476,-2.394c0.006,-0.028 0.02,-0.028 0.027,0l0.462,2.394c0,0.014 -0.007,0.028 -0.021,0.028l-0.923,0c-0.014,0 -0.021,-0.014 -0.021,-0.028Z" style="fill:rgb(199,206,201);fill-rule:nonzero;"/>
                    <path d="M63.719,362.506c0.764,0 1.267,-0.497 1.267,-1.267l0,-0.105c0,-0.042 -0.028,-0.07 -0.07,-0.07l-0.531,-0.028c-0.042,0 -0.07,0.028 -0.07,0.07l0,0.182c0,0.378 -0.238,0.637 -0.596,0.637c-0.357,0 -0.588,-0.259 -0.588,-0.637l0,-2.576c0,-0.385 0.231,-0.637 0.588,-0.637c0.358,0 0.596,0.252 0.596,0.637l0,0.182c0,0.042 0.028,0.07 0.07,0.07l0.531,-0.028c0.042,0 0.07,-0.028 0.07,-0.07l0,-0.112c0,-0.77 -0.503,-1.26 -1.267,-1.26c-0.756,0 -1.259,0.49 -1.259,1.26l0,2.485c0,0.77 0.503,1.267 1.259,1.267Z" style="fill:rgb(199,206,201);fill-rule:nonzero;"/>
                    <path d="M66.142,362.45l0.531,0c0.042,0 0.07,-0.028 0.07,-0.07l0,-1.575c0,-0.014 0,-0.028 0.007,-0.035l0.357,-0.567c0.014,-0.014 0.028,-0.014 0.035,0.007l0.91,2.184c0.014,0.042 0.042,0.056 0.077,0.056l0.581,0c0.049,0 0.077,-0.035 0.056,-0.084l-1.169,-2.744c-0.007,-0.014 -0.007,-0.028 0,-0.042l1.078,-1.946c0.028,-0.049 0.007,-0.084 -0.049,-0.084l-0.574,0c-0.035,0 -0.063,0.021 -0.084,0.049l-1.19,2.128c-0.014,0.028 -0.035,0.021 -0.035,-0.007l0,-2.1c0,-0.042 -0.028,-0.07 -0.07,-0.07l-0.531,0c-0.042,0 -0.07,0.028 -0.07,0.07l0,4.76c0,0.042 0.028,0.07 0.07,0.07Z" style="fill:rgb(199,206,201);fill-rule:nonzero;"/>
                    <path d="M70.44,362.45l0.497,0c0.042,0 0.063,-0.014 0.07,-0.063l0.503,-3.311c0,-0.021 0.021,-0.021 0.028,0l0.532,3.311c0.007,0.042 0.028,0.063 0.07,0.063l0.497,0c0.042,0 0.07,-0.021 0.077,-0.063l0.882,-4.76c0.007,-0.042 -0.014,-0.077 -0.063,-0.077l-0.546,0c-0.042,0 -0.063,0.021 -0.07,0.063l-0.518,3.283c-0.007,0.021 -0.021,0.021 -0.028,0l-0.539,-3.283c-0.007,-0.042 -0.028,-0.063 -0.07,-0.063l-0.468,0c-0.042,0 -0.063,0.014 -0.07,0.063l-0.504,3.283c-0.007,0.021 -0.021,0.021 -0.028,0l-0.567,-3.283c-0.007,-0.042 -0.035,-0.063 -0.077,-0.063l-0.553,0c-0.049,0 -0.07,0.035 -0.063,0.077l0.931,4.76c0.007,0.042 0.035,0.063 0.077,0.063Z" style="fill:rgb(199,206,201);fill-rule:nonzero;"/>
                    <path d="M74.626,362.45l0.531,0c0.042,0 0.07,-0.028 0.07,-0.07l0,-4.76c0,-0.042 -0.028,-0.07 -0.07,-0.07l-0.531,0c-0.042,0 -0.07,0.028 -0.07,0.07l0,4.76c0,0.042 0.028,0.07 0.07,0.07Z" style="fill:rgb(199,206,201);fill-rule:nonzero;"/>
                    <path d="M76.523,362.45l0.525,0c0.042,0 0.07,-0.028 0.07,-0.07l-0.007,-3.073c0,-0.028 0.028,-0.028 0.035,0l1.246,3.087c0.014,0.042 0.042,0.056 0.077,0.056l0.546,0c0.042,0 0.07,-0.028 0.07,-0.07l0,-4.76c0,-0.042 -0.028,-0.07 -0.07,-0.07l-0.525,0c-0.042,0 -0.07,0.028 -0.07,0.07l0,3.066c0,0.028 -0.028,0.035 -0.035,0.007l-1.246,-3.087c-0.014,-0.042 -0.042,-0.056 -0.077,-0.056l-0.539,0c-0.042,0 -0.07,0.028 -0.07,0.07l0,4.76c0,0.042 0.028,0.07 0.07,0.07Z" style="fill:rgb(199,206,201);fill-rule:nonzero;"/>
                    <path d="M80.373,362.45l1.147,0c0.771,0 1.267,-0.511 1.267,-1.323l0,-2.254c0,-0.812 -0.496,-1.323 -1.267,-1.323l-1.147,0c-0.042,0 -0.07,0.028 -0.07,0.07l0,4.76c0,0.042 0.028,0.07 0.07,0.07Zm0.601,-0.609l0,-3.682c0,-0.014 0.014,-0.028 0.028,-0.028l0.511,0c0.365,0 0.596,0.301 0.596,0.777l0,2.184c-0.007,0.476 -0.238,0.77 -0.596,0.77l-0.511,0.007c-0.014,0 -0.028,-0.014 -0.028,-0.028Z" style="fill:rgb(199,206,201);fill-rule:nonzero;"/>
                    <path d="M85.111,362.506c0.771,0 1.288,-0.504 1.288,-1.281l0,-2.443c0,-0.777 -0.517,-1.288 -1.288,-1.288c-0.763,0 -1.273,0.511 -1.273,1.288l0,2.443c0,0.777 0.51,1.281 1.273,1.281Zm0,-0.581c-0.364,0 -0.602,-0.273 -0.602,-0.672l0,-2.506c0,-0.399 0.238,-0.672 0.602,-0.672c0.372,0 0.617,0.273 0.617,0.672l0,2.506c0,0.399 -0.245,0.672 -0.617,0.672Z" style="fill:rgb(199,206,201);fill-rule:nonzero;"/>
                    <path d="M88.192,362.45l0.497,0c0.042,0 0.063,-0.014 0.07,-0.063l0.503,-3.311c0,-0.021 0.021,-0.021 0.028,0l0.532,3.311c0.007,0.042 0.028,0.063 0.07,0.063l0.497,0c0.042,0 0.07,-0.021 0.077,-0.063l0.882,-4.76c0.007,-0.042 -0.014,-0.077 -0.063,-0.077l-0.546,0c-0.042,0 -0.063,0.021 -0.07,0.063l-0.518,3.283c-0.007,0.021 -0.021,0.021 -0.028,0l-0.539,-3.283c-0.007,-0.042 -0.028,-0.063 -0.07,-0.063l-0.468,0c-0.042,0 -0.063,0.014 -0.07,0.063l-0.504,3.283c-0.007,0.021 -0.021,0.021 -0.028,0l-0.567,-3.283c-0.007,-0.042 -0.035,-0.063 -0.077,-0.063l-0.553,0c-0.049,0 -0.07,0.035 -0.063,0.077l0.931,4.76c0.007,0.042 0.035,0.063 0.077,0.063Z" style="fill:rgb(199,206,201);fill-rule:nonzero;"/>
                    <path d="M93.343,362.506c0.729,0 1.246,-0.504 1.246,-1.295c0,-0.672 -0.37,-0.966 -1.084,-1.498c-0.54,-0.399 -0.743,-0.588 -0.743,-0.987c0,-0.42 0.231,-0.651 0.546,-0.651c0.344,0 0.582,0.28 0.582,0.7l0,0.189c0,0.042 0.028,0.07 0.07,0.07l0.517,0c0.042,0 0.07,-0.028 0.07,-0.07l0,-0.175c0,-0.777 -0.489,-1.295 -1.239,-1.295c-0.707,0 -1.21,0.469 -1.21,1.232c0,0.763 0.503,1.134 1.042,1.533c0.505,0.371 0.785,0.567 0.785,0.994c0,0.406 -0.252,0.672 -0.582,0.672c-0.336,0 -0.574,-0.273 -0.574,-0.707l0,-0.154c0,-0.042 -0.028,-0.07 -0.07,-0.07l-0.517,0c-0.042,0 -0.07,0.028 -0.07,0.07l0,0.189c0,0.749 0.496,1.253 1.231,1.253Z" style="fill:rgb(199,206,201);fill-rule:nonzero;"/>
                </g>
                <path d="M48.733,35.255l1.35,0c0.89,0 1.547,-0.647 1.673,-1.673l0.369,-2.953c0.126,-1.026 -0.377,-1.673 -1.277,-1.673l-1.341,0c-0.054,0 -0.09,0.036 -0.099,0.09l-0.747,6.119c-0.009,0.054 0.018,0.09 0.072,0.09Zm0.603,-0.593l0.63,-5.113c0,-0.018 0.027,-0.036 0.045,-0.036l0.765,0c0.531,0 0.801,0.441 0.711,1.143l-0.351,2.899c-0.099,0.702 -0.477,1.134 -0.999,1.134l-0.765,0.009c-0.018,0 -0.036,-0.018 -0.036,-0.036Z" style="fill:rgb(199,206,201);fill-rule:nonzero;"/>
                <path d="M55.176,30.792l-0.369,2.997c-0.072,0.603 -0.396,0.972 -0.864,0.972c-0.441,0 -0.657,-0.297 -0.585,-0.909l0.378,-3.06c0,-0.054 -0.027,-0.09 -0.081,-0.09l-0.441,0c-0.054,0 -0.09,0.036 -0.099,0.09l-0.395,3.204c-0.108,0.918 0.315,1.322 0.98,1.322c0.378,0 0.702,-0.135 0.936,-0.467c0.018,-0.027 0.045,-0.027 0.036,0.009l-0.036,0.305c-0.009,0.054 0.027,0.09 0.081,0.09l0.441,0c0.054,0 0.09,-0.036 0.099,-0.09l0.54,-4.373c0,-0.054 -0.027,-0.09 -0.081,-0.09l-0.441,0c-0.054,0 -0.099,0.036 -0.099,0.09Z" style="fill:rgb(199,206,201);fill-rule:nonzero;"/>
                <path d="M58.866,30.792l-0.036,0.252c0,0.027 -0.018,0.045 -0.045,0.018c-0.161,-0.288 -0.449,-0.432 -0.809,-0.432c-0.703,0 -1.224,0.557 -1.341,1.349c-0.054,0.333 -0.09,0.639 -0.126,0.973c-0.045,0.333 -0.09,0.666 -0.117,0.999c-0.063,0.8 0.306,1.376 1.007,1.376c0.361,0 0.685,-0.153 0.919,-0.441c0.027,-0.027 0.045,-0.009 0.045,0.018l-0.036,0.261c-0.009,0.054 0.027,0.09 0.081,0.09l0.44,0c0.054,0 0.09,-0.036 0.099,-0.09l0.54,-4.373c0,-0.054 -0.027,-0.09 -0.081,-0.09l-0.441,0c-0.054,0 -0.09,0.036 -0.099,0.09Zm-1.215,3.977c-0.45,0 -0.711,-0.369 -0.639,-0.899l0.108,-0.891c0.027,-0.234 0.063,-0.577 0.108,-0.892c0.063,-0.54 0.414,-0.9 0.865,-0.9c0.414,0 0.674,0.36 0.611,0.9l-0.215,1.783c-0.072,0.539 -0.414,0.899 -0.838,0.899Z" style="fill:rgb(199,206,201);fill-rule:nonzero;"/>
                <path d="M60.037,35.255l0.441,0c0.054,0 0.09,-0.036 0.099,-0.09l0.755,-6.119c0,-0.054 -0.027,-0.09 -0.081,-0.09l-0.441,0c-0.053,0 -0.098,0.036 -0.098,0.09l-0.756,6.119c-0.009,0.054 0.027,0.09 0.081,0.09Z" style="fill:rgb(199,206,201);fill-rule:nonzero;"/>
                <path d="M61.729,32.735l1.997,0c0.054,0 0.09,-0.036 0.099,-0.09l0.045,-0.377c0.009,-0.054 -0.027,-0.09 -0.081,-0.09l-1.997,0c-0.045,0 -0.09,0.036 -0.099,0.09l-0.045,0.377c0,0.054 0.027,0.09 0.081,0.09Z" style="fill:rgb(199,206,201);fill-rule:nonzero;"/>
                <path d="M64.492,35.255l0.45,0c0.045,0 0.09,-0.036 0.099,-0.09l0.566,-4.617c0,-0.036 0.036,-0.036 0.045,-0.009l0.649,2.097c0.009,0.054 0.044,0.072 0.08,0.072c0.027,0 0.063,-0.018 0.081,-0.072l1.152,-2.088c0.009,-0.027 0.045,-0.027 0.036,0.009l-0.558,4.608c-0.009,0.054 0.018,0.09 0.072,0.09l0.441,0c0.054,0 0.099,-0.036 0.099,-0.09l0.756,-6.12c0.009,-0.054 -0.027,-0.09 -0.081,-0.09l-0.45,0c-0.045,0 -0.081,0.018 -0.108,0.072l-1.287,2.439c-0.009,0.027 -0.045,0.027 -0.045,0l-0.684,-2.439c-0.009,-0.054 -0.045,-0.072 -0.081,-0.072l-0.458,0c-0.054,0 -0.09,0.036 -0.099,0.09l-0.747,6.12c-0.009,0.054 0.018,0.09 0.072,0.09Z" style="fill:rgb(199,206,201);fill-rule:nonzero;"/>
                <path d="M70.107,35.327c0.847,0 1.45,-0.548 1.548,-1.376l0.243,-1.945c0.099,-0.81 -0.368,-1.376 -1.205,-1.376c-0.847,0 -1.449,0.566 -1.548,1.376l-0.234,1.945c-0.099,0.828 0.36,1.376 1.196,1.376Zm0.072,-0.557c-0.441,0 -0.711,-0.351 -0.648,-0.855l0.234,-1.864c0.063,-0.513 0.405,-0.864 0.856,-0.864c0.441,0 0.711,0.351 0.648,0.864l-0.225,1.864c-0.063,0.504 -0.423,0.855 -0.865,0.855Z" style="fill:rgb(199,206,201);fill-rule:nonzero;"/>
                <path d="M74.599,30.639c-0.351,0 -0.702,0.135 -0.954,0.458c-0.027,0.027 -0.054,0.018 -0.054,-0.009l0.045,-0.296c0,-0.054 -0.027,-0.09 -0.081,-0.09l-0.441,0c-0.054,0 -0.099,0.036 -0.099,0.09l-0.54,4.373c-0.009,0.054 0.027,0.09 0.072,0.09l0.45,0c0.054,0 0.09,-0.036 0.099,-0.09l0.369,-2.997c0.072,-0.603 0.405,-0.972 0.864,-0.972c0.45,0 0.657,0.342 0.585,0.927l-0.369,3.042c-0.009,0.054 0.027,0.09 0.072,0.09l0.449,0c0.054,0 0.09,-0.036 0.099,-0.09l0.376,-3.096c0.108,-0.9 -0.224,-1.43 -0.942,-1.43Z" style="fill:rgb(199,206,201);fill-rule:nonzero;"/>
                <path d="M77.424,35.327c0.847,0 1.45,-0.548 1.548,-1.376l0.243,-1.945c0.099,-0.81 -0.368,-1.376 -1.205,-1.376c-0.847,0 -1.449,0.566 -1.548,1.376l-0.234,1.945c-0.099,0.828 0.36,1.376 1.196,1.376Zm0.072,-0.557c-0.441,0 -0.711,-0.351 -0.648,-0.855l0.234,-1.864c0.063,-0.513 0.405,-0.864 0.856,-0.864c0.441,0 0.711,0.351 0.648,0.864l-0.225,1.864c-0.063,0.504 -0.423,0.855 -0.865,0.855Z" style="fill:rgb(199,206,201);fill-rule:nonzero;"/>
                <path d="M84.067,35.255l0.45,0c0.063,0 0.099,-0.036 0.09,-0.099l-0.603,-2.835c-0.009,-0.027 0,-0.036 0.027,-0.045c0.585,-0.215 1.007,-0.8 1.105,-1.602c0.126,-1.035 -0.368,-1.727 -1.213,-1.727l-1.44,0c-0.054,0 -0.09,0.036 -0.099,0.09l-0.747,6.128c-0.009,0.054 0.018,0.09 0.072,0.09l0.45,0c0.045,0 0.09,-0.036 0.099,-0.09l0.333,-2.772c0.009,-0.018 0.027,-0.036 0.045,-0.036l0.747,0c0.018,0 0.027,0 0.036,0.027l0.549,2.799c0.018,0.045 0.054,0.072 0.099,0.072Zm-1.08,-5.751l0.783,0c0.531,0 0.837,0.459 0.747,1.179c-0.09,0.703 -0.504,1.162 -1.035,1.162l-0.783,0c-0.018,0 -0.036,-0.018 -0.036,-0.036l0.279,-2.269c0.009,-0.018 0.027,-0.036 0.045,-0.036Z" style="fill:rgb(199,206,201);fill-rule:nonzero;"/>
                <path d="M88.296,33.131l0.135,-1.125c0.099,-0.81 -0.35,-1.376 -1.196,-1.376c-0.838,0 -1.44,0.566 -1.539,1.376l-0.234,1.944c-0.099,0.829 0.36,1.377 1.187,1.377c0.775,0 1.315,-0.449 1.486,-1.151c0.018,-0.054 -0.009,-0.1 -0.063,-0.1l-0.432,-0.018c-0.054,0 -0.081,0.027 -0.108,0.082c-0.126,0.369 -0.423,0.63 -0.811,0.63c-0.432,0 -0.702,-0.351 -0.639,-0.856l0.081,-0.657c0,-0.018 0.027,-0.036 0.045,-0.036l1.989,0c0.054,0 0.09,-0.036 0.099,-0.09Zm-1.133,-1.944c0.45,0 0.72,0.351 0.657,0.865l-0.081,0.603c0,0.018 -0.018,0.036 -0.036,0.036l-1.432,0c-0.018,0 -0.036,-0.018 -0.036,-0.036l0.081,-0.603c0.063,-0.514 0.405,-0.865 0.847,-0.865Z" style="fill:rgb(199,206,201);fill-rule:nonzero;"/>
                <path d="M89.765,35.255l0.522,0c0.054,0 0.09,-0.027 0.108,-0.081l1.611,-4.364c0.018,-0.054 0,-0.099 -0.063,-0.099l-0.504,-0.009c-0.054,0 -0.09,0.027 -0.108,0.081l-1.17,3.483c-0.009,0.036 -0.027,0.036 -0.036,0l-0.315,-3.483c-0.009,-0.054 -0.036,-0.081 -0.09,-0.081l-0.504,0c-0.063,0 -0.09,0.036 -0.081,0.099l0.54,4.373c0,0.054 0.036,0.081 0.09,0.081Z" style="fill:rgb(199,206,201);fill-rule:nonzero;"/>
                <path d="M95.046,33.131l0.135,-1.125c0.099,-0.81 -0.35,-1.376 -1.196,-1.376c-0.838,0 -1.44,0.566 -1.539,1.376l-0.234,1.944c-0.099,0.829 0.36,1.377 1.187,1.377c0.775,0 1.315,-0.449 1.486,-1.151c0.018,-0.054 -0.009,-0.1 -0.063,-0.1l-0.432,-0.018c-0.054,0 -0.081,0.027 -0.108,0.082c-0.126,0.369 -0.423,0.63 -0.811,0.63c-0.432,0 -0.702,-0.351 -0.639,-0.856l0.081,-0.657c0,-0.018 0.027,-0.036 0.045,-0.036l1.989,0c0.054,0 0.09,-0.036 0.099,-0.09Zm-1.133,-1.944c0.45,0 0.72,0.351 0.657,0.865l-0.081,0.603c0,0.018 -0.018,0.036 -0.036,0.036l-1.432,0c-0.018,0 -0.036,-0.018 -0.036,-0.036l0.081,-0.603c0.063,-0.514 0.405,-0.865 0.847,-0.865Z" style="fill:rgb(199,206,201);fill-rule:nonzero;"/>
                <path d="M97.755,30.657c-0.414,0 -0.711,0.279 -0.918,0.684c-0.009,0.027 -0.036,0.027 -0.036,-0.009l0.072,-0.54c0,-0.054 -0.027,-0.09 -0.081,-0.09l-0.44,0c-0.054,0 -0.099,0.036 -0.099,0.09l-0.54,4.373c-0.009,0.054 0.027,0.09 0.072,0.09l0.45,0c0.054,0 0.09,-0.036 0.099,-0.09l0.333,-2.699c0.071,-0.612 0.431,-1.089 0.845,-1.116c0.153,-0.027 0.279,-0.009 0.369,0.036c0.054,0.018 0.099,0.009 0.117,-0.054l0.153,-0.459c0.018,-0.045 0.009,-0.09 -0.027,-0.117c-0.09,-0.054 -0.198,-0.099 -0.369,-0.099Z" style="fill:rgb(199,206,201);fill-rule:nonzero;"/>
                <path d="M101.364,31.979c0.072,-0.792 -0.306,-1.349 -1.007,-1.349c-0.36,0 -0.684,0.144 -0.927,0.431c-0.027,0.027 -0.036,0.009 -0.036,-0.018l0.243,-1.997c0.009,-0.054 -0.018,-0.09 -0.072,-0.09l-0.45,0c-0.045,0 -0.09,0.036 -0.099,0.09l-0.748,6.119c-0.009,0.054 0.027,0.09 0.072,0.09l0.45,0c0.054,0 0.09,-0.036 0.099,-0.09l0.028,-0.261c0.009,-0.027 0.027,-0.045 0.054,-0.018c0.162,0.288 0.45,0.441 0.81,0.441c0.693,0 1.206,-0.576 1.34,-1.377c0.054,-0.333 0.09,-0.666 0.135,-0.999c0.036,-0.333 0.081,-0.639 0.108,-0.972l0,0Zm-1.7,2.79c-0.423,0 -0.684,-0.36 -0.612,-0.9l0.216,-1.782c0.063,-0.54 0.414,-0.9 0.837,-0.9c0.441,0 0.711,0.36 0.639,0.9c-0.036,0.315 -0.081,0.657 -0.108,0.891l-0.117,0.891c-0.054,0.531 -0.405,0.9 -0.855,0.9Z" style="fill:rgb(199,206,201);fill-rule:nonzero;"/>
                <path d="M69.728,25.419l1.104,0c0.084,0 0.144,-0.06 0.144,-0.144l0,-5.244c0,-0.06 0.048,-0.072 0.072,-0.024l1.032,2.124c0.036,0.072 0.072,0.108 0.096,0.108c0.024,0 0.06,-0.036 0.096,-0.108l1.032,-2.1c0.024,-0.048 0.072,-0.048 0.072,0.012l0,5.232c0,0.084 0.06,0.144 0.144,0.144l1.104,0c0.084,0 0.144,-0.06 0.144,-0.144l0,-8.112c0,-0.084 -0.06,-0.144 -0.144,-0.144l-1.104,0c-0.072,0 -0.132,0.024 -0.168,0.108l-1.14,2.592c-0.024,0.048 -0.048,0.048 -0.072,0l-1.152,-2.592c-0.036,-0.084 -0.096,-0.108 -0.168,-0.108l-1.092,0c-0.084,0 -0.144,0.06 -0.144,0.144l0,8.112c0,0.084 0.06,0.144 0.144,0.144Z" style="fill:white;fill-rule:nonzero;"/>
                <path d="M77.714,25.418l1.224,0c0.084,0 0.144,-0.048 0.156,-0.132l1.728,-8.111c0.024,-0.108 -0.024,-0.156 -0.12,-0.156l-1.176,0c-0.084,0 -0.144,0.036 -0.156,0.132l-0.972,5.771c-0.012,0.048 -0.06,0.048 -0.072,0l-0.996,-5.771c-0.012,-0.096 -0.072,-0.132 -0.156,-0.132l-1.212,0c-0.096,0 -0.144,0.048 -0.12,0.156l1.716,8.111c0.012,0.084 0.072,0.132 0.156,0.132Z" style="fill:white;fill-rule:nonzero;"/>
            </g>
            <path d="M17.429,347.596l0.458,0c0.054,0 0.09,-0.036 0.09,-0.09l0,-5.004c0,-0.054 -0.036,-0.09 -0.09,-0.09l-0.458,0c-0.054,0 -0.09,0.036 -0.09,0.09l0,5.004c0,0.054 0.036,0.09 0.09,0.09Z" style="fill:white;fill-rule:nonzero;"/>
            <path d="M19.328,347.596l0.449,0c0.054,0 0.09,-0.036 0.09,-0.09l0,-3.753c0,-0.036 0.036,-0.045 0.045,-0.009l1.522,3.78c0.018,0.054 0.054,0.072 0.099,0.072l0.476,0c0.054,0 0.09,-0.036 0.09,-0.09l0,-5.004c0,-0.054 -0.036,-0.09 -0.09,-0.09l-0.449,0c-0.054,0 -0.09,0.036 -0.09,0.09l0,3.744c0,0.036 -0.036,0.045 -0.045,0.009l-1.531,-3.771c-0.018,-0.054 -0.054,-0.072 -0.099,-0.072l-0.467,0c-0.054,0 -0.09,0.036 -0.09,0.09l0,5.004c0,0.054 0.036,0.09 0.09,0.09Z" style="fill:white;fill-rule:nonzero;"/>
            <path d="M25.43,347.596l2.375,0c0.054,0 0.09,-0.036 0.09,-0.09l0,-0.377c0,-0.054 -0.036,-0.09 -0.09,-0.09l-1.791,0c-0.018,0 -0.036,-0.018 -0.036,-0.036l0,-4.509c0,-0.054 -0.036,-0.09 -0.09,-0.09l-0.458,0c-0.054,0 -0.09,0.036 -0.09,0.09l0,5.012c0,0.054 0.036,0.09 0.09,0.09Z" style="fill:white;fill-rule:nonzero;"/>
            <path d="M13.955,307.6l1.241,0c0.838,0 1.377,-0.547 1.377,-1.385l0,-2.412c0,-0.847 -0.539,-1.394 -1.377,-1.394l-1.241,0c-0.054,0 -0.09,0.035 -0.09,0.089l0,5.013c0,0.054 0.036,0.089 0.09,0.089Zm0.548,-0.592l0,-3.998c0,-0.018 0.018,-0.036 0.036,-0.036l0.648,0c0.46,0 0.748,0.334 0.748,0.856l0,2.34c-0.009,0.531 -0.297,0.865 -0.748,0.865l-0.648,0.009c-0.018,0 -0.036,-0.018 -0.036,-0.036Z" style="fill:white;fill-rule:nonzero;"/>
            <path d="M20.263,302.885l0,-0.378c0,-0.054 -0.036,-0.089 -0.09,-0.089l-2.393,0c-0.054,0 -0.09,0.035 -0.09,0.089l0,5.004c0,0.054 0.036,0.089 0.09,0.089l2.393,0c0.054,0 0.09,-0.035 0.09,-0.089l0,-0.378c0,-0.054 -0.036,-0.089 -0.09,-0.089l-1.809,0c-0.018,0 -0.036,-0.018 -0.036,-0.036l0,-1.694c0,-0.018 0.018,-0.036 0.036,-0.036l1.116,0c0.054,0 0.09,-0.035 0.09,-0.089l0,-0.378c0,-0.054 -0.036,-0.089 -0.09,-0.089l-1.116,0c-0.018,0 -0.036,-0.018 -0.036,-0.036l0,-1.676c0,-0.018 0.018,-0.036 0.036,-0.036l1.809,0c0.054,0 0.09,-0.035 0.09,-0.089Z" style="fill:white;fill-rule:nonzero;"/>
            <path d="M22.676,302.4l-1.341,0c-0.054,0 -0.09,0.035 -0.09,0.089l0,5.021c0,0.054 0.036,0.09 0.09,0.09l0.458,0c0.054,0 0.09,-0.036 0.09,-0.09l0,-2.169c0,-0.018 0.018,-0.036 0.036,-0.036l0.784,0c0.774,0 1.295,-0.574 1.295,-1.43c0,-0.874 -0.53,-1.475 -1.322,-1.475Zm-0.091,2.403l-0.666,0c-0.018,0 -0.036,-0.018 -0.036,-0.036l0,-1.775c0,-0.018 0.018,-0.036 0.036,-0.036l0.666,0c0.46,0 0.775,0.361 0.775,0.928c0,0.558 -0.315,0.919 -0.775,0.919Z" style="fill:white;fill-rule:nonzero;"/>
            <path d="M27.454,302.409l-2.717,0c-0.054,0 -0.09,0.035 -0.09,0.089l0,0.387c0,0.054 0.036,0.089 0.09,0.089l0.972,0c0.018,0 0.036,0.018 0.036,0.036l0,4.5c0,0.054 0.036,0.09 0.09,0.09l0.458,0c0.054,0 0.09,-0.036 0.09,-0.09l0,-4.5c0,-0.018 0.018,-0.036 0.036,-0.036l1.035,0c0.054,0 0.09,-0.035 0.09,-0.089l0,-0.387c0,-0.054 -0.036,-0.089 -0.09,-0.089Z" style="fill:white;fill-rule:nonzero;"/>
            <path d="M30.497,302.499l0,2.187c0,0.018 -0.018,0.036 -0.036,0.036l-1.324,0c-0.018,0 -0.036,-0.018 -0.036,-0.036l0,-2.187c0,-0.054 -0.036,-0.09 -0.09,-0.09l-0.458,0c-0.054,0 -0.09,0.036 -0.09,0.09l0,5.011c0,0.054 0.036,0.09 0.09,0.09l0.458,0c0.054,0 0.09,-0.036 0.09,-0.09l0,-2.196c0,-0.018 0.018,-0.036 0.036,-0.036l1.324,0c0.018,0 0.036,0.018 0.036,0.036l0,2.196c0,0.054 0.036,0.09 0.09,0.09l0.458,0c0.054,0 0.09,-0.036 0.09,-0.09l0,-5.011c0,-0.054 -0.036,-0.09 -0.09,-0.09l-0.458,0c-0.054,0 -0.09,0.036 -0.09,0.09Z" style="fill:white;fill-rule:nonzero;"/>
            <path d="M48.52,304.888c0.431,-0.189 0.655,-0.558 0.655,-1.108c0,-0.9 -0.584,-1.376 -1.502,-1.376l-1.161,0c-0.054,0 -0.089,0.036 -0.089,0.09l0,5.012c0,0.054 0.035,0.09 0.089,0.09l1.251,0c0.864,0 1.457,-0.512 1.457,-1.421c-0.009,-0.613 -0.287,-1.027 -0.709,-1.243c-0.018,-0.017 -0.018,-0.035 0.009,-0.044Zm-1.424,-1.918l0.595,0c0.54,0 0.865,0.315 0.865,0.874c0,0.549 -0.325,0.855 -0.865,0.855l-0.595,0c-0.018,0 -0.036,-0.018 -0.036,-0.036l0,-1.657c0,-0.018 0.018,-0.036 0.036,-0.036Zm0.613,4.06l-0.613,0c-0.018,0 -0.036,-0.018 -0.036,-0.036l0,-1.81c0,-0.018 0.018,-0.036 0.036,-0.036l0.622,0c0.531,0 0.856,0.36 0.856,0.955c0,0.594 -0.325,0.927 -0.865,0.927Z" style="fill:white;fill-rule:nonzero;"/>
            <path d="M52.425,307.596l0.468,0c0.062,0 0.089,-0.036 0.071,-0.099l-0.836,-2.277c-0.009,-0.027 0,-0.036 0.027,-0.045c0.495,-0.188 0.791,-0.674 0.791,-1.313c0,-0.865 -0.539,-1.467 -1.322,-1.467l-1.341,0c-0.054,0 -0.089,0.036 -0.089,0.09l0,5.021c0,0.054 0.035,0.09 0.089,0.09l0.459,0c0.054,0 0.089,-0.036 0.089,-0.09l0,-2.205c0,-0.018 0.018,-0.036 0.036,-0.036l0.631,0c0.018,0 0.027,0 0.036,0.027l0.784,2.232c0.018,0.054 0.062,0.072 0.107,0.072Zm-1.558,-4.644l0.667,0c0.459,0 0.775,0.36 0.775,0.91c0,0.549 -0.316,0.891 -0.775,0.891l-0.667,0c-0.018,0 -0.036,-0.018 -0.036,-0.036l0,-1.729c0,-0.018 0.018,-0.036 0.036,-0.036Z" style="fill:white;fill-rule:nonzero;"/>
            <path d="M54.018,307.596l0.459,0c0.054,0 0.089,-0.036 0.089,-0.09l0,-5.004c0,-0.054 -0.035,-0.09 -0.089,-0.09l-0.459,0c-0.054,0 -0.089,0.036 -0.089,0.09l0,5.004c0,0.054 0.035,0.09 0.089,0.09Z" style="fill:white;fill-rule:nonzero;"/>
            <path d="M57.096,307.659c0.828,0 1.385,-0.503 1.385,-1.358l0,-1.233c0,-0.054 -0.035,-0.09 -0.089,-0.09l-1.161,0c-0.054,0 -0.09,0.036 -0.09,0.09l0,0.287c0,0.054 0.036,0.09 0.09,0.09l0.577,0c0.018,0 0.036,0.018 0.036,0.036l0,0.829c0,0.504 -0.298,0.792 -0.748,0.792c-0.45,0 -0.748,-0.288 -0.748,-0.792l0,-2.62c0,-0.504 0.298,-0.783 0.748,-0.783c0.45,0 0.748,0.279 0.748,0.783l0,0.234c0,0.055 0.035,0.091 0.089,0.091l0.459,0c0.054,0 0.089,-0.036 0.089,-0.091l0,-0.216c0,-0.855 -0.557,-1.367 -1.385,-1.367c-0.828,0 -1.385,0.503 -1.385,1.358l0,2.602c0,0.855 0.557,1.358 1.385,1.358Z" style="fill:white;fill-rule:nonzero;"/>
            <path d="M61.615,302.494l0,2.187c0,0.018 -0.018,0.036 -0.036,0.036l-1.325,0c-0.018,0 -0.036,-0.018 -0.036,-0.036l0,-2.187c0,-0.054 -0.035,-0.09 -0.089,-0.09l-0.459,0c-0.054,0 -0.089,0.036 -0.089,0.09l0,5.012c0,0.054 0.035,0.09 0.089,0.09l0.459,0c0.054,0 0.089,-0.036 0.089,-0.09l0,-2.196c0,-0.018 0.018,-0.036 0.036,-0.036l1.325,0c0.018,0 0.036,0.018 0.036,0.036l0,2.196c0,0.054 0.035,0.09 0.089,0.09l0.459,0c0.054,0 0.089,-0.036 0.089,-0.09l0,-5.012c0,-0.054 -0.035,-0.09 -0.089,-0.09l-0.459,0c-0.054,0 -0.089,0.036 -0.089,0.09Z" style="fill:white;fill-rule:nonzero;"/>
            <path d="M65.987,302.404l-2.716,0c-0.054,0 -0.09,0.036 -0.09,0.09l0,0.386c0,0.054 0.036,0.09 0.09,0.09l0.972,0c0.018,0 0.036,0.018 0.036,0.036l0,4.5c0,0.054 0.035,0.09 0.089,0.09l0.459,0c0.054,0 0.089,-0.036 0.089,-0.09l0,-4.5c0,-0.018 0.018,-0.036 0.036,-0.036l1.035,0c0.054,0 0.09,-0.036 0.09,-0.09l0,-0.386c0,-0.054 -0.036,-0.09 -0.09,-0.09Z" style="fill:white;fill-rule:nonzero;"/>
            <path d="M77.36,307.542l1.241,0c0.838,0 1.377,-0.548 1.377,-1.385l0,-2.413c0,-0.846 -0.539,-1.394 -1.377,-1.394l-1.241,0c-0.054,0 -0.09,0.036 -0.09,0.09l0,5.012c0,0.054 0.036,0.09 0.09,0.09Zm0.548,-0.593l0,-3.997c0,-0.018 0.018,-0.036 0.036,-0.036l0.648,0c0.46,0 0.748,0.333 0.748,0.855l0,2.341c-0.009,0.531 -0.297,0.864 -0.748,0.864l-0.648,0.009c-0.018,0 -0.036,-0.018 -0.036,-0.036Z" style="fill:white;fill-rule:nonzero;"/>
            <path d="M83.381,307.542l0.467,0c0.063,0 0.09,-0.036 0.072,-0.099l-0.836,-2.277c-0.009,-0.027 0,-0.036 0.027,-0.045c0.494,-0.188 0.791,-0.674 0.791,-1.313c0,-0.865 -0.539,-1.467 -1.322,-1.467l-1.341,0c-0.054,0 -0.09,0.036 -0.09,0.09l0,5.021c0,0.054 0.036,0.09 0.09,0.09l0.458,0c0.054,0 0.09,-0.036 0.09,-0.09l0,-2.205c0,-0.018 0.018,-0.036 0.036,-0.036l0.63,0c0.018,0 0.027,0 0.036,0.027l0.784,2.232c0.018,0.054 0.063,0.072 0.108,0.072Zm-1.558,-4.644l0.666,0c0.46,0 0.775,0.36 0.775,0.91c0,0.549 -0.315,0.891 -0.775,0.891l-0.666,0c-0.018,0 -0.036,-0.018 -0.036,-0.036l0,-1.729c0,-0.018 0.018,-0.036 0.036,-0.036Z" style="fill:white;fill-rule:nonzero;"/>
            <path d="M85.739,307.533l0.458,0c0.054,0 0.09,-0.036 0.09,-0.09l0,-2.133c0,-0.009 0,-0.036 0.009,-0.045l1.089,-2.807c0.027,-0.063 0,-0.108 -0.063,-0.108l-0.486,0c-0.045,0 -0.09,0.018 -0.108,0.072l-0.738,2.079c-0.009,0.027 -0.044,0.027 -0.053,0l-0.738,-2.079c-0.018,-0.054 -0.063,-0.072 -0.108,-0.072l-0.486,0c-0.063,0 -0.09,0.045 -0.063,0.108l1.098,2.807c0.009,0.009 0.009,0.036 0.009,0.045l0,2.133c0,0.054 0.036,0.09 0.09,0.09Z" style="fill:white;fill-rule:nonzero;"/>
            <path d="M88.164,307.542l0.45,0c0.054,0 0.09,-0.036 0.099,-0.081l1.629,-6.119c0.018,-0.063 -0.018,-0.099 -0.081,-0.099l-0.45,0c-0.054,0 -0.09,0.036 -0.099,0.081l-1.629,6.119c-0.018,0.063 0.018,0.099 0.081,0.099Z" style="fill:white;fill-rule:nonzero;"/>
            <path d="M92.174,307.542l0.414,0c0.054,0 0.081,-0.027 0.09,-0.081l0.621,-3.805c0.009,-0.027 0.026,-0.027 0.035,0l0.63,3.805c0.009,0.054 0.036,0.081 0.09,0.081l0.432,0c0.054,0 0.09,-0.027 0.099,-0.081l0.99,-5.011c0.009,-0.054 -0.018,-0.099 -0.081,-0.099l-0.477,0c-0.054,0 -0.09,0.027 -0.099,0.081l-0.639,3.841c-0.009,0.027 -0.027,0.027 -0.036,0l-0.639,-3.841c-0.009,-0.054 -0.045,-0.081 -0.099,-0.081l-0.377,0c-0.054,0 -0.081,0.027 -0.09,0.081l-0.621,3.841c-0.009,0.027 -0.027,0.036 -0.036,0.009l-0.693,-3.85c-0.009,-0.054 -0.045,-0.081 -0.099,-0.081l-0.486,0c-0.063,0 -0.09,0.036 -0.081,0.099l1.053,5.011c0.009,0.054 0.045,0.081 0.099,0.081Z" style="fill:white;fill-rule:nonzero;"/>
            <path d="M99.139,302.826l0,-0.377c0,-0.054 -0.036,-0.09 -0.09,-0.09l-2.393,0c-0.054,0 -0.09,0.036 -0.09,0.09l0,5.003c0,0.054 0.036,0.09 0.09,0.09l2.393,0c0.054,0 0.09,-0.036 0.09,-0.09l0,-0.377c0,-0.054 -0.036,-0.09 -0.09,-0.09l-1.809,0c-0.018,0 -0.036,-0.018 -0.036,-0.036l0,-1.693c0,-0.018 0.018,-0.036 0.036,-0.036l1.116,0c0.054,0 0.09,-0.036 0.09,-0.09l0,-0.377c0,-0.054 -0.036,-0.09 -0.09,-0.09l-1.116,0c-0.018,0 -0.036,-0.018 -0.036,-0.036l0,-1.675c0,-0.018 0.018,-0.036 0.036,-0.036l1.809,0c0.054,0 0.09,-0.036 0.09,-0.09Z" style="fill:white;fill-rule:nonzero;"/>
            <path d="M102.64,302.35l-2.717,0c-0.054,0 -0.09,0.036 -0.09,0.09l0,0.386c0,0.054 0.036,0.09 0.09,0.09l0.972,0c0.018,0 0.036,0.018 0.036,0.036l0,4.5c0,0.054 0.036,0.09 0.09,0.09l0.458,0c0.054,0 0.09,-0.036 0.09,-0.09l0,-4.5c0,-0.018 0.018,-0.036 0.036,-0.036l1.035,0c0.054,0 0.09,-0.036 0.09,-0.09l0,-0.386c0,-0.054 -0.036,-0.09 -0.09,-0.09Z" style="fill:white;fill-rule:nonzero;"/>
            <path d="M117.188,307.596l0.467,0c0.063,0 0.09,-0.036 0.072,-0.099l-0.836,-2.277c-0.009,-0.027 0,-0.036 0.027,-0.045c0.494,-0.188 0.791,-0.674 0.791,-1.313c0,-0.865 -0.539,-1.467 -1.323,-1.467l-1.34,0c-0.054,0 -0.09,0.036 -0.09,0.09l0,5.021c0,0.054 0.036,0.09 0.09,0.09l0.458,0c0.054,0 0.09,-0.036 0.09,-0.09l0,-2.205c0,-0.018 0.018,-0.036 0.036,-0.036l0.63,0c0.018,0 0.027,0 0.036,0.027l0.784,2.232c0.018,0.054 0.063,0.072 0.108,0.072Zm-1.558,-4.644l0.666,0c0.46,0 0.775,0.36 0.775,0.91c0,0.549 -0.315,0.891 -0.775,0.891l-0.666,0c-0.018,0 -0.036,-0.018 -0.036,-0.036l0,-1.729c0,-0.018 0.018,-0.036 0.036,-0.036Z" style="fill:white;fill-rule:nonzero;"/>
            <path d="M121.264,302.88l0,-0.377c0,-0.054 -0.036,-0.09 -0.09,-0.09l-2.393,0c-0.054,0 -0.09,0.036 -0.09,0.09l0,5.003c0,0.054 0.036,0.09 0.09,0.09l2.393,0c0.054,0 0.09,-0.036 0.09,-0.09l0,-0.377c0,-0.054 -0.036,-0.09 -0.09,-0.09l-1.809,0c-0.018,0 -0.036,-0.018 -0.036,-0.036l0,-1.693c0,-0.018 0.018,-0.036 0.036,-0.036l1.116,0c0.054,0 0.09,-0.036 0.09,-0.09l0,-0.377c0,-0.054 -0.036,-0.09 -0.09,-0.09l-1.116,0c-0.018,0 -0.036,-0.018 -0.036,-0.036l0,-1.675c0,-0.018 0.018,-0.036 0.036,-0.036l1.809,0c0.054,0 0.09,-0.036 0.09,-0.09Z" style="fill:white;fill-rule:nonzero;"/>
            <path d="M123.559,307.659c0.829,0 1.386,-0.503 1.386,-1.358l0,-1.233c0,-0.054 -0.036,-0.09 -0.09,-0.09l-1.161,0c-0.054,0 -0.09,0.036 -0.09,0.09l0,0.287c0,0.054 0.036,0.09 0.09,0.09l0.577,0c0.018,0 0.036,0.018 0.036,0.036l0,0.829c0,0.504 -0.297,0.792 -0.748,0.792c-0.45,0 -0.747,-0.288 -0.747,-0.792l0,-2.62c0,-0.504 0.297,-0.783 0.747,-0.783c0.451,0 0.748,0.279 0.748,0.783l0,0.234c0,0.055 0.036,0.091 0.09,0.091l0.458,0c0.054,0 0.09,-0.036 0.09,-0.091l0,-0.216c0,-0.855 -0.557,-1.367 -1.386,-1.367c-0.828,0 -1.385,0.503 -1.385,1.358l0,2.602c0,0.855 0.557,1.358 1.385,1.358Z" style="fill:white;fill-rule:nonzero;"/>
            <path d="M128.617,302.88l0,-0.377c0,-0.054 -0.036,-0.09 -0.09,-0.09l-2.393,0c-0.054,0 -0.09,0.036 -0.09,0.09l0,5.003c0,0.054 0.036,0.09 0.09,0.09l2.393,0c0.054,0 0.09,-0.036 0.09,-0.09l0,-0.377c0,-0.054 -0.036,-0.09 -0.09,-0.09l-1.809,0c-0.018,0 -0.036,-0.018 -0.036,-0.036l0,-1.693c0,-0.018 0.018,-0.036 0.036,-0.036l1.116,0c0.054,0 0.09,-0.036 0.09,-0.09l0,-0.377c0,-0.054 -0.036,-0.09 -0.09,-0.09l-1.116,0c-0.018,0 -0.036,-0.018 -0.036,-0.036l0,-1.675c0,-0.018 0.018,-0.036 0.036,-0.036l1.809,0c0.054,0 0.09,-0.036 0.09,-0.09Z" style="fill:white;fill-rule:nonzero;"/>
            <path d="M129.734,307.596l0.449,0c0.054,0 0.09,-0.036 0.09,-0.09l0,-3.753c0,-0.036 0.036,-0.045 0.045,-0.009l1.522,3.78c0.018,0.054 0.054,0.072 0.099,0.072l0.476,0c0.054,0 0.09,-0.036 0.09,-0.09l0,-5.004c0,-0.054 -0.036,-0.09 -0.09,-0.09l-0.449,0c-0.054,0 -0.09,0.036 -0.09,0.09l0,3.744c0,0.036 -0.036,0.045 -0.045,0.009l-1.531,-3.771c-0.018,-0.054 -0.054,-0.072 -0.099,-0.072l-0.467,0c-0.054,0 -0.09,0.036 -0.09,0.09l0,5.004c0,0.054 0.036,0.09 0.09,0.09Z" style="fill:white;fill-rule:nonzero;"/>
            <path d="M50.99,347.596l0.458,0c0.054,0 0.09,-0.036 0.09,-0.09l0,-5.004c0,-0.054 -0.036,-0.09 -0.09,-0.09l-0.458,0c-0.054,0 -0.09,0.036 -0.09,0.09l0,5.004c0,0.054 0.036,0.09 0.09,0.09Z" style="fill:white;fill-rule:nonzero;"/>
            <path d="M52.889,347.596l0.449,0c0.054,0 0.09,-0.036 0.09,-0.09l0,-3.753c0,-0.036 0.036,-0.045 0.045,-0.009l1.522,3.78c0.018,0.054 0.054,0.072 0.099,0.072l0.476,0c0.054,0 0.09,-0.036 0.09,-0.09l0,-5.004c0,-0.054 -0.036,-0.09 -0.09,-0.09l-0.449,0c-0.054,0 -0.09,0.036 -0.09,0.09l0,3.744c0,0.036 -0.036,0.045 -0.045,0.009l-1.531,-3.771c-0.018,-0.054 -0.054,-0.072 -0.099,-0.072l-0.467,0c-0.054,0 -0.09,0.036 -0.09,0.09l0,5.004c0,0.054 0.036,0.09 0.09,0.09Z" style="fill:white;fill-rule:nonzero;"/>
            <path d="M61.133,347.596l0.467,0c0.063,0 0.09,-0.036 0.072,-0.099l-0.836,-2.277c-0.009,-0.027 0,-0.036 0.027,-0.045c0.494,-0.188 0.791,-0.674 0.791,-1.313c0,-0.865 -0.539,-1.467 -1.322,-1.467l-1.341,0c-0.054,0 -0.09,0.036 -0.09,0.09l0,5.021c0,0.054 0.036,0.09 0.09,0.09l0.458,0c0.054,0 0.09,-0.036 0.09,-0.09l0,-2.205c0,-0.018 0.018,-0.036 0.036,-0.036l0.63,0c0.018,0 0.027,0 0.036,0.027l0.784,2.232c0.018,0.054 0.063,0.072 0.108,0.072Zm-1.558,-4.644l0.666,0c0.46,0 0.775,0.36 0.775,0.91c0,0.549 -0.315,0.891 -0.775,0.891l-0.666,0c-0.018,0 -0.036,-0.018 -0.036,-0.036l0,-1.729c0,-0.018 0.018,-0.036 0.036,-0.036Z" style="fill:white;fill-rule:nonzero;"/>
            <path d="M83.502,347.618c0.837,0 1.403,-0.539 1.403,-1.43l0,-2.449c0,-0.9 -0.566,-1.439 -1.403,-1.439c-0.846,0 -1.403,0.539 -1.403,1.439l0,2.449c0,0.891 0.557,1.43 1.403,1.43Zm0,-0.557c-0.45,0 -0.766,-0.306 -0.766,-0.837l0,-2.512c0,-0.54 0.316,-0.846 0.766,-0.846c0.459,0 0.766,0.306 0.766,0.846l0,2.512c0,0.531 -0.307,0.837 -0.766,0.837Z" style="fill:white;fill-rule:nonzero;"/>
            <path d="M87.39,347.618c0.846,0 1.394,-0.584 1.394,-1.538l0,-3.618c0,-0.054 -0.035,-0.09 -0.089,-0.09l-0.459,0c-0.054,0 -0.089,0.036 -0.089,0.09l0,3.672c0,0.576 -0.298,0.927 -0.757,0.927c-0.45,0 -0.748,-0.351 -0.748,-0.927l0,-3.672c0,-0.054 -0.035,-0.09 -0.089,-0.09l-0.459,0c-0.054,0 -0.089,0.036 -0.089,0.09l0,3.618c0,0.954 0.557,1.538 1.385,1.538Z" style="fill:white;fill-rule:nonzero;"/>
            <path d="M92.474,342.363l-2.716,0c-0.054,0 -0.09,0.036 -0.09,0.09l0,0.386c0,0.054 0.036,0.09 0.09,0.09l0.972,0c0.018,0 0.036,0.018 0.036,0.036l0,4.5c0,0.054 0.035,0.09 0.089,0.09l0.459,0c0.054,0 0.089,-0.036 0.089,-0.09l0,-4.5c0,-0.018 0.018,-0.036 0.036,-0.036l1.035,0c0.054,0 0.09,-0.036 0.09,-0.09l0,-0.386c0,-0.054 -0.036,-0.09 -0.09,-0.09Z" style="fill:white;fill-rule:nonzero;"/>
            <path d="M95.553,347.555l2.375,0c0.054,0 0.09,-0.036 0.09,-0.09l0,-0.377c0,-0.054 -0.036,-0.09 -0.09,-0.09l-1.791,0c-0.018,0 -0.036,-0.018 -0.036,-0.036l0,-4.509c0,-0.054 -0.035,-0.09 -0.089,-0.09l-0.459,0c-0.054,0 -0.089,0.036 -0.089,0.09l0,5.012c0,0.054 0.035,0.09 0.089,0.09Z" style="fill:white;fill-rule:nonzero;"/>
            <path d="M117.063,347.618c0.837,0 1.403,-0.539 1.403,-1.43l0,-2.449c0,-0.9 -0.566,-1.439 -1.403,-1.439c-0.846,0 -1.403,0.539 -1.403,1.439l0,2.449c0,0.891 0.557,1.43 1.403,1.43Zm0,-0.557c-0.45,0 -0.766,-0.306 -0.766,-0.837l0,-2.512c0,-0.54 0.316,-0.846 0.766,-0.846c0.459,0 0.766,0.306 0.766,0.846l0,2.512c0,0.531 -0.307,0.837 -0.766,0.837Z" style="fill:white;fill-rule:nonzero;"/>
            <path d="M120.951,347.618c0.846,0 1.394,-0.584 1.394,-1.538l0,-3.618c0,-0.054 -0.035,-0.09 -0.089,-0.09l-0.459,0c-0.054,0 -0.089,0.036 -0.089,0.09l0,3.672c0,0.576 -0.298,0.927 -0.757,0.927c-0.45,0 -0.748,-0.351 -0.748,-0.927l0,-3.672c0,-0.054 -0.035,-0.09 -0.089,-0.09l-0.459,0c-0.054,0 -0.089,0.036 -0.089,0.09l0,3.618c0,0.954 0.557,1.538 1.385,1.538Z" style="fill:white;fill-rule:nonzero;"/>
            <path d="M126.035,342.363l-2.716,0c-0.054,0 -0.09,0.036 -0.09,0.09l0,0.386c0,0.054 0.036,0.09 0.09,0.09l0.972,0c0.018,0 0.036,0.018 0.036,0.036l0,4.5c0,0.054 0.035,0.09 0.089,0.09l0.459,0c0.054,0 0.089,-0.036 0.089,-0.09l0,-4.5c0,-0.018 0.018,-0.036 0.036,-0.036l1.035,0c0.054,0 0.09,-0.036 0.09,-0.09l0,-0.386c0,-0.054 -0.036,-0.09 -0.09,-0.09Z" style="fill:white;fill-rule:nonzero;"/>
            <path d="M131.256,347.555l0.468,0c0.062,0 0.089,-0.036 0.071,-0.099l-0.836,-2.277c-0.009,-0.027 0,-0.036 0.027,-0.045c0.495,-0.189 0.791,-0.674 0.791,-1.314c0,-0.864 -0.539,-1.466 -1.322,-1.466l-1.341,0c-0.054,0 -0.089,0.036 -0.089,0.09l0,5.021c0,0.054 0.035,0.09 0.089,0.09l0.459,0c0.054,0 0.089,-0.036 0.089,-0.09l0,-2.205c0,-0.018 0.018,-0.036 0.036,-0.036l0.631,0c0.018,0 0.027,0 0.036,0.027l0.784,2.232c0.018,0.054 0.062,0.072 0.107,0.072Zm-1.558,-4.644l0.667,0c0.459,0 0.775,0.36 0.775,0.909c0,0.55 -0.316,0.892 -0.775,0.892l-0.667,0c-0.018,0 -0.036,-0.018 -0.036,-0.036l0,-1.729c0,-0.018 0.018,-0.036 0.036,-0.036Z" style="fill:white;fill-rule:nonzero;"/>
            <path d="M0,25l60,0" style="fill:none;stroke:rgb(128,128,128);stroke-width:0.7px;stroke-linecap:round;stroke-linejoin:round;"/>
            <path d="M90,25l60,0" style="fill:none;stroke:rgb(128,128,128);stroke-width:0.7px;stroke-linecap:round;stroke-linejoin:round;"/>
        </g>
        <g id="Line-Art" serif:id="Line Art">
            <path d="M56.25,205l0,-25" style="fill:none;stroke:rgb(128,128,128);stroke-width:0.7px;stroke-linecap:round;stroke-linejoin:round;"/>
            <path d="M22.5,265l0,-35" style="fill:none;stroke:rgb(128,128,128);stroke-width:0.7px;stroke-linecap:round;stroke-linejoin:round;"/>
            <path d="M56.25,265l0,-25" style="fill:none;stroke:rgb(128,128,128);stroke-width:0.7px;stroke-linecap:round;stroke-linejoin:round;"/>
            <path d="M90,265l0,-15" style="fill:none;stroke:rgb(128,128,128);stroke-width:0.7px;stroke-linecap:round;stroke-linejoin:round;"/>
            <path d="M123.75,265l0,-5" style="fill:none;stroke:rgb(128,128,128);stroke-width:0.7px;stroke-linecap:round;stroke-linejoin:round;"/>
            <path d="M22.5,195l0,-19.488l0,-55.512" style="fill:none;stroke:rgb(128,128,128);stroke-width:0.7px;stroke-linecap:round;stroke-linejoin:round;"/>
            <path d="M123.75,225l0,-105" style="fill:none;stroke:rgb(128,128,128);stroke-width:0.7px;stroke-linecap:round;stroke-linejoin:round;"/>
        </g>
    </g>
</svg>
