<?xml version="1.0" encoding="UTF-8" standalone="no"?>
<!DOCTYPE svg PUBLIC "-//W3C//DTD SVG 1.1//EN" "http://www.w3.org/Graphics/SVG/1.1/DTD/svg11.dtd">
<svg width="60px" height="380px" version="1.1" xmlns="http://www.w3.org/2000/svg" xmlns:xlink="http://www.w3.org/1999/xlink" xml:space="preserve" xmlns:serif="http://www.serif.com/" style="fill-rule:evenodd;clip-rule:evenodd;stroke-linecap:round;stroke-linejoin:round;stroke-miterlimit:1.5;">
    <rect id="Rasp-Dark" serif:id="Rasp Dark" x="0" y="0" width="60" height="379.995" style="fill:none;"/>
    <clipPath id="_clip1">
        <rect x="0" y="0" width="60" height="379.995"/>
    </clipPath>
    <g clip-path="url(#_clip1)">
        <g id="Background">
            <path id="bg" d="M60,379.995l0,-379.995l-60,0l0,379.995l60,0Z" style="fill:rgb(54,69,74);"/>
            <g id="bgOutLight">
                <circle cx="30" cy="325" r="14" style="fill:rgb(51,51,51);"/>
            </g>
            <g id="bgOutLight1" serif:id="bgOutLight">
                <circle cx="30" cy="284.971" r="14" style="fill:rgb(51,51,51);"/>
            </g>
            <path d="M0,24.695l16.165,0" style="fill:none;stroke:rgb(128,128,128);stroke-width:0.7px;"/>
            <path d="M40.685,24.695l19.315,0" style="fill:none;stroke:rgb(128,128,128);stroke-width:0.7px;"/>
            <g id="knobBgMediumThree">
                <path d="M39.911,75.026c5.474,-5.466 5.474,-14.328 0,-19.795c-5.47,-5.462 -14.352,-5.462 -19.822,0c-5.474,5.467 -5.474,14.329 0,19.795l9.911,-9.897l9.911,9.897Z" style="fill:none;stroke:rgb(128,128,128);stroke-width:0.7px;stroke-linecap:butt;stroke-linejoin:miter;"/>
            </g>
            <g id="knobBgMediumThree1" serif:id="knobBgMediumThree">
                <path d="M39.911,125.026c5.474,-5.466 5.474,-14.328 0,-19.795c-5.47,-5.462 -14.352,-5.462 -19.822,0c-5.474,5.467 -5.474,14.329 0,19.795l9.911,-9.897l9.911,9.897Z" style="fill:none;stroke:rgb(128,128,128);stroke-width:0.7px;stroke-linecap:butt;stroke-linejoin:miter;"/>
            </g>
        </g>
        <g id="Lables">
            <g id="Branding">
                <path d="M12.357,362.45l0.545,0c0.049,0 0.07,-0.028 0.056,-0.077l-0.72,-2.163c-0.007,-0.021 0,-0.028 0.014,-0.042c0.419,-0.182 0.685,-0.637 0.685,-1.232c0,-0.826 -0.482,-1.393 -1.203,-1.393l-1.253,0c-0.042,0 -0.07,0.028 -0.07,0.07l0,4.767c0,0.042 0.028,0.07 0.07,0.07l0.531,0c0.042,0 0.07,-0.028 0.07,-0.07l0,-2.079c0,-0.014 0.014,-0.028 0.028,-0.028l0.483,0c0.014,0 0.021,0 0.028,0.021l0.652,2.1c0.014,0.035 0.049,0.056 0.084,0.056Zm-1.247,-4.326l0.518,0c0.379,0 0.638,0.315 0.638,0.819c0,0.49 -0.259,0.805 -0.638,0.805l-0.518,0c-0.014,0 -0.028,-0.014 -0.028,-0.028l0,-1.568c0,-0.014 0.014,-0.028 0.028,-0.028Z" style="fill:rgb(199,206,201);fill-rule:nonzero;"/>
                <path d="M16.045,362.45l0.546,0c0.049,0 0.07,-0.035 0.063,-0.077l-1.057,-4.76c-0.007,-0.042 -0.035,-0.063 -0.077,-0.063l-0.615,0c-0.042,0 -0.07,0.021 -0.077,0.063l-1.043,4.76c-0.007,0.042 0.014,0.077 0.063,0.077l0.532,0c0.042,0 0.07,-0.021 0.077,-0.063l0.161,-0.805c0,-0.014 0.021,-0.028 0.035,-0.028l1.126,0c0.014,0 0.035,0.014 0.035,0.028l0.154,0.805c0.007,0.042 0.035,0.063 0.077,0.063Zm-1.308,-1.456l0.476,-2.394c0.006,-0.028 0.02,-0.028 0.027,0l0.462,2.394c0,0.014 -0.007,0.028 -0.021,0.028l-0.923,0c-0.014,0 -0.021,-0.014 -0.021,-0.028Z" style="fill:rgb(199,206,201);fill-rule:nonzero;"/>
                <path d="M18.719,362.506c0.764,0 1.267,-0.497 1.267,-1.267l0,-0.105c0,-0.042 -0.028,-0.07 -0.07,-0.07l-0.531,-0.028c-0.042,0 -0.07,0.028 -0.07,0.07l0,0.182c0,0.378 -0.238,0.637 -0.596,0.637c-0.357,0 -0.588,-0.259 -0.588,-0.637l0,-2.576c0,-0.385 0.231,-0.637 0.588,-0.637c0.358,0 0.596,0.252 0.596,0.637l0,0.182c0,0.042 0.028,0.07 0.07,0.07l0.531,-0.028c0.042,0 0.07,-0.028 0.07,-0.07l0,-0.112c0,-0.77 -0.503,-1.26 -1.267,-1.26c-0.756,0 -1.259,0.49 -1.259,1.26l0,2.485c0,0.77 0.503,1.267 1.259,1.267Z" style="fill:rgb(199,206,201);fill-rule:nonzero;"/>
                <path d="M21.142,362.45l0.531,0c0.042,0 0.07,-0.028 0.07,-0.07l0,-1.575c0,-0.014 0,-0.028 0.007,-0.035l0.357,-0.567c0.014,-0.014 0.028,-0.014 0.035,0.007l0.91,2.184c0.014,0.042 0.042,0.056 0.077,0.056l0.581,0c0.049,0 0.077,-0.035 0.056,-0.084l-1.169,-2.744c-0.007,-0.014 -0.007,-0.028 0,-0.042l1.078,-1.946c0.028,-0.049 0.007,-0.084 -0.049,-0.084l-0.574,0c-0.035,0 -0.063,0.021 -0.084,0.049l-1.19,2.128c-0.014,0.028 -0.035,0.021 -0.035,-0.007l0,-2.1c0,-0.042 -0.028,-0.07 -0.07,-0.07l-0.531,0c-0.042,0 -0.07,0.028 -0.07,0.07l0,4.76c0,0.042 0.028,0.07 0.07,0.07Z" style="fill:rgb(199,206,201);fill-rule:nonzero;"/>
                <path d="M25.44,362.45l0.497,0c0.042,0 0.063,-0.014 0.07,-0.063l0.503,-3.311c0,-0.021 0.021,-0.021 0.028,0l0.532,3.311c0.007,0.042 0.028,0.063 0.07,0.063l0.497,0c0.042,0 0.07,-0.021 0.077,-0.063l0.882,-4.76c0.007,-0.042 -0.014,-0.077 -0.063,-0.077l-0.546,0c-0.042,0 -0.063,0.021 -0.07,0.063l-0.518,3.283c-0.007,0.021 -0.021,0.021 -0.028,0l-0.539,-3.283c-0.007,-0.042 -0.028,-0.063 -0.07,-0.063l-0.468,0c-0.042,0 -0.063,0.014 -0.07,0.063l-0.504,3.283c-0.007,0.021 -0.021,0.021 -0.028,0l-0.567,-3.283c-0.007,-0.042 -0.035,-0.063 -0.077,-0.063l-0.553,0c-0.049,0 -0.07,0.035 -0.063,0.077l0.931,4.76c0.007,0.042 0.035,0.063 0.077,0.063Z" style="fill:rgb(199,206,201);fill-rule:nonzero;"/>
                <path d="M29.626,362.45l0.531,0c0.042,0 0.07,-0.028 0.07,-0.07l0,-4.76c0,-0.042 -0.028,-0.07 -0.07,-0.07l-0.531,0c-0.042,0 -0.07,0.028 -0.07,0.07l0,4.76c0,0.042 0.028,0.07 0.07,0.07Z" style="fill:rgb(199,206,201);fill-rule:nonzero;"/>
                <path d="M31.523,362.45l0.525,0c0.042,0 0.07,-0.028 0.07,-0.07l-0.007,-3.073c0,-0.028 0.028,-0.028 0.035,0l1.246,3.087c0.014,0.042 0.042,0.056 0.077,0.056l0.546,0c0.042,0 0.07,-0.028 0.07,-0.07l0,-4.76c0,-0.042 -0.028,-0.07 -0.07,-0.07l-0.525,0c-0.042,0 -0.07,0.028 -0.07,0.07l0,3.066c0,0.028 -0.028,0.035 -0.035,0.007l-1.246,-3.087c-0.014,-0.042 -0.042,-0.056 -0.077,-0.056l-0.539,0c-0.042,0 -0.07,0.028 -0.07,0.07l0,4.76c0,0.042 0.028,0.07 0.07,0.07Z" style="fill:rgb(199,206,201);fill-rule:nonzero;"/>
                <path d="M35.373,362.45l1.147,0c0.771,0 1.267,-0.511 1.267,-1.323l0,-2.254c0,-0.812 -0.496,-1.323 -1.267,-1.323l-1.147,0c-0.042,0 -0.07,0.028 -0.07,0.07l0,4.76c0,0.042 0.028,0.07 0.07,0.07Zm0.601,-0.609l0,-3.682c0,-0.014 0.014,-0.028 0.028,-0.028l0.511,0c0.365,0 0.596,0.301 0.596,0.777l0,2.184c-0.007,0.476 -0.238,0.77 -0.596,0.77l-0.511,0.007c-0.014,0 -0.028,-0.014 -0.028,-0.028Z" style="fill:rgb(199,206,201);fill-rule:nonzero;"/>
                <path d="M40.111,362.506c0.771,0 1.288,-0.504 1.288,-1.281l0,-2.443c0,-0.777 -0.517,-1.288 -1.288,-1.288c-0.763,0 -1.273,0.511 -1.273,1.288l0,2.443c0,0.777 0.51,1.281 1.273,1.281Zm0,-0.581c-0.364,0 -0.602,-0.273 -0.602,-0.672l0,-2.506c0,-0.399 0.238,-0.672 0.602,-0.672c0.372,0 0.617,0.273 0.617,0.672l0,2.506c0,0.399 -0.245,0.672 -0.617,0.672Z" style="fill:rgb(199,206,201);fill-rule:nonzero;"/>
                <path d="M43.192,362.45l0.497,0c0.042,0 0.063,-0.014 0.07,-0.063l0.503,-3.311c0,-0.021 0.021,-0.021 0.028,0l0.532,3.311c0.007,0.042 0.028,0.063 0.07,0.063l0.497,0c0.042,0 0.07,-0.021 0.077,-0.063l0.882,-4.76c0.007,-0.042 -0.014,-0.077 -0.063,-0.077l-0.546,0c-0.042,0 -0.063,0.021 -0.07,0.063l-0.518,3.283c-0.007,0.021 -0.021,0.021 -0.028,0l-0.539,-3.283c-0.007,-0.042 -0.028,-0.063 -0.07,-0.063l-0.468,0c-0.042,0 -0.063,0.014 -0.07,0.063l-0.504,3.283c-0.007,0.021 -0.021,0.021 -0.028,0l-0.567,-3.283c-0.007,-0.042 -0.035,-0.063 -0.077,-0.063l-0.553,0c-0.049,0 -0.07,0.035 -0.063,0.077l0.931,4.76c0.007,0.042 0.035,0.063 0.077,0.063Z" style="fill:rgb(199,206,201);fill-rule:nonzero;"/>
                <path d="M48.343,362.506c0.729,0 1.246,-0.504 1.246,-1.295c0,-0.672 -0.37,-0.966 -1.084,-1.498c-0.54,-0.399 -0.743,-0.588 -0.743,-0.987c0,-0.42 0.231,-0.651 0.546,-0.651c0.344,0 0.582,0.28 0.582,0.7l0,0.189c0,0.042 0.028,0.07 0.07,0.07l0.517,0c0.042,0 0.07,-0.028 0.07,-0.07l0,-0.175c0,-0.777 -0.489,-1.295 -1.239,-1.295c-0.707,0 -1.21,0.469 -1.21,1.232c0,0.763 0.503,1.134 1.042,1.533c0.505,0.371 0.785,0.567 0.785,0.994c0,0.406 -0.252,0.672 -0.582,0.672c-0.336,0 -0.574,-0.273 -0.574,-0.707l0,-0.154c0,-0.042 -0.028,-0.07 -0.07,-0.07l-0.517,0c-0.042,0 -0.07,0.028 -0.07,0.07l0,0.189c0,0.749 0.496,1.253 1.231,1.253Z" style="fill:rgb(199,206,201);fill-rule:nonzero;"/>
                <path d="M8.828,29.025l-0.333,2.736c0,0.018 -0.018,0.036 -0.036,0.036l-1.556,0c-0.018,0 -0.036,-0.018 -0.027,-0.036l0.333,-2.736c0.009,-0.054 -0.027,-0.09 -0.072,-0.09l-0.45,0c-0.054,0 -0.09,0.036 -0.099,0.09l-0.747,6.119c-0.009,0.054 0.018,0.09 0.072,0.09l0.45,0c0.045,0 0.09,-0.036 0.099,-0.09l0.333,-2.745c0,-0.018 0.018,-0.036 0.036,-0.036l1.556,0c0.018,0 0.036,0.018 0.027,0.036l-0.333,2.745c-0.009,0.054 0.027,0.09 0.072,0.09l0.45,0c0.054,0 0.09,-0.036 0.099,-0.09l0.747,-6.119c0.009,-0.054 -0.018,-0.09 -0.072,-0.09l-0.45,0c-0.045,0 -0.09,0.036 -0.099,0.09Z" style="fill:rgb(199,206,201);fill-rule:nonzero;"/>
                <path d="M10.871,29.87c0.243,0 0.441,-0.198 0.477,-0.476c0.027,-0.261 -0.117,-0.459 -0.369,-0.459c-0.251,0 -0.458,0.198 -0.485,0.459c-0.036,0.278 0.126,0.476 0.377,0.476Zm-0.89,5.364l0.45,0c0.054,0 0.09,-0.036 0.099,-0.09l0.53,-4.373c0.009,-0.054 -0.018,-0.09 -0.072,-0.09l-0.449,0c-0.045,0 -0.09,0.036 -0.09,0.09l-0.54,4.373c-0.009,0.054 0.018,0.09 0.072,0.09Z" style="fill:rgb(199,206,201);fill-rule:nonzero;"/>
                <path d="M14.174,30.771l-0.036,0.278c-0.009,0.036 -0.027,0.045 -0.045,0.009c-0.162,-0.305 -0.477,-0.449 -0.819,-0.449c-0.738,0 -1.25,0.548 -1.358,1.376l-0.225,1.9c-0.108,0.81 0.261,1.376 1.016,1.376c0.333,0 0.675,-0.144 0.927,-0.458c0.027,-0.027 0.045,-0.009 0.045,0.018l-0.036,0.27c-0.108,0.9 -0.459,1.422 -1.431,1.395c-0.054,0 -0.09,0.036 -0.099,0.09l-0.045,0.386c-0.009,0.054 0.018,0.09 0.072,0.099c1.422,0.063 1.971,-0.719 2.115,-1.917l0.54,-4.373c0,-0.054 -0.027,-0.09 -0.081,-0.09l-0.441,0c-0.054,0 -0.09,0.036 -0.099,0.09Zm-1.215,3.933c-0.441,0 -0.711,-0.351 -0.648,-0.855l0.225,-1.819c0.063,-0.513 0.414,-0.864 0.855,-0.864c0.432,0 0.693,0.351 0.63,0.864l-0.225,1.819c-0.063,0.504 -0.405,0.855 -0.837,0.855Z" style="fill:rgb(199,206,201);fill-rule:nonzero;"/>
                <path d="M17.361,30.618c-0.351,0 -0.702,0.135 -0.954,0.458c-0.027,0.027 -0.054,0.018 -0.054,-0.009l0.252,-2.042c0.009,-0.054 -0.018,-0.09 -0.072,-0.09l-0.45,0c-0.045,0 -0.09,0.036 -0.099,0.09l-0.747,6.119c-0.009,0.054 0.027,0.09 0.072,0.09l0.45,0c0.054,0 0.09,-0.036 0.099,-0.09l0.369,-2.997c0.072,-0.603 0.405,-0.972 0.864,-0.972c0.45,0 0.657,0.342 0.585,0.927l-0.369,3.042c-0.009,0.054 0.027,0.09 0.072,0.09l0.449,0c0.054,0 0.09,-0.036 0.099,-0.09l0.376,-3.096c0.108,-0.9 -0.224,-1.43 -0.942,-1.43Z" style="fill:rgb(199,206,201);fill-rule:nonzero;"/>
                <path d="M24.236,29.402l0.045,-0.377c0,-0.054 -0.027,-0.09 -0.081,-0.09l-2.573,0c-0.054,0 -0.09,0.036 -0.099,0.09l-0.747,6.119c-0.009,0.054 0.018,0.09 0.072,0.09l0.45,0c0.045,0 0.09,-0.036 0.099,-0.09l0.333,-2.745c0,-0.018 0.018,-0.036 0.036,-0.036l1.268,0c0.054,0 0.09,-0.036 0.099,-0.09l0.045,-0.386c0.009,-0.054 -0.018,-0.09 -0.072,-0.09l-1.268,0c-0.018,0 -0.036,-0.018 -0.027,-0.036l0.27,-2.233c0,-0.018 0.027,-0.036 0.045,-0.036l2.006,0c0.045,0 0.09,-0.036 0.099,-0.09Z" style="fill:rgb(199,206,201);fill-rule:nonzero;"/>
                <path d="M26.018,30.636c-0.414,0 -0.711,0.279 -0.918,0.684c-0.009,0.027 -0.036,0.027 -0.036,-0.009l0.072,-0.54c0,-0.054 -0.027,-0.09 -0.081,-0.09l-0.44,0c-0.054,0 -0.099,0.036 -0.099,0.09l-0.54,4.373c-0.009,0.054 0.027,0.09 0.072,0.09l0.45,0c0.054,0 0.09,-0.036 0.099,-0.09l0.333,-2.699c0.071,-0.612 0.431,-1.089 0.845,-1.116c0.153,-0.027 0.279,-0.009 0.369,0.036c0.054,0.018 0.099,0.009 0.117,-0.054l0.153,-0.459c0.018,-0.045 0.009,-0.09 -0.027,-0.117c-0.09,-0.054 -0.198,-0.099 -0.369,-0.099Z" style="fill:rgb(199,206,201);fill-rule:nonzero;"/>
                <path d="M29.384,33.11l0.135,-1.124c0.099,-0.811 -0.351,-1.377 -1.196,-1.377c-0.838,0 -1.441,0.566 -1.539,1.377l-0.234,1.944c-0.099,0.828 0.359,1.376 1.187,1.376c0.775,0 1.315,-0.449 1.485,-1.151c0.018,-0.054 -0.009,-0.099 -0.063,-0.099l-0.431,-0.018c-0.054,0 -0.081,0.027 -0.108,0.081c-0.126,0.369 -0.424,0.63 -0.811,0.63c-0.432,0 -0.702,-0.351 -0.639,-0.855l0.081,-0.658c0,-0.018 0.027,-0.036 0.045,-0.036l1.989,0c0.054,0 0.09,-0.036 0.099,-0.09Zm-1.133,-1.944c0.45,0 0.72,0.351 0.657,0.865l-0.081,0.603c0,0.018 -0.018,0.036 -0.036,0.036l-1.432,0c-0.018,0 -0.036,-0.018 -0.036,-0.036l0.081,-0.603c0.063,-0.514 0.405,-0.865 0.847,-0.865Z" style="fill:rgb(199,206,201);fill-rule:nonzero;"/>
                <path d="M32.597,30.771l-0.036,0.261c0,0.027 -0.018,0.045 -0.045,0.018c-0.162,-0.288 -0.45,-0.441 -0.81,-0.441c-0.693,0 -1.215,0.575 -1.349,1.377c-0.045,0.333 -0.09,0.666 -0.126,0.999c-0.045,0.333 -0.081,0.639 -0.117,0.972c-0.063,0.791 0.306,1.349 1.016,1.349c0.36,0 0.684,-0.144 0.918,-0.432c0.027,-0.027 0.045,-0.009 0.045,0.018l-0.252,1.998c0,0.054 0.027,0.09 0.081,0.09l0.441,0c0.054,0 0.09,-0.036 0.099,-0.09l0.756,-6.119c0,-0.054 -0.027,-0.09 -0.081,-0.09l-0.441,0c-0.054,0 -0.09,0.036 -0.099,0.09Zm-1.215,3.977c-0.441,0 -0.711,-0.359 -0.639,-0.899c0.027,-0.315 0.081,-0.657 0.108,-0.891l0.108,-0.891c0.054,-0.532 0.405,-0.901 0.864,-0.901c0.414,0 0.675,0.36 0.612,0.901l-0.216,1.782c-0.072,0.54 -0.414,0.899 -0.837,0.899Z" style="fill:rgb(199,206,201);fill-rule:nonzero;"/>
                <path d="M39.068,28.935l-2.924,0c-0.054,0 -0.09,0.036 -0.099,0.09l-0.045,0.377c-0.009,0.054 0.027,0.09 0.081,0.09l1.08,0c0.018,0 0.035,0.018 0.026,0.036l-0.683,5.616c-0.009,0.054 0.018,0.09 0.072,0.09l0.45,0c0.045,0 0.09,-0.036 0.099,-0.09l0.683,-5.616c0,-0.018 0.027,-0.036 0.045,-0.036l1.152,0c0.045,0 0.09,-0.036 0.09,-0.09l0.054,-0.377c0,-0.054 -0.027,-0.09 -0.081,-0.09Z" style="fill:rgb(199,206,201);fill-rule:nonzero;"/>
                <path d="M41.363,30.771l-0.036,0.252c0,0.027 -0.018,0.045 -0.045,0.018c-0.162,-0.288 -0.449,-0.432 -0.81,-0.432c-0.702,0 -1.224,0.557 -1.34,1.349c-0.054,0.334 -0.09,0.64 -0.126,0.973c-0.045,0.333 -0.09,0.666 -0.117,0.999c-0.063,0.8 0.306,1.376 1.007,1.376c0.36,0 0.685,-0.153 0.919,-0.441c0.027,-0.027 0.045,-0.009 0.045,0.018l-0.036,0.261c-0.009,0.054 0.027,0.09 0.081,0.09l0.44,0c0.054,0 0.09,-0.036 0.099,-0.09l0.54,-4.373c0,-0.054 -0.027,-0.09 -0.081,-0.09l-0.441,0c-0.054,0 -0.09,0.036 -0.099,0.09Zm-1.215,3.977c-0.45,0 -0.711,-0.368 -0.639,-0.899l0.108,-0.891c0.027,-0.234 0.063,-0.576 0.108,-0.891c0.063,-0.541 0.414,-0.901 0.865,-0.901c0.414,0 0.674,0.36 0.611,0.901l-0.215,1.782c-0.072,0.54 -0.414,0.899 -0.838,0.899Z" style="fill:rgb(199,206,201);fill-rule:nonzero;"/>
                <path d="M46.603,30.618c-0.378,0 -0.81,0.171 -1.089,0.629c-0.018,0.036 -0.045,0.036 -0.045,0.009c-0.126,-0.404 -0.432,-0.638 -0.873,-0.638c-0.315,0 -0.657,0.126 -0.936,0.44c-0.027,0.027 -0.045,0.018 -0.036,-0.009l0.036,-0.278c0,-0.054 -0.027,-0.09 -0.081,-0.09l-0.432,0c-0.054,0 -0.099,0.036 -0.099,0.09l-0.54,4.373c-0.009,0.054 0.027,0.09 0.072,0.09l0.441,0c0.054,0 0.09,-0.036 0.099,-0.09l0.369,-2.997c0.072,-0.603 0.396,-0.972 0.846,-0.972c0.387,0 0.621,0.369 0.549,0.99l-0.369,2.979c-0.009,0.054 0.027,0.09 0.081,0.09l0.441,0c0.054,0 0.09,-0.036 0.099,-0.09l0.369,-2.997c0.072,-0.603 0.396,-0.972 0.837,-0.972c0.396,0 0.63,0.369 0.558,0.99l-0.369,2.979c-0.009,0.054 0.027,0.09 0.081,0.09l0.432,0c0.054,0 0.09,-0.036 0.099,-0.09l0.37,-3.033c0.117,-0.927 -0.216,-1.493 -0.91,-1.493Z" style="fill:rgb(199,206,201);fill-rule:nonzero;"/>
                <path d="M51.047,33.11l0.135,-1.124c0.099,-0.811 -0.351,-1.377 -1.196,-1.377c-0.838,0 -1.441,0.566 -1.539,1.377l-0.234,1.944c-0.099,0.828 0.359,1.376 1.187,1.376c0.775,0 1.315,-0.449 1.485,-1.151c0.018,-0.054 -0.009,-0.099 -0.063,-0.099l-0.431,-0.018c-0.054,0 -0.081,0.027 -0.108,0.081c-0.126,0.369 -0.424,0.63 -0.811,0.63c-0.432,0 -0.702,-0.351 -0.639,-0.855l0.081,-0.658c0,-0.018 0.027,-0.036 0.045,-0.036l1.989,0c0.054,0 0.09,-0.036 0.099,-0.09Zm-1.133,-1.944c0.45,0 0.72,0.351 0.657,0.865l-0.081,0.603c0,0.018 -0.018,0.036 -0.036,0.036l-1.432,0c-0.018,0 -0.036,-0.018 -0.036,-0.036l0.081,-0.603c0.063,-0.514 0.405,-0.865 0.847,-0.865Z" style="fill:rgb(199,206,201);fill-rule:nonzero;"/>
                <path d="M53.756,30.636c-0.414,0 -0.711,0.279 -0.918,0.684c-0.009,0.027 -0.036,0.027 -0.036,-0.009l0.072,-0.54c0,-0.054 -0.027,-0.09 -0.081,-0.09l-0.44,0c-0.054,0 -0.099,0.036 -0.099,0.09l-0.54,4.373c-0.009,0.054 0.027,0.09 0.072,0.09l0.45,0c0.054,0 0.09,-0.036 0.099,-0.09l0.333,-2.699c0.071,-0.612 0.431,-1.089 0.845,-1.116c0.153,-0.027 0.279,-0.009 0.369,0.036c0.054,0.018 0.099,0.009 0.117,-0.054l0.153,-0.459c0.018,-0.045 0.009,-0.09 -0.027,-0.117c-0.09,-0.054 -0.198,-0.099 -0.369,-0.099Z" style="fill:rgb(199,206,201);fill-rule:nonzero;"/>
                <path d="M22.723,24.904l1.15,0c0.096,0 0.156,-0.06 0.12,-0.168l-1.175,-3.612c-0.012,-0.036 0,-0.06 0.036,-0.072c0.684,-0.359 1.091,-1.115 1.091,-2.111c0,-1.453 -0.863,-2.448 -2.147,-2.448l-2.255,0c-0.084,0 -0.144,0.06 -0.144,0.144l0,8.123c0,0.084 0.06,0.144 0.144,0.144l1.102,0c0.084,0 0.144,-0.06 0.144,-0.144l0,-3.42c0,-0.036 0.024,-0.06 0.06,-0.06l0.625,0c0.036,0 0.048,0.024 0.06,0.048l1.033,3.456c0.024,0.072 0.072,0.12 0.156,0.12Zm-1.874,-7.212l0.733,0c0.576,0 0.973,0.48 0.973,1.273c0,0.768 -0.397,1.237 -0.973,1.237l-0.733,0c-0.036,0 -0.06,-0.025 -0.06,-0.061l0,-2.389c0,-0.036 0.024,-0.06 0.06,-0.06Z" style="fill:white;fill-rule:nonzero;"/>
                <path d="M28.717,24.904l1.116,0c0.096,0 0.156,-0.048 0.132,-0.156l-1.776,-8.111c-0.012,-0.084 -0.072,-0.132 -0.156,-0.132l-1.284,0c-0.084,0 -0.144,0.049 -0.156,0.133l-1.764,8.11c-0.024,0.108 0.024,0.156 0.12,0.156l1.104,0c0.084,0 0.144,-0.036 0.156,-0.132l0.24,-1.272c0,-0.036 0.036,-0.048 0.072,-0.048l1.74,0c0.036,0 0.072,0.024 0.072,0.06l0.228,1.26c0.012,0.096 0.072,0.132 0.156,0.132Zm-2.028,-2.602l0.696,-3.626c0.012,-0.048 0.06,-0.048 0.072,0l0.66,3.625c0.012,0.048 -0.024,0.061 -0.06,0.061l-1.308,0c-0.036,0 -0.072,-0.012 -0.06,-0.06Z" style="fill:white;fill-rule:nonzero;"/>
                <path d="M32.838,25c1.308,0 2.231,-0.875 2.231,-2.255c0,-1.176 -0.659,-1.692 -1.883,-2.604c-0.888,-0.661 -1.213,-0.961 -1.213,-1.561c0,-0.624 0.349,-0.972 0.805,-0.972c0.504,0 0.853,0.408 0.853,1.032l0,0.312c0,0.084 0.06,0.144 0.144,0.144l1.09,0c0.084,0 0.144,-0.06 0.144,-0.144l0,-0.288c0,-1.356 -0.887,-2.255 -2.231,-2.255c-1.284,0 -2.171,0.839 -2.171,2.171c0,1.345 0.911,2.017 1.823,2.677c0.84,0.624 1.261,0.924 1.261,1.56c0,0.6 -0.361,0.985 -0.853,0.985c-0.48,0 -0.841,-0.409 -0.841,-1.045l0,-0.264c0,-0.084 -0.06,-0.144 -0.144,-0.144l-1.078,0c-0.084,0 -0.144,0.06 -0.144,0.144l0,0.336c0,1.284 0.887,2.171 2.207,2.171Z" style="fill:white;fill-rule:nonzero;"/>
                <path d="M38.538,16.494l-2.255,0c-0.084,0 -0.144,0.059 -0.144,0.143l0,8.123c0,0.084 0.06,0.144 0.144,0.144l1.102,0c0.084,0 0.144,-0.06 0.144,-0.144l0,-3.336c0,-0.036 0.024,-0.06 0.06,-0.06l1.021,0c1.236,0 2.075,-0.947 2.075,-2.399c0,-1.465 -0.863,-2.471 -2.147,-2.471Zm-0.228,3.779l-0.721,0c-0.036,0 -0.06,-0.024 -0.06,-0.06l0,-2.461c0,-0.036 0.024,-0.06 0.06,-0.06l0.721,0c0.588,0 0.985,0.492 0.985,1.309c0,0.792 -0.397,1.272 -0.985,1.272Z" style="fill:white;fill-rule:nonzero;"/>
            </g>
            <path d="M27.71,267.596l0.458,0c0.054,0 0.09,-0.036 0.09,-0.09l0,-5.004c0,-0.054 -0.036,-0.09 -0.09,-0.09l-0.458,0c-0.054,0 -0.09,0.036 -0.09,0.09l0,5.004c0,0.054 0.036,0.09 0.09,0.09Z" style="fill:white;fill-rule:nonzero;"/>
            <path d="M29.609,267.596l0.449,0c0.054,0 0.09,-0.036 0.09,-0.09l0,-3.753c0,-0.036 0.036,-0.045 0.045,-0.009l1.522,3.78c0.018,0.054 0.054,0.072 0.099,0.072l0.476,0c0.054,0 0.09,-0.036 0.09,-0.09l0,-5.004c0,-0.054 -0.036,-0.09 -0.09,-0.09l-0.449,0c-0.054,0 -0.09,0.036 -0.09,0.09l0,3.744c0,0.036 -0.036,0.045 -0.045,0.009l-1.531,-3.771c-0.018,-0.054 -0.054,-0.072 -0.099,-0.072l-0.467,0c-0.054,0 -0.09,0.036 -0.09,0.09l0,5.004c0,0.054 0.036,0.09 0.09,0.09Z" style="fill:white;fill-rule:nonzero;"/>
            <path d="M23.255,227.596l2.375,0c0.054,0 0.09,-0.036 0.09,-0.09l0,-0.377c0,-0.054 -0.036,-0.09 -0.09,-0.09l-1.791,0c-0.018,0 -0.036,-0.018 -0.036,-0.036l0,-4.509c0,-0.054 -0.036,-0.09 -0.09,-0.09l-0.458,0c-0.054,0 -0.09,0.036 -0.09,0.09l0,5.012c0,0.054 0.036,0.09 0.09,0.09Z" style="fill:white;fill-rule:nonzero;"/>
            <path d="M26.612,227.596l0.458,0c0.054,0 0.09,-0.036 0.09,-0.09l0,-5.004c0,-0.054 -0.036,-0.09 -0.09,-0.09l-0.458,0c-0.054,0 -0.09,0.036 -0.09,0.09l0,5.004c0,0.054 0.036,0.09 0.09,0.09Z" style="fill:white;fill-rule:nonzero;"/>
            <path d="M28.511,227.596l0.458,0c0.054,0 0.09,-0.036 0.09,-0.09l0,-4.058c0,-0.036 0.036,-0.036 0.045,-0.009l0.756,1.699c0.018,0.054 0.045,0.075 0.082,0.075c0.036,0 0.063,-0.021 0.081,-0.075l0.747,-1.699c0.009,-0.027 0.045,-0.027 0.045,0.009l0,4.058c0,0.054 0.036,0.09 0.09,0.09l0.458,0c0.054,0 0.09,-0.036 0.09,-0.09l0,-5.012c0,-0.054 -0.036,-0.09 -0.09,-0.09l-0.467,0c-0.045,0 -0.081,0.027 -0.099,0.072l-0.837,1.825c-0.009,0.027 -0.046,0.027 -0.055,0l-0.837,-1.825c-0.018,-0.045 -0.054,-0.072 -0.099,-0.072l-0.458,0c-0.054,0 -0.09,0.036 -0.09,0.09l0,5.012c0,0.054 0.036,0.09 0.09,0.09Z" style="fill:white;fill-rule:nonzero;"/>
            <path d="M32.804,227.596l0.458,0c0.054,0 0.09,-0.036 0.09,-0.09l0,-5.004c0,-0.054 -0.036,-0.09 -0.09,-0.09l-0.458,0c-0.054,0 -0.09,0.036 -0.09,0.09l0,5.004c0,0.054 0.036,0.09 0.09,0.09Z" style="fill:white;fill-rule:nonzero;"/>
            <path d="M37.087,222.404l-2.717,0c-0.054,0 -0.09,0.036 -0.09,0.09l0,0.386c0,0.054 0.036,0.09 0.09,0.09l0.972,0c0.018,0 0.036,0.018 0.036,0.036l0,4.5c0,0.054 0.036,0.09 0.09,0.09l0.458,0c0.054,0 0.09,-0.036 0.09,-0.09l0,-4.5c0,-0.018 0.018,-0.036 0.036,-0.036l1.035,0c0.054,0 0.09,-0.036 0.09,-0.09l0,-0.386c0,-0.054 -0.036,-0.09 -0.09,-0.09Z" style="fill:white;fill-rule:nonzero;"/>
            <path d="M22.251,187.659c0.837,0 1.394,-0.521 1.394,-1.412l0,-0.09c0,-0.054 -0.036,-0.09 -0.089,-0.09l-0.468,-0.027c-0.054,0 -0.089,0.036 -0.089,0.09l0,0.171c0,0.504 -0.298,0.801 -0.748,0.801c-0.45,0 -0.748,-0.297 -0.748,-0.801l0,-2.602c0,-0.504 0.298,-0.792 0.748,-0.792c0.45,0 0.748,0.288 0.748,0.792l0,0.18c0,0.054 0.035,0.09 0.089,0.09l0.468,-0.027c0.053,0 0.089,-0.036 0.089,-0.09l0,-0.099c0,-0.9 -0.557,-1.412 -1.394,-1.412c-0.828,0 -1.385,0.512 -1.385,1.412l0,2.494c0,0.891 0.557,1.412 1.385,1.412Z" style="fill:white;fill-rule:nonzero;"/>
            <path d="M24.834,187.596l2.375,0c0.054,0 0.09,-0.036 0.09,-0.09l0,-0.377c0,-0.054 -0.036,-0.09 -0.09,-0.09l-1.791,0c-0.018,0 -0.036,-0.018 -0.036,-0.036l0,-4.509c0,-0.054 -0.035,-0.09 -0.089,-0.09l-0.459,0c-0.054,0 -0.089,0.036 -0.089,0.09l0,5.012c0,0.054 0.035,0.09 0.089,0.09Z" style="fill:white;fill-rule:nonzero;"/>
            <path d="M30.742,187.596l0.476,0c0.063,0 0.09,-0.036 0.072,-0.099l-1.196,-5.012c-0.009,-0.045 -0.045,-0.081 -0.099,-0.081l-0.548,0c-0.054,0 -0.09,0.036 -0.099,0.081l-1.178,5.012c-0.018,0.054 0.009,0.099 0.072,0.099l0.458,0c0.054,0 0.09,-0.027 0.099,-0.081l0.189,-0.855c0,-0.018 0.027,-0.036 0.045,-0.036l1.385,0c0.018,0 0.045,0.018 0.045,0.036l0.18,0.855c0.009,0.054 0.045,0.081 0.099,0.081Zm-1.619,-1.529l0.594,-2.71c0.009,-0.036 0.027,-0.036 0.036,0l0.584,2.71c0.009,0.018 -0.009,0.036 -0.027,0.036l-1.16,0c-0.018,0 -0.036,-0.018 -0.027,-0.036Z" style="fill:white;fill-rule:nonzero;"/>
            <path d="M32.448,187.596l0.459,0c0.054,0 0.089,-0.036 0.089,-0.09l0,-4.058c0,-0.036 0.036,-0.036 0.045,-0.009l0.757,1.699c0.018,0.054 0.045,0.075 0.081,0.075c0.036,0 0.063,-0.021 0.081,-0.075l0.748,-1.699c0.009,-0.027 0.045,-0.027 0.045,0.009l0,4.058c0,0.054 0.035,0.09 0.089,0.09l0.459,0c0.054,0 0.089,-0.036 0.089,-0.09l0,-5.012c0,-0.054 -0.035,-0.09 -0.089,-0.09l-0.468,0c-0.045,0 -0.08,0.027 -0.098,0.072l-0.838,1.825c-0.009,0.027 -0.045,0.027 -0.054,0l-0.838,-1.825c-0.018,-0.045 -0.053,-0.072 -0.098,-0.072l-0.459,0c-0.054,0 -0.089,0.036 -0.089,0.09l0,5.012c0,0.054 0.035,0.09 0.089,0.09Z" style="fill:white;fill-rule:nonzero;"/>
            <path d="M37.974,182.395l-1.341,0c-0.054,0 -0.089,0.036 -0.089,0.09l0,5.021c0,0.054 0.035,0.09 0.089,0.09l0.459,0c0.054,0 0.089,-0.036 0.089,-0.09l0,-2.169c0,-0.018 0.018,-0.036 0.036,-0.036l0.784,0c0.774,0 1.295,-0.575 1.295,-1.43c0,-0.874 -0.53,-1.476 -1.322,-1.476Zm-0.09,2.403l-0.667,0c-0.018,0 -0.036,-0.018 -0.036,-0.036l0,-1.774c0,-0.018 0.018,-0.036 0.036,-0.036l0.667,0c0.459,0 0.775,0.36 0.775,0.928c0,0.558 -0.316,0.918 -0.775,0.918Z" style="fill:white;fill-rule:nonzero;"/>
            <path d="M23.179,347.596l2.375,0c0.054,0 0.09,-0.036 0.09,-0.09l0,-0.377c0,-0.054 -0.036,-0.09 -0.09,-0.09l-1.791,0c-0.018,0 -0.036,-0.018 -0.036,-0.036l0,-4.509c0,-0.054 -0.036,-0.09 -0.09,-0.09l-0.458,0c-0.054,0 -0.09,0.036 -0.09,0.09l0,5.012c0,0.054 0.036,0.09 0.09,0.09Z" style="fill:white;fill-rule:nonzero;"/>
            <path d="M26.536,347.596l0.458,0c0.054,0 0.09,-0.036 0.09,-0.09l0,-5.004c0,-0.054 -0.036,-0.09 -0.09,-0.09l-0.458,0c-0.054,0 -0.09,0.036 -0.09,0.09l0,5.004c0,0.054 0.036,0.09 0.09,0.09Z" style="fill:white;fill-rule:nonzero;"/>
            <path d="M28.435,347.596l0.458,0c0.054,0 0.09,-0.036 0.09,-0.09l0,-4.058c0,-0.036 0.036,-0.036 0.045,-0.009l0.757,1.699c0.018,0.054 0.045,0.075 0.081,0.075c0.036,0 0.063,-0.021 0.081,-0.075l0.747,-1.699c0.009,-0.027 0.045,-0.027 0.045,0.009l0,4.058c0,0.054 0.036,0.09 0.09,0.09l0.458,0c0.054,0 0.09,-0.036 0.09,-0.09l0,-5.012c0,-0.054 -0.036,-0.09 -0.09,-0.09l-0.467,0c-0.045,0 -0.081,0.027 -0.099,0.072l-0.837,1.825c-0.009,0.027 -0.045,0.027 -0.054,0l-0.838,-1.825c-0.018,-0.045 -0.054,-0.072 -0.099,-0.072l-0.458,0c-0.054,0 -0.09,0.036 -0.09,0.09l0,5.012c0,0.054 0.036,0.09 0.09,0.09Z" style="fill:white;fill-rule:nonzero;"/>
            <path d="M32.728,347.596l0.458,0c0.054,0 0.09,-0.036 0.09,-0.09l0,-5.004c0,-0.054 -0.036,-0.09 -0.09,-0.09l-0.458,0c-0.054,0 -0.09,0.036 -0.09,0.09l0,5.004c0,0.054 0.036,0.09 0.09,0.09Z" style="fill:white;fill-rule:nonzero;"/>
            <path d="M37.011,342.404l-2.717,0c-0.054,0 -0.09,0.036 -0.09,0.09l0,0.386c0,0.054 0.036,0.09 0.09,0.09l0.972,0c0.018,0 0.036,0.018 0.036,0.036l0,4.5c0,0.054 0.036,0.09 0.09,0.09l0.458,0c0.054,0 0.09,-0.036 0.09,-0.09l0,-4.5c0,-0.018 0.018,-0.036 0.036,-0.036l1.035,0c0.054,0 0.09,-0.036 0.09,-0.09l0,-0.386c0,-0.054 -0.036,-0.09 -0.09,-0.09Z" style="fill:white;fill-rule:nonzero;"/>
            <path d="M22.175,307.629c0.838,0 1.395,-0.52 1.395,-1.412l0,-0.09c0,-0.054 -0.036,-0.09 -0.09,-0.09l-0.467,-0.027c-0.054,0 -0.09,0.036 -0.09,0.09l0,0.171c0,0.505 -0.297,0.802 -0.748,0.802c-0.45,0 -0.747,-0.297 -0.747,-0.802l0,-2.601c0,-0.504 0.297,-0.793 0.747,-0.793c0.451,0 0.748,0.289 0.748,0.793l0,0.18c0,0.054 0.036,0.09 0.09,0.09l0.467,-0.027c0.054,0 0.09,-0.036 0.09,-0.09l0,-0.099c0,-0.9 -0.557,-1.412 -1.395,-1.412c-0.828,0 -1.385,0.512 -1.385,1.412l0,2.493c0,0.892 0.557,1.412 1.385,1.412Z" style="fill:white;fill-rule:nonzero;"/>
            <path d="M24.759,307.566l2.375,0c0.054,0 0.09,-0.035 0.09,-0.089l0,-0.378c0,-0.053 -0.036,-0.089 -0.09,-0.089l-1.791,0c-0.018,0 -0.036,-0.018 -0.036,-0.036l0,-4.509c0,-0.054 -0.036,-0.09 -0.09,-0.09l-0.458,0c-0.054,0 -0.09,0.036 -0.09,0.09l0,5.012c0,0.054 0.036,0.089 0.09,0.089Z" style="fill:white;fill-rule:nonzero;"/>
            <path d="M30.666,307.566l0.477,0c0.063,0 0.09,-0.036 0.072,-0.098l-1.196,-5.012c-0.009,-0.045 -0.045,-0.081 -0.099,-0.081l-0.549,0c-0.054,0 -0.09,0.036 -0.099,0.081l-1.178,5.012c-0.018,0.054 0.009,0.098 0.072,0.098l0.459,0c0.054,0 0.09,-0.027 0.099,-0.08l0.189,-0.856c0,-0.018 0.027,-0.036 0.045,-0.036l1.384,0c0.018,0 0.045,0.018 0.045,0.036l0.18,0.856c0.009,0.053 0.045,0.08 0.099,0.08Zm-1.619,-1.528l0.594,-2.711c0.009,-0.036 0.027,-0.036 0.036,0l0.584,2.711c0.009,0.018 -0.009,0.036 -0.027,0.036l-1.16,0c-0.018,0 -0.036,-0.018 -0.027,-0.036Z" style="fill:white;fill-rule:nonzero;"/>
            <path d="M32.373,307.566l0.458,0c0.054,0 0.09,-0.036 0.09,-0.09l0,-4.057c0,-0.036 0.036,-0.036 0.045,-0.009l0.756,1.699c0.018,0.054 0.045,0.074 0.081,0.074c0.036,0 0.063,-0.02 0.081,-0.074l0.748,-1.699c0.009,-0.027 0.045,-0.027 0.045,0.009l0,4.057c0,0.054 0.036,0.09 0.09,0.09l0.458,0c0.054,0 0.09,-0.036 0.09,-0.09l0,-5.011c0,-0.054 -0.036,-0.09 -0.09,-0.09l-0.467,0c-0.045,0 -0.081,0.027 -0.099,0.072l-0.838,1.825c-0.009,0.027 -0.045,0.027 -0.054,0l-0.837,-1.825c-0.018,-0.045 -0.054,-0.072 -0.099,-0.072l-0.458,0c-0.054,0 -0.09,0.036 -0.09,0.09l0,5.011c0,0.054 0.036,0.09 0.09,0.09Z" style="fill:white;fill-rule:nonzero;"/>
            <path d="M37.898,302.366l-1.34,0c-0.054,0 -0.09,0.036 -0.09,0.089l0,5.021c0,0.054 0.036,0.09 0.09,0.09l0.458,0c0.054,0 0.09,-0.036 0.09,-0.09l0,-2.169c0,-0.018 0.018,-0.036 0.036,-0.036l0.783,0c0.775,0 1.296,-0.574 1.296,-1.43c0,-0.874 -0.53,-1.475 -1.323,-1.475Zm-0.09,2.403l-0.666,0c-0.018,0 -0.036,-0.018 -0.036,-0.036l0,-1.775c0,-0.018 0.018,-0.036 0.036,-0.036l0.666,0c0.46,0 0.775,0.361 0.775,0.928c0,0.558 -0.315,0.919 -0.775,0.919Z" style="fill:white;fill-rule:nonzero;"/>
            <path d="M19.764,88.58c1.237,0 2.051,-0.815 2.051,-2.075l0,-0.192c0,-0.072 -0.048,-0.12 -0.12,-0.12l-0.622,-0.036c-0.072,0 -0.12,0.048 -0.12,0.12l0,0.3c0,0.744 -0.469,1.26 -1.189,1.26c-0.708,0 -1.189,-0.516 -1.189,-1.26l0,-4.585c0,-0.756 0.481,-1.26 1.189,-1.26c0.72,0 1.189,0.504 1.189,1.26l0,0.3c0,0.072 0.048,0.12 0.12,0.12l0.622,-0.036c0.072,0 0.12,-0.048 0.12,-0.12l0,-0.204c0,-1.26 -0.814,-2.063 -2.051,-2.063c-1.225,0 -2.039,0.803 -2.039,2.063l0,4.453c0,1.26 0.814,2.075 2.039,2.075Z" style="fill:white;fill-rule:nonzero;"/>
            <path d="M23.197,88.484l0.61,0c0.072,0 0.12,-0.048 0.12,-0.12l0,-8.159c0,-0.072 -0.048,-0.12 -0.12,-0.12l-0.61,0c-0.072,0 -0.12,0.048 -0.12,0.12l0,8.159c0,0.072 0.048,0.12 0.12,0.12Z" style="fill:white;fill-rule:nonzero;"/>
            <path d="M27.084,82.317c-0.997,0 -1.764,0.623 -1.848,1.584c-0.012,0.072 0.036,0.12 0.108,0.12l0.659,0.012c0.072,0 0.12,-0.036 0.132,-0.12c0.048,-0.505 0.445,-0.853 0.925,-0.853c0.624,0 1.009,0.528 1.009,1.321l0,0.468c0,0.024 -0.024,0.048 -0.048,0.048l-0.829,0c-1.189,0 -2.135,0.527 -2.135,1.968c0,1.427 0.946,1.715 1.631,1.715c0.54,0 1.008,-0.168 1.321,-0.575c0.036,-0.036 0.06,-0.024 0.06,0.012l0,0.347c0,0.072 0.048,0.12 0.12,0.12l0.61,0c0.072,0 0.12,-0.048 0.12,-0.12l0,-4.043c0,-1.213 -0.718,-2.004 -1.835,-2.004Zm-0.216,5.52c-0.528,0 -0.937,-0.312 -0.937,-1.044c0,-0.829 0.517,-1.213 1.249,-1.213l0.841,0c0.024,0 0.048,0.024 0.048,0.048l0,1.009c0,0.804 -0.601,1.2 -1.201,1.2Z" style="fill:white;fill-rule:nonzero;"/>
            <path d="M35.112,82.329c-0.516,0 -1.081,0.228 -1.381,0.839c-0.023,0.048 -0.059,0.048 -0.071,0.012c-0.24,-0.539 -0.695,-0.851 -1.308,-0.851c-0.432,0 -0.876,0.168 -1.201,0.587c-0.036,0.036 -0.06,0.024 -0.06,-0.012l0,-0.371c0,-0.072 -0.048,-0.12 -0.12,-0.12l-0.598,0c-0.072,0 -0.12,0.048 -0.12,0.12l0,5.831c0,0.072 0.048,0.12 0.12,0.12l0.598,0c0.072,0 0.12,-0.048 0.12,-0.12l0,-3.995c0,-0.805 0.385,-1.297 0.997,-1.297c0.54,0 0.925,0.492 0.925,1.32l0,3.972c0,0.072 0.048,0.12 0.12,0.12l0.61,0c0.072,0 0.12,-0.048 0.12,-0.12l0,-3.996c0,-0.804 0.385,-1.296 0.985,-1.296c0.552,0 0.937,0.492 0.937,1.32l0,3.972c0,0.072 0.048,0.12 0.12,0.12l0.598,0c0.072,0 0.12,-0.048 0.12,-0.12l0,-4.044c0,-1.236 -0.551,-1.991 -1.511,-1.991Z" style="fill:white;fill-rule:nonzero;"/>
            <path d="M41.807,84.152c-0.048,-1.068 -0.659,-1.835 -1.619,-1.835c-0.492,0 -0.913,0.204 -1.189,0.587c-0.036,0.036 -0.06,0.012 -0.06,-0.024l0,-0.347c0,-0.072 -0.048,-0.12 -0.119,-0.12l-0.611,0c-0.072,0 -0.12,0.048 -0.12,0.12l0,8.159c0,0.072 0.048,0.12 0.12,0.12l0.611,0c0.071,0 0.119,-0.048 0.119,-0.12l0,-2.664c0,-0.036 0.024,-0.06 0.06,-0.024c0.276,0.384 0.697,0.576 1.189,0.576c0.972,0 1.583,-0.744 1.619,-1.8c0.012,-0.444 0.012,-0.852 0.012,-1.295c0,-0.444 0,-0.888 -0.012,-1.332l0,-0.001Zm-1.871,3.684c-0.576,0 -0.997,-0.48 -0.997,-1.2l0,-2.375c0,-0.721 0.421,-1.201 0.997,-1.201c0.624,0 1.045,0.492 1.033,1.2l0,1.188c0,0.312 0.012,0.768 0,1.188c0.012,0.72 -0.421,1.2 -1.033,1.2Z" style="fill:white;fill-rule:nonzero;"/>
            <path d="M20.443,138.425l3.526,0c0.072,0 0.12,-0.048 0.12,-0.12l0,-0.503c0,-0.072 -0.048,-0.12 -0.12,-0.12l-2.748,0c-0.024,0 -0.048,-0.024 -0.048,-0.048l0,-7.488c0,-0.072 -0.048,-0.12 -0.12,-0.12l-0.61,0c-0.072,0 -0.12,0.048 -0.12,0.12l0,8.159c0,0.072 0.048,0.12 0.12,0.12Z" style="fill:white;fill-rule:nonzero;"/>
            <path d="M25.434,131.273c0.336,0 0.575,-0.264 0.575,-0.635c0,-0.348 -0.239,-0.612 -0.575,-0.612c-0.348,0 -0.599,0.264 -0.599,0.612c0,0.371 0.251,0.635 0.599,0.635Zm-0.311,7.152l0.61,0c0.072,0 0.12,-0.048 0.12,-0.12l0,-5.831c0,-0.072 -0.048,-0.12 -0.12,-0.12l-0.61,0c-0.072,0 -0.12,0.048 -0.12,0.12l0,5.831c0,0.072 0.048,0.12 0.12,0.12Z" style="fill:white;fill-rule:nonzero;"/>
            <path d="M32.226,132.27c-0.516,0 -1.081,0.228 -1.381,0.839c-0.023,0.048 -0.059,0.048 -0.071,0.012c-0.24,-0.539 -0.695,-0.851 -1.308,-0.851c-0.432,0 -0.876,0.168 -1.201,0.587c-0.036,0.036 -0.06,0.024 -0.06,-0.012l0,-0.371c0,-0.072 -0.048,-0.12 -0.12,-0.12l-0.598,0c-0.072,0 -0.12,0.048 -0.12,0.12l0,5.831c0,0.072 0.048,0.12 0.12,0.12l0.598,0c0.072,0 0.12,-0.048 0.12,-0.12l0,-3.995c0,-0.805 0.385,-1.297 0.997,-1.297c0.54,0 0.925,0.492 0.925,1.32l0,3.972c0,0.072 0.048,0.12 0.12,0.12l0.61,0c0.072,0 0.12,-0.048 0.12,-0.12l0,-3.996c0,-0.804 0.385,-1.296 0.985,-1.296c0.552,0 0.937,0.492 0.937,1.32l0,3.972c0,0.072 0.048,0.12 0.12,0.12l0.598,0c0.072,0 0.12,-0.048 0.12,-0.12l0,-4.044c0,-1.236 -0.551,-1.991 -1.511,-1.991Z" style="fill:white;fill-rule:nonzero;"/>
            <path d="M35.622,131.273c0.336,0 0.575,-0.264 0.575,-0.635c0,-0.348 -0.239,-0.612 -0.575,-0.612c-0.348,0 -0.599,0.264 -0.599,0.612c0,0.371 0.251,0.635 0.599,0.635Zm-0.311,7.152l0.61,0c0.072,0 0.12,-0.048 0.12,-0.12l0,-5.831c0,-0.072 -0.048,-0.12 -0.12,-0.12l-0.61,0c-0.072,0 -0.12,0.048 -0.12,0.12l0,5.831c0,0.072 0.048,0.12 0.12,0.12Z" style="fill:white;fill-rule:nonzero;"/>
            <path d="M39.689,132.869l0,-0.395c0,-0.072 -0.048,-0.12 -0.12,-0.12l-0.912,0c-0.024,0 -0.048,-0.024 -0.048,-0.048l0,-1.344c0,-0.072 -0.048,-0.12 -0.12,-0.12l-0.598,0c-0.072,0 -0.12,0.048 -0.12,0.12l0,1.344c0,0.024 -0.024,0.048 -0.048,0.048l-0.468,0c-0.072,0 -0.12,0.048 -0.12,0.12l0,0.395c0,0.072 0.048,0.12 0.12,0.12l0.468,0c0.024,0 0.048,0.024 0.048,0.048l0,3.925c0,1.211 0.587,1.463 1.438,1.463l0.3,0c0.072,0 0.12,-0.048 0.12,-0.12l0,-0.515c0,-0.072 -0.048,-0.12 -0.12,-0.12l-0.12,0c-0.504,0.012 -0.78,-0.192 -0.78,-0.96l0,-3.673c0,-0.024 0.024,-0.048 0.048,-0.048l0.912,0c0.072,0 0.12,-0.048 0.12,-0.12Z" style="fill:white;fill-rule:nonzero;"/>
        </g>
    </g>
</svg>
