<?xml version="1.0" encoding="UTF-8" standalone="no"?>
<!DOCTYPE svg PUBLIC "-//W3C//DTD SVG 1.1//EN" "http://www.w3.org/Graphics/SVG/1.1/DTD/svg11.dtd">
<svg width="90px" height="380px" version="1.1" xmlns="http://www.w3.org/2000/svg" xmlns:xlink="http://www.w3.org/1999/xlink" xml:space="preserve" xmlns:serif="http://www.serif.com/" style="fill-rule:evenodd;clip-rule:evenodd;stroke-miterlimit:1.5;">
    <rect id="ResEQ-Dark" serif:id="ResEQ Dark" x="0" y="0" width="90" height="380" style="fill:none;"/>
    <clipPath id="_clip1">
        <rect x="0" y="0" width="90" height="380"/>
    </clipPath>
    <g clip-path="url(#_clip1)">
        <g id="Background">
            <path id="bright" d="M90,379.995l0,-379.995l-90,0l0,379.995l90,0Z" style="fill:rgb(54,69,74);"/>
            <g id="knobMediumBgThree">
                <path d="M60.556,170.864c8.592,-8.58 8.592,-22.49 0,-31.07c-8.585,-8.574 -22.527,-8.574 -31.112,0c-8.592,8.58 -8.592,22.49 0,31.07l15.556,-15.535l15.556,15.535Z" style="fill:none;stroke:rgb(128,128,128);stroke-width:0.7px;"/>
            </g>
            <path d="M29.629,184.999l1.847,0c1.237,0 2.027,-0.862 2.027,-2.231l0,-3.936c0,-1.369 -0.79,-2.231 -2.027,-2.231l-1.847,0c-0.072,0 -0.12,0.048 -0.12,0.12l0,8.158c0,0.072 0.048,0.12 0.12,0.12Zm0.73,-0.79l0,-6.818c0,-0.024 0.024,-0.048 0.048,-0.048l1.057,0c0.732,0 1.177,0.588 1.177,1.525l0,3.864c-0.012,0.937 -0.469,1.513 -1.177,1.513l-1.057,0.012c-0.024,0 -0.048,-0.024 -0.048,-0.048Z" style="fill:white;fill-rule:nonzero;"/>
            <path d="M37.008,178.869c-0.576,0 -0.936,0.372 -1.14,0.912c-0.024,0.036 -0.06,0.036 -0.06,-0.012l0,-0.72c0,-0.072 -0.048,-0.12 -0.12,-0.12l-0.612,0c-0.072,0 -0.12,0.048 -0.12,0.12l0,5.83c0,0.072 0.048,0.12 0.12,0.12l0.612,0c0.072,0 0.12,-0.048 0.12,-0.12l0,-3.599c0,-0.815 0.408,-1.451 0.984,-1.487c0.192,-0.036 0.372,-0.012 0.504,0.048c0.084,0.024 0.144,0.012 0.156,-0.072l0.132,-0.612c0.012,-0.06 0,-0.12 -0.06,-0.156c-0.12,-0.072 -0.276,-0.132 -0.516,-0.132Z" style="fill:white;fill-rule:nonzero;"/>
            <path d="M38.43,187.399l0.06,0c1.187,0 1.511,-0.335 1.919,-1.87l1.667,-6.456c0.024,-0.072 -0.012,-0.132 -0.096,-0.132l-0.671,-0.012c-0.072,0 -0.12,0.036 -0.132,0.108l-1.044,4.716c-0.012,0.048 -0.036,0.048 -0.048,0l-1.055,-4.716c-0.012,-0.072 -0.06,-0.108 -0.132,-0.108l-0.648,0c-0.084,0 -0.132,0.048 -0.108,0.132l1.523,5.904c0,0.024 0.012,0.048 0,0.072c-0.252,1.344 -0.467,1.632 -1.187,1.632l-0.06,0c-0.036,0 -0.06,0.048 -0.06,0.12l0,0.49c0,0.072 0.036,0.12 0.072,0.12Z" style="fill:white;fill-rule:nonzero;"/>
            <path d="M42.558,184.999l0.6,0c0.072,0 0.12,-0.048 0.132,-0.108l2.172,-8.158c0.024,-0.084 -0.024,-0.132 -0.108,-0.132l-0.6,0c-0.072,0 -0.12,0.048 -0.132,0.108l-2.172,8.158c-0.024,0.084 0.024,0.132 0.108,0.132Z" style="fill:white;fill-rule:nonzero;"/>
            <path d="M47.832,184.999l0.576,0c0.072,0 0.108,-0.036 0.12,-0.108l0.984,-6.335c0,-0.036 0.036,-0.036 0.048,0l1.008,6.335c0.012,0.072 0.048,0.108 0.12,0.108l0.588,0c0.072,0 0.12,-0.036 0.132,-0.108l1.487,-8.158c0.012,-0.072 -0.024,-0.132 -0.108,-0.132l-0.636,0c-0.072,0 -0.108,0.036 -0.12,0.108l-1.031,6.31c-0.012,0.035 -0.036,0.035 -0.048,0l-1.02,-6.31c-0.012,-0.072 -0.048,-0.108 -0.12,-0.108l-0.552,0c-0.072,0 -0.108,0.036 -0.12,0.108l-0.972,6.31c-0.012,0.035 -0.036,0.035 -0.048,0l-1.127,-6.31c-0.012,-0.072 -0.06,-0.108 -0.132,-0.108l-0.636,0c-0.084,0 -0.12,0.06 -0.108,0.132l1.583,8.157c0.012,0.073 0.06,0.109 0.132,0.109Z" style="fill:white;fill-rule:nonzero;"/>
            <path d="M57.143,182.168l0,-1.5c0,-1.081 -0.718,-1.835 -1.883,-1.835c-1.141,0 -1.871,0.754 -1.871,1.835l0,2.592c0,1.105 0.73,1.835 1.871,1.835c1.057,0 1.716,-0.599 1.847,-1.535c0.012,-0.072 -0.036,-0.132 -0.107,-0.132l-0.599,-0.024c-0.072,0 -0.108,0.036 -0.132,0.108c-0.108,0.492 -0.481,0.841 -1.009,0.841c-0.6,0 -1.021,-0.469 -1.021,-1.141l0,-0.877c0,-0.024 0.024,-0.048 0.048,-0.048l2.736,0c0.072,0 0.12,-0.048 0.12,-0.119Zm-1.883,-2.593c0.624,0 1.045,0.469 1.045,1.153l0,0.805c0,0.024 -0.024,0.048 -0.048,0.048l-1.97,0c-0.024,0 -0.048,-0.024 -0.048,-0.048l0,-0.805c0,-0.684 0.421,-1.153 1.021,-1.153Z" style="fill:white;fill-rule:nonzero;"/>
            <path d="M60.491,179.444l0,-0.396c0,-0.071 -0.048,-0.119 -0.12,-0.119l-0.912,0c-0.024,0 -0.048,-0.024 -0.048,-0.048l0,-1.344c0,-0.072 -0.048,-0.12 -0.12,-0.12l-0.598,0c-0.072,0 -0.12,0.048 -0.12,0.12l0,1.344c0,0.024 -0.024,0.048 -0.048,0.048l-0.468,0c-0.072,0 -0.12,0.048 -0.12,0.119l0,0.396c0,0.071 0.048,0.119 0.12,0.119l0.468,0c0.024,0 0.048,0.024 0.048,0.048l0,3.926c0,1.211 0.587,1.462 1.438,1.462l0.3,0c0.072,0 0.12,-0.048 0.12,-0.12l0,-0.514c0,-0.072 -0.048,-0.12 -0.12,-0.12l-0.12,0c-0.504,0.012 -0.78,-0.192 -0.78,-0.961l0,-3.673c0,-0.024 0.024,-0.048 0.048,-0.048l0.912,0c0.072,0 0.12,-0.048 0.12,-0.119Z" style="fill:white;fill-rule:nonzero;"/>
            <circle cx="63.75" cy="325" r="14" style="fill:rgb(51,51,51);"/>
            <path d="M63.75,24.6l26.25,0" style="fill:none;stroke:rgb(128,128,128);stroke-width:0.7px;stroke-linecap:round;stroke-linejoin:round;"/>
            <path d="M0,24.6l26.25,0" style="fill:none;stroke:rgb(128,128,128);stroke-width:0.7px;stroke-linecap:round;stroke-linejoin:round;"/>
            <g id="knobBgMediumThree">
                <path d="M32.411,65c5.474,-5.466 5.474,-14.329 0,-19.795c-5.47,-5.463 -14.352,-5.463 -19.822,0c-5.474,5.466 -5.474,14.329 0,19.795l9.911,-9.898l9.911,9.898Z" style="fill:none;stroke:rgb(128,128,128);stroke-width:0.7px;"/>
            </g>
            <g id="knobBgMediumThree1" serif:id="knobBgMediumThree">
                <path d="M32.573,115.047c5.474,-5.466 5.474,-14.329 0,-19.795c-5.47,-5.463 -14.352,-5.463 -19.822,0c-5.474,5.466 -5.474,14.329 0,19.795l9.911,-9.898l9.911,9.898Z" style="fill:none;stroke:rgb(128,128,128);stroke-width:0.7px;"/>
            </g>
            <g id="knobBgMediumThree2" serif:id="knobBgMediumThree">
                <path d="M77.411,65c5.474,-5.466 5.474,-14.329 0,-19.795c-5.47,-5.463 -14.352,-5.463 -19.822,0c-5.474,5.466 -5.474,14.329 0,19.795l9.911,-9.898l9.911,9.898Z" style="fill:none;stroke:rgb(128,128,128);stroke-width:0.7px;"/>
            </g>
            <g id="knobBgMediumThree3" serif:id="knobBgMediumThree">
                <path d="M77.411,115c5.474,-5.466 5.474,-14.329 0,-19.795c-5.47,-5.463 -14.352,-5.463 -19.822,0c-5.474,5.466 -5.474,14.329 0,19.795l9.911,-9.898l9.911,9.898Z" style="fill:none;stroke:rgb(128,128,128);stroke-width:0.7px;"/>
            </g>
        </g>
        <g id="Lables">
            <g id="Branding">
                <path d="M27.355,362.45l0.545,0c0.049,0 0.07,-0.028 0.056,-0.077l-0.72,-2.163c-0.007,-0.021 0,-0.028 0.014,-0.042c0.419,-0.182 0.685,-0.637 0.685,-1.232c0,-0.826 -0.482,-1.393 -1.204,-1.393l-1.252,0c-0.042,0 -0.07,0.028 -0.07,0.07l0,4.767c0,0.042 0.028,0.07 0.07,0.07l0.531,0c0.042,0 0.07,-0.028 0.07,-0.07l0,-2.079c0,-0.014 0.014,-0.028 0.028,-0.028l0.483,0c0.014,0 0.021,0 0.028,0.021l0.652,2.1c0.014,0.035 0.049,0.056 0.084,0.056Zm-1.247,-4.326l0.518,0c0.379,0 0.638,0.315 0.638,0.819c0,0.49 -0.259,0.805 -0.638,0.805l-0.518,0c-0.014,0 -0.028,-0.014 -0.028,-0.028l0,-1.568c0,-0.014 0.014,-0.028 0.028,-0.028Z" style="fill:rgb(199,206,201);fill-rule:nonzero;"/>
                <path d="M31.043,362.45l0.546,0c0.049,0 0.07,-0.035 0.063,-0.077l-1.057,-4.76c-0.007,-0.042 -0.035,-0.063 -0.077,-0.063l-0.615,0c-0.042,0 -0.07,0.021 -0.077,0.063l-1.043,4.76c-0.007,0.042 0.014,0.077 0.063,0.077l0.532,0c0.042,0 0.07,-0.021 0.077,-0.063l0.161,-0.805c0,-0.014 0.021,-0.028 0.035,-0.028l1.126,0c0.014,0 0.035,0.014 0.035,0.028l0.154,0.805c0.007,0.042 0.035,0.063 0.077,0.063Zm-1.308,-1.456l0.475,-2.394c0.007,-0.028 0.021,-0.028 0.028,0l0.462,2.394c0,0.014 -0.007,0.028 -0.021,0.028l-0.923,0c-0.014,0 -0.021,-0.014 -0.021,-0.028Z" style="fill:rgb(199,206,201);fill-rule:nonzero;"/>
                <path d="M33.717,362.506c0.764,0 1.267,-0.497 1.267,-1.267l0,-0.105c0,-0.042 -0.028,-0.07 -0.07,-0.07l-0.531,-0.028c-0.042,0 -0.07,0.028 -0.07,0.07l0,0.182c0,0.378 -0.238,0.637 -0.596,0.637c-0.357,0 -0.588,-0.259 -0.588,-0.637l0,-2.576c0,-0.385 0.231,-0.637 0.588,-0.637c0.358,0 0.596,0.252 0.596,0.637l0,0.182c0,0.042 0.028,0.07 0.07,0.07l0.531,-0.028c0.042,0 0.07,-0.028 0.07,-0.07l0,-0.112c0,-0.77 -0.503,-1.26 -1.267,-1.26c-0.756,0 -1.259,0.49 -1.259,1.26l0,2.485c0,0.77 0.503,1.267 1.259,1.267Z" style="fill:rgb(199,206,201);fill-rule:nonzero;"/>
                <path d="M36.14,362.45l0.531,0c0.042,0 0.07,-0.028 0.07,-0.07l0,-1.575c0,-0.014 0,-0.028 0.007,-0.035l0.357,-0.567c0.014,-0.014 0.028,-0.014 0.035,0.007l0.91,2.184c0.014,0.042 0.042,0.056 0.077,0.056l0.581,0c0.049,0 0.077,-0.035 0.056,-0.084l-1.169,-2.744c-0.007,-0.014 -0.007,-0.028 0,-0.042l1.078,-1.946c0.028,-0.049 0.007,-0.084 -0.049,-0.084l-0.574,0c-0.035,0 -0.063,0.021 -0.084,0.049l-1.19,2.128c-0.014,0.028 -0.035,0.021 -0.035,-0.007l0,-2.1c0,-0.042 -0.028,-0.07 -0.07,-0.07l-0.531,0c-0.042,0 -0.07,0.028 -0.07,0.07l0,4.76c0,0.042 0.028,0.07 0.07,0.07Z" style="fill:rgb(199,206,201);fill-rule:nonzero;"/>
                <path d="M40.438,362.45l0.497,0c0.042,0 0.063,-0.014 0.07,-0.063l0.503,-3.311c0,-0.021 0.021,-0.021 0.028,0l0.532,3.311c0.007,0.042 0.028,0.063 0.07,0.063l0.497,0c0.042,0 0.07,-0.021 0.077,-0.063l0.882,-4.76c0.007,-0.042 -0.014,-0.077 -0.063,-0.077l-0.546,0c-0.042,0 -0.063,0.021 -0.07,0.063l-0.518,3.283c-0.007,0.021 -0.021,0.021 -0.028,0l-0.539,-3.283c-0.007,-0.042 -0.028,-0.063 -0.07,-0.063l-0.469,0c-0.042,0 -0.063,0.014 -0.07,0.063l-0.503,3.283c-0.007,0.021 -0.021,0.021 -0.028,0l-0.567,-3.283c-0.007,-0.042 -0.035,-0.063 -0.077,-0.063l-0.553,0c-0.049,0 -0.07,0.035 -0.063,0.077l0.931,4.76c0.007,0.042 0.035,0.063 0.077,0.063Z" style="fill:rgb(199,206,201);fill-rule:nonzero;"/>
                <path d="M44.624,362.45l0.531,0c0.042,0 0.07,-0.028 0.07,-0.07l0,-4.76c0,-0.042 -0.028,-0.07 -0.07,-0.07l-0.531,0c-0.042,0 -0.07,0.028 -0.07,0.07l0,4.76c0,0.042 0.028,0.07 0.07,0.07Z" style="fill:rgb(199,206,201);fill-rule:nonzero;"/>
                <path d="M46.52,362.45l0.525,0c0.042,0 0.07,-0.028 0.07,-0.07l-0.007,-3.073c0,-0.028 0.028,-0.028 0.035,0l1.246,3.087c0.014,0.042 0.042,0.056 0.077,0.056l0.546,0c0.042,0 0.07,-0.028 0.07,-0.07l0,-4.76c0,-0.042 -0.028,-0.07 -0.07,-0.07l-0.525,0c-0.042,0 -0.07,0.028 -0.07,0.07l0,3.066c0,0.028 -0.028,0.035 -0.035,0.007l-1.246,-3.087c-0.014,-0.042 -0.042,-0.056 -0.077,-0.056l-0.539,0c-0.042,0 -0.07,0.028 -0.07,0.07l0,4.76c0,0.042 0.028,0.07 0.07,0.07Z" style="fill:rgb(199,206,201);fill-rule:nonzero;"/>
                <path d="M50.371,362.45l1.147,0c0.771,0 1.267,-0.511 1.267,-1.323l0,-2.254c0,-0.812 -0.496,-1.323 -1.267,-1.323l-1.147,0c-0.042,0 -0.07,0.028 -0.07,0.07l0,4.76c0,0.042 0.028,0.07 0.07,0.07Zm0.601,-0.609l0,-3.682c0,-0.014 0.014,-0.028 0.028,-0.028l0.511,0c0.365,0 0.596,0.301 0.596,0.777l0,2.184c-0.007,0.476 -0.238,0.77 -0.596,0.77l-0.511,0.007c-0.014,0 -0.028,-0.014 -0.028,-0.028Z" style="fill:rgb(199,206,201);fill-rule:nonzero;"/>
                <path d="M55.109,362.506c0.771,0 1.288,-0.504 1.288,-1.281l0,-2.443c0,-0.777 -0.517,-1.288 -1.288,-1.288c-0.763,0 -1.273,0.511 -1.273,1.288l0,2.443c0,0.777 0.51,1.281 1.273,1.281Zm0,-0.581c-0.364,0 -0.602,-0.273 -0.602,-0.672l0,-2.506c0,-0.399 0.238,-0.672 0.602,-0.672c0.372,0 0.617,0.273 0.617,0.672l0,2.506c0,0.399 -0.245,0.672 -0.617,0.672Z" style="fill:rgb(199,206,201);fill-rule:nonzero;"/>
                <path d="M58.19,362.45l0.497,0c0.042,0 0.063,-0.014 0.07,-0.063l0.503,-3.311c0,-0.021 0.021,-0.021 0.028,0l0.532,3.311c0.007,0.042 0.028,0.063 0.07,0.063l0.497,0c0.042,0 0.07,-0.021 0.077,-0.063l0.882,-4.76c0.007,-0.042 -0.014,-0.077 -0.063,-0.077l-0.546,0c-0.042,0 -0.063,0.021 -0.07,0.063l-0.518,3.283c-0.007,0.021 -0.021,0.021 -0.028,0l-0.539,-3.283c-0.007,-0.042 -0.028,-0.063 -0.07,-0.063l-0.469,0c-0.042,0 -0.063,0.014 -0.07,0.063l-0.503,3.283c-0.007,0.021 -0.021,0.021 -0.028,0l-0.567,-3.283c-0.007,-0.042 -0.035,-0.063 -0.077,-0.063l-0.553,0c-0.049,0 -0.07,0.035 -0.063,0.077l0.931,4.76c0.007,0.042 0.035,0.063 0.077,0.063Z" style="fill:rgb(199,206,201);fill-rule:nonzero;"/>
                <path d="M63.341,362.506c0.729,0 1.246,-0.504 1.246,-1.295c0,-0.672 -0.371,-0.966 -1.084,-1.498c-0.54,-0.399 -0.743,-0.588 -0.743,-0.987c0,-0.42 0.231,-0.651 0.546,-0.651c0.344,0 0.582,0.28 0.582,0.7l0,0.189c0,0.042 0.028,0.07 0.07,0.07l0.517,0c0.042,0 0.07,-0.028 0.07,-0.07l0,-0.175c0,-0.777 -0.489,-1.295 -1.239,-1.295c-0.707,0 -1.21,0.469 -1.21,1.232c0,0.763 0.503,1.134 1.042,1.533c0.505,0.371 0.785,0.567 0.785,0.994c0,0.406 -0.252,0.672 -0.582,0.672c-0.336,0 -0.574,-0.273 -0.574,-0.707l0,-0.154c0,-0.042 -0.028,-0.07 -0.07,-0.07l-0.517,0c-0.042,0 -0.07,0.028 -0.07,0.07l0,0.189c0,0.749 0.496,1.253 1.231,1.253Z" style="fill:rgb(199,206,201);fill-rule:nonzero;"/>
                <path d="M34.045,24.895l1.15,0c0.096,0 0.156,-0.06 0.12,-0.168l-1.175,-3.612c-0.012,-0.036 0,-0.06 0.036,-0.072c0.684,-0.36 1.091,-1.115 1.091,-2.112c0,-1.452 -0.863,-2.447 -2.147,-2.447l-2.255,0c-0.084,0 -0.144,0.06 -0.144,0.144l0,8.123c0,0.084 0.06,0.144 0.144,0.144l1.102,0c0.084,0 0.144,-0.06 0.144,-0.144l0,-3.42c0,-0.036 0.024,-0.061 0.06,-0.061l0.625,0c0.036,0 0.048,0.025 0.06,0.049l1.033,3.456c0.024,0.072 0.072,0.12 0.156,0.12Zm-1.874,-7.213l0.733,0c0.576,0 0.973,0.481 0.973,1.273c0,0.769 -0.397,1.237 -0.973,1.237l-0.733,0c-0.036,0 -0.06,-0.024 -0.06,-0.06l0,-2.389c0,-0.036 0.024,-0.061 0.06,-0.061Z" style="fill:white;fill-rule:nonzero;"/>
                <path d="M40.559,17.551l0,-0.911c0,-0.084 -0.06,-0.144 -0.144,-0.144l-3.898,0c-0.084,0 -0.144,0.06 -0.144,0.144l0,8.111c0,0.084 0.06,0.143 0.144,0.143l3.898,0c0.084,0 0.144,-0.059 0.144,-0.143l0,-0.911c0,-0.084 -0.06,-0.144 -0.144,-0.144l-2.592,0c-0.036,0 -0.06,-0.024 -0.06,-0.06l0,-2.281c0,-0.036 0.024,-0.061 0.06,-0.061l1.536,0c0.084,0 0.144,-0.059 0.144,-0.143l0,-0.923c0,-0.084 -0.06,-0.144 -0.144,-0.144l-1.536,0c-0.036,0 -0.06,-0.024 -0.06,-0.06l0,-2.269c0,-0.036 0.024,-0.061 0.06,-0.061l2.592,0c0.084,0 0.144,-0.059 0.144,-0.143Z" style="fill:white;fill-rule:nonzero;"/>
                <path d="M43.752,24.99c1.308,0 2.231,-0.874 2.231,-2.254c0,-1.177 -0.659,-1.693 -1.883,-2.605c-0.888,-0.66 -1.213,-0.96 -1.213,-1.56c0,-0.624 0.349,-0.973 0.805,-0.973c0.504,0 0.853,0.409 0.853,1.033l0,0.312c0,0.084 0.06,0.144 0.144,0.144l1.09,0c0.084,0 0.144,-0.06 0.144,-0.144l0,-0.288c0,-1.356 -0.887,-2.255 -2.231,-2.255c-1.284,0 -2.171,0.839 -2.171,2.171c0,1.344 0.911,2.016 1.823,2.676c0.84,0.625 1.261,0.925 1.261,1.561c0,0.6 -0.361,0.984 -0.853,0.984c-0.48,0 -0.841,-0.408 -0.841,-1.044l0,-0.264c0,-0.084 -0.06,-0.144 -0.144,-0.144l-1.078,0c-0.084,0 -0.144,0.06 -0.144,0.144l0,0.336c0,1.284 0.887,2.17 2.207,2.17Z" style="fill:white;fill-rule:nonzero;"/>
                <path d="M53.819,17.551l0,-0.911c0,-0.084 -0.06,-0.144 -0.144,-0.144l-3.898,0c-0.084,0 -0.144,0.06 -0.144,0.144l0,8.111c0,0.084 0.06,0.143 0.144,0.143l3.898,0c0.084,0 0.144,-0.059 0.144,-0.143l0,-0.911c0,-0.084 -0.06,-0.144 -0.144,-0.144l-2.592,0c-0.036,0 -0.06,-0.024 -0.06,-0.06l0,-2.281c0,-0.036 0.024,-0.061 0.06,-0.061l1.536,0c0.084,0 0.144,-0.059 0.144,-0.143l0,-0.923c0,-0.084 -0.06,-0.144 -0.144,-0.144l-1.536,0c-0.036,0 -0.06,-0.024 -0.06,-0.06l0,-2.269c0,-0.036 0.024,-0.061 0.06,-0.061l2.592,0c0.084,0 0.144,-0.059 0.144,-0.143Z" style="fill:white;fill-rule:nonzero;"/>
                <path d="M57.048,16.4c-1.332,0 -2.219,0.947 -2.219,2.339l0,3.913c0,1.104 0.563,1.931 1.474,2.231c0.036,0.012 0.048,0.024 0.048,0.06l0.002,1.056c0,0.084 0.06,0.144 0.144,0.144l1.102,0c0.084,0 0.144,-0.06 0.144,-0.144l0,-1.056c0,-0.036 0.012,-0.048 0.049,-0.06c0.924,-0.288 1.487,-1.115 1.487,-2.231l0,-3.913c0,-1.392 -0.887,-2.339 -2.231,-2.339Zm0.841,6.396c0,0.588 -0.337,0.996 -0.841,0.996c-0.492,0 -0.829,-0.408 -0.829,-0.996l0,-4.201c0,-0.588 0.337,-0.996 0.829,-0.996c0.504,0 0.841,0.408 0.841,0.996l0,4.201Z" style="fill:white;fill-rule:nonzero;"/>
                <path d="M22.113,29.486l0.045,-0.377c0,-0.054 -0.027,-0.09 -0.081,-0.09l-2.573,0c-0.054,0 -0.09,0.036 -0.099,0.09l-0.747,6.119c-0.009,0.054 0.018,0.09 0.072,0.09l0.45,0c0.045,0 0.09,-0.036 0.099,-0.09l0.333,-2.745c0,-0.018 0.018,-0.036 0.036,-0.036l1.269,0c0.054,0 0.09,-0.036 0.099,-0.09l0.045,-0.386c0.009,-0.054 -0.018,-0.09 -0.072,-0.09l-1.269,0c-0.018,0 -0.036,-0.018 -0.027,-0.036l0.27,-2.233c0,-0.018 0.027,-0.036 0.045,-0.036l2.006,0c0.045,0 0.09,-0.036 0.099,-0.09Z" style="fill:rgb(199,206,201);fill-rule:nonzero;"/>
                <path d="M23.895,30.72c-0.414,0 -0.711,0.279 -0.918,0.684c-0.009,0.027 -0.036,0.027 -0.036,-0.009l0.072,-0.54c0,-0.054 -0.027,-0.09 -0.081,-0.09l-0.44,0c-0.054,0 -0.099,0.036 -0.099,0.09l-0.54,4.373c-0.009,0.054 0.027,0.09 0.072,0.09l0.45,0c0.054,0 0.09,-0.036 0.099,-0.09l0.333,-2.699c0.072,-0.612 0.431,-1.089 0.845,-1.116c0.153,-0.027 0.279,-0.009 0.369,0.036c0.054,0.018 0.099,0.009 0.117,-0.054l0.153,-0.459c0.018,-0.045 0.009,-0.09 -0.027,-0.117c-0.09,-0.054 -0.198,-0.099 -0.369,-0.099Z" style="fill:rgb(199,206,201);fill-rule:nonzero;"/>
                <path d="M27.261,33.194l0.135,-1.125c0.099,-0.81 -0.35,-1.376 -1.196,-1.376c-0.838,0 -1.44,0.566 -1.539,1.376l-0.234,1.944c-0.099,0.829 0.36,1.377 1.187,1.377c0.775,0 1.315,-0.449 1.486,-1.151c0.018,-0.054 -0.009,-0.1 -0.063,-0.1l-0.432,-0.018c-0.054,0 -0.081,0.027 -0.108,0.082c-0.126,0.369 -0.423,0.63 -0.81,0.63c-0.433,0 -0.703,-0.351 -0.64,-0.856l0.081,-0.657c0,-0.018 0.027,-0.036 0.045,-0.036l1.99,0c0.053,0 0.089,-0.036 0.098,-0.09Zm-1.133,-1.944c0.45,0 0.72,0.351 0.657,0.865l-0.081,0.603c0,0.018 -0.018,0.036 -0.036,0.036l-1.432,0c-0.018,0 -0.036,-0.018 -0.036,-0.036l0.081,-0.603c0.063,-0.514 0.406,-0.865 0.847,-0.865Z" style="fill:rgb(199,206,201);fill-rule:nonzero;"/>
                <path d="M30.474,30.855l-0.036,0.261c0,0.027 -0.018,0.045 -0.045,0.018c-0.162,-0.288 -0.45,-0.441 -0.81,-0.441c-0.693,0 -1.214,0.575 -1.349,1.376c-0.045,0.333 -0.09,0.666 -0.126,1c-0.045,0.333 -0.081,0.639 -0.117,0.972c-0.063,0.791 0.306,1.349 1.016,1.349c0.36,0 0.684,-0.144 0.918,-0.432c0.027,-0.027 0.045,-0.009 0.045,0.018l-0.252,1.998c0,0.054 0.027,0.09 0.081,0.09l0.441,0c0.054,0 0.09,-0.036 0.099,-0.09l0.756,-6.119c0,-0.054 -0.027,-0.09 -0.081,-0.09l-0.441,0c-0.054,0 -0.09,0.036 -0.099,0.09Zm-1.215,3.977c-0.441,0 -0.711,-0.36 -0.639,-0.899c0.027,-0.315 0.081,-0.657 0.108,-0.891l0.108,-0.892c0.054,-0.531 0.405,-0.9 0.864,-0.9c0.414,0 0.675,0.36 0.612,0.9l-0.216,1.783c-0.072,0.539 -0.414,0.899 -0.837,0.899Z" style="fill:rgb(199,206,201);fill-rule:nonzero;"/>
                <path d="M34.218,30.855l-0.369,2.997c-0.072,0.603 -0.396,0.972 -0.864,0.972c-0.441,0 -0.657,-0.297 -0.585,-0.909l0.378,-3.06c0,-0.054 -0.027,-0.09 -0.081,-0.09l-0.441,0c-0.054,0 -0.089,0.036 -0.098,0.09l-0.396,3.204c-0.108,0.918 0.315,1.322 0.98,1.322c0.378,0 0.702,-0.135 0.936,-0.467c0.018,-0.027 0.045,-0.027 0.036,0.009l-0.036,0.305c-0.009,0.054 0.027,0.09 0.081,0.09l0.441,0c0.054,0 0.09,-0.036 0.099,-0.09l0.54,-4.373c0,-0.054 -0.027,-0.09 -0.081,-0.09l-0.441,0c-0.054,0 -0.099,0.036 -0.099,0.09Z" style="fill:rgb(199,206,201);fill-rule:nonzero;"/>
                <path d="M38.25,33.194l0.135,-1.125c0.099,-0.81 -0.35,-1.376 -1.196,-1.376c-0.838,0 -1.44,0.566 -1.539,1.376l-0.234,1.944c-0.099,0.829 0.36,1.377 1.187,1.377c0.775,0 1.315,-0.449 1.486,-1.151c0.018,-0.054 -0.009,-0.1 -0.063,-0.1l-0.432,-0.018c-0.054,0 -0.081,0.027 -0.108,0.082c-0.126,0.369 -0.423,0.63 -0.81,0.63c-0.433,0 -0.703,-0.351 -0.64,-0.856l0.081,-0.657c0,-0.018 0.027,-0.036 0.045,-0.036l1.99,0c0.053,0 0.089,-0.036 0.098,-0.09Zm-1.133,-1.944c0.45,0 0.72,0.351 0.657,0.865l-0.081,0.603c0,0.018 -0.018,0.036 -0.036,0.036l-1.432,0c-0.018,0 -0.036,-0.018 -0.036,-0.036l0.081,-0.603c0.063,-0.514 0.406,-0.865 0.847,-0.865Z" style="fill:rgb(199,206,201);fill-rule:nonzero;"/>
                <path d="M41.041,30.702c-0.351,0 -0.702,0.135 -0.954,0.458c-0.027,0.027 -0.054,0.018 -0.054,-0.009l0.045,-0.296c0,-0.054 -0.027,-0.09 -0.081,-0.09l-0.441,0c-0.054,0 -0.099,0.036 -0.099,0.09l-0.54,4.373c-0.009,0.054 0.027,0.09 0.072,0.09l0.45,0c0.054,0 0.09,-0.036 0.099,-0.09l0.369,-2.997c0.072,-0.603 0.405,-0.972 0.864,-0.972c0.45,0 0.657,0.342 0.585,0.927l-0.369,3.042c-0.009,0.054 0.027,0.09 0.072,0.09l0.45,0c0.053,0 0.089,-0.036 0.098,-0.09l0.376,-3.096c0.108,-0.9 -0.224,-1.43 -0.942,-1.43Z" style="fill:rgb(199,206,201);fill-rule:nonzero;"/>
                <path d="M43.858,35.39c0.847,0 1.452,-0.548 1.542,-1.25l0.009,-0.099c0.009,-0.054 -0.027,-0.09 -0.072,-0.09l-0.452,-0.009c-0.054,0 -0.09,0.036 -0.099,0.09l0,0.063c-0.054,0.387 -0.405,0.738 -0.856,0.738c-0.433,0 -0.703,-0.351 -0.64,-0.864l0.234,-1.855c0.063,-0.513 0.406,-0.864 0.847,-0.864c0.45,0 0.72,0.351 0.666,0.738l-0.009,0.072c0,0.045 0.027,0.081 0.081,0.081l0.449,-0.018c0.045,0 0.09,-0.036 0.09,-0.09l0.018,-0.09c0.081,-0.675 -0.386,-1.25 -1.223,-1.25c-0.838,0 -1.44,0.575 -1.539,1.376l-0.234,1.945c-0.099,0.828 0.36,1.376 1.188,1.376Z" style="fill:rgb(199,206,201);fill-rule:nonzero;"/>
                <path d="M45.668,37.118l0.045,0c0.864,0 1.125,-0.252 1.566,-1.403l1.809,-4.842c0.018,-0.054 0,-0.099 -0.063,-0.099l-0.486,-0.009c-0.054,0 -0.09,0.027 -0.108,0.081l-1.188,3.537c-0.018,0.036 -0.036,0.036 -0.036,0l-0.333,-3.537c0,-0.054 -0.036,-0.081 -0.09,-0.081l-0.468,0c-0.063,0 -0.099,0.036 -0.09,0.099l0.567,4.428c-0.009,0.018 0,0.036 -0.009,0.054c-0.315,1.008 -0.495,1.224 -1.017,1.224l-0.045,0c-0.027,0 -0.045,0.036 -0.054,0.09l-0.045,0.368c-0.009,0.054 0.018,0.09 0.045,0.09Z" style="fill:rgb(199,206,201);fill-rule:nonzero;"/>
                <path d="M54.279,33.608c0.09,-0.756 -0.153,-1.251 -0.584,-1.53c-0.018,-0.009 -0.018,-0.027 0.009,-0.036c0.513,-0.242 0.818,-0.701 0.899,-1.377c0.126,-1.071 -0.422,-1.646 -1.403,-1.646l-1.26,0c-0.054,0 -0.09,0.036 -0.099,0.09l-0.747,6.119c-0.009,0.054 0.018,0.09 0.072,0.09l1.341,0c0.936,0 1.637,-0.611 1.772,-1.71Zm-1.835,-4.032l0.684,0c0.63,0 0.945,0.423 0.855,1.143c-0.081,0.694 -0.504,1.099 -1.125,1.099l-0.693,0c-0.018,0 -0.036,-0.018 -0.027,-0.036l0.261,-2.17c0,-0.018 0.027,-0.036 0.045,-0.036Zm0.081,5.176l-0.72,0c-0.018,0 -0.036,-0.018 -0.027,-0.036l0.288,-2.377c0,-0.018 0.018,-0.036 0.036,-0.036l0.729,0c0.621,0 0.927,0.459 0.837,1.233c-0.099,0.775 -0.522,1.216 -1.143,1.216Z" style="fill:rgb(199,206,201);fill-rule:nonzero;"/>
                <path d="M57.807,33.194l0.135,-1.125c0.099,-0.81 -0.35,-1.376 -1.196,-1.376c-0.838,0 -1.44,0.566 -1.539,1.376l-0.234,1.944c-0.099,0.829 0.36,1.377 1.187,1.377c0.775,0 1.315,-0.449 1.486,-1.151c0.018,-0.054 -0.009,-0.1 -0.063,-0.1l-0.432,-0.018c-0.054,0 -0.081,0.027 -0.108,0.082c-0.126,0.369 -0.423,0.63 -0.81,0.63c-0.433,0 -0.703,-0.351 -0.64,-0.856l0.081,-0.657c0,-0.018 0.027,-0.036 0.045,-0.036l1.99,0c0.053,0 0.089,-0.036 0.098,-0.09Zm-1.133,-1.944c0.45,0 0.72,0.351 0.657,0.865l-0.081,0.603c0,0.018 -0.018,0.036 -0.036,0.036l-1.432,0c-0.018,0 -0.036,-0.018 -0.036,-0.036l0.081,-0.603c0.063,-0.514 0.406,-0.865 0.847,-0.865Z" style="fill:rgb(199,206,201);fill-rule:nonzero;"/>
                <path d="M61.02,30.855l-0.036,0.252c0,0.027 -0.018,0.045 -0.045,0.018c-0.161,-0.288 -0.449,-0.432 -0.809,-0.432c-0.703,0 -1.224,0.557 -1.341,1.349c-0.054,0.333 -0.09,0.639 -0.126,0.973c-0.045,0.333 -0.09,0.666 -0.117,0.999c-0.063,0.8 0.306,1.376 1.007,1.376c0.361,0 0.685,-0.153 0.919,-0.441c0.027,-0.027 0.045,-0.009 0.045,0.018l-0.036,0.261c-0.009,0.054 0.027,0.09 0.081,0.09l0.44,0c0.054,0 0.09,-0.036 0.099,-0.09l0.54,-4.373c0,-0.054 -0.027,-0.09 -0.081,-0.09l-0.441,0c-0.054,0 -0.09,0.036 -0.099,0.09Zm-1.214,3.977c-0.451,0 -0.712,-0.369 -0.64,-0.899l0.108,-0.891c0.027,-0.234 0.063,-0.577 0.108,-0.892c0.063,-0.54 0.415,-0.9 0.865,-0.9c0.414,0 0.674,0.36 0.611,0.9l-0.215,1.783c-0.072,0.539 -0.414,0.899 -0.837,0.899Z" style="fill:rgb(199,206,201);fill-rule:nonzero;"/>
                <path d="M66.26,30.702c-0.378,0 -0.81,0.171 -1.089,0.629c-0.018,0.036 -0.045,0.036 -0.045,0.009c-0.126,-0.404 -0.432,-0.638 -0.873,-0.638c-0.315,0 -0.657,0.126 -0.936,0.44c-0.027,0.027 -0.045,0.018 -0.036,-0.009l0.036,-0.278c0,-0.054 -0.027,-0.09 -0.081,-0.09l-0.432,0c-0.054,0 -0.099,0.036 -0.099,0.09l-0.54,4.373c-0.009,0.054 0.027,0.09 0.072,0.09l0.441,0c0.054,0 0.09,-0.036 0.099,-0.09l0.369,-2.997c0.072,-0.603 0.396,-0.972 0.846,-0.972c0.387,0 0.621,0.369 0.549,0.99l-0.369,2.979c-0.009,0.054 0.027,0.09 0.081,0.09l0.441,0c0.054,0 0.09,-0.036 0.099,-0.09l0.369,-2.997c0.072,-0.603 0.396,-0.972 0.837,-0.972c0.396,0 0.63,0.369 0.558,0.99l-0.369,2.979c-0.009,0.054 0.027,0.09 0.081,0.09l0.432,0c0.055,0 0.091,-0.036 0.1,-0.09l0.369,-3.033c0.117,-0.927 -0.216,-1.493 -0.91,-1.493Z" style="fill:rgb(199,206,201);fill-rule:nonzero;"/>
                <path d="M68.95,35.363c0.81,0 1.385,-0.476 1.475,-1.223c0.108,-0.846 -0.521,-1.135 -0.998,-1.36c-0.433,-0.198 -0.811,-0.369 -0.757,-0.837c0.054,-0.387 0.351,-0.702 0.775,-0.702c0.432,0 0.675,0.306 0.621,0.702l-0.009,0.072c0,0.045 0.027,0.072 0.081,0.072l0.404,0c0.054,0 0.09,-0.036 0.099,-0.09l0,-0.027c0.09,-0.747 -0.333,-1.25 -1.133,-1.25c-0.775,0 -1.332,0.467 -1.431,1.241c-0.108,0.855 0.485,1.125 0.944,1.333c0.424,0.198 0.847,0.369 0.784,0.873c-0.045,0.405 -0.36,0.702 -0.784,0.702c-0.45,0 -0.702,-0.306 -0.657,-0.684l0.009,-0.072c0,-0.045 -0.027,-0.072 -0.081,-0.072l-0.413,0c-0.054,0 -0.099,0.036 -0.099,0.09l-0.009,0.063c-0.09,0.702 0.369,1.169 1.179,1.169Z" style="fill:rgb(199,206,201);fill-rule:nonzero;"/>
            </g>
            <path d="M23.177,307.591l0.467,0c0.063,0 0.09,-0.036 0.072,-0.099l-0.836,-2.276c-0.009,-0.027 0,-0.036 0.027,-0.045c0.494,-0.189 0.791,-0.675 0.791,-1.314c0,-0.865 -0.539,-1.466 -1.322,-1.466l-1.341,0c-0.054,0 -0.09,0.035 -0.09,0.089l0,5.021c0,0.054 0.036,0.09 0.09,0.09l0.458,0c0.054,0 0.09,-0.036 0.09,-0.09l0,-2.205c0,-0.018 0.018,-0.036 0.036,-0.036l0.63,0c0.018,0 0.027,0 0.036,0.027l0.784,2.232c0.018,0.054 0.063,0.072 0.108,0.072Zm-1.558,-4.644l0.666,0c0.46,0 0.775,0.361 0.775,0.91c0,0.549 -0.315,0.892 -0.775,0.892l-0.666,0c-0.018,0 -0.036,-0.018 -0.036,-0.036l0,-1.73c0,-0.018 0.018,-0.036 0.036,-0.036Z" style="fill:white;fill-rule:nonzero;"/>
            <path d="M26.75,307.591l0.458,0c0.054,0 0.09,-0.036 0.09,-0.09l0,-5.004c0,-0.054 -0.036,-0.09 -0.09,-0.09l-0.458,0c-0.054,0 -0.09,0.036 -0.09,0.09l0,5.004c0,0.054 0.036,0.09 0.09,0.09Z" style="fill:white;fill-rule:nonzero;"/>
            <path d="M28.649,307.591l0.458,0c0.054,0 0.09,-0.036 0.09,-0.09l0,-5.004c0,-0.054 -0.036,-0.09 -0.09,-0.09l-0.458,0c-0.054,0 -0.09,0.036 -0.09,0.09l0,5.004c0,0.054 0.036,0.09 0.09,0.09Z" style="fill:white;fill-rule:nonzero;"/>
            <path d="M30.548,307.591l0.458,0c0.054,0 0.09,-0.036 0.09,-0.09l0,-5.004c0,-0.054 -0.036,-0.09 -0.09,-0.09l-0.458,0c-0.054,0 -0.09,0.036 -0.09,0.09l0,5.004c0,0.054 0.036,0.09 0.09,0.09Z" style="fill:white;fill-rule:nonzero;"/>
            <path d="M25.341,267.596l0.468,0c0.062,0 0.089,-0.036 0.071,-0.099l-0.836,-2.277c-0.009,-0.027 0,-0.036 0.027,-0.045c0.495,-0.188 0.791,-0.674 0.791,-1.313c0,-0.865 -0.539,-1.467 -1.322,-1.467l-1.341,0c-0.054,0 -0.089,0.036 -0.089,0.09l0,5.021c0,0.054 0.035,0.09 0.089,0.09l0.459,0c0.054,0 0.089,-0.036 0.089,-0.09l0,-2.205c0,-0.018 0.018,-0.036 0.036,-0.036l0.631,0c0.018,0 0.027,0 0.036,0.027l0.784,2.232c0.018,0.054 0.062,0.072 0.107,0.072Zm-1.558,-4.644l0.667,0c0.459,0 0.775,0.36 0.775,0.91c0,0.549 -0.316,0.891 -0.775,0.891l-0.667,0c-0.018,0 -0.036,-0.018 -0.036,-0.036l0,-1.729c0,-0.018 0.018,-0.036 0.036,-0.036Z" style="fill:white;fill-rule:nonzero;"/>
            <path d="M28.914,267.596l0.459,0c0.054,0 0.089,-0.036 0.089,-0.09l0,-5.004c0,-0.054 -0.035,-0.09 -0.089,-0.09l-0.459,0c-0.054,0 -0.089,0.036 -0.089,0.09l0,5.004c0,0.054 0.035,0.09 0.089,0.09Z" style="fill:white;fill-rule:nonzero;"/>
            <path d="M23.789,347.596l0.458,0c0.054,0 0.09,-0.036 0.09,-0.09l0,-5.004c0,-0.054 -0.036,-0.09 -0.09,-0.09l-0.458,0c-0.054,0 -0.09,0.036 -0.09,0.09l0,5.004c0,0.054 0.036,0.09 0.09,0.09Z" style="fill:white;fill-rule:nonzero;"/>
            <path d="M25.688,347.596l0.449,0c0.054,0 0.09,-0.036 0.09,-0.09l0,-3.753c0,-0.036 0.036,-0.045 0.045,-0.009l1.522,3.78c0.018,0.054 0.054,0.072 0.099,0.072l0.476,0c0.054,0 0.09,-0.036 0.09,-0.09l0,-5.004c0,-0.054 -0.036,-0.09 -0.09,-0.09l-0.449,0c-0.054,0 -0.09,0.036 -0.09,0.09l0,3.744c0,0.036 -0.036,0.045 -0.045,0.009l-1.531,-3.771c-0.018,-0.054 -0.054,-0.072 -0.099,-0.072l-0.467,0c-0.054,0 -0.09,0.036 -0.09,0.09l0,5.004c0,0.054 0.036,0.09 0.09,0.09Z" style="fill:white;fill-rule:nonzero;"/>
            <path d="M60.787,307.6l0.467,0c0.063,0 0.09,-0.036 0.072,-0.099l-0.836,-2.276c-0.009,-0.027 0,-0.036 0.027,-0.045c0.494,-0.189 0.791,-0.675 0.791,-1.314c0,-0.865 -0.539,-1.466 -1.323,-1.466l-1.34,0c-0.054,0 -0.09,0.035 -0.09,0.089l0,5.021c0,0.054 0.036,0.09 0.09,0.09l0.458,0c0.054,0 0.09,-0.036 0.09,-0.09l0,-2.205c0,-0.018 0.018,-0.036 0.036,-0.036l0.63,0c0.018,0 0.027,0 0.036,0.027l0.784,2.232c0.018,0.054 0.063,0.072 0.108,0.072Zm-1.558,-4.644l0.666,0c0.46,0 0.775,0.361 0.775,0.91c0,0.549 -0.315,0.892 -0.775,0.892l-0.666,0c-0.018,0 -0.036,-0.018 -0.036,-0.036l0,-1.73c0,-0.018 0.018,-0.036 0.036,-0.036Z" style="fill:white;fill-rule:nonzero;"/>
            <path d="M64.36,307.6l0.458,0c0.054,0 0.09,-0.036 0.09,-0.09l0,-5.004c0,-0.054 -0.036,-0.09 -0.09,-0.09l-0.458,0c-0.054,0 -0.09,0.036 -0.09,0.09l0,5.004c0,0.054 0.036,0.09 0.09,0.09Z" style="fill:white;fill-rule:nonzero;"/>
            <path d="M67.163,307.6l0.477,0c0.054,0 0.09,-0.036 0.099,-0.081l1.16,-5.013c0.018,-0.054 -0.009,-0.099 -0.072,-0.099l-0.486,0c-0.054,0 -0.09,0.027 -0.099,0.081l-0.8,3.989c-0.009,0.036 -0.027,0.036 -0.036,0l-0.827,-3.987c-0.009,-0.054 -0.045,-0.081 -0.099,-0.081l-0.504,0c-0.063,0 -0.09,0.045 -0.072,0.099l1.16,5.012c0.009,0.044 0.045,0.08 0.099,0.08Z" style="fill:white;fill-rule:nonzero;"/>
            <path d="M61.739,267.596l0.467,0c0.063,0 0.09,-0.036 0.072,-0.099l-0.836,-2.277c-0.009,-0.027 0,-0.036 0.027,-0.045c0.494,-0.188 0.791,-0.674 0.791,-1.313c0,-0.865 -0.539,-1.467 -1.322,-1.467l-1.341,0c-0.054,0 -0.09,0.036 -0.09,0.09l0,5.021c0,0.054 0.036,0.09 0.09,0.09l0.458,0c0.054,0 0.09,-0.036 0.09,-0.09l0,-2.205c0,-0.018 0.018,-0.036 0.036,-0.036l0.63,0c0.018,0 0.027,0 0.036,0.027l0.784,2.232c0.018,0.054 0.063,0.072 0.108,0.072Zm-1.558,-4.644l0.666,0c0.46,0 0.775,0.36 0.775,0.91c0,0.549 -0.315,0.891 -0.775,0.891l-0.666,0c-0.018,0 -0.036,-0.018 -0.036,-0.036l0,-1.729c0,-0.018 0.018,-0.036 0.036,-0.036Z" style="fill:white;fill-rule:nonzero;"/>
            <path d="M65.312,267.596l0.458,0c0.054,0 0.09,-0.036 0.09,-0.09l0,-5.004c0,-0.054 -0.036,-0.09 -0.09,-0.09l-0.458,0c-0.054,0 -0.09,0.036 -0.09,0.09l0,5.004c0,0.054 0.036,0.09 0.09,0.09Z" style="fill:white;fill-rule:nonzero;"/>
            <path d="M67.211,267.596l0.458,0c0.054,0 0.09,-0.036 0.09,-0.09l0,-5.004c0,-0.054 -0.036,-0.09 -0.09,-0.09l-0.458,0c-0.054,0 -0.09,0.036 -0.09,0.09l0,5.004c0,0.054 0.036,0.09 0.09,0.09Z" style="fill:white;fill-rule:nonzero;"/>
            <path d="M39.564,228.149l1.241,0c0.838,0 1.377,-0.547 1.377,-1.385l0,-2.412c0,-0.847 -0.539,-1.394 -1.377,-1.394l-1.241,0c-0.054,0 -0.09,0.035 -0.09,0.089l0,5.013c0,0.054 0.036,0.089 0.09,0.089Zm0.548,-0.592l0,-3.998c0,-0.018 0.018,-0.036 0.036,-0.036l0.648,0c0.46,0 0.748,0.334 0.748,0.856l0,2.34c-0.009,0.531 -0.298,0.865 -0.748,0.865l-0.648,0.009c-0.018,0 -0.036,-0.018 -0.036,-0.036Z" style="fill:white;fill-rule:nonzero;"/>
            <path d="M43.114,228.149l0.45,0c0.054,0 0.09,-0.036 0.099,-0.081l1.629,-6.118c0.018,-0.063 -0.018,-0.099 -0.081,-0.099l-0.45,0c-0.054,0 -0.09,0.036 -0.099,0.081l-1.629,6.118c-0.018,0.063 0.018,0.099 0.081,0.099Z" style="fill:white;fill-rule:nonzero;"/>
            <path d="M47.123,228.149l0.414,0c0.054,0 0.081,-0.027 0.09,-0.081l0.621,-3.805c0.009,-0.027 0.027,-0.027 0.036,0l0.63,3.805c0.009,0.054 0.036,0.081 0.09,0.081l0.432,0c0.054,0 0.09,-0.027 0.099,-0.081l0.99,-5.011c0.009,-0.054 -0.018,-0.099 -0.081,-0.099l-0.477,0c-0.054,0 -0.09,0.027 -0.099,0.081l-0.639,3.842c-0.009,0.027 -0.027,0.027 -0.036,0l-0.639,-3.842c-0.009,-0.054 -0.045,-0.081 -0.099,-0.081l-0.378,0c-0.054,0 -0.081,0.027 -0.09,0.081l-0.621,3.842c-0.009,0.027 -0.027,0.036 -0.036,0.009l-0.692,-3.851c-0.009,-0.054 -0.045,-0.081 -0.099,-0.081l-0.486,0c-0.063,0 -0.09,0.036 -0.081,0.099l1.052,5.011c0.009,0.054 0.045,0.081 0.099,0.081Z" style="fill:white;fill-rule:nonzero;"/>
            <path d="M59.94,347.659c0.838,0 1.404,-0.539 1.404,-1.43l0,-2.449c0,-0.9 -0.566,-1.439 -1.404,-1.439c-0.846,0 -1.403,0.539 -1.403,1.439l0,2.449c0,0.891 0.557,1.43 1.403,1.43Zm0,-0.557c-0.45,0 -0.765,-0.306 -0.765,-0.837l0,-2.512c0,-0.54 0.315,-0.846 0.765,-0.846c0.46,0 0.766,0.306 0.766,0.846l0,2.512c0,0.531 -0.306,0.837 -0.766,0.837Z" style="fill:white;fill-rule:nonzero;"/>
            <path d="M63.828,347.659c0.847,0 1.395,-0.584 1.395,-1.538l0,-3.618c0,-0.054 -0.036,-0.09 -0.09,-0.09l-0.458,0c-0.054,0 -0.09,0.036 -0.09,0.09l0,3.672c0,0.576 -0.297,0.927 -0.757,0.927c-0.45,0 -0.747,-0.351 -0.747,-0.927l0,-3.672c0,-0.054 -0.036,-0.09 -0.09,-0.09l-0.458,0c-0.054,0 -0.09,0.036 -0.09,0.09l0,3.618c0,0.954 0.557,1.538 1.385,1.538Z" style="fill:white;fill-rule:nonzero;"/>
            <path d="M68.913,342.404l-2.717,0c-0.054,0 -0.09,0.036 -0.09,0.09l0,0.386c0,0.054 0.036,0.09 0.09,0.09l0.972,0c0.018,0 0.036,0.018 0.036,0.036l0,4.5c0,0.054 0.036,0.09 0.09,0.09l0.458,0c0.054,0 0.09,-0.036 0.09,-0.09l0,-4.5c0,-0.018 0.018,-0.036 0.036,-0.036l1.035,0c0.054,0 0.09,-0.036 0.09,-0.09l0,-0.386c0,-0.054 -0.036,-0.09 -0.09,-0.09Z" style="fill:white;fill-rule:nonzero;"/>
            <path d="M14.42,77.167l0.623,0c0.083,0 0.119,-0.048 0.095,-0.132l-1.306,-3.78c-0.012,-0.036 0,-0.048 0.036,-0.06c0.767,-0.287 1.246,-1.067 1.246,-2.135c0,-1.381 -0.79,-2.303 -1.955,-2.303l-1.979,0c-0.072,0 -0.12,0.047 -0.12,0.119l0,8.171c0,0.072 0.048,0.12 0.12,0.12l0.611,0c0.071,0 0.119,-0.048 0.119,-0.12l0,-3.696c0,-0.024 0.024,-0.048 0.048,-0.048l1.033,0c0.024,0 0.036,0 0.048,0.036l1.237,3.732c0.024,0.06 0.084,0.096 0.144,0.096Zm-2.462,-7.668l1.081,0c0.733,0 1.225,0.612 1.225,1.573c0,0.936 -0.492,1.549 -1.225,1.549l-1.081,0c-0.024,0 -0.048,-0.024 -0.048,-0.048l0,-3.026c0,-0.024 0.024,-0.048 0.048,-0.048Z" style="fill:white;fill-rule:nonzero;"/>
            <path d="M19.866,74.335l0,-1.499c0,-1.081 -0.718,-1.835 -1.883,-1.835c-1.14,0 -1.871,0.754 -1.871,1.835l0,2.592c0,1.105 0.731,1.835 1.871,1.835c1.057,0 1.716,-0.599 1.847,-1.535c0.012,-0.072 -0.035,-0.132 -0.107,-0.132l-0.599,-0.024c-0.072,0 -0.108,0.036 -0.132,0.108c-0.108,0.492 -0.48,0.841 -1.009,0.841c-0.6,0 -1.021,-0.469 -1.021,-1.141l0,-0.877c0,-0.024 0.024,-0.048 0.048,-0.048l2.737,0c0.071,0 0.119,-0.048 0.119,-0.12Zm-1.883,-2.592c0.625,0 1.045,0.468 1.045,1.153l0,0.805c0,0.024 -0.024,0.048 -0.048,0.048l-1.97,0c-0.024,0 -0.048,-0.024 -0.048,-0.048l0,-0.805c0,-0.685 0.421,-1.153 1.021,-1.153Z" style="fill:white;fill-rule:nonzero;"/>
            <path d="M22.711,77.227c1.117,0 1.823,-0.634 1.823,-1.631c0,-1.128 -0.91,-1.512 -1.607,-1.812c-0.624,-0.264 -1.177,-0.492 -1.177,-1.117c0,-0.516 0.361,-0.936 0.949,-0.936c0.589,0 0.973,0.408 0.973,0.936l0,0.096c0,0.06 0.048,0.096 0.12,0.096l0.551,0c0.071,0 0.119,-0.048 0.119,-0.12l0,-0.036c0,-0.996 -0.67,-1.666 -1.775,-1.666c-1.056,0 -1.751,0.622 -1.751,1.654c0,1.141 0.85,1.501 1.523,1.777c0.612,0.264 1.225,0.492 1.225,1.164c0,0.54 -0.372,0.937 -0.961,0.937c-0.612,0 -1.021,-0.409 -1.021,-0.913l0,-0.096c0,-0.06 -0.048,-0.096 -0.119,-0.096l-0.575,0c-0.072,0 -0.12,0.048 -0.12,0.12l0,0.084c0,0.936 0.707,1.559 1.823,1.559Z" style="fill:white;fill-rule:nonzero;"/>
            <path d="M27.367,77.263c1.153,0 1.895,-0.73 1.895,-1.835l0,-2.593c0,-1.08 -0.742,-1.834 -1.895,-1.834c-1.152,0 -1.883,0.754 -1.883,1.834l0,2.593c0,1.105 0.731,1.835 1.883,1.835Zm0,-0.742c-0.612,0 -1.033,-0.469 -1.033,-1.141l0,-2.485c0,-0.684 0.421,-1.152 1.033,-1.152c0.613,0 1.045,0.468 1.045,1.152l0,2.485c0,0.672 -0.432,1.141 -1.045,1.141Z" style="fill:white;fill-rule:nonzero;"/>
            <path d="M33.236,77.167l0.611,0c0.071,0 0.119,-0.048 0.119,-0.12l0,-8.158c0,-0.072 -0.048,-0.12 -0.119,-0.12l-0.611,0c-0.072,0 -0.12,0.048 -0.12,0.12l0,8.158c0,0.072 0.048,0.12 0.12,0.12Z" style="fill:white;fill-rule:nonzero;"/>
            <path d="M11.84,127.157l0.623,0c0.083,0 0.119,-0.048 0.095,-0.132l-1.306,-3.78c-0.012,-0.036 0,-0.048 0.036,-0.06c0.767,-0.287 1.246,-1.066 1.246,-2.135c0,-1.381 -0.79,-2.303 -1.955,-2.303l-1.979,0c-0.072,0 -0.12,0.048 -0.12,0.12l0,8.17c0,0.072 0.048,0.12 0.12,0.12l0.611,0c0.071,0 0.119,-0.048 0.119,-0.12l0,-3.696c0,-0.024 0.024,-0.048 0.048,-0.048l1.033,0c0.024,0 0.036,0 0.048,0.036l1.237,3.732c0.024,0.06 0.084,0.096 0.144,0.096Zm-2.462,-7.668l1.081,0c0.733,0 1.225,0.613 1.225,1.573c0,0.936 -0.492,1.549 -1.225,1.549l-1.081,0c-0.024,0 -0.048,-0.024 -0.048,-0.048l0,-3.026c0,-0.024 0.024,-0.048 0.048,-0.048Z" style="fill:white;fill-rule:nonzero;"/>
            <path d="M17.286,124.326l0,-1.5c0,-1.081 -0.718,-1.835 -1.883,-1.835c-1.14,0 -1.871,0.754 -1.871,1.835l0,2.592c0,1.105 0.731,1.835 1.871,1.835c1.057,0 1.716,-0.599 1.847,-1.535c0.012,-0.072 -0.035,-0.132 -0.107,-0.132l-0.599,-0.024c-0.072,0 -0.108,0.036 -0.132,0.108c-0.108,0.492 -0.48,0.841 -1.009,0.841c-0.6,0 -1.021,-0.469 -1.021,-1.141l0,-0.877c0,-0.024 0.024,-0.048 0.048,-0.048l2.737,0c0.071,0 0.119,-0.048 0.119,-0.119Zm-1.883,-2.593c0.625,0 1.045,0.469 1.045,1.153l0,0.805c0,0.024 -0.024,0.048 -0.048,0.048l-1.97,0c-0.024,0 -0.048,-0.024 -0.048,-0.048l0,-0.805c0,-0.684 0.421,-1.153 1.021,-1.153Z" style="fill:white;fill-rule:nonzero;"/>
            <path d="M20.131,127.217c1.117,0 1.823,-0.634 1.823,-1.631c0,-1.128 -0.91,-1.512 -1.607,-1.812c-0.624,-0.264 -1.177,-0.492 -1.177,-1.116c0,-0.517 0.361,-0.937 0.949,-0.937c0.589,0 0.973,0.408 0.973,0.937l0,0.096c0,0.06 0.048,0.096 0.12,0.096l0.551,0c0.071,0 0.119,-0.048 0.119,-0.12l0,-0.036c0,-0.997 -0.67,-1.667 -1.775,-1.667c-1.056,0 -1.751,0.622 -1.751,1.655c0,1.14 0.85,1.5 1.523,1.776c0.612,0.264 1.225,0.492 1.225,1.164c0,0.541 -0.372,0.937 -0.961,0.937c-0.612,0 -1.021,-0.408 -1.021,-0.913l0,-0.096c0,-0.06 -0.048,-0.096 -0.119,-0.096l-0.575,0c-0.072,0 -0.12,0.048 -0.12,0.12l0,0.084c0,0.937 0.707,1.559 1.823,1.559Z" style="fill:white;fill-rule:nonzero;"/>
            <path d="M24.787,127.253c1.153,0 1.895,-0.73 1.895,-1.835l0,-2.592c0,-1.081 -0.742,-1.835 -1.895,-1.835c-1.152,0 -1.883,0.754 -1.883,1.835l0,2.592c0,1.105 0.731,1.835 1.883,1.835Zm0,-0.742c-0.612,0 -1.033,-0.468 -1.033,-1.141l0,-2.484c0,-0.685 0.421,-1.153 1.033,-1.153c0.613,0 1.045,0.468 1.045,1.153l0,2.484c0,0.673 -0.432,1.141 -1.045,1.141Z" style="fill:white;fill-rule:nonzero;"/>
            <path d="M30.656,127.157l0.611,0c0.071,0 0.119,-0.048 0.119,-0.12l0,-8.158c0,-0.072 -0.048,-0.12 -0.119,-0.12l-0.611,0c-0.072,0 -0.12,0.048 -0.12,0.12l0,8.158c0,0.072 0.048,0.12 0.12,0.12Z" style="fill:white;fill-rule:nonzero;"/>
            <path d="M33.236,127.157l0.611,0c0.071,0 0.119,-0.048 0.119,-0.12l0,-8.158c0,-0.072 -0.048,-0.12 -0.119,-0.12l-0.611,0c-0.072,0 -0.12,0.048 -0.12,0.12l0,8.158c0,0.072 0.048,0.12 0.12,0.12Z" style="fill:white;fill-rule:nonzero;"/>
            <path d="M35.816,127.157l0.611,0c0.071,0 0.119,-0.048 0.119,-0.12l0,-8.158c0,-0.072 -0.048,-0.12 -0.119,-0.12l-0.611,0c-0.072,0 -0.12,0.048 -0.12,0.12l0,8.158c0,0.072 0.048,0.12 0.12,0.12Z" style="fill:white;fill-rule:nonzero;"/>
            <path d="M58.116,77.157l0.623,0c0.084,0 0.12,-0.048 0.096,-0.132l-1.307,-3.78c-0.012,-0.036 0,-0.048 0.037,-0.06c0.767,-0.287 1.246,-1.066 1.246,-2.135c0,-1.381 -0.79,-2.303 -1.955,-2.303l-1.979,0c-0.072,0 -0.12,0.048 -0.12,0.12l0,8.17c0,0.072 0.048,0.12 0.12,0.12l0.61,0c0.072,0 0.12,-0.048 0.12,-0.12l0,-3.696c0,-0.024 0.024,-0.048 0.048,-0.048l1.033,0c0.024,0 0.036,0 0.048,0.036l1.237,3.732c0.024,0.06 0.084,0.096 0.143,0.096Zm-2.461,-7.668l1.081,0c0.732,0 1.225,0.613 1.225,1.573c0,0.936 -0.493,1.549 -1.225,1.549l-1.081,0c-0.024,0 -0.048,-0.024 -0.048,-0.048l0,-3.026c0,-0.024 0.024,-0.048 0.048,-0.048Z" style="fill:white;fill-rule:nonzero;"/>
            <path d="M63.563,74.326l0,-1.5c0,-1.081 -0.718,-1.835 -1.883,-1.835c-1.141,0 -1.871,0.754 -1.871,1.835l0,2.592c0,1.105 0.73,1.835 1.871,1.835c1.057,0 1.716,-0.599 1.847,-1.535c0.012,-0.072 -0.036,-0.132 -0.107,-0.132l-0.599,-0.024c-0.072,0 -0.108,0.036 -0.132,0.108c-0.108,0.492 -0.481,0.841 -1.009,0.841c-0.6,0 -1.021,-0.469 -1.021,-1.141l0,-0.877c0,-0.024 0.024,-0.048 0.048,-0.048l2.736,0c0.072,0 0.12,-0.048 0.12,-0.119Zm-1.883,-2.593c0.624,0 1.045,0.469 1.045,1.153l0,0.805c0,0.024 -0.024,0.048 -0.048,0.048l-1.97,0c-0.024,0 -0.048,-0.024 -0.048,-0.048l0,-0.805c0,-0.684 0.421,-1.153 1.021,-1.153Z" style="fill:white;fill-rule:nonzero;"/>
            <path d="M66.408,77.217c1.116,0 1.823,-0.634 1.823,-1.631c0,-1.128 -0.91,-1.512 -1.607,-1.812c-0.624,-0.264 -1.177,-0.492 -1.177,-1.116c0,-0.517 0.361,-0.937 0.949,-0.937c0.588,0 0.973,0.408 0.973,0.937l0,0.096c0,0.06 0.048,0.096 0.12,0.096l0.55,0c0.072,0 0.12,-0.048 0.12,-0.12l0,-0.036c0,-0.997 -0.67,-1.667 -1.775,-1.667c-1.057,0 -1.751,0.622 -1.751,1.655c0,1.14 0.85,1.5 1.523,1.776c0.612,0.264 1.225,0.492 1.225,1.164c0,0.541 -0.373,0.937 -0.961,0.937c-0.612,0 -1.021,-0.408 -1.021,-0.913l0,-0.096c0,-0.06 -0.048,-0.096 -0.12,-0.096l-0.574,0c-0.072,0 -0.12,0.048 -0.12,0.12l0,0.084c0,0.937 0.706,1.559 1.823,1.559Z" style="fill:white;fill-rule:nonzero;"/>
            <path d="M71.064,77.253c1.153,0 1.895,-0.73 1.895,-1.835l0,-2.592c0,-1.081 -0.742,-1.835 -1.895,-1.835c-1.153,0 -1.883,0.754 -1.883,1.835l0,2.592c0,1.105 0.73,1.835 1.883,1.835Zm0,-0.742c-0.612,0 -1.033,-0.468 -1.033,-1.141l0,-2.484c0,-0.685 0.421,-1.153 1.033,-1.153c0.612,0 1.045,0.468 1.045,1.153l0,2.484c0,0.673 -0.433,1.141 -1.045,1.141Z" style="fill:white;fill-rule:nonzero;"/>
            <path d="M76.933,77.157l0.61,0c0.072,0 0.12,-0.048 0.12,-0.12l0,-8.158c0,-0.072 -0.048,-0.12 -0.12,-0.12l-0.61,0c-0.072,0 -0.12,0.048 -0.12,0.12l0,8.158c0,0.072 0.048,0.12 0.12,0.12Z" style="fill:white;fill-rule:nonzero;"/>
            <path d="M79.513,77.157l0.61,0c0.072,0 0.12,-0.048 0.12,-0.12l0,-8.158c0,-0.072 -0.048,-0.12 -0.12,-0.12l-0.61,0c-0.072,0 -0.12,0.048 -0.12,0.12l0,8.158c0,0.072 0.048,0.12 0.12,0.12Z" style="fill:white;fill-rule:nonzero;"/>
            <path d="M56.549,127.157l0.623,0c0.084,0 0.12,-0.048 0.096,-0.132l-1.307,-3.78c-0.012,-0.036 0,-0.048 0.036,-0.06c0.768,-0.287 1.247,-1.066 1.247,-2.135c0,-1.381 -0.79,-2.303 -1.955,-2.303l-1.98,0c-0.071,0 -0.119,0.048 -0.119,0.12l0,8.17c0,0.072 0.048,0.12 0.119,0.12l0.611,0c0.072,0 0.12,-0.048 0.12,-0.12l0,-3.696c0,-0.024 0.024,-0.048 0.048,-0.048l1.033,0c0.024,0 0.036,0 0.048,0.036l1.237,3.732c0.024,0.06 0.083,0.096 0.143,0.096Zm-2.461,-7.668l1.081,0c0.732,0 1.225,0.613 1.225,1.573c0,0.936 -0.493,1.549 -1.225,1.549l-1.081,0c-0.024,0 -0.048,-0.024 -0.048,-0.048l0,-3.026c0,-0.024 0.024,-0.048 0.048,-0.048Z" style="fill:white;fill-rule:nonzero;"/>
            <path d="M61.996,124.326l0,-1.5c0,-1.081 -0.719,-1.835 -1.883,-1.835c-1.141,0 -1.871,0.754 -1.871,1.835l0,2.592c0,1.105 0.73,1.835 1.871,1.835c1.057,0 1.715,-0.599 1.847,-1.535c0.012,-0.072 -0.036,-0.132 -0.108,-0.132l-0.599,-0.024c-0.071,0 -0.107,0.036 -0.131,0.108c-0.108,0.492 -0.481,0.841 -1.009,0.841c-0.601,0 -1.021,-0.469 -1.021,-1.141l0,-0.877c0,-0.024 0.024,-0.048 0.048,-0.048l2.736,0c0.072,0 0.12,-0.048 0.12,-0.119Zm-1.883,-2.593c0.624,0 1.045,0.469 1.045,1.153l0,0.805c0,0.024 -0.024,0.048 -0.048,0.048l-1.97,0c-0.024,0 -0.048,-0.024 -0.048,-0.048l0,-0.805c0,-0.684 0.42,-1.153 1.021,-1.153Z" style="fill:white;fill-rule:nonzero;"/>
            <path d="M64.841,127.217c1.116,0 1.823,-0.634 1.823,-1.631c0,-1.128 -0.91,-1.512 -1.607,-1.812c-0.624,-0.264 -1.177,-0.492 -1.177,-1.116c0,-0.517 0.36,-0.937 0.949,-0.937c0.588,0 0.973,0.408 0.973,0.937l0,0.096c0,0.06 0.048,0.096 0.119,0.096l0.551,0c0.072,0 0.12,-0.048 0.12,-0.12l0,-0.036c0,-0.997 -0.671,-1.667 -1.775,-1.667c-1.057,0 -1.751,0.622 -1.751,1.655c0,1.14 0.85,1.5 1.523,1.776c0.612,0.264 1.225,0.492 1.225,1.164c0,0.541 -0.373,0.937 -0.961,0.937c-0.613,0 -1.021,-0.408 -1.021,-0.913l0,-0.096c0,-0.06 -0.048,-0.096 -0.12,-0.096l-0.575,0c-0.071,0 -0.119,0.048 -0.119,0.12l0,0.084c0,0.937 0.706,1.559 1.823,1.559Z" style="fill:white;fill-rule:nonzero;"/>
            <path d="M69.497,127.253c1.152,0 1.895,-0.73 1.895,-1.835l0,-2.592c0,-1.081 -0.743,-1.835 -1.895,-1.835c-1.153,0 -1.883,0.754 -1.883,1.835l0,2.592c0,1.105 0.73,1.835 1.883,1.835Zm0,-0.742c-0.613,0 -1.033,-0.468 -1.033,-1.141l0,-2.484c0,-0.685 0.42,-1.153 1.033,-1.153c0.612,0 1.045,0.468 1.045,1.153l0,2.484c0,0.673 -0.433,1.141 -1.045,1.141Z" style="fill:white;fill-rule:nonzero;"/>
            <path d="M75.365,127.157l0.611,0c0.072,0 0.12,-0.048 0.12,-0.12l0,-8.158c0,-0.072 -0.048,-0.12 -0.12,-0.12l-0.611,0c-0.071,0 -0.119,0.048 -0.119,0.12l0,8.158c0,0.072 0.048,0.12 0.119,0.12Z" style="fill:white;fill-rule:nonzero;"/>
            <path d="M79.253,127.157l0.684,0c0.072,0 0.12,-0.036 0.132,-0.108l1.739,-8.158c0.012,-0.084 -0.024,-0.132 -0.108,-0.132l-0.648,0c-0.072,0 -0.12,0.036 -0.132,0.108l-1.283,6.706c-0.012,0.036 -0.036,0.036 -0.048,0l-1.296,-6.706c-0.012,-0.072 -0.06,-0.108 -0.132,-0.108l-0.671,0c-0.084,0 -0.12,0.048 -0.108,0.132l1.739,8.158c0.012,0.072 0.06,0.108 0.132,0.108Z" style="fill:white;fill-rule:nonzero;"/>
        </g>
    </g>
</svg>
