<?xml version="1.0" encoding="UTF-8" standalone="no"?>
<!DOCTYPE svg PUBLIC "-//W3C//DTD SVG 1.1//EN" "http://www.w3.org/Graphics/SVG/1.1/DTD/svg11.dtd">
<svg width="90px" height="380px" version="1.1" xmlns="http://www.w3.org/2000/svg" xmlns:xlink="http://www.w3.org/1999/xlink" xml:space="preserve" xmlns:serif="http://www.serif.com/" style="fill-rule:evenodd;clip-rule:evenodd;stroke-linecap:round;stroke-linejoin:round;stroke-miterlimit:1.5;">
    <rect id="Tape-Dark" serif:id="Tape Dark" x="0" y="0" width="90" height="380" style="fill:none;"/>
    <clipPath id="_clip1">
        <rect x="0" y="0" width="90" height="380"/>
    </clipPath>
    <g clip-path="url(#_clip1)">
        <g id="Background">
            <path id="bright" d="M90,379.995l0,-379.995l-90,0l0,379.995l90,0Z" style="fill:rgb(54,69,74);"/>
            <circle cx="63.75" cy="325" r="14" style="fill:rgb(51,51,51);"/>
            <circle cx="26.25" cy="325" r="14" style="fill:rgb(51,51,51);"/>
            <path d="M60,24.6l30,0" style="fill:none;stroke:rgb(128,128,128);stroke-width:0.7px;"/>
            <path d="M0,24.6l32.024,0" style="fill:none;stroke:rgb(128,128,128);stroke-width:0.7px;"/>
            <g id="knobBgLargeThree">
                <g>
                    <path d="M65.754,95.976c11.461,-11.44 11.461,-29.987 0,-41.427c-11.455,-11.431 -30.053,-11.431 -41.508,0c-11.461,11.44 -11.461,29.987 0,41.427l20.754,-20.714l20.754,20.714Z" style="fill:none;stroke:rgb(128,128,128);stroke-width:0.7px;stroke-linecap:butt;stroke-linejoin:miter;"/>
                </g>
            </g>
            <g id="knobMediumBgThree">
                <path d="M60.556,160.788c8.592,-8.579 8.592,-22.49 0,-31.069c-8.585,-8.574 -22.527,-8.574 -31.112,0c-8.592,8.579 -8.592,22.49 0,31.069l15.556,-15.535l15.556,15.535Z" style="fill:none;stroke:rgb(128,128,128);stroke-width:0.7px;stroke-linecap:butt;stroke-linejoin:miter;"/>
            </g>
        </g>
        <g id="Lables">
            <g id="Branding">
                <path d="M27.355,362.45l0.545,0c0.049,0 0.07,-0.028 0.056,-0.077l-0.72,-2.163c-0.007,-0.021 0,-0.028 0.014,-0.042c0.419,-0.182 0.685,-0.637 0.685,-1.232c0,-0.826 -0.482,-1.393 -1.204,-1.393l-1.252,0c-0.042,0 -0.07,0.028 -0.07,0.07l0,4.767c0,0.042 0.028,0.07 0.07,0.07l0.531,0c0.042,0 0.07,-0.028 0.07,-0.07l0,-2.079c0,-0.014 0.014,-0.028 0.028,-0.028l0.483,0c0.014,0 0.021,0 0.028,0.021l0.652,2.1c0.014,0.035 0.049,0.056 0.084,0.056Zm-1.247,-4.326l0.518,0c0.379,0 0.638,0.315 0.638,0.819c0,0.49 -0.259,0.805 -0.638,0.805l-0.518,0c-0.014,0 -0.028,-0.014 -0.028,-0.028l0,-1.568c0,-0.014 0.014,-0.028 0.028,-0.028Z" style="fill:rgb(199,206,201);fill-rule:nonzero;"/>
                <path d="M31.043,362.45l0.546,0c0.049,0 0.07,-0.035 0.063,-0.077l-1.057,-4.76c-0.007,-0.042 -0.035,-0.063 -0.077,-0.063l-0.615,0c-0.042,0 -0.07,0.021 -0.077,0.063l-1.043,4.76c-0.007,0.042 0.014,0.077 0.063,0.077l0.532,0c0.042,0 0.07,-0.021 0.077,-0.063l0.161,-0.805c0,-0.014 0.021,-0.028 0.035,-0.028l1.126,0c0.014,0 0.035,0.014 0.035,0.028l0.154,0.805c0.007,0.042 0.035,0.063 0.077,0.063Zm-1.308,-1.456l0.475,-2.394c0.007,-0.028 0.021,-0.028 0.028,0l0.462,2.394c0,0.014 -0.007,0.028 -0.021,0.028l-0.923,0c-0.014,0 -0.021,-0.014 -0.021,-0.028Z" style="fill:rgb(199,206,201);fill-rule:nonzero;"/>
                <path d="M33.717,362.506c0.764,0 1.267,-0.497 1.267,-1.267l0,-0.105c0,-0.042 -0.028,-0.07 -0.07,-0.07l-0.531,-0.028c-0.042,0 -0.07,0.028 -0.07,0.07l0,0.182c0,0.378 -0.238,0.637 -0.596,0.637c-0.357,0 -0.588,-0.259 -0.588,-0.637l0,-2.576c0,-0.385 0.231,-0.637 0.588,-0.637c0.358,0 0.596,0.252 0.596,0.637l0,0.182c0,0.042 0.028,0.07 0.07,0.07l0.531,-0.028c0.042,0 0.07,-0.028 0.07,-0.07l0,-0.112c0,-0.77 -0.503,-1.26 -1.267,-1.26c-0.756,0 -1.259,0.49 -1.259,1.26l0,2.485c0,0.77 0.503,1.267 1.259,1.267Z" style="fill:rgb(199,206,201);fill-rule:nonzero;"/>
                <path d="M36.14,362.45l0.531,0c0.042,0 0.07,-0.028 0.07,-0.07l0,-1.575c0,-0.014 0,-0.028 0.007,-0.035l0.357,-0.567c0.014,-0.014 0.028,-0.014 0.035,0.007l0.91,2.184c0.014,0.042 0.042,0.056 0.077,0.056l0.581,0c0.049,0 0.077,-0.035 0.056,-0.084l-1.169,-2.744c-0.007,-0.014 -0.007,-0.028 0,-0.042l1.078,-1.946c0.028,-0.049 0.007,-0.084 -0.049,-0.084l-0.574,0c-0.035,0 -0.063,0.021 -0.084,0.049l-1.19,2.128c-0.014,0.028 -0.035,0.021 -0.035,-0.007l0,-2.1c0,-0.042 -0.028,-0.07 -0.07,-0.07l-0.531,0c-0.042,0 -0.07,0.028 -0.07,0.07l0,4.76c0,0.042 0.028,0.07 0.07,0.07Z" style="fill:rgb(199,206,201);fill-rule:nonzero;"/>
                <path d="M40.438,362.45l0.497,0c0.042,0 0.063,-0.014 0.07,-0.063l0.503,-3.311c0,-0.021 0.021,-0.021 0.028,0l0.532,3.311c0.007,0.042 0.028,0.063 0.07,0.063l0.497,0c0.042,0 0.07,-0.021 0.077,-0.063l0.882,-4.76c0.007,-0.042 -0.014,-0.077 -0.063,-0.077l-0.546,0c-0.042,0 -0.063,0.021 -0.07,0.063l-0.518,3.283c-0.007,0.021 -0.021,0.021 -0.028,0l-0.539,-3.283c-0.007,-0.042 -0.028,-0.063 -0.07,-0.063l-0.469,0c-0.042,0 -0.063,0.014 -0.07,0.063l-0.503,3.283c-0.007,0.021 -0.021,0.021 -0.028,0l-0.567,-3.283c-0.007,-0.042 -0.035,-0.063 -0.077,-0.063l-0.553,0c-0.049,0 -0.07,0.035 -0.063,0.077l0.931,4.76c0.007,0.042 0.035,0.063 0.077,0.063Z" style="fill:rgb(199,206,201);fill-rule:nonzero;"/>
                <path d="M44.624,362.45l0.531,0c0.042,0 0.07,-0.028 0.07,-0.07l0,-4.76c0,-0.042 -0.028,-0.07 -0.07,-0.07l-0.531,0c-0.042,0 -0.07,0.028 -0.07,0.07l0,4.76c0,0.042 0.028,0.07 0.07,0.07Z" style="fill:rgb(199,206,201);fill-rule:nonzero;"/>
                <path d="M46.52,362.45l0.525,0c0.042,0 0.07,-0.028 0.07,-0.07l-0.007,-3.073c0,-0.028 0.028,-0.028 0.035,0l1.246,3.087c0.014,0.042 0.042,0.056 0.077,0.056l0.546,0c0.042,0 0.07,-0.028 0.07,-0.07l0,-4.76c0,-0.042 -0.028,-0.07 -0.07,-0.07l-0.525,0c-0.042,0 -0.07,0.028 -0.07,0.07l0,3.066c0,0.028 -0.028,0.035 -0.035,0.007l-1.246,-3.087c-0.014,-0.042 -0.042,-0.056 -0.077,-0.056l-0.539,0c-0.042,0 -0.07,0.028 -0.07,0.07l0,4.76c0,0.042 0.028,0.07 0.07,0.07Z" style="fill:rgb(199,206,201);fill-rule:nonzero;"/>
                <path d="M50.371,362.45l1.147,0c0.771,0 1.267,-0.511 1.267,-1.323l0,-2.254c0,-0.812 -0.496,-1.323 -1.267,-1.323l-1.147,0c-0.042,0 -0.07,0.028 -0.07,0.07l0,4.76c0,0.042 0.028,0.07 0.07,0.07Zm0.601,-0.609l0,-3.682c0,-0.014 0.014,-0.028 0.028,-0.028l0.511,0c0.365,0 0.596,0.301 0.596,0.777l0,2.184c-0.007,0.476 -0.238,0.77 -0.596,0.77l-0.511,0.007c-0.014,0 -0.028,-0.014 -0.028,-0.028Z" style="fill:rgb(199,206,201);fill-rule:nonzero;"/>
                <path d="M55.109,362.506c0.771,0 1.288,-0.504 1.288,-1.281l0,-2.443c0,-0.777 -0.517,-1.288 -1.288,-1.288c-0.763,0 -1.273,0.511 -1.273,1.288l0,2.443c0,0.777 0.51,1.281 1.273,1.281Zm0,-0.581c-0.364,0 -0.602,-0.273 -0.602,-0.672l0,-2.506c0,-0.399 0.238,-0.672 0.602,-0.672c0.372,0 0.617,0.273 0.617,0.672l0,2.506c0,0.399 -0.245,0.672 -0.617,0.672Z" style="fill:rgb(199,206,201);fill-rule:nonzero;"/>
                <path d="M58.19,362.45l0.497,0c0.042,0 0.063,-0.014 0.07,-0.063l0.503,-3.311c0,-0.021 0.021,-0.021 0.028,0l0.532,3.311c0.007,0.042 0.028,0.063 0.07,0.063l0.497,0c0.042,0 0.07,-0.021 0.077,-0.063l0.882,-4.76c0.007,-0.042 -0.014,-0.077 -0.063,-0.077l-0.546,0c-0.042,0 -0.063,0.021 -0.07,0.063l-0.518,3.283c-0.007,0.021 -0.021,0.021 -0.028,0l-0.539,-3.283c-0.007,-0.042 -0.028,-0.063 -0.07,-0.063l-0.469,0c-0.042,0 -0.063,0.014 -0.07,0.063l-0.503,3.283c-0.007,0.021 -0.021,0.021 -0.028,0l-0.567,-3.283c-0.007,-0.042 -0.035,-0.063 -0.077,-0.063l-0.553,0c-0.049,0 -0.07,0.035 -0.063,0.077l0.931,4.76c0.007,0.042 0.035,0.063 0.077,0.063Z" style="fill:rgb(199,206,201);fill-rule:nonzero;"/>
                <path d="M63.341,362.506c0.729,0 1.246,-0.504 1.246,-1.295c0,-0.672 -0.371,-0.966 -1.084,-1.498c-0.54,-0.399 -0.743,-0.588 -0.743,-0.987c0,-0.42 0.231,-0.651 0.546,-0.651c0.344,0 0.582,0.28 0.582,0.7l0,0.189c0,0.042 0.028,0.07 0.07,0.07l0.517,0c0.042,0 0.07,-0.028 0.07,-0.07l0,-0.175c0,-0.777 -0.489,-1.295 -1.239,-1.295c-0.707,0 -1.21,0.469 -1.21,1.232c0,0.763 0.503,1.134 1.042,1.533c0.505,0.371 0.785,0.567 0.785,0.994c0,0.406 -0.252,0.672 -0.582,0.672c-0.336,0 -0.574,-0.273 -0.574,-0.707l0,-0.154c0,-0.042 -0.028,-0.07 -0.07,-0.07l-0.517,0c-0.042,0 -0.07,0.028 -0.07,0.07l0,0.189c0,0.749 0.496,1.253 1.231,1.253Z" style="fill:rgb(199,206,201);fill-rule:nonzero;"/>
                <path d="M38.981,16.505l-4.475,0c-0.084,0 -0.144,0.06 -0.144,0.144l0,0.911c0,0.084 0.06,0.144 0.144,0.144l1.44,0c0.036,0 0.06,0.024 0.06,0.06l0,6.996c0,0.084 0.06,0.144 0.144,0.144l1.103,0c0.084,0 0.144,-0.06 0.144,-0.144l0,-6.996c0,-0.036 0.024,-0.06 0.06,-0.06l1.524,0c0.084,0 0.144,-0.06 0.144,-0.144l0,-0.911c0,-0.084 -0.06,-0.143 -0.144,-0.143Z" style="fill:white;fill-rule:nonzero;"/>
                <path d="M43.213,24.904l1.116,0c0.096,0 0.156,-0.048 0.132,-0.156l-1.776,-8.111c-0.012,-0.084 -0.072,-0.132 -0.156,-0.132l-1.284,0c-0.084,0 -0.144,0.049 -0.156,0.133l-1.765,8.11c-0.024,0.108 0.024,0.156 0.12,0.156l1.105,0c0.084,0 0.144,-0.036 0.156,-0.132l0.24,-1.272c0,-0.036 0.036,-0.048 0.072,-0.048l1.74,0c0.036,0 0.072,0.024 0.072,0.06l0.228,1.26c0.012,0.096 0.072,0.132 0.156,0.132Zm-2.028,-2.602l0.696,-3.626c0.012,-0.048 0.06,-0.048 0.072,0l0.66,3.625c0.012,0.048 -0.024,0.061 -0.06,0.061l-1.308,0c-0.036,0 -0.072,-0.012 -0.06,-0.06Z" style="fill:white;fill-rule:nonzero;"/>
                <path d="M47.958,16.494l-2.256,0c-0.084,0 -0.144,0.059 -0.144,0.143l0,8.123c0,0.084 0.06,0.144 0.144,0.144l1.103,0c0.084,0 0.144,-0.06 0.144,-0.144l0,-3.336c0,-0.036 0.024,-0.06 0.06,-0.06l1.021,0c1.236,0 2.075,-0.947 2.075,-2.399c0,-1.465 -0.863,-2.471 -2.147,-2.471Zm-0.228,3.779l-0.721,0c-0.036,0 -0.06,-0.024 -0.06,-0.06l0,-2.461c0,-0.036 0.024,-0.06 0.06,-0.06l0.721,0c0.588,0 0.984,0.492 0.984,1.309c0,0.792 -0.396,1.272 -0.984,1.272Z" style="fill:white;fill-rule:nonzero;"/>
                <path d="M55.361,17.56l0,-0.911c0,-0.084 -0.06,-0.143 -0.144,-0.143l-3.899,0c-0.084,0 -0.144,0.059 -0.144,0.143l0,8.111c0,0.084 0.06,0.144 0.144,0.144l3.899,0c0.084,0 0.144,-0.06 0.144,-0.144l0,-0.911c0,-0.084 -0.06,-0.143 -0.144,-0.143l-2.592,0c-0.036,0 -0.06,-0.025 -0.06,-0.061l0,-2.281c0,-0.036 0.024,-0.06 0.06,-0.06l1.536,0c0.084,0 0.144,-0.06 0.144,-0.144l0,-0.923c0,-0.084 -0.06,-0.144 -0.144,-0.144l-1.536,0c-0.036,0 -0.06,-0.024 -0.06,-0.06l0,-2.269c0,-0.036 0.024,-0.06 0.06,-0.06l2.592,0c0.084,0 0.144,-0.06 0.144,-0.144Z" style="fill:white;fill-rule:nonzero;"/>
                <path d="M31.4,35.39c0.864,0 1.521,-0.602 1.638,-1.52l0.585,-4.761c0,-0.054 -0.027,-0.09 -0.081,-0.09l-0.441,0c-0.054,0 -0.09,0.036 -0.099,0.09l-0.585,4.77c-0.072,0.567 -0.459,0.954 -0.945,0.954c-0.504,0 -0.783,-0.387 -0.72,-0.954l0.099,-0.765c0.009,-0.054 -0.027,-0.09 -0.081,-0.09l-0.442,0c-0.054,0 -0.09,0.036 -0.099,0.09l-0.09,0.756c-0.117,0.918 0.397,1.52 1.261,1.52Z" style="fill:rgb(199,206,201);fill-rule:nonzero;"/>
                <path d="M36.58,30.855l-0.369,2.997c-0.071,0.603 -0.395,0.972 -0.863,0.972c-0.441,0 -0.657,-0.297 -0.585,-0.909l0.378,-3.06c0,-0.054 -0.027,-0.09 -0.081,-0.09l-0.441,0c-0.054,0 -0.09,0.036 -0.099,0.09l-0.395,3.204c-0.108,0.918 0.314,1.322 0.98,1.322c0.378,0 0.702,-0.135 0.936,-0.467c0.018,-0.027 0.045,-0.027 0.036,0.009l-0.037,0.305c-0.009,0.054 0.027,0.09 0.081,0.09l0.441,0c0.054,0 0.09,-0.036 0.099,-0.09l0.54,-4.373c0,-0.054 -0.027,-0.09 -0.081,-0.09l-0.441,0c-0.054,0 -0.099,0.036 -0.099,0.09Z" style="fill:rgb(199,206,201);fill-rule:nonzero;"/>
                <path d="M38.858,35.363c0.811,0 1.386,-0.476 1.476,-1.223c0.108,-0.846 -0.521,-1.135 -0.999,-1.36c-0.432,-0.198 -0.81,-0.369 -0.756,-0.837c0.054,-0.387 0.351,-0.702 0.774,-0.702c0.433,0 0.675,0.306 0.621,0.702l-0.009,0.072c0,0.045 0.027,0.072 0.081,0.072l0.405,0c0.054,0 0.09,-0.036 0.099,-0.09l0,-0.027c0.09,-0.747 -0.333,-1.25 -1.134,-1.25c-0.774,0 -1.331,0.467 -1.43,1.241c-0.108,0.855 0.485,1.125 0.944,1.333c0.423,0.198 0.847,0.369 0.784,0.873c-0.045,0.405 -0.361,0.702 -0.784,0.702c-0.45,0 -0.702,-0.306 -0.657,-0.684l0.009,-0.072c0,-0.045 -0.027,-0.072 -0.081,-0.072l-0.413,0c-0.054,0 -0.099,0.036 -0.099,0.09l-0.009,0.063c-0.09,0.702 0.368,1.169 1.178,1.169Z" style="fill:rgb(199,206,201);fill-rule:nonzero;"/>
                <path d="M43.043,31.151l0.036,-0.296c0.009,-0.054 -0.018,-0.09 -0.072,-0.09l-0.666,0c-0.018,0 -0.027,-0.018 -0.027,-0.036l0.126,-1.008c0,-0.054 -0.027,-0.09 -0.081,-0.09l-0.432,0c-0.054,0 -0.099,0.036 -0.099,0.09l-0.126,1.008c0,0.018 -0.027,0.036 -0.045,0.036l-0.332,0c-0.054,0 -0.099,0.036 -0.099,0.09l-0.036,0.296c-0.009,0.054 0.018,0.09 0.072,0.09l0.341,0c0.018,0 0.036,0.018 0.027,0.036l-0.359,2.944c-0.108,0.908 0.296,1.097 0.917,1.097l0.216,0c0.054,0 0.09,-0.036 0.099,-0.09l0.045,-0.386c0.009,-0.054 -0.027,-0.09 -0.072,-0.09l-0.09,0c-0.369,0.009 -0.549,-0.144 -0.477,-0.72l0.333,-2.755c0.009,-0.018 0.027,-0.036 0.045,-0.036l0.657,0c0.054,0 0.099,-0.036 0.099,-0.09Z" style="fill:rgb(199,206,201);fill-rule:nonzero;"/>
                <path d="M48.605,29.019l-2.924,0c-0.054,0 -0.09,0.036 -0.099,0.09l-0.045,0.377c-0.009,0.054 0.027,0.09 0.081,0.09l1.079,0c0.018,0 0.036,0.018 0.027,0.036l-0.683,5.616c-0.009,0.054 0.018,0.09 0.072,0.09l0.449,0c0.045,0 0.09,-0.036 0.099,-0.09l0.684,-5.616c0,-0.018 0.027,-0.036 0.045,-0.036l1.152,0c0.045,0 0.09,-0.036 0.09,-0.09l0.054,-0.377c0,-0.054 -0.027,-0.09 -0.081,-0.09Z" style="fill:rgb(199,206,201);fill-rule:nonzero;"/>
                <path d="M50.9,30.855l-0.036,0.252c0,0.027 -0.018,0.045 -0.045,0.018c-0.162,-0.288 -0.449,-0.432 -0.81,-0.432c-0.702,0 -1.224,0.557 -1.34,1.349c-0.054,0.333 -0.09,0.639 -0.126,0.973c-0.045,0.333 -0.09,0.666 -0.117,0.999c-0.063,0.8 0.305,1.376 1.007,1.376c0.36,0 0.684,-0.153 0.919,-0.441c0.027,-0.027 0.045,-0.009 0.045,0.018l-0.036,0.261c-0.009,0.054 0.027,0.09 0.081,0.09l0.44,0c0.054,0 0.09,-0.036 0.099,-0.09l0.54,-4.373c0,-0.054 -0.027,-0.09 -0.081,-0.09l-0.441,0c-0.054,0 -0.09,0.036 -0.099,0.09Zm-1.215,3.977c-0.45,0 -0.711,-0.369 -0.639,-0.899l0.108,-0.891c0.027,-0.234 0.063,-0.577 0.108,-0.892c0.063,-0.54 0.414,-0.9 0.864,-0.9c0.415,0 0.675,0.36 0.612,0.9l-0.215,1.783c-0.072,0.539 -0.415,0.899 -0.838,0.899Z" style="fill:rgb(199,206,201);fill-rule:nonzero;"/>
                <path d="M55.193,32.069c0.063,-0.801 -0.315,-1.376 -1.016,-1.376c-0.352,0 -0.676,0.153 -0.919,0.44c-0.027,0.027 -0.045,0.009 -0.036,-0.018l0.027,-0.26c0.009,-0.054 -0.018,-0.09 -0.072,-0.09l-0.45,0c-0.045,0 -0.09,0.036 -0.099,0.09l-0.746,6.119c-0.009,0.054 0.027,0.09 0.072,0.09l0.45,0c0.054,0 0.09,-0.036 0.099,-0.09l0.242,-1.998c0,-0.027 0.027,-0.045 0.045,-0.018c0.162,0.288 0.45,0.432 0.81,0.432c0.712,0 1.224,-0.558 1.35,-1.35c0.045,-0.333 0.081,-0.639 0.126,-0.972c0.036,-0.333 0.081,-0.665 0.117,-0.998l0,-0.001Zm-1.701,2.763c-0.423,0 -0.684,-0.36 -0.621,-0.9l0.225,-1.781c0.063,-0.541 0.414,-0.901 0.828,-0.901c0.46,0 0.72,0.369 0.649,0.9l-0.117,0.891c-0.027,0.234 -0.054,0.576 -0.108,0.891c-0.054,0.54 -0.415,0.9 -0.856,0.9Z" style="fill:rgb(199,206,201);fill-rule:nonzero;"/>
                <path d="M58.667,33.194l0.135,-1.125c0.099,-0.81 -0.351,-1.376 -1.197,-1.376c-0.837,0 -1.44,0.566 -1.539,1.376l-0.233,1.944c-0.099,0.829 0.359,1.377 1.187,1.377c0.775,0 1.314,-0.449 1.485,-1.151c0.018,-0.054 -0.009,-0.1 -0.063,-0.1l-0.431,-0.018c-0.054,0 -0.081,0.027 -0.108,0.082c-0.126,0.369 -0.424,0.63 -0.811,0.63c-0.432,0 -0.702,-0.351 -0.639,-0.856l0.081,-0.657c0,-0.018 0.027,-0.036 0.045,-0.036l1.989,0c0.054,0 0.09,-0.036 0.099,-0.09Zm-1.134,-1.944c0.451,0 0.721,0.351 0.658,0.865l-0.081,0.603c0,0.018 -0.018,0.036 -0.036,0.036l-1.432,0c-0.018,0 -0.036,-0.018 -0.036,-0.036l0.081,-0.603c0.063,-0.514 0.405,-0.865 0.846,-0.865Z" style="fill:rgb(199,206,201);fill-rule:nonzero;"/>
            </g>
            <path d="M21.062,307.591l0.458,0c0.054,0 0.09,-0.036 0.09,-0.09l0,-5.004c0,-0.054 -0.036,-0.09 -0.09,-0.09l-0.458,0c-0.054,0 -0.09,0.036 -0.09,0.09l0,5.004c0,0.054 0.036,0.09 0.09,0.09Z" style="fill:white;fill-rule:nonzero;"/>
            <path d="M22.961,307.591l0.449,0c0.054,0 0.09,-0.036 0.09,-0.09l0,-3.753c0,-0.036 0.036,-0.045 0.045,-0.009l1.522,3.78c0.018,0.054 0.054,0.072 0.099,0.072l0.476,0c0.054,0 0.09,-0.036 0.09,-0.09l0,-5.004c0,-0.054 -0.036,-0.09 -0.09,-0.09l-0.449,0c-0.054,0 -0.09,0.036 -0.09,0.09l0,3.744c0,0.036 -0.036,0.045 -0.045,0.009l-1.531,-3.771c-0.018,-0.054 -0.054,-0.072 -0.099,-0.072l-0.467,0c-0.054,0 -0.09,0.036 -0.09,0.09l0,5.004c0,0.054 0.036,0.09 0.09,0.09Z" style="fill:white;fill-rule:nonzero;"/>
            <path d="M29.063,307.591l2.375,0c0.054,0 0.09,-0.035 0.09,-0.089l0,-0.378c0,-0.054 -0.036,-0.089 -0.09,-0.089l-1.791,0c-0.018,0 -0.036,-0.018 -0.036,-0.036l0,-4.509c0,-0.054 -0.036,-0.09 -0.09,-0.09l-0.458,0c-0.054,0 -0.09,0.036 -0.09,0.09l0,5.012c0,0.054 0.036,0.089 0.09,0.089Z" style="fill:white;fill-rule:nonzero;"/>
            <path d="M20.35,267.659c0.802,0 1.377,-0.53 1.377,-1.367c0,-0.711 -0.413,-1.026 -1.223,-1.585c-0.631,-0.441 -0.883,-0.639 -0.883,-1.062c0,-0.486 0.297,-0.747 0.693,-0.747c0.442,0 0.73,0.324 0.73,0.819l0,0.126c0,0.054 0.036,0.09 0.09,0.09l0.449,0c0.054,0 0.09,-0.036 0.09,-0.09l0,-0.144c0,-0.801 -0.539,-1.358 -1.359,-1.358c-0.774,0 -1.322,0.485 -1.322,1.295c0,0.792 0.539,1.17 1.169,1.594c0.568,0.378 0.928,0.612 0.928,1.098c0,0.468 -0.315,0.783 -0.739,0.783c-0.423,0 -0.72,-0.324 -0.72,-0.837l0,-0.09c0,-0.054 -0.036,-0.09 -0.09,-0.09l-0.449,0c-0.054,0 -0.09,0.036 -0.09,0.09l0,0.153c0,0.783 0.548,1.322 1.349,1.322Z" style="fill:white;fill-rule:nonzero;"/>
            <path d="M22.862,267.596l2.375,0c0.054,0 0.09,-0.036 0.09,-0.09l0,-0.377c0,-0.054 -0.036,-0.09 -0.09,-0.09l-1.791,0c-0.018,0 -0.036,-0.018 -0.036,-0.036l0,-4.509c0,-0.054 -0.036,-0.09 -0.09,-0.09l-0.458,0c-0.054,0 -0.09,0.036 -0.09,0.09l0,5.012c0,0.054 0.036,0.09 0.09,0.09Z" style="fill:white;fill-rule:nonzero;"/>
            <path d="M28.769,267.596l0.477,0c0.063,0 0.09,-0.036 0.072,-0.099l-1.196,-5.012c-0.009,-0.045 -0.045,-0.081 -0.099,-0.081l-0.549,0c-0.054,0 -0.09,0.036 -0.099,0.081l-1.178,5.012c-0.018,0.054 0.009,0.099 0.072,0.099l0.459,0c0.054,0 0.09,-0.027 0.099,-0.081l0.189,-0.855c0,-0.018 0.027,-0.036 0.045,-0.036l1.385,0c0.017,0 0.044,0.018 0.044,0.036l0.18,0.855c0.009,0.054 0.045,0.081 0.099,0.081Zm-1.618,-1.529l0.593,-2.71c0.009,-0.036 0.027,-0.036 0.036,0l0.585,2.71c0.009,0.018 -0.009,0.036 -0.027,0.036l-1.16,0c-0.018,0 -0.036,-0.018 -0.027,-0.036Z" style="fill:white;fill-rule:nonzero;"/>
            <path d="M30.476,267.596l0.458,0c0.054,0 0.09,-0.036 0.09,-0.09l0,-4.058c0,-0.036 0.036,-0.036 0.045,-0.009l0.756,1.699c0.018,0.054 0.045,0.075 0.082,0.075c0.036,0 0.063,-0.021 0.081,-0.075l0.747,-1.699c0.009,-0.027 0.045,-0.027 0.045,0.009l0,4.058c0,0.054 0.036,0.09 0.09,0.09l0.458,0c0.054,0 0.09,-0.036 0.09,-0.09l0,-5.012c0,-0.054 -0.036,-0.09 -0.09,-0.09l-0.467,0c-0.045,0 -0.081,0.027 -0.099,0.072l-0.837,1.825c-0.009,0.027 -0.046,0.027 -0.055,0l-0.837,-1.825c-0.018,-0.045 -0.054,-0.072 -0.099,-0.072l-0.458,0c-0.054,0 -0.09,0.036 -0.09,0.09l0,5.012c0,0.054 0.036,0.09 0.09,0.09Z" style="fill:white;fill-rule:nonzero;"/>
            <path d="M19.693,347.659c0.838,0 1.404,-0.539 1.404,-1.43l0,-2.449c0,-0.9 -0.566,-1.439 -1.404,-1.439c-0.846,0 -1.403,0.539 -1.403,1.439l0,2.449c0,0.891 0.557,1.43 1.403,1.43Zm0,-0.557c-0.45,0 -0.765,-0.306 -0.765,-0.837l0,-2.512c0,-0.54 0.315,-0.846 0.765,-0.846c0.46,0 0.766,0.306 0.766,0.846l0,2.512c0,0.531 -0.306,0.837 -0.766,0.837Z" style="fill:white;fill-rule:nonzero;"/>
            <path d="M23.581,347.659c0.847,0 1.395,-0.584 1.395,-1.538l0,-3.618c0,-0.054 -0.036,-0.09 -0.09,-0.09l-0.458,0c-0.054,0 -0.09,0.036 -0.09,0.09l0,3.672c0,0.576 -0.297,0.927 -0.757,0.927c-0.45,0 -0.747,-0.351 -0.747,-0.927l0,-3.672c0,-0.054 -0.036,-0.09 -0.09,-0.09l-0.458,0c-0.054,0 -0.09,0.036 -0.09,0.09l0,3.618c0,0.954 0.557,1.538 1.385,1.538Z" style="fill:white;fill-rule:nonzero;"/>
            <path d="M28.666,342.404l-2.717,0c-0.054,0 -0.09,0.036 -0.09,0.09l0,0.386c0,0.054 0.036,0.09 0.09,0.09l0.972,0c0.018,0 0.036,0.018 0.036,0.036l0,4.5c0,0.054 0.036,0.09 0.09,0.09l0.458,0c0.054,0 0.09,-0.036 0.09,-0.09l0,-4.5c0,-0.018 0.018,-0.036 0.036,-0.036l1.035,0c0.054,0 0.09,-0.036 0.09,-0.09l0,-0.386c0,-0.054 -0.036,-0.09 -0.09,-0.09Z" style="fill:white;fill-rule:nonzero;"/>
            <path d="M31.745,347.596l2.375,0c0.054,0 0.09,-0.036 0.09,-0.09l0,-0.377c0,-0.054 -0.036,-0.09 -0.09,-0.09l-1.791,0c-0.018,0 -0.036,-0.018 -0.036,-0.036l0,-4.509c0,-0.054 -0.036,-0.09 -0.09,-0.09l-0.458,0c-0.054,0 -0.09,0.036 -0.09,0.09l0,5.012c0,0.054 0.036,0.09 0.09,0.09Z" style="fill:white;fill-rule:nonzero;"/>
            <path d="M58.451,307.6l0.458,0c0.054,0 0.09,-0.036 0.09,-0.09l0,-5.004c0,-0.054 -0.036,-0.09 -0.09,-0.09l-0.458,0c-0.054,0 -0.09,0.036 -0.09,0.09l0,5.004c0,0.054 0.036,0.09 0.09,0.09Z" style="fill:white;fill-rule:nonzero;"/>
            <path d="M60.35,307.6l0.449,0c0.054,0 0.09,-0.036 0.09,-0.09l0,-3.753c0,-0.036 0.036,-0.045 0.045,-0.009l1.522,3.78c0.018,0.054 0.054,0.072 0.099,0.072l0.476,0c0.054,0 0.09,-0.036 0.09,-0.09l0,-5.004c0,-0.054 -0.036,-0.09 -0.09,-0.09l-0.449,0c-0.054,0 -0.09,0.036 -0.09,0.09l0,3.744c0,0.036 -0.036,0.045 -0.045,0.009l-1.531,-3.771c-0.018,-0.054 -0.054,-0.072 -0.099,-0.072l-0.467,0c-0.054,0 -0.09,0.036 -0.09,0.09l0,5.004c0,0.054 0.036,0.09 0.09,0.09Z" style="fill:white;fill-rule:nonzero;"/>
            <path d="M68.594,307.6l0.467,0c0.063,0 0.09,-0.036 0.072,-0.099l-0.836,-2.276c-0.009,-0.027 0,-0.036 0.027,-0.045c0.495,-0.189 0.791,-0.675 0.791,-1.314c0,-0.865 -0.539,-1.466 -1.322,-1.466l-1.341,0c-0.054,0 -0.09,0.035 -0.09,0.089l0,5.021c0,0.054 0.036,0.09 0.09,0.09l0.458,0c0.054,0 0.09,-0.036 0.09,-0.09l0,-2.205c0,-0.018 0.018,-0.036 0.036,-0.036l0.631,0c0.018,0 0.027,0 0.036,0.027l0.783,2.232c0.018,0.054 0.063,0.072 0.108,0.072Zm-1.558,-4.644l0.667,0c0.459,0 0.774,0.361 0.774,0.91c0,0.549 -0.315,0.892 -0.774,0.892l-0.667,0c-0.018,0 -0.036,-0.018 -0.036,-0.036l0,-1.73c0,-0.018 0.018,-0.036 0.036,-0.036Z" style="fill:white;fill-rule:nonzero;"/>
            <path d="M58.54,264.888c0.431,-0.189 0.655,-0.558 0.655,-1.108c0,-0.9 -0.584,-1.376 -1.502,-1.376l-1.161,0c-0.054,0 -0.089,0.036 -0.089,0.09l0,5.012c0,0.054 0.035,0.09 0.089,0.09l1.251,0c0.864,0 1.457,-0.512 1.457,-1.421c-0.009,-0.613 -0.287,-1.027 -0.709,-1.243c-0.018,-0.017 -0.018,-0.035 0.009,-0.044Zm-1.424,-1.918l0.595,0c0.54,0 0.865,0.315 0.865,0.874c0,0.549 -0.325,0.855 -0.865,0.855l-0.595,0c-0.018,0 -0.036,-0.018 -0.036,-0.036l0,-1.657c0,-0.018 0.018,-0.036 0.036,-0.036Zm0.613,4.06l-0.613,0c-0.018,0 -0.036,-0.018 -0.036,-0.036l0,-1.81c0,-0.018 0.018,-0.036 0.036,-0.036l0.622,0c0.531,0 0.856,0.36 0.856,0.955c0,0.594 -0.325,0.927 -0.865,0.927Z" style="fill:white;fill-rule:nonzero;"/>
            <path d="M61.554,267.659c0.846,0 1.394,-0.584 1.394,-1.538l0,-3.618c0,-0.054 -0.035,-0.09 -0.089,-0.09l-0.459,0c-0.054,0 -0.089,0.036 -0.089,0.09l0,3.672c0,0.576 -0.298,0.927 -0.757,0.927c-0.45,0 -0.748,-0.351 -0.748,-0.927l0,-3.672c0,-0.054 -0.035,-0.09 -0.089,-0.09l-0.459,0c-0.054,0 -0.089,0.036 -0.089,0.09l0,3.618c0,0.954 0.557,1.538 1.385,1.538Z" style="fill:white;fill-rule:nonzero;"/>
            <path d="M64.254,267.596l0.459,0c0.054,0 0.089,-0.036 0.089,-0.09l0,-4.058c0,-0.036 0.036,-0.036 0.045,-0.009l0.757,1.699c0.018,0.054 0.045,0.075 0.081,0.075c0.036,0 0.063,-0.021 0.081,-0.075l0.748,-1.699c0.009,-0.027 0.045,-0.027 0.045,0.009l0,4.058c0,0.054 0.035,0.09 0.089,0.09l0.459,0c0.054,0 0.089,-0.036 0.089,-0.09l0,-5.012c0,-0.054 -0.035,-0.09 -0.089,-0.09l-0.468,0c-0.045,0 -0.08,0.027 -0.098,0.072l-0.838,1.825c-0.009,0.027 -0.045,0.027 -0.054,0l-0.838,-1.825c-0.018,-0.045 -0.053,-0.072 -0.098,-0.072l-0.459,0c-0.054,0 -0.089,0.036 -0.089,0.09l0,5.012c0,0.054 0.035,0.09 0.089,0.09Z" style="fill:white;fill-rule:nonzero;"/>
            <path d="M69.78,262.395l-1.341,0c-0.054,0 -0.089,0.036 -0.089,0.09l0,5.021c0,0.054 0.035,0.09 0.089,0.09l0.459,0c0.054,0 0.089,-0.036 0.089,-0.09l0,-2.169c0,-0.018 0.018,-0.036 0.036,-0.036l0.784,0c0.774,0 1.295,-0.575 1.295,-1.431c0,-0.873 -0.53,-1.475 -1.322,-1.475Zm-0.09,2.403l-0.667,0c-0.018,0 -0.036,-0.018 -0.036,-0.036l0,-1.774c0,-0.018 0.018,-0.036 0.036,-0.036l0.667,0c0.459,0 0.775,0.36 0.775,0.928c0,0.558 -0.316,0.918 -0.775,0.918Z" style="fill:white;fill-rule:nonzero;"/>
            <path d="M57.083,347.659c0.837,0 1.403,-0.539 1.403,-1.43l0,-2.449c0,-0.9 -0.566,-1.439 -1.403,-1.439c-0.847,0 -1.404,0.539 -1.404,1.439l0,2.449c0,0.891 0.557,1.43 1.404,1.43Zm0,-0.557c-0.451,0 -0.766,-0.306 -0.766,-0.837l0,-2.512c0,-0.54 0.315,-0.846 0.766,-0.846c0.459,0 0.765,0.306 0.765,0.846l0,2.512c0,0.531 -0.306,0.837 -0.765,0.837Z" style="fill:white;fill-rule:nonzero;"/>
            <path d="M60.971,347.659c0.846,0 1.394,-0.584 1.394,-1.538l0,-3.618c0,-0.054 -0.036,-0.09 -0.09,-0.09l-0.458,0c-0.054,0 -0.09,0.036 -0.09,0.09l0,3.672c0,0.576 -0.297,0.927 -0.756,0.927c-0.451,0 -0.748,-0.351 -0.748,-0.927l0,-3.672c0,-0.054 -0.036,-0.09 -0.09,-0.09l-0.458,0c-0.054,0 -0.09,0.036 -0.09,0.09l0,3.618c0,0.954 0.557,1.538 1.386,1.538Z" style="fill:white;fill-rule:nonzero;"/>
            <path d="M66.055,342.404l-2.717,0c-0.054,0 -0.09,0.036 -0.09,0.09l0,0.386c0,0.054 0.036,0.09 0.09,0.09l0.972,0c0.018,0 0.036,0.018 0.036,0.036l0,4.5c0,0.054 0.036,0.09 0.09,0.09l0.458,0c0.054,0 0.09,-0.036 0.09,-0.09l0,-4.5c0,-0.018 0.018,-0.036 0.036,-0.036l1.035,0c0.054,0 0.09,-0.036 0.09,-0.09l0,-0.386c0,-0.054 -0.036,-0.09 -0.09,-0.09Z" style="fill:white;fill-rule:nonzero;"/>
            <path d="M71.276,347.596l0.467,0c0.063,0 0.09,-0.036 0.072,-0.099l-0.836,-2.277c-0.009,-0.027 0,-0.036 0.027,-0.045c0.495,-0.188 0.791,-0.674 0.791,-1.313c0,-0.865 -0.539,-1.467 -1.322,-1.467l-1.341,0c-0.054,0 -0.09,0.036 -0.09,0.09l0,5.021c0,0.054 0.036,0.09 0.09,0.09l0.458,0c0.054,0 0.09,-0.036 0.09,-0.09l0,-2.205c0,-0.018 0.018,-0.036 0.036,-0.036l0.631,0c0.018,0 0.027,0 0.036,0.027l0.783,2.232c0.018,0.054 0.063,0.072 0.108,0.072Zm-1.558,-4.644l0.667,0c0.459,0 0.774,0.36 0.774,0.91c0,0.549 -0.315,0.891 -0.774,0.891l-0.667,0c-0.018,0 -0.036,-0.018 -0.036,-0.036l0,-1.729c0,-0.018 0.018,-0.036 0.036,-0.036Z" style="fill:white;fill-rule:nonzero;"/>
            <path d="M37.445,113.495c1.177,0 2.015,-0.839 2.015,-2.171c0,-1.141 -0.598,-1.621 -1.811,-2.521c-0.972,-0.72 -1.369,-1.08 -1.369,-1.848c0,-0.852 0.481,-1.308 1.105,-1.308c0.697,0 1.165,0.564 1.165,1.416l0,0.312c0,0.072 0.048,0.12 0.12,0.12l0.599,0c0.072,0 0.119,-0.048 0.119,-0.12l0,-0.3c0,-1.308 -0.79,-2.171 -2.003,-2.171c-1.128,0 -1.943,0.754 -1.943,2.027c0,1.272 0.791,1.872 1.739,2.568c0.889,0.672 1.441,1.045 1.441,1.897c0,0.828 -0.516,1.356 -1.177,1.356c-0.672,0 -1.152,-0.552 -1.152,-1.416l0,-0.252c0,-0.072 -0.048,-0.12 -0.12,-0.12l-0.599,0c-0.072,0 -0.12,0.048 -0.12,0.12l0,0.288c0,1.272 0.815,2.123 1.991,2.123Z" style="fill:white;fill-rule:nonzero;"/>
            <path d="M40.734,113.399l0.611,0c0.072,0 0.12,-0.048 0.12,-0.12l0,-8.159c0,-0.072 -0.048,-0.12 -0.12,-0.12l-0.611,0c-0.072,0 -0.12,0.048 -0.12,0.12l0,8.159c0,0.072 0.048,0.12 0.12,0.12Z" style="fill:white;fill-rule:nonzero;"/>
            <path d="M44.621,107.232c-0.996,0 -1.763,0.623 -1.847,1.583c-0.012,0.072 0.036,0.12 0.108,0.12l0.659,0.012c0.072,0 0.12,-0.036 0.132,-0.12c0.048,-0.504 0.444,-0.852 0.924,-0.852c0.625,0 1.009,0.528 1.009,1.321l0,0.468c0,0.024 -0.024,0.048 -0.048,0.048l-0.829,0c-1.188,0 -2.135,0.527 -2.135,1.967c0,1.428 0.947,1.716 1.631,1.716c0.54,0 1.009,-0.168 1.321,-0.575c0.036,-0.036 0.06,-0.024 0.06,0.012l0,0.347c0,0.072 0.048,0.12 0.12,0.12l0.611,0c0.072,0 0.12,-0.048 0.12,-0.12l0,-4.043c0,-1.213 -0.719,-2.004 -1.836,-2.004Zm-0.216,5.52c-0.528,0 -0.936,-0.312 -0.936,-1.045c0,-0.828 0.516,-1.212 1.248,-1.212l0.841,0c0.024,0 0.048,0.024 0.048,0.048l0,1.008c0,0.805 -0.6,1.201 -1.201,1.201Z" style="fill:white;fill-rule:nonzero;"/>
            <path d="M52.649,107.244c-0.516,0 -1.08,0.228 -1.38,0.839c-0.024,0.048 -0.06,0.048 -0.072,0.012c-0.24,-0.54 -0.695,-0.851 -1.308,-0.851c-0.432,0 -0.876,0.168 -1.2,0.587c-0.036,0.036 -0.061,0.024 -0.061,-0.012l0,-0.371c0,-0.072 -0.047,-0.12 -0.119,-0.12l-0.599,0c-0.072,0 -0.12,0.048 -0.12,0.12l0,5.831c0,0.072 0.048,0.12 0.12,0.12l0.599,0c0.072,0 0.119,-0.048 0.119,-0.12l0,-3.995c0,-0.805 0.385,-1.297 0.997,-1.297c0.541,0 0.925,0.492 0.925,1.32l0,3.972c0,0.072 0.048,0.12 0.12,0.12l0.611,0c0.072,0 0.119,-0.048 0.119,-0.12l0,-3.996c0,-0.804 0.385,-1.296 0.985,-1.296c0.553,0 0.937,0.492 0.937,1.32l0,3.972c0,0.072 0.048,0.12 0.12,0.12l0.599,0c0.072,0 0.119,-0.048 0.119,-0.12l0,-4.044c0,-1.236 -0.551,-1.991 -1.511,-1.991Z" style="fill:white;fill-rule:nonzero;"/>
            <path d="M38.017,174.319c0,-1.008 -0.407,-1.668 -1.054,-2.04c-0.024,-0.012 -0.024,-0.036 0.012,-0.048c0.659,-0.323 0.994,-0.935 0.994,-1.836c0,-1.428 -0.85,-2.195 -2.207,-2.195l-1.727,0c-0.072,0 -0.12,0.048 -0.12,0.12l0,8.159c0,0.072 0.048,0.12 0.12,0.12l1.835,0c1.297,0 2.159,-0.815 2.147,-2.28Zm-3.204,-5.376l0.949,0c0.865,0 1.369,0.564 1.369,1.524c0,0.925 -0.504,1.465 -1.369,1.465l-0.949,0c-0.024,0 -0.048,-0.024 -0.048,-0.048l0,-2.893c0,-0.024 0.024,-0.048 0.048,-0.048Zm0.997,6.901l-0.997,0c-0.024,0 -0.048,-0.024 -0.048,-0.048l0,-3.169c0,-0.024 0.024,-0.048 0.048,-0.048l0.997,0c0.853,0 1.357,0.612 1.357,1.644c0,1.033 -0.504,1.621 -1.357,1.621Z" style="fill:white;fill-rule:nonzero;"/>
            <path d="M41.943,170.648l0,3.996c0,0.804 -0.384,1.296 -1.021,1.296c-0.612,0 -0.961,-0.396 -0.961,-1.212l0,-4.08c0,-0.072 -0.048,-0.12 -0.119,-0.12l-0.611,0c-0.072,0 -0.12,0.048 -0.12,0.12l0,4.272c0,1.224 0.659,1.763 1.571,1.763c0.516,0 0.937,-0.18 1.201,-0.623c0.024,-0.036 0.06,-0.036 0.06,0.012l0,0.407c0,0.072 0.048,0.12 0.12,0.12l0.611,0c0.071,0 0.119,-0.048 0.119,-0.12l0,-5.831c0,-0.072 -0.048,-0.12 -0.119,-0.12l-0.611,0c-0.072,0 -0.12,0.048 -0.12,0.12Z" style="fill:white;fill-rule:nonzero;"/>
            <path d="M49.118,170.444c-0.516,0 -1.08,0.228 -1.38,0.839c-0.024,0.048 -0.06,0.048 -0.072,0.012c-0.24,-0.54 -0.695,-0.851 -1.308,-0.851c-0.432,0 -0.876,0.168 -1.201,0.587c-0.036,0.036 -0.06,0.024 -0.06,-0.012l0,-0.371c0,-0.072 -0.048,-0.12 -0.119,-0.12l-0.599,0c-0.072,0 -0.12,0.048 -0.12,0.12l0,5.831c0,0.072 0.048,0.12 0.12,0.12l0.599,0c0.071,0 0.119,-0.048 0.119,-0.12l0,-3.995c0,-0.805 0.385,-1.297 0.997,-1.297c0.541,0 0.925,0.492 0.925,1.32l0,3.972c0,0.072 0.048,0.12 0.12,0.12l0.611,0c0.071,0 0.119,-0.048 0.119,-0.12l0,-3.996c0,-0.804 0.385,-1.296 0.985,-1.296c0.553,0 0.937,0.492 0.937,1.32l0,3.972c0,0.072 0.048,0.12 0.12,0.12l0.599,0c0.071,0 0.119,-0.048 0.119,-0.12l0,-4.044c0,-1.236 -0.551,-1.991 -1.511,-1.991Z" style="fill:white;fill-rule:nonzero;"/>
            <path d="M55.813,172.267c-0.047,-1.068 -0.658,-1.835 -1.619,-1.835c-0.492,0 -0.912,0.204 -1.189,0.587c-0.036,0.036 -0.06,0.012 -0.06,-0.024l0,-0.347c0,-0.072 -0.047,-0.12 -0.119,-0.12l-0.611,0c-0.072,0 -0.12,0.048 -0.12,0.12l0,8.159c0,0.072 0.048,0.12 0.12,0.12l0.611,0c0.072,0 0.119,-0.048 0.119,-0.12l0,-2.664c0,-0.036 0.024,-0.06 0.06,-0.024c0.277,0.384 0.697,0.576 1.189,0.576c0.973,0 1.583,-0.744 1.619,-1.8c0.012,-0.444 0.012,-0.852 0.012,-1.296c0,-0.444 0,-0.888 -0.012,-1.331l0,-0.001Zm-1.871,3.684c-0.576,0 -0.997,-0.48 -0.997,-1.2l0,-2.376c0,-0.72 0.421,-1.2 0.997,-1.2c0.625,0 1.045,0.492 1.033,1.2l0,1.188c0,0.312 0.012,0.768 0,1.188c0.012,0.72 -0.42,1.2 -1.033,1.2Z" style="fill:white;fill-rule:nonzero;"/>
        </g>
    </g>
</svg>
