<?xml version="1.0" encoding="UTF-8" standalone="no"?>
<!DOCTYPE svg PUBLIC "-//W3C//DTD SVG 1.1//EN" "http://www.w3.org/Graphics/SVG/1.1/DTD/svg11.dtd">
<svg width="24px" height="24px" version="1.1" xmlns="http://www.w3.org/2000/svg" xmlns:xlink="http://www.w3.org/1999/xlink" xml:space="preserve" xmlns:serif="http://www.serif.com/" style="fill-rule:evenodd;clip-rule:evenodd;">
    <g id="Layer-1" serif:id="Layer 1">
        <g id="g922">
            <g id="g24">
                <g id="g936">
                    <circle id="circle868" cx="12" cy="11.981" r="11.981" style="fill:rgb(105,105,105);"/>
                    <path id="path870" d="M21.36,4.867c-2.27,-2.847 -5.719,-4.508 -9.36,-4.508c-3.641,0 -7.09,1.661 -9.36,4.508c5.554,-4.08 13.166,-4.08 18.72,0Z" style="fill:rgb(127,133,136);fill-rule:nonzero;"/>
                    <path id="path872" d="M12,22.004c-5.76,0 -10.454,-3.451 -10.958,-7.848c-0.031,0.258 -0.047,0.518 -0.048,0.778c0,4.766 4.924,8.64 11.001,8.64c6.077,0 11.002,-3.84 11.002,-8.64c-0.001,-0.26 -0.017,-0.52 -0.048,-0.778c-0.495,4.397 -5.189,7.848 -10.949,7.848Z" style="fill:rgb(77,82,83);fill-rule:nonzero;"/>
                    <path id="path884" d="M12,0.96c6.056,0 11.04,4.984 11.04,11.04c0,6.056 -4.984,11.04 -11.04,11.04c-6.056,0 -11.04,-4.984 -11.04,-11.04l0,0c0,-6.056 4.984,-11.04 11.04,-11.04m0,-0.96l0,0c-6.583,0 -12,5.417 -12,12c0,6.583 5.417,12 12,12c6.583,0 12,-5.417 12,-12l0,0c0,-6.583 -5.417,-12 -12,-12Z" style="fill-rule:nonzero;"/>
                    <g id="g878">
                        <path id="path876" d="M12,4.533c4.096,0 7.467,3.371 7.467,7.467c0,4.096 -3.371,7.467 -7.467,7.467c-4.096,0 -7.467,-3.371 -7.467,-7.467l0,0c0.005,-4.094 3.373,-7.462 7.467,-7.467m0,-1.033c-4.663,0 -8.5,3.837 -8.5,8.5c0,4.663 3.837,8.5 8.5,8.5c4.663,0 8.5,-3.837 8.5,-8.5l0,0c0,-4.663 -3.837,-8.5 -8.5,-8.5Z" style="fill:rgb(66,66,66);fill-rule:nonzero;"/>
                    </g>
                    <path id="path874" d="M12,19.515c-4.122,0 -7.515,-3.393 -7.515,-7.515c0,-4.122 3.393,-7.515 7.515,-7.515c4.121,0 7.512,3.389 7.515,7.51c-0.003,4.122 -3.393,7.514 -7.515,7.52Z" style="fill-rule:nonzero;"/>
                    <path id="path880-9" d="M11.992,17.512c-3.019,-0.006 -5.5,-2.491 -5.5,-5.51c0,-3.023 2.487,-5.51 5.51,-5.51c3.022,0 5.51,2.487 5.51,5.51c-0.006,3.024 -2.496,5.51 -5.52,5.51Z" style="fill-opacity:0;fill-rule:nonzero;stroke:rgb(191,191,191);stroke-width:2px;"/>
                    <g id="g927">
                        <path id="path40" d="M5.796,14c0.867,2.677 3.375,4.505 6.189,4.51c0.476,0.001 0.952,-0.043 1.42,-0.13c1.217,-0.271 2.331,-0.885 3.209,-1.77c0.29,-0.294 0.555,-0.611 0.79,-0.95c0.301,-0.529 0.568,-1.077 0.8,-1.64c-3.619,4.98 -9.319,4.78 -12.408,-0.02l0,0Z" style="fill:rgb(155,155,155);fill-rule:nonzero;"/>
                    </g>
                </g>
            </g>
        </g>
    </g>
</svg>
