<?xml version="1.0" encoding="UTF-8" standalone="no"?>
<!DOCTYPE svg PUBLIC "-//W3C//DTD SVG 1.1//EN" "http://www.w3.org/Graphics/SVG/1.1/DTD/svg11.dtd">
<svg width="29px" height="14px" version="1.1" xmlns="http://www.w3.org/2000/svg" xmlns:xlink="http://www.w3.org/1999/xlink" xml:space="preserve" xmlns:serif="http://www.serif.com/" style="fill-rule:evenodd;clip-rule:evenodd;stroke-linejoin:round;stroke-miterlimit:2;">
    <g id="Layer-1" serif:id="Layer 1">
        <g id="g258244">
            <path id="path243332" d="M27.549,0c0.799,0 1.451,0.667 1.451,1.475l0,11.054c0,0.808 -0.652,1.471 -1.451,1.471l-26.098,0c-0.795,0 -1.451,-0.663 -1.451,-1.471l0,-11.054c0,-0.808 0.656,-1.475 1.451,-1.475l26.098,0Z" style="fill:rgb(38,38,38);fill-rule:nonzero;"/>
            <rect id="path243334" x="1.299" y="1.313" width="26.402" height="11.378" style="fill:rgb(38,38,38);fill-rule:nonzero;"/>
        </g>
        <g id="g258240">
            <rect id="path243340" x="1.27" y="1.258" width="8.503" height="10.941" style="fill:rgb(66,66,66);fill-rule:nonzero;"/>
            <rect id="path243342" x="5.055" y="1.258" width="0.937" height="10.941" style="fill:rgb(151,151,151);fill-rule:nonzero;"/>
            <rect id="path243344" x="1.27" y="1.258" width="0.937" height="10.941" style="fill:rgb(151,151,151);fill-rule:nonzero;"/>
            <rect id="path243346" x="3.16" y="1.258" width="0.938" height="10.941" style="fill:rgb(151,151,151);fill-rule:nonzero;"/>
            <rect id="path243348" x="6.945" y="1.258" width="0.938" height="10.941" style="fill:rgb(151,151,151);fill-rule:nonzero;"/>
            <rect id="path243350" x="8.84" y="1.258" width="0.933" height="10.941" style="fill:rgb(151,151,151);fill-rule:nonzero;"/>
        </g>
    </g>
</svg>
