<?xml version="1.0" encoding="UTF-8" standalone="no"?>
<!DOCTYPE svg PUBLIC "-//W3C//DTD SVG 1.1//EN" "http://www.w3.org/Graphics/SVG/1.1/DTD/svg11.dtd">
<svg width="29px" height="14px" version="1.1" xmlns="http://www.w3.org/2000/svg" xmlns:xlink="http://www.w3.org/1999/xlink" xml:space="preserve" xmlns:serif="http://www.serif.com/" style="fill-rule:evenodd;clip-rule:evenodd;stroke-linejoin:round;stroke-miterlimit:2;">
    <g id="Layer-1" serif:id="Layer 1">
        <g id="g258244">
            <path id="path243332" d="M27.549,0c0.799,0 1.451,0.667 1.451,1.475l0,11.054c0,0.808 -0.652,1.471 -1.451,1.471l-26.098,0c-0.795,0 -1.451,-0.663 -1.451,-1.471l0,-11.054c0,-0.808 0.656,-1.475 1.451,-1.475l26.098,0Z" style="fill:rgb(38,38,38);fill-rule:nonzero;"/>
            <rect id="path243334" x="1.299" y="1.313" width="26.402" height="11.378" style="fill:rgb(38,38,38);fill-rule:nonzero;"/>
        </g>
        <g id="g258240">
            <path id="path243340" d="M18.859,1.316l-0.019,11.384l-8.7,-0.016l0.02,-11.384l8.699,0.016Z" style="fill:rgb(66,66,66);fill-rule:nonzero;"/>
            <path id="path243342" d="M14.991,1.31l-0.019,11.382l-0.96,-0.002l0.02,-11.382l0.959,0.002Z" style="fill:rgb(151,151,151);fill-rule:nonzero;"/>
            <path id="path243344" d="M11.119,1.303l-0.019,11.382l-0.96,-0.001l0.02,-11.384l0.959,0.003Z" style="fill:rgb(151,151,151);fill-rule:nonzero;"/>
            <path id="path243346" d="M13.053,1.306l-0.02,11.383l-0.959,-0.002l0.02,-11.382l0.959,0.001Z" style="fill:rgb(151,151,151);fill-rule:nonzero;"/>
            <path id="path243348" d="M16.926,1.313l-0.021,11.382l-0.958,-0.001l0.019,-11.383l0.96,0.002Z" style="fill:rgb(151,151,151);fill-rule:nonzero;"/>
            <path id="path243350" d="M18.859,1.316l-0.019,11.384l-0.955,-0.003l0.02,-11.382l0.954,0.001Z" style="fill:rgb(151,151,151);fill-rule:nonzero;"/>
        </g>
    </g>
</svg>
